<svg width="206" height="29" viewBox="0 0 206 29" fill="none" xmlns="http://www.w3.org/2000/svg">
<path d="M107.906 0.228483C107.825 0.431615 107.865 0.695686 108.008 0.837878C108.394 1.22383 108.252 1.56915 107.682 1.63009C107.276 1.67072 107.113 1.81291 107.113 2.0973C107.113 2.38168 107.235 2.48325 107.52 2.44262C107.743 2.42231 108.476 2.34105 109.147 2.30043C110.083 2.21917 110.449 2.0973 110.856 1.69103C111.283 1.28477 111.344 1.10195 111.161 0.817565C110.815 0.289423 110.408 0.309736 109.778 0.878505C109.167 1.42696 108.842 1.52853 108.842 1.12226C108.842 1.00038 108.659 0.65506 108.435 0.370675C108.089 -0.0965278 108.049 -0.0965278 107.906 0.228483Z" fill="#64725C"/>
<path d="M95.9247 0.817642C95.762 1.34578 95.7416 1.69111 95.9043 2.15831C96.0264 2.54426 96.1891 2.62552 96.6977 2.56458C97.2673 2.50364 97.3486 2.42238 97.4097 1.81299C97.491 1.04109 97.369 0.878582 96.5756 0.695763C96.2095 0.614511 95.9857 0.655137 95.9247 0.817642Z" fill="#64725C"/>
<path d="M121.779 0.878291C121.718 1.0408 121.759 1.22362 121.861 1.28455C122.227 1.508 122.085 2.03614 121.718 1.91426C121.21 1.75176 120.762 2.09708 120.905 2.50335C121.006 2.7471 121.169 2.78773 121.495 2.68616C121.759 2.60491 122.288 2.56428 122.674 2.56428C123.671 2.60491 124.709 1.95489 124.709 1.28455C124.709 0.857978 124.607 0.776725 124.098 0.776725C123.712 0.776725 123.427 0.918918 123.285 1.18299C123.02 1.65019 122.674 1.71113 122.674 1.28455C122.674 0.857978 121.942 0.492341 121.779 0.878291Z" fill="#64725C"/>
<path d="M87.1574 1.0409C87.0964 1.20341 87.076 1.5081 87.1167 1.71123C87.1574 1.97531 87.076 2.07687 86.8319 2.03625C86.4658 1.97531 85.9369 2.70658 86.2217 2.8894C86.3234 2.95034 86.9743 2.95034 87.666 2.90971C89.1509 2.82846 89.9849 2.38157 89.8832 1.73155C89.8019 1.14247 89.1713 1.06121 88.622 1.56904C88.2762 1.89405 88.1135 1.93468 87.9304 1.75186C87.788 1.60967 87.6863 1.38622 87.6863 1.26434C87.6863 0.878394 87.2998 0.715889 87.1574 1.0409Z" fill="#64725C"/>
<path d="M103.248 1.38623C103.187 1.48779 102.943 1.58936 102.719 1.58936C102.516 1.58936 102.17 1.67061 101.966 1.77218C101.783 1.87374 101.071 2.17844 100.4 2.4222C99.7286 2.66596 98.6709 3.09253 98.0606 3.37692C97.4503 3.64099 96.6163 4.00663 96.2298 4.16913C95.8433 4.33164 95.3348 4.55508 95.111 4.65665C94.277 5.02229 94.0939 4.96135 94.1549 4.41289C94.2566 3.53942 92.8734 1.38623 92.2224 1.38623C91.8359 1.38623 91.897 1.99562 92.3241 2.38157C92.8734 2.8894 93.504 3.86444 93.6464 4.45352C93.7888 5.0426 93.626 5.26604 92.5276 5.85513C91.8359 6.22076 91.3884 6.76922 91.5918 6.97235C91.6529 7.0536 92.67 6.64734 93.8498 6.07857C95.0093 5.5098 96.0264 5.0426 96.0874 5.0426C96.1688 5.0426 96.7994 4.77853 97.491 4.47383C98.203 4.14882 99.098 3.78318 99.4845 3.64099C100.217 3.37692 100.766 3.15347 101.58 2.82846C101.824 2.7269 102.393 2.52377 102.841 2.38157C104 2.05656 104.265 1.89406 104.326 1.50811C104.387 1.28466 104.245 1.1831 103.878 1.1831C103.594 1.1831 103.309 1.26435 103.248 1.38623Z" fill="#64725C"/>
<path d="M74.7896 2.17834C74.6065 2.36116 74.4641 2.78774 74.4641 3.09244V3.64089L73.9963 3.09244C73.6708 2.7268 73.386 2.58461 73.1826 2.66586C72.6944 2.84868 72.7554 3.35651 73.3047 3.64089C73.5488 3.76277 73.9556 4.12841 74.22 4.45342C74.4845 4.77843 74.7896 5.00187 74.8913 4.94093C74.993 4.85968 75.0744 4.35185 75.0744 3.8034C75.0744 2.95024 75.1354 2.80805 75.4202 2.84868C75.9084 2.92993 75.9898 2.2596 75.5219 2.01584C75.2168 1.85333 75.0541 1.89396 74.7896 2.17834Z" fill="#64725C"/>
<path d="M82.6005 2.52375C82.092 2.68626 81.4614 2.93002 81.1766 3.0519C80.6477 3.27534 79.9154 3.58004 79.2441 3.8238C78.8169 3.9863 77.9626 4.35194 76.6607 4.92071C76.2335 5.10353 75.5419 5.38791 75.135 5.57073C73.3449 6.32232 70.4564 7.78487 69.8461 8.23176C69.4799 8.49583 69.1748 8.86146 69.1748 9.02397C69.1748 9.5318 69.8054 10.324 70.2122 10.324C70.6801 10.324 70.7208 9.85681 70.2733 9.43023C70.1105 9.24741 70.0088 9.02397 70.0699 8.94272C70.1716 8.7599 72.7957 7.43954 74.362 6.76921C75.5419 6.26138 76.5386 5.8348 77.0065 5.65198C77.2302 5.57073 77.7591 5.34728 78.1863 5.16447C78.5932 4.98165 79.2848 4.69726 79.712 4.51444C80.7494 4.06755 81.1563 3.90505 81.9903 3.62066C83.4142 3.13315 84.0245 2.78782 84.0245 2.50344C84.0245 2.1378 83.76 2.1378 82.6005 2.52375Z" fill="#64725C"/>
<path d="M116.857 2.48321C116.796 2.64571 117.019 3.13323 117.365 3.55981C117.711 4.0067 117.996 4.61609 118.036 5.02236C118.097 5.67238 118.016 5.75363 117.08 6.26146C116.531 6.56616 115.514 7.11461 114.843 7.48025C113.561 8.1709 112.503 9.12562 112.503 9.59282C112.503 9.75533 112.686 10.0803 112.89 10.3444C113.215 10.7304 113.337 10.771 113.541 10.5882C113.744 10.385 113.724 10.2428 113.419 9.89752C113.032 9.49125 113.032 9.47094 113.521 9.1053C114.07 8.67873 115.128 8.10996 119.033 6.15989C121.698 4.81922 122.349 4.33171 121.82 4.12858C121.657 4.06764 121.006 4.29108 120.355 4.6364C118.87 5.40831 118.606 5.40831 118.606 4.65672C118.606 3.49887 117.162 1.71131 116.857 2.48321Z" fill="#64725C"/>
<path d="M105.913 2.90972C105.73 3.39724 105.77 4.00664 105.994 4.7176C106.096 5.06292 106.564 7.5005 107.011 10.1209C107.459 12.7413 107.927 15.3414 108.028 15.8695C108.354 17.4743 108.293 18.4087 107.845 18.6524C107.133 19.0181 106.523 18.8759 105.974 18.2259C104.896 16.9055 104.611 18.3071 105.587 20.1556C105.913 20.7853 106.136 21.415 106.075 21.5572C105.913 22.0041 104.163 23.2229 102.536 24.0557C101.295 24.6854 100.786 24.8276 99.8304 24.848C98.7319 24.848 98.5895 24.787 98.0403 24.1776C97.5724 23.6495 97.4504 23.3245 97.4504 22.5729C97.4504 21.5775 97.7148 20.6025 98.2844 19.5665C98.6099 18.9571 98.915 18.8759 99.8507 19.1603C100.237 19.2821 100.298 19.2415 100.298 18.7337C100.278 18.4087 100.156 17.9212 99.9931 17.6368C99.4235 16.6414 99.5456 16.5399 102.312 15.4226C103.736 14.8539 105.018 14.3867 105.16 14.3867C105.567 14.3867 106.197 13.5945 106.197 13.0663C106.197 12.4163 105.933 12.3147 102.739 11.7663C99.9524 11.2991 95.884 11.1772 95.1517 11.5631C94.4601 11.9085 93.9922 12.5991 93.9922 13.2694C93.9922 14.1023 94.1346 14.2445 95.6399 15.2601C96.3519 15.7477 96.9622 16.2758 97.0028 16.4383C97.0232 16.6008 96.657 16.9664 96.1892 17.2711C95.2534 17.8399 93.0158 19.7087 89.9035 22.4713C86.5267 25.4573 84.1263 26.7168 82.8041 26.1683C81.8887 25.7824 81.5226 25.0917 81.6446 23.8729C81.8684 21.3541 82.3973 20.44 83.9839 19.729C87.4217 18.2462 87.2794 18.3477 87.8286 16.8242C88.3371 15.4226 88.0727 12.8226 86.9335 8.29272C86.6894 7.31768 86.7098 7.15518 86.9742 6.95205C87.3811 6.64735 87.3607 6.52547 86.6691 5.14417C86.3436 4.47384 86.0588 3.8035 86.0588 3.66131C86.0588 3.17379 85.4893 3.41755 85.2452 4.04726C85.0417 4.51446 85.0417 4.75822 85.2045 5.10355C85.3469 5.3473 85.591 6.36296 85.774 7.37862C85.9571 8.37397 86.1809 9.57245 86.2623 10.0193C86.7911 12.6194 87.2794 15.5242 87.2794 16.032C87.2794 16.743 87.0353 16.9055 84.0653 18.1649C81.9904 19.0384 81.5429 19.3228 79.5901 21.0494C76.1116 24.0964 75.1555 24.5229 74.2808 23.4057C73.7722 22.7557 73.7519 22.3088 74.1791 21.1103C74.8707 19.0993 75.5013 18.3681 76.7015 18.1649C77.1694 18.0837 78.4509 17.6165 79.529 17.1086C82.4583 15.7273 83.7398 15.3414 84.879 15.4836C85.7944 15.6055 85.8554 15.5851 86.1605 14.9758C86.364 14.6304 86.425 14.2648 86.3233 14.1632C86.2216 14.0617 85.1028 13.8992 83.8009 13.7773C81.2988 13.5741 80.0579 13.371 78.0848 12.8429C76.1319 12.3554 74.7487 12.8632 74.9114 14.021C74.9724 14.4679 75.0538 14.4882 76.5998 14.5085C78.9798 14.5289 80.5665 14.7726 80.5665 15.0976C80.5665 15.5039 77.2711 16.6211 76.0709 16.6211C75.1148 16.6211 75.0538 16.6008 74.9521 16.0117C74.7893 15.2804 74.5656 15.2601 72.0228 15.7273C66.1847 16.7836 63.4995 17.2305 62.0146 17.4336C61.2619 17.5352 60.4482 17.6774 60.1838 17.718C59.4921 17.8805 51.6198 18.6118 48.0192 18.8556C43.4016 19.1603 29.3046 19.0993 25.0327 18.754C18.2182 18.2055 13.7226 17.3118 12.5631 16.2758C12.0545 15.7883 10.5289 15.7477 9.38972 16.1945C8.08783 16.6821 6.96902 17.4743 4.83311 19.4243C2.88027 21.2322 1.90386 21.6994 1.11052 21.2728C0.724018 21.0697 0.622308 20.8666 0.622308 20.1962C0.64265 19.0587 1.7818 16.8039 2.53446 16.4586C3.26677 16.093 3.87703 15.0773 3.87703 14.2242C3.87703 13.4523 3.40917 13.3913 3.30746 14.1429C3.20575 14.7929 2.49377 14.7117 2.22933 14.021C1.82249 12.9851 2.35138 10.0803 3.28711 8.25209C3.49053 7.84583 3.24643 7.62238 2.77856 7.8052C2.59548 7.86614 2.45309 8.15052 2.45309 8.39428C2.45309 8.65835 2.37172 8.94274 2.24967 9.00368C2.14796 9.06462 2.04625 9.349 2.04625 9.61307C2.04625 9.87714 1.96488 10.1412 1.86317 10.2022C1.39531 10.4865 1.11052 14.1835 1.45633 15.2601C1.68009 15.9508 1.68009 16.1133 1.35462 16.5805C1.17154 16.8852 0.947781 17.2915 0.886754 17.4743C0.825728 17.6774 0.703676 17.8399 0.601966 17.8399C0.500256 17.8399 0.418888 18.0227 0.418888 18.2259C0.418888 18.4493 0.33752 18.6931 0.215467 18.754C-0.150689 18.9774 -0.0286369 21.3338 0.418888 22.0447C1.45633 23.751 2.41241 23.5073 5.32132 20.8056C8.10817 18.2055 9.14562 17.5962 10.6306 17.6774L11.7087 17.7383L11.8308 18.5306C11.9325 19.0993 12.1766 19.5462 12.7055 20.0134C13.092 20.3791 13.5192 20.6838 13.6412 20.6838C13.7429 20.6838 13.8446 20.2775 13.8446 19.7697C13.8446 18.7337 13.8853 18.7134 15.3906 19.1603C16.306 19.4243 17.4859 19.6275 22.2866 20.3181C23.6088 20.5009 27.0466 20.5822 34.7969 20.5822C47.3276 20.5619 52.5352 20.2978 59.9193 19.2618C62.9299 18.8353 63.4182 18.754 67.751 17.9212C70.8837 17.3321 73.6909 16.8242 73.8943 16.8242C73.9553 16.8242 74.2198 17.1696 74.4639 17.5758C74.83 18.2055 74.8707 18.4087 74.6673 18.7337C73.6299 20.3791 73.1416 21.8416 73.3247 22.6541C73.4061 22.9588 73.5281 23.4667 73.5892 23.7714C73.7112 24.3808 74.8911 25.5589 75.3996 25.5589C76.1929 25.5589 77.3321 24.7667 79.2849 22.9182C81.0954 21.151 81.787 20.6228 81.787 20.9681C81.787 21.0088 81.6039 21.476 81.3802 22.0041C80.7699 23.4057 80.8106 25.8636 81.4412 26.798C82.0921 27.7731 82.7024 28.0371 83.9229 27.8949C85.3875 27.7121 87.1776 26.5746 90.2086 23.8932C95.1314 19.5259 97.6945 17.5149 98.081 17.7587C98.3251 17.9008 98.3047 18.8149 98.0606 18.9571C97.6945 19.1806 96.8401 21.1306 96.8401 21.74C96.8401 22.2072 96.7587 22.3088 96.3722 22.3088C96.1078 22.3088 95.6196 22.4307 95.2941 22.5932C94.9686 22.7557 94.3787 23.0198 93.9922 23.1823C93.6057 23.3448 92.8327 23.6901 92.2632 23.9339C91.7139 24.1979 90.8596 24.5636 90.3917 24.7667C89.9035 24.9698 89.517 25.2745 89.517 25.4573C89.517 25.9042 89.6797 25.8636 91.6325 24.9495C93.2396 24.1979 93.9922 23.9745 93.9922 24.2386C93.9922 24.3198 93.8498 24.6245 93.6871 24.9495C93.504 25.3152 93.4226 25.7824 93.504 26.2089C93.6668 27.1637 94.1956 28.2199 94.4194 28.0981C94.6635 27.9356 94.6635 27.2449 94.3991 27.0824C94.2974 27.0215 94.1956 26.6355 94.1956 26.2496C94.1956 25.6808 94.2974 25.5183 94.7042 25.3558C94.989 25.2542 95.2127 25.0714 95.2127 24.9698C95.2127 24.7261 94.6228 24.137 94.3787 24.137C93.9719 24.137 94.2363 23.812 94.8669 23.5682C95.2127 23.426 95.6806 23.2026 95.8637 23.101C96.3926 22.8166 96.6367 22.8776 96.6367 23.2635C96.6367 24.1573 97.1452 25.2948 97.7962 25.9042C98.4268 26.5136 98.6099 26.5746 99.7287 26.5746C100.766 26.5746 101.173 26.4527 102.536 25.7417C105.587 24.137 106.523 23.1823 106.747 21.4557C106.848 20.8056 106.97 20.6228 107.499 20.3994C108.374 20.0337 108.659 19.6478 108.944 18.3477C109.167 17.4336 109.167 16.8852 108.944 15.2601C108.516 12.1928 108.008 9.24743 107.621 7.60207C107.438 6.74891 107.459 6.58641 107.743 6.36296C108.069 6.13952 108.028 5.97701 107.357 4.4129C106.645 2.74722 106.177 2.2597 105.913 2.90972ZM100.563 12.9647C101.641 13.0663 102.739 13.2694 102.983 13.3913C103.35 13.5945 103.207 13.696 101.478 14.3664C100.42 14.7929 99.3422 15.2804 99.0574 15.4633C98.3861 15.9508 98.1217 15.8898 97.3893 15.1383C97.0232 14.7726 96.3722 14.1835 95.9247 13.8382L95.111 13.1882L95.6196 12.9851C96.2705 12.721 98.0403 12.721 100.563 12.9647Z" fill="#64725C"/>
<path d="M114.66 2.99087C114.477 3.17369 114.335 3.55964 114.335 3.84402C114.335 4.33154 114.335 4.33154 113.846 3.72214C113.378 3.15337 113.317 3.13306 112.992 3.45807C112.646 3.80339 112.666 3.86433 113.562 4.7378C114.07 5.24563 114.599 5.65189 114.721 5.65189C114.863 5.65189 114.945 5.24563 114.945 4.63623C114.945 3.76277 115.006 3.62058 115.291 3.6612C115.779 3.74245 115.86 3.07212 115.392 2.82836C115.087 2.66586 114.924 2.70648 114.66 2.99087Z" fill="#64725C"/>
<path d="M110.042 3.23465C109.92 3.47841 109.88 3.86436 109.941 4.10812C110.063 4.49407 110.612 7.68324 111.08 10.6287C111.71 14.5694 111.893 15.9304 112.016 17.5961C112.117 18.8758 112.239 19.4649 112.402 19.4649C112.809 19.4649 112.951 18.1648 112.809 16.032L112.666 14.0616L113.643 13.5741C114.192 13.2897 115.209 12.5178 115.901 11.8678C116.613 11.2177 117.243 10.7302 117.325 10.8115C117.528 11.0146 117.996 10.5068 117.996 10.1005C117.996 9.61299 116.999 8.53639 116.47 8.45514C116.125 8.41451 116.043 8.51608 116.003 9.1661C115.962 9.59268 116.043 10.0802 116.186 10.2427C116.369 10.4661 116.348 10.6287 116.043 10.9537C115.514 11.5427 113.053 13.3709 112.809 13.3709C112.687 13.3709 112.361 11.8881 112.056 10.0599C111.588 7.21604 111.568 6.72852 111.812 6.44414C112.056 6.15975 112.056 6.01756 111.771 5.32691C110.673 2.6862 110.47 2.44244 110.042 3.23465Z" fill="#64725C"/>
<path d="M122.654 3.53949C122.532 3.90513 122.532 4.31139 122.654 4.71766C122.776 5.06298 123.081 6.52553 123.366 7.98808C123.651 9.43031 124.159 11.9491 124.505 13.5742C124.831 15.1993 125.176 17.1899 125.237 18.0025C125.4 19.6275 125.604 19.9932 125.949 19.1197C126.356 18.0634 125.929 14.6711 124.688 9.34906C124.261 7.48025 124.2 6.66772 124.505 6.66772C124.627 6.66772 124.709 6.54584 124.709 6.38334C124.709 5.95676 123.264 3.01135 123.061 3.01135C122.959 3.01135 122.776 3.25511 122.654 3.53949Z" fill="#64725C"/>
<path d="M89.1104 4.20961C89.1104 4.6565 89.1917 5.44871 89.3138 5.99717C90.3105 11.0551 91.0632 15.7272 91.2463 18.246C91.348 19.6679 91.5717 20.318 91.8769 20.0133C92.1413 19.7492 92.2023 17.1085 91.9786 15.4225C91.6531 13.0865 90.9615 9.18634 90.7174 8.27224C90.4326 7.1347 90.4733 6.6675 90.8598 6.80969C91.2666 6.95189 91.1649 6.56594 90.3105 4.67681C89.6392 3.17363 89.1104 2.9705 89.1104 4.20961Z" fill="#64725C"/>
<path d="M103.756 4.67686C103.105 4.94093 102.739 5.10344 101.01 5.75346C100.237 6.05816 99.2605 6.44411 98.874 6.60661C98.4875 6.76912 97.979 6.99256 97.7552 7.07382C95.8837 7.8254 93.6868 8.86138 92.7104 9.45046C92.0188 9.89735 91.9374 10.0192 91.9984 10.6896C92.0391 11.299 92.1408 11.4615 92.5273 11.5021C92.8324 11.5427 92.9748 11.4615 92.9748 11.2583C92.9748 11.0755 92.8935 10.9333 92.7918 10.9333C92.69 10.9333 92.568 10.8114 92.507 10.6489C92.4256 10.4458 92.9138 10.1208 94.053 9.55202C95.9448 8.63793 97.5925 7.88634 97.7552 7.88634C97.8162 7.88634 98.2434 7.72384 98.7316 7.50039C99.1995 7.29726 100.359 6.83006 101.315 6.46442C102.271 6.1191 103.227 5.73315 103.451 5.65189C103.675 5.55033 104.163 5.36751 104.529 5.205C104.875 5.06281 105.18 4.81905 105.18 4.69717C105.18 4.39248 104.468 4.37216 103.756 4.67686Z" fill="#64725C"/>
<path d="M6.60257 5.48954C6.17539 5.67236 5.70752 6.44426 5.70752 6.89115C5.70752 7.01303 6.05333 7.05366 6.62291 6.95209C7.13146 6.89115 7.5383 6.89115 7.5383 6.95209C7.5383 7.03335 7.13146 7.2771 6.62291 7.50055C5.64649 7.92713 5.58547 8.29276 6.46017 8.29276C7.51796 8.29276 8.6978 7.52086 9.14532 6.54583C9.38943 6.038 9.53182 5.55048 9.4708 5.44892C9.30806 5.18485 7.1518 5.22547 6.60257 5.48954Z" fill="#64725C"/>
<path d="M127.963 5.95673C127.821 6.11924 127.76 6.46456 127.841 6.74895C128.004 7.43959 127.679 7.58179 127.353 6.97239C127.048 6.38331 126.336 6.28174 126.336 6.80989C126.336 7.01302 126.58 7.35834 126.885 7.6021C127.353 7.96774 127.434 8.17087 127.394 9.02402C127.312 11.0147 127.333 11.4007 127.536 11.9288C127.638 12.2132 127.841 12.8835 127.984 13.4117C128.289 14.5086 128.919 14.8336 128.696 13.7773C128.635 13.432 128.513 12.8632 128.452 12.4976C128.37 12.1523 128.248 11.746 128.167 11.6444C128.085 11.5225 127.963 11.1772 127.882 10.8725C127.76 10.3647 127.821 10.2834 128.472 9.99906C129.102 9.73498 129.163 9.65373 128.98 9.30841C128.858 9.08496 128.675 8.90214 128.574 8.90214C128.289 8.90214 128.126 8.15056 128.289 7.37866C128.35 6.97239 128.533 6.66769 128.696 6.66769C129.001 6.66769 129.041 6.46456 128.858 5.97705C128.696 5.57078 128.289 5.55047 127.963 5.95673Z" fill="#64725C"/>
<path d="M82.4993 6.46463C82.1738 6.58651 82.1128 6.76933 82.1535 7.39904L82.2145 8.19125L81.7873 7.52092C81.5636 7.15528 81.2788 6.91152 81.1567 6.99278C80.994 7.07403 80.994 7.17559 81.1567 7.3381C81.2788 7.45998 81.3805 7.76468 81.3805 8.00843C81.3805 8.67877 81.8687 8.98347 82.4383 8.67877C82.7027 8.53658 83.0282 8.43501 83.1909 8.47564C83.4961 8.53658 83.8215 8.15063 83.8215 7.74436C83.8215 7.60217 83.6995 7.52092 83.5774 7.56154C83.435 7.58186 83.374 7.58186 83.4757 7.54123C83.7605 7.37873 83.6181 6.68808 83.2723 6.50526C83.0689 6.40369 82.7231 6.38338 82.4993 6.46463Z" fill="#64725C"/>
<path d="M103.452 7.48013C103.37 7.60201 103.37 7.96764 103.452 8.29266C103.533 8.65829 103.492 8.90205 103.37 8.90205C103.268 8.90205 103.146 8.65829 103.106 8.3536C103.004 7.45982 102.536 7.54107 102.536 8.45516C102.536 9.40988 102.923 9.81614 103.594 9.5927C103.858 9.51145 104.204 9.45051 104.387 9.49113C104.794 9.53176 105.018 8.78017 104.814 8.02858C104.631 7.35825 104.306 7.29731 104.123 7.92702C104.001 8.39422 104.001 8.39422 103.98 7.94733C103.96 7.4395 103.655 7.17543 103.452 7.48013Z" fill="#64725C"/>
<path d="M120.132 7.4803C120.05 7.62249 120.091 7.9475 120.254 8.21157C120.396 8.47565 120.457 8.76003 120.376 8.82097C120.172 9.0241 119.827 8.69909 119.827 8.29283C119.827 7.86625 119.501 7.58187 119.338 7.84594C119.196 8.06938 119.542 9.51162 119.806 9.77569C119.949 9.91788 120.152 9.91788 120.478 9.75538C120.742 9.6335 121.128 9.51162 121.352 9.47099C121.861 9.38974 121.983 8.69909 121.617 7.88656C121.373 7.29748 120.844 7.05372 120.844 7.50061C120.844 7.66312 120.762 7.66312 120.559 7.50061C120.335 7.31779 120.233 7.31779 120.132 7.4803Z" fill="#64725C"/>
<path d="M78.8373 7.88666C78.6542 8.08979 78.5321 8.4148 78.5932 8.57731C78.7966 9.06482 78.4711 9.12576 78.0033 8.67887C77.515 8.21167 76.9048 8.27261 76.9048 8.78044C76.9048 8.94294 77.1896 9.1867 77.515 9.34921C77.8609 9.4914 78.1253 9.71484 78.1253 9.83672C78.1253 9.9586 78.3084 10.2227 78.5118 10.4055C78.9797 10.8321 79.1831 10.5883 79.1424 9.65391C79.061 8.39449 79.1017 8.21167 79.4475 8.49605C79.6916 8.69919 79.773 8.67887 79.8747 8.4148C79.9968 8.08979 79.651 7.4804 79.3458 7.4804C79.2645 7.4804 79.0407 7.66321 78.8373 7.88666Z" fill="#64725C"/>
<path d="M99.8306 7.82531C99.5051 8.13001 99.7085 8.49564 100.197 8.49564C100.563 8.49564 100.705 8.39408 100.705 8.08938C100.705 7.68312 100.136 7.52061 99.8306 7.82531Z" fill="#64725C"/>
<path d="M194.929 8.7396C194.99 9.77557 195.011 9.8162 195.601 9.8162C196.17 9.8162 196.211 9.75526 196.272 9.0443C196.333 8.39428 196.272 8.25209 195.926 8.15052C195.682 8.08958 195.499 7.9677 195.499 7.86614C195.499 7.76457 195.356 7.68332 195.173 7.68332C194.929 7.68332 194.889 7.88645 194.929 8.7396Z" fill="#64725C"/>
<path d="M98.0605 8.61771C98.0605 8.94272 99.4031 10.324 99.7083 10.324C99.81 10.324 99.8913 10.1006 99.8913 9.8365C99.8913 9.5318 99.6472 9.16616 99.1997 8.82084C98.386 8.21144 98.0605 8.1505 98.0605 8.61771Z" fill="#64725C"/>
<path d="M199.913 9.24736C199.71 9.43018 199.73 10.6083 199.933 10.8318C200.015 10.9537 200.401 11.7662 200.788 12.66C201.174 13.5538 201.825 14.8741 202.232 15.5851C202.639 16.296 202.944 17.007 202.883 17.1695C202.7 17.657 201.784 17.4539 201.174 16.8039C200.544 16.1335 200.177 16.1742 200.177 16.9054C200.177 17.982 198.53 18.4695 198.387 17.4336C198.265 16.5601 197.98 16.5398 197.574 17.3726C196.882 18.7133 195.356 19.1196 195.092 18.043C194.929 17.3726 194.583 17.3726 190.108 18.2461C184.738 19.3024 180.364 20.0133 177.598 20.2774C172.472 20.7852 171.068 20.9071 166.613 21.1915C160.999 21.5368 151.54 21.5775 146.617 21.2931C140.087 20.8868 134.473 19.9118 133.008 18.9164C132.316 18.4492 132.093 18.4086 130.831 18.4899C129.102 18.6117 128.167 19.1196 125.888 21.1712C123.122 23.6291 122.695 23.9338 121.861 23.9338C121.21 23.9338 121.067 23.8525 120.843 23.3244C120.62 22.8166 120.64 22.5322 120.884 21.74L121.189 20.7852H122.267C123.183 20.7852 123.386 20.704 123.732 20.2571C123.956 19.9727 124.18 19.2618 124.241 18.6321C124.342 17.6976 124.261 17.2914 123.712 16.032C123.305 15.0569 123.142 14.4475 123.264 14.3053C123.386 14.1632 123.203 13.6756 122.715 12.9037C122.044 11.8271 121.962 11.7459 121.718 12.0709C121.576 12.274 121.454 12.5787 121.454 12.7615C121.454 13.2287 122.186 15.2601 122.979 16.9867C123.366 17.7992 123.63 18.5914 123.549 18.7539C123.386 19.2211 122.471 19.3633 121.901 19.0383C121.027 18.5508 120.64 17.7789 120.335 16.0117C120.03 14.1225 119.786 13.2491 119.44 12.5787C118.891 11.5631 118.504 13.1069 118.931 14.6913C119.501 16.9054 119.399 18.307 118.626 19.0789C117.792 19.8915 116.978 19.8712 116.266 19.018C115.697 18.3477 115.697 18.3477 115.839 16.0929C115.941 14.2444 115.921 13.7975 115.677 13.5944C115.148 13.1475 114.415 14.671 113.907 17.1695C113.439 19.6274 113.093 20.3384 112.463 20.2368C111.649 20.1149 111.242 19.2414 111.12 17.332C111.039 15.7273 110.998 15.5851 110.733 15.9304C110.51 16.2148 110.469 16.682 110.55 17.7586C110.733 20.1149 111.608 21.6993 112.727 21.6993C113.5 21.6993 113.866 20.9681 114.253 18.693C114.436 17.7383 114.7 16.7226 114.843 16.4382C115.107 15.9507 115.127 16.0117 115.026 17.1289C114.863 18.6321 115.209 19.993 115.921 20.7243C116.348 21.1915 116.612 21.2931 117.406 21.2931C118.219 21.2931 118.443 21.2118 118.891 20.6837C119.175 20.3384 119.501 19.6883 119.643 19.2211L119.867 18.3883L120.376 19.2821C120.884 20.1759 120.884 20.1759 120.538 21.0899C119.969 22.5525 119.948 23.1619 120.457 24.2182C120.762 24.8885 121.108 25.2948 121.576 25.4979C122.206 25.8026 122.267 25.8026 123.122 25.2948C123.59 24.9901 124.871 23.9338 125.929 22.9181C128.167 20.8056 129.53 20.0133 130.811 20.1149C131.726 20.1759 131.91 20.3587 132.133 21.3743C132.276 22.0447 133.333 23.2025 133.72 23.0603C133.842 23.0197 133.964 22.6541 133.984 22.2275C134.005 21.8212 134.045 21.4353 134.106 21.3743C134.167 21.3134 134.717 21.415 135.307 21.5775C137.178 22.1056 142.121 22.7353 146.068 22.9588C153.553 23.365 170.092 22.7963 177.293 21.8822C179.713 21.5775 183.558 20.9884 185.226 20.6634C185.796 20.5618 186.711 20.379 187.26 20.2774C187.83 20.1555 189.193 19.8915 190.311 19.6883C194.095 18.9367 194.238 18.9367 194.461 19.5461C194.868 20.6024 196.516 20.4196 197.228 19.2211L197.594 18.5914L197.98 19.1196C198.367 19.6477 199.018 19.8102 199.486 19.5055C199.608 19.4243 199.872 19.0586 200.055 18.693L200.401 18.0227L201.011 18.5508C202.435 19.7493 203.717 18.7742 203.595 16.6007C203.513 15.5444 203.249 14.8741 202.049 12.7412C201.764 12.2334 201.703 11.9287 201.845 11.6849C202.029 11.3193 201.662 10.6083 200.727 9.55206C200.279 9.08486 200.137 9.02392 199.913 9.24736Z" fill="#64725C"/>
<path d="M72.9789 9.85688C72.6942 10.1209 72.8569 11.2788 73.2027 11.6038C73.6909 12.0507 73.9147 12.0304 74.3215 11.5835C74.8301 11.0147 74.7487 10.5678 74.0164 10.1209C73.2841 9.67406 73.1824 9.65374 72.9789 9.85688Z" fill="#64725C"/>
<path d="M7.01 10.8319C6.92863 10.9944 6.94897 11.3601 7.01 11.6445C7.17273 12.3148 6.94897 12.2945 6.237 11.5226C5.68776 10.9538 5.6064 10.9132 5.38263 11.2382C5.05716 11.6851 5.24024 12.132 5.8505 12.3757C6.13529 12.4773 6.39974 12.7414 6.46076 12.9851C6.66418 13.7367 7.23376 13.3508 7.29478 12.4164C7.33547 11.807 7.45752 11.5632 7.74231 11.482C8.00676 11.421 8.08812 11.2585 8.00676 10.9538C7.8847 10.4663 7.17273 10.3647 7.01 10.8319Z" fill="#64725C"/>
<path d="M71.0056 11.6446C70.8632 11.8071 70.8022 12.1524 70.8835 12.4571C71.0463 13.0665 70.8022 13.1072 70.2936 12.5587C69.8054 12.0306 69.1748 12.0306 69.1748 12.5587C69.1748 12.7821 69.3375 13.0259 69.541 13.1072C69.724 13.1681 70.1512 13.4931 70.4564 13.8384C70.7615 14.1634 71.0666 14.3869 71.1276 14.3259C71.1887 14.265 71.2293 13.8384 71.2497 13.3712C71.2497 12.6806 71.3311 12.4978 71.7379 12.3353C72.1854 12.1727 72.2058 12.1118 71.982 11.7462C71.6769 11.2587 71.3514 11.218 71.0056 11.6446Z" fill="#64725C"/>
<path d="M196.76 11.5833C196.618 11.7255 196.516 12.0708 196.516 12.3958V12.9443L195.906 12.599C195.438 12.3146 195.255 12.3146 195.052 12.5177C194.726 12.8427 195.052 13.4318 195.621 13.5537C195.825 13.5943 196.15 13.8381 196.374 14.1021C196.882 14.7725 197.127 14.549 197.127 13.3912C197.127 12.5583 197.188 12.3755 197.554 12.2943C197.9 12.1927 197.94 12.1114 197.737 11.7661C197.493 11.2786 197.127 11.2177 196.76 11.5833Z" fill="#64725C"/>
<path d="M6.7656 14.8334C6.64355 14.9553 6.5215 15.1787 6.5215 15.3209C6.5215 15.7475 5.13824 16.9663 3.99909 17.5147C3.40917 17.8194 2.77857 18.2054 2.63617 18.3882C2.37172 18.6929 2.41241 18.7132 2.96164 18.571C4.01943 18.3273 5.362 17.5757 6.135 16.7632C6.54184 16.3569 7.07073 16.0116 7.31484 16.0116C7.84373 16.0116 8.08784 15.4834 7.80305 15.0162C7.5386 14.5896 7.09108 14.5084 6.7656 14.8334Z" fill="#64725C"/>
<path d="M88.5815 19.2416C88.4187 20.0135 88.2153 20.176 87.8899 19.7697C87.5847 19.4041 87.0762 19.3635 87.0762 19.7088C87.0762 19.851 87.4423 20.3182 87.8695 20.7448C88.6629 21.537 89.0697 21.4964 88.8052 20.6838C88.6222 20.1354 88.8663 19.465 89.2324 19.465C89.6596 19.465 89.4969 18.7744 89.0493 18.6931C88.8052 18.6322 88.6629 18.7947 88.5815 19.2416Z" fill="#64725C"/>
<path d="M69.439 19.2415C69.3169 19.3024 69.1542 19.6477 69.0931 20.0134C68.9508 20.6228 68.9914 20.6837 69.6627 20.9681C70.4764 21.3134 70.4561 21.2931 70.212 21.9634C70.0085 22.5119 70.0899 22.715 70.7409 23.0604C71.4325 23.4463 71.7986 23.3854 72.0631 22.8369C72.3479 22.1869 72.1648 21.74 71.5342 21.4962C71.1274 21.354 71.0256 21.1509 70.9646 20.4806C70.9036 19.7493 70.8222 19.5868 70.273 19.3634C69.9272 19.2212 69.5407 19.1602 69.439 19.2415Z" fill="#64725C"/>
<path d="M75.7861 19.4648C75.7047 19.5867 75.7454 19.8102 75.8675 19.9524C76.0099 20.1352 76.0099 20.3789 75.8471 20.8258C75.3793 22.0852 76.1929 22.4712 77.7186 21.6993C79.0815 21.0086 79.1425 20.4399 77.7593 21.0899C76.9049 21.4962 76.0912 21.618 76.0912 21.3336C76.0912 21.2524 76.315 20.8664 76.5591 20.4805C76.8235 20.0945 77.0066 19.6477 76.9659 19.5055C76.8439 19.2008 75.9692 19.1805 75.7861 19.4648Z" fill="#64725C"/>
<path d="M8.06741 20.3183C7.72159 21.009 7.61988 22.7153 7.92501 23.02C8.02672 23.1419 8.14877 23.4872 8.18946 23.8325C8.23014 24.1575 8.35219 24.4216 8.4539 24.4013C8.73869 24.3403 8.82006 23.345 8.5963 22.8372C8.47425 22.5934 8.33185 22.1668 8.27083 21.8621C8.16912 21.3949 8.23014 21.3137 8.77938 21.1918C9.59306 21.009 9.73545 20.5621 9.16588 20.0746C8.53527 19.5261 8.43356 19.5667 8.06741 20.3183Z" fill="#64725C"/>
<path d="M100.441 20.237C100.014 20.7042 100.014 20.8464 100.4 20.9277C100.644 20.9886 100.644 21.0699 100.36 21.6387C100.115 22.1871 100.095 22.3699 100.299 22.6137C100.827 23.2434 102.089 22.7965 103.045 21.659C103.716 20.8464 103.37 20.6027 102.577 21.3543C101.967 21.923 101.194 22.2074 101.031 21.9434C100.97 21.8418 101.153 21.4355 101.438 21.0089C101.722 20.6027 101.885 20.1761 101.824 20.0745C101.621 19.7495 100.787 19.8511 100.441 20.237Z" fill="#64725C"/>
<path d="M200.889 20.8667C200.584 21.4761 200.605 21.4761 201.317 22.0448L202.049 22.5933L202.435 22.1261C202.985 21.4558 202.924 20.9479 202.212 20.5823C201.398 20.1557 201.256 20.1963 200.889 20.8667Z" fill="#64725C"/>
<path d="M15.4113 20.826C15.2689 20.9479 13.9873 21.4354 12.2176 22.0245C11.3225 22.3292 10.5902 22.6135 9.97993 22.9182C9.81719 22.9995 9.65446 23.2229 9.61377 23.4057C9.5324 23.7714 10.1427 23.8526 10.7529 23.5479C10.936 23.4464 11.3225 23.2839 11.6073 23.1823C12.0955 22.9792 12.6244 22.7557 13.7025 22.3292C13.9466 22.2276 14.5162 22.0245 14.9637 21.8823C15.8995 21.5776 16.5301 21.1104 16.3673 20.8666C16.2453 20.6432 15.5943 20.6228 15.4113 20.826Z" fill="#64725C"/>
<path d="M84.9401 21.5574C84.4722 22.2074 84.5739 22.6746 85.2452 23.0199C86.0792 23.4465 86.364 23.4059 86.6285 22.8168C86.9336 22.1465 86.7912 21.8214 85.9572 21.4355C85.2859 21.1105 85.2452 21.1105 84.9401 21.5574Z" fill="#64725C"/>
<path d="M66.5306 21.6995C66.2052 21.862 64.944 22.4308 63.6421 22.9995C63.2149 23.1823 62.5639 23.4464 62.2181 23.6089C61.852 23.7714 61.2417 24.0152 60.8959 24.1574C60.4077 24.3605 60.2246 24.5636 60.2246 24.8886C60.2246 25.4574 60.367 25.4574 61.3841 24.9699C61.8113 24.7465 62.808 24.2793 63.581 23.9136C67.4053 22.187 67.6495 22.0448 67.4257 21.6589C67.3036 21.4557 66.9375 21.476 66.5306 21.6995Z" fill="#64725C"/>
<path d="M198.631 21.7808C198.55 21.984 198.367 22.0855 198.204 22.0246C198.021 21.9433 197.858 22.0449 197.797 22.309C197.675 22.7762 197.635 22.7965 197.126 22.5121C196.618 22.248 195.906 22.5527 194.421 23.7512C193.77 24.2793 192.976 24.8278 192.692 24.97C192 25.3153 191.634 25.6606 191.634 25.945C191.634 26.2294 192.183 26.2294 192.346 25.9653C192.407 25.8435 192.631 25.7622 192.834 25.7622C193.017 25.7622 193.363 25.5997 193.587 25.3966C195.519 23.6496 196.068 23.3246 197.004 23.3246C197.513 23.3246 197.94 23.2434 197.94 23.1418C197.94 23.0402 198.184 22.9184 198.509 22.8777C198.916 22.8371 199.079 22.6949 199.12 22.3293C199.221 21.7199 198.815 21.273 198.631 21.7808Z" fill="#64725C"/>
<path d="M114.537 22.1462C113.459 22.6337 111.344 23.5884 110.367 24.0556C109.818 24.2993 109.106 24.604 108.801 24.7259C108.435 24.8681 108.231 25.0916 108.231 25.3556C108.231 25.8025 108.455 25.8635 109.004 25.5791C109.188 25.4775 110.367 24.9291 111.588 24.34C112.829 23.7712 113.988 23.2228 114.171 23.1009C114.375 22.9993 114.66 22.9181 114.802 22.9181C115.087 22.9181 115.758 22.2883 115.758 22.0446C115.758 21.8415 115.127 21.9024 114.537 22.1462Z" fill="#64725C"/>
<path d="M128.269 22.4916C128.208 22.6135 128.187 22.7963 128.248 22.8979C128.309 22.9995 128.228 23.1823 128.065 23.3245C127.72 23.6089 127.659 24.848 127.964 25.0511C128.086 25.112 128.167 25.437 128.167 25.7417C128.167 26.5136 128.655 27.1637 129.001 26.8183C129.205 26.6355 129.205 26.5136 129.021 26.3308C128.879 26.1886 128.777 25.8433 128.777 25.5386C128.777 25.2339 128.696 24.9089 128.574 24.848C128.472 24.787 128.37 24.5026 128.37 24.2183C128.37 23.8323 128.472 23.7307 128.879 23.7307C129.469 23.7307 129.754 23.2229 129.449 22.7354C129.205 22.3494 128.472 22.2072 128.269 22.4916Z" fill="#64725C"/>
<path d="M204.246 22.512C203.86 22.7151 202.029 23.5276 201.5 23.7307C201.276 23.812 200.686 24.0761 200.218 24.3198C199.73 24.5433 199.201 24.7464 199.039 24.7464C198.896 24.7464 198.672 24.9292 198.55 25.1324C198.245 25.7214 198.652 25.8636 199.527 25.4574C202.171 24.2386 202.863 23.9339 204.043 23.487C204.978 23.1214 205.161 22.9792 205.223 22.6338C205.304 22.2885 204.775 22.2073 204.246 22.512Z" fill="#64725C"/>
<path d="M117.589 22.7149C117.447 22.7961 117.345 23.1008 117.345 23.4055C117.345 24.0352 117.243 24.0555 116.653 23.5071C116.185 23.0602 115.758 23.1211 115.758 23.629C115.758 23.7915 115.941 24.0149 116.165 24.1368C116.409 24.2587 116.674 24.604 116.796 24.8681C116.918 25.1931 117.101 25.3556 117.345 25.3149C117.609 25.2743 117.711 25.0103 117.752 24.279C117.793 23.5071 117.874 23.3243 118.118 23.4055C118.301 23.4664 118.403 23.3852 118.403 23.1414C118.403 22.6945 117.976 22.4711 117.589 22.7149Z" fill="#64725C"/>
<path d="M135.693 23.3043C135.531 23.4059 134.798 23.67 134.066 23.9137C133.334 24.1575 132.561 24.4419 132.337 24.5434C132.113 24.6247 131.483 24.8888 130.913 25.0919C129.855 25.4982 129.408 26.1685 130.181 26.1685C130.425 26.1685 130.771 26.0872 130.974 25.9857C131.157 25.8841 131.564 25.7013 131.89 25.5794C132.195 25.4575 132.683 25.2544 133.008 25.1325C133.313 25.0106 133.72 24.8278 133.903 24.7263C134.107 24.6247 134.412 24.5434 134.575 24.5434C134.737 24.5434 135.083 24.4419 135.348 24.2997C135.592 24.1778 135.938 24.0153 136.1 23.934C136.263 23.8528 136.426 23.6293 136.466 23.4465C136.548 23.1012 136.182 23.02 135.693 23.3043Z" fill="#64725C"/>
</svg>
