<svg width="150" height="167" viewBox="0 0 150 167" fill="none" xmlns="http://www.w3.org/2000/svg">
<rect width="150" height="167" rx="35" fill="black"/>
<path d="M58.148 20.426C56.5791 20.6737 54.3568 21.3015 53.9026 21.4667C50.063 22.9943 48.3906 24.4392 46.6181 25.8027C43.9797 27.8322 41.4669 30.6444 39.898 33.7822L39.16 35.686H29.3716C24.0869 35.6447 18.3469 35.686 18 35.689C18.8672 36.0359 20.0708 36.6561 20.6016 37.25C22.5426 39.4212 22.8059 39.5529 23.3025 80.0026C23.5502 122.115 23.146 120.76 25.458 127.614C30.7014 143.261 47.1091 151.01 62.9217 143.744C71.4326 139.833 76.9614 134.377 79.9191 124.145C82.9742 113.575 80.491 101.954 73.8026 92.0454C70.541 87.2562 65.9505 81.6269 61.4916 76.8377C50.0141 64.3693 45.3906 58.121 43.1611 51.1023C42.1764 48.0024 41.9463 42.9619 42.0047 41.1556C42.0631 39.3494 42.3339 38.1272 42.4137 37.7703H59.6263C77.2555 37.8942 78.633 38.231 83.5461 39.1806C94.9823 41.3688 101.694 45.7271 105.864 54.1908C107.969 58.4845 108.892 61.1379 108.892 67.9501C108.892 74.4733 107.65 77.4871 105.008 82.5653C101.086 89.9968 93.2517 95.2188 84.9944 96.1271C83.632 96.2922 81.2419 96.3246 81.2419 96.3246C81.2419 96.3246 83.3925 97.7071 84.7969 98.7605C89.0907 101.981 91.8375 105.517 98.98 116.128C101.705 120.174 105.049 125.128 106.412 127.069C107.733 129.009 110.796 133.303 113.025 136.647C117.195 142.881 118.667 144.866 121.598 145.898C126.733 147.706 132 146.885 132 146.885C132 146.885 130.881 146.49 129.762 146.095C128.998 145.826 127.852 145.349 127.194 144.91C126.207 144.252 123.982 142.097 121.339 138.629C120.39 137.39 117.384 132.932 114.576 128.72C102.025 110.142 100.286 107.512 97.4371 103.961C95.6618 101.773 93.3353 99.5125 91.9728 98.563C90.6517 97.696 88.747 96.8513 88.747 96.8513C88.747 96.8513 90.693 96.367 91.9728 95.9954C98.9089 94.0137 105.57 89.7122 109.616 83.6844C113.167 78.3998 114.883 73.3307 114.883 66.4359C114.883 52.7702 107.833 42.874 94.8695 38.4564C87.6857 36.0205 79.65 35.6064 59.6263 35.689C59.6263 35.689 43.1822 35.689 42.9758 35.689C42.9758 35.689 43.7391 33.019 45.308 30.6244C47.4879 27.1457 49.3119 25.2788 51.6165 24.0387C53.0807 23.2509 54.6456 22.4545 56.8512 22.1604C59.4528 21.8136 62.4013 21.8136 64.6561 22.5073C67.332 23.2001 69.5125 24.4152 71.7673 25.9762C72.6804 26.6083 74.1955 27.8841 74.5423 28.2309C74.5423 27.3637 74.5423 23.7214 74.5423 22.8542C74.3689 22.6808 71.5104 21.26 68.1249 20.5995C63.7073 19.6499 60.7497 20.0152 58.148 20.426ZM38.4497 37.7703C38.3671 38.2244 37.7913 40.7606 37.6701 42.0194C37.0013 46.3565 38.2481 53.0841 40.973 58.4926C42.2116 60.9285 45.019 65.5525 45.5144 65.9654C45.6383 66.0892 46.8356 67.5755 48.1155 69.2683C49.3953 70.961 50.8816 72.8189 51.4184 73.3969C51.9138 73.9749 53.5652 75.8328 55.0515 77.5255C56.5378 79.2182 58.0654 80.9935 58.5196 81.4477C62.4831 85.7414 68.017 93.0831 70.5767 97.7071C74.2099 104.313 75.3683 108.066 75.4095 115.993C75.4508 121.443 75.1533 122.858 74.3689 125.624C72.8413 130.95 71.3123 135.353 68.2984 138.367C64.2523 142.413 59.9886 144.007 54.2499 144.007C43.4329 144.007 34.6562 136.647 30.8991 125.624C29.2601 120.815 28.9696 119.959 28.7523 78.2687V37.7703H33.6098H38.4497Z" fill="white"/>
</svg>
