<svg width="85" height="246" viewBox="0 0 85 246" fill="none" xmlns="http://www.w3.org/2000/svg">
<mask id="path-1-outside-1_92_27402" maskUnits="userSpaceOnUse" x="-1.05072" y="1.27777" width="95.4246" height="245.198" fill="black">
<rect fill="white" x="-1.05072" y="1.27777" width="95.4246" height="245.198"/>
<path d="M37.6155 6.50591C37.2381 6.84372 36.4521 8.89122 35.8977 11.0434L34.8968 14.9947L34.7341 12.83C34.4918 10.2028 33.3777 9.07591 32.4582 10.5382C32.138 11.0413 32.005 11.6536 32.1606 11.9372C32.2717 12.2253 32.7643 14.0143 33.1776 15.9397C33.8578 19.0355 33.8613 19.6767 33.2628 22.4322L32.5534 25.4984L32.3077 22.23C31.9953 18.6691 31.3758 16.9785 30.2335 16.6671C28.593 16.2781 28.5459 17.4377 30.0959 21.3859C31.8746 25.9952 31.9892 26.9245 31.0492 32.2811L30.3751 36.413L29.8821 33.4264C29.2396 29.6424 28.0901 27.4498 26.8908 27.5719C25.6471 27.6985 25.8032 29.1796 27.3687 32.1425C29.7692 36.6885 30.0998 38.1091 29.6611 43.5856C29.4624 46.3005 29.3652 49.176 29.3815 49.987C29.4421 50.7935 28.9434 49.5184 28.3205 47.1866C26.56 40.4369 24.8772 37.6998 23.4564 39.042C22.4954 39.9525 22.8738 42.0098 24.4739 44.2421C25.2295 45.3627 26.6234 47.8299 27.5284 49.748C29.0274 53.017 29.1705 53.7296 29.935 60.9228L30.7822 68.6209L29.6404 69.5071C29.006 69.9994 28.1052 70.5188 27.6262 70.6959C26.2779 71.2181 25.6092 73.0398 26.105 74.8712C26.4164 76.0371 27.2545 77.0638 29.0636 78.5049L31.5836 80.4725L32.3415 86.9821C33.2204 94.5059 34.415 98.4903 37.5808 104.284C40.229 109.147 44.3913 115.695 47.4294 119.791C48.7247 121.541 50.2231 123.613 50.8167 124.365C52.2644 126.356 51.3026 125.47 48.0331 121.868C46.4714 120.145 42.5101 116.272 39.2408 113.268C36.016 110.26 33.1148 107.391 32.8512 106.862C32.6321 106.328 32.0347 104.336 31.5739 102.372C30.4454 97.483 30.1215 96.7461 29.0999 96.8501C27.723 96.9903 27.9495 100.004 29.569 103.09L30.8804 105.651L28.5856 103.703C26.4845 101.949 26.1861 101.552 25.7473 99.2872C24.8601 94.6299 24.5646 93.6763 23.8029 93.0695C23.1332 92.4961 22.9999 92.5097 22.5212 93.2855C21.8395 94.3386 22.3035 96.3444 23.8879 98.9632L25.0118 100.816L22.5141 99.1459C20.6734 97.8791 19.8481 97.0221 19.3938 95.7425C18.155 92.3613 17.485 91.1892 16.7204 91.1387C15.6384 91.035 15.8644 92.8512 17.1376 94.9029L18.1948 96.4633L15.9067 95.1993C13.993 94.1538 13.5074 93.6472 13.18 92.2691C12.5984 89.8903 11.6904 88.5285 10.9004 88.7373C10.4214 88.9144 10.2344 89.4039 10.3966 90.3711L10.5464 91.7673L9.36547 90.3478C7.99096 88.7341 5.91585 88.5176 6.02434 89.9608C6.08178 90.7249 6.84351 91.3316 10.7883 93.7957L11.9594 94.4891L10.503 94.1669C9.31619 93.86 8.91644 93.9007 8.50417 94.3704C8.09191 94.8401 8.15547 95.0902 8.77118 95.5408C9.67574 96.2614 13.4007 96.3954 14.1555 95.7197C14.5329 95.3819 15.4468 95.631 17.224 96.6477L19.7438 98.0165L18.1892 98.1747C16.0127 98.3963 15.1975 98.8643 15.2645 99.7556C15.3411 100.774 16.2042 100.943 19.8464 100.572C22.7335 100.278 23.0064 100.336 24.7107 101.574C26.3738 102.859 26.4214 102.897 25.1903 102.594C23.096 102.123 20.1772 102.592 19.4415 103.522C18.1763 105.148 19.2806 105.549 24.4045 105.241L29.1287 104.974L31.5663 107.035C32.9057 108.182 33.5946 109.01 33.1344 108.843C29.9803 107.966 26.0527 108.709 26.4277 110.125C26.6024 110.663 27.2814 110.765 29.9529 110.578C31.7772 110.435 33.7411 110.364 34.2837 110.437C35.8194 110.623 46.3224 120.545 51.2428 126.46C52.4237 127.88 53.6426 129.21 54.0171 129.428C54.9597 130.06 68.7443 149.699 74.329 158.498C81.8853 170.303 82.9079 172.594 84.2818 180.153C84.8543 183.602 85.2934 186.466 85.2109 186.56C85.1285 186.654 82.2845 183.949 78.8533 180.578C73.0065 174.843 72.4129 174.09 70.2091 169.781C68.8564 167.267 67.1577 164.318 66.3609 163.244C62.9736 158.67 55.8169 153.967 47.6235 150.952C40.1186 148.166 35.0788 144.829 33.5386 141.607C32.9035 140.303 32.1577 139.909 32.2343 140.927C32.2758 141.479 34.3551 144.133 35.7453 145.36C36.2246 145.782 37.3613 147.805 38.2727 149.808C43.1887 160.428 48.3876 164.689 64.1622 170.91L70.5248 173.385L74.9177 177.642C77.3332 180.005 78.9934 181.846 78.5809 181.717C78.216 181.626 77.0864 181.485 76.1409 181.41C75.1065 181.344 73.4437 180.658 71.9393 179.699C65.8301 175.83 59.979 174.8 48.2717 175.65C43.7315 175.984 38.8645 176.137 37.4208 175.985C35.9739 175.79 34.8571 175.818 34.9619 176.021C35.0667 176.225 36.2758 176.829 37.6594 177.372C39.0429 177.916 42.7748 179.332 45.9576 180.591C49.1373 181.807 53.6782 183.269 56.0453 183.798C60.0498 184.673 60.8113 184.681 66.1445 184.181C70.453 183.742 72.2614 183.387 73.2034 182.821C74.1868 182.207 75.0719 182.075 77.0898 182.126C79.6059 182.255 79.7011 182.33 82.5579 185.205C84.1545 186.796 85.583 188.532 85.7069 188.99C85.8785 189.486 87.0422 195.441 88.3586 202.236C90.4415 213.273 90.7375 215.424 90.9688 222.072C91.1548 226.929 91.055 230.96 90.6754 233.651C90.008 238.466 89.9952 238.296 90.5312 237.686C91.8092 236.23 92.3172 222.149 91.3402 215.106C90.9743 212.619 89.7975 205.896 88.6528 200.196C87.5495 194.448 86.5447 189.418 86.5096 188.951C86.4745 188.484 86.0865 186.3 85.6541 184.12C85.2217 181.939 84.0816 172.133 83.1225 162.35C81.2935 143.974 80.342 137.27 78.7056 131.577C77.4854 127.253 76.9266 126.369 73.1781 122.944C71.4482 121.366 69.1944 118.773 68.226 117.203C66.7053 114.835 66.4194 114.008 66.409 112.085C66.3543 110.166 66.5413 109.676 67.3533 109.166C67.9116 108.852 68.6188 108.139 68.9359 107.593C69.6144 106.498 70.3854 106.633 70.4748 107.821C70.5067 108.246 70.767 108.733 70.9987 108.837C71.3224 108.976 71.4205 108.495 71.2932 107.396C70.8509 104.49 72.6367 103.239 74.6934 104.997C76.8453 106.831 77.4849 111.171 76.6696 118.782C76.0659 124.446 76.0851 124.701 76.5734 124.052C76.9413 123.587 77.6779 117.31 77.9073 112.026C78.1119 108.199 78.9614 106.401 80.7666 106.004C82.2196 105.685 82.972 106.763 83.2174 109.433C83.4918 113.083 81.8632 118.21 78.5374 123.981C77.7416 125.302 77.2503 126.507 77.3963 126.663C77.7772 126.967 77.6154 127.197 79.8156 123.123C80.7953 121.27 82.1773 118.221 82.8016 116.404C83.8442 113.603 83.9897 112.562 83.8236 109.756C83.597 106.742 83.4763 106.327 82.4449 105.705C81.8323 105.296 81.0105 105.081 80.6139 105.164C80.2205 105.289 79.5256 104.975 79.0431 104.511C78.075 103.54 76.9042 103.446 76.1621 104.291C75.8323 104.667 75.3341 104.589 74.2583 103.972C73.0428 103.283 72.6367 103.239 71.7802 103.754C71.222 104.067 70.6448 104.725 70.5022 105.21C70.4072 105.733 70.0362 106.155 69.7697 106.182C69.5032 106.21 68.9101 106.655 68.409 107.134C67.9555 107.65 67.0865 108.594 66.4649 109.256C65.6753 110.064 65.3329 110.868 65.3999 111.76C65.4861 112.906 65.3624 113.047 64.0299 113.182C61.9423 113.395 60.7182 114.974 60.8874 117.223C61.1362 120.534 64.9861 123.521 72.4846 126.222L76.7622 127.754L77.7598 130.903C79.2404 135.714 80.9777 147.513 82.1573 160.823L83.238 172.817L81.6406 169.43C79.7225 165.348 72.1598 153.458 65.0961 143.441C58.4864 134.106 55.7079 128.7 55.3952 124.54C55.1878 121.781 55.3652 121.165 57.5109 115.771C60.4141 108.546 60.5407 107.849 60.5185 100.409C60.5282 93.3937 61.2691 89.5545 63.2001 86.6633C64.4081 84.8722 66.4982 82.9058 67.7956 82.3032C68.1002 82.1867 68.1698 81.923 67.9794 81.7713C67.3573 81.2358 63.5608 84.3169 60.2626 88.0744C55.3567 93.6636 52.8466 100.164 52.1522 108.789C51.9157 112.192 52.6233 119.818 53.443 122.387C54.4946 125.659 50.2389 116.083 48.8698 112.16C46.5666 105.337 45.6223 100.514 45.3944 94.5068L45.1828 89.3103L47.0952 87.3619C48.1322 86.2726 50.5808 84.3125 52.5379 82.9584C60.9624 77.1393 62.9857 74.8803 62.2293 71.9633C61.9878 71.1325 61.6889 69.5376 61.5615 68.4385C61.3833 67.2591 60.8403 65.9884 60.3006 65.359C58.8849 63.7923 58.4593 62.8947 58.2142 60.8239C57.9246 58.7576 56.7532 57.4654 55.1986 57.6236C54.5324 57.6915 53.9738 57.4062 53.7039 56.7921C53.0847 55.7003 49.1553 52.251 48.4891 52.3188C47.734 52.3957 42.9483 57.2028 42.9961 57.8395C43.0791 58.9431 41.7083 58.5694 39.9816 57.0343C36.9631 54.3904 33.9776 54.5661 32.053 57.5421C31.3301 58.6423 31.2638 59.5472 31.4909 63.7584C31.9194 71.8413 31.3633 69.8021 30.6933 60.8884L30.0711 52.6114L31.5137 50.3687C32.3159 49.1322 33.9427 46.9564 35.135 45.5518C38.0874 41.9579 39.0069 40.4956 38.9239 39.392C38.7708 37.3546 36.2233 37.9989 34.3144 40.5884C33.0111 42.3036 30.2376 48.8733 30.3554 49.8451C30.3842 50.2271 30.9706 49.0981 31.6869 47.3144C33.8991 41.6144 36.1347 38.6067 37.8228 39.0336C38.8255 39.2737 37.9252 40.9907 34.697 45.0832C33.2256 46.9438 31.7226 48.9788 31.3675 49.6137C30.2198 51.6125 29.8512 50.2814 30.2425 45.3656C30.5865 41.0107 30.7227 40.4408 32.3239 37.9254C33.2846 36.4161 34.5403 34.663 35.1619 34.0009C37.2328 31.7798 37.8757 29.0198 36.2322 29.1871C35.4327 29.2685 33.7552 31.364 32.5125 33.8857C30.9592 37.0378 31.3972 37.5065 33.0014 34.4347C35.0335 30.5067 36.3559 29.0462 36.4708 30.5743C36.525 31.2959 32.0856 37.137 31.5398 37.0215C31.3145 37.0017 31.156 37.2744 31.1879 37.6989C31.2166 38.0809 31.1437 38.3022 31.0009 38.1884C30.8581 38.0746 31.1712 35.6903 31.6713 32.8165L32.5353 27.6388L35.5671 24.5072C38.4721 21.4741 38.9254 20.3587 37.1043 20.5441C36.3492 20.621 34.107 22.945 34.1548 23.5817C34.1676 23.7515 34.8464 23.2547 35.6361 22.4472C37.2186 20.8746 37.52 20.7156 37.5646 21.3099C37.5806 21.5221 36.588 22.6069 35.4209 23.7522C34.2062 24.8596 33.4481 25.4928 33.7367 25.1641C34.3455 24.3322 34.3389 23.6485 33.6601 24.1454C33.3207 24.3938 33.2668 24.271 33.4442 23.6541C33.6343 23.207 33.986 21.9309 34.2679 20.9184C34.797 19.0254 35.2125 18.5982 40.7788 14.0537C41.7081 13.3176 41.2826 12.4199 40.0389 12.5465C39.5947 12.5917 38.6114 13.2051 37.9042 13.9187L36.5658 15.167L37.9481 12.7166C39.8788 9.22667 40.3983 7.20631 39.6238 6.42975C38.8525 5.69562 38.5828 5.68031 37.6155 6.50591ZM39.2118 7.49819C39.2501 8.00755 38.9365 9.19429 38.5149 10.1354C37.6337 12.1071 35.3987 16.3123 35.3732 15.9728C35.3253 15.3361 37.4987 7.92924 37.9046 7.37466C38.5514 6.45339 39.1384 6.52194 39.2118 7.49819ZM33.8577 11.2939C34.0197 11.6624 34.2266 13.2238 34.3415 14.7519L34.5108 17.6003L33.6816 14.9046C33.2558 13.4082 32.8712 11.8648 32.7949 11.4449C32.7279 10.5535 33.4354 10.4387 33.8577 11.2939ZM40.5373 13.2229C40.5088 13.4397 39.4622 14.4016 38.1079 15.4377L35.6942 17.266L37.6826 15.1388C39.5918 13.1481 40.4831 12.5013 40.5373 13.2229ZM31.1292 19.0566C31.158 19.4387 31.3393 20.6605 31.5587 21.793L31.9816 23.8458L30.8574 21.394C30.2635 20.043 29.7425 18.4707 29.6978 17.8765C29.6656 16.8532 29.6656 16.8532 30.3449 17.5539C30.7354 17.9847 31.0973 18.6322 31.1292 19.0566ZM27.8084 29.061C28.3323 30.077 29.6318 34.2645 29.6384 34.9482C29.6195 35.2923 26.4916 28.8101 26.4597 28.3857C26.4022 27.6216 27.24 28.0496 27.8084 29.061ZM25.3734 40.7288C26.4118 42.6333 28.4769 49.2665 27.966 49.0191C27.7343 48.9144 27.5343 48.6353 27.5152 48.3806C27.496 48.126 26.5529 46.2973 25.375 44.3214C23.4191 40.9278 23.0441 39.5117 24.1545 39.3987C24.421 39.3715 24.9575 39.9585 25.3734 40.7288ZM51.2474 55.0747C54.5898 58.4555 54.8897 62.4455 52.0456 66.8838C51.1261 68.3461 50.1718 69.9403 49.9372 70.3919C49.5409 71.0738 49.4805 70.8661 49.5369 69.235C49.6657 66.1852 47.7285 61.8487 45.3861 59.863C44.3355 58.9862 43.4658 58.1338 43.4562 58.0065C43.4148 57.4547 47.8454 53.2825 48.5529 53.1677C48.9526 53.127 50.1809 53.9857 51.2474 55.0747ZM37.1796 56.0792C37.7318 56.2797 38.7632 56.9018 39.4741 57.4282L40.7532 58.3672L39.5512 59.6444C38.3493 60.9216 37.9785 61.9431 38.7336 61.8662C38.9557 61.8436 39.3203 61.336 39.5422 60.7146C40.4835 58.3519 43.631 58.5447 45.8403 61.1427C49.037 64.966 49.5279 70.3052 47.2943 78.1031C45.8117 83.3866 45.3369 86.0012 45.9143 85.9424C46.092 85.9243 46.4947 85.3273 46.8434 84.6074C47.2333 83.8406 49.0792 82.1985 51.2456 80.652C55.3626 77.6666 58.3692 74.7942 59.7991 72.3818C60.9088 70.4724 61.2133 70.3559 61.6168 71.5552C62.4713 73.9917 60.2166 76.7447 53.581 81.3552C50.8184 83.3046 47.9384 85.4797 47.1931 86.2827C46.1909 87.2401 45.677 87.5491 45.5151 87.1806C45.3595 86.8971 45.2358 87.038 45.2709 87.5049C45.2616 87.9763 44.7219 87.3469 44.0424 86.0474C42.7913 83.6941 39.9596 79.9619 36.0425 75.4848C33.6966 72.858 32.2581 69.7966 32.057 67.1225C31.9645 65.8915 32.2244 65.1807 33.1282 64.105C34.4062 62.649 35.3706 62.3797 37.376 62.8599C39.2926 63.3491 39.2479 62.7548 37.3282 62.2232C35.5417 61.6779 34.2219 61.9834 33.0136 63.1757C32.4332 63.7908 32.2968 63.7619 31.9696 62.9826C31.7537 62.4913 31.788 61.1619 31.9652 59.9463C32.5286 56.7239 34.6473 55.1395 37.1796 56.0792ZM56.6777 58.8418C57.1157 59.3104 57.5064 60.3399 57.5638 61.1039C57.6532 62.2924 57.5359 62.5182 56.6031 62.6132C55.9813 62.6765 55.3722 62.9096 55.2581 63.1778C55.1408 63.4036 54.8014 63.6521 54.5793 63.6747C54.3128 63.7018 54.2556 63.5365 54.3698 63.2683C54.487 63.0425 54.5278 61.798 54.4289 60.4821C54.3265 58.5251 54.431 58.1295 55.0973 58.0617C55.5859 58.0119 56.284 58.3686 56.6777 58.8418ZM58.4726 64.262C58.8886 65.0323 59.5298 65.8225 59.9107 66.1258C61.3198 67.0089 60.9875 69.1385 59.0661 72.157C57.3032 74.9028 55.2544 76.8222 49.5768 81.0786C46.7381 83.2067 46.6937 83.2112 46.874 82.0381C47.314 79.5553 49.3927 73.2702 50.7875 70.3908C52.4898 66.8386 55.5246 63.1507 56.8127 63.0196C57.4345 62.9563 57.9582 63.3734 58.4726 64.262ZM32.5285 71.6082C33.0684 72.8364 34.9669 75.466 37.0207 77.7804C38.976 79.9765 41.3442 82.9004 42.2554 84.3047L43.9634 86.7826L42.0907 85.0913C41.037 84.1721 37.9491 82.3907 35.1216 81.096C29.4221 78.5112 26.9337 76.3694 26.755 73.9924C26.6465 72.5492 27.4804 71.1384 28.502 71.0344C28.8573 70.9982 29.3236 70.6514 29.609 70.2801C30.6237 68.8937 31.5979 69.3505 32.5285 71.6082ZM36.7086 82.5598C40.2247 84.0837 41.8402 85.3307 43.5926 87.8041C44.5958 89.2417 44.7738 89.8224 44.5745 91.3397C43.6291 99.0064 47.1024 111.869 53.6185 124.721C55.5587 128.502 57.248 131.922 57.4068 132.248C58.0039 133.642 44.8256 114.924 42.0761 110.499C38.1582 104.225 36.58 101.093 35.1633 97.131C34.026 93.9106 32.7287 87.3704 32.3621 83.0878C32.1642 80.4561 31.9866 80.4742 36.7086 82.5598ZM7.89944 89.8982C8.27712 90.1592 9.14683 91.0116 9.78488 91.7593C10.7689 92.9422 10.7785 93.0696 10.0296 92.6326C8.34438 91.6493 6.49085 90.2127 6.46532 89.8732C6.42703 89.3638 7.05526 89.3854 7.89944 89.8982ZM11.8276 90.3537C12.0911 90.8829 12.4406 91.9594 12.6789 92.7478L13.1015 94.2017L12.1015 92.8066C11.1554 91.5342 10.6025 89.5375 11.1355 89.4832C11.2688 89.4697 11.5672 89.867 11.8276 90.3537ZM61.8141 87.8737C60.3304 90.7621 59.9444 93.3676 59.8427 100.35C59.7223 108.275 59.3329 110.239 56.6132 116.333C55.6147 118.53 54.7433 121.228 54.6422 122.265L54.5193 124.202L54.0329 121.899C53.1236 117.543 52.7142 109.715 53.1728 106.29C53.8086 101.648 55.4657 96.3043 57.1714 93.3933C58.3952 91.2157 62.0197 86.4413 62.4194 86.4006C62.5083 86.3915 62.2452 87.0599 61.8141 87.8737ZM17.3491 92.3578C17.5682 92.8916 17.9526 93.8362 18.1845 94.5397L18.5467 95.7859L17.8451 94.7881C17.0863 93.625 16.3017 91.5235 16.6571 91.4873C16.7903 91.4738 17.0887 91.8711 17.3491 92.3578ZM12.1309 94.9849C13.5462 95.3541 13.4416 95.7496 11.9503 95.5593C9.55793 95.2896 9.10419 95.2075 9.07228 94.783C9.04037 94.3586 9.80504 94.409 12.1309 94.9849ZM24.6294 96.9203C24.906 98.218 25.0398 99.402 24.9129 99.5004C24.6243 99.8292 23.0267 95.8431 22.9278 94.5272C22.8829 93.3342 22.9241 93.2873 23.5082 93.9121C23.8478 94.2625 24.3529 95.6225 24.6294 96.9203ZM30.3674 100.613C30.8124 102.364 31.3525 104.191 31.5241 104.687C31.8004 105.386 31.7592 105.433 31.3656 104.96C30.3434 103.866 28.536 98.8749 28.7799 97.9519C29.122 96.5484 29.43 97.0731 30.3674 100.613ZM20.3566 99.0234C21.6862 99.444 21.6417 99.4485 18.7578 99.7849C17.0731 99.9992 15.7278 99.9651 15.7119 99.7529C15.6449 98.8615 18.4748 98.4023 20.3566 99.0234ZM26.6502 103.558C27.4276 103.778 28.1194 104.05 28.1258 104.135C28.1481 104.432 20.3336 104.671 19.9083 104.373C19.1974 103.846 21.4148 102.979 23.3471 103.082C24.3338 103.109 25.8251 103.3 26.6502 103.558ZM32.2272 109.277C33.4172 109.627 33.2871 109.683 30.5396 110.048C27.3479 110.459 26.3072 110.308 27.2397 109.614C28.0898 109.014 30.7168 108.832 32.2272 109.277ZM78.4944 104.952C78.8436 105.43 78.7994 106.033 78.2606 107.2L77.5315 108.814L76.8201 107.09C75.8767 104.662 77.0595 103.131 78.4944 104.952ZM65.4326 113.981C65.677 114.255 66.2454 115.267 66.7185 116.202C67.7792 118.404 70.433 121.555 73.5022 124.28C74.848 125.511 75.8638 126.52 75.7305 126.533C74.8866 126.619 67.956 123.732 65.8455 122.45C63.4018 120.902 61.4336 118.537 61.3092 116.881C61.1656 114.971 64.2677 112.773 65.4326 113.981ZM46.9806 153.712C54.3689 158.52 61.0245 163.702 65.7095 168.272C69.4803 171.994 70.861 173.094 69.1753 170.913C65.8675 166.801 56.2823 158.966 47.9609 153.655C41.0011 149.188 39.3888 147.983 41.5721 149.044C42.3623 149.434 45.3675 150.711 48.2775 151.912C55.3445 154.828 58.7593 156.79 61.9714 159.628C64.6058 161.926 67.6471 166.064 69.7016 170.175C70.6955 172.084 70.7083 172.254 70.0389 172.279C69.6359 172.277 68.3539 171.895 67.1988 171.413C66.0437 170.932 63.4574 169.87 61.4265 169.05C49.4789 164.321 44.188 160.027 39.9233 151.522C38.9262 149.57 38.1228 147.813 38.1132 147.685C38.1036 147.558 38.8558 148.038 39.7635 148.801C40.7125 149.517 43.9687 151.751 46.9806 153.712ZM51.67 176.202C54.8776 176.004 58.6818 176.002 60.1763 176.234C63.7047 176.731 69.7783 178.935 72.0476 180.543L73.8439 181.815L72.1975 182.538C69.9485 183.58 62.7845 184.138 59.1641 183.609C55.1376 183.035 47.4013 180.743 42.7269 178.695L38.7951 177L42.3612 176.808C44.2776 176.698 48.51 176.438 51.67 176.202Z"/>
</mask>
<path d="M37.6155 6.50591C37.2381 6.84372 36.4521 8.89122 35.8977 11.0434L34.8968 14.9947L34.7341 12.83C34.4918 10.2028 33.3777 9.07591 32.4582 10.5382C32.138 11.0413 32.005 11.6536 32.1606 11.9372C32.2717 12.2253 32.7643 14.0143 33.1776 15.9397C33.8578 19.0355 33.8613 19.6767 33.2628 22.4322L32.5534 25.4984L32.3077 22.23C31.9953 18.6691 31.3758 16.9785 30.2335 16.6671C28.593 16.2781 28.5459 17.4377 30.0959 21.3859C31.8746 25.9952 31.9892 26.9245 31.0492 32.2811L30.3751 36.413L29.8821 33.4264C29.2396 29.6424 28.0901 27.4498 26.8908 27.5719C25.6471 27.6985 25.8032 29.1796 27.3687 32.1425C29.7692 36.6885 30.0998 38.1091 29.6611 43.5856C29.4624 46.3005 29.3652 49.176 29.3815 49.987C29.4421 50.7935 28.9434 49.5184 28.3205 47.1866C26.56 40.4369 24.8772 37.6998 23.4564 39.042C22.4954 39.9525 22.8738 42.0098 24.4739 44.2421C25.2295 45.3627 26.6234 47.8299 27.5284 49.748C29.0274 53.017 29.1705 53.7296 29.935 60.9228L30.7822 68.6209L29.6404 69.5071C29.006 69.9994 28.1052 70.5188 27.6262 70.6959C26.2779 71.2181 25.6092 73.0398 26.105 74.8712C26.4164 76.0371 27.2545 77.0638 29.0636 78.5049L31.5836 80.4725L32.3415 86.9821C33.2204 94.5059 34.415 98.4903 37.5808 104.284C40.229 109.147 44.3913 115.695 47.4294 119.791C48.7247 121.541 50.2231 123.613 50.8167 124.365C52.2644 126.356 51.3026 125.47 48.0331 121.868C46.4714 120.145 42.5101 116.272 39.2408 113.268C36.016 110.26 33.1148 107.391 32.8512 106.862C32.6321 106.328 32.0347 104.336 31.5739 102.372C30.4454 97.483 30.1215 96.7461 29.0999 96.8501C27.723 96.9903 27.9495 100.004 29.569 103.09L30.8804 105.651L28.5856 103.703C26.4845 101.949 26.1861 101.552 25.7473 99.2872C24.8601 94.6299 24.5646 93.6763 23.8029 93.0695C23.1332 92.4961 22.9999 92.5097 22.5212 93.2855C21.8395 94.3386 22.3035 96.3444 23.8879 98.9632L25.0118 100.816L22.5141 99.1459C20.6734 97.8791 19.8481 97.0221 19.3938 95.7425C18.155 92.3613 17.485 91.1892 16.7204 91.1387C15.6384 91.035 15.8644 92.8512 17.1376 94.9029L18.1948 96.4633L15.9067 95.1993C13.993 94.1538 13.5074 93.6472 13.18 92.2691C12.5984 89.8903 11.6904 88.5285 10.9004 88.7373C10.4214 88.9144 10.2344 89.4039 10.3966 90.3711L10.5464 91.7673L9.36547 90.3478C7.99096 88.7341 5.91585 88.5176 6.02434 89.9608C6.08178 90.7249 6.84351 91.3316 10.7883 93.7957L11.9594 94.4891L10.503 94.1669C9.31619 93.86 8.91644 93.9007 8.50417 94.3704C8.09191 94.8401 8.15547 95.0902 8.77118 95.5408C9.67574 96.2614 13.4007 96.3954 14.1555 95.7197C14.5329 95.3819 15.4468 95.631 17.224 96.6477L19.7438 98.0165L18.1892 98.1747C16.0127 98.3963 15.1975 98.8643 15.2645 99.7556C15.3411 100.774 16.2042 100.943 19.8464 100.572C22.7335 100.278 23.0064 100.336 24.7107 101.574C26.3738 102.859 26.4214 102.897 25.1903 102.594C23.096 102.123 20.1772 102.592 19.4415 103.522C18.1763 105.148 19.2806 105.549 24.4045 105.241L29.1287 104.974L31.5663 107.035C32.9057 108.182 33.5946 109.01 33.1344 108.843C29.9803 107.966 26.0527 108.709 26.4277 110.125C26.6024 110.663 27.2814 110.765 29.9529 110.578C31.7772 110.435 33.7411 110.364 34.2837 110.437C35.8194 110.623 46.3224 120.545 51.2428 126.46C52.4237 127.88 53.6426 129.21 54.0171 129.428C54.9597 130.06 68.7443 149.699 74.329 158.498C81.8853 170.303 82.9079 172.594 84.2818 180.153C84.8543 183.602 85.2934 186.466 85.2109 186.56C85.1285 186.654 82.2845 183.949 78.8533 180.578C73.0065 174.843 72.4129 174.09 70.2091 169.781C68.8564 167.267 67.1577 164.318 66.3609 163.244C62.9736 158.67 55.8169 153.967 47.6235 150.952C40.1186 148.166 35.0788 144.829 33.5386 141.607C32.9035 140.303 32.1577 139.909 32.2343 140.927C32.2758 141.479 34.3551 144.133 35.7453 145.36C36.2246 145.782 37.3613 147.805 38.2727 149.808C43.1887 160.428 48.3876 164.689 64.1622 170.91L70.5248 173.385L74.9177 177.642C77.3332 180.005 78.9934 181.846 78.5809 181.717C78.216 181.626 77.0864 181.485 76.1409 181.41C75.1065 181.344 73.4437 180.658 71.9393 179.699C65.8301 175.83 59.979 174.8 48.2717 175.65C43.7315 175.984 38.8645 176.137 37.4208 175.985C35.9739 175.79 34.8571 175.818 34.9619 176.021C35.0667 176.225 36.2758 176.829 37.6594 177.372C39.0429 177.916 42.7748 179.332 45.9576 180.591C49.1373 181.807 53.6782 183.269 56.0453 183.798C60.0498 184.673 60.8113 184.681 66.1445 184.181C70.453 183.742 72.2614 183.387 73.2034 182.821C74.1868 182.207 75.0719 182.075 77.0898 182.126C79.6059 182.255 79.7011 182.33 82.5579 185.205C84.1545 186.796 85.583 188.532 85.7069 188.99C85.8785 189.486 87.0422 195.441 88.3586 202.236C90.4415 213.273 90.7375 215.424 90.9688 222.072C91.1548 226.929 91.055 230.96 90.6754 233.651C90.008 238.466 89.9952 238.296 90.5312 237.686C91.8092 236.23 92.3172 222.149 91.3402 215.106C90.9743 212.619 89.7975 205.896 88.6528 200.196C87.5495 194.448 86.5447 189.418 86.5096 188.951C86.4745 188.484 86.0865 186.3 85.6541 184.12C85.2217 181.939 84.0816 172.133 83.1225 162.35C81.2935 143.974 80.342 137.27 78.7056 131.577C77.4854 127.253 76.9266 126.369 73.1781 122.944C71.4482 121.366 69.1944 118.773 68.226 117.203C66.7053 114.835 66.4194 114.008 66.409 112.085C66.3543 110.166 66.5413 109.676 67.3533 109.166C67.9116 108.852 68.6188 108.139 68.9359 107.593C69.6144 106.498 70.3854 106.633 70.4748 107.821C70.5067 108.246 70.767 108.733 70.9987 108.837C71.3224 108.976 71.4205 108.495 71.2932 107.396C70.8509 104.49 72.6367 103.239 74.6934 104.997C76.8453 106.831 77.4849 111.171 76.6696 118.782C76.0659 124.446 76.0851 124.701 76.5734 124.052C76.9413 123.587 77.6779 117.31 77.9073 112.026C78.1119 108.199 78.9614 106.401 80.7666 106.004C82.2196 105.685 82.972 106.763 83.2174 109.433C83.4918 113.083 81.8632 118.21 78.5374 123.981C77.7416 125.302 77.2503 126.507 77.3963 126.663C77.7772 126.967 77.6154 127.197 79.8156 123.123C80.7953 121.27 82.1773 118.221 82.8016 116.404C83.8442 113.603 83.9897 112.562 83.8236 109.756C83.597 106.742 83.4763 106.327 82.4449 105.705C81.8323 105.296 81.0105 105.081 80.6139 105.164C80.2205 105.289 79.5256 104.975 79.0431 104.511C78.075 103.54 76.9042 103.446 76.1621 104.291C75.8323 104.667 75.3341 104.589 74.2583 103.972C73.0428 103.283 72.6367 103.239 71.7802 103.754C71.222 104.067 70.6448 104.725 70.5022 105.21C70.4072 105.733 70.0362 106.155 69.7697 106.182C69.5032 106.21 68.9101 106.655 68.409 107.134C67.9555 107.65 67.0865 108.594 66.4649 109.256C65.6753 110.064 65.3329 110.868 65.3999 111.76C65.4861 112.906 65.3624 113.047 64.0299 113.182C61.9423 113.395 60.7182 114.974 60.8874 117.223C61.1362 120.534 64.9861 123.521 72.4846 126.222L76.7622 127.754L77.7598 130.903C79.2404 135.714 80.9777 147.513 82.1573 160.823L83.238 172.817L81.6406 169.43C79.7225 165.348 72.1598 153.458 65.0961 143.441C58.4864 134.106 55.7079 128.7 55.3952 124.54C55.1878 121.781 55.3652 121.165 57.5109 115.771C60.4141 108.546 60.5407 107.849 60.5185 100.409C60.5282 93.3937 61.2691 89.5545 63.2001 86.6633C64.4081 84.8722 66.4982 82.9058 67.7956 82.3032C68.1002 82.1867 68.1698 81.923 67.9794 81.7713C67.3573 81.2358 63.5608 84.3169 60.2626 88.0744C55.3567 93.6636 52.8466 100.164 52.1522 108.789C51.9157 112.192 52.6233 119.818 53.443 122.387C54.4946 125.659 50.2389 116.083 48.8698 112.16C46.5666 105.337 45.6223 100.514 45.3944 94.5068L45.1828 89.3103L47.0952 87.3619C48.1322 86.2726 50.5808 84.3125 52.5379 82.9584C60.9624 77.1393 62.9857 74.8803 62.2293 71.9633C61.9878 71.1325 61.6889 69.5376 61.5615 68.4385C61.3833 67.2591 60.8403 65.9884 60.3006 65.359C58.8849 63.7923 58.4593 62.8947 58.2142 60.8239C57.9246 58.7576 56.7532 57.4654 55.1986 57.6236C54.5324 57.6915 53.9738 57.4062 53.7039 56.7921C53.0847 55.7003 49.1553 52.251 48.4891 52.3188C47.734 52.3957 42.9483 57.2028 42.9961 57.8395C43.0791 58.9431 41.7083 58.5694 39.9816 57.0343C36.9631 54.3904 33.9776 54.5661 32.053 57.5421C31.3301 58.6423 31.2638 59.5472 31.4909 63.7584C31.9194 71.8413 31.3633 69.8021 30.6933 60.8884L30.0711 52.6114L31.5137 50.3687C32.3159 49.1322 33.9427 46.9564 35.135 45.5518C38.0874 41.9579 39.0069 40.4956 38.9239 39.392C38.7708 37.3546 36.2233 37.9989 34.3144 40.5884C33.0111 42.3036 30.2376 48.8733 30.3554 49.8451C30.3842 50.2271 30.9706 49.0981 31.6869 47.3144C33.8991 41.6144 36.1347 38.6067 37.8228 39.0336C38.8255 39.2737 37.9252 40.9907 34.697 45.0832C33.2256 46.9438 31.7226 48.9788 31.3675 49.6137C30.2198 51.6125 29.8512 50.2814 30.2425 45.3656C30.5865 41.0107 30.7227 40.4408 32.3239 37.9254C33.2846 36.4161 34.5403 34.663 35.1619 34.0009C37.2328 31.7798 37.8757 29.0198 36.2322 29.1871C35.4327 29.2685 33.7552 31.364 32.5125 33.8857C30.9592 37.0378 31.3972 37.5065 33.0014 34.4347C35.0335 30.5067 36.3559 29.0462 36.4708 30.5743C36.525 31.2959 32.0856 37.137 31.5398 37.0215C31.3145 37.0017 31.156 37.2744 31.1879 37.6989C31.2166 38.0809 31.1437 38.3022 31.0009 38.1884C30.8581 38.0746 31.1712 35.6903 31.6713 32.8165L32.5353 27.6388L35.5671 24.5072C38.4721 21.4741 38.9254 20.3587 37.1043 20.5441C36.3492 20.621 34.107 22.945 34.1548 23.5817C34.1676 23.7515 34.8464 23.2547 35.6361 22.4472C37.2186 20.8746 37.52 20.7156 37.5646 21.3099C37.5806 21.5221 36.588 22.6069 35.4209 23.7522C34.2062 24.8596 33.4481 25.4928 33.7367 25.1641C34.3455 24.3322 34.3389 23.6485 33.6601 24.1454C33.3207 24.3938 33.2668 24.271 33.4442 23.6541C33.6343 23.207 33.986 21.9309 34.2679 20.9184C34.797 19.0254 35.2125 18.5982 40.7788 14.0537C41.7081 13.3176 41.2826 12.4199 40.0389 12.5465C39.5947 12.5917 38.6114 13.2051 37.9042 13.9187L36.5658 15.167L37.9481 12.7166C39.8788 9.22667 40.3983 7.20631 39.6238 6.42975C38.8525 5.69562 38.5828 5.68031 37.6155 6.50591ZM39.2118 7.49819C39.2501 8.00755 38.9365 9.19429 38.5149 10.1354C37.6337 12.1071 35.3987 16.3123 35.3732 15.9728C35.3253 15.3361 37.4987 7.92924 37.9046 7.37466C38.5514 6.45339 39.1384 6.52194 39.2118 7.49819ZM33.8577 11.2939C34.0197 11.6624 34.2266 13.2238 34.3415 14.7519L34.5108 17.6003L33.6816 14.9046C33.2558 13.4082 32.8712 11.8648 32.7949 11.4449C32.7279 10.5535 33.4354 10.4387 33.8577 11.2939ZM40.5373 13.2229C40.5088 13.4397 39.4622 14.4016 38.1079 15.4377L35.6942 17.266L37.6826 15.1388C39.5918 13.1481 40.4831 12.5013 40.5373 13.2229ZM31.1292 19.0566C31.158 19.4387 31.3393 20.6605 31.5587 21.793L31.9816 23.8458L30.8574 21.394C30.2635 20.043 29.7425 18.4707 29.6978 17.8765C29.6656 16.8532 29.6656 16.8532 30.3449 17.5539C30.7354 17.9847 31.0973 18.6322 31.1292 19.0566ZM27.8084 29.061C28.3323 30.077 29.6318 34.2645 29.6384 34.9482C29.6195 35.2923 26.4916 28.8101 26.4597 28.3857C26.4022 27.6216 27.24 28.0496 27.8084 29.061ZM25.3734 40.7288C26.4118 42.6333 28.4769 49.2665 27.966 49.0191C27.7343 48.9144 27.5343 48.6353 27.5152 48.3806C27.496 48.126 26.5529 46.2973 25.375 44.3214C23.4191 40.9278 23.0441 39.5117 24.1545 39.3987C24.421 39.3715 24.9575 39.9585 25.3734 40.7288ZM51.2474 55.0747C54.5898 58.4555 54.8897 62.4455 52.0456 66.8838C51.1261 68.3461 50.1718 69.9403 49.9372 70.3919C49.5409 71.0738 49.4805 70.8661 49.5369 69.235C49.6657 66.1852 47.7285 61.8487 45.3861 59.863C44.3355 58.9862 43.4658 58.1338 43.4562 58.0065C43.4148 57.4547 47.8454 53.2825 48.5529 53.1677C48.9526 53.127 50.1809 53.9857 51.2474 55.0747ZM37.1796 56.0792C37.7318 56.2797 38.7632 56.9018 39.4741 57.4282L40.7532 58.3672L39.5512 59.6444C38.3493 60.9216 37.9785 61.9431 38.7336 61.8662C38.9557 61.8436 39.3203 61.336 39.5422 60.7146C40.4835 58.3519 43.631 58.5447 45.8403 61.1427C49.037 64.966 49.5279 70.3052 47.2943 78.1031C45.8117 83.3866 45.3369 86.0012 45.9143 85.9424C46.092 85.9243 46.4947 85.3273 46.8434 84.6074C47.2333 83.8406 49.0792 82.1985 51.2456 80.652C55.3626 77.6666 58.3692 74.7942 59.7991 72.3818C60.9088 70.4724 61.2133 70.3559 61.6168 71.5552C62.4713 73.9917 60.2166 76.7447 53.581 81.3552C50.8184 83.3046 47.9384 85.4797 47.1931 86.2827C46.1909 87.2401 45.677 87.5491 45.5151 87.1806C45.3595 86.8971 45.2358 87.038 45.2709 87.5049C45.2616 87.9763 44.7219 87.3469 44.0424 86.0474C42.7913 83.6941 39.9596 79.9619 36.0425 75.4848C33.6966 72.858 32.2581 69.7966 32.057 67.1225C31.9645 65.8915 32.2244 65.1807 33.1282 64.105C34.4062 62.649 35.3706 62.3797 37.376 62.8599C39.2926 63.3491 39.2479 62.7548 37.3282 62.2232C35.5417 61.6779 34.2219 61.9834 33.0136 63.1757C32.4332 63.7908 32.2968 63.7619 31.9696 62.9826C31.7537 62.4913 31.788 61.1619 31.9652 59.9463C32.5286 56.7239 34.6473 55.1395 37.1796 56.0792ZM56.6777 58.8418C57.1157 59.3104 57.5064 60.3399 57.5638 61.1039C57.6532 62.2924 57.5359 62.5182 56.6031 62.6132C55.9813 62.6765 55.3722 62.9096 55.2581 63.1778C55.1408 63.4036 54.8014 63.6521 54.5793 63.6747C54.3128 63.7018 54.2556 63.5365 54.3698 63.2683C54.487 63.0425 54.5278 61.798 54.4289 60.4821C54.3265 58.5251 54.431 58.1295 55.0973 58.0617C55.5859 58.0119 56.284 58.3686 56.6777 58.8418ZM58.4726 64.262C58.8886 65.0323 59.5298 65.8225 59.9107 66.1258C61.3198 67.0089 60.9875 69.1385 59.0661 72.157C57.3032 74.9028 55.2544 76.8222 49.5768 81.0786C46.7381 83.2067 46.6937 83.2112 46.874 82.0381C47.314 79.5553 49.3927 73.2702 50.7875 70.3908C52.4898 66.8386 55.5246 63.1507 56.8127 63.0196C57.4345 62.9563 57.9582 63.3734 58.4726 64.262ZM32.5285 71.6082C33.0684 72.8364 34.9669 75.466 37.0207 77.7804C38.976 79.9765 41.3442 82.9004 42.2554 84.3047L43.9634 86.7826L42.0907 85.0913C41.037 84.1721 37.9491 82.3907 35.1216 81.096C29.4221 78.5112 26.9337 76.3694 26.755 73.9924C26.6465 72.5492 27.4804 71.1384 28.502 71.0344C28.8573 70.9982 29.3236 70.6514 29.609 70.2801C30.6237 68.8937 31.5979 69.3505 32.5285 71.6082ZM36.7086 82.5598C40.2247 84.0837 41.8402 85.3307 43.5926 87.8041C44.5958 89.2417 44.7738 89.8224 44.5745 91.3397C43.6291 99.0064 47.1024 111.869 53.6185 124.721C55.5587 128.502 57.248 131.922 57.4068 132.248C58.0039 133.642 44.8256 114.924 42.0761 110.499C38.1582 104.225 36.58 101.093 35.1633 97.131C34.026 93.9106 32.7287 87.3704 32.3621 83.0878C32.1642 80.4561 31.9866 80.4742 36.7086 82.5598ZM7.89944 89.8982C8.27712 90.1592 9.14683 91.0116 9.78488 91.7593C10.7689 92.9422 10.7785 93.0696 10.0296 92.6326C8.34438 91.6493 6.49085 90.2127 6.46532 89.8732C6.42703 89.3638 7.05526 89.3854 7.89944 89.8982ZM11.8276 90.3537C12.0911 90.8829 12.4406 91.9594 12.6789 92.7478L13.1015 94.2017L12.1015 92.8066C11.1554 91.5342 10.6025 89.5375 11.1355 89.4832C11.2688 89.4697 11.5672 89.867 11.8276 90.3537ZM61.8141 87.8737C60.3304 90.7621 59.9444 93.3676 59.8427 100.35C59.7223 108.275 59.3329 110.239 56.6132 116.333C55.6147 118.53 54.7433 121.228 54.6422 122.265L54.5193 124.202L54.0329 121.899C53.1236 117.543 52.7142 109.715 53.1728 106.29C53.8086 101.648 55.4657 96.3043 57.1714 93.3933C58.3952 91.2157 62.0197 86.4413 62.4194 86.4006C62.5083 86.3915 62.2452 87.0599 61.8141 87.8737ZM17.3491 92.3578C17.5682 92.8916 17.9526 93.8362 18.1845 94.5397L18.5467 95.7859L17.8451 94.7881C17.0863 93.625 16.3017 91.5235 16.6571 91.4873C16.7903 91.4738 17.0887 91.8711 17.3491 92.3578ZM12.1309 94.9849C13.5462 95.3541 13.4416 95.7496 11.9503 95.5593C9.55793 95.2896 9.10419 95.2075 9.07228 94.783C9.04037 94.3586 9.80504 94.409 12.1309 94.9849ZM24.6294 96.9203C24.906 98.218 25.0398 99.402 24.9129 99.5004C24.6243 99.8292 23.0267 95.8431 22.9278 94.5272C22.8829 93.3342 22.9241 93.2873 23.5082 93.9121C23.8478 94.2625 24.3529 95.6225 24.6294 96.9203ZM30.3674 100.613C30.8124 102.364 31.3525 104.191 31.5241 104.687C31.8004 105.386 31.7592 105.433 31.3656 104.96C30.3434 103.866 28.536 98.8749 28.7799 97.9519C29.122 96.5484 29.43 97.0731 30.3674 100.613ZM20.3566 99.0234C21.6862 99.444 21.6417 99.4485 18.7578 99.7849C17.0731 99.9992 15.7278 99.9651 15.7119 99.7529C15.6449 98.8615 18.4748 98.4023 20.3566 99.0234ZM26.6502 103.558C27.4276 103.778 28.1194 104.05 28.1258 104.135C28.1481 104.432 20.3336 104.671 19.9083 104.373C19.1974 103.846 21.4148 102.979 23.3471 103.082C24.3338 103.109 25.8251 103.3 26.6502 103.558ZM32.2272 109.277C33.4172 109.627 33.2871 109.683 30.5396 110.048C27.3479 110.459 26.3072 110.308 27.2397 109.614C28.0898 109.014 30.7168 108.832 32.2272 109.277ZM78.4944 104.952C78.8436 105.43 78.7994 106.033 78.2606 107.2L77.5315 108.814L76.8201 107.09C75.8767 104.662 77.0595 103.131 78.4944 104.952ZM65.4326 113.981C65.677 114.255 66.2454 115.267 66.7185 116.202C67.7792 118.404 70.433 121.555 73.5022 124.28C74.848 125.511 75.8638 126.52 75.7305 126.533C74.8866 126.619 67.956 123.732 65.8455 122.45C63.4018 120.902 61.4336 118.537 61.3092 116.881C61.1656 114.971 64.2677 112.773 65.4326 113.981ZM46.9806 153.712C54.3689 158.52 61.0245 163.702 65.7095 168.272C69.4803 171.994 70.861 173.094 69.1753 170.913C65.8675 166.801 56.2823 158.966 47.9609 153.655C41.0011 149.188 39.3888 147.983 41.5721 149.044C42.3623 149.434 45.3675 150.711 48.2775 151.912C55.3445 154.828 58.7593 156.79 61.9714 159.628C64.6058 161.926 67.6471 166.064 69.7016 170.175C70.6955 172.084 70.7083 172.254 70.0389 172.279C69.6359 172.277 68.3539 171.895 67.1988 171.413C66.0437 170.932 63.4574 169.87 61.4265 169.05C49.4789 164.321 44.188 160.027 39.9233 151.522C38.9262 149.57 38.1228 147.813 38.1132 147.685C38.1036 147.558 38.8558 148.038 39.7635 148.801C40.7125 149.517 43.9687 151.751 46.9806 153.712ZM51.67 176.202C54.8776 176.004 58.6818 176.002 60.1763 176.234C63.7047 176.731 69.7783 178.935 72.0476 180.543L73.8439 181.815L72.1975 182.538C69.9485 183.58 62.7845 184.138 59.1641 183.609C55.1376 183.035 47.4013 180.743 42.7269 178.695L38.7951 177L42.3612 176.808C44.2776 176.698 48.51 176.438 51.67 176.202Z" fill="#677EA4" fill-opacity="0.8"/>
<path d="M37.6155 6.50591C37.2381 6.84372 36.4521 8.89122 35.8977 11.0434L34.8968 14.9947L34.7341 12.83C34.4918 10.2028 33.3777 9.07591 32.4582 10.5382C32.138 11.0413 32.005 11.6536 32.1606 11.9372C32.2717 12.2253 32.7643 14.0143 33.1776 15.9397C33.8578 19.0355 33.8613 19.6767 33.2628 22.4322L32.5534 25.4984L32.3077 22.23C31.9953 18.6691 31.3758 16.9785 30.2335 16.6671C28.593 16.2781 28.5459 17.4377 30.0959 21.3859C31.8746 25.9952 31.9892 26.9245 31.0492 32.2811L30.3751 36.413L29.8821 33.4264C29.2396 29.6424 28.0901 27.4498 26.8908 27.5719C25.6471 27.6985 25.8032 29.1796 27.3687 32.1425C29.7692 36.6885 30.0998 38.1091 29.6611 43.5856C29.4624 46.3005 29.3652 49.176 29.3815 49.987C29.4421 50.7935 28.9434 49.5184 28.3205 47.1866C26.56 40.4369 24.8772 37.6998 23.4564 39.042C22.4954 39.9525 22.8738 42.0098 24.4739 44.2421C25.2295 45.3627 26.6234 47.8299 27.5284 49.748C29.0274 53.017 29.1705 53.7296 29.935 60.9228L30.7822 68.6209L29.6404 69.5071C29.006 69.9994 28.1052 70.5188 27.6262 70.6959C26.2779 71.2181 25.6092 73.0398 26.105 74.8712C26.4164 76.0371 27.2545 77.0638 29.0636 78.5049L31.5836 80.4725L32.3415 86.9821C33.2204 94.5059 34.415 98.4903 37.5808 104.284C40.229 109.147 44.3913 115.695 47.4294 119.791C48.7247 121.541 50.2231 123.613 50.8167 124.365C52.2644 126.356 51.3026 125.47 48.0331 121.868C46.4714 120.145 42.5101 116.272 39.2408 113.268C36.016 110.26 33.1148 107.391 32.8512 106.862C32.6321 106.328 32.0347 104.336 31.5739 102.372C30.4454 97.483 30.1215 96.7461 29.0999 96.8501C27.723 96.9903 27.9495 100.004 29.569 103.09L30.8804 105.651L28.5856 103.703C26.4845 101.949 26.1861 101.552 25.7473 99.2872C24.8601 94.6299 24.5646 93.6763 23.8029 93.0695C23.1332 92.4961 22.9999 92.5097 22.5212 93.2855C21.8395 94.3386 22.3035 96.3444 23.8879 98.9632L25.0118 100.816L22.5141 99.1459C20.6734 97.8791 19.8481 97.0221 19.3938 95.7425C18.155 92.3613 17.485 91.1892 16.7204 91.1387C15.6384 91.035 15.8644 92.8512 17.1376 94.9029L18.1948 96.4633L15.9067 95.1993C13.993 94.1538 13.5074 93.6472 13.18 92.2691C12.5984 89.8903 11.6904 88.5285 10.9004 88.7373C10.4214 88.9144 10.2344 89.4039 10.3966 90.3711L10.5464 91.7673L9.36547 90.3478C7.99096 88.7341 5.91585 88.5176 6.02434 89.9608C6.08178 90.7249 6.84351 91.3316 10.7883 93.7957L11.9594 94.4891L10.503 94.1669C9.31619 93.86 8.91644 93.9007 8.50417 94.3704C8.09191 94.8401 8.15547 95.0902 8.77118 95.5408C9.67574 96.2614 13.4007 96.3954 14.1555 95.7197C14.5329 95.3819 15.4468 95.631 17.224 96.6477L19.7438 98.0165L18.1892 98.1747C16.0127 98.3963 15.1975 98.8643 15.2645 99.7556C15.3411 100.774 16.2042 100.943 19.8464 100.572C22.7335 100.278 23.0064 100.336 24.7107 101.574C26.3738 102.859 26.4214 102.897 25.1903 102.594C23.096 102.123 20.1772 102.592 19.4415 103.522C18.1763 105.148 19.2806 105.549 24.4045 105.241L29.1287 104.974L31.5663 107.035C32.9057 108.182 33.5946 109.01 33.1344 108.843C29.9803 107.966 26.0527 108.709 26.4277 110.125C26.6024 110.663 27.2814 110.765 29.9529 110.578C31.7772 110.435 33.7411 110.364 34.2837 110.437C35.8194 110.623 46.3224 120.545 51.2428 126.46C52.4237 127.88 53.6426 129.21 54.0171 129.428C54.9597 130.06 68.7443 149.699 74.329 158.498C81.8853 170.303 82.9079 172.594 84.2818 180.153C84.8543 183.602 85.2934 186.466 85.2109 186.56C85.1285 186.654 82.2845 183.949 78.8533 180.578C73.0065 174.843 72.4129 174.09 70.2091 169.781C68.8564 167.267 67.1577 164.318 66.3609 163.244C62.9736 158.67 55.8169 153.967 47.6235 150.952C40.1186 148.166 35.0788 144.829 33.5386 141.607C32.9035 140.303 32.1577 139.909 32.2343 140.927C32.2758 141.479 34.3551 144.133 35.7453 145.36C36.2246 145.782 37.3613 147.805 38.2727 149.808C43.1887 160.428 48.3876 164.689 64.1622 170.91L70.5248 173.385L74.9177 177.642C77.3332 180.005 78.9934 181.846 78.5809 181.717C78.216 181.626 77.0864 181.485 76.1409 181.41C75.1065 181.344 73.4437 180.658 71.9393 179.699C65.8301 175.83 59.979 174.8 48.2717 175.65C43.7315 175.984 38.8645 176.137 37.4208 175.985C35.9739 175.79 34.8571 175.818 34.9619 176.021C35.0667 176.225 36.2758 176.829 37.6594 177.372C39.0429 177.916 42.7748 179.332 45.9576 180.591C49.1373 181.807 53.6782 183.269 56.0453 183.798C60.0498 184.673 60.8113 184.681 66.1445 184.181C70.453 183.742 72.2614 183.387 73.2034 182.821C74.1868 182.207 75.0719 182.075 77.0898 182.126C79.6059 182.255 79.7011 182.33 82.5579 185.205C84.1545 186.796 85.583 188.532 85.7069 188.99C85.8785 189.486 87.0422 195.441 88.3586 202.236C90.4415 213.273 90.7375 215.424 90.9688 222.072C91.1548 226.929 91.055 230.96 90.6754 233.651C90.008 238.466 89.9952 238.296 90.5312 237.686C91.8092 236.23 92.3172 222.149 91.3402 215.106C90.9743 212.619 89.7975 205.896 88.6528 200.196C87.5495 194.448 86.5447 189.418 86.5096 188.951C86.4745 188.484 86.0865 186.3 85.6541 184.12C85.2217 181.939 84.0816 172.133 83.1225 162.35C81.2935 143.974 80.342 137.27 78.7056 131.577C77.4854 127.253 76.9266 126.369 73.1781 122.944C71.4482 121.366 69.1944 118.773 68.226 117.203C66.7053 114.835 66.4194 114.008 66.409 112.085C66.3543 110.166 66.5413 109.676 67.3533 109.166C67.9116 108.852 68.6188 108.139 68.9359 107.593C69.6144 106.498 70.3854 106.633 70.4748 107.821C70.5067 108.246 70.767 108.733 70.9987 108.837C71.3224 108.976 71.4205 108.495 71.2932 107.396C70.8509 104.49 72.6367 103.239 74.6934 104.997C76.8453 106.831 77.4849 111.171 76.6696 118.782C76.0659 124.446 76.0851 124.701 76.5734 124.052C76.9413 123.587 77.6779 117.31 77.9073 112.026C78.1119 108.199 78.9614 106.401 80.7666 106.004C82.2196 105.685 82.972 106.763 83.2174 109.433C83.4918 113.083 81.8632 118.21 78.5374 123.981C77.7416 125.302 77.2503 126.507 77.3963 126.663C77.7772 126.967 77.6154 127.197 79.8156 123.123C80.7953 121.27 82.1773 118.221 82.8016 116.404C83.8442 113.603 83.9897 112.562 83.8236 109.756C83.597 106.742 83.4763 106.327 82.4449 105.705C81.8323 105.296 81.0105 105.081 80.6139 105.164C80.2205 105.289 79.5256 104.975 79.0431 104.511C78.075 103.54 76.9042 103.446 76.1621 104.291C75.8323 104.667 75.3341 104.589 74.2583 103.972C73.0428 103.283 72.6367 103.239 71.7802 103.754C71.222 104.067 70.6448 104.725 70.5022 105.21C70.4072 105.733 70.0362 106.155 69.7697 106.182C69.5032 106.21 68.9101 106.655 68.409 107.134C67.9555 107.65 67.0865 108.594 66.4649 109.256C65.6753 110.064 65.3329 110.868 65.3999 111.76C65.4861 112.906 65.3624 113.047 64.0299 113.182C61.9423 113.395 60.7182 114.974 60.8874 117.223C61.1362 120.534 64.9861 123.521 72.4846 126.222L76.7622 127.754L77.7598 130.903C79.2404 135.714 80.9777 147.513 82.1573 160.823L83.238 172.817L81.6406 169.43C79.7225 165.348 72.1598 153.458 65.0961 143.441C58.4864 134.106 55.7079 128.7 55.3952 124.54C55.1878 121.781 55.3652 121.165 57.5109 115.771C60.4141 108.546 60.5407 107.849 60.5185 100.409C60.5282 93.3937 61.2691 89.5545 63.2001 86.6633C64.4081 84.8722 66.4982 82.9058 67.7956 82.3032C68.1002 82.1867 68.1698 81.923 67.9794 81.7713C67.3573 81.2358 63.5608 84.3169 60.2626 88.0744C55.3567 93.6636 52.8466 100.164 52.1522 108.789C51.9157 112.192 52.6233 119.818 53.443 122.387C54.4946 125.659 50.2389 116.083 48.8698 112.16C46.5666 105.337 45.6223 100.514 45.3944 94.5068L45.1828 89.3103L47.0952 87.3619C48.1322 86.2726 50.5808 84.3125 52.5379 82.9584C60.9624 77.1393 62.9857 74.8803 62.2293 71.9633C61.9878 71.1325 61.6889 69.5376 61.5615 68.4385C61.3833 67.2591 60.8403 65.9884 60.3006 65.359C58.8849 63.7923 58.4593 62.8947 58.2142 60.8239C57.9246 58.7576 56.7532 57.4654 55.1986 57.6236C54.5324 57.6915 53.9738 57.4062 53.7039 56.7921C53.0847 55.7003 49.1553 52.251 48.4891 52.3188C47.734 52.3957 42.9483 57.2028 42.9961 57.8395C43.0791 58.9431 41.7083 58.5694 39.9816 57.0343C36.9631 54.3904 33.9776 54.5661 32.053 57.5421C31.3301 58.6423 31.2638 59.5472 31.4909 63.7584C31.9194 71.8413 31.3633 69.8021 30.6933 60.8884L30.0711 52.6114L31.5137 50.3687C32.3159 49.1322 33.9427 46.9564 35.135 45.5518C38.0874 41.9579 39.0069 40.4956 38.9239 39.392C38.7708 37.3546 36.2233 37.9989 34.3144 40.5884C33.0111 42.3036 30.2376 48.8733 30.3554 49.8451C30.3842 50.2271 30.9706 49.0981 31.6869 47.3144C33.8991 41.6144 36.1347 38.6067 37.8228 39.0336C38.8255 39.2737 37.9252 40.9907 34.697 45.0832C33.2256 46.9438 31.7226 48.9788 31.3675 49.6137C30.2198 51.6125 29.8512 50.2814 30.2425 45.3656C30.5865 41.0107 30.7227 40.4408 32.3239 37.9254C33.2846 36.4161 34.5403 34.663 35.1619 34.0009C37.2328 31.7798 37.8757 29.0198 36.2322 29.1871C35.4327 29.2685 33.7552 31.364 32.5125 33.8857C30.9592 37.0378 31.3972 37.5065 33.0014 34.4347C35.0335 30.5067 36.3559 29.0462 36.4708 30.5743C36.525 31.2959 32.0856 37.137 31.5398 37.0215C31.3145 37.0017 31.156 37.2744 31.1879 37.6989C31.2166 38.0809 31.1437 38.3022 31.0009 38.1884C30.8581 38.0746 31.1712 35.6903 31.6713 32.8165L32.5353 27.6388L35.5671 24.5072C38.4721 21.4741 38.9254 20.3587 37.1043 20.5441C36.3492 20.621 34.107 22.945 34.1548 23.5817C34.1676 23.7515 34.8464 23.2547 35.6361 22.4472C37.2186 20.8746 37.52 20.7156 37.5646 21.3099C37.5806 21.5221 36.588 22.6069 35.4209 23.7522C34.2062 24.8596 33.4481 25.4928 33.7367 25.1641C34.3455 24.3322 34.3389 23.6485 33.6601 24.1454C33.3207 24.3938 33.2668 24.271 33.4442 23.6541C33.6343 23.207 33.986 21.9309 34.2679 20.9184C34.797 19.0254 35.2125 18.5982 40.7788 14.0537C41.7081 13.3176 41.2826 12.4199 40.0389 12.5465C39.5947 12.5917 38.6114 13.2051 37.9042 13.9187L36.5658 15.167L37.9481 12.7166C39.8788 9.22667 40.3983 7.20631 39.6238 6.42975C38.8525 5.69562 38.5828 5.68031 37.6155 6.50591ZM39.2118 7.49819C39.2501 8.00755 38.9365 9.19429 38.5149 10.1354C37.6337 12.1071 35.3987 16.3123 35.3732 15.9728C35.3253 15.3361 37.4987 7.92924 37.9046 7.37466C38.5514 6.45339 39.1384 6.52194 39.2118 7.49819ZM33.8577 11.2939C34.0197 11.6624 34.2266 13.2238 34.3415 14.7519L34.5108 17.6003L33.6816 14.9046C33.2558 13.4082 32.8712 11.8648 32.7949 11.4449C32.7279 10.5535 33.4354 10.4387 33.8577 11.2939ZM40.5373 13.2229C40.5088 13.4397 39.4622 14.4016 38.1079 15.4377L35.6942 17.266L37.6826 15.1388C39.5918 13.1481 40.4831 12.5013 40.5373 13.2229ZM31.1292 19.0566C31.158 19.4387 31.3393 20.6605 31.5587 21.793L31.9816 23.8458L30.8574 21.394C30.2635 20.043 29.7425 18.4707 29.6978 17.8765C29.6656 16.8532 29.6656 16.8532 30.3449 17.5539C30.7354 17.9847 31.0973 18.6322 31.1292 19.0566ZM27.8084 29.061C28.3323 30.077 29.6318 34.2645 29.6384 34.9482C29.6195 35.2923 26.4916 28.8101 26.4597 28.3857C26.4022 27.6216 27.24 28.0496 27.8084 29.061ZM25.3734 40.7288C26.4118 42.6333 28.4769 49.2665 27.966 49.0191C27.7343 48.9144 27.5343 48.6353 27.5152 48.3806C27.496 48.126 26.5529 46.2973 25.375 44.3214C23.4191 40.9278 23.0441 39.5117 24.1545 39.3987C24.421 39.3715 24.9575 39.9585 25.3734 40.7288ZM51.2474 55.0747C54.5898 58.4555 54.8897 62.4455 52.0456 66.8838C51.1261 68.3461 50.1718 69.9403 49.9372 70.3919C49.5409 71.0738 49.4805 70.8661 49.5369 69.235C49.6657 66.1852 47.7285 61.8487 45.3861 59.863C44.3355 58.9862 43.4658 58.1338 43.4562 58.0065C43.4148 57.4547 47.8454 53.2825 48.5529 53.1677C48.9526 53.127 50.1809 53.9857 51.2474 55.0747ZM37.1796 56.0792C37.7318 56.2797 38.7632 56.9018 39.4741 57.4282L40.7532 58.3672L39.5512 59.6444C38.3493 60.9216 37.9785 61.9431 38.7336 61.8662C38.9557 61.8436 39.3203 61.336 39.5422 60.7146C40.4835 58.3519 43.631 58.5447 45.8403 61.1427C49.037 64.966 49.5279 70.3052 47.2943 78.1031C45.8117 83.3866 45.3369 86.0012 45.9143 85.9424C46.092 85.9243 46.4947 85.3273 46.8434 84.6074C47.2333 83.8406 49.0792 82.1985 51.2456 80.652C55.3626 77.6666 58.3692 74.7942 59.7991 72.3818C60.9088 70.4724 61.2133 70.3559 61.6168 71.5552C62.4713 73.9917 60.2166 76.7447 53.581 81.3552C50.8184 83.3046 47.9384 85.4797 47.1931 86.2827C46.1909 87.2401 45.677 87.5491 45.5151 87.1806C45.3595 86.8971 45.2358 87.038 45.2709 87.5049C45.2616 87.9763 44.7219 87.3469 44.0424 86.0474C42.7913 83.6941 39.9596 79.9619 36.0425 75.4848C33.6966 72.858 32.2581 69.7966 32.057 67.1225C31.9645 65.8915 32.2244 65.1807 33.1282 64.105C34.4062 62.649 35.3706 62.3797 37.376 62.8599C39.2926 63.3491 39.2479 62.7548 37.3282 62.2232C35.5417 61.6779 34.2219 61.9834 33.0136 63.1757C32.4332 63.7908 32.2968 63.7619 31.9696 62.9826C31.7537 62.4913 31.788 61.1619 31.9652 59.9463C32.5286 56.7239 34.6473 55.1395 37.1796 56.0792ZM56.6777 58.8418C57.1157 59.3104 57.5064 60.3399 57.5638 61.1039C57.6532 62.2924 57.5359 62.5182 56.6031 62.6132C55.9813 62.6765 55.3722 62.9096 55.2581 63.1778C55.1408 63.4036 54.8014 63.6521 54.5793 63.6747C54.3128 63.7018 54.2556 63.5365 54.3698 63.2683C54.487 63.0425 54.5278 61.798 54.4289 60.4821C54.3265 58.5251 54.431 58.1295 55.0973 58.0617C55.5859 58.0119 56.284 58.3686 56.6777 58.8418ZM58.4726 64.262C58.8886 65.0323 59.5298 65.8225 59.9107 66.1258C61.3198 67.0089 60.9875 69.1385 59.0661 72.157C57.3032 74.9028 55.2544 76.8222 49.5768 81.0786C46.7381 83.2067 46.6937 83.2112 46.874 82.0381C47.314 79.5553 49.3927 73.2702 50.7875 70.3908C52.4898 66.8386 55.5246 63.1507 56.8127 63.0196C57.4345 62.9563 57.9582 63.3734 58.4726 64.262ZM32.5285 71.6082C33.0684 72.8364 34.9669 75.466 37.0207 77.7804C38.976 79.9765 41.3442 82.9004 42.2554 84.3047L43.9634 86.7826L42.0907 85.0913C41.037 84.1721 37.9491 82.3907 35.1216 81.096C29.4221 78.5112 26.9337 76.3694 26.755 73.9924C26.6465 72.5492 27.4804 71.1384 28.502 71.0344C28.8573 70.9982 29.3236 70.6514 29.609 70.2801C30.6237 68.8937 31.5979 69.3505 32.5285 71.6082ZM36.7086 82.5598C40.2247 84.0837 41.8402 85.3307 43.5926 87.8041C44.5958 89.2417 44.7738 89.8224 44.5745 91.3397C43.6291 99.0064 47.1024 111.869 53.6185 124.721C55.5587 128.502 57.248 131.922 57.4068 132.248C58.0039 133.642 44.8256 114.924 42.0761 110.499C38.1582 104.225 36.58 101.093 35.1633 97.131C34.026 93.9106 32.7287 87.3704 32.3621 83.0878C32.1642 80.4561 31.9866 80.4742 36.7086 82.5598ZM7.89944 89.8982C8.27712 90.1592 9.14683 91.0116 9.78488 91.7593C10.7689 92.9422 10.7785 93.0696 10.0296 92.6326C8.34438 91.6493 6.49085 90.2127 6.46532 89.8732C6.42703 89.3638 7.05526 89.3854 7.89944 89.8982ZM11.8276 90.3537C12.0911 90.8829 12.4406 91.9594 12.6789 92.7478L13.1015 94.2017L12.1015 92.8066C11.1554 91.5342 10.6025 89.5375 11.1355 89.4832C11.2688 89.4697 11.5672 89.867 11.8276 90.3537ZM61.8141 87.8737C60.3304 90.7621 59.9444 93.3676 59.8427 100.35C59.7223 108.275 59.3329 110.239 56.6132 116.333C55.6147 118.53 54.7433 121.228 54.6422 122.265L54.5193 124.202L54.0329 121.899C53.1236 117.543 52.7142 109.715 53.1728 106.29C53.8086 101.648 55.4657 96.3043 57.1714 93.3933C58.3952 91.2157 62.0197 86.4413 62.4194 86.4006C62.5083 86.3915 62.2452 87.0599 61.8141 87.8737ZM17.3491 92.3578C17.5682 92.8916 17.9526 93.8362 18.1845 94.5397L18.5467 95.7859L17.8451 94.7881C17.0863 93.625 16.3017 91.5235 16.6571 91.4873C16.7903 91.4738 17.0887 91.8711 17.3491 92.3578ZM12.1309 94.9849C13.5462 95.3541 13.4416 95.7496 11.9503 95.5593C9.55793 95.2896 9.10419 95.2075 9.07228 94.783C9.04037 94.3586 9.80504 94.409 12.1309 94.9849ZM24.6294 96.9203C24.906 98.218 25.0398 99.402 24.9129 99.5004C24.6243 99.8292 23.0267 95.8431 22.9278 94.5272C22.8829 93.3342 22.9241 93.2873 23.5082 93.9121C23.8478 94.2625 24.3529 95.6225 24.6294 96.9203ZM30.3674 100.613C30.8124 102.364 31.3525 104.191 31.5241 104.687C31.8004 105.386 31.7592 105.433 31.3656 104.96C30.3434 103.866 28.536 98.8749 28.7799 97.9519C29.122 96.5484 29.43 97.0731 30.3674 100.613ZM20.3566 99.0234C21.6862 99.444 21.6417 99.4485 18.7578 99.7849C17.0731 99.9992 15.7278 99.9651 15.7119 99.7529C15.6449 98.8615 18.4748 98.4023 20.3566 99.0234ZM26.6502 103.558C27.4276 103.778 28.1194 104.05 28.1258 104.135C28.1481 104.432 20.3336 104.671 19.9083 104.373C19.1974 103.846 21.4148 102.979 23.3471 103.082C24.3338 103.109 25.8251 103.3 26.6502 103.558ZM32.2272 109.277C33.4172 109.627 33.2871 109.683 30.5396 110.048C27.3479 110.459 26.3072 110.308 27.2397 109.614C28.0898 109.014 30.7168 108.832 32.2272 109.277ZM78.4944 104.952C78.8436 105.43 78.7994 106.033 78.2606 107.2L77.5315 108.814L76.8201 107.09C75.8767 104.662 77.0595 103.131 78.4944 104.952ZM65.4326 113.981C65.677 114.255 66.2454 115.267 66.7185 116.202C67.7792 118.404 70.433 121.555 73.5022 124.28C74.848 125.511 75.8638 126.52 75.7305 126.533C74.8866 126.619 67.956 123.732 65.8455 122.45C63.4018 120.902 61.4336 118.537 61.3092 116.881C61.1656 114.971 64.2677 112.773 65.4326 113.981ZM46.9806 153.712C54.3689 158.52 61.0245 163.702 65.7095 168.272C69.4803 171.994 70.861 173.094 69.1753 170.913C65.8675 166.801 56.2823 158.966 47.9609 153.655C41.0011 149.188 39.3888 147.983 41.5721 149.044C42.3623 149.434 45.3675 150.711 48.2775 151.912C55.3445 154.828 58.7593 156.79 61.9714 159.628C64.6058 161.926 67.6471 166.064 69.7016 170.175C70.6955 172.084 70.7083 172.254 70.0389 172.279C69.6359 172.277 68.3539 171.895 67.1988 171.413C66.0437 170.932 63.4574 169.87 61.4265 169.05C49.4789 164.321 44.188 160.027 39.9233 151.522C38.9262 149.57 38.1228 147.813 38.1132 147.685C38.1036 147.558 38.8558 148.038 39.7635 148.801C40.7125 149.517 43.9687 151.751 46.9806 153.712ZM51.67 176.202C54.8776 176.004 58.6818 176.002 60.1763 176.234C63.7047 176.731 69.7783 178.935 72.0476 180.543L73.8439 181.815L72.1975 182.538C69.9485 183.58 62.7845 184.138 59.1641 183.609C55.1376 183.035 47.4013 180.743 42.7269 178.695L38.7951 177L42.3612 176.808C44.2776 176.698 48.51 176.438 51.67 176.202Z" stroke="#677EA4" stroke-opacity="0.8" mask="url(#path-1-outside-1_92_27402)"/>
<path d="M94.4751 118.396C93.9004 119.608 92.4147 122.278 91.1992 124.409C85.5864 134.16 84.0826 138.368 83.2 147.336C82.9278 150.223 82.6083 153.073 82.4766 153.684C82.1975 155.292 82.8386 154.97 84.9561 152.448C91.5944 144.555 93.607 139.44 93.8543 129.684C93.9743 123.569 94.3912 120.838 95.4431 118.297C95.977 117.133 96.1746 116.216 95.9546 116.239C95.7346 116.261 95.0529 117.228 94.4751 118.396ZM93.5464 122.589C93.4555 123.153 93.2839 126.201 93.1658 129.371C92.8142 137.729 91.8099 141.502 88.6625 146.264C86.0741 150.199 83.1053 153.79 83.2934 152.747C83.3907 152.267 83.7259 149.629 83.9668 146.916C84.5365 141.48 85.4338 137.462 86.9065 134.025C87.9302 131.7 93.3009 121.675 93.6057 121.601C93.6937 121.592 93.6814 122.02 93.5464 122.589Z" fill="#677EA4" fill-opacity="0.8"/>
<path d="M82.514 154.907C82.6606 154.944 82.8067 154.896 82.9238 154.838C83.1612 154.719 83.4571 154.464 83.8107 154.104C84.1712 153.737 84.6136 153.239 85.1445 152.607L85.7553 151.873C88.7424 148.239 90.7416 145.153 92.0339 141.851C93.3264 138.548 93.9052 135.046 94.0748 130.588L94.1032 129.684L94.1041 129.683C94.2238 123.58 94.6399 120.888 95.6696 118.397L95.8574 117.964C96.0296 117.545 96.1543 117.17 96.2245 116.875C96.2704 116.683 96.297 116.506 96.2915 116.37C96.2889 116.306 96.2787 116.219 96.2344 116.142C96.2102 116.101 96.1719 116.056 96.115 116.025C96.0565 115.993 95.9937 115.984 95.9362 115.989C95.8369 116 95.7547 116.054 95.705 116.092C95.6476 116.135 95.5893 116.191 95.532 116.253C95.4164 116.377 95.2839 116.548 95.1452 116.749C94.8669 117.151 94.5458 117.696 94.2522 118.29L94.2504 118.294C93.6808 119.494 92.2003 122.155 90.9834 124.288L90.9835 124.289C88.1756 129.167 86.3869 132.674 85.191 136.089C83.9939 139.508 83.3941 142.824 82.9518 147.318L82.9519 147.319C82.6789 150.214 82.361 153.044 82.2332 153.637L82.2311 153.647C82.1951 153.854 82.1727 154.038 82.1671 154.193C82.1616 154.345 82.1714 154.491 82.213 154.611C82.2569 154.739 82.3484 154.866 82.514 154.907ZM83.5889 152.483C83.7251 151.59 84.0055 149.286 84.2142 146.935L84.2152 146.935C84.7834 141.514 85.6758 137.525 87.1337 134.121C87.6407 132.97 89.2349 129.892 90.7448 127.083C91.4986 125.681 92.2291 124.351 92.79 123.367C92.9898 123.016 93.1686 122.711 93.3176 122.463C93.3123 122.487 93.3094 122.512 93.3036 122.537L93.3023 122.546L93.3 122.555C93.2519 122.854 93.1857 123.773 93.1171 124.996C93.048 126.226 92.9758 127.781 92.9168 129.367L92.8427 130.879C92.6511 134.286 92.3176 136.871 91.7215 139.108C91.0417 141.659 90.0172 143.766 88.4557 146.129L88.4558 146.13C87.166 148.091 85.7821 149.964 84.747 151.215C84.2636 151.799 83.863 152.235 83.5889 152.483Z" stroke="#677EA4" stroke-opacity="0.8" stroke-width="0.5"/>
<path d="M100.69 141.459C100.239 141.844 98.2904 143.228 96.3327 144.487C91.882 147.441 89.2938 150.202 87.365 154.206C86.5304 155.898 85.0374 158.716 84.0697 160.38C83.1454 162.039 82.4252 163.508 82.5614 163.579C82.6542 163.654 83.6654 162.577 84.7785 161.11C86.2503 159.182 87.809 157.838 90.5987 156.028C96.0948 152.459 97.3007 151.067 99.2972 146.21C100.221 143.959 101.251 141.951 101.588 141.789C102.219 141.47 102.416 140.604 101.853 140.662C101.637 140.685 101.139 141.032 100.69 141.459ZM98.2549 146.868C96.62 150.714 95.4511 152.018 91.2108 154.866C89.8376 155.768 88.0932 156.963 87.3045 157.509L85.8942 158.5L86.9544 156.32C88.8523 152.488 90.1818 150.406 91.8115 148.843C93.3175 147.377 99.3639 142.991 99.6424 143.216C99.6888 143.253 99.0708 144.923 98.2549 146.868Z" fill="#677EA4" fill-opacity="0.8"/>
<path d="M82.6594 163.818C82.7038 163.804 82.7423 163.781 82.7689 163.764C82.8251 163.727 82.8889 163.675 82.9546 163.615C83.0889 163.494 83.2656 163.313 83.4696 163.089C83.8789 162.639 84.414 161.997 84.9741 161.259C86.4218 159.363 87.9549 158.037 90.7295 156.237C93.478 154.453 95.1807 153.196 96.4444 151.766C97.712 150.331 98.5262 148.736 99.5272 146.301L99.5272 146.3C99.987 145.18 100.473 144.122 100.883 143.326C101.089 142.928 101.274 142.6 101.426 142.364C101.502 142.245 101.567 142.154 101.62 142.09L101.689 142.015L101.695 142.012C102.079 141.818 102.336 141.458 102.411 141.134C102.448 140.975 102.449 140.783 102.348 140.628C102.235 140.455 102.041 140.392 101.835 140.413C101.734 140.423 101.629 140.467 101.537 140.513C101.439 140.562 101.332 140.628 101.222 140.704C101.005 140.853 100.762 141.053 100.532 141.27C100.094 141.643 98.1593 143.019 96.2021 144.277L96.1994 144.28C91.7203 147.252 89.0958 150.046 87.1424 154.1L86.4125 155.541C85.5971 157.121 84.5786 159.014 83.8556 160.258L83.853 160.262C83.3894 161.094 82.9755 161.882 82.6937 162.472C82.5535 162.766 82.4431 163.017 82.376 163.203C82.3431 163.294 82.316 163.381 82.3036 163.455C82.2977 163.49 82.2922 163.539 82.2989 163.59C82.3042 163.629 82.3263 163.713 82.4045 163.773L82.4018 163.776C82.5088 163.863 82.6291 163.828 82.6594 163.818ZM87.177 156.426C88.9539 152.839 90.2192 150.815 91.6851 149.315L91.9805 149.022L91.9823 149.021C92.7197 148.303 94.5927 146.85 96.3285 145.598C97.1939 144.973 98.0186 144.403 98.6424 144.004C98.8827 143.85 99.0919 143.727 99.2589 143.633C99.2004 143.8 99.1283 144.006 99.0389 144.244C98.7895 144.906 98.4327 145.806 98.0259 146.776L98.0258 146.775C97.2127 148.688 96.5247 149.946 95.5252 151.078C94.5222 152.214 93.194 153.236 91.0763 154.658L91.0763 154.659C89.701 155.563 87.9558 156.758 87.1668 157.305L87.1659 157.305L86.5333 157.75L87.177 156.426Z" stroke="#677EA4" stroke-opacity="0.8" stroke-width="0.5"/>
</svg>
