<svg width="98" height="174" viewBox="0 0 98 174" fill="none" xmlns="http://www.w3.org/2000/svg">
<mask id="path-1-outside-1_91_22575" maskUnits="userSpaceOnUse" x="-1.03213" y="-0.712154" width="123.523" height="175.572" fill="black">
<rect fill="white" x="-1.03213" y="-0.712154" width="123.523" height="175.572"/>
<path d="M89.12 4.78482C85.7378 5.51984 82.6732 6.67816 80.8488 7.93692C79.6615 8.73668 79.4104 8.80622 79.2211 8.26668C79.1092 7.89406 78.7462 7.59099 78.4565 7.57706C77.3391 7.52332 76.5296 23.112 77.3634 29.1909C78.1931 35.3921 79.9496 38.6592 85.9526 45.1091L88.9521 48.3952L88.1915 52.5614C86.2069 63.6051 85.4836 72.8735 85.8227 82.6009L85.9977 87.3017L85.1748 85.8748C82.6258 81.5087 75.5278 73.0883 70.6198 68.6088C68.3273 66.4992 62.7876 62.3157 62.2496 62.2898C61.5874 62.258 61.9233 63.3758 62.8853 64.3605C64.6893 66.2018 66.167 69.1291 67.6996 74.14C68.5633 76.8337 69.7031 79.9487 70.2459 81.0765C71.5702 83.6292 75.8547 88.1604 81.0205 92.3667C86.4265 96.8294 86.8668 97.2994 86.822 98.6437C86.8003 99.2956 87.3403 102.994 87.9977 106.902C88.6151 110.767 89.6341 117.508 90.1524 121.858C90.7135 126.169 91.2413 130.234 91.3851 130.894C91.5649 131.718 91.0031 131.161 89.5438 128.928C86.9371 125.049 76.1801 113.229 70.5462 108.143C67.5291 105.387 66.4096 104.15 66.6315 103.712C67.5189 101.959 67.3779 98.7287 66.118 92.9965C65.4389 89.7404 64.7055 85.6248 64.5169 83.8204C64.2869 82.014 63.833 79.4624 63.4198 78.1777C62.6376 75.5286 56.5959 64.0173 52.7423 57.7523C50.2653 53.7161 46.1904 49.1134 45.8722 49.9549C45.7386 50.2341 46.3519 51.7325 47.2122 53.2836C51.156 60.573 52.6262 64.9688 53.8847 73.2308C55.0116 80.4663 54.9743 80.3421 56.2389 84.6872C56.8346 86.7152 58.1372 89.9197 59.1122 91.7619C61.8837 96.914 64.2732 102.333 63.8926 102.56C63.6815 102.672 63.4359 102.579 63.3172 102.41C63.1998 102.2 61.3422 100.723 59.1562 99.1494C56.9702 97.5754 53.5779 94.8824 51.5629 93.1534C49.5879 91.4671 46.7614 89.2094 45.3041 88.1601C43.8481 87.07 41.9477 85.6321 41.0589 84.9365C39.6871 83.8096 39.2359 83.6655 38.149 83.9397C37.0635 84.1731 36.2025 83.8869 32.1263 81.8139C29.5183 80.4644 26.4123 79.1317 25.2602 78.8723C20.4479 77.7432 12.3545 78.0476 9.11345 79.5239L7.80876 80.114L8.14597 78.7021C8.34409 77.7324 8.25522 76.6672 7.83525 75.5861C7.11542 73.5522 7.38545 72.9123 9.76281 71.2313C10.6977 70.5418 11.7331 69.3267 12.1795 68.3689C13.0765 66.3311 13.4584 66.0638 15.3622 66.1554C17.1832 66.243 23.497 68.3419 26.2265 69.7789C29.2429 71.3113 36.1191 77.6808 38.7325 81.3563C40.0012 83.0903 41.1967 84.5351 41.3622 84.543C42.9349 84.6187 44.1643 77.5781 44.2777 67.954L44.328 61.4687L41.929 56.3346C39.3725 50.948 38.7368 48.8773 38.821 46.3516C38.8834 44.4776 38.3467 44.411 36.2218 45.9818L34.6484 47.171L33.2698 46.2478C31.4054 44.9749 30.7405 45.0245 28.8224 46.6052C27.4173 47.7209 26.8298 47.9375 25.2571 47.8618C22.6084 47.7345 20.9136 48.8362 20.8498 50.7509L20.8036 52.136L18.4032 52.0206C14.2232 51.8195 11.0473 53.8294 10.398 57.144C10.149 58.3969 9.5424 59.1838 7.41065 60.9582C4.25305 63.6626 3.10371 65.8107 3.46938 68.5213C3.7645 70.8612 3.68985 73.1018 3.23322 75.6096C2.87837 77.5511 2.91433 77.7161 4.16338 78.7962C4.84659 79.4411 5.61664 79.9678 5.82357 79.9777C6.73407 80.0215 6.04882 80.6822 4.70817 81.1074C3.91232 81.3547 3.23657 81.7303 3.22978 81.9339C3.20128 82.7894 9.10049 88.6224 10.9344 89.5674C13.9922 91.1018 17.3214 91.9555 20.922 92.1287C24.9365 92.3218 26.8661 91.6393 31.6181 88.3588C34.8863 86.0677 37.5811 84.81 38.9482 84.835C39.3621 84.8549 40.5392 85.6051 41.5854 86.5531C42.5916 87.4584 44.2477 88.7621 45.262 89.4229C46.2763 90.0838 49.1028 92.3415 51.5208 94.4163C53.9802 96.4931 57.7782 99.4504 60.0056 101.026C64.0574 103.833 71.3169 109.894 73.0328 111.894L73.9507 112.959L72.5768 113.137C70.287 113.435 67.3811 112.316 56.1614 106.921C44.0861 101.077 43.0929 101.029 29.8092 105.327C28.3002 105.826 26.0464 106.289 24.7994 106.392C22.3053 106.599 21.9702 106.705 22.5319 107.262C23.1337 107.863 29.1537 110.07 33.7537 111.352C36.1351 112.038 39.543 113.018 41.3505 113.513C51.7812 116.462 62.9209 116.794 71.5829 114.355L74.5125 113.516L80.238 119.586C85.9649 125.614 90.3769 131.294 91.8037 134.504C92.2291 135.423 92.9448 137.579 93.3858 139.273C93.8268 140.967 94.7665 143.868 95.4931 145.699C96.9022 149.439 96.9423 149.481 96.2577 148.877C95.9748 148.66 94.5493 147.897 93.1612 147.259C91.733 146.579 89.2492 145.235 87.6236 144.259C85.0651 142.667 84.5447 142.112 82.9748 139.466C76.4697 128.177 69.7591 121.815 63.965 121.537C62.5992 121.471 62.3882 121.583 62.6176 122.166C62.7695 122.581 63.296 124.198 63.7825 125.771C65.4698 131.116 68.4007 135.215 73.3331 138.961C76.1209 141.136 81.13 143.825 83.5141 144.429L85.0759 144.83L84.0223 145.351C82.3784 146.17 76.3319 146.001 72.9226 145.062C69.2664 144.07 65.4588 143.887 62.2877 144.51C59.7828 145.042 45.7453 150.814 45.6862 151.342C45.6808 151.505 46.746 151.882 48.0622 152.19C49.3371 152.496 51.5889 153.339 53.0571 154.063C56.4833 155.737 58.7019 156.333 62.3425 156.549C66.4398 156.746 68.7554 155.674 74.0943 150.953C78.024 147.47 78.5315 147.168 80.4434 147.015C81.6076 146.908 83.3621 146.503 84.369 146.143C85.3758 145.783 86.5055 145.47 86.8779 145.488C87.2491 145.547 89.6997 146.644 92.3504 147.955L97.1634 150.308L99.5333 155.074C103.494 163.098 109.779 173.52 110.731 173.565C111.435 173.599 111.396 173.516 108.715 169.388C102.803 160.209 97.0284 148.139 94.5711 139.779C93.2305 135.226 93.1253 134.65 93.6905 133.861C94.0379 133.388 95.0671 131.111 95.9295 128.868C97.3787 125.184 97.8611 124.391 100.175 122.136C103.518 118.828 104.744 116.888 106.077 112.953C106.632 111.225 108.102 108.154 109.29 106.09C111.924 101.687 112.309 100.073 111.649 96.247C111.089 93.1599 109.131 87.2309 108.222 85.8815C107.549 84.9514 107.416 85.1899 106.873 87.8159C106.675 88.7857 105.358 90.9665 103.406 93.5657C97.6801 101.206 97.1787 102.569 97.9671 108.768C98.4922 112.915 98.4908 112.956 97.5016 115.275C95.5713 119.711 95.0441 121.848 95.1893 124.956C95.2775 127.286 95.1167 128.38 94.4402 130.02C93.9456 131.18 93.4497 132.38 93.3146 132.7C93.221 133.022 93.0087 133.175 92.93 133.049C92.6484 132.79 91.5324 125.229 91.0582 120.8C90.8736 118.873 90.1633 114.065 89.5487 110.118C87.9971 100.7 87.7033 98.3189 87.2759 91.2394C86.3703 77.3636 86.9084 64.9446 88.9663 54.1899C89.3266 52.0855 89.7723 49.9036 89.8314 49.376C89.9827 48.5672 90.4488 48.2632 92.1232 47.7725C93.2943 47.4616 96.0264 46.328 98.1738 45.3296C100.364 44.2925 103.391 43.01 104.983 42.5153C108.715 41.2258 111.401 38.9884 113.768 35.1444C114.821 33.3997 116.996 30.3216 118.598 28.2769C121.8 24.2282 121.935 23.9083 121.496 22.1734C121.205 20.9353 118.468 18.4779 117.309 18.4222C116.896 18.4023 115.782 17.0022 114.681 15.1948C111.221 9.56077 106.61 6.11558 103.031 6.55549C100.326 6.87423 99.4191 6.70823 96.9739 5.44816C94.3659 4.09865 92.8359 3.98425 89.12 4.78482ZM97.2229 6.68422C99.1796 7.67598 99.7563 7.78533 102.248 7.66032C104.738 7.57605 105.273 7.68339 107.064 8.6672C109.261 9.91533 112.066 12.8248 114.035 15.9389C115.175 17.7891 115.248 18.0783 114.72 18.9914L114.15 19.9432L113.36 18.7627C112.925 18.1298 111.73 16.685 110.688 15.6148C107.561 12.4042 104.143 11.7501 100.802 13.7113C99.2372 14.6561 98.6679 15.5672 97.7771 18.6662L97.2194 20.4755L96.585 18.364C95.7641 15.6315 93.4187 12.6217 91.2632 11.3756C89.065 10.1682 85.8796 9.97419 83.528 10.8812L81.764 11.5716L81.0116 10.5153C80.1391 9.33089 80.3114 9.13517 83.8476 7.5099C89.0664 5.14947 93.7607 4.84479 97.2229 6.68422ZM80.7104 12.0922C82.3427 15.3533 82.5673 17.3227 81.7381 22.3016C80.6559 28.6556 81.3642 32.2803 84.7151 37.4603C86.0944 39.6075 87.5959 43.0664 87.9887 44.9622L88.2377 46.1983L86.954 44.9125C84.8684 42.8128 80.6661 37.0615 79.8981 35.2292C78.1286 31.1046 77.5513 24.7932 78.217 16.0118C78.7964 8.57267 78.8833 8.45444 80.7104 12.0922ZM90.8181 12.2926C95.3801 14.7154 97.4324 21.5466 96.1541 30.0538C95.3487 35.5643 94.4715 38.2559 92.1782 42.3891C89.9277 46.4836 88.9378 47.5785 88.9921 45.949C89.0518 44.1565 87.6827 40.4592 85.6019 36.9725C82.7782 32.1443 81.9254 29.1247 82.3813 25.3927C83.3672 16.9531 83.3794 16.5865 82.8265 14.5197C82.532 13.4039 82.3136 12.4957 82.3563 12.457C82.3977 12.4589 83.1121 12.1669 83.9107 11.8381C85.9698 10.9986 88.7 11.1707 90.8181 12.2926ZM109.035 15.4537C110.69 16.7982 111.528 17.7769 112.667 19.6678L113.451 21.0113L112.131 24.5385C110.489 29.0294 109.441 30.6519 107.018 32.4532C105.956 33.2182 102.737 36.5316 99.8924 39.7815C95.6682 44.6379 94.3846 45.8411 92.7875 46.4987C91.6951 46.9358 90.6883 47.2954 90.5227 47.2875C90.3558 47.3202 90.7968 46.5254 91.533 45.5815C95.0481 40.8542 96.7627 35.4282 97.3598 27.4595C97.9976 18.2687 99.7447 14.3541 103.454 13.7572C105.62 13.4533 107.097 13.8916 109.035 15.4537ZM118.58 20.1154C119.797 20.9084 120.864 22.4694 120.831 23.4471C120.825 23.6508 119.435 25.5426 117.748 27.6648C116.1 29.8297 113.971 32.7875 113.09 34.3365C110.934 38.0683 108.673 39.9997 105.106 41.2971C103.469 41.912 100.948 42.9333 99.4765 43.5561L96.8243 44.7751L98.2898 43.0911C99.1074 42.1919 101.175 39.8432 102.856 37.9246C104.538 35.9654 106.896 33.6306 108.128 32.7106C110.47 30.8646 112.048 28.2883 113.567 23.7506C115.136 18.9705 115.901 18.3953 118.58 20.1154ZM37.9512 47.5746C37.8887 49.4486 39.0123 53.0525 40.4207 55.5684C43.3951 60.8526 43.7703 63.278 43.0992 72.2224L42.5896 78.808L40.77 76.1907C38.0365 72.387 37.3404 70.8846 36.7026 67.6305C36.3845 65.9831 35.4557 62.7558 34.6626 60.4327C32.8525 55.0412 32.6808 53.9721 33.303 51.4722C33.6856 49.9401 34.2549 49.029 35.4945 47.9053C37.4607 46.1229 38.0028 46.0266 37.9512 47.5746ZM33.1144 47.1788C33.7589 47.7403 33.7562 47.8217 32.9129 49.4949C31.5376 52.2034 31.6767 54.2502 33.7276 61.1222C34.7752 64.5184 35.8478 68.4055 36.1782 69.6862C36.687 71.8325 38.3316 74.727 41.1879 78.5774C42.1805 79.89 42.2911 80.3034 41.9952 81.7173C41.7998 82.6055 41.5271 83.3269 41.4029 83.3209C41.2374 83.3129 40.6024 82.4663 40.0155 81.418C39.3859 80.4085 37.9557 78.5444 36.8362 77.3073C35.115 75.4699 34.6095 74.4664 33.8646 71.9416C32.5308 67.1851 31.5518 65.4651 27.173 60.0317C21.5587 53.1108 20.4976 50.1219 23.1857 49.0679C23.7746 48.8106 25.1058 48.6706 26.1818 48.7224C27.7545 48.798 28.2579 48.6182 29.2024 47.6435C30.4046 46.3957 31.9441 46.2249 33.1144 47.1788ZM50.9125 56.685C56.3788 65.5573 57.4067 68.2998 59.2792 79.2842C60.7005 87.6356 62.2121 92.0334 65.8907 98.5756C66.4375 99.5812 66.4972 100.278 66.24 101.775C66.0392 102.826 65.7624 103.67 65.5968 103.662C65.4313 103.654 65.0113 102.573 64.6823 101.251C64.3519 99.9705 62.8077 96.5504 61.2459 93.6599C57.4608 86.5821 56.4533 83.2286 54.8916 72.8712C53.8461 65.6803 52.1147 60.4151 48.6057 53.7587C47.0053 50.7847 48.1994 52.2702 50.9125 56.685ZM21.8091 54.3061C22.5839 55.9347 24.5277 58.558 27.5604 62.0905C28.7986 63.4965 30.2247 65.4828 30.8115 66.5311C31.7091 68.2064 33.5206 73.5571 33.2228 73.7876C33.18 73.8264 32.1298 73.0006 30.9221 71.9225C28.0237 69.3349 25.9055 68.2129 20.5355 66.4042C14.2231 64.2645 12.3885 64.5843 11.1944 68.0767L10.6007 69.7211L9.62442 67.9196L8.60674 66.1161L9.74793 64.2125C10.5791 62.9059 10.9495 61.7405 10.9943 60.3961C11.0757 57.9518 11.7712 55.7411 12.7624 54.6055C13.7523 53.5106 16.3882 52.7805 18.9969 52.8652C21.0248 52.9627 21.1876 53.0521 21.8091 54.3061ZM10.0071 61.4095C9.81987 62.0534 9.19838 63.2884 8.54773 64.1547C7.50424 65.6143 7.45742 65.7752 8.04157 66.905C9.67529 70.1254 9.68615 69.7995 7.98048 71.2272C6.27345 72.6956 6.03123 73.7449 6.90982 75.9905C7.40442 77.32 7.24428 79.638 6.66487 79.6102C6.12685 79.5843 3.80652 77.0653 3.82552 76.495C3.83502 76.2098 4.16273 75.0831 4.61323 74.0031C5.29511 72.1997 5.30325 71.9553 4.66754 69.8846C4.03319 67.7731 4.03862 67.6102 4.80463 65.7701C5.48242 64.0889 9.17873 60.1456 10.0065 60.1854C10.172 60.1934 10.1544 60.7229 10.0071 61.4095ZM70.862 72.5375C72.0248 74.96 73.9883 78.2371 75.2183 79.8875C78.7165 84.3809 82.5246 90.7661 82.4839 91.9882C82.4636 92.5993 77.9518 88.6693 75.0297 85.5501C71.4284 81.6638 70.0973 79.3149 68.9982 74.9777C68.159 71.5507 66.4805 67.1856 65.6745 66.494C65.3515 66.2337 65.1168 65.8143 65.1236 65.6106C65.1304 65.407 65.9431 65.8949 66.9534 66.6779C68.448 67.8515 69.1991 68.9485 70.862 72.5375ZM59.0452 70.1331C58.9156 70.2901 59.4475 71.7438 60.305 73.3763C62.3669 77.4334 62.9252 79.3372 63.5046 84.343C63.7984 86.7237 64.5012 90.5114 65.0888 92.7838C65.6349 95.0542 66.0691 96.9521 65.9836 97.0296C65.8126 97.1845 62.7874 89.6945 61.8837 86.9581C61.5079 85.7975 60.7623 82.0486 60.1727 78.5927C59.6232 75.1797 58.9413 72.005 58.708 71.545C58.2052 70.4599 58.2256 69.8489 58.8464 69.8787C59.0947 69.8907 59.2148 70.0188 59.0452 70.1331ZM82.1923 83.324C85.9502 88.7275 86.1436 89.1448 86.3539 92.7864L86.5031 95.7722L85.134 94.5639C84.3694 93.8742 83.7343 93.0276 83.7452 92.7017C83.6862 90.7404 80.3957 84.9921 75.9477 79.1474C73.8452 76.3124 72.0059 73.0414 71.2555 70.6795C70.9197 69.5617 79.5802 79.6077 82.1923 83.324ZM26.744 80.3718C27.8506 80.7514 30.097 81.7571 31.7253 82.6515C33.355 83.5051 34.8646 84.2306 35.0715 84.2405C35.3198 84.2525 35.4799 84.4234 35.4718 84.6678C35.465 84.8715 35.2927 85.0672 35.0857 85.0573C34.9202 85.0493 32.933 86.2186 30.7693 87.7059C26.3606 90.6357 24.1359 91.4672 20.9492 91.3139C18.3832 91.1905 13.252 89.6789 10.9323 88.384C9.30404 87.4897 4.84859 83.1135 4.87031 82.4617C4.8866 81.9728 7.5333 80.9168 10.9636 79.9801C13.3898 79.3215 14.8024 79.2262 19.3149 79.4024C22.9155 79.5756 25.3919 79.8987 26.744 80.3718ZM109.99 93.8007C110.979 97.6838 111.087 100.668 110.241 102.422C109.931 103.019 108.964 104.687 108.087 106.113C107.169 107.538 105.875 110.291 105.228 112.3C104.582 114.269 103.465 116.704 102.768 117.69C101.12 119.896 97.8591 123.208 98.2227 122.246C98.3605 121.844 98.8178 120.561 99.1882 119.395C99.6001 118.232 100.89 115.601 102.119 113.538C106.514 106.038 106.468 106.199 107.265 99.6677C107.665 96.3819 108.009 92.2773 108.023 90.6051C107.997 87.666 108 87.5845 108.536 88.916C108.842 89.6652 109.474 91.8581 109.99 93.8007ZM106.467 97.5075C106.05 101.323 105.51 105.092 105.193 105.892C104.917 106.695 103.507 109.198 102.063 111.495C99.7405 115.26 96.8156 122.178 96.7545 124.011C96.7423 124.378 96.5204 124.816 96.2681 124.926C95.4641 125.418 96.551 120.166 97.8985 117.048C99.1068 114.372 99.2113 113.725 99.0885 111.189C98.5967 102.311 98.4386 103.324 100.42 99.8282C102.139 96.769 106.532 90.5742 106.989 90.5553C107.113 90.5613 106.884 93.6921 106.467 97.5075ZM47.9188 104.24C49.0667 104.621 52.8641 106.355 56.4117 108.117C59.9608 109.838 63.2656 111.425 63.8409 111.575C65.8112 112.159 64.7188 112.596 61.6563 112.449C58.1384 112.28 49.8218 110.574 47.0387 109.502C44.4212 108.438 36.9229 104.568 36.8923 104.24C36.8862 103.179 44.846 103.154 47.9188 104.24ZM39.4983 106.895C44.0108 109.56 48.0619 111.142 53.0011 112.196C59.2165 113.515 62.0667 113.815 64.3606 113.395C65.6117 113.17 67.1043 113.16 68.0094 113.367L69.5298 113.766L67.774 114.212C63.3863 115.266 54.472 115.327 48.7878 114.238C45.903 113.732 31.816 109.79 27.1 108.257C25.0924 107.549 24.9445 107.011 26.8069 107.101C27.3877 107.088 29.4774 106.576 31.4483 105.896C33.4193 105.215 35.1779 104.688 35.3861 104.657C35.5931 104.667 37.467 105.655 39.4983 106.895ZM68.5643 124.084C71.6594 125.742 76.9792 131.547 80.282 136.929C81.7773 139.327 82.9123 141.34 82.8269 141.417C82.3153 141.841 76.4093 136.212 72.8616 131.961C70.5094 129.155 67.4699 125.826 66.0621 124.535C63.5267 122.25 63.5281 122.209 64.8857 122.519C65.6666 122.72 67.3431 123.413 68.5643 124.084ZM72.0549 132.535C75.7532 137.242 78.3687 139.612 82.7556 142.311C86.4939 144.572 86.1988 144.721 81.7874 142.755C77.1318 140.654 71.7428 136.926 69.4734 134.124C67.7589 132.083 65.4447 128.136 65.0783 126.691C64.9691 126.237 64.7452 125.491 64.5532 125.033C63.984 123.455 68.3567 127.828 72.0549 132.535ZM71.4965 145.565C72.0345 145.591 72.3188 145.767 72.1865 146.006C72.0555 146.204 71.4693 146.379 70.8899 146.352C69.1931 146.27 65.3353 147.594 62.5882 149.176C57.516 152.114 54.68 152.631 49.6994 151.575L48.1348 151.255L51.2103 149.771C55.5091 147.652 61.8826 145.47 64.338 145.18C65.4608 145.07 67.3673 145.08 68.4807 145.256C69.6368 145.394 70.9584 145.539 71.4965 145.565ZM74.652 149.144C68.6197 154.77 65.3787 156.247 60.6355 155.529C58.2019 155.167 53.4859 153.634 53.4994 153.227C53.5049 153.064 54.5049 152.908 55.7492 152.886C57.5757 152.811 58.7908 152.421 61.9999 150.657C67.3592 147.814 70.9164 146.802 76.5999 146.667C77.0565 146.648 76.2789 147.59 74.652 149.144Z"/>
</mask>
<path d="M89.12 4.78482C85.7378 5.51984 82.6732 6.67816 80.8488 7.93692C79.6615 8.73668 79.4104 8.80622 79.2211 8.26668C79.1092 7.89406 78.7462 7.59099 78.4565 7.57706C77.3391 7.52332 76.5296 23.112 77.3634 29.1909C78.1931 35.3921 79.9496 38.6592 85.9526 45.1091L88.9521 48.3952L88.1915 52.5614C86.2069 63.6051 85.4836 72.8735 85.8227 82.6009L85.9977 87.3017L85.1748 85.8748C82.6258 81.5087 75.5278 73.0883 70.6198 68.6088C68.3273 66.4992 62.7876 62.3157 62.2496 62.2898C61.5874 62.258 61.9233 63.3758 62.8853 64.3605C64.6893 66.2018 66.167 69.1291 67.6996 74.14C68.5633 76.8337 69.7031 79.9487 70.2459 81.0765C71.5702 83.6292 75.8547 88.1604 81.0205 92.3667C86.4265 96.8294 86.8668 97.2994 86.822 98.6437C86.8003 99.2956 87.3403 102.994 87.9977 106.902C88.6151 110.767 89.6341 117.508 90.1524 121.858C90.7135 126.169 91.2413 130.234 91.3851 130.894C91.5649 131.718 91.0031 131.161 89.5438 128.928C86.9371 125.049 76.1801 113.229 70.5462 108.143C67.5291 105.387 66.4096 104.15 66.6315 103.712C67.5189 101.959 67.3779 98.7287 66.118 92.9965C65.4389 89.7404 64.7055 85.6248 64.5169 83.8204C64.2869 82.014 63.833 79.4624 63.4198 78.1777C62.6376 75.5286 56.5959 64.0173 52.7423 57.7523C50.2653 53.7161 46.1904 49.1134 45.8722 49.9549C45.7386 50.2341 46.3519 51.7325 47.2122 53.2836C51.156 60.573 52.6262 64.9688 53.8847 73.2308C55.0116 80.4663 54.9743 80.3421 56.2389 84.6872C56.8346 86.7152 58.1372 89.9197 59.1122 91.7619C61.8837 96.914 64.2732 102.333 63.8926 102.56C63.6815 102.672 63.4359 102.579 63.3172 102.41C63.1998 102.2 61.3422 100.723 59.1562 99.1494C56.9702 97.5754 53.5779 94.8824 51.5629 93.1534C49.5879 91.4671 46.7614 89.2094 45.3041 88.1601C43.8481 87.07 41.9477 85.6321 41.0589 84.9365C39.6871 83.8096 39.2359 83.6655 38.149 83.9397C37.0635 84.1731 36.2025 83.8869 32.1263 81.8139C29.5183 80.4644 26.4123 79.1317 25.2602 78.8723C20.4479 77.7432 12.3545 78.0476 9.11345 79.5239L7.80876 80.114L8.14597 78.7021C8.34409 77.7324 8.25522 76.6672 7.83525 75.5861C7.11542 73.5522 7.38545 72.9123 9.76281 71.2313C10.6977 70.5418 11.7331 69.3267 12.1795 68.3689C13.0765 66.3311 13.4584 66.0638 15.3622 66.1554C17.1832 66.243 23.497 68.3419 26.2265 69.7789C29.2429 71.3113 36.1191 77.6808 38.7325 81.3563C40.0012 83.0903 41.1967 84.5351 41.3622 84.543C42.9349 84.6187 44.1643 77.5781 44.2777 67.954L44.328 61.4687L41.929 56.3346C39.3725 50.948 38.7368 48.8773 38.821 46.3516C38.8834 44.4776 38.3467 44.411 36.2218 45.9818L34.6484 47.171L33.2698 46.2478C31.4054 44.9749 30.7405 45.0245 28.8224 46.6052C27.4173 47.7209 26.8298 47.9375 25.2571 47.8618C22.6084 47.7345 20.9136 48.8362 20.8498 50.7509L20.8036 52.136L18.4032 52.0206C14.2232 51.8195 11.0473 53.8294 10.398 57.144C10.149 58.3969 9.5424 59.1838 7.41065 60.9582C4.25305 63.6626 3.10371 65.8107 3.46938 68.5213C3.7645 70.8612 3.68985 73.1018 3.23322 75.6096C2.87837 77.5511 2.91433 77.7161 4.16338 78.7962C4.84659 79.4411 5.61664 79.9678 5.82357 79.9777C6.73407 80.0215 6.04882 80.6822 4.70817 81.1074C3.91232 81.3547 3.23657 81.7303 3.22978 81.9339C3.20128 82.7894 9.10049 88.6224 10.9344 89.5674C13.9922 91.1018 17.3214 91.9555 20.922 92.1287C24.9365 92.3218 26.8661 91.6393 31.6181 88.3588C34.8863 86.0677 37.5811 84.81 38.9482 84.835C39.3621 84.8549 40.5392 85.6051 41.5854 86.5531C42.5916 87.4584 44.2477 88.7621 45.262 89.4229C46.2763 90.0838 49.1028 92.3415 51.5208 94.4163C53.9802 96.4931 57.7782 99.4504 60.0056 101.026C64.0574 103.833 71.3169 109.894 73.0328 111.894L73.9507 112.959L72.5768 113.137C70.287 113.435 67.3811 112.316 56.1614 106.921C44.0861 101.077 43.0929 101.029 29.8092 105.327C28.3002 105.826 26.0464 106.289 24.7994 106.392C22.3053 106.599 21.9702 106.705 22.5319 107.262C23.1337 107.863 29.1537 110.07 33.7537 111.352C36.1351 112.038 39.543 113.018 41.3505 113.513C51.7812 116.462 62.9209 116.794 71.5829 114.355L74.5125 113.516L80.238 119.586C85.9649 125.614 90.3769 131.294 91.8037 134.504C92.2291 135.423 92.9448 137.579 93.3858 139.273C93.8268 140.967 94.7665 143.868 95.4931 145.699C96.9022 149.439 96.9423 149.481 96.2577 148.877C95.9748 148.66 94.5493 147.897 93.1612 147.259C91.733 146.579 89.2492 145.235 87.6236 144.259C85.0651 142.667 84.5447 142.112 82.9748 139.466C76.4697 128.177 69.7591 121.815 63.965 121.537C62.5992 121.471 62.3882 121.583 62.6176 122.166C62.7695 122.581 63.296 124.198 63.7825 125.771C65.4698 131.116 68.4007 135.215 73.3331 138.961C76.1209 141.136 81.13 143.825 83.5141 144.429L85.0759 144.83L84.0223 145.351C82.3784 146.17 76.3319 146.001 72.9226 145.062C69.2664 144.07 65.4588 143.887 62.2877 144.51C59.7828 145.042 45.7453 150.814 45.6862 151.342C45.6808 151.505 46.746 151.882 48.0622 152.19C49.3371 152.496 51.5889 153.339 53.0571 154.063C56.4833 155.737 58.7019 156.333 62.3425 156.549C66.4398 156.746 68.7554 155.674 74.0943 150.953C78.024 147.47 78.5315 147.168 80.4434 147.015C81.6076 146.908 83.3621 146.503 84.369 146.143C85.3758 145.783 86.5055 145.47 86.8779 145.488C87.2491 145.547 89.6997 146.644 92.3504 147.955L97.1634 150.308L99.5333 155.074C103.494 163.098 109.779 173.52 110.731 173.565C111.435 173.599 111.396 173.516 108.715 169.388C102.803 160.209 97.0284 148.139 94.5711 139.779C93.2305 135.226 93.1253 134.65 93.6905 133.861C94.0379 133.388 95.0671 131.111 95.9295 128.868C97.3787 125.184 97.8611 124.391 100.175 122.136C103.518 118.828 104.744 116.888 106.077 112.953C106.632 111.225 108.102 108.154 109.29 106.09C111.924 101.687 112.309 100.073 111.649 96.247C111.089 93.1599 109.131 87.2309 108.222 85.8815C107.549 84.9514 107.416 85.1899 106.873 87.8159C106.675 88.7857 105.358 90.9665 103.406 93.5657C97.6801 101.206 97.1787 102.569 97.9671 108.768C98.4922 112.915 98.4908 112.956 97.5016 115.275C95.5713 119.711 95.0441 121.848 95.1893 124.956C95.2775 127.286 95.1167 128.38 94.4402 130.02C93.9456 131.18 93.4497 132.38 93.3146 132.7C93.221 133.022 93.0087 133.175 92.93 133.049C92.6484 132.79 91.5324 125.229 91.0582 120.8C90.8736 118.873 90.1633 114.065 89.5487 110.118C87.9971 100.7 87.7033 98.3189 87.2759 91.2394C86.3703 77.3636 86.9084 64.9446 88.9663 54.1899C89.3266 52.0855 89.7723 49.9036 89.8314 49.376C89.9827 48.5672 90.4488 48.2632 92.1232 47.7725C93.2943 47.4616 96.0264 46.328 98.1738 45.3296C100.364 44.2925 103.391 43.01 104.983 42.5153C108.715 41.2258 111.401 38.9884 113.768 35.1444C114.821 33.3997 116.996 30.3216 118.598 28.2769C121.8 24.2282 121.935 23.9083 121.496 22.1734C121.205 20.9353 118.468 18.4779 117.309 18.4222C116.896 18.4023 115.782 17.0022 114.681 15.1948C111.221 9.56077 106.61 6.11558 103.031 6.55549C100.326 6.87423 99.4191 6.70823 96.9739 5.44816C94.3659 4.09865 92.8359 3.98425 89.12 4.78482ZM97.2229 6.68422C99.1796 7.67598 99.7563 7.78533 102.248 7.66032C104.738 7.57605 105.273 7.68339 107.064 8.6672C109.261 9.91533 112.066 12.8248 114.035 15.9389C115.175 17.7891 115.248 18.0783 114.72 18.9914L114.15 19.9432L113.36 18.7627C112.925 18.1298 111.73 16.685 110.688 15.6148C107.561 12.4042 104.143 11.7501 100.802 13.7113C99.2372 14.6561 98.6679 15.5672 97.7771 18.6662L97.2194 20.4755L96.585 18.364C95.7641 15.6315 93.4187 12.6217 91.2632 11.3756C89.065 10.1682 85.8796 9.97419 83.528 10.8812L81.764 11.5716L81.0116 10.5153C80.1391 9.33089 80.3114 9.13517 83.8476 7.5099C89.0664 5.14947 93.7607 4.84479 97.2229 6.68422ZM80.7104 12.0922C82.3427 15.3533 82.5673 17.3227 81.7381 22.3016C80.6559 28.6556 81.3642 32.2803 84.7151 37.4603C86.0944 39.6075 87.5959 43.0664 87.9887 44.9622L88.2377 46.1983L86.954 44.9125C84.8684 42.8128 80.6661 37.0615 79.8981 35.2292C78.1286 31.1046 77.5513 24.7932 78.217 16.0118C78.7964 8.57267 78.8833 8.45444 80.7104 12.0922ZM90.8181 12.2926C95.3801 14.7154 97.4324 21.5466 96.1541 30.0538C95.3487 35.5643 94.4715 38.2559 92.1782 42.3891C89.9277 46.4836 88.9378 47.5785 88.9921 45.949C89.0518 44.1565 87.6827 40.4592 85.6019 36.9725C82.7782 32.1443 81.9254 29.1247 82.3813 25.3927C83.3672 16.9531 83.3794 16.5865 82.8265 14.5197C82.532 13.4039 82.3136 12.4957 82.3563 12.457C82.3977 12.4589 83.1121 12.1669 83.9107 11.8381C85.9698 10.9986 88.7 11.1707 90.8181 12.2926ZM109.035 15.4537C110.69 16.7982 111.528 17.7769 112.667 19.6678L113.451 21.0113L112.131 24.5385C110.489 29.0294 109.441 30.6519 107.018 32.4532C105.956 33.2182 102.737 36.5316 99.8924 39.7815C95.6682 44.6379 94.3846 45.8411 92.7875 46.4987C91.6951 46.9358 90.6883 47.2954 90.5227 47.2875C90.3558 47.3202 90.7968 46.5254 91.533 45.5815C95.0481 40.8542 96.7627 35.4282 97.3598 27.4595C97.9976 18.2687 99.7447 14.3541 103.454 13.7572C105.62 13.4533 107.097 13.8916 109.035 15.4537ZM118.58 20.1154C119.797 20.9084 120.864 22.4694 120.831 23.4471C120.825 23.6508 119.435 25.5426 117.748 27.6648C116.1 29.8297 113.971 32.7875 113.09 34.3365C110.934 38.0683 108.673 39.9997 105.106 41.2971C103.469 41.912 100.948 42.9333 99.4765 43.5561L96.8243 44.7751L98.2898 43.0911C99.1074 42.1919 101.175 39.8432 102.856 37.9246C104.538 35.9654 106.896 33.6306 108.128 32.7106C110.47 30.8646 112.048 28.2883 113.567 23.7506C115.136 18.9705 115.901 18.3953 118.58 20.1154ZM37.9512 47.5746C37.8887 49.4486 39.0123 53.0525 40.4207 55.5684C43.3951 60.8526 43.7703 63.278 43.0992 72.2224L42.5896 78.808L40.77 76.1907C38.0365 72.387 37.3404 70.8846 36.7026 67.6305C36.3845 65.9831 35.4557 62.7558 34.6626 60.4327C32.8525 55.0412 32.6808 53.9721 33.303 51.4722C33.6856 49.9401 34.2549 49.029 35.4945 47.9053C37.4607 46.1229 38.0028 46.0266 37.9512 47.5746ZM33.1144 47.1788C33.7589 47.7403 33.7562 47.8217 32.9129 49.4949C31.5376 52.2034 31.6767 54.2502 33.7276 61.1222C34.7752 64.5184 35.8478 68.4055 36.1782 69.6862C36.687 71.8325 38.3316 74.727 41.1879 78.5774C42.1805 79.89 42.2911 80.3034 41.9952 81.7173C41.7998 82.6055 41.5271 83.3269 41.4029 83.3209C41.2374 83.3129 40.6024 82.4663 40.0155 81.418C39.3859 80.4085 37.9557 78.5444 36.8362 77.3073C35.115 75.4699 34.6095 74.4664 33.8646 71.9416C32.5308 67.1851 31.5518 65.4651 27.173 60.0317C21.5587 53.1108 20.4976 50.1219 23.1857 49.0679C23.7746 48.8106 25.1058 48.6706 26.1818 48.7224C27.7545 48.798 28.2579 48.6182 29.2024 47.6435C30.4046 46.3957 31.9441 46.2249 33.1144 47.1788ZM50.9125 56.685C56.3788 65.5573 57.4067 68.2998 59.2792 79.2842C60.7005 87.6356 62.2121 92.0334 65.8907 98.5756C66.4375 99.5812 66.4972 100.278 66.24 101.775C66.0392 102.826 65.7624 103.67 65.5968 103.662C65.4313 103.654 65.0113 102.573 64.6823 101.251C64.3519 99.9705 62.8077 96.5504 61.2459 93.6599C57.4608 86.5821 56.4533 83.2286 54.8916 72.8712C53.8461 65.6803 52.1147 60.4151 48.6057 53.7587C47.0053 50.7847 48.1994 52.2702 50.9125 56.685ZM21.8091 54.3061C22.5839 55.9347 24.5277 58.558 27.5604 62.0905C28.7986 63.4965 30.2247 65.4828 30.8115 66.5311C31.7091 68.2064 33.5206 73.5571 33.2228 73.7876C33.18 73.8264 32.1298 73.0006 30.9221 71.9225C28.0237 69.3349 25.9055 68.2129 20.5355 66.4042C14.2231 64.2645 12.3885 64.5843 11.1944 68.0767L10.6007 69.7211L9.62442 67.9196L8.60674 66.1161L9.74793 64.2125C10.5791 62.9059 10.9495 61.7405 10.9943 60.3961C11.0757 57.9518 11.7712 55.7411 12.7624 54.6055C13.7523 53.5106 16.3882 52.7805 18.9969 52.8652C21.0248 52.9627 21.1876 53.0521 21.8091 54.3061ZM10.0071 61.4095C9.81987 62.0534 9.19838 63.2884 8.54773 64.1547C7.50424 65.6143 7.45742 65.7752 8.04157 66.905C9.67529 70.1254 9.68615 69.7995 7.98048 71.2272C6.27345 72.6956 6.03123 73.7449 6.90982 75.9905C7.40442 77.32 7.24428 79.638 6.66487 79.6102C6.12685 79.5843 3.80652 77.0653 3.82552 76.495C3.83502 76.2098 4.16273 75.0831 4.61323 74.0031C5.29511 72.1997 5.30325 71.9553 4.66754 69.8846C4.03319 67.7731 4.03862 67.6102 4.80463 65.7701C5.48242 64.0889 9.17873 60.1456 10.0065 60.1854C10.172 60.1934 10.1544 60.7229 10.0071 61.4095ZM70.862 72.5375C72.0248 74.96 73.9883 78.2371 75.2183 79.8875C78.7165 84.3809 82.5246 90.7661 82.4839 91.9882C82.4636 92.5993 77.9518 88.6693 75.0297 85.5501C71.4284 81.6638 70.0973 79.3149 68.9982 74.9777C68.159 71.5507 66.4805 67.1856 65.6745 66.494C65.3515 66.2337 65.1168 65.8143 65.1236 65.6106C65.1304 65.407 65.9431 65.8949 66.9534 66.6779C68.448 67.8515 69.1991 68.9485 70.862 72.5375ZM59.0452 70.1331C58.9156 70.2901 59.4475 71.7438 60.305 73.3763C62.3669 77.4334 62.9252 79.3372 63.5046 84.343C63.7984 86.7237 64.5012 90.5114 65.0888 92.7838C65.6349 95.0542 66.0691 96.9521 65.9836 97.0296C65.8126 97.1845 62.7874 89.6945 61.8837 86.9581C61.5079 85.7975 60.7623 82.0486 60.1727 78.5927C59.6232 75.1797 58.9413 72.005 58.708 71.545C58.2052 70.4599 58.2256 69.8489 58.8464 69.8787C59.0947 69.8907 59.2148 70.0188 59.0452 70.1331ZM82.1923 83.324C85.9502 88.7275 86.1436 89.1448 86.3539 92.7864L86.5031 95.7722L85.134 94.5639C84.3694 93.8742 83.7343 93.0276 83.7452 92.7017C83.6862 90.7404 80.3957 84.9921 75.9477 79.1474C73.8452 76.3124 72.0059 73.0414 71.2555 70.6795C70.9197 69.5617 79.5802 79.6077 82.1923 83.324ZM26.744 80.3718C27.8506 80.7514 30.097 81.7571 31.7253 82.6515C33.355 83.5051 34.8646 84.2306 35.0715 84.2405C35.3198 84.2525 35.4799 84.4234 35.4718 84.6678C35.465 84.8715 35.2927 85.0672 35.0857 85.0573C34.9202 85.0493 32.933 86.2186 30.7693 87.7059C26.3606 90.6357 24.1359 91.4672 20.9492 91.3139C18.3832 91.1905 13.252 89.6789 10.9323 88.384C9.30404 87.4897 4.84859 83.1135 4.87031 82.4617C4.8866 81.9728 7.5333 80.9168 10.9636 79.9801C13.3898 79.3215 14.8024 79.2262 19.3149 79.4024C22.9155 79.5756 25.3919 79.8987 26.744 80.3718ZM109.99 93.8007C110.979 97.6838 111.087 100.668 110.241 102.422C109.931 103.019 108.964 104.687 108.087 106.113C107.169 107.538 105.875 110.291 105.228 112.3C104.582 114.269 103.465 116.704 102.768 117.69C101.12 119.896 97.8591 123.208 98.2227 122.246C98.3605 121.844 98.8178 120.561 99.1882 119.395C99.6001 118.232 100.89 115.601 102.119 113.538C106.514 106.038 106.468 106.199 107.265 99.6677C107.665 96.3819 108.009 92.2773 108.023 90.6051C107.997 87.666 108 87.5845 108.536 88.916C108.842 89.6652 109.474 91.8581 109.99 93.8007ZM106.467 97.5075C106.05 101.323 105.51 105.092 105.193 105.892C104.917 106.695 103.507 109.198 102.063 111.495C99.7405 115.26 96.8156 122.178 96.7545 124.011C96.7423 124.378 96.5204 124.816 96.2681 124.926C95.4641 125.418 96.551 120.166 97.8985 117.048C99.1068 114.372 99.2113 113.725 99.0885 111.189C98.5967 102.311 98.4386 103.324 100.42 99.8282C102.139 96.769 106.532 90.5742 106.989 90.5553C107.113 90.5613 106.884 93.6921 106.467 97.5075ZM47.9188 104.24C49.0667 104.621 52.8641 106.355 56.4117 108.117C59.9608 109.838 63.2656 111.425 63.8409 111.575C65.8112 112.159 64.7188 112.596 61.6563 112.449C58.1384 112.28 49.8218 110.574 47.0387 109.502C44.4212 108.438 36.9229 104.568 36.8923 104.24C36.8862 103.179 44.846 103.154 47.9188 104.24ZM39.4983 106.895C44.0108 109.56 48.0619 111.142 53.0011 112.196C59.2165 113.515 62.0667 113.815 64.3606 113.395C65.6117 113.17 67.1043 113.16 68.0094 113.367L69.5298 113.766L67.774 114.212C63.3863 115.266 54.472 115.327 48.7878 114.238C45.903 113.732 31.816 109.79 27.1 108.257C25.0924 107.549 24.9445 107.011 26.8069 107.101C27.3877 107.088 29.4774 106.576 31.4483 105.896C33.4193 105.215 35.1779 104.688 35.3861 104.657C35.5931 104.667 37.467 105.655 39.4983 106.895ZM68.5643 124.084C71.6594 125.742 76.9792 131.547 80.282 136.929C81.7773 139.327 82.9123 141.34 82.8269 141.417C82.3153 141.841 76.4093 136.212 72.8616 131.961C70.5094 129.155 67.4699 125.826 66.0621 124.535C63.5267 122.25 63.5281 122.209 64.8857 122.519C65.6666 122.72 67.3431 123.413 68.5643 124.084ZM72.0549 132.535C75.7532 137.242 78.3687 139.612 82.7556 142.311C86.4939 144.572 86.1988 144.721 81.7874 142.755C77.1318 140.654 71.7428 136.926 69.4734 134.124C67.7589 132.083 65.4447 128.136 65.0783 126.691C64.9691 126.237 64.7452 125.491 64.5532 125.033C63.984 123.455 68.3567 127.828 72.0549 132.535ZM71.4965 145.565C72.0345 145.591 72.3188 145.767 72.1865 146.006C72.0555 146.204 71.4693 146.379 70.8899 146.352C69.1931 146.27 65.3353 147.594 62.5882 149.176C57.516 152.114 54.68 152.631 49.6994 151.575L48.1348 151.255L51.2103 149.771C55.5091 147.652 61.8826 145.47 64.338 145.18C65.4608 145.07 67.3673 145.08 68.4807 145.256C69.6368 145.394 70.9584 145.539 71.4965 145.565ZM74.652 149.144C68.6197 154.77 65.3787 156.247 60.6355 155.529C58.2019 155.167 53.4859 153.634 53.4994 153.227C53.5049 153.064 54.5049 152.908 55.7492 152.886C57.5757 152.811 58.7908 152.421 61.9999 150.657C67.3592 147.814 70.9164 146.802 76.5999 146.667C77.0565 146.648 76.2789 147.59 74.652 149.144Z" fill="#677EA4" fill-opacity="0.8"/>
<path d="M89.12 4.78482C85.7378 5.51984 82.6732 6.67816 80.8488 7.93692C79.6615 8.73668 79.4104 8.80622 79.2211 8.26668C79.1092 7.89406 78.7462 7.59099 78.4565 7.57706C77.3391 7.52332 76.5296 23.112 77.3634 29.1909C78.1931 35.3921 79.9496 38.6592 85.9526 45.1091L88.9521 48.3952L88.1915 52.5614C86.2069 63.6051 85.4836 72.8735 85.8227 82.6009L85.9977 87.3017L85.1748 85.8748C82.6258 81.5087 75.5278 73.0883 70.6198 68.6088C68.3273 66.4992 62.7876 62.3157 62.2496 62.2898C61.5874 62.258 61.9233 63.3758 62.8853 64.3605C64.6893 66.2018 66.167 69.1291 67.6996 74.14C68.5633 76.8337 69.7031 79.9487 70.2459 81.0765C71.5702 83.6292 75.8547 88.1604 81.0205 92.3667C86.4265 96.8294 86.8668 97.2994 86.822 98.6437C86.8003 99.2956 87.3403 102.994 87.9977 106.902C88.6151 110.767 89.6341 117.508 90.1524 121.858C90.7135 126.169 91.2413 130.234 91.3851 130.894C91.5649 131.718 91.0031 131.161 89.5438 128.928C86.9371 125.049 76.1801 113.229 70.5462 108.143C67.5291 105.387 66.4096 104.15 66.6315 103.712C67.5189 101.959 67.3779 98.7287 66.118 92.9965C65.4389 89.7404 64.7055 85.6248 64.5169 83.8204C64.2869 82.014 63.833 79.4624 63.4198 78.1777C62.6376 75.5286 56.5959 64.0173 52.7423 57.7523C50.2653 53.7161 46.1904 49.1134 45.8722 49.9549C45.7386 50.2341 46.3519 51.7325 47.2122 53.2836C51.156 60.573 52.6262 64.9688 53.8847 73.2308C55.0116 80.4663 54.9743 80.3421 56.2389 84.6872C56.8346 86.7152 58.1372 89.9197 59.1122 91.7619C61.8837 96.914 64.2732 102.333 63.8926 102.56C63.6815 102.672 63.4359 102.579 63.3172 102.41C63.1998 102.2 61.3422 100.723 59.1562 99.1494C56.9702 97.5754 53.5779 94.8824 51.5629 93.1534C49.5879 91.4671 46.7614 89.2094 45.3041 88.1601C43.8481 87.07 41.9477 85.6321 41.0589 84.9365C39.6871 83.8096 39.2359 83.6655 38.149 83.9397C37.0635 84.1731 36.2025 83.8869 32.1263 81.8139C29.5183 80.4644 26.4123 79.1317 25.2602 78.8723C20.4479 77.7432 12.3545 78.0476 9.11345 79.5239L7.80876 80.114L8.14597 78.7021C8.34409 77.7324 8.25522 76.6672 7.83525 75.5861C7.11542 73.5522 7.38545 72.9123 9.76281 71.2313C10.6977 70.5418 11.7331 69.3267 12.1795 68.3689C13.0765 66.3311 13.4584 66.0638 15.3622 66.1554C17.1832 66.243 23.497 68.3419 26.2265 69.7789C29.2429 71.3113 36.1191 77.6808 38.7325 81.3563C40.0012 83.0903 41.1967 84.5351 41.3622 84.543C42.9349 84.6187 44.1643 77.5781 44.2777 67.954L44.328 61.4687L41.929 56.3346C39.3725 50.948 38.7368 48.8773 38.821 46.3516C38.8834 44.4776 38.3467 44.411 36.2218 45.9818L34.6484 47.171L33.2698 46.2478C31.4054 44.9749 30.7405 45.0245 28.8224 46.6052C27.4173 47.7209 26.8298 47.9375 25.2571 47.8618C22.6084 47.7345 20.9136 48.8362 20.8498 50.7509L20.8036 52.136L18.4032 52.0206C14.2232 51.8195 11.0473 53.8294 10.398 57.144C10.149 58.3969 9.5424 59.1838 7.41065 60.9582C4.25305 63.6626 3.10371 65.8107 3.46938 68.5213C3.7645 70.8612 3.68985 73.1018 3.23322 75.6096C2.87837 77.5511 2.91433 77.7161 4.16338 78.7962C4.84659 79.4411 5.61664 79.9678 5.82357 79.9777C6.73407 80.0215 6.04882 80.6822 4.70817 81.1074C3.91232 81.3547 3.23657 81.7303 3.22978 81.9339C3.20128 82.7894 9.10049 88.6224 10.9344 89.5674C13.9922 91.1018 17.3214 91.9555 20.922 92.1287C24.9365 92.3218 26.8661 91.6393 31.6181 88.3588C34.8863 86.0677 37.5811 84.81 38.9482 84.835C39.3621 84.8549 40.5392 85.6051 41.5854 86.5531C42.5916 87.4584 44.2477 88.7621 45.262 89.4229C46.2763 90.0838 49.1028 92.3415 51.5208 94.4163C53.9802 96.4931 57.7782 99.4504 60.0056 101.026C64.0574 103.833 71.3169 109.894 73.0328 111.894L73.9507 112.959L72.5768 113.137C70.287 113.435 67.3811 112.316 56.1614 106.921C44.0861 101.077 43.0929 101.029 29.8092 105.327C28.3002 105.826 26.0464 106.289 24.7994 106.392C22.3053 106.599 21.9702 106.705 22.5319 107.262C23.1337 107.863 29.1537 110.07 33.7537 111.352C36.1351 112.038 39.543 113.018 41.3505 113.513C51.7812 116.462 62.9209 116.794 71.5829 114.355L74.5125 113.516L80.238 119.586C85.9649 125.614 90.3769 131.294 91.8037 134.504C92.2291 135.423 92.9448 137.579 93.3858 139.273C93.8268 140.967 94.7665 143.868 95.4931 145.699C96.9022 149.439 96.9423 149.481 96.2577 148.877C95.9748 148.66 94.5493 147.897 93.1612 147.259C91.733 146.579 89.2492 145.235 87.6236 144.259C85.0651 142.667 84.5447 142.112 82.9748 139.466C76.4697 128.177 69.7591 121.815 63.965 121.537C62.5992 121.471 62.3882 121.583 62.6176 122.166C62.7695 122.581 63.296 124.198 63.7825 125.771C65.4698 131.116 68.4007 135.215 73.3331 138.961C76.1209 141.136 81.13 143.825 83.5141 144.429L85.0759 144.83L84.0223 145.351C82.3784 146.17 76.3319 146.001 72.9226 145.062C69.2664 144.07 65.4588 143.887 62.2877 144.51C59.7828 145.042 45.7453 150.814 45.6862 151.342C45.6808 151.505 46.746 151.882 48.0622 152.19C49.3371 152.496 51.5889 153.339 53.0571 154.063C56.4833 155.737 58.7019 156.333 62.3425 156.549C66.4398 156.746 68.7554 155.674 74.0943 150.953C78.024 147.47 78.5315 147.168 80.4434 147.015C81.6076 146.908 83.3621 146.503 84.369 146.143C85.3758 145.783 86.5055 145.47 86.8779 145.488C87.2491 145.547 89.6997 146.644 92.3504 147.955L97.1634 150.308L99.5333 155.074C103.494 163.098 109.779 173.52 110.731 173.565C111.435 173.599 111.396 173.516 108.715 169.388C102.803 160.209 97.0284 148.139 94.5711 139.779C93.2305 135.226 93.1253 134.65 93.6905 133.861C94.0379 133.388 95.0671 131.111 95.9295 128.868C97.3787 125.184 97.8611 124.391 100.175 122.136C103.518 118.828 104.744 116.888 106.077 112.953C106.632 111.225 108.102 108.154 109.29 106.09C111.924 101.687 112.309 100.073 111.649 96.247C111.089 93.1599 109.131 87.2309 108.222 85.8815C107.549 84.9514 107.416 85.1899 106.873 87.8159C106.675 88.7857 105.358 90.9665 103.406 93.5657C97.6801 101.206 97.1787 102.569 97.9671 108.768C98.4922 112.915 98.4908 112.956 97.5016 115.275C95.5713 119.711 95.0441 121.848 95.1893 124.956C95.2775 127.286 95.1167 128.38 94.4402 130.02C93.9456 131.18 93.4497 132.38 93.3146 132.7C93.221 133.022 93.0087 133.175 92.93 133.049C92.6484 132.79 91.5324 125.229 91.0582 120.8C90.8736 118.873 90.1633 114.065 89.5487 110.118C87.9971 100.7 87.7033 98.3189 87.2759 91.2394C86.3703 77.3636 86.9084 64.9446 88.9663 54.1899C89.3266 52.0855 89.7723 49.9036 89.8314 49.376C89.9827 48.5672 90.4488 48.2632 92.1232 47.7725C93.2943 47.4616 96.0264 46.328 98.1738 45.3296C100.364 44.2925 103.391 43.01 104.983 42.5153C108.715 41.2258 111.401 38.9884 113.768 35.1444C114.821 33.3997 116.996 30.3216 118.598 28.2769C121.8 24.2282 121.935 23.9083 121.496 22.1734C121.205 20.9353 118.468 18.4779 117.309 18.4222C116.896 18.4023 115.782 17.0022 114.681 15.1948C111.221 9.56077 106.61 6.11558 103.031 6.55549C100.326 6.87423 99.4191 6.70823 96.9739 5.44816C94.3659 4.09865 92.8359 3.98425 89.12 4.78482ZM97.2229 6.68422C99.1796 7.67598 99.7563 7.78533 102.248 7.66032C104.738 7.57605 105.273 7.68339 107.064 8.6672C109.261 9.91533 112.066 12.8248 114.035 15.9389C115.175 17.7891 115.248 18.0783 114.72 18.9914L114.15 19.9432L113.36 18.7627C112.925 18.1298 111.73 16.685 110.688 15.6148C107.561 12.4042 104.143 11.7501 100.802 13.7113C99.2372 14.6561 98.6679 15.5672 97.7771 18.6662L97.2194 20.4755L96.585 18.364C95.7641 15.6315 93.4187 12.6217 91.2632 11.3756C89.065 10.1682 85.8796 9.97419 83.528 10.8812L81.764 11.5716L81.0116 10.5153C80.1391 9.33089 80.3114 9.13517 83.8476 7.5099C89.0664 5.14947 93.7607 4.84479 97.2229 6.68422ZM80.7104 12.0922C82.3427 15.3533 82.5673 17.3227 81.7381 22.3016C80.6559 28.6556 81.3642 32.2803 84.7151 37.4603C86.0944 39.6075 87.5959 43.0664 87.9887 44.9622L88.2377 46.1983L86.954 44.9125C84.8684 42.8128 80.6661 37.0615 79.8981 35.2292C78.1286 31.1046 77.5513 24.7932 78.217 16.0118C78.7964 8.57267 78.8833 8.45444 80.7104 12.0922ZM90.8181 12.2926C95.3801 14.7154 97.4324 21.5466 96.1541 30.0538C95.3487 35.5643 94.4715 38.2559 92.1782 42.3891C89.9277 46.4836 88.9378 47.5785 88.9921 45.949C89.0518 44.1565 87.6827 40.4592 85.6019 36.9725C82.7782 32.1443 81.9254 29.1247 82.3813 25.3927C83.3672 16.9531 83.3794 16.5865 82.8265 14.5197C82.532 13.4039 82.3136 12.4957 82.3563 12.457C82.3977 12.4589 83.1121 12.1669 83.9107 11.8381C85.9698 10.9986 88.7 11.1707 90.8181 12.2926ZM109.035 15.4537C110.69 16.7982 111.528 17.7769 112.667 19.6678L113.451 21.0113L112.131 24.5385C110.489 29.0294 109.441 30.6519 107.018 32.4532C105.956 33.2182 102.737 36.5316 99.8924 39.7815C95.6682 44.6379 94.3846 45.8411 92.7875 46.4987C91.6951 46.9358 90.6883 47.2954 90.5227 47.2875C90.3558 47.3202 90.7968 46.5254 91.533 45.5815C95.0481 40.8542 96.7627 35.4282 97.3598 27.4595C97.9976 18.2687 99.7447 14.3541 103.454 13.7572C105.62 13.4533 107.097 13.8916 109.035 15.4537ZM118.58 20.1154C119.797 20.9084 120.864 22.4694 120.831 23.4471C120.825 23.6508 119.435 25.5426 117.748 27.6648C116.1 29.8297 113.971 32.7875 113.09 34.3365C110.934 38.0683 108.673 39.9997 105.106 41.2971C103.469 41.912 100.948 42.9333 99.4765 43.5561L96.8243 44.7751L98.2898 43.0911C99.1074 42.1919 101.175 39.8432 102.856 37.9246C104.538 35.9654 106.896 33.6306 108.128 32.7106C110.47 30.8646 112.048 28.2883 113.567 23.7506C115.136 18.9705 115.901 18.3953 118.58 20.1154ZM37.9512 47.5746C37.8887 49.4486 39.0123 53.0525 40.4207 55.5684C43.3951 60.8526 43.7703 63.278 43.0992 72.2224L42.5896 78.808L40.77 76.1907C38.0365 72.387 37.3404 70.8846 36.7026 67.6305C36.3845 65.9831 35.4557 62.7558 34.6626 60.4327C32.8525 55.0412 32.6808 53.9721 33.303 51.4722C33.6856 49.9401 34.2549 49.029 35.4945 47.9053C37.4607 46.1229 38.0028 46.0266 37.9512 47.5746ZM33.1144 47.1788C33.7589 47.7403 33.7562 47.8217 32.9129 49.4949C31.5376 52.2034 31.6767 54.2502 33.7276 61.1222C34.7752 64.5184 35.8478 68.4055 36.1782 69.6862C36.687 71.8325 38.3316 74.727 41.1879 78.5774C42.1805 79.89 42.2911 80.3034 41.9952 81.7173C41.7998 82.6055 41.5271 83.3269 41.4029 83.3209C41.2374 83.3129 40.6024 82.4663 40.0155 81.418C39.3859 80.4085 37.9557 78.5444 36.8362 77.3073C35.115 75.4699 34.6095 74.4664 33.8646 71.9416C32.5308 67.1851 31.5518 65.4651 27.173 60.0317C21.5587 53.1108 20.4976 50.1219 23.1857 49.0679C23.7746 48.8106 25.1058 48.6706 26.1818 48.7224C27.7545 48.798 28.2579 48.6182 29.2024 47.6435C30.4046 46.3957 31.9441 46.2249 33.1144 47.1788ZM50.9125 56.685C56.3788 65.5573 57.4067 68.2998 59.2792 79.2842C60.7005 87.6356 62.2121 92.0334 65.8907 98.5756C66.4375 99.5812 66.4972 100.278 66.24 101.775C66.0392 102.826 65.7624 103.67 65.5968 103.662C65.4313 103.654 65.0113 102.573 64.6823 101.251C64.3519 99.9705 62.8077 96.5504 61.2459 93.6599C57.4608 86.5821 56.4533 83.2286 54.8916 72.8712C53.8461 65.6803 52.1147 60.4151 48.6057 53.7587C47.0053 50.7847 48.1994 52.2702 50.9125 56.685ZM21.8091 54.3061C22.5839 55.9347 24.5277 58.558 27.5604 62.0905C28.7986 63.4965 30.2247 65.4828 30.8115 66.5311C31.7091 68.2064 33.5206 73.5571 33.2228 73.7876C33.18 73.8264 32.1298 73.0006 30.9221 71.9225C28.0237 69.3349 25.9055 68.2129 20.5355 66.4042C14.2231 64.2645 12.3885 64.5843 11.1944 68.0767L10.6007 69.7211L9.62442 67.9196L8.60674 66.1161L9.74793 64.2125C10.5791 62.9059 10.9495 61.7405 10.9943 60.3961C11.0757 57.9518 11.7712 55.7411 12.7624 54.6055C13.7523 53.5106 16.3882 52.7805 18.9969 52.8652C21.0248 52.9627 21.1876 53.0521 21.8091 54.3061ZM10.0071 61.4095C9.81987 62.0534 9.19838 63.2884 8.54773 64.1547C7.50424 65.6143 7.45742 65.7752 8.04157 66.905C9.67529 70.1254 9.68615 69.7995 7.98048 71.2272C6.27345 72.6956 6.03123 73.7449 6.90982 75.9905C7.40442 77.32 7.24428 79.638 6.66487 79.6102C6.12685 79.5843 3.80652 77.0653 3.82552 76.495C3.83502 76.2098 4.16273 75.0831 4.61323 74.0031C5.29511 72.1997 5.30325 71.9553 4.66754 69.8846C4.03319 67.7731 4.03862 67.6102 4.80463 65.7701C5.48242 64.0889 9.17873 60.1456 10.0065 60.1854C10.172 60.1934 10.1544 60.7229 10.0071 61.4095ZM70.862 72.5375C72.0248 74.96 73.9883 78.2371 75.2183 79.8875C78.7165 84.3809 82.5246 90.7661 82.4839 91.9882C82.4636 92.5993 77.9518 88.6693 75.0297 85.5501C71.4284 81.6638 70.0973 79.3149 68.9982 74.9777C68.159 71.5507 66.4805 67.1856 65.6745 66.494C65.3515 66.2337 65.1168 65.8143 65.1236 65.6106C65.1304 65.407 65.9431 65.8949 66.9534 66.6779C68.448 67.8515 69.1991 68.9485 70.862 72.5375ZM59.0452 70.1331C58.9156 70.2901 59.4475 71.7438 60.305 73.3763C62.3669 77.4334 62.9252 79.3372 63.5046 84.343C63.7984 86.7237 64.5012 90.5114 65.0888 92.7838C65.6349 95.0542 66.0691 96.9521 65.9836 97.0296C65.8126 97.1845 62.7874 89.6945 61.8837 86.9581C61.5079 85.7975 60.7623 82.0486 60.1727 78.5927C59.6232 75.1797 58.9413 72.005 58.708 71.545C58.2052 70.4599 58.2256 69.8489 58.8464 69.8787C59.0947 69.8907 59.2148 70.0188 59.0452 70.1331ZM82.1923 83.324C85.9502 88.7275 86.1436 89.1448 86.3539 92.7864L86.5031 95.7722L85.134 94.5639C84.3694 93.8742 83.7343 93.0276 83.7452 92.7017C83.6862 90.7404 80.3957 84.9921 75.9477 79.1474C73.8452 76.3124 72.0059 73.0414 71.2555 70.6795C70.9197 69.5617 79.5802 79.6077 82.1923 83.324ZM26.744 80.3718C27.8506 80.7514 30.097 81.7571 31.7253 82.6515C33.355 83.5051 34.8646 84.2306 35.0715 84.2405C35.3198 84.2525 35.4799 84.4234 35.4718 84.6678C35.465 84.8715 35.2927 85.0672 35.0857 85.0573C34.9202 85.0493 32.933 86.2186 30.7693 87.7059C26.3606 90.6357 24.1359 91.4672 20.9492 91.3139C18.3832 91.1905 13.252 89.6789 10.9323 88.384C9.30404 87.4897 4.84859 83.1135 4.87031 82.4617C4.8866 81.9728 7.5333 80.9168 10.9636 79.9801C13.3898 79.3215 14.8024 79.2262 19.3149 79.4024C22.9155 79.5756 25.3919 79.8987 26.744 80.3718ZM109.99 93.8007C110.979 97.6838 111.087 100.668 110.241 102.422C109.931 103.019 108.964 104.687 108.087 106.113C107.169 107.538 105.875 110.291 105.228 112.3C104.582 114.269 103.465 116.704 102.768 117.69C101.12 119.896 97.8591 123.208 98.2227 122.246C98.3605 121.844 98.8178 120.561 99.1882 119.395C99.6001 118.232 100.89 115.601 102.119 113.538C106.514 106.038 106.468 106.199 107.265 99.6677C107.665 96.3819 108.009 92.2773 108.023 90.6051C107.997 87.666 108 87.5845 108.536 88.916C108.842 89.6652 109.474 91.8581 109.99 93.8007ZM106.467 97.5075C106.05 101.323 105.51 105.092 105.193 105.892C104.917 106.695 103.507 109.198 102.063 111.495C99.7405 115.26 96.8156 122.178 96.7545 124.011C96.7423 124.378 96.5204 124.816 96.2681 124.926C95.4641 125.418 96.551 120.166 97.8985 117.048C99.1068 114.372 99.2113 113.725 99.0885 111.189C98.5967 102.311 98.4386 103.324 100.42 99.8282C102.139 96.769 106.532 90.5742 106.989 90.5553C107.113 90.5613 106.884 93.6921 106.467 97.5075ZM47.9188 104.24C49.0667 104.621 52.8641 106.355 56.4117 108.117C59.9608 109.838 63.2656 111.425 63.8409 111.575C65.8112 112.159 64.7188 112.596 61.6563 112.449C58.1384 112.28 49.8218 110.574 47.0387 109.502C44.4212 108.438 36.9229 104.568 36.8923 104.24C36.8862 103.179 44.846 103.154 47.9188 104.24ZM39.4983 106.895C44.0108 109.56 48.0619 111.142 53.0011 112.196C59.2165 113.515 62.0667 113.815 64.3606 113.395C65.6117 113.17 67.1043 113.16 68.0094 113.367L69.5298 113.766L67.774 114.212C63.3863 115.266 54.472 115.327 48.7878 114.238C45.903 113.732 31.816 109.79 27.1 108.257C25.0924 107.549 24.9445 107.011 26.8069 107.101C27.3877 107.088 29.4774 106.576 31.4483 105.896C33.4193 105.215 35.1779 104.688 35.3861 104.657C35.5931 104.667 37.467 105.655 39.4983 106.895ZM68.5643 124.084C71.6594 125.742 76.9792 131.547 80.282 136.929C81.7773 139.327 82.9123 141.34 82.8269 141.417C82.3153 141.841 76.4093 136.212 72.8616 131.961C70.5094 129.155 67.4699 125.826 66.0621 124.535C63.5267 122.25 63.5281 122.209 64.8857 122.519C65.6666 122.72 67.3431 123.413 68.5643 124.084ZM72.0549 132.535C75.7532 137.242 78.3687 139.612 82.7556 142.311C86.4939 144.572 86.1988 144.721 81.7874 142.755C77.1318 140.654 71.7428 136.926 69.4734 134.124C67.7589 132.083 65.4447 128.136 65.0783 126.691C64.9691 126.237 64.7452 125.491 64.5532 125.033C63.984 123.455 68.3567 127.828 72.0549 132.535ZM71.4965 145.565C72.0345 145.591 72.3188 145.767 72.1865 146.006C72.0555 146.204 71.4693 146.379 70.8899 146.352C69.1931 146.27 65.3353 147.594 62.5882 149.176C57.516 152.114 54.68 152.631 49.6994 151.575L48.1348 151.255L51.2103 149.771C55.5091 147.652 61.8826 145.47 64.338 145.18C65.4608 145.07 67.3673 145.08 68.4807 145.256C69.6368 145.394 70.9584 145.539 71.4965 145.565ZM74.652 149.144C68.6197 154.77 65.3787 156.247 60.6355 155.529C58.2019 155.167 53.4859 153.634 53.4994 153.227C53.5049 153.064 54.5049 152.908 55.7492 152.886C57.5757 152.811 58.7908 152.421 61.9999 150.657C67.3592 147.814 70.9164 146.802 76.5999 146.667C77.0565 146.648 76.2789 147.59 74.652 149.144Z" stroke="#677EA4" stroke-opacity="0.8" stroke-width="0.4" mask="url(#path-1-outside-1_91_22575)"/>
</svg>
