<svg width="166" height="260" viewBox="0 0 166 260" fill="none" xmlns="http://www.w3.org/2000/svg">
<path d="M132.283 0.246104C127.672 0.765538 124.537 2.26613 120.91 5.72902C116.852 9.53821 114.824 13.636 112.303 23.0435C111.197 27.3144 110.028 31.1813 109.721 31.643C109.045 32.7396 97.2414 43.186 97.2414 42.6666C97.2414 42.4357 96.3192 43.4169 95.2741 44.8598C94.1675 46.3026 91.5855 49.6501 89.5568 52.2473C87.5896 54.9022 84.7002 58.9999 83.2247 61.424C81.7493 63.7903 80.7042 65.1177 80.8886 64.3097C81.1345 63.5017 81.5649 60.6737 81.9337 57.9611C82.8559 51.093 83.9625 47.7455 86.8518 43.4746C90.9093 37.3568 91.8929 34.9328 92.2003 30.2002C92.4462 26.2178 92.2618 25.4098 90.2945 20.6772C87.4666 14.1554 86.7289 11.0965 87.4666 8.7302C88.1428 6.4216 88.2043 6.59475 87.0977 6.59475C85.6223 6.59475 82.4255 13.2897 81.196 19.0035C79.8435 25.179 79.7821 27.7184 80.7657 41.9163C81.8108 57.153 81.0116 64.0788 77.2615 72.1012C75.7861 75.2755 73.8803 79.8927 73.0196 82.2013L71.4827 86.53L71.4213 81.7396C71.4213 77.5841 71.7286 76.3144 73.6959 71.6395C76.2779 65.4063 76.5238 62.232 74.618 58.7691C73.1426 56.0565 71.1139 54.4404 63.3678 49.7078C60.417 47.9187 57.0358 45.6678 55.7448 44.6289C53.2242 42.4934 50.5193 37.934 50.5193 35.7408C50.5193 34.8751 50.2734 34.3556 49.9045 34.5865C49.5356 34.7596 49.4127 35.5099 49.6586 36.2602C49.843 36.9528 49.4127 39.0883 48.675 40.9929C47.9373 42.8397 46.6462 46.0718 45.8471 48.1495C43.2036 55.0176 44.1257 60.3851 49.0438 66.2143C52.4865 70.3698 58.0194 73.8327 63.7982 75.391C69.6384 77.007 70.0688 77.3533 70.1917 80.7585C70.4376 87.0494 70.8065 86.4722 63.9211 89.8197C60.1711 91.6089 56.298 93.9752 54.3923 95.6489C52.6095 97.2649 51.134 98.3038 51.134 97.9575C51.134 97.2649 53.2857 95.0718 54.2693 94.7832C54.8226 94.61 54.6382 93.802 53.4701 91.9552C50.7652 87.6265 47.5684 85.2025 39.9453 81.6242C31.0312 77.4687 29.064 76.199 27.9574 73.6595C27.4656 72.5629 27.0353 71.7549 26.9123 71.8704C26.8508 71.9858 26.9123 78.3344 27.1582 85.9528C27.5885 101.19 28.0804 103.614 31.9534 108.923C35.3346 113.483 38.7158 115.791 46.2159 118.619C50.1504 120.062 50.2734 120.178 52.548 124.449C54.5767 128.142 54.8226 129.008 54.2079 130.047C53.1628 131.894 51.7488 139.512 51.6873 143.552L51.6258 147.131L50.5193 142.513C46.4003 125.603 33.5518 111.232 18.4286 106.73C12.7112 105.056 11.9735 104.999 5.7644 106.211C1.09219 107.076 -1.85868 108.404 1.3381 108.173C5.33407 107.884 6.07179 108.173 10.0678 111.867C14.74 116.253 17.1375 117.003 21.6253 115.503C28.8181 113.137 31.0312 113.598 35.9493 118.446C42.5273 125.084 47.1995 133.683 49.5971 143.668C51.0726 149.786 53.839 159.482 55.0685 162.714L55.4989 163.868L54.5152 162.714C53.9619 162.079 51.5029 158.847 49.0438 155.499C44.802 149.786 44.4946 149.093 43.1421 143.379C42.3429 140.032 41.4207 136.684 41.1134 135.876C39.4535 132.298 36.1952 128.316 33.7977 126.815C31.3386 125.372 30.6009 125.257 22.2401 124.91C15.4777 124.68 12.9571 124.391 11.7891 123.641C10.9284 123.121 9.63742 122.544 8.8997 122.371C7.6087 121.967 7.6087 122.025 8.40789 123.641C8.8997 124.506 9.57594 127.104 9.9448 129.354C11.4202 139.455 16.6457 147.592 23.7155 150.998C28.7566 153.422 30.9698 153.883 37.9166 153.826C44.0028 153.768 48.0602 154.403 48.0602 155.442C48.0602 155.615 49.5971 157.75 51.4414 160.117C54.7611 164.33 60.5399 174.718 62.8146 180.605C63.4908 182.164 64.29 185.165 64.6588 187.243C65.0277 189.32 65.5195 191.513 65.7039 192.148C65.9498 193.014 65.5195 192.841 63.7367 191.283C62.3842 190.071 60.4784 187.3 59.0645 184.472C55.7448 177.777 52.2406 175.065 45.9085 174.257C40.3142 173.564 36.9944 172.698 36.4412 171.775C36.1338 171.256 35.642 170.967 35.4575 171.198C34.7198 171.89 38.0395 176.623 40.806 178.816C42.2199 179.97 46.1544 182.221 49.5356 183.895C61.0932 189.378 65.2736 192.725 66.5031 197.227C67.4253 200.517 71.6057 212.233 73.2655 216.1C74.0033 217.831 74.4951 219.159 74.3106 218.986C74.1877 218.813 72.8352 217.254 71.2983 215.523C67.5482 211.137 66.5031 210.155 59.2489 204.095C55.6833 201.094 52.6095 198.959 52.2406 199.132C51.8103 199.42 52.0562 199.94 53.0398 200.632C68.2245 211.714 72.8352 216.85 80.6427 231.51C83.6551 237.166 87.4666 243.63 89.065 245.939C93.6757 252.403 99.7619 259.386 100.746 259.386C101.36 259.386 100.991 258.636 99.5775 257.193C92.3847 249.748 80.8886 230.76 75.1713 217.023C72.8967 211.598 72.5893 210.386 72.9582 208.078C73.6344 203.634 74.741 202.075 80.8886 196.246C89.4953 188.166 92.3847 183.433 93.3069 176.046C93.7372 172.468 93.061 163.002 92.3232 163.002C92.0773 163.002 91.2167 164.618 90.479 166.581C89.3109 169.524 88.2043 170.967 84.0239 174.892C81.196 177.489 78.1837 180.778 77.3845 182.164C75.2328 185.569 73.45 192.264 73.0196 198.497C72.7737 201.325 72.4664 204.846 72.2204 206.288L71.8516 208.886L70.0688 203.98C65.8269 192.148 65.2121 183.895 67.8556 175.7C69.6384 170.274 71.1753 167.793 74.9869 164.041C76.8312 162.194 77.9992 160.694 77.5689 160.694C76.2779 160.694 71.7901 165.542 69.6999 169.178C67.4868 173.16 65.8884 178.008 65.8884 180.836C65.8269 185.28 64.7203 181.009 64.167 174.257C63.5523 166.407 64.0441 163.464 67.0564 157.923C69.3311 153.71 71.6672 151.459 73.9418 151.459C74.8639 151.459 77.5074 151.863 79.7206 152.325C84.9461 153.479 88.2658 153.018 92.5692 150.594C96.4422 148.4 99.0857 145.976 101.299 142.629C102.221 141.301 103.512 139.628 104.188 138.935C106.155 136.915 104.987 136.742 102.159 138.704C98.0406 141.532 96.2577 141.821 90.233 140.84C79.4747 139.051 73.6344 141.763 71.1139 149.728C70.868 150.536 70.0073 151.806 69.2696 152.614C67.5482 154.345 64.0441 160.751 64.0441 162.079C64.0441 162.598 63.8596 163.002 63.6137 163.002C63.3064 163.002 63.0605 160.751 62.9375 157.923C62.7531 153.652 62.999 152.267 64.3515 148.574C69.2696 135.645 76.9541 126.122 85.192 122.602C87.4666 121.621 89.1265 120.582 88.942 120.293C88.0199 118.908 80.7042 123.121 76.2779 127.565C70.9909 132.875 66.3802 140.32 63.9826 147.362L62.876 150.594V147.131C62.876 145.226 63.2449 139.743 63.7367 135.011C64.2285 130.22 64.6588 126.18 64.6588 125.949C64.6588 125.776 66.2572 124.737 68.163 123.756C70.0688 122.717 73.2655 120.409 75.1713 118.562C78.1837 115.791 78.9214 114.637 80.028 111.117C80.7657 108.866 81.2575 106.211 81.1345 105.287C80.8886 103.729 81.0116 103.556 82.4255 103.556C83.2862 103.614 85.8067 103.96 88.0199 104.422C93.7372 105.576 95.9504 105.46 99.5775 103.787C103.942 101.767 107.877 97.3804 111.197 90.8586C112.672 87.8574 114.578 84.0482 115.377 82.4899C116.606 80.0659 117.344 79.431 119.68 78.5076C122.57 77.411 126.504 73.6595 125.582 72.7938C125.336 72.5629 122.508 72.9092 119.311 73.5441C116.115 74.2367 111.319 74.9292 108.615 75.0447C89.7412 76.0835 87.2207 77.6996 80.2739 92.8786L79.2288 95.1872L78.3681 92.59C77.0771 88.7231 77.0771 84.7985 78.491 83.3556C80.0894 81.6819 79.1673 81.9128 76.2164 83.9328C74.8639 84.8562 73.45 85.6642 73.1426 85.6642C71.9131 85.6642 77.3845 77.2378 81.196 73.4287C85.6838 68.8692 90.1101 65.9257 94.229 64.8291C96.3192 64.252 96.6266 64.0211 95.52 63.848C92.938 63.444 87.5896 66.3874 82.9174 70.7738C80.4583 73.0824 77.8148 75.7373 77.0771 76.7184C75.4787 78.7384 75.4172 78.9116 78.7984 72.1012C83.901 61.9434 87.9584 57.3839 94.7208 54.2096C99.2701 52.0741 100.131 52.2473 104.311 56.4605C107.815 59.9811 108.184 60.2119 111.442 60.5582C117.283 61.2508 119.803 60.3851 125.889 55.8256C127.918 54.2673 130.5 52.6513 131.545 52.2473C134.681 51.0353 133.328 50.689 127.672 51.2661L122.324 51.7856L117.283 49.3615C108.922 45.3215 104.557 45.4946 99.0242 50.1695C97.7947 51.2084 95.0897 52.8821 92.9995 53.921C90.9093 54.9599 88.5117 56.5759 87.651 57.4993C84.7002 60.8468 86.2986 58.3073 90.9093 52.3627C96.3192 45.4369 105.725 36.3179 108.86 35.0482C111.381 34.0671 112.549 34.2979 118.635 37.0105C123.061 39.0306 123.799 39.146 129.209 39.2037C134.435 39.2037 135.418 39.0306 138.677 37.53C144.394 34.9328 148.144 30.8927 152.57 22.6972C154.722 18.7726 157.242 14.444 158.226 13.0588C159.21 11.7314 159.824 10.6348 159.578 10.6348C158.718 10.6348 156.689 13.3474 154.66 17.0989C153.554 19.1766 152.386 21.0812 152.14 21.1966C151.832 21.3698 150.111 21.2543 148.267 21.0235L144.886 20.5041L148.451 20.6772C153.554 20.9081 152.755 20.1 147.406 19.6383C141.873 19.1766 133.758 20.0423 129.517 21.5429C123.492 23.6784 123.861 23.5629 125.336 22.5241C126.074 22.0046 128.594 20.9081 130.869 20.1C133.144 19.292 135.664 18.2532 136.463 17.7914C137.263 17.272 138.246 16.9834 138.615 17.1566C139.045 17.272 142.672 17.2143 146.73 16.9257L154.107 16.5217L146.423 16.6371C139.291 16.7526 138.922 16.7526 141.443 16.06C142.918 15.5983 144.455 14.9634 144.947 14.6171C145.439 14.2131 145.808 14.2131 145.808 14.5017C145.808 14.9057 146.853 14.9057 148.759 14.6171C150.357 14.3286 152.386 14.2131 153.308 14.3863C154.23 14.6171 155.091 14.444 155.337 14.0977C156.074 12.9434 155.152 12.828 150.972 13.4628C148.759 13.8668 146.791 14.04 146.668 13.9245C146.361 13.636 157.427 10.5194 159.333 10.3462C161.792 10.1154 164.865 9.36507 165.173 8.90335C165.357 8.67249 164.128 8.3262 162.468 8.09534C160.747 7.86448 156.935 6.53703 153.431 4.80558C144.455 0.534678 139.414 -0.561906 132.283 0.246104ZM133.144 4.97873C131.238 9.94222 129.885 12.5394 127.057 16.5794C123.307 22.0046 122.078 23.3321 117.16 26.6218C114.455 28.411 111.934 30.2579 111.504 30.7773C110.766 31.5853 110.705 31.5853 111.135 30.5465C111.381 29.9116 112.365 26.5641 113.287 23.1589C115.07 16.6371 116.791 11.9045 117.529 11.5005C118.082 11.2119 116.668 19.8692 115.5 24.1401L114.516 27.4876L116.115 26.1601C117.897 24.6018 121.279 18.0223 122.754 13.4051C124.045 9.07649 124.844 4.8633 124.291 4.8633C124.045 4.8633 123.615 6.07531 123.369 7.5759C122.877 10.7502 119.742 19.292 118.02 22.1778C117.406 23.2744 117.037 23.6784 117.221 23.0435C117.467 22.4086 117.775 20.3309 117.897 18.4263C118.451 10.3462 118.635 9.4805 120.602 7.1719C122.877 4.4593 126.012 2.5547 129.824 1.63126C134.926 0.303819 134.926 0.303819 133.144 4.97873ZM135.603 2.95871C134.681 5.03644 133.512 6.65246 133.512 5.84445C133.512 5.67131 133.758 4.92101 134.066 4.17072C134.373 3.42043 134.803 2.38156 134.988 1.80441C135.172 1.28497 135.603 0.823253 135.91 0.823253C136.279 0.823253 136.094 1.80441 135.603 2.95871ZM142.488 1.68898C144.517 2.1507 148.82 3.76672 152.017 5.2673C155.214 6.82561 158.779 8.38391 159.947 8.7302C162.038 9.36507 162.038 9.42278 160.255 9.24964C159.271 9.13421 158.042 9.36507 157.55 9.71136C156.812 10.2308 156.751 10.1154 157.058 9.19192C157.488 8.09534 157.427 8.09534 156.628 9.07649C155.89 9.99993 149.804 12.2508 147.037 12.6548C146.545 12.7125 145.132 13.1743 143.963 13.636C135.049 17.3297 127.857 20.1 127.303 19.9846C127.057 19.9269 126.381 20.4463 125.828 21.0235C123.799 23.1589 123.615 22.1778 125.582 19.9269C127.734 17.3874 132.406 10.0576 135.48 4.40158C136.586 2.43927 137.754 0.823253 138.123 0.823253C138.431 0.823253 140.398 1.22726 142.488 1.68898ZM86.36 9.30735C85.5608 10.8079 86.36 15.252 87.8969 17.9646C88.5117 19.0612 88.3888 19.4652 87.0977 20.7926C86.2371 21.6584 84.8846 23.6784 84.0854 25.2944C83.2247 26.9104 82.5485 27.8338 82.487 27.3721C82.487 26.9104 83.1633 25.1212 84.0239 23.4475C84.8231 21.7738 85.3764 20.0423 85.192 19.6383C85.0076 19.1766 85.1305 18.6572 85.4994 18.4263C85.9297 18.2532 85.9912 18.4263 85.8067 18.9457C85.2535 20.3309 86.0526 20.0423 86.8518 18.6572C87.4051 17.676 87.3437 17.5029 86.7289 17.8492C86.1756 18.1955 86.0526 18.0223 86.36 17.3297C86.6059 16.6949 86.5445 16.464 86.1141 16.7526C84.7616 17.5029 82.3026 23.6207 82.2411 26.3333C82.1796 27.9493 81.8723 29.1036 81.5034 29.1036C80.8272 29.1036 80.8272 27.3721 81.5649 22.5241C81.7493 21.2543 82.7329 18.5995 83.7165 16.5794C84.7616 14.5017 85.5608 12.7125 85.4994 12.4817C85.4994 12.2508 84.8231 13.3474 83.9625 14.9634C83.1633 16.5217 82.487 17.4452 82.487 16.9834C82.487 16.5217 83.1018 14.9634 83.8395 13.5205C84.5772 12.0777 85.069 10.6925 85.0076 10.4616C84.8846 9.76907 86.2371 7.5759 86.6059 7.92219C86.7289 8.09534 86.6674 8.7302 86.36 9.30735ZM90.1101 23.1012L91.0937 25.8138L88.6347 28.007C85.9297 30.4887 83.4706 34.7019 82.8559 37.7608L82.487 39.7808L83.3477 37.7031C84.7616 34.1825 86.2371 31.8162 88.5117 29.219C91.0322 26.2755 92.0159 26.6218 91.4011 30.3156C91.0322 32.451 90.6634 33.0282 88.8806 33.8362C86.2371 35.1059 86.1756 34.2402 88.7576 32.3356C89.8642 31.5276 90.6019 30.7196 90.356 30.5465C89.8642 30.0847 86.36 33.4322 85.2535 35.4522C84.7616 36.3179 84.5772 37.1837 84.7616 37.4145C85.0076 37.5877 84.8846 37.7608 84.5157 37.7608C83.901 37.7608 82.1182 43.994 82.61 44.4558C82.7944 44.5712 83.3477 43.2437 83.9625 41.5123C84.6387 39.4346 85.9297 37.4722 87.5281 35.8562C90.233 33.2591 91.0937 33.6053 89.6798 36.7797C88.6347 39.0883 84.5772 44.7443 84.2084 44.398C84.0854 44.2826 83.9625 44.6289 83.901 45.1483C83.8395 45.6678 83.5321 47.0529 83.1633 48.1495L82.5485 50.1695L82.6714 48.1495C82.6714 47.0529 82.5485 45.7832 82.2411 45.3792C81.9952 44.9752 81.8108 43.7055 81.9337 42.4934C81.9952 41.3391 81.8108 39.8963 81.5649 39.3191C80.7042 37.4145 81.6263 31.7585 83.3477 28.2379C85.192 24.4287 87.8969 20.4463 88.6347 20.4463C88.942 20.4463 89.5568 21.6584 90.1101 23.1012ZM139.845 20.8503C139.414 20.9658 138.554 20.9658 138 20.8503C137.385 20.6772 137.754 20.5618 138.738 20.5618C139.783 20.5618 140.213 20.6772 139.845 20.8503ZM142.734 21.0235C142.734 21.3121 144.332 21.6006 146.3 21.6584C148.205 21.6584 150.296 21.8315 150.849 22.0624C151.832 22.4086 151.771 22.6972 150.419 24.8904C148.882 27.3144 148.882 27.3144 146.853 26.5064C143.595 25.2367 134.865 24.3132 130.439 24.8327C128.226 25.0635 126.934 25.3521 127.549 25.4675C128.103 25.6407 128.594 25.9293 128.594 26.2178C128.594 26.5064 128.226 26.6218 127.795 26.4487C127.057 26.2178 123.922 27.1413 117.836 29.3922C116.852 29.7384 116.729 29.6807 117.344 29.1036C117.775 28.6996 119.988 27.7184 122.262 27.0258C124.537 26.2755 125.889 25.6407 125.213 25.6407C123.123 25.6407 119.188 27.199 115.07 29.623C113.594 30.4887 113.594 30.4887 114.393 29.5076C114.885 28.9304 117.16 27.4876 119.496 26.2755C121.77 25.0635 123.553 23.9669 123.43 23.8515C123.307 23.7361 123.922 23.5629 124.783 23.5629C125.705 23.5052 128.226 23.0435 130.439 22.5241C132.652 22.0624 136.033 21.6584 138 21.6006C139.906 21.6006 141.504 21.3121 141.504 21.0235C141.504 20.6772 141.812 20.4463 142.119 20.4463C142.488 20.4463 142.734 20.6772 142.734 21.0235ZM144.271 26.795C145.992 27.199 147.529 27.7184 147.836 27.8916C149.005 28.9304 143.164 34.2979 138.246 36.722C136.217 37.7031 135.726 37.7031 134.865 37.0682C131.976 34.8174 125.521 33.0282 118.758 32.6242L112.918 32.2779L114.332 31.1236C115.07 30.4887 116.361 29.9116 117.098 29.8539C117.836 29.7962 120.418 29.219 122.754 28.5841C127.857 27.199 135.91 27.0836 142.611 28.1801C145.07 28.5841 146.914 28.7573 146.607 28.5264C145.623 27.6607 139.537 26.795 134.435 26.795C131.545 26.795 129.209 26.5641 129.209 26.3333C129.209 25.583 140.705 25.9293 144.271 26.795ZM119.619 33.6631C119.496 33.7785 121.525 34.5865 124.168 35.4522C126.75 36.2602 129.455 37.1837 130.07 37.4722C130.869 37.8185 131.115 37.7608 130.869 37.3568C130.623 37.0105 128.779 36.1448 126.75 35.4522C124.721 34.7596 123.123 34.0671 123.246 33.8939C123.553 33.6053 130.5 35.9717 131.422 36.722C131.853 37.0105 132.406 37.1837 132.652 37.126C133.881 36.9528 134.742 37.2414 134.742 37.8185C134.742 38.2225 134.127 38.338 133.205 38.2225C132.344 38.0494 131.668 38.1648 131.668 38.3957C131.668 39.7808 121.279 37.7608 118.943 35.9139C118.512 35.6254 116.606 34.8751 114.639 34.2402L111.074 33.2013L115.438 33.3168C117.897 33.3745 119.742 33.5476 119.619 33.6631ZM85.9297 36.4911C84.8231 37.4145 84.8231 37.4145 85.5608 36.1448C85.9297 35.3945 86.4215 34.9328 86.6674 35.1059C86.8518 35.3368 86.5445 35.9139 85.9297 36.4911ZM52.3636 43.0706C54.2079 46.5912 54.2079 46.6489 52.6709 45.0906C51.4414 43.8209 50.8881 43.59 50.0889 44.0518C49.4742 44.398 49.3512 44.6866 49.7201 44.6866C51.134 44.6866 55.5603 48.8998 58.4497 53.0553C61.8924 57.8456 62.7531 59.2885 61.0932 57.557C60.417 56.8645 59.7407 56.4028 59.5563 56.5759C59.4333 56.749 57.2202 55.4793 54.6997 53.7479C52.1791 52.0741 49.2283 50.3427 48.1832 49.9387C46.3389 49.1884 46.3389 49.1884 47.1381 47.1106C47.5684 45.8986 48.3676 44.1672 48.9209 43.2437C49.4742 42.2626 49.9045 41.0506 49.9045 40.4734C49.9045 38.7997 50.3963 39.3191 52.3636 43.0706ZM64.3515 51.5547C69.3925 54.4404 73.6959 58.2496 74.4951 60.6159C75.1713 62.4628 75.1098 62.7514 73.327 64.5983C72.2819 65.7526 71.2368 67.3686 71.0524 68.2343C70.8065 69.1 70.3762 70.0812 70.0688 70.4275C69.8229 70.7738 69.6999 71.5241 69.9458 72.0435C70.1302 72.5629 70.0688 72.9669 69.6999 72.9669C69.0851 72.9669 68.286 69.2732 68.2245 66.0411C68.2245 64.5406 68.163 64.3674 67.9171 65.4063C67.6712 66.6183 67.2409 66.0989 65.0892 62.1742C63.6752 59.6348 61.3391 55.6525 59.8637 53.3439C58.4497 51.093 57.4661 48.9575 57.6505 48.6689C57.835 48.3804 57.6505 48.2072 57.2202 48.2649C56.8513 48.3804 55.9292 47.5724 55.2529 46.4758L53.9619 44.5135L57.4046 47.0529C59.3104 48.4381 62.3842 50.5158 64.3515 51.5547ZM115.315 49.5347C119.434 51.3238 119.557 51.901 115.623 51.093C112.242 50.3427 105.11 50.3427 101.852 51.0353C98.9012 51.6701 98.7168 51.5547 100.438 50.1118C101.299 49.3615 101.606 49.3038 101.299 49.881C101.053 50.3427 101.36 50.1695 101.975 49.5347C102.59 48.8421 103.512 48.1495 104.004 47.9187C105.971 47.2261 111.811 48.0341 115.315 49.5347ZM51.0111 52.305C58.9415 56.9799 62.3842 59.8079 64.4744 63.5017C65.581 65.3486 66.3802 67.1954 66.1958 67.5995C66.0728 68.0035 66.1958 68.4652 66.5031 68.6383C66.872 68.8115 67.4253 69.5618 67.7941 70.2543C68.4089 71.2932 68.163 71.2355 66.5646 69.8503C64.6588 68.1189 63.9826 66.7914 65.458 67.5417C65.8269 67.7726 64.9662 66.7337 63.4293 65.2331C60.6014 62.4051 52.7324 58.3651 48.7979 57.6725C47.0151 57.3262 46.7692 57.4416 46.9536 58.3073C47.0766 59.0576 47.9373 59.5194 49.7815 59.8079C54.2693 60.5005 55.007 61.3662 50.8266 61.1354L47.1381 60.9045L50.3963 61.3662C54.7611 62.0588 55.1915 62.636 51.0726 62.2897L47.7528 62.0011L51.134 62.7514C55.8677 63.848 58.8801 65.1754 62.6301 67.7726C65.8269 70.0812 70.0073 75.0447 69.3311 75.7373C68.7778 76.199 61.2162 73.6595 57.5276 71.7549C53.6546 69.7349 48.4291 64.5983 46.8307 61.3085C45.2323 58.0188 45.1093 49.881 46.6462 49.881C46.7692 49.881 48.7364 50.9775 51.0111 52.305ZM118.02 52.709C118.758 53.0553 119.373 53.1707 119.373 52.9399C119.373 52.709 121.586 52.4781 124.291 52.4204L129.209 52.3627L126.812 54.0364L124.414 55.6525L122.016 54.4404C119.68 53.2284 119.68 53.2284 121.217 54.4404C122.078 55.0753 122.939 55.6525 123.246 55.6525C124.475 55.6525 123.369 56.749 120.541 58.1919L117.406 59.7502L114.516 57.2108C112.918 55.8256 111.074 54.3827 110.397 54.0364C109.291 53.4593 102.774 52.1896 102.774 52.4781C102.774 52.5936 103.942 53.2284 105.418 53.8633C106.893 54.5559 109.229 55.9987 110.582 57.0953C113.164 59.1731 115.315 59.9234 113.84 58.2496C113.41 57.7879 112.795 57.557 112.426 57.7879C112.119 57.9611 111.996 57.8456 112.242 57.4993C112.426 57.2108 111.873 56.345 110.951 55.6525C109.967 55.0176 109.783 54.6713 110.459 55.0176C111.135 55.3062 112.795 56.4605 114.147 57.6148L116.606 59.6348L113.656 59.6925C110.889 59.6925 110.459 59.4616 108.123 57.2108C106.709 55.8256 106.278 55.537 107.262 56.5182C108.184 57.4993 108.922 58.4805 108.922 58.7113C108.922 59.7502 106.955 58.1342 104.373 55.0176L101.483 51.5547L109.045 51.7856C113.287 51.901 117.221 52.305 118.02 52.709ZM50.3348 58.8845C50.1504 59.0576 49.5971 59.1154 49.1668 58.9422C48.675 58.7691 48.8594 58.5959 49.5356 58.5959C50.2119 58.5382 50.5807 58.7113 50.3348 58.8845ZM55.3144 60.5005C59.1874 62.3474 64.7818 66.5029 64.3515 67.1954C64.167 67.5417 62.5072 66.676 60.6629 65.4063C58.8186 64.1366 57.0358 63.2131 56.7284 63.444C56.3595 63.6171 55.5603 63.5017 55.007 63.2131C54.1464 62.7514 54.0849 62.636 54.8226 62.5782C55.6218 62.5782 55.6218 62.5205 54.8226 62.0011C54.0234 61.4817 54.0234 61.424 54.8226 61.3662C55.3144 61.3662 54.6382 60.8468 53.2857 60.2119C51.9332 59.6348 51.1955 59.1154 51.6258 59.1154C52.0562 59.1154 53.716 59.7502 55.3144 60.5005ZM74.8025 65.2909C74.4951 65.868 74.3106 66.5029 74.3721 66.7337C74.4951 67.1954 70.8065 76.0258 70.3147 76.4298C69.3311 77.3533 71.1139 70.6006 72.4049 68.6383C73.5115 67.0223 73.5729 66.7337 72.7123 67.7149C70.9294 69.6195 71.1139 68.4652 73.0196 65.868C74.618 63.6748 75.7246 63.3285 74.8025 65.2909ZM123.492 75.1601C122.939 75.7373 121.34 76.8338 119.926 77.5841L117.344 78.9116L118.328 77.5264C119.434 76.0835 123.738 73.3709 124.23 73.8327C124.352 74.0058 124.045 74.583 123.492 75.1601ZM118.881 75.8527C117.836 76.7761 116.545 78.3344 115.992 79.2579C115.192 80.8162 114.885 80.9316 113.471 80.4699C111.197 79.6042 106.094 79.7773 103.696 80.7007C102.528 81.1625 101.545 81.7396 101.545 81.9705C101.545 82.1436 102.037 82.1436 102.651 81.9128C103.205 81.6819 105.233 81.5088 107.078 81.5088C110.459 81.5088 110.459 81.5088 108 80.9893C106.032 80.643 106.401 80.5853 109.783 80.7585C112.119 80.9316 114.147 81.1047 114.27 81.2779C114.393 81.3933 114.086 82.4899 113.533 83.7019L112.61 85.9528L107.815 85.7797C102.221 85.4911 94.4749 86.7608 89.9257 88.6077C85.9297 90.166 86.2371 90.6854 90.233 89.2426C91.8929 88.6077 95.2126 87.7997 97.5487 87.3957C102.098 86.5877 111.012 86.2991 111.688 86.8762C112.242 87.4534 107.508 95.9375 105.418 98.2461L103.696 100.093L100.561 98.6501C98.7783 97.8421 94.7823 96.8609 91.3396 96.3415C87.9584 95.8221 85.0076 95.3026 84.6387 95.1872C83.5321 94.7832 94.352 95.5335 98.1635 96.1684C104.926 97.2072 105.787 97.2649 102.774 96.2838C101.237 95.8221 97.3643 95.1872 94.1675 94.8986L88.3273 94.3792L94.7823 94.61C98.4094 94.7255 102.405 95.2449 103.881 95.7066C105.356 96.2261 106.34 96.3415 106.155 96.0529C105.971 95.7643 104.25 95.0718 102.282 94.5523C96.5036 92.9363 80.6427 94.206 80.6427 96.2261C80.6427 96.7455 81.8723 96.8609 85.1305 96.7455C89.9871 96.5146 98.4709 98.1307 101.237 99.8621L102.836 100.843L100.807 102.113C99.7004 102.806 97.8561 103.614 96.7496 103.844C95.0282 104.191 94.4134 103.96 92.5077 102.402C89.5568 99.9198 86.7289 98.881 83.1018 98.8232C80.3353 98.8232 80.1509 98.7078 79.905 97.1495C79.6591 95.7643 80.028 95.0718 81.8723 93.5712C88.6961 87.9151 95.4585 83.9328 98.3479 83.9328C99.2086 83.9328 99.2701 83.8174 98.4709 83.3556C97.7332 82.9516 97.7947 82.7785 98.7783 82.4322C99.4545 82.1436 100.868 81.3933 101.975 80.7585C103.02 80.0659 105.664 78.9116 107.815 78.219C109.906 77.4687 112.119 76.7184 112.61 76.5453C113.102 76.3721 113.901 76.3144 114.332 76.3721C114.701 76.4298 115.07 76.199 115.07 75.8527C115.07 75.4487 115.438 75.2755 115.807 75.391C116.238 75.5641 117.283 75.3333 118.143 74.8715C120.664 73.6595 120.91 74.0058 118.881 75.8527ZM110.151 75.9681C105.418 77.9304 102.836 79.0847 100.807 80.2967C99.516 81.047 98.4709 81.5088 98.4709 81.3356C98.4709 81.1625 97.5487 81.6242 96.5036 82.3745C95.3971 83.1248 93.1224 84.5099 91.4011 85.3757C89.7412 86.2991 86.7289 88.3191 84.7616 89.8774L81.1345 92.7632L83.4092 88.4923C87.4666 80.9893 89.9257 78.623 95.3356 77.2956C98.6553 76.4876 99.0242 76.7184 97.4873 78.5076C96.6881 79.431 96.5651 79.431 96.8725 78.5653C97.0569 78.0459 97.0569 77.5841 96.934 77.5841C96.6266 77.5841 93.5528 82.4322 93.5528 83.0093C93.5528 83.8751 97.7947 79.7196 98.4709 78.1613C99.1471 76.6607 99.4545 76.5453 102.651 76.4876C104.557 76.4298 107.139 76.199 108.307 75.9104C111.258 75.2178 111.996 75.2178 110.151 75.9681ZM37.7322 81.7396C41.0519 83.0671 41.6052 83.4711 41.3593 84.6254C40.8675 87.5688 41.1134 94.0906 41.7281 95.1295C42.2199 95.9375 42.2814 95.2449 42.0355 92.1283C41.9126 89.9351 41.9126 87.1648 42.1585 86.0105C42.5273 84.1059 42.7118 83.9905 43.9413 84.5676C44.679 84.9717 45.3552 85.3179 45.4782 85.3757C45.5397 85.4334 45.1708 86.3568 44.556 87.3957C43.265 89.8774 42.8962 93.9175 43.6339 96.9186C44.1872 99.0541 44.2487 98.8232 44.3101 94.5523C44.3716 89.5311 45.2323 86.2414 46.5233 86.2414C47.3225 86.2414 50.9496 89.7043 52.6709 92.2437C53.6546 93.6866 53.6546 93.802 52.1177 95.5335C51.0111 96.7455 50.5807 97.7267 50.8266 98.5924C51.134 99.5735 51.0726 99.6312 50.5807 98.9387C50.2119 98.4769 49.9045 98.3038 49.843 98.6501C49.7815 99.7467 49.4127 100.959 48.7979 102.402L48.1217 103.844V102.228C48.0602 100.151 49.2897 97.3804 51.3799 95.0141C52.3021 94.0329 52.7939 93.1672 52.4865 93.1672C51.6258 93.1672 48.9824 96.6301 48.1832 98.881C47.7528 99.9775 47.4454 102.055 47.384 103.498C47.3225 106.095 47.3225 106.095 46.7077 104.422C46.3389 103.44 45.7241 102.286 45.2938 101.824C44.8634 101.363 44.679 100.612 44.8634 100.151C45.0479 99.689 44.8634 99.5158 44.4331 99.7467C44.0642 99.9775 43.5724 99.689 43.3265 99.1118C43.0806 98.5347 42.2199 97.2072 41.4207 96.1684C40.6216 95.1872 40.0683 94.3215 40.3142 94.3215C40.4986 94.3215 40.3756 93.6289 40.0068 92.7055C39.6379 91.8397 38.9617 89.0694 38.5314 86.53L37.7322 81.9128L37.6707 85.2025C37.6092 87.2802 38.101 89.7043 38.8387 91.5512L40.0683 94.61L38.5314 92.8786C37.7322 91.8974 36.7485 90.4546 36.3182 89.5311C35.9493 88.6654 35.3346 87.9728 35.0272 87.9728C34.7198 87.9728 34.6583 87.3957 34.8428 86.7608C35.1501 85.8374 35.0887 85.6642 34.4739 85.9528C33.9206 86.2991 33.7977 86.1259 34.105 85.4911C34.5969 84.3368 33.9821 81.047 33.3059 81.047C32.9985 81.047 32.937 81.6242 33.1214 82.3168C33.3673 83.5865 33.3673 83.6442 32.4452 82.5476C31.2157 81.1625 31.2157 81.5665 32.3222 83.6442C32.814 84.4522 33.3059 84.8562 33.4903 84.5099C33.7362 84.1059 33.7977 84.1059 33.7362 84.5099C33.4288 86.1259 32.1993 84.9717 30.1091 80.9893C28.8181 78.623 27.773 76.5453 27.773 76.3144C27.773 76.0835 29.1255 76.8338 30.8468 78.0459C32.5067 79.2002 35.642 80.8739 37.7322 81.7396ZM29.3099 81.6819C29.3714 82.2013 31.646 85.4911 34.4124 88.954C39.515 95.4181 40.8675 97.5535 37.7322 94.2638C36.7485 93.2249 35.7649 92.6477 35.5805 92.994C35.3961 93.2826 36.2567 94.2638 37.4863 95.1872C40.3756 97.2072 47.3225 105.172 45.1093 103.902C43.9413 103.21 44.2487 104.826 45.5397 106.095C46.8922 107.48 47.9987 112.79 46.8922 112.79C46.5233 112.79 46.2774 112.444 46.3389 112.04C46.4618 111.694 44.9864 110.655 43.1421 109.789C39.392 108.058 33.9206 107.076 33.9206 108.115C33.9206 108.462 34.7813 108.75 35.8264 108.75C38.1625 108.75 43.0806 109.905 43.5109 110.539C43.6954 110.828 43.0806 110.77 42.2199 110.482C40.3142 109.789 35.7649 109.731 35.7649 110.309C35.7649 110.597 37.0559 110.77 38.7158 110.828C42.1585 110.886 45.6011 111.405 46.1544 111.982C46.3389 112.213 46.093 112.271 45.5397 112.098C44.9864 111.867 44.1872 111.982 43.6954 112.329C42.9577 112.79 43.0191 112.848 43.8183 112.617C45.5397 112.098 47.5684 113.714 48.7364 116.484C49.2897 117.985 49.5971 119.139 49.4127 119.023C49.1668 118.908 47.6299 118.215 45.9085 117.465C39.8224 114.868 38.5928 114.175 35.7649 111.636C32.937 109.039 30.1091 104.364 29.3099 100.786C28.941 99.1695 29.064 98.9387 30.1706 98.9387C32.1378 98.9387 38.2854 101.247 41.2978 103.152C43.3265 104.422 43.7569 104.537 42.8962 103.614C41.7896 102.459 42.2199 101.94 43.5109 102.806C43.8798 103.094 42.7118 101.94 40.9289 100.382C39.1461 98.7655 35.519 96.3992 32.8755 95.1295C29.7402 93.6289 28.0189 92.4746 27.9574 91.782C27.8959 90.974 28.2033 90.8586 29.4943 91.1472C30.4165 91.3203 31.9534 91.8974 32.937 92.3592C34.0436 92.8786 34.9657 92.994 35.3346 92.6477C36.0108 92.0129 31.1542 88.55 29.6787 88.55C29.1255 88.6077 29.7402 89.1271 31.0312 89.762C33.9821 91.2049 33.7977 91.5512 30.4779 90.7431C27.9574 90.1083 27.8959 90.0506 28.2648 87.742C28.3877 86.4145 28.6336 85.3179 28.7566 85.2025C28.8181 85.0871 29.6173 85.4334 30.4779 85.9528C31.3386 86.53 32.0763 86.8185 32.0763 86.6454C32.0763 86.4722 31.1542 85.7797 30.0476 85.1448C28.1418 84.0482 27.2197 82.2013 28.5107 82.2013C28.8181 82.2013 28.7566 81.6819 28.3877 81.1047C28.0804 80.4699 27.773 79.6042 27.773 79.2002C27.8344 78.219 29.1869 80.4699 29.3099 81.6819ZM96.1348 80.5853C95.7045 80.9893 95.3971 81.047 95.3971 80.7007C95.3971 79.8927 96.1348 79.2002 96.5651 79.6042C96.6881 79.7773 96.5036 80.239 96.1348 80.5853ZM73.3885 91.7243C70.2532 97.7844 69.3925 98.9387 69.9458 96.4569C70.0688 95.7643 70.3147 93.6289 70.4991 91.7243C70.6835 89.3003 70.4376 90.1083 69.6384 94.3215C68.9007 98.3615 67.8556 101.594 66.6261 103.844C64.4744 107.769 64.29 107.538 65.581 102.979C66.1343 101.074 66.5031 97.7267 66.4417 94.6678L66.3187 89.5888L71.1753 87.3957C73.8188 86.2414 76.1549 85.3179 76.2779 85.4334C76.4008 85.5488 75.1098 88.3768 73.3885 91.7243ZM75.9705 94.6678C70.6835 98.8232 70.6221 98.8232 73.45 93.5712L76.032 88.7808L76.8927 91.0317C77.6919 93.2249 77.6919 93.3403 75.9705 94.6678ZM65.8884 93.2826C65.8884 94.8986 65.7654 96.1106 65.6425 95.9952C65.1507 95.4758 64.8433 90.2814 65.3351 90.2814C65.6425 90.2814 65.8884 91.6089 65.8884 93.2826ZM64.7818 98.3615C64.7818 103.498 63.3678 109.674 61.0317 114.522L59.8022 117.119L60.1711 111.232C60.4784 106.326 60.294 104.768 59.2489 101.42C58.5112 99.285 57.5276 96.9764 56.9743 96.3415L55.9292 95.1872L56.421 96.3415C58.3882 101.478 59.0645 103.787 59.3719 107.307L59.7407 111.347L58.5112 107.769C57.2817 104.306 54.3923 100.612 52.3636 99.9775C50.9496 99.5158 56.1136 94.7832 60.294 92.6477L63.7367 90.9163L64.2285 92.186C64.5359 92.8786 64.7818 95.6489 64.7818 98.3615ZM34.5354 96.9764C34.5354 97.0918 33.9821 96.9764 33.3673 96.6301C31.2157 95.5912 29.0025 94.8986 29.0025 95.3603C29.0025 96.0529 34.5969 97.8421 35.3346 97.3804C35.7034 97.1495 35.7649 97.3227 35.4575 97.7844C35.0887 98.3615 35.2116 98.4769 35.9493 98.1884C36.5641 97.9575 36.933 98.0729 36.81 98.4769C36.7485 98.8232 37.0559 99.2272 37.5477 99.4004C38.101 99.5735 38.224 99.4004 37.9166 98.881C37.6092 98.4192 37.6092 98.2461 37.8551 98.4769C38.101 98.6501 38.2854 98.9964 38.224 99.2272C38.1625 99.4581 39.0232 100.151 40.0683 100.786C43.3265 102.632 41.7896 102.517 38.0395 100.67C36.1952 99.689 33.2444 98.7655 31.523 98.5347L28.3877 98.1884V95.9375V93.7443L31.4616 95.1872C33.1829 95.9952 34.5354 96.8032 34.5354 96.9764ZM78.3681 95.1295C78.614 95.7066 77.8148 96.3992 75.9705 97.2649C74.4336 97.8998 72.2204 99.3427 70.9909 100.439C68.4704 102.69 68.04 102.863 68.9622 101.247C69.3311 100.612 71.2368 98.9964 73.2655 97.6689C75.2943 96.3415 76.9541 95.0141 76.9541 94.7832C76.9541 93.9752 78.0607 94.2638 78.3681 95.1295ZM79.6591 100.786C80.028 102.286 79.905 102.402 78.1837 102.402C77.1386 102.402 74.9869 102.979 73.3885 103.671C70.3147 104.999 65.0277 108.692 65.5195 109.154C65.7039 109.327 66.9335 108.635 68.2245 107.654C71.1753 105.518 76.7082 102.979 78.6755 102.979C80.8272 102.979 80.4583 105.056 78.2451 105.46C74.9254 106.095 68.163 109.558 65.3351 112.098C63.7367 113.483 63.3064 114.06 64.3515 113.367C71.3598 108.692 74.9254 107.019 78.1222 107.019C79.3517 107.019 79.5361 106.903 78.7984 106.442C77.9992 105.98 78.0607 105.864 78.9829 105.864C79.6591 105.864 80.028 106.326 80.028 107.25C80.028 108.462 79.6591 108.635 77.0156 108.981C73.2041 109.443 67.3023 112.213 64.2285 114.983C62.876 116.138 62.3227 116.773 62.9375 116.311C63.6752 115.734 64.29 115.676 64.7203 116.08C65.0892 116.426 64.5974 117.003 63.1219 117.754C61.9539 118.331 60.9703 119.023 60.9703 119.254C60.9703 120.005 62.0154 119.774 62.8146 118.85C63.2449 118.389 63.8596 117.985 64.167 117.985C64.5359 117.985 63.4293 119.197 61.7695 120.639C60.1711 122.14 59.4333 122.89 60.2325 122.313C60.9703 121.736 61.585 121.563 61.585 121.909C61.585 122.256 60.7858 123.064 59.7407 123.756C57.6505 125.141 57.4661 124.622 58.9415 121.563C59.4948 120.409 59.9866 119.312 60.0481 119.139C60.7244 117.35 61.6465 115.734 62.1998 115.387C62.5072 115.214 62.6916 114.81 62.5072 114.579C62.3842 114.291 63.3678 111.982 64.7203 109.327C67.4253 104.191 70.4376 101.074 75.4172 98.3615L78.491 96.6301L78.8599 97.9575C79.0443 98.6501 79.4132 99.9198 79.6591 100.786ZM89.0035 100.901C89.9871 101.363 91.4626 102.344 92.3232 103.036L93.8602 104.248L91.7085 103.844C90.5404 103.614 88.7576 103.325 87.7125 103.21C86.7289 103.094 85.192 102.806 84.3313 102.632C83.4706 102.402 82.3026 102.286 81.7493 102.344C80.9501 102.459 80.6427 102.055 80.6427 101.016C80.6427 99.5735 80.7657 99.5158 83.901 99.7467C85.7453 99.8621 88.0199 100.382 89.0035 100.901ZM54.0849 102.113C56.298 103.844 58.3882 108.923 58.7571 113.541C59.0645 117.638 58.5727 120.986 57.712 120.466C57.3431 120.293 57.2817 120.409 57.5276 120.813C58.0809 121.621 56.7899 125.603 56.1136 125.199C55.8062 125.084 55.7448 125.545 55.8677 126.238C56.1136 127.45 56.3595 127.334 59.4948 124.68C61.4006 123.006 62.5686 121.678 62.1998 121.447C61.8309 121.217 62.5686 120.409 63.9211 119.485C66.3187 117.927 72.036 116.657 73.8803 117.292C74.618 117.523 74.6795 117.407 74.0033 116.773C73.2655 116.022 70.1302 116.369 65.581 117.638C64.9047 117.869 65.458 117.465 66.8105 116.83C68.3474 116.138 70.5606 115.676 72.5893 115.676C76.6468 115.676 76.2779 114.926 72.2204 114.868C70.1302 114.81 69.3311 114.579 69.454 114.06C69.577 113.483 69.3311 113.483 68.3474 113.945C66.9335 114.637 66.6876 115.214 68.04 114.753C68.5319 114.522 68.9622 114.695 68.9622 115.099C68.9622 115.561 68.4089 115.734 67.4253 115.561C66.5646 115.387 66.0728 115.503 66.3187 115.849C66.5031 116.138 66.3187 116.311 65.9498 116.195C65.5195 116.022 65.1507 115.676 65.1507 115.387C65.0892 114.522 71.1753 111.751 75.0484 110.886C76.9541 110.424 78.0607 109.905 77.5074 109.731C76.9541 109.558 77.1386 109.385 78.0607 109.385C80.8272 109.27 79.4132 110.886 76.2164 111.521L72.9582 112.155L75.909 111.867C77.5074 111.694 78.7984 111.751 78.7984 111.925C78.7984 112.906 77.1386 115.099 74.3106 117.811C71.8516 120.235 70.868 120.755 69.8229 120.524C68.4704 120.178 62.5072 121.909 63.0605 122.429C63.1834 122.602 64.5974 122.256 66.1343 121.794C72.4049 119.774 71.2368 121.332 64.1056 124.449C57.1587 127.508 56.421 128.085 57.5891 129.758C58.0809 130.509 59.1874 132.99 60.0481 135.299C61.4006 139.108 61.585 140.493 61.585 148.516C61.585 157.635 62.5072 173.391 63.1834 176.565C63.7982 179.336 62.7531 177.835 60.2325 172.064C57.0358 165.022 55.007 159.366 53.9005 154.345C52.2406 146.842 53.0398 135.415 55.4989 131.374C56.6054 129.528 56.6054 129.47 55.4374 127.334C54.7611 126.18 54.2079 125.026 54.2079 124.737C54.2079 124.506 53.5931 123.352 52.7939 122.14C51.1955 119.716 49.1053 115.099 49.6586 115.099C51.4414 115.099 55.4374 120.005 55.4374 122.198C55.4374 122.717 55.6833 123.237 55.9292 123.41C56.9743 123.987 56.1751 118.619 54.8841 116.022C53.5316 113.425 50.2734 110.482 48.7979 110.482C48.3676 110.482 48.0602 109.962 48.0602 109.327C48.0602 107.654 48.6135 107.884 52.1177 110.77C54.5767 112.733 55.4374 113.945 56.0521 116.08C57.0358 119.427 58.0809 120.813 57.5276 117.985C56.9128 115.157 55.0685 110.77 54.4538 110.77C54.1464 110.77 52.6709 109.962 51.134 109.039C49.5971 108.115 48.3061 107.307 48.1832 107.25C47.6299 106.961 50.7652 100.67 51.4414 100.67C51.8717 100.67 53.1013 101.305 54.0849 102.113ZM8.03903 107.423C7.30131 108.231 7.42427 108.231 9.26856 107.307C11.8506 106.095 15.2318 106.326 19.1663 108.058L21.9327 109.27L19.4122 109.616C17.9982 109.847 16.0924 110.655 15.1088 111.405C13.9408 112.329 13.7563 112.675 14.4941 112.386C15.4162 112.098 15.5392 112.213 15.1703 112.848C14.8629 113.367 15.1088 113.31 15.8465 112.675C18.7359 110.309 23.6541 109.27 25.3754 110.597C25.8672 111.001 26.1131 111.29 25.9902 111.232C25.5598 111.001 22.1171 112.906 22.486 113.194C22.6704 113.367 23.2237 113.194 23.7155 112.848C25.0065 111.809 28.2033 111.578 28.941 112.444C29.4943 113.021 29.3099 113.137 28.2033 112.963C27.4041 112.79 25.068 113.252 22.9778 113.887C18.3671 115.387 16.5228 115.387 14.3711 114.06C11.912 112.559 9.33004 109.674 9.9448 109.096C10.2522 108.808 12.0965 108.404 14.0637 108.173L17.6294 107.769L14.74 107.654C13.1416 107.654 11.1129 107.884 10.2522 108.288C9.02266 108.808 8.34641 108.75 7.11689 108.173C5.70293 107.423 5.64145 107.307 6.68655 106.961C8.53084 106.268 8.8997 106.384 8.03903 107.423ZM51.134 112.559C53.0398 114.118 54.9456 117.003 55.6833 119.716C55.9292 120.524 55.4374 120.005 54.6382 118.562C53.7775 116.946 52.425 115.618 51.134 114.983C49.843 114.349 48.7979 113.367 48.552 112.502C48.0602 110.655 48.7364 110.655 51.134 112.559ZM14.6785 126.93C19.0433 129.932 20.9491 130.855 20.0884 129.528C19.904 129.239 18.49 128.316 16.9531 127.45C15.4777 126.642 14.2482 125.892 14.2482 125.776C14.2482 125.199 20.2114 126.411 20.8261 127.161C22.1786 128.835 21.6868 129.181 19.9655 127.738L18.2441 126.353L19.7196 127.912C20.5802 128.835 21.0106 129.701 20.8261 129.932C20.5802 130.105 20.7647 130.682 21.1335 131.086C21.5639 131.548 19.6581 130.913 17.0146 129.643C14.3096 128.373 12.035 127.392 11.912 127.508C11.4202 127.969 12.5268 128.95 13.449 128.95C14.0022 128.95 16.3384 129.874 18.6745 130.97C20.9491 132.125 22.8549 132.875 22.8549 132.702C22.8549 132.298 26.1131 134.491 30.4165 137.781C32.0148 138.993 33.1829 140.205 32.9985 140.436C32.8755 140.724 33.4288 141.186 34.2895 141.59C35.2731 141.994 35.642 142.513 35.3961 142.975C35.1501 143.321 35.1501 143.495 35.4575 143.264C35.7034 143.033 36.3182 143.206 36.81 143.668C37.3018 144.129 38.1625 144.822 38.7158 145.226C39.2691 145.688 40.4371 146.727 41.2978 147.65L42.8347 149.324L40.0068 147.535C36.3182 145.226 30.4165 143.379 26.5434 143.379C23.5311 143.379 18.613 144.764 19.3507 145.457C19.5351 145.63 20.3343 145.457 21.1335 145.053C22.7934 144.187 30.4779 144.129 32.6296 144.937C33.6747 145.341 32.6911 145.399 28.941 145.226C25.0065 145.053 23.2852 145.226 21.6253 145.919C20.4573 146.438 20.0269 146.669 20.7032 146.438C22.4245 145.919 35.0887 145.861 34.7813 146.38C34.5969 146.669 34.8428 146.842 35.3346 146.842C35.8264 146.842 37.7936 147.592 39.7609 148.574C44.802 151.055 44.7405 150.998 43.388 151.517C42.4044 151.863 42.4658 151.979 43.8798 151.979C44.802 152.036 45.7241 152.267 45.9085 152.614C46.2774 153.133 43.6339 152.96 41.3593 152.267C40.9289 152.152 39.6379 152.325 38.5928 152.671C37.2403 153.133 35.642 153.133 33.3059 152.787L29.9246 152.21L31.7689 151.459C32.814 151.055 35.5805 150.767 37.9166 150.767C41.7896 150.767 41.974 150.709 40.0683 150.19C37.3633 149.439 32.5681 149.959 30.355 151.228C28.6951 152.152 28.5107 152.094 24.9451 150.42C20.8876 148.458 17.6294 145.515 15.2318 141.59C13.0801 138.012 11.1743 132.702 11.1743 130.105C11.1743 128.893 10.744 126.988 10.2522 125.834C9.76037 124.68 9.45299 123.756 9.6989 123.756C9.88333 123.756 12.158 125.199 14.6785 126.93ZM63.7982 126.353C63.6137 126.873 63.1219 129.643 62.7531 132.529L62.0154 137.839L60.6629 133.972C59.9252 131.836 59.003 129.758 58.6342 129.412C58.0809 128.893 58.6342 128.373 60.8473 127.161C64.29 125.257 64.29 125.257 63.7982 126.353ZM26.2361 127.912C26.7279 129.989 29.1869 134.376 30.7238 135.992C32.3837 137.781 30.7853 137.088 28.0189 134.837C26.6049 133.683 24.5147 132.067 23.4696 131.317C22.1786 130.393 21.6868 129.643 21.9327 128.95C22.1171 128.373 21.9942 127.738 21.6253 127.508C20.2728 126.757 21.1335 126.065 23.4081 126.065C25.6213 126.065 25.8672 126.238 26.2361 127.912ZM33.7362 128.142C34.8428 128.893 36.4412 130.451 37.3633 131.548C38.7773 133.337 38.9002 133.741 38.2854 135.357C37.4248 137.665 37.4248 139.339 38.224 139.339C38.5928 139.339 38.8387 138.243 38.8387 136.915C38.8387 133.279 40.0683 134.953 41.2978 140.32C41.9126 142.802 42.5888 145.572 42.8347 146.554L43.265 148.285L41.4207 146.265C40.3756 145.168 39.392 143.321 39.1461 142.225C38.9002 141.186 38.3469 139.974 37.8551 139.628C36.8715 138.935 36.5641 135.645 37.2403 133.568C37.6707 132.356 37.6092 132.24 36.933 132.875C35.642 134.029 35.8879 138.185 37.4863 140.955L38.8387 143.495L36.3797 141.532C33.8591 139.57 31.1542 135.934 29.6787 132.586C29.2484 131.548 28.5722 130.855 28.2033 131.086C27.8344 131.259 27.773 131.144 28.0189 130.74C28.2648 130.393 28.2648 129.297 28.0804 128.258C27.773 126.988 27.5271 126.7 27.0967 127.277C26.6664 127.912 26.5434 127.854 26.5434 126.988C26.5434 126.065 26.8508 125.949 29.1255 126.296C30.5394 126.526 32.6296 127.334 33.7362 128.142ZM101.606 140.897C100.623 142.687 97.3643 146.265 95.7045 147.535L94.1061 148.689L92.8765 147.188C92.2003 146.38 91.2167 145.688 90.7249 145.688C90.233 145.688 89.8642 145.457 89.8642 145.111C89.8642 144.533 93.7372 143.379 95.8274 143.379C96.5651 143.379 97.2414 143.206 97.3643 142.917C97.5487 142.513 101.545 139.974 102.037 139.916C102.098 139.916 101.914 140.378 101.606 140.897ZM90.6634 141.705L95.4585 142.456L92.5077 143.148C88.5117 144.187 87.9584 144.129 88.4502 142.917C88.8191 142.052 88.7576 142.052 87.8355 142.744C87.2822 143.148 86.9133 143.725 87.0977 143.956C87.4051 144.418 80.1509 146.438 79.4747 145.976C79.1673 145.861 77.3845 146.727 75.4787 147.996C73.5729 149.266 72.036 150.132 72.036 149.959C72.036 148.92 75.2328 144.072 76.4623 143.379C80.4583 140.955 83.3477 140.667 90.6634 141.705ZM91.5241 146.784C93.4913 147.708 93.6757 148.978 92.0159 149.959C90.6019 150.824 90.5404 150.824 90.356 149.324C90.233 148.516 89.4953 147.419 88.6347 146.9C87.0977 146.034 87.0977 146.034 88.2043 147.246C89.065 148.17 89.1265 148.574 88.5732 148.92C88.0814 149.151 87.9584 149.093 88.2658 148.631C88.5732 148.17 88.0814 147.708 86.8518 147.246C85.8067 146.9 84.9461 146.38 84.9461 146.092C84.9461 145.861 85.192 145.745 85.4994 145.976C85.8067 146.149 86.2371 146.034 86.4215 145.745C86.8518 145.168 89.3724 145.688 91.5241 146.784ZM87.4666 149.035C88.5117 150.132 89.3109 150.536 89.4953 150.132C89.6798 149.612 89.8027 149.612 89.8027 150.19C89.8642 151.113 87.2822 152.036 84.5772 152.036C82.9174 152.036 82.487 151.806 82.487 150.94C82.487 149.555 80.8886 147.996 79.5361 148.054C78.737 148.054 78.7984 148.227 79.8435 148.689C81.1345 149.266 82.3026 151.228 81.7493 151.748C81.6263 151.921 80.1509 151.632 78.491 151.171C76.8312 150.651 74.9869 150.42 74.3721 150.651C72.3434 151.228 73.2655 150.363 76.5238 148.574C79.2288 147.073 80.2124 146.842 82.7329 147.015C85.192 147.246 86.1141 147.65 87.4666 149.035ZM91.5855 170.39C91.1552 170.909 91.0937 171.14 91.4626 170.909C92.3847 170.39 92.4462 174.257 91.5855 178.412C91.0937 181.009 90.7863 181.471 89.6798 181.471C87.8355 181.529 83.5936 183.376 82.487 184.645C81.6263 185.684 81.6263 185.684 83.1018 184.761C84.9461 183.664 89.9257 181.933 90.356 182.279C90.479 182.452 89.9871 183.549 89.2494 184.761C88.1428 186.608 87.4666 187.069 84.9461 187.647C82.1796 188.281 78.491 190.013 78.9829 190.475C79.1058 190.59 80.2739 190.186 81.6263 189.609C84.8846 188.108 86.7904 187.647 86.7904 188.281C86.7904 189.205 76.8927 198.786 76.2779 198.439C75.9705 198.266 75.7861 198.324 75.8476 198.612C75.9705 198.843 75.5402 199.709 74.9254 200.517C73.6344 202.248 73.5115 200.921 74.8025 198.555C75.2943 197.689 75.6017 196.708 75.4172 196.477C74.741 195.438 78.3066 192.437 81.1345 191.629C82.9788 191.109 83.5321 190.821 82.61 190.763C81.8108 190.705 80.5812 190.994 79.905 191.34C77.9992 192.321 77.1386 191.109 78.737 189.609C79.4747 188.916 79.905 188.397 79.7206 188.397C79.2902 188.397 82.1182 183.607 84.3928 180.49C85.3764 179.162 87.4666 177.373 89.0035 176.508C90.5404 175.642 91.5855 174.834 91.4011 174.661C91.2167 174.488 90.233 174.892 89.2494 175.584C86.9748 177.142 86.2371 177.2 87.7125 175.7C88.3273 175.065 88.6347 174.545 88.3888 174.545C88.2043 174.545 88.3888 173.968 88.8191 173.218C89.3109 172.525 90.233 170.505 90.8478 168.831C91.9544 165.773 92.0159 165.715 92.2003 167.562C92.3232 168.601 92.0159 169.87 91.5855 170.39ZM42.8347 174.776C48.9824 175.411 49.2283 175.526 48.9209 177.604C48.6135 179.566 49.9045 182.394 50.9496 182.221C51.3185 182.164 51.8103 182.452 51.9947 182.914C52.425 184.068 51.3185 184.011 49.4127 182.683C48.4905 182.106 47.1381 181.471 46.4003 181.24C45.6626 181.009 43.7569 179.451 42.1585 177.835C40.6216 176.161 39.6379 175.469 40.0683 176.219C41.0519 178.008 39.8838 177.316 38.1625 175.065C36.933 173.449 36.933 173.333 37.9781 173.795C38.5928 174.141 40.806 174.545 42.8347 174.776ZM85.6838 176.681C84.6387 178.181 82.61 181.24 81.1345 183.433C78.737 187.185 78.491 187.358 78.0607 186.031C77.6304 184.819 77.6304 184.876 77.8148 186.319C77.9378 187.3 77.4459 189.263 76.6468 190.936C75.8476 192.552 75.0484 194.399 74.8025 194.976C74.618 195.553 74.3106 195.958 74.1262 195.784C73.8803 195.496 74.6795 192.552 76.8312 185.8C77.0156 185.165 77.6919 183.837 78.2451 182.914C79.4747 181.009 86.9748 173.391 87.3437 173.737C87.4666 173.795 86.7289 175.18 85.6838 176.681ZM51.1955 177.489C51.0111 177.95 50.9496 179.22 50.9496 180.317C51.0111 181.76 50.8881 182.048 50.5193 181.471C49.5971 180.144 49.7201 176.104 50.7037 176.45C51.0726 176.565 51.3185 177.085 51.1955 177.489ZM53.5316 178.239C54.0234 178.816 54.0849 179.162 53.5931 179.451C52.548 180.086 52.9168 181.933 54.4538 183.607L55.9907 185.223L55.0685 182.683C54.5767 181.298 54.3308 180.028 54.5152 179.797C55.2529 179.162 56.544 181.471 56.2366 182.798C56.0521 183.664 56.1136 183.837 56.4825 183.376C56.9128 182.856 57.4046 183.376 58.3268 185.223C59.003 186.665 59.4948 187.82 59.3719 187.82C59.2489 187.82 57.835 187.069 56.2366 186.088C53.2242 184.299 51.7488 181.99 51.7488 179.105C51.7488 177.258 52.425 176.969 53.5316 178.239Z" fill="#B3C4A9"/>
<path d="M119.742 10.3466C118.328 17.7918 118.144 18.9461 118.39 19.1192C118.881 19.581 120.726 10.7506 120.48 9.36542C120.295 8.32655 120.111 8.55741 119.742 10.3466Z" fill="#B3C4A9"/>
<path d="M115.808 17.5604C115.808 18.657 115.931 19.1187 116.115 18.5416C116.238 18.0221 116.238 17.0987 116.115 16.5216C115.931 16.0021 115.808 16.4638 115.808 17.5604Z" fill="#B3C4A9"/>
<path d="M115.193 21.0236C115.193 21.8316 115.316 22.1202 115.5 21.7162C115.623 21.3699 115.623 20.6773 115.5 20.2733C115.316 19.927 115.193 20.2156 115.193 21.0236Z" fill="#B3C4A9"/>
<path d="M137.877 4.05549C137.017 5.49837 134.312 9.59613 131.853 13.1167C129.394 16.6374 127.488 19.5808 127.549 19.6962C128.226 20.2734 139.968 3.07434 139.599 2.03547C139.476 1.68918 138.677 2.61262 137.877 4.05549Z" fill="#B3C4A9"/>
<path d="M139.907 5.55582C138.616 7.57584 135.788 11.385 133.574 14.0976C131.423 16.8102 130.378 18.3685 131.361 17.5605C133.021 16.1177 140.706 6.30611 142.12 3.82437C142.489 3.07408 142.673 2.32378 142.55 2.20835C142.366 2.03521 141.198 3.5358 139.907 5.55582Z" fill="#B3C4A9"/>
<path d="M148.267 6.42196C147.038 7.92254 143.042 11.3277 139.292 14.0403L137.509 15.3101L139.476 14.3866C140.583 13.9249 141.689 13.5209 141.935 13.5209C142.242 13.5209 142.427 13.2323 142.427 12.8283C142.427 12.482 142.796 12.078 143.288 11.9049C143.841 11.7317 143.964 11.9049 143.656 12.4243C143.042 13.4055 145.132 11.8472 148.759 8.67284C151.771 5.96024 152.325 4.40193 149.374 6.94139C147.406 8.55741 147.406 8.55741 148.82 7.05682C149.681 6.13338 150.173 5.32537 149.989 5.15223C149.804 4.92137 149.005 5.49852 148.267 6.42196ZM147.652 8.49969C147.652 8.61512 146.73 9.42313 145.685 10.4043L143.656 12.078L145.439 10.1734C147.161 8.44198 147.652 8.03797 147.652 8.49969Z" fill="#B3C4A9"/>
<path d="M149.435 9.2496C147.652 10.9811 146.484 12.3662 146.853 12.3662C147.222 12.3662 147.837 11.9622 148.267 11.5005C148.698 10.9811 149.435 10.6925 149.927 10.8656C150.419 11.0388 151.71 10.3462 152.939 9.30732C154.968 7.57587 155.03 7.40273 153.923 6.76786C152.878 6.19071 152.325 6.537 149.435 9.2496ZM153.185 8.32616C152.816 8.96103 151.956 9.76904 151.157 10.1153C149.989 10.6925 149.989 10.577 151.525 9.07646C152.448 8.15302 153.001 7.17187 152.755 6.88329C152.448 6.65243 152.632 6.59472 153.062 6.82558C153.616 7.11415 153.616 7.51816 153.185 8.32616Z" fill="#B3C4A9"/>
<path d="M118.881 30.8357C117.099 31.0666 115.5 31.4129 115.377 31.4706C115.254 31.586 117.836 31.7015 121.095 31.7592C125.336 31.7592 128.902 32.2209 133.451 33.3175C141.013 35.1066 143.964 34.6449 138.062 32.6249C131.546 30.3163 126.32 29.8546 118.881 30.8357ZM134.435 32.2786C137.693 33.2598 136.525 33.3175 132.283 32.2786C130.439 31.8746 129.578 31.5283 130.439 31.5283C131.3 31.5283 133.082 31.8169 134.435 32.2786Z" fill="#B3C4A9"/>
<path d="M50.2127 49.8236C51.934 50.7471 54.639 52.5939 56.2374 53.9214C57.8358 55.2488 59.3112 56.23 59.4956 56.0568C59.926 55.6528 52.8562 50.1699 50.5201 49.0156C47.3233 47.4573 47.0774 48.0922 50.2127 49.8236Z" fill="#B3C4A9"/>
<path d="M61.7698 53.2866C61.9542 54.6718 62.3845 56.0569 62.6919 56.3455C63.0608 56.6918 63.1222 55.9415 62.7534 54.1523C62.0157 50.6317 61.3394 49.9968 61.7698 53.2866Z" fill="#B3C4A9"/>
<path d="M63.8598 55.0757C64.0442 57.1534 64.4745 59.2312 64.7205 59.6929C65.0893 60.2123 65.0893 59.2889 64.8434 57.3843C64.2286 52.5939 63.4294 50.7471 63.8598 55.0757Z" fill="#B3C4A9"/>
<path d="M66.9336 55.364C66.0114 59.5772 65.827 61.8858 66.4417 62.2321C66.8106 62.4629 66.9336 62.9824 66.6877 63.4441C66.4417 64.079 66.6262 64.1944 67.3639 63.9635C68.4705 63.5595 68.6549 62.8092 67.7328 62.2898C67.4254 62.1167 67.118 61.4818 67.118 60.9624C67.118 60.1543 67.2409 60.1543 67.6713 60.7892C68.0401 61.3086 68.286 60.5006 68.409 58.3652C68.5319 56.6337 68.4705 55.3063 68.2246 55.4217C68.0401 55.5372 67.7328 55.1909 67.6098 54.6714C67.4254 53.9788 67.2409 54.2097 66.9336 55.364ZM67.5483 58.6538C67.4254 59.4041 67.3024 58.9423 67.3024 57.6726C67.2409 56.4029 67.3639 55.8257 67.5483 56.3452C67.6713 56.9223 67.6713 57.9612 67.5483 58.6538Z" fill="#B3C4A9"/>
<path d="M69.8227 57.4995C69.2694 59.2886 69.085 68.119 69.6383 68.9848C69.8227 69.331 70.1916 66.6762 70.3145 63.0978C70.4375 59.4618 70.4989 56.4606 70.4375 56.3452C70.376 56.2298 70.1301 56.7492 69.8227 57.4995Z" fill="#B3C4A9"/>
<path d="M48.5524 52.5932C48.9212 52.7086 49.2901 53.1126 49.2901 53.4012C49.2901 53.7475 49.0442 53.8629 48.7983 53.6897C48.4909 53.5166 48.245 53.8052 48.245 54.2669C48.245 54.7863 48.4909 54.9018 48.8598 54.5555C49.1671 54.2669 49.7819 54.1515 50.2122 54.2669C50.6426 54.44 51.1959 54.3246 51.4418 53.9783C51.6262 53.632 51.4418 53.4589 50.95 53.6897C50.4582 53.8629 49.9049 53.5743 49.7204 53.1126C49.4745 52.5932 48.9827 52.1892 48.5524 52.2469C47.9376 52.2469 47.9376 52.3623 48.5524 52.5932Z" fill="#B3C4A9"/>
<path d="M54.516 68.8694C55.1922 69.158 56.4218 69.4466 57.2824 69.4466C58.8808 69.5043 65.6432 72.2169 65.2129 72.6786C65.0285 72.7941 63.8604 72.6786 62.5079 72.39C58.7579 71.582 59.2497 72.1592 63.2457 73.2558C65.2129 73.7752 67.1801 74.5255 67.672 74.8718C68.4097 75.4489 68.4712 75.3912 67.9179 74.4101C66.3195 71.6398 61.1555 68.9849 56.4832 68.5809C54.2086 68.4077 53.6553 68.4654 54.516 68.8694Z" fill="#B3C4A9"/>
<path d="M112.918 53.8059C114.947 54.7294 117.16 56.0568 117.774 56.7494C118.451 57.3843 119.25 57.9614 119.557 57.9614C120.602 57.9614 118.02 55.5951 115.377 54.21C114.024 53.4597 112.119 52.6516 111.074 52.4785C109.967 52.2476 110.643 52.7671 112.918 53.8059Z" fill="#B3C4A9"/>
<path d="M55.9908 61.9441C56.4212 62.2327 56.5441 62.579 56.2982 62.6944C55.9908 62.8676 56.1138 62.8676 56.6056 62.7521C57.0359 62.6367 57.7736 62.7521 58.1425 62.983C58.5728 63.2716 58.3269 62.983 57.7122 62.4058C57.0359 61.8864 56.2367 61.4247 55.8064 61.4247C55.4375 61.4247 55.4375 61.6555 55.9908 61.9441Z" fill="#B3C4A9"/>
<path d="M59.7412 63.9634C59.7412 64.0788 60.233 64.5405 60.8478 64.9445C61.7699 65.6948 61.8314 65.6371 61.0322 64.7137C60.233 63.7902 59.7412 63.5017 59.7412 63.9634Z" fill="#B3C4A9"/>
<path d="M111.259 82.0287C111.627 82.1441 112.365 82.1441 112.795 82.0287C113.164 81.8555 112.857 81.7401 111.996 81.7401C111.136 81.7401 110.828 81.8555 111.259 82.0287Z" fill="#B3C4A9"/>
<path d="M102.159 82.7781L100.622 83.2398L102.159 83.3553C103.573 83.4707 97.6099 84.9713 95.4583 85.029C94.9665 85.0867 94.7206 85.2021 94.905 85.3753C95.0894 85.5484 97.6714 85.3176 100.622 84.7981C103.573 84.3364 107.508 83.9324 109.29 83.9324C111.073 83.9324 112.672 83.7016 112.856 83.413C113.225 82.8358 109.598 82.201 106.77 82.3164C105.172 82.3741 105.233 82.4318 107.385 82.7781L109.844 83.1821L106.893 83.2975C105.049 83.2975 104.065 83.1244 104.311 82.7781C104.741 82.1432 104.311 82.1432 102.159 82.7781Z" fill="#B3C4A9"/>
<path d="M102.467 77.642C102.283 77.8729 102.59 77.9883 103.082 77.9306C104.373 77.7575 104.803 77.1803 103.697 77.1803C103.143 77.1803 102.59 77.4112 102.467 77.642Z" fill="#B3C4A9"/>
<path d="M100.193 78.5651C99.0246 79.8926 98.2869 81.0469 98.7172 81.0469C98.8402 81.0469 99.5779 80.2389 100.316 79.3154C101.73 77.4108 101.668 77.0068 100.193 78.5651Z" fill="#B3C4A9"/>
<path d="M89.6181 81.3357C89.3722 82.1437 88.8803 82.7208 88.45 82.6054C88.0197 82.5477 87.7738 83.0094 87.8352 83.7597C87.9582 84.7408 87.7738 84.9717 86.9746 84.6831C86.1754 84.3945 86.0524 84.5677 86.3598 85.318C86.6057 85.8951 86.5442 86.1837 86.1754 85.9528C85.8065 85.7797 85.5606 85.8374 85.5606 86.1837C85.5606 86.4723 85.3762 87.2226 85.1918 87.7997C84.8229 88.7232 84.8844 88.7232 85.9295 87.6843C88.5115 85.2026 91.6468 79.8928 90.5402 79.8928C90.2328 79.8928 89.8025 80.5276 89.6181 81.3357Z" fill="#B3C4A9"/>
<path d="M91.7084 83.356C91.3396 83.9908 91.2166 84.5103 91.3396 84.5103C91.524 84.5103 91.9543 83.9908 92.3232 83.356C92.692 82.7211 92.815 82.2017 92.692 82.2017C92.5076 82.2017 92.0773 82.7211 91.7084 83.356Z" fill="#B3C4A9"/>
<path d="M30.5403 79.835C30.3559 80.1236 30.4788 80.5276 30.8477 80.7584C31.1551 80.9316 31.4624 80.7007 31.4624 80.239C31.4624 79.2001 31.0936 79.027 30.5403 79.835Z" fill="#B3C4A9"/>
<path d="M38.962 112.155C38.4087 112.444 38.962 112.79 40.8063 113.252C45.2326 114.29 47.2613 114.579 46.2162 114.002C45.7244 113.771 44.249 113.367 42.958 113.136C41.667 112.905 40.8063 112.501 40.9907 112.155C41.4825 111.52 40.0686 111.462 38.962 112.155Z" fill="#B3C4A9"/>
<path d="M42.8968 115.099C43.5731 115.676 47.9379 116.542 47.3231 115.964C47.1387 115.734 45.9092 115.33 44.6797 115.099C43.3887 114.81 42.5895 114.81 42.8968 115.099Z" fill="#B3C4A9"/>
<path d="M71.4217 90.2241C71.4217 91.4938 71.2372 92.9944 70.9913 93.5716C70.8069 94.1487 70.8069 94.4373 71.0528 94.2064C71.2987 94.0333 71.852 92.7058 72.3438 91.263C73.0815 89.0121 73.0815 88.6081 72.2823 88.3195C71.6061 88.0887 71.4217 88.5504 71.4217 90.2241Z" fill="#B3C4A9"/>
<path d="M82.4259 101.075C81.9341 101.652 81.8726 101.883 82.3029 101.652C82.6718 101.421 84.2087 101.594 85.6841 102.056L88.3276 102.921L86.4833 101.479C84.2702 99.8625 83.5324 99.7471 82.4259 101.075Z" fill="#B3C4A9"/>
<path d="M49.2905 106.154C49.2905 106.616 53.9013 110.425 54.1472 110.136C54.516 109.848 51.7496 107.077 50.3971 106.385C49.7823 106.096 49.2905 105.981 49.2905 106.154Z" fill="#B3C4A9"/>
<path d="M70.6839 112.906C70.1921 113.194 70.561 113.252 71.729 113.079L73.5733 112.732L71.729 113.598C70.7454 114.06 70.1921 114.464 70.4995 114.464C71.3602 114.464 76.8316 113.079 77.2005 112.79C77.6923 112.271 71.4831 112.386 70.6839 112.906Z" fill="#B3C4A9"/>
<path d="M68.9626 118.389C65.8273 119.428 62.692 120.928 62.9994 121.217C63.1838 121.39 63.983 121.217 64.7822 120.813C65.52 120.409 67.8561 119.601 69.8848 119.081C72.5283 118.331 73.0816 118.043 71.7291 118.1C70.7454 118.1 69.4544 118.216 68.9626 118.389Z" fill="#B3C4A9"/>
<path d="M52.7325 120.293C53.1014 120.755 53.7161 121.678 54.085 122.313C54.4538 122.948 54.8227 123.179 54.8227 122.775C54.8227 122.371 54.2079 121.505 53.4702 120.755C52.671 120.004 52.3636 119.773 52.7325 120.293Z" fill="#B3C4A9"/>
<path d="M62.5688 123.121C62.6918 123.237 62.3229 123.699 61.7081 124.103C60.8475 124.795 61.0319 124.737 62.8147 124.103C63.9828 123.699 65.3967 123.179 65.8885 123.006C66.3803 122.833 65.8271 122.775 64.5361 122.833C63.3065 122.833 62.4459 123.006 62.5688 123.121Z" fill="#B3C4A9"/>
<path d="M15.1706 108.865C13.5108 109.154 11.8509 109.673 11.482 110.02C11.0517 110.481 11.2976 110.539 12.4042 110.25C13.2648 110.077 14.9862 109.731 16.2772 109.558C17.5067 109.327 18.5518 108.981 18.5518 108.692C18.5518 108.403 18.4903 108.23 18.4289 108.23C18.3059 108.288 16.892 108.577 15.1706 108.865Z" fill="#B3C4A9"/>
<path d="M21.8104 111.347C20.7653 111.751 19.5358 112.732 19.1054 113.425C18.3677 114.752 18.3677 114.752 20.212 113.367C21.2571 112.559 22.6096 111.635 23.2243 111.231C24.7613 110.308 24.208 110.366 21.8104 111.347Z" fill="#B3C4A9"/>
<path d="M12.4043 131.894C12.4043 132.183 12.9576 132.414 13.5723 132.414C14.2486 132.414 14.9248 132.644 15.1707 132.991C15.3552 133.279 15.9699 133.395 16.5847 133.222C17.5068 132.933 17.5068 132.991 16.7076 133.568C15.9699 134.145 16.0314 134.203 17.3224 133.914C18.1831 133.799 19.5356 134.03 20.3962 134.491C21.4413 135.068 21.5028 135.242 20.7036 135.011C18.5519 134.318 13.0191 134.087 13.0191 134.722C13.0191 135.011 13.8183 135.299 14.7404 135.299C17.1995 135.299 25.6832 137.492 28.3267 138.762C30.9702 140.09 30.4784 140.263 27.3431 139.051C22.0561 137.088 13.0805 135.761 13.9412 137.031C14.1256 137.319 15.5396 137.608 16.9536 137.608C18.429 137.608 21.9331 138.243 24.7611 138.993C27.5275 139.743 30.2325 140.205 30.7243 140.032C31.339 139.859 31.5235 139.974 31.2161 140.378C30.9702 140.782 31.6464 141.417 32.8145 141.936C34.5973 142.744 34.6588 142.744 33.6752 141.936C32.9989 141.475 32.1382 141.071 31.8309 141.071C31.462 141.071 31.5235 140.84 31.9538 140.551C33.4907 139.686 21.8102 133.683 15.4166 132.125C13.7568 131.721 12.4043 131.605 12.4043 131.894Z" fill="#B3C4A9"/>
<path d="M12.8965 133.394C13.3269 133.568 13.8801 133.51 14.0646 133.337C14.3105 133.164 13.9416 132.99 13.2654 133.048C12.5891 133.048 12.4047 133.221 12.8965 133.394Z" fill="#B3C4A9"/>
<path d="M28.9407 147.362C26.6661 148.054 24.5144 149.209 24.8833 149.555C25.0677 149.67 26.1128 149.382 27.2194 148.862C28.6948 148.112 30.3547 147.939 33.6744 148.112C36.1949 148.227 37.7933 148.112 37.3015 147.823C35.8876 147.131 30.7235 146.842 28.9407 147.362Z" fill="#B3C4A9"/>
<path d="M22.7935 127.623C23.6542 129.239 23.6542 129.701 22.732 129.181C22.3017 128.893 22.2402 129.008 22.4861 129.47C22.7935 129.874 23.1009 130.047 23.2853 129.874C23.4697 129.701 24.146 130.162 24.8222 130.855C25.8058 131.952 25.8058 131.836 24.6378 129.816C23.9615 128.546 23.0394 127.219 22.732 126.93C22.3632 126.584 22.3632 126.873 22.7935 127.623Z" fill="#B3C4A9"/>
<path d="M93.553 145.63C94.721 146.15 95.8276 146.554 96.012 146.381C96.5653 145.977 93.9218 144.534 92.6923 144.534C91.7087 144.592 91.8931 144.822 93.553 145.63Z" fill="#B3C4A9"/>
<path d="M80.5203 142.283C79.967 142.572 79.5981 143.149 79.7825 143.61C79.967 144.014 79.6596 144.361 79.1063 144.361C78.4915 144.361 78.2456 144.014 78.4915 143.437C78.676 142.86 78.4301 142.918 77.8153 143.668C77.3235 144.303 76.6472 144.765 76.3399 144.707C76.0325 144.592 75.2948 145.4 74.803 146.438C74.1267 147.766 74.0652 147.997 74.68 147.304C75.1718 146.727 75.7251 146.438 75.9095 146.612C76.094 146.785 76.5243 146.438 76.8932 145.804C77.3235 144.996 78.0612 144.707 79.4137 144.822C81.3195 144.996 83.717 143.38 83.717 141.994C83.6556 141.648 82.9793 142.11 82.1801 143.091C80.5817 144.88 80.1514 144.707 81.258 142.745C81.9957 141.475 81.9342 141.475 80.5203 142.283Z" fill="#B3C4A9"/>
<path d="M77.8152 149.035C77.9996 149.382 77.8152 149.786 77.4463 149.959C77.016 150.132 77.2619 150.132 78.0611 149.959C78.7988 149.786 79.4136 149.901 79.4136 150.247C79.4136 150.594 79.721 150.882 80.0898 150.882C81.012 150.882 80.2128 149.843 78.6759 149.093C77.9382 148.689 77.5693 148.689 77.8152 149.035Z" fill="#B3C4A9"/>
<path d="M89.7417 173.449C89.1269 174.026 88.881 174.545 89.1269 174.545C89.4343 174.545 90.172 174.026 90.7868 173.391C91.4016 172.756 91.6475 172.237 91.3401 172.295C91.0327 172.295 90.295 172.814 89.7417 173.449Z" fill="#B3C4A9"/>
<path d="M84.0243 185.453C82.6718 186.03 81.1349 186.954 80.6431 187.531C79.8439 188.454 80.0283 188.454 81.9341 187.358C83.1636 186.665 85.2538 185.684 86.5448 185.28C88.0202 184.76 88.4506 184.414 87.7129 184.414C87.0366 184.414 85.3768 184.876 84.0243 185.453Z" fill="#B3C4A9"/>
<path d="M77.1386 195.034C76.0321 195.957 75.7247 196.419 76.3394 196.477C77.5075 196.477 78.9214 195.611 78.7985 194.976C78.737 194.745 79.2288 194.341 79.8436 194.11C80.8272 193.706 80.8272 193.649 79.9051 193.649C79.3518 193.591 78.0608 194.226 77.1386 195.034Z" fill="#B3C4A9"/>
<path d="M43.7573 176.335C43.7573 177.143 46.2779 181.067 46.5852 180.721C46.8311 180.49 44.3721 175.7 44.0032 175.7C43.8803 175.7 43.7573 175.988 43.7573 176.335Z" fill="#B3C4A9"/>
<path d="M104.373 18.5421C104.189 19.1192 103.758 21.0815 103.451 22.9284C103.082 24.7753 101.729 29.3348 100.377 33.0285C99.086 36.78 97.795 40.3006 97.5491 40.9355C97.1802 42.0321 97.1802 42.0321 98.0409 41.0509C98.5327 40.4738 100.377 35.9143 102.037 30.9508C106.279 18.4266 106.156 19.0615 105.172 19.5809C104.496 19.9272 104.434 19.8695 105.111 19.2347C105.971 18.3689 106.094 17.5609 105.295 17.5609C104.988 17.5609 104.557 18.0226 104.373 18.5421Z" fill="#B3C4A9"/>
</svg>
