<svg width="168" height="306" viewBox="0 0 168 306" fill="none" xmlns="http://www.w3.org/2000/svg">
<path d="M83.1467 8.32116C82.7784 10.8188 82.8158 13.9629 83.222 22.3495C83.576 29.4306 82.8608 32.5341 79.7661 37.3409C72.0362 49.3048 70.4081 52.7805 69.2098 60.1534C68.7144 63.2305 67.7917 67.5528 67.1904 69.7505C65.7476 74.7652 65.9314 78.0359 67.891 84.8318C69.2263 89.2759 69.2789 90.1485 68.8212 95.9367C68.552 99.3669 68.1635 102.024 67.9705 101.838C67.7175 101.698 67.6113 101.251 67.6515 100.932C67.8124 99.6528 64.3104 89.1986 62.2556 84.8806C61.1518 82.4684 59.4033 78.2971 58.3863 75.6252C57.376 72.8999 56.352 70.7143 56.0256 70.7273C54.6268 70.6596 55.2846 72.745 58.663 79.4489C64.7681 91.5837 67.7711 101.271 67.9843 109.471C68.0419 112.456 68.146 115.5 68.212 116.266C68.3577 117.259 67.9784 116.832 66.9808 114.866C66.2627 113.26 64.4066 110.374 62.9227 108.402C61.3059 106.195 60.0489 103.71 59.6107 102.031C57.9976 95.062 52.2482 87.8434 44.0461 82.4812L38.2939 78.7264L37.1788 73.8229C36.5415 71.1446 35.5248 68.0397 34.9062 66.9334C33.4827 64.481 30.9801 62.001 29.575 61.5536C28.7359 61.3398 28.5492 61.5328 28.5217 62.6119C28.5267 64.7234 30.6333 70.7801 32.7749 74.8385C33.8191 76.8643 35.0951 80.489 35.6061 82.8807C37.6366 92.5543 41.9078 99.0457 48.2867 102.122C49.665 102.782 52.795 103.717 55.2192 104.239L59.6015 105.115L62.4559 109.101C66.5013 114.806 67.9837 118.511 68.758 124.833C69.0819 127.85 69.3596 130.375 69.3395 130.535C69.3194 130.695 68.661 129.475 67.8296 127.909C65.8277 124.031 59.4527 116.192 57.0027 114.585C55.5513 113.645 53.8265 113.157 50.9492 112.795C47.0595 112.305 46.7264 112.372 43.4877 114.021C39.6093 116.023 33.8576 120.008 33.7704 120.701C33.7369 120.968 34.443 120.948 35.4091 120.583C37.6213 119.778 38.3073 119.919 42.955 122.127C47.8024 124.469 48.9947 124.457 54.7253 121.93C57.0775 120.873 59.5028 120.096 60.1422 120.176C61.794 120.384 65.2211 124.55 67.5688 129.121C69.052 131.96 70.0552 135.172 71.11 140.555C71.946 144.665 73.2675 149.649 74.0385 151.694L75.521 155.399L73.8307 153.346C72.2403 151.36 70.9971 148.335 69.6424 143.185C68.8654 140.326 66.6962 137.347 64.8384 136.626C64.1125 136.373 62.3947 135.399 60.9966 134.465C59.0527 133.138 57.5011 132.564 53.7381 131.928C47.0646 130.763 44.5863 131.101 31.4342 134.967C29.1289 135.652 25.6443 136.675 23.7388 137.193C21.8333 137.711 20.1808 138.369 20.154 138.582C20.1204 138.848 22.4582 139.197 25.3624 139.345C30.3047 139.643 30.6709 139.743 32.8012 141.31C42.241 148.452 47.328 151.04 53.5621 151.825C56.2796 152.166 57.8718 151.988 61.6362 150.892C67.033 149.298 68.7313 149.565 71.8331 152.445C73.8699 154.326 78.3143 160.73 77.8344 161.103C77.7078 161.25 76.7688 160.969 75.7899 160.575C74.8177 160.128 71.0081 159.432 67.285 158.91C58.8129 157.844 56.4212 158.355 48.1375 163.104C44.3989 165.286 40.9605 166.802 38.3888 167.453C33.4253 168.614 30.4267 170.077 25.4946 173.57C23.3552 175.087 21.1293 176.431 20.5763 176.524C20.0167 176.67 19.6567 176.95 19.7898 177.183C20.3021 177.843 25.2988 176.848 28.5039 175.465C32.9684 173.536 37.1527 172.114 38.4051 172.055C39.0046 172.023 40.2365 172.557 41.1818 173.217C44.364 175.457 47.1009 176.505 50.9373 176.988C53.0687 177.256 56.272 178.038 58.0234 178.746C63.0775 180.735 69.5453 180.953 76.4609 179.333C79.5255 178.637 83.1432 177.847 84.5289 177.588L87.0272 177.091L92.2572 184.136C97.3541 190.947 102.55 199.125 102.063 199.551C101.943 199.644 101.158 199.004 100.353 198.09C95.727 193.124 75.6313 183.776 75.2894 186.493C75.1754 187.399 76.92 188.16 81.1891 189.076C87.829 190.507 94.8269 194.256 100.724 199.436C102.861 201.383 103.766 202.796 105.341 206.621C107.495 211.871 109.899 221.159 110.807 227.714C111.23 230.799 111.134 234.575 110.462 242.069C109.548 251.913 109.347 253.512 109.068 251.853C108.234 246.443 107.099 241.267 105.757 236.876C104.694 233.278 103.898 228.848 103.416 223.212C102.466 212.267 101.835 209.535 99.5396 206.703C98.5081 205.436 96.6382 203.09 95.3206 201.517C92.0865 197.538 89.2833 196.156 83.9613 195.866C81.7032 195.744 79.212 195.755 78.4459 195.821C77.6798 195.887 74.336 195.791 71.0123 195.536C64.7379 195.071 62.9658 195.389 66.3555 196.411C68.9194 197.113 69.7843 198.412 72.2037 204.995C74.6297 211.525 78.5752 217.164 82.55 219.558C84.0546 220.505 87.1444 221.76 89.4486 222.375C98.6656 224.834 103.145 229.673 105.767 240.233C108.005 249.121 108.528 253.571 107.857 258.899C106.778 267.478 103.459 277.507 98.549 286.848C95.9805 291.776 91.7658 297.741 90.1797 298.732C88.9401 299.55 89.3857 300.31 91.2507 300.545C92.5828 300.712 93.0027 300.386 94.5701 297.823C103.021 284.434 106.679 274.286 109.972 254.998C113.091 236.662 117.721 227.393 126.084 222.871C127.597 222.033 128.864 221.001 128.917 220.575C129.004 219.882 128.798 219.802 127.885 220.174C127.259 220.42 126.825 220.853 126.952 221.139C127.078 221.426 126.871 221.779 126.525 221.952C126.072 222.111 126.025 222.051 126.285 221.705C126.545 221.359 126.525 221.086 126.206 221.046C125.353 220.938 120.254 225.764 118.213 228.646C115.772 232.128 114.164 235.444 112.742 239.866L111.66 243.302L111.985 236.848C112.77 221.574 114.953 214.975 120.652 210.55C124.325 207.602 128.296 206.586 133.258 207.156C137.74 207.666 139.771 208.733 141.388 211.373C142.731 213.598 143.085 212.939 142.221 209.908C141.351 206.93 138.15 203.55 134.428 201.728C133.096 201.128 131.898 200.327 131.771 200.041C131.04 198.542 124.585 199.083 122.798 200.806C122.305 201.286 120.972 201.984 119.779 202.429C115.475 203.944 113.934 207.161 114.995 212.49C115.5 214.935 115.446 215.362 114.479 217.026C113.918 218.038 113.037 220.742 112.542 222.953C112.041 225.217 111.6 226.569 111.567 225.97C111.534 225.37 110.878 221.986 110.128 218.481C107.56 206.196 106.978 201.36 107.362 195.292L107.753 189.604L109.96 187.554C111.18 186.462 113.719 184.779 115.511 183.868C124.627 179.386 127.775 175.018 131.676 161.653C133.212 156.325 132.892 156.718 138.363 153.671C140.976 152.268 145.823 146.437 145.118 145.59C144.985 145.357 144.525 145.57 144.198 146.016C143.024 147.6 136.114 150.899 125.826 154.8C122.761 155.93 116.484 158.929 113.565 160.619C106.328 164.796 103.236 174.313 105.539 185.265C106.275 188.876 106.873 199.614 106.386 200.04C106.273 200.08 105.721 198.441 105.17 196.369C104.572 194.237 103.489 190.799 102.731 188.647C100.665 182.704 100.38 180.232 100.972 172.945C101.416 167.697 101.798 165.525 102.832 162.895C104.761 157.887 107.796 153.56 110.488 151.95C112.601 150.647 113.835 148.583 112.556 148.422C110.584 148.174 105.323 154.711 102.621 160.703C101.039 164.239 99.4267 173.184 99.6568 176.948C99.7288 178.526 99.7278 179.825 99.6745 179.818C99.5679 179.805 98.1649 176.76 96.4626 173.081C93.4903 166.591 93.424 166.258 93.979 163.567C94.3869 161.616 95.2409 159.991 96.9678 157.881C100.375 153.601 101.423 151.297 101.259 148.299C101.114 146.441 101.468 144.916 102.576 142.132C105.359 135.067 105.282 131.81 102.06 120.849C101.223 118.038 100.221 113.96 99.7893 111.795L99.0532 107.751L100.406 106.46C103.62 103.292 107.869 95.7617 106.89 94.9349C106.245 94.4748 95.0604 102.919 92.2336 106.027C89.9135 108.55 85.1452 115.474 81.0431 122.265C76.054 130.514 74.5529 141.583 77.5591 147.374C78.0514 148.194 78.3167 149.526 78.2229 150.272C77.7134 154.322 81.5925 159.627 87.3186 162.729C89.2428 163.783 91.3664 165.404 92.0118 166.297C93.063 167.836 100.118 182.743 100.038 183.382C99.9106 184.395 91.0662 174.243 86.1291 167.451C84.7052 165.432 83.2542 164.058 82.0223 163.524C80.4775 162.897 79.8321 162.004 78.1495 158.599C74.2195 150.256 72.0807 142.734 70.498 131.222C69.518 123.954 69.5583 123.634 70.7294 116.907C72.8373 104.886 74.3049 102.256 80.0687 99.8958C81.8877 99.2045 83.8469 98.2602 84.4933 97.8544C86.2661 96.6702 91.0203 90.719 91.948 88.5082C92.4152 87.3762 94.0691 84.9862 95.5959 83.1756C98.2562 80.1003 98.3296 79.9472 97.0638 80.1127C94.0927 80.4966 82.0175 86.9881 79.2976 89.677C76.6444 92.2661 75.717 94.0438 74.8345 98.0464C74.4132 100.104 73.4714 103.288 72.7639 105.039C72.0497 106.844 70.994 110.933 70.3786 114.103C69.7565 117.326 69.1485 119.577 69.0423 119.131C68.4248 116.726 69.177 100.853 70.3086 93.5798C71.4003 86.1935 71.6074 85.4077 73.2814 82.8578C74.2818 81.3599 77.2819 78.165 79.9616 75.7958C87.5874 68.961 87.5207 69.0608 89.3562 56.193C91.9017 38.5431 91.3625 29.9232 87.3439 24.0048C86.5588 22.9318 86.3534 21.5527 86.4755 18.8617C86.619 14.279 85.8367 9.74215 84.4862 7.56953L83.4484 5.9234L83.1467 8.32116ZM85.6113 16.6962C85.7627 18.9344 85.7412 20.8262 85.6145 20.9726C84.8346 21.5782 83.7266 16.1884 83.9026 12.6382L84.1256 8.71496L84.7435 10.6871C85.0957 11.7599 85.4599 14.4579 85.6113 16.6962ZM85.533 22.9109C86.4508 24.6502 86.7363 25.8228 86.3894 26.4287C85.9625 27.241 85.8626 27.1743 85.6904 25.9619C85.5912 25.0292 85.4377 25.3888 85.2165 27.1472L84.8947 29.7048L85.8552 28.0936C87.1693 25.8232 87.2225 25.8299 88.2138 27.416C89.2117 28.9489 90.0128 35.0578 89.6373 38.0417C89.51 39.0541 89.649 40.1 89.8953 40.2933C90.1882 40.5467 90.0661 43.2377 89.6505 46.5413L88.913 52.4025L83.3797 58.0933C78.3531 63.1983 75.7592 66.6067 75.5647 68.1519C75.5312 68.4183 76.4247 67.34 77.545 65.7488C78.7187 64.1644 81.3789 61.0892 83.4856 58.9726C85.5922 56.8561 87.6522 54.6796 88.0457 54.1337C88.6992 53.2416 88.7391 53.3549 88.5711 55.1199C88.1823 58.2104 87.202 59.5485 82.7029 63.0419C77.9572 66.775 74.9571 69.9699 74.2627 72.0476C73.8287 73.3462 73.8287 73.3462 74.449 72.2876C75.6763 70.2769 78.1029 67.7676 81.7756 64.8197C83.7086 63.2226 85.955 61.286 86.6416 60.5605L88.0016 59.2161L87.3463 62.273C87.0252 63.9647 86.6375 65.7562 86.5704 66.289C86.2624 68.3071 85.1688 69.6851 84.1833 69.3446C83.5573 69.1575 82.4778 69.563 81.4446 70.4614C80.4781 71.26 80.0847 71.8059 80.5445 71.5931C80.9976 71.4336 80.6242 71.8196 79.6245 72.4516C78.2649 73.3631 78.0716 73.6094 78.8842 73.6034C79.4238 73.6172 80.9566 72.6192 82.2365 71.4812C83.5163 70.3432 84.576 69.6646 84.5358 69.9843C84.4956 70.304 82.8156 72.0412 80.7492 73.838C76.3697 77.6713 73.8562 80.4403 71.9687 83.3963C70.8283 85.1473 70.7083 85.2404 71.089 83.9352C71.7168 81.9573 73.2013 74.8911 73.3692 73.126C73.5636 71.5808 75.8943 64.2421 77.022 61.7318C77.4624 60.8129 78.943 58.5093 80.3168 56.6253C81.8704 54.6016 82.7378 52.8704 82.6517 52.2642C82.4791 51.4847 82.5391 51.4381 82.8916 52.0779C83.5035 53.2374 87.9786 46.4933 88.7139 43.2299L89.2954 40.7591L88.2143 43.3295C86.9263 46.2526 83.5712 51.8386 83.2918 51.4787C83.1986 51.3587 83.8525 50.0337 84.7463 48.5223C86.854 45.1069 88.8229 40.2125 89.078 37.7548C89.1924 36.416 88.9122 36.922 88.0974 39.5259C87.4697 41.5037 85.8147 45.1926 84.3606 47.716C82.9664 50.1928 81.0119 53.6817 80.0313 55.4528C79.0507 57.2238 78.1837 58.522 78.0372 58.3954C77.811 58.0421 80.5485 50.051 81.1618 49.4786C83.255 47.4687 89.2844 29.6617 88.206 28.7682C87.9597 28.5749 87.3722 30.233 86.8708 32.4974C86.4294 34.7152 85.0003 39.1903 83.7321 42.3866C81.4226 48.2665 80.0418 50.6368 81.1773 46.7742C81.4847 45.6221 82.2267 42.3055 82.7553 39.395C83.5044 35.5921 84.219 33.3545 85.3862 31.3904C86.2734 29.9324 87.0606 28.4076 87.1008 28.0879C87.0878 27.7615 86.4276 28.7068 85.5337 30.2182L83.9462 32.9413L84.1099 28.1987C84.2186 25.6143 84.1942 22.7966 84.0883 21.9173C83.9292 21.0312 83.9097 20.3251 84.0163 20.3385C84.1229 20.3519 84.8413 21.5249 85.533 22.9109ZM81.1939 42.7709C78.8742 53.0338 78.6406 53.5998 79.2651 47.3456C79.5605 44.5681 79.6427 41.7638 79.45 41.1442C79.2241 40.358 79.0438 40.9307 79.0022 42.9823C78.7627 50.9088 77.7256 56.57 75.0615 64.408C73.606 68.6632 72.1635 73.2449 71.9426 74.5703L71.481 76.948L70.4859 71.9513C69.5836 67.5076 69.5779 66.262 70.2953 60.5606C71.0525 54.9726 71.3799 53.6606 73.2014 49.9385C74.3023 47.6413 75.2964 45.7637 75.3497 45.7704C75.3497 45.7704 74.9936 49.4603 74.4305 53.9362C73.9273 58.3654 73.6105 63.0346 73.7827 64.2471C74.0209 66.2256 74.0943 66.0725 74.3903 62.4291C74.626 59.2652 74.7262 58.8989 74.8381 60.591C74.9969 61.91 75.1645 60.5779 75.3804 57.1409C76.0815 46.8367 76.6503 43.6066 78.4111 40.797C79.2915 39.3922 80.2714 38.4871 80.5177 38.6804C80.8173 38.8805 80.884 38.7807 80.7577 38.4941C80.4585 37.8611 82.4733 33.8927 82.7927 34.3659C82.9391 34.4925 82.19 38.2954 81.1939 42.7709ZM74.7216 56.3544C74.4947 56.8671 74.4284 56.534 74.5357 55.6815C74.6496 54.7756 74.8031 54.4161 74.9228 54.7559C74.9824 55.1423 74.8885 55.8882 74.7216 56.3544ZM32.5099 64.8999C33.1288 65.5731 33.8734 67.3989 34.2651 69.0178C34.9821 71.9227 35.3178 76.9987 34.7849 76.9317C33.9324 76.8244 28.9734 64.1843 29.1745 62.5858C29.2482 61.9996 31.1456 63.2668 32.5099 64.8999ZM70.3042 82.4291C70.0287 85.4797 69.727 87.8775 69.6338 87.7575C69.5407 87.6375 68.9228 85.6653 68.2918 83.3667C67.1693 79.3825 66.8514 77.1774 67.7159 78.91C68.361 80.236 68.3151 79.3101 67.6238 77.4911C66.9858 75.6787 67.1072 73.8537 68.1294 70.031L68.7642 67.5669L69.8063 72.1906C70.6691 76.088 70.7742 77.8333 70.3042 82.4291ZM83.4902 69.6904C83.4768 69.7969 82.8769 70.2627 82.1638 70.7684L80.8109 71.6266L81.9775 70.5285C83.0774 69.5302 83.5439 69.2641 83.4902 69.6904ZM56.9424 73.7655C57.3676 75.1181 57.3676 75.1181 56.7423 74.0651C56.3365 73.4187 56.0507 72.6791 56.0909 72.3594C56.1713 71.72 56.4042 72.0199 56.9424 73.7655ZM37.1555 77.8795C37.2017 78.3724 37.4809 79.1653 37.7935 79.6918C38.1594 80.225 38.2523 80.7779 38.0723 80.9177C37.8856 81.1107 38.1316 81.737 38.6373 82.4502C40.1543 84.5896 39.4676 85.3151 37.7039 83.4153C36.9918 82.6221 37.025 82.7886 37.7967 83.9683C38.6285 85.1013 39.0745 85.4281 39.4012 84.982C39.7813 84.5427 39.9743 84.7294 40.1934 85.5689C40.6515 87.5209 45.1831 93.2332 47.7527 95.1803C49.0908 96.1606 50.1092 97.1006 49.9825 97.247C49.8491 97.4468 49.9889 97.6267 50.3619 97.6737C51.2144 97.7809 54.969 100.635 56.8325 102.601L58.2168 104.075L54.0678 103.066C46.9218 101.354 43.946 99.1939 40.101 92.7561C37.999 89.244 36.165 83.6006 35.9681 80.0034C35.9688 79.1375 35.8499 77.9317 35.8171 77.3322C35.7842 76.7326 35.7324 74.9941 35.7002 73.5286L35.7157 70.8242L36.4127 73.8889C36.7977 75.5611 37.116 77.3332 37.1555 77.8795ZM94.6703 82.7885C93.8104 83.6005 92.5634 85.338 91.9095 86.663C91.2557 87.9881 90.1484 89.9056 89.4881 90.8509C88.8279 91.7963 87.7143 93.3341 87.1208 94.1796C86.2005 95.4711 85.6207 95.777 84.3419 95.6161C82.6901 95.4083 79.0055 96.7309 78.9049 97.5302C78.8714 97.7966 78.4716 97.9628 78.0453 97.9092C76.9263 97.7684 77.167 96.7161 78.7069 95.2319C79.3869 94.5597 79.8403 93.9672 79.6272 93.9404C79.4673 93.9203 79.6342 93.4541 80.0344 92.855C80.4811 92.3158 80.901 91.9897 81.0408 92.1697C81.1805 92.3496 80.9469 92.9157 80.4603 93.3416C79.967 93.8208 81.1332 93.1556 82.9795 91.8182C84.8722 90.5408 87.3046 89.2772 88.3572 89.0848C89.4098 88.8925 90.3294 88.4669 90.3629 88.2005C90.497 87.1348 85.9527 88.8364 82.8602 91.0454C80.4875 92.6955 80.9145 91.8832 84.0878 88.6018C87.1278 85.5201 90.4532 83.6111 91.7182 84.3115C92.1244 84.525 92.3975 84.5052 92.2179 84.212C92.0916 83.9255 92.3516 83.5793 92.6915 83.4597C93.0845 83.3468 92.8181 83.3132 92.052 83.3792C91.0661 83.4717 91.4261 83.1922 93.2786 82.2345C94.718 81.5496 95.9707 81.0577 96.0638 81.1776C96.157 81.2976 95.5236 82.0298 94.6703 82.7885ZM40.7894 81.6926C41.1289 82.0059 41.7281 82.4061 42.1476 82.513C42.5139 82.6132 43.4592 83.2734 44.2313 84.0201C45.0101 84.7135 45.8157 85.1937 45.9957 85.054C46.8355 84.4019 54.3563 92.1681 53.6562 93.0002C53.4629 93.2465 53.556 93.3665 53.8958 93.2469C54.7621 92.8146 59.4109 101.897 59.1964 103.603C59.1159 104.242 54.4107 99.0491 54.4979 98.3564C54.5649 97.8236 54.8578 98.077 55.4432 99.0166C56.1684 100.136 56.1087 99.7499 55.3246 97.3779C54.2081 94.2063 53.5765 92.7737 54.0811 94.7857C54.8645 98.0237 54.3786 97.5836 53.1559 93.9657C51.3484 88.5421 50.8488 88.6416 52.5362 94.1583C53.3203 96.5303 53.8249 98.5424 53.705 98.6356C53.585 98.7287 52.4001 97.8219 51.0821 96.6817C49.0386 94.8549 48.553 93.9819 47.5635 90.2309C46.5275 86.4199 45.3443 83.3482 46.0148 86.193C46.2272 87.0858 46.074 87.0124 45.249 85.8261C44.4773 84.6464 44.5369 85.0328 45.5137 88.0244C46.2315 90.0633 47.1024 92.1756 47.4683 92.7088C47.8808 93.302 47.8804 93.7349 47.5607 93.6947C46.6549 93.5807 44.3002 89.4956 43.0309 85.8176C42.3996 83.952 41.8477 82.7459 41.794 83.1721C41.6871 83.5917 42.2253 85.3374 42.9233 87.1031C44.6718 91.2744 43.2409 89.7412 40.7337 84.7167C38.3129 79.8654 38.3401 79.2193 40.7894 81.6926ZM81.5888 89.9653C80.2754 91.3697 78.7284 93.3402 78.1748 94.2989C77.5678 95.251 76.7474 96.6092 76.3339 97.3149L75.5802 98.5733L75.7478 97.2412C75.9425 95.263 78.7902 91.1287 81.3163 89.1191C82.5694 88.1942 83.6425 87.4091 83.749 87.4225C83.9089 87.4426 82.8954 88.6141 81.5888 89.9653ZM104.776 98.8366C104.335 99.7555 102.815 101.946 101.401 103.717C98.9008 106.812 98.8408 106.859 99.0553 105.153C99.3034 103.182 101.131 100.273 103.517 98.0829C105.477 96.2727 105.877 96.5394 104.776 98.8366ZM84.6941 96.6889C84.494 96.9885 82.9347 97.7666 81.1689 98.4646C79.4497 99.2225 77.1974 100.346 76.1977 100.978L74.3716 102.156L75.6186 100.418C76.2721 99.5264 76.7725 98.5609 76.7926 98.4011C76.7661 98.1812 77.1525 98.1216 77.6321 98.1819C79.497 98.4166 79.9434 98.3104 79.6509 97.624C79.478 97.2775 79.5514 97.1244 79.791 97.371C80.0373 97.5644 81.1432 97.3788 82.2293 96.92C84.4414 96.1158 85.2675 96.0032 84.6941 96.6889ZM99.2444 101.93C98.6844 102.509 98.117 104.007 97.9628 105.232C97.7148 107.204 97.2613 107.796 93.8685 110.671C89.5025 114.398 87.4756 116.741 86.0609 119.811C84.6996 122.887 85.0412 120.603 86.5496 116.787C88.2984 112.352 91.7594 107.645 96.1056 103.646C99.6453 100.464 101.505 99.4535 99.2444 101.93ZM98.091 111.527C97.7907 112.193 95.6505 114.576 93.2641 116.766C88.2445 121.385 85.7639 124.753 85.4488 127.257C85.0935 130.081 84.2339 130.46 84.4226 127.67C84.7183 124.459 86.5606 119.711 88.6277 117.048C89.4679 115.963 91.9411 113.514 94.0209 111.611C97.3672 108.676 97.8937 108.363 98.2127 109.269C98.4121 109.836 98.338 110.855 98.091 111.527ZM99.2999 115.685C99.0985 117.716 95.417 123.315 92.0037 126.783C87.9037 130.976 85.8229 134.179 85.0074 137.648C84.5194 139.806 84.4788 140.559 84.9189 140.073C85.619 139.241 85.6786 139.627 85.0314 140.899C84.0508 142.67 83.8264 140.152 84.47 135.037C84.9862 130.934 85.4738 129.209 86.7749 126.612C88.4294 123.356 92.5301 118.297 95.3629 116.001C96.1562 115.289 97.2762 114.131 97.8697 113.286C98.8567 111.894 98.9633 111.908 99.2156 112.914C99.355 113.527 99.4139 114.779 99.2999 115.685ZM101.473 122.508C102.257 124.88 102.954 127.511 103.013 128.331C103.171 130.949 100.93 134.564 96.3035 139.07C88.7906 146.298 86.503 149.853 87.7066 152.332C87.9992 153.018 88.1858 152.825 88.34 151.599C88.6618 149.042 92.0695 144.329 97.1158 139.497C99.8223 136.914 102.176 134.125 102.71 132.893L103.677 130.796L103.749 132.808C103.768 133.947 103.44 136.125 103.019 137.75C102.264 140.74 100.87 142.351 95.8512 146.536C93.4983 148.46 90.2569 153.573 89.9887 155.704C89.687 158.102 90.5064 158.043 90.9746 155.612C91.5565 152.708 93.4104 150.018 97.4702 146.145C99.4434 144.228 101.143 142.764 101.183 142.877C101.562 143.304 99.5147 146.673 98.2416 147.757C96.5485 149.168 96.455 149.481 97.574 149.622C98.0002 149.676 98.8401 149.023 99.3736 148.225C99.9604 147.432 100.514 146.907 100.6 147.08C100.926 147.5 99.1989 150.043 96.352 153.311C95.1452 154.729 93.6981 156.766 93.1377 157.778C92.2771 159.456 92.2171 159.503 92.6112 158.091C92.8318 157.198 93.299 156.066 93.5792 155.56C93.9394 154.848 93.9063 154.681 93.3932 154.887C92.9267 155.154 93.0336 154.734 93.7072 153.682C94.3008 152.837 94.9274 152.158 95.0873 152.178C95.1939 152.191 95.027 152.657 94.6402 153.15C93.2464 155.194 93.9394 154.848 95.7863 152.645C98.0267 149.895 98.0133 150.002 96.8943 149.861C94.9761 149.62 91.2675 155.865 91.318 159.335C91.3303 160.528 91.2697 161.44 91.1631 161.427C90.95 161.4 88.3171 155.223 87.021 151.758C85.9574 149.026 85.9313 148.374 86.6204 144.617C87.2358 141.447 87.8233 139.789 89.5573 137.192C90.7112 135.335 91.5853 133.55 91.4123 133.204C91.2461 132.804 91.3061 132.758 91.6523 133.018C92.3912 133.598 99.1927 124.711 99.9542 122.1C100.275 120.841 100.349 119.822 100.056 119.569C99.4637 119.115 98.536 121.326 98.8148 122.552C99.0406 123.338 92.4053 132.625 92.0394 132.092C91.9462 131.972 93.3333 129.981 95.1471 127.612C97.0141 125.248 98.4213 123.098 98.3483 122.818C98.1891 121.932 88.9394 135.22 87.6448 138.197C86.9641 139.735 86.3297 141.766 86.209 142.725C85.9542 144.75 85.0544 145.449 84.8226 143.85C84.7365 143.244 84.8367 142.877 85.0297 143.064C85.2294 143.197 85.5364 142.478 85.7238 141.419C86.4803 136.697 89.4288 131.331 94.5161 125.313C96.5497 122.917 98.4503 120.287 98.7107 119.508C98.9711 118.729 99.3779 118.076 99.5911 118.103C99.8575 118.137 100.695 120.082 101.473 122.508ZM84.7825 119.217C83.7878 121.96 82.6872 131.998 82.9431 136.847C83.2639 143.762 86.5256 154.835 90.2103 161.686C90.7358 162.672 91.1613 163.592 91.1412 163.752C91.1211 163.911 89.2968 162.924 87.0864 161.563C83.8174 159.582 82.6525 158.516 81.0293 155.93C79.7187 153.871 79.0606 152.218 79.1813 151.259C79.2818 150.46 78.7973 148.288 78.1194 146.362C77.4416 144.437 76.9574 141.832 77.005 140.593C77.0594 139.301 76.974 137.828 76.8811 137.275C76.4362 135.65 77.0618 136.27 78.2722 138.695C79.5623 141.348 79.6413 142.44 78.3841 140.387C77.8851 139.621 77.4458 139.241 77.4055 139.561C77.372 139.827 78.2433 141.506 79.3277 143.212C80.8178 145.565 81.1834 146.531 80.6968 146.957C80.0835 147.53 80.2166 147.763 81.1626 147.557C81.3825 147.531 81.5158 147.331 81.4428 147.051C81.3101 146.385 82.349 146.732 82.7414 147.485C82.9076 147.885 83.5131 148.665 84.0523 149.111C84.5848 149.611 83.9994 148.672 82.7018 146.939C81.4576 145.213 80.706 143.873 81.0257 143.913C81.3454 143.954 81.6714 144.373 81.8309 144.827C81.9371 145.273 82.2632 145.693 82.5829 145.733C82.9026 145.773 82.2643 144.394 81.1799 142.688C77.6673 137.05 77.2022 135.584 77.9242 132.427C78.7665 128.744 81.0619 123.837 81.6476 124.343C81.9472 124.543 82.0139 124.444 81.8943 124.104C81.462 123.238 82.3424 121.833 82.9815 122.346C83.2743 122.6 83.3477 122.446 83.1283 122.04C82.8823 121.414 85.0711 116.493 85.4438 116.973C85.4836 117.086 85.2497 118.085 84.7825 119.217ZM54.2588 114.023C54.7316 114.137 55.0845 114.344 54.8978 114.537C54.7644 114.736 55.2172 115.01 55.9631 115.104C56.6491 115.244 57.6079 115.798 58.0804 116.344C58.5529 116.891 59.1453 117.344 59.465 117.385C59.7847 117.425 60.2774 117.812 60.5967 118.285C60.9958 118.985 60.7492 119.224 58.9904 119.436C57.8313 119.615 56.3721 120.027 55.7324 120.379C54.2729 121.224 53.7334 121.21 53.8541 120.251C53.9077 119.825 54.5344 119.146 55.2274 118.8C55.9272 118.401 56.2405 118.061 55.9208 118.021C54.9084 117.894 53.4285 119.331 53.2676 120.61C52.9994 122.742 47.0769 123.783 45.0132 122.116C44.0347 121.289 46.2151 118.586 48.8807 117.19L50.8532 116.139L49.2078 116.311C46.8495 116.555 45.0436 117.573 43.8032 119.257C42.8897 120.495 42.4899 120.662 41.4044 120.254C40.6853 119.947 39.32 119.613 38.3609 119.492C36.7158 119.231 36.7225 119.178 37.6957 118.326C38.2423 117.854 38.7621 117.594 38.9085 117.721C38.995 117.894 39.628 117.595 40.2812 117.136C42.1274 115.799 49.1686 115.331 51.3659 116.366C52.3381 116.813 53.5968 117.133 54.1497 117.041C54.7094 116.895 56.1678 117.349 57.393 117.936C58.6182 118.523 59.7036 118.93 59.8836 118.79C60.0568 118.704 59.8772 118.411 59.4643 118.251C59.0582 118.037 58.0994 117.483 57.2338 117.05C54.1977 115.369 49.176 114.412 45.7119 114.842C43.8932 115.101 43.2538 115.02 43.7337 114.648C44.9934 113.669 48.8108 113.013 51.0286 113.454C52.294 113.722 53.7259 113.956 54.2588 114.023ZM46.129 117.98C45.8156 118.319 45.082 119.418 44.5284 120.377C43.9747 121.335 43.4214 121.861 43.2485 121.515C42.9959 120.942 45.7832 117.287 46.4759 117.374C46.6357 117.394 46.4889 117.701 46.129 117.98ZM59.7175 134.737C62.6604 136.298 64.5705 138.325 64.3962 139.71C64.3292 140.243 64.4753 140.803 64.7216 140.996C64.9612 141.243 65.1214 140.83 65.042 140.17C64.9629 139.078 65.0229 139.031 65.4485 139.951C65.7079 140.47 65.6938 141.443 65.4468 142.116C65.0664 142.988 65.1062 143.101 65.613 142.515C65.9863 142.129 66.2661 142.056 66.2259 142.376C66.1924 142.642 66.4715 143.435 66.824 144.075C67.456 145.075 67.4761 144.915 66.9648 142.956C66.6328 141.723 65.9813 140.018 65.5025 139.091C64.3518 137.052 65.2043 137.159 66.7746 139.306C67.7461 140.619 69.9523 147.175 69.8115 148.294C69.7914 148.454 68.7797 147.46 67.5418 146.114C61.4254 139.661 47.0353 134.007 38.4485 134.713C36.9164 134.845 35.5042 134.884 35.411 134.764C35.2247 134.524 44.0789 132.553 46.1041 132.375C46.7103 132.289 49.4412 132.524 52.1653 132.813C55.9552 133.235 57.7866 133.736 59.7175 134.737ZM54.2254 138.809L58.1144 140.165L55.3899 140.309C49.7944 140.471 47.1028 141.215 44.5766 143.224C40.9773 146.019 41.3633 146.393 45.0092 143.658C46.6821 142.407 48.2683 141.416 48.588 141.456C48.8544 141.489 47.7545 142.488 46.095 143.632C44.1955 144.963 43.0822 146.068 43.1817 146.567C43.4806 147.633 41.8891 146.946 38.3742 144.338C30.2923 138.45 30.4455 138.524 26.6754 138.374C23.285 138.218 23.2317 138.211 24.8242 137.6C25.7371 137.228 27.1027 137.129 27.9418 137.343C28.721 137.603 29.3205 137.57 29.234 137.397C29.0213 136.937 32.406 135.847 34.591 135.689L35.9633 135.537L34.4907 136.056C33.7046 136.281 32.6117 136.793 32.0852 137.106C31.552 137.472 30.846 137.491 30.4998 137.231C30.0005 136.898 29.9938 136.951 30.4063 137.544C30.8721 138.144 31.1318 138.231 31.8382 137.779C32.3114 137.459 34.4435 136.862 36.5088 136.364C39.8466 135.647 40.8724 135.668 45.3147 136.497C48.0653 137.006 52.1011 138.055 54.2254 138.809ZM142.324 148.865C141.864 149.078 141.357 149.664 141.244 150.137C140.937 151.289 139.064 152.839 136.831 153.803C134.486 154.807 134.66 153.855 137.132 152.272C138.139 151.586 139.045 150.834 139.079 150.568C139.152 149.982 141.851 148.319 142.597 148.413C142.917 148.453 142.784 148.653 142.324 148.865ZM80.7063 143.44C80.6661 143.76 80.2998 143.66 79.9205 143.233C79.5411 142.806 79.2352 142.227 79.2687 141.96C79.3089 141.64 79.6752 141.741 80.0546 142.167C80.4339 142.594 80.7398 143.174 80.7063 143.44ZM136.933 151.705C136.1 152.304 134.686 153.642 133.8 154.667C132.646 156.092 131.533 156.763 129.528 157.215C126.077 157.971 122.925 159.361 123.224 159.994C123.357 160.227 122.537 161.152 121.404 161.984C117.278 165.092 119.799 161.836 124.945 157.504C126.458 156.233 130.023 154.138 132.835 152.868C138.566 150.341 139.239 150.155 136.933 151.705ZM61.8161 142.579C62.2621 142.906 61.8623 143.072 60.7098 143.197C56.6197 143.441 52.8736 146.542 53.0579 149.379C53.1235 150.579 52.9503 150.665 51.1919 150.444C50.1262 150.31 48.1417 149.735 46.7034 149.121C44.4326 148.24 44.1465 147.933 44.4471 146.835C45.0953 144.264 50.0468 141.477 54.6298 141.188C56.9814 140.996 60.5711 141.719 61.8161 142.579ZM110.888 150.918C109.929 151.664 109.056 152.149 108.916 151.969C108.636 151.609 111.676 149.393 112.262 149.467C112.475 149.494 111.855 150.12 110.888 150.918ZM64.8652 144.586C65.4044 145.033 65.2245 145.173 63.9457 145.012C61.3348 144.683 59.5351 146.081 59.2133 148.638C58.9988 150.343 58.7186 150.849 57.8926 150.962C55.7475 151.233 55.4824 149.468 57.2697 146.878C59.2571 143.989 62.8549 142.926 64.8652 144.586ZM57.5107 145.393C55.6906 147.383 55.0833 148.768 55.5753 150.021C56.1536 151.447 55.6737 151.82 54.3889 150.846C52.6447 149.652 53.6524 147.235 56.5449 145.326C58.551 144.008 58.8174 144.042 57.5107 145.393ZM99.9837 151.549C99.2692 153.786 96.3951 157.701 95.3291 158C94.383 158.206 93.2884 160.882 93.1667 163.14C93.0584 165.292 92.5121 165.331 91.901 163.306C91.469 162.007 91.6493 161.434 93.4102 158.624C95.371 155.515 98.6449 151.435 98.5444 152.234C98.5176 152.447 97.7571 153.759 96.8301 155.103C95.8965 156.501 95.2694 157.613 95.4293 157.633C95.8555 157.687 98.8235 153.027 99.4844 151.215C100.266 148.878 100.765 149.211 99.9837 151.549ZM67.0619 146.487C67.1815 146.826 66.835 146.999 66.2489 146.926C65.6628 146.852 64.9965 146.984 64.7965 147.284C64.2163 148.023 63.2773 147.742 63.8042 146.997C64.0575 146.704 64.0177 146.591 63.7777 146.777C63.0713 147.229 62.7304 148.648 63.2632 148.715C63.4764 148.742 64.0029 148.429 64.4295 148.05C65.4761 147.045 67.7472 147.493 69.1848 148.973L70.3828 150.206L69.0976 149.666C67.04 148.811 65.2217 148.637 64.0156 149.188C62.283 150.053 61.9901 149.8 62.5247 147.702C62.9125 145.91 62.9259 145.804 62.0592 146.669C61.5592 147.201 61.2187 148.187 61.2448 148.84C61.2709 149.493 60.9774 150.105 60.5843 150.218C59.5249 150.464 59.9738 147.327 61.1336 146.282C62.1069 145.43 66.6296 145.62 67.0619 146.487ZM123.539 157.49C122.566 158.341 121.286 159.48 120.68 159.999C116.62 163.439 109.757 174.971 109.22 179.233C108.892 181.844 108.632 181.324 107.764 176.181C107.306 173.796 106.901 172.284 106.821 172.923C106.694 173.503 106.985 175.488 107.35 177.32C108 180.325 107.7 189.597 106.928 188.417C106.795 188.184 106.424 186.405 106.079 184.413C105.416 180.216 106.524 169.259 107.871 167.589C108.524 166.697 108.571 166.757 108.423 168.362C108.296 169.374 108.454 171.559 108.726 173.271L109.249 176.422L109.91 174.611C110.251 173.625 110.952 171.062 111.387 168.897C111.815 166.786 112.43 164.482 112.843 163.776C113.837 161.898 113.651 161.658 112.471 163.296C111.817 164.188 111.029 166.579 110.527 169.276C109.631 174.251 109.079 173.045 109.683 167.384C110.012 164.34 110.078 164.24 112.944 162.111C114.617 160.86 117.01 159.483 118.369 159.004C119.728 158.526 121.627 157.628 122.567 157.043C125.1 155.413 125.659 155.7 123.539 157.49ZM131.133 157.796C130.513 157.988 128.767 158.526 127.195 158.978C125.669 159.49 124.15 159.948 123.817 160.014C123.531 160.141 123.557 159.928 123.917 159.648C124.644 159.036 130.88 157.222 131.726 157.383C132.046 157.423 131.752 157.603 131.133 157.796ZM131.364 159.827C130.443 162.418 130.316 162.564 128.505 162.336C126.213 162.048 120.317 164.175 118.07 166.111C117.157 166.917 116.784 167.303 117.257 166.983C119.15 165.706 118.969 166.712 116.983 168.302C115.776 169.287 114.47 170.638 114.016 171.231C113.609 171.883 113.129 172.256 112.983 172.129C112.71 171.716 114.097 169.725 115.617 168.401C116.284 167.835 116.67 167.343 116.511 167.322C116.297 167.296 116.731 166.43 117.458 165.385C118.178 164.393 118.985 163.574 119.198 163.601C119.411 163.628 120.804 162.883 122.27 161.985C124.563 160.541 130.2 158.328 131.485 158.435C131.705 158.409 131.678 159.055 131.364 159.827ZM130.102 163.836C130.042 164.316 129.036 164.568 127.144 164.547C125.572 164.565 123.187 165.023 121.821 165.555C119.076 166.725 118.689 166.785 119.269 166.046C119.523 165.753 121.015 165.075 122.608 164.463C127.425 162.742 130.27 162.504 130.102 163.836ZM128.159 169.816L127.171 172.074L124.434 171.892C119.984 171.548 114.58 174.062 111.906 177.677C110.932 178.962 111.279 178.789 113.585 176.806C115.352 175.242 116.751 174.443 117.211 174.664C117.617 174.877 117.783 174.844 117.664 174.504C117.285 173.644 120.763 172.675 124 172.757L126.971 172.806L125.204 175.236C122.91 178.412 121.996 179.217 118.191 181.499C116.138 182.756 114.719 183.281 114.107 182.987C113.647 182.767 112.288 182.813 111.222 183.112C110.103 183.404 109.23 183.456 109.264 183.19C109.358 182.444 112.782 181.468 115.28 181.403C116.579 181.404 117.479 181.138 117.346 180.905C117.093 180.332 115.188 180.417 112.116 181.167C110.784 181.433 109.971 181.439 109.798 181.092C109.459 180.346 111.402 174.799 111.988 174.873C112.201 174.899 112.322 174.373 112.302 173.667C112.276 173.014 112.303 172.801 112.469 173.201C112.582 173.594 113.662 172.756 115.129 170.992C117.989 167.617 121.514 165.841 126.104 165.498C128.942 165.314 129.102 165.334 129.127 166.42C129.1 167.066 128.693 168.585 128.159 169.816ZM76.7748 161.782C77.5006 162.035 78.1129 162.762 78.0924 163.355C78.2442 165.16 79.301 167.945 80.0601 168.365C80.6194 168.652 80.5996 168.379 79.9944 167.166C78.9834 165.307 78.5056 163.082 79.145 163.162C79.7844 163.243 80.9027 164.25 80.7958 164.669C80.475 165.928 80.6476 166.707 81.5922 168.234C82.2309 169.18 83.1029 169.993 83.5291 170.047C84.1686 170.127 84.1156 169.688 83.4109 167.975C82.9123 166.776 82.4267 165.903 82.2535 165.989C82.1268 166.136 82.3594 166.869 82.7518 167.622C83.5164 169.288 83.6025 169.894 82.8636 169.314C82.0781 168.674 80.7026 164.549 81.2224 164.29C82.142 163.864 84.5846 166.391 87.5586 170.716C89.5213 173.615 90.1332 174.775 89.281 174.235C88.5886 173.715 87.6768 172.788 87.2244 172.082C86.7653 171.428 86.4792 171.122 86.5921 171.515C86.7583 171.915 86.0723 171.774 84.381 171.02C83.0492 170.42 81.4045 169.725 80.7252 169.532C79.0604 168.997 75.9657 165.631 74.8552 163.272C74.3897 162.239 73.8375 161.466 73.6575 161.606C73.1109 162.078 75.6386 166.51 76.8902 167.317C77.596 167.731 78.1284 168.231 78.1016 168.444C78.0145 169.137 70.4563 166.399 67.953 164.785C65.2034 162.978 62.3614 160.185 62.4687 159.332C62.5357 158.799 74.3043 160.767 76.7748 161.782ZM62.3279 160.451C62.8463 161.924 65.3291 164.13 67.573 165.225C69.2043 166.025 68.7114 166.072 62.8435 165.387C57.1354 164.723 56.1364 164.489 54.9716 163.423C54.0531 162.549 53.4338 162.309 53.0139 162.635C52.5939 162.961 52.2742 162.921 52.1013 162.574C51.8487 162.001 53.0816 161.236 56.3732 160.027C58.019 159.422 58.3919 159.469 58.791 160.168C59.5095 161.341 62.5181 164.102 63.6967 164.629C64.6689 165.076 64.6689 165.076 63.7902 164.316C60.8547 161.835 59.1309 160.049 59.1912 159.569C59.3119 158.61 61.8758 159.312 62.3279 160.451ZM52.1807 163.234C52.5001 163.707 53.166 164.007 53.7189 163.915C54.2719 163.822 54.8911 164.062 55.0108 164.402C55.1837 164.748 54.9903 164.995 54.6106 165.001C52.3593 164.826 50.1143 165.031 47.4893 165.675L44.5312 166.385L46.2772 165.414C47.2169 164.829 48.6831 163.931 49.5095 163.385C51.289 162.147 51.5022 162.174 52.1807 163.234ZM59.645 166.717C57.6199 166.895 52.8629 168.137 49.6846 169.307C48.3786 169.792 45.8136 170.389 43.9882 170.701C41.8364 171.026 41.1501 171.318 42.0559 171.432C43.8075 171.707 46.5324 171.129 52.5689 169.183C60.4778 166.551 63.0425 166.387 70.1888 167.665C76.7491 168.869 80.8978 170.311 76.3087 169.788C73.1583 169.446 69.7873 169.996 61.679 172.061C58.0413 173.011 53.3778 173.939 51.3992 174.178C48.3748 174.555 48.035 174.674 49.1137 175.135C51.0181 175.916 52.1971 176.01 50.992 175.263C50.2397 174.789 50.4595 174.763 51.8714 175.157C53.7028 175.658 57.7068 174.809 64.8962 172.303C67.8945 171.273 71.7253 170.51 74.3298 170.459C75.9085 170.387 75.6153 170.567 73.1837 170.964C71.3583 171.276 66.5744 172.731 62.5965 174.233C56.2932 176.579 54.9008 176.891 52.5563 176.596C48.7199 176.114 43.6657 174.125 40.9496 172.051C39.4185 170.884 38.5995 170.51 38.386 170.916C38.2325 171.276 37.7194 171.482 37.2399 171.422C36.7071 171.355 33.5355 172.471 30.1705 173.834C26.7988 175.25 23.9138 176.24 23.8206 176.12C23.6809 175.94 25.5271 174.603 27.8331 173.053C31.8519 170.365 35.6364 169.109 36.7681 170.009C37.3073 170.456 37.4206 170.416 48.0201 168.34C51.9041 167.583 54.9222 166.826 54.7158 166.746C54.4628 166.606 50.6454 167.263 46.2084 168.112C40.992 169.133 37.6944 169.53 36.8687 169.21C35.7832 168.803 35.9632 168.663 38.3281 168.365C39.867 168.18 42.6917 167.669 44.6971 167.218C49.6539 166.109 52.625 165.726 56.7815 165.815C60.5117 165.852 62.383 166.466 59.645 166.717ZM86.6172 173.467C88.1151 174.467 89.6864 175.314 90.0594 175.361C90.4324 175.408 90.7253 175.661 90.6851 175.981C90.6515 176.247 90.0852 176.447 89.4458 176.366C87.794 176.159 83.8168 176.795 77.4076 178.262C74.5095 178.926 70.9187 179.502 69.4066 179.474L66.6955 179.512L69.8339 178.229C76.0508 175.709 81.0612 174.175 83.1128 174.216L85.2244 174.211L83.0793 174.483C80.3812 174.847 74.4445 176.861 72.5585 178.085C71.7387 178.577 72.8513 178.338 74.9636 177.467C77.1225 176.656 80.214 175.746 81.8795 175.414C85.417 174.831 85.6909 173.945 82.5337 173.656C80.2291 173.475 75.8916 174.823 69.4613 177.749C66.0695 179.325 65.2967 179.444 62.6925 179.063C61.1007 178.808 59.0029 178.274 58.0173 177.933L56.2061 177.272L59.0378 176.275C60.5703 175.71 63.6954 174.534 65.9675 173.683C75.5557 170.18 81.4641 170.112 86.6172 173.467ZM95.3112 180.081C99.8707 184.282 101.148 186.607 104.131 196.455C107.207 206.422 107.857 209.427 106.201 205.809C102.179 196.913 99.7773 192.768 94.8137 185.756C91.6799 181.411 89.0718 177.618 88.9987 177.339C88.9257 177.059 89.6452 176.933 90.551 177.047C91.7232 177.194 93.2279 178.141 95.3112 180.081ZM55.4156 174.52C54.5094 174.839 53.3502 175.018 52.924 174.965C52.4977 174.911 53.0242 174.598 54.0835 174.353C56.6552 173.702 57.6076 173.876 55.4156 174.52ZM113.227 183.959C111.894 184.658 111.767 184.804 109.681 186.761L108.147 188.192L108.302 186.533C108.537 184.668 109.39 183.91 111.768 183.505C114.086 183.147 114.506 183.254 113.227 183.959ZM80.8171 187.73L82.362 188.357L80.4971 188.123C79.4847 187.995 78.0728 187.601 77.3537 187.294C76.1285 186.707 76.1285 186.707 77.6737 186.901C78.5796 187.015 79.9914 187.41 80.8171 187.73ZM131.544 200.987L133.142 202.054L131.543 202.286C130.657 202.445 128.891 203.143 127.552 203.894C125.273 205.231 125.273 205.231 127.959 203.242C129.752 201.898 130.432 201.225 129.719 201.298C128.4 201.457 124.4 204.851 124.273 205.863C124.219 206.29 122.606 207.927 120.626 209.464L117.14 212.219L118.189 209.049C119.344 205.46 120.705 203.249 122.491 201.958C123.431 201.373 123.144 201.932 121.497 204.269C120.25 206.007 119.182 208.037 119.088 208.783C118.974 209.689 119.354 209.25 120.288 207.419C122.597 202.838 124.797 200.408 126.789 200.064C129.327 199.679 129.753 199.733 131.544 200.987ZM87.9967 197.348C91.4196 198.536 93.6099 200.057 94.0682 201.576C94.3008 202.309 95.6184 203.882 96.9763 205.135C99.4125 207.282 101.295 210.388 100.515 210.993C100.335 211.133 100.422 211.306 100.795 211.353C101.274 211.413 101.227 212.652 100.584 216.036C100.029 219.159 100.015 219.699 100.483 217.701C101.345 214.291 102.239 213.213 101.957 215.884C101.359 222.358 101.05 224.809 100.957 224.689C99.9723 223.482 97.0604 216.512 97.3737 216.173C97.5738 215.873 97.4739 215.807 97.1274 215.98C96.0946 216.445 95.8825 215.119 96.1859 210.557C96.381 208.146 96.3362 205.921 96.05 205.614C95.7239 205.194 95.617 205.614 95.7226 206.926C95.9403 209.497 95.388 208.724 95.0838 205.98C94.9053 204.387 94.8188 204.214 94.6449 205.167C94.4307 206.439 94.9131 211.208 95.4707 213.66C95.7096 214.773 95.7096 214.773 94.7113 213.673C93.7197 212.52 92.5185 207.01 92.3953 202.827C92.3364 201.574 92.1839 200.635 92.0107 200.722C91.884 200.868 91.3515 200.368 90.8991 199.662C90.0808 198.422 90.0741 198.475 90.7647 201.16C91.1165 202.666 91.6871 205.444 91.992 207.323L92.5489 210.64L88.3758 206.381C85.8799 203.847 84.203 201.688 84.2701 201.155C84.4444 199.77 82.8808 197.57 81.5621 197.296C80.5098 197.055 80.5896 197.282 82.0734 199.255C82.9517 200.448 83.6769 201.567 83.6568 201.727C83.6367 201.887 82.4249 201.193 81.0335 200.206C79.5956 199.159 77.5182 198.032 76.4727 197.738C74.3949 197.044 74.3558 196.064 76.3604 196.479C77.899 196.727 83.8939 196.832 84.2538 196.552C84.6204 196.219 85.3597 196.366 87.9967 197.348ZM137.929 205.308C141.39 208.342 142.388 210.308 139.319 208.027C137.934 206.987 136.536 206.486 133.978 206.164C130.515 205.728 130.595 205.522 134.678 204.899C136.337 204.621 136.397 204.574 135.232 204.373C134.492 204.226 132.66 204.591 131.081 205.096C125.871 206.93 124.152 207.255 124.579 206.443C124.792 206.037 125.086 205.857 125.279 206.044C125.478 206.177 126.618 205.725 127.797 204.954C129.857 203.643 133.035 202.473 134.267 202.574C134.587 202.614 136.218 203.848 137.929 205.308ZM74.0414 197.703C77.3778 198.718 81.0462 200.966 80.9323 201.872C80.8921 202.191 81.0918 202.325 81.325 202.192C82.1313 201.806 86.5846 205.56 89.506 209.013C91.0566 210.886 92.9067 212.959 93.6255 213.699C94.351 214.385 95.3225 215.698 95.808 216.571C96.6394 218.137 96.6327 218.191 95.6136 218.117C95.0741 218.103 94.6746 217.836 94.8214 217.53C95.0818 216.751 93.0242 215.896 89.5675 215.407C86.8034 215.005 82.3862 216.128 82.2454 217.247C82.0979 218.419 80.3138 217.112 77.945 213.999C76.1749 211.72 74.5521 208.701 73.3025 205.296L71.355 200.125L73.6666 199.821C76.5312 199.423 76.3185 198.964 73.414 199.248C71.0025 199.486 69.651 198.612 71.157 197.827C71.85 197.481 71.8035 197.421 70.8708 197.52C70.2579 197.66 69.3323 197.273 68.8065 196.719C67.8015 195.673 67.5351 195.639 74.0414 197.703ZM119.192 204.52C118.658 205.319 117.69 207.85 117.036 210.041L115.887 214.01L115.563 210.992C115.259 208.247 115.326 207.715 116.399 206.063C117.34 204.612 119.399 202.869 120.092 202.956C120.199 202.969 119.785 203.675 119.192 204.52ZM91.0054 216.454C88.614 216.532 85.0229 217.542 84.6693 218.201C84.2423 219.013 85.1549 219.074 88.4726 218.517C92.503 217.888 97.2711 219.57 98.9409 222.216C99.4864 223.042 99.4596 223.255 98.7133 223.595C98.2535 223.807 98.0668 224 98.3332 224.034C98.5464 224.061 98.8661 224.101 99.1258 224.188C99.865 224.335 100.73 225.635 101.381 227.34L101.973 229.093L100.662 227.466C99.9099 226.56 98.2923 225.22 97.0407 224.413C95.3896 223.339 95.15 223.092 96.1955 223.386C96.9814 223.593 97.5209 223.607 97.4479 223.327C97.3148 223.094 97.5615 222.854 97.9013 222.735C99.2337 222.469 94.6655 220.92 92.9135 221.079C91.3213 221.257 91.3746 221.264 93.8387 221.899C95.3038 222.3 94.3447 222.179 91.8005 221.751C87.0385 220.881 82.0175 219.058 82.1181 218.259C82.1918 217.673 84.904 216.336 86.6694 216.071C87.4489 215.899 89.0675 215.94 90.2397 216.087C91.4585 216.295 91.7715 216.388 91.0054 216.454ZM93.8556 217.462C93.2091 217.868 87.2474 217.93 87.7873 217.511C87.9672 217.371 89.4528 217.179 91.0249 217.16C92.5969 217.142 94.0091 217.103 94.1756 217.07C94.2822 217.083 94.1555 217.23 93.8556 217.462ZM87.0275 217.957C87.0141 218.063 86.6076 218.283 86.108 218.382C85.6616 218.488 85.4552 218.408 85.6552 218.109C86.042 217.616 87.0812 217.53 87.0275 217.957ZM102.702 224.584C103.039 228.794 102.831 230.013 102.187 227.388C101.809 225.662 101.694 219.694 102.113 220.233C102.253 220.413 102.498 222.339 102.702 224.584Z" fill="#677EA4" fill-opacity="0.8"/>
<path d="M85.4931 64.5301C84.8396 65.4221 82.2266 67.6915 79.6538 69.6411C75.5814 72.7552 71.528 77.0084 73.5404 76.0708C74.0535 75.8647 74.1399 76.038 73.7998 76.5906C73.0792 78.0155 73.6124 77.6496 75.3993 75.4928C76.3461 74.4211 77.2526 73.6691 77.4456 73.8558C77.5786 74.0891 77.0984 74.8947 76.3517 75.6668C75.6051 76.4388 74.9583 77.2776 74.9247 77.544C74.8912 77.8105 74.4512 78.2964 73.978 78.6157C73.5048 78.9351 73.0581 79.4743 73.0178 79.794C72.9441 80.3801 73.9706 79.5349 77.4107 75.8541C78.4841 74.636 79.1242 73.8505 78.7844 73.9701C77.6316 74.5287 77.4929 73.0499 78.6394 72.1116C79.186 71.6391 79.5127 71.193 79.2996 71.1662C79.0864 71.1394 79.933 70.434 81.1193 69.609C82.3522 68.8439 83.7782 68.2656 84.311 68.3326C84.7839 68.4462 85.1304 68.2733 84.9974 68.0401C84.871 67.7536 84.5114 67.6001 84.2249 67.7264C83.9317 67.906 83.732 67.7726 83.7722 67.4529C83.8057 67.1865 84.1258 66.7937 84.4123 66.6674C85.1053 66.3216 87.1392 63.4923 86.9131 63.139C86.8199 63.0191 86.1999 63.6447 85.4931 64.5301ZM76.7466 73.389C75.4466 74.6868 74.28 75.785 74.2133 75.8848C74.0934 75.978 74.0535 75.8647 74.0937 75.545C74.1607 75.0122 78.3405 71.0455 78.7667 71.0992C78.9266 71.1193 77.9865 72.1377 76.7466 73.389Z" fill="#677EA4" fill-opacity="0.8"/>
<path d="M72.2993 54.101C71.5643 56.9314 71.5453 63.9655 72.2877 68.3891C72.5263 69.9346 72.5263 69.9346 72.7338 68.7158C72.8276 67.9699 72.8089 66.3978 72.6367 65.1854C72.4645 63.9729 72.5474 60.3027 72.7365 57.0789C73.0674 51.4371 73.0343 51.2706 72.2993 54.101Z" fill="#677EA4" fill-opacity="0.8"/>
<path d="M68.1809 72.2027C68.5709 75.9865 69.6648 82.3488 69.8981 82.2157C70.258 81.9363 69.1259 73.2959 68.574 72.0898C68.1417 71.2235 68.0885 71.2168 68.1809 72.2027Z" fill="#677EA4" fill-opacity="0.8"/>
<path d="M39.9981 88.4137C41.4089 90.1068 43.0328 91.8266 43.5787 92.2201C44.1313 92.5602 43.446 91.5539 42.0218 89.9674C38.4282 85.8346 36.8505 84.6076 39.9981 88.4137Z" fill="#677EA4" fill-opacity="0.8"/>
<path d="M39.6501 90.751C40.2821 91.7507 42.6986 93.6244 43.4979 93.725C44.084 93.7987 43.2187 92.9321 40.9953 91.245C39.4709 90.0248 39.1579 89.9313 39.6501 90.751Z" fill="#677EA4" fill-opacity="0.8"/>
<path d="M41.4526 94.0632C41.3789 94.6493 46.7726 96.9518 48.1315 96.9062C48.731 96.8734 47.4659 96.173 45.3618 95.2587C43.2509 94.3977 41.4795 93.8501 41.4526 94.0632Z" fill="#677EA4" fill-opacity="0.8"/>
<path d="M44.656 94.412C45.0487 94.732 45.6546 95.0789 45.921 95.1124C46.2407 95.1526 46.1144 94.8661 45.7216 94.546C45.3289 94.226 44.7763 93.8858 44.4566 93.8456C44.1902 93.8121 44.2632 94.0919 44.656 94.412Z" fill="#677EA4" fill-opacity="0.8"/>
<path d="M45.3655 98.6693C45.7844 99.6421 53.4696 101.8 53.5701 101.001C53.5969 100.788 52.1519 100.227 50.3604 99.839C48.5156 99.4445 46.5776 98.93 46.0783 98.5966C45.4191 98.243 45.1993 98.2695 45.3655 98.6693Z" fill="#677EA4" fill-opacity="0.8"/>
<path d="M88.7865 85.6755L87.0137 86.8598L89.0328 85.8689C91.625 84.6254 91.625 84.6254 91.0389 84.5516C90.7724 84.5181 89.7862 85.0435 88.7865 85.6755Z" fill="#677EA4" fill-opacity="0.8"/>
<path d="M81.8321 94.0549C80.4393 94.7999 79.0198 95.7579 78.7597 96.1041C78.4996 96.4503 79.2392 96.1644 80.4055 95.4993C81.5717 94.8341 83.6307 93.9565 84.93 93.5246C86.9554 92.9134 87.1287 92.8269 85.8965 92.726C85.0905 92.6787 83.2849 93.2634 81.8321 94.0549Z" fill="#677EA4" fill-opacity="0.8"/>
<path d="M81.2462 126.674C81.8578 128.267 81.5306 129.146 80.7723 127.86C80.1004 126.747 80.1004 126.747 80.3393 127.859C80.4787 128.472 80.9174 129.718 81.3895 130.698C82.1609 132.31 82.2011 131.991 81.537 129.526C81.3842 129.019 81.5243 128.766 81.7639 129.013C82.0102 129.206 82.3168 128.92 82.3906 128.334C82.4576 127.801 82.3048 127.295 82.0384 127.261C81.772 127.228 81.7057 126.895 81.9124 126.542C82.1259 126.136 81.953 125.789 81.58 125.742C81.0472 125.675 80.9604 125.935 81.2462 126.674Z" fill="#677EA4" fill-opacity="0.8"/>
<path d="M79.8013 150.634C79.7544 151.007 79.9206 151.406 80.2135 151.66C80.4598 151.853 80.506 152.346 80.2992 152.699C79.9457 153.358 83.1734 156.958 83.7666 156.545C83.8933 156.399 83.5739 155.926 82.9747 155.525C82.3755 155.125 82.0562 154.652 82.2362 154.512C82.4161 154.373 83.1152 154.839 83.834 155.579C84.5595 156.266 84.8121 156.839 84.4924 156.799C84.1194 156.752 83.9861 156.952 84.1057 157.292C84.232 157.578 84.6248 157.898 84.8912 157.932C85.2109 157.972 85.2977 157.712 85.1315 157.312C84.9653 156.913 85.0253 156.866 85.4247 157.133C85.7176 157.386 85.7705 157.826 85.5705 158.125C85.2571 158.465 85.4036 158.591 85.9565 158.499C86.4629 158.346 86.7558 158.599 86.7021 159.025C86.5815 159.985 86.2618 159.944 84.3446 158.404C83.4127 157.637 82.8001 157.344 82.973 157.69C83.4783 158.836 86.1615 160.311 87.0744 159.938C88.3871 159.4 88.2675 159.06 85.7116 156.573C84.4536 155.387 82.5968 153.367 81.6585 152.22C80.6736 151.014 79.8415 150.314 79.8013 150.634ZM81.6507 153.573C82.2362 154.512 82.1762 154.559 81.4641 153.766C80.6454 152.959 80.4326 152.499 80.8589 152.553C80.9655 152.566 81.3381 153.046 81.6507 153.573Z" fill="#677EA4" fill-opacity="0.8"/>
<path d="M51.3676 114.201C51.7604 114.521 52.3663 114.868 52.6327 114.901C52.9524 114.942 52.826 114.655 52.4333 114.335C52.0405 114.015 51.4879 113.675 51.1682 113.635C50.9018 113.601 50.9749 113.881 51.3676 114.201Z" fill="#677EA4" fill-opacity="0.8"/>
<path d="M49.0802 117.756C47.1475 118.92 45.9068 121.037 46.6055 121.937C46.9316 122.357 47.1249 122.111 47.2389 121.205C47.4266 119.713 48.3134 118.688 50.3925 117.65C51.1455 117.258 51.5654 116.932 51.2457 116.892C50.926 116.851 49.9532 117.27 49.0802 117.756Z" fill="#677EA4" fill-opacity="0.8"/>
<path d="M55.7999 119.413C54.7469 120.039 54.7402 120.092 55.9862 119.653C56.6658 119.414 57.2456 119.108 57.259 119.001C57.3126 118.575 57.0328 118.648 55.7999 119.413Z" fill="#677EA4" fill-opacity="0.8"/>
<path d="M40.5399 118.088C39.7399 118.854 39.7865 118.914 40.7262 118.328C41.2527 118.016 41.7326 117.643 41.746 117.536C41.7996 117.11 41.3398 117.323 40.5399 118.088Z" fill="#677EA4" fill-opacity="0.8"/>
<path d="M51.6521 133.452C51.632 133.612 56.9441 137.852 58.542 138.919C59.5406 139.586 59.4608 139.36 58.0702 137.507C56.9988 136.127 56.1135 135.42 55.6537 135.633C55.2539 135.799 55.1007 135.726 55.4141 135.386C55.9342 134.694 54.949 133.921 53.1507 133.586C52.3049 133.426 51.6655 133.345 51.6521 133.452ZM55.015 134.687C55.1413 134.973 55.0012 135.226 54.7348 135.193C54.4151 135.153 54.1822 134.853 54.2157 134.586C54.2559 134.266 54.3893 134.067 54.4959 134.08C54.6557 134.1 54.8953 134.347 55.015 134.687Z" fill="#677EA4" fill-opacity="0.8"/>
<path d="M55.988 133.834C56.1345 133.961 57.5453 135.654 59.1357 137.64C60.7261 139.627 62.0638 141.04 62.0973 140.773C62.1845 140.081 57.1204 133.868 56.4277 133.781C56.0547 133.734 55.8882 133.768 55.988 133.834Z" fill="#677EA4" fill-opacity="0.8"/>
<path d="M61.3343 137.376C62.1459 138.669 63.177 140.369 63.6693 141.189L64.5674 142.655L63.7363 140.656C63.3376 139.523 62.2532 137.817 61.4546 136.85L59.8974 135.031L61.3343 137.376Z" fill="#677EA4" fill-opacity="0.8"/>
<path d="M38.9867 136.892C35.8687 137.582 32.8436 138.825 33.2628 139.365C33.4025 139.545 34.4685 139.246 35.6214 138.688C36.8208 138.189 39.2926 137.472 41.1113 137.213C42.99 136.908 43.8962 136.589 43.1502 136.496C42.4042 136.402 40.539 136.6 38.9867 136.892Z" fill="#677EA4" fill-opacity="0.8"/>
<path d="M45.2399 138.815C41.9822 139.325 39.1903 140.435 37.5904 141.966C37.1638 142.345 37.0636 142.712 37.3833 142.752C37.6497 142.785 38.2294 142.48 38.716 142.054C40.256 140.569 45.0663 139.334 49.7358 139.218C54.1922 139.075 54.3055 139.035 51.5348 138.687C49.9363 138.486 47.1186 138.51 45.2399 138.815Z" fill="#677EA4" fill-opacity="0.8"/>
<path d="M139.665 150.21C139.465 150.509 139.671 150.589 140.118 150.483C141.124 150.231 141.331 149.878 140.585 149.784C140.265 149.744 139.865 149.91 139.665 150.21Z" fill="#677EA4" fill-opacity="0.8"/>
<path d="M130.023 155.004C128.83 155.449 127.851 155.921 127.837 156.028C127.804 156.294 132.261 154.853 132.854 154.44C133.568 153.934 131.902 154.266 130.023 155.004Z" fill="#677EA4" fill-opacity="0.8"/>
<path d="M53.3505 142.325C52.391 142.638 50.6785 143.342 49.6256 143.968C47.5796 145.172 45.0528 148.047 45.9586 148.161C46.2783 148.202 46.5715 148.022 46.6117 147.702C46.7123 146.903 50.7047 143.995 52.6903 143.271C53.6564 142.905 55.5951 142.554 56.954 142.508L59.4587 142.39L57.3273 142.122C56.1618 141.921 54.3632 142.02 53.3505 142.325Z" fill="#677EA4" fill-opacity="0.8"/>
<path d="M116.682 161.228C116.202 162.033 115.535 163.465 115.194 164.451L114.64 166.275L115.554 164.604C116.047 163.692 116.607 163.113 116.787 163.406C117.027 163.653 117.054 163.44 116.954 162.94C116.801 162.434 117.022 161.541 117.468 161.002C117.869 160.403 118.036 159.937 117.929 159.923C117.769 159.903 117.209 160.482 116.682 161.228Z" fill="#677EA4" fill-opacity="0.8"/>
<path d="M117.681 161.895C117.267 162.601 117.314 162.661 117.907 162.248C118.327 161.922 118.541 161.516 118.401 161.336C118.261 161.156 117.908 161.382 117.681 161.895Z" fill="#677EA4" fill-opacity="0.8"/>
<path d="M106.323 179.031C106.442 179.804 106.761 181.143 107.02 182.096C107.445 183.448 107.545 183.515 107.413 182.416C107.293 181.643 106.982 180.251 106.716 179.351C106.291 177.999 106.191 177.932 106.323 179.031Z" fill="#677EA4" fill-opacity="0.8"/>
<path d="M114.503 178.112C112.598 178.63 110.965 179.994 111.431 180.594C111.57 180.774 111.744 180.687 111.791 180.315C111.838 179.942 112.117 179.868 112.464 180.129C112.756 180.382 112.87 180.342 112.75 180.002C112.577 179.656 112.984 179.436 113.676 179.523C118.159 180.033 119.951 179.988 119.485 179.388C119.159 178.968 118.147 178.841 116.288 178.986C114.429 179.131 113.737 179.044 114.157 178.718C114.457 178.485 116.195 178.433 117.953 178.654C119.719 178.822 121.177 178.843 121.211 178.577C121.291 177.937 116.302 177.58 114.503 178.112Z" fill="#677EA4" fill-opacity="0.8"/>
<path d="M84.7293 169.115C85.0881 170.135 85.4671 170.994 85.5737 171.008C86.0532 171.068 85.4223 168.769 84.7501 168.089C84.1311 167.416 84.1643 167.583 84.7293 169.115Z" fill="#677EA4" fill-opacity="0.8"/>
<path d="M78.0954 177.104C77.0093 177.562 76.3695 177.915 76.6359 177.948C76.9557 177.989 78.075 177.696 79.1611 177.238C80.2472 176.779 80.9403 176.433 80.6206 176.393C80.3541 176.359 79.1815 176.645 78.0954 177.104Z" fill="#677EA4" fill-opacity="0.8"/>
<path d="M109.428 185.755C108.628 186.52 108.675 186.58 109.615 185.995C110.554 185.409 110.874 185.017 110.448 184.963C110.342 184.95 109.862 185.322 109.428 185.755Z" fill="#677EA4" fill-opacity="0.8"/>
<path d="M85.07 200.39C85.5083 202.069 86.0535 203.328 86.34 203.202C87.1996 202.823 85.9649 197.58 85.0058 197.459C84.473 197.392 84.539 198.158 85.07 200.39Z" fill="#677EA4" fill-opacity="0.8"/>
<path d="M97.0853 211.157C96.8105 213.342 96.7424 215.173 97.0088 215.207C97.2219 215.234 97.6097 213.442 97.9379 211.264C98.2127 209.08 98.2808 207.248 98.0144 207.214C97.8013 207.188 97.3602 208.972 97.0853 211.157Z" fill="#677EA4" fill-opacity="0.8"/>
<path d="M99.2328 215.595C98.9713 217.673 98.8768 219.285 98.9967 219.192C99.4833 218.766 100.621 211.873 100.195 211.819C99.9286 211.786 99.5009 213.464 99.2328 215.595Z" fill="#677EA4" fill-opacity="0.8"/>
<path d="M74.2925 200.441C72.8933 200.806 71.9067 201.765 72.8125 201.879C73.1322 201.919 73.212 202.146 73.0119 202.445C72.4918 203.137 73.351 203.191 74.1909 202.539C74.5508 202.26 76.1698 201.868 77.8152 201.696C79.7937 201.458 80.2535 201.245 79.2411 201.118C78.4486 200.964 76.8564 201.143 75.7371 201.435C74.6178 201.727 73.6252 201.873 73.4788 201.746C73.3923 201.573 74.1453 201.18 75.1581 200.875C77.1768 200.317 76.3112 199.883 74.2925 200.441Z" fill="#677EA4" fill-opacity="0.8"/>
<path d="M75.1879 204.938C73.1159 205.489 73.9882 205.87 76.4664 205.532C78.7847 205.174 84.7119 206.678 86.123 207.938C86.6555 208.438 86.5423 208.477 85.5634 208.084C83.1395 207.129 76.2529 205.938 75.2267 206.35C74.5404 206.643 75.4861 206.87 78.4301 207.132L82.6663 207.449L80.1147 207.939C78.729 208.198 77.0765 208.856 76.4699 209.375C75.0101 210.653 75.6629 210.627 77.8754 209.39C79.3282 208.598 80.3141 208.506 83.1847 208.921C85.1562 209.169 87.7135 209.924 88.9386 210.511C90.5633 211.365 90.9828 211.472 90.6236 210.885C90.3575 210.419 89.4588 209.819 88.6263 209.552C87.8006 209.231 87.2081 208.778 87.3016 208.465C87.8292 206.853 78.3793 204.095 75.1879 204.938Z" fill="#677EA4" fill-opacity="0.8"/>
</svg>
