<svg width="179" height="306" viewBox="0 0 179 306" fill="none" xmlns="http://www.w3.org/2000/svg">
<path d="M88.5657 8.32116C88.1733 10.8188 88.2132 13.9629 88.6459 22.3495C89.023 29.4306 88.2611 32.5341 84.9648 37.3409C76.7311 49.3048 74.9969 52.7805 73.7205 60.1534C73.1928 63.2305 72.2099 67.5528 71.5695 69.7505C70.0326 74.7652 70.2284 78.0359 72.3157 84.8318C73.738 89.2759 73.794 90.1485 73.3066 95.9367C73.0198 99.3669 72.606 102.024 72.4004 101.838C72.1309 101.698 72.0178 101.251 72.0606 100.932C72.232 99.6528 68.5018 89.1986 66.3131 84.8806C65.1373 82.4684 63.2749 78.2971 62.1916 75.6252C61.1155 72.8999 60.0247 70.7143 59.677 70.7273C58.187 70.6596 58.8877 72.7451 62.4863 79.4489C68.9893 91.5837 72.188 101.271 72.4151 109.471C72.4764 112.456 72.5873 115.5 72.6576 116.266C72.8129 117.259 72.4088 116.832 71.3462 114.866C70.5813 113.26 68.6042 110.374 67.0237 108.402C65.3014 106.195 63.9625 103.71 63.4957 102.031C61.7775 95.062 55.6535 87.8434 46.9167 82.4812L40.7896 78.7264L39.6018 73.8229C38.923 71.1446 37.8401 68.0397 37.1812 66.9334C35.6649 64.481 32.9992 62.001 31.5025 61.5536C30.6087 61.3398 30.4099 61.5328 30.3806 62.6119C30.3858 64.7235 32.6298 70.7801 34.911 74.8385C36.0232 76.8643 37.3824 80.489 37.9267 82.8807C40.0895 92.5543 44.6391 99.0457 51.4337 102.122C52.9018 102.782 56.2358 103.717 58.818 104.239L63.486 105.115L66.5264 109.101C70.8354 114.806 72.4145 118.511 73.2392 124.833C73.5842 127.85 73.8801 130.375 73.8587 130.535C73.8372 130.695 73.1359 129.475 72.2503 127.909C70.118 124.031 63.3274 116.192 60.7178 114.585C59.1718 113.645 57.3346 113.157 54.2697 112.795C50.1265 112.305 49.7717 112.372 46.322 114.021C42.1908 116.023 36.0642 120.008 35.9714 120.701C35.9357 120.968 36.6878 120.948 37.7169 120.583C40.0732 119.778 40.8039 119.919 45.7545 122.127C50.9178 124.469 52.1879 124.457 58.292 121.93C60.7975 120.873 63.3808 120.096 64.0619 120.176C65.8214 120.384 69.4718 124.55 71.9725 129.121C73.5523 131.96 74.621 135.172 75.7445 140.555C76.6349 144.665 78.0426 149.649 78.8639 151.694L80.443 155.399L78.6425 153.346C76.9485 151.36 75.6243 148.335 74.1813 143.185C73.3536 140.326 71.0431 137.347 69.0641 136.626C68.291 136.373 66.4612 135.399 64.972 134.465C62.9013 133.138 61.2486 132.564 57.2404 131.928C50.1319 130.763 47.4922 131.101 33.4829 134.967C31.0273 135.652 27.3156 136.675 25.2859 137.193C23.2562 137.711 21.496 138.369 21.4675 138.582C21.4318 138.848 23.9219 139.197 27.0153 139.345C32.2797 139.643 32.6699 139.743 34.939 141.31C44.994 148.452 50.4125 151.04 57.053 151.825C59.9476 152.166 61.6435 151.988 65.6532 150.892C71.4018 149.298 73.2108 149.565 76.5147 152.445C78.6843 154.326 83.4184 160.73 82.9072 161.103C82.7723 161.25 81.7721 160.969 80.7294 160.575C79.6939 160.128 75.636 159.432 71.6702 158.91C62.646 157.844 60.0983 158.355 51.2749 163.104C47.2925 165.286 43.6301 166.802 40.8908 167.453C35.6038 168.614 32.4097 170.077 27.1562 173.57C24.8773 175.087 22.5063 176.431 21.9173 176.524C21.3212 176.67 20.9378 176.95 21.0795 177.183C21.6253 177.843 26.9476 176.848 30.3616 175.465C35.1171 173.536 39.5741 172.114 40.9081 172.055C41.5467 172.023 42.8589 172.557 43.8658 173.217C47.2554 175.457 50.1707 176.505 54.2571 176.988C56.5274 177.256 59.9395 178.038 61.805 178.746C67.1885 180.735 74.0778 180.953 81.4441 179.333C84.7085 178.637 88.5619 177.847 90.038 177.588L92.6991 177.091L98.2699 184.136C103.699 190.947 109.233 199.125 108.715 199.551C108.587 199.644 107.751 199.004 106.893 198.09C101.966 193.124 80.5605 183.776 80.1963 186.493C80.0749 187.399 81.9332 188.16 86.4805 189.076C93.5532 190.507 101.007 194.256 107.289 199.436C109.565 201.383 110.529 202.796 112.207 206.621C114.501 211.871 117.062 221.159 118.028 227.714C118.48 230.799 118.377 234.575 117.661 242.069C116.688 251.913 116.473 253.512 116.177 251.853C115.288 246.443 114.079 241.267 112.649 236.876C111.517 233.278 110.669 228.848 110.156 223.212C109.144 212.267 108.472 209.535 106.027 206.703C104.928 205.436 102.937 203.09 101.533 201.517C98.0881 197.538 95.1022 196.156 89.4333 195.866C87.0282 195.744 84.3745 195.755 83.5585 195.821C82.7425 195.887 79.1808 195.791 75.6405 195.536C68.9571 195.071 67.0695 195.389 70.6801 196.411C73.4112 197.113 74.3325 198.412 76.9095 204.995C79.4936 211.525 83.6963 217.164 87.9301 219.558C89.5328 220.505 92.8239 221.76 95.2783 222.375C105.096 224.834 109.867 229.673 112.661 240.233C115.044 249.121 115.601 253.571 114.887 258.899C113.737 267.478 110.202 277.507 104.972 286.848C102.236 291.776 97.7466 297.741 96.057 298.732C94.7366 299.55 95.2114 300.31 97.1978 300.545C98.6167 300.712 99.064 300.386 100.734 297.823C109.735 284.434 113.632 274.286 117.139 254.998C120.461 236.662 125.393 227.393 134.302 222.871C135.913 222.033 137.262 221.001 137.319 220.575C137.412 219.882 137.192 219.802 136.22 220.174C135.553 220.42 135.091 220.853 135.226 221.139C135.36 221.426 135.14 221.779 134.771 221.952C134.288 222.111 134.239 222.051 134.516 221.705C134.793 221.359 134.772 221.086 134.431 221.046C133.523 220.938 128.091 225.764 125.917 228.646C123.317 232.128 121.605 235.444 120.09 239.866L118.937 243.302L119.283 236.848C120.12 221.574 122.445 214.975 128.516 210.55C132.428 207.602 136.657 206.586 141.943 207.156C146.717 207.666 148.881 208.733 150.602 211.373C152.034 213.598 152.41 212.939 151.491 209.908C150.564 206.93 147.154 203.55 143.189 201.728C141.771 201.128 140.494 200.327 140.36 200.041C139.58 198.542 132.705 199.083 130.802 200.806C130.276 201.286 128.856 201.984 127.586 202.429C123.001 203.944 121.359 207.161 122.49 212.49C123.027 214.935 122.97 215.362 121.94 217.026C121.343 218.038 120.404 220.742 119.877 222.953C119.343 225.217 118.874 226.569 118.839 225.97C118.804 225.37 118.104 221.986 117.305 218.481C114.57 206.196 113.95 201.36 114.359 195.292L114.776 189.604L117.126 187.554C118.426 186.462 121.13 184.779 123.04 183.868C132.75 179.386 136.103 175.018 140.258 161.653C141.894 156.325 141.553 156.718 147.381 153.671C150.164 152.268 155.327 146.437 154.576 145.59C154.434 145.357 153.944 145.57 153.596 146.016C152.346 147.6 144.985 150.899 134.027 154.8C130.762 155.93 124.076 158.929 120.967 160.619C113.258 164.796 109.964 174.313 112.417 185.265C113.201 188.876 113.838 199.614 113.319 200.04C113.199 200.08 112.611 198.441 112.024 196.369C111.387 194.237 110.234 190.799 109.427 188.647C107.225 182.704 106.922 180.232 107.553 172.945C108.026 167.697 108.432 165.525 109.534 162.895C111.589 157.887 114.821 153.56 117.689 151.95C119.939 150.647 121.254 148.583 119.891 148.422C117.792 148.174 112.188 154.711 109.309 160.703C107.624 164.239 105.907 173.184 106.152 176.948C106.229 178.526 106.227 179.825 106.171 179.818C106.057 179.805 104.563 176.76 102.749 173.081C99.5834 166.591 99.5128 166.258 100.104 163.567C100.538 161.616 101.448 159.991 103.288 157.881C106.917 153.601 108.033 151.297 107.858 148.299C107.704 146.441 108.081 144.916 109.261 142.132C112.226 135.067 112.144 131.81 108.712 120.849C107.82 118.038 106.752 113.96 106.293 111.795L105.509 107.751L106.95 106.46C110.373 103.292 114.899 95.7617 113.857 94.9349C113.169 94.4748 101.256 102.919 98.2448 106.027C95.7735 108.55 90.6945 115.474 86.325 122.265C81.0107 130.514 79.4118 141.583 82.6139 147.374C83.1383 148.194 83.4209 149.526 83.321 150.272C82.7782 154.322 86.9102 159.627 93.0095 162.729C95.0591 163.783 97.3211 165.404 98.0085 166.297C99.1283 167.836 106.644 182.743 106.558 183.382C106.422 184.395 97.0013 174.243 91.7424 167.451C90.2258 165.432 88.6802 164.058 87.368 163.524C85.7225 162.897 85.035 162.004 83.2428 158.599C79.0567 150.256 76.7785 142.734 75.0926 131.222C74.0488 123.954 74.0916 123.634 75.3391 116.907C77.5844 104.886 79.1476 102.256 85.2871 99.8958C87.2247 99.2045 89.3115 98.2602 90.0001 97.8544C91.8884 96.6702 96.9525 90.719 97.9406 88.5082C98.4382 87.3762 100.2 84.9862 101.826 83.1756C104.66 80.1003 104.738 79.9472 103.39 80.1127C100.225 80.4966 87.3629 86.9881 84.4657 89.677C81.6396 92.2661 80.6518 94.0438 79.7118 98.0465C79.263 100.104 78.2598 103.288 77.5062 105.039C76.7455 106.844 75.6209 110.933 74.9654 114.103C74.3028 117.326 73.6552 119.577 73.5421 119.131C72.8843 116.726 73.6855 100.853 74.8909 93.5798C76.0537 86.1935 76.2744 85.4077 78.0575 82.8578C79.123 81.3599 82.3186 78.165 85.173 75.7958C93.2958 68.961 93.2248 69.0608 95.1799 56.193C97.8913 38.5431 97.3169 29.9232 93.0365 24.0048C92.2001 22.9318 91.9814 21.5527 92.1114 18.8617C92.2643 14.279 91.431 9.74215 89.9925 7.56954L88.8871 5.9234L88.5657 8.32116ZM91.1909 16.6962C91.3521 18.9344 91.3292 20.8262 91.1943 20.9726C90.3636 21.5782 89.1834 16.1884 89.3709 12.6382L89.6084 8.71496L90.2666 10.6871C90.6417 11.7599 91.0296 14.4579 91.1909 16.6962ZM91.1075 22.9109C92.0851 24.6502 92.3892 25.8228 92.0197 26.4287C91.565 27.241 91.4586 27.1743 91.2751 25.9619C91.1695 25.0292 91.006 25.3888 90.7704 27.1472L90.4276 29.7048L91.4507 28.0936C92.8504 25.8232 92.9072 25.8299 93.963 27.416C95.026 28.9489 95.8792 35.0578 95.4793 38.0417C95.3437 39.0541 95.4918 40.1 95.7541 40.2933C96.0661 40.5467 95.9361 43.2377 95.4933 46.5413L94.7078 52.4025L88.8139 58.0933C83.4597 63.1983 80.6967 66.6067 80.4896 68.1519C80.4539 68.4183 81.4056 67.34 82.5989 65.7489C83.8491 64.1644 86.6827 61.0892 88.9266 58.9726C91.1705 56.8561 93.3649 54.6796 93.7839 54.1337C94.48 53.2416 94.5225 53.3549 94.3436 55.1199C93.9294 58.2104 92.8853 59.5485 88.093 63.0419C83.038 66.775 79.8423 69.9699 79.1027 72.0476C78.6403 73.3462 78.6403 73.3462 79.3011 72.2876C80.6084 70.2769 83.1932 67.7676 87.1052 64.8197C89.1642 63.2226 91.557 61.286 92.2884 60.5605L93.737 59.2161L93.039 62.273C92.697 63.9647 92.2839 65.7562 92.2125 66.289C91.8844 68.3071 90.7196 69.6851 89.6698 69.3446C89.003 69.1575 87.8532 69.563 86.7527 70.4614C85.7232 71.26 85.3041 71.8059 85.7939 71.5931C86.2765 71.4336 85.8788 71.8196 84.814 72.4516C83.3658 73.3631 83.1598 73.6094 84.0254 73.6034C84.6001 73.6172 86.2329 72.6192 87.5962 71.4812C88.9594 70.3432 90.0882 69.6646 90.0453 69.9843C90.0025 70.304 88.213 72.0412 86.0119 73.838C81.347 77.6713 78.6697 80.4403 76.6592 83.3963C75.4444 85.1473 75.3166 85.2404 75.7222 83.9352C76.3908 81.9573 77.9721 74.8911 78.151 73.126C78.3581 71.5808 80.8406 64.2421 82.0419 61.7318C82.5109 60.8129 84.0881 58.5093 85.5513 56.6253C87.2062 54.6016 88.1301 52.8704 88.0384 52.2642C87.8546 51.4847 87.9185 51.4381 88.294 52.0779C88.9457 53.2374 93.7125 46.4933 94.4957 43.2299L95.1152 40.7591L93.9635 43.3295C92.5916 46.2526 89.0179 51.8386 88.7202 51.4787C88.621 51.3587 89.3175 50.0337 90.2695 48.5223C92.5146 45.1069 94.6119 40.2125 94.8836 37.7548C95.0054 36.416 94.7069 36.922 93.8391 39.5259C93.1704 41.5037 91.4076 45.1926 89.8587 47.716C88.3736 50.1928 86.2917 53.6817 85.2472 55.4528C84.2027 57.2238 83.2792 58.522 83.1232 58.3954C82.8823 58.0421 85.7982 50.051 86.4514 49.4786C88.6811 47.4687 95.1034 29.6617 93.9547 28.7682C93.6924 28.5749 93.0666 30.233 92.5325 32.4974C92.0623 34.7152 90.5401 39.1903 89.1892 42.3866C86.7292 48.2665 85.2585 50.6368 86.468 46.7742C86.7953 45.6221 87.5858 42.3055 88.1488 39.395C88.9467 35.5921 89.7078 33.3545 90.9512 31.3904C91.8961 29.9324 92.7347 28.4076 92.7775 28.0879C92.7636 27.7615 92.0604 28.7068 91.1083 30.2182L89.4173 32.9413L89.5917 28.1987C89.7074 25.6143 89.6814 22.7966 89.5687 21.9173C89.3991 21.0312 89.3785 20.3251 89.492 20.3385C89.6055 20.3519 90.3708 21.5249 91.1075 22.9109ZM86.4856 42.7709C84.0147 53.0338 83.7659 53.5998 84.4311 47.3456C84.7457 44.5681 84.8333 41.7638 84.628 41.1442C84.3875 40.358 84.1954 40.9307 84.1511 42.9823C83.8959 50.9088 82.7913 56.57 79.9536 64.408C78.4031 68.6632 76.8666 73.2449 76.6313 74.5703L76.1397 76.948L75.0797 71.9513C74.1186 67.5076 74.1126 66.262 74.8767 60.5606C75.6832 54.9726 76.032 53.6606 77.9722 49.9385C79.1449 47.6413 80.2037 45.7637 80.2605 45.7704C80.2605 45.7704 79.8813 49.4603 79.2814 53.9362C78.7455 58.3654 78.408 63.0346 78.5914 64.2471C78.8451 66.2256 78.9233 66.0725 79.2386 62.4291C79.4897 59.2652 79.5964 58.8989 79.7156 60.591C79.8847 61.91 80.0633 60.5779 80.2933 57.1409C81.04 46.8367 81.6459 43.6066 83.5215 40.797C84.4593 39.3922 85.503 38.4871 85.7654 38.6804C86.0845 38.8805 86.1555 38.7807 86.021 38.4941C85.7022 37.8611 87.8484 33.8927 88.1886 34.3659C88.3446 34.4925 87.5466 38.2954 86.4856 42.7709ZM79.5915 56.3544C79.3498 56.8671 79.2792 56.534 79.3934 55.6815C79.5148 54.7756 79.6783 54.4161 79.8058 54.7559C79.8693 55.1423 79.7693 55.8882 79.5915 56.3544ZM34.6286 64.8999C35.2879 65.5731 36.081 67.3989 36.4983 69.0178C37.262 71.9227 37.6195 76.9987 37.052 76.9317C36.1439 76.8244 30.8617 64.1843 31.0759 62.5858C31.1545 61.9996 33.1755 63.2668 34.6286 64.8999ZM74.8862 82.4291C74.5927 85.4797 74.2714 87.8775 74.1721 87.7575C74.0729 87.6375 73.4147 85.6653 72.7427 83.3667C71.547 79.3825 71.2083 77.1774 72.1292 78.91C72.8163 80.236 72.7674 79.3101 72.0311 77.4911C71.3515 75.6787 71.4808 73.8537 72.5697 70.031L73.2458 67.5669L74.3558 72.1906C75.2748 76.088 75.3869 77.8333 74.8862 82.4291ZM88.9316 69.6904C88.9173 69.7969 88.2784 70.2627 87.5187 70.7684L86.0777 71.6266L87.3203 70.5285C88.4918 69.5302 88.9887 69.2641 88.9316 69.6904ZM60.6535 73.7655C61.1064 75.1181 61.1064 75.1181 60.4404 74.0651C60.0081 73.4187 59.7037 72.6791 59.7465 72.3594C59.8322 71.72 60.0803 72.0199 60.6535 73.7655ZM39.5771 77.8795C39.6263 78.3724 39.9236 79.1653 40.2567 79.6918C40.6464 80.225 40.7453 80.7779 40.5536 80.9177C40.3548 81.1107 40.6168 81.737 41.1554 82.4502C42.7713 84.5896 42.0398 85.3152 40.1612 83.4153C39.4027 82.6221 39.438 82.7886 40.2601 83.9683C41.146 85.1013 41.6211 85.4281 41.9692 84.982C42.374 84.5427 42.5796 84.7294 42.813 85.5689C43.3009 87.5209 48.1279 93.2332 50.8649 95.1803C52.2902 96.1606 53.375 97.1006 53.2401 97.247C53.098 97.4468 53.2468 97.6267 53.6441 97.6737C54.5522 97.7809 58.5515 100.635 60.5365 102.601L62.011 104.075L57.5916 103.066C49.9798 101.354 46.8101 99.1939 42.7146 92.7561C40.4755 89.244 38.5221 83.6006 38.3123 80.0034C38.313 79.1375 38.1864 77.9317 38.1514 77.3322C38.1164 76.7327 38.0612 74.9941 38.027 73.5286L38.0435 70.8242L38.7858 73.8889C39.1959 75.5611 39.535 77.3332 39.5771 77.8795ZM100.84 82.7885C99.9244 83.6005 98.5961 85.338 97.8996 86.663C97.2031 87.9881 96.0237 89.9056 95.3204 90.8509C94.6172 91.7963 93.431 93.3341 92.7988 94.1796C91.8185 95.4711 91.201 95.7771 89.8388 95.6162C88.0794 95.4083 84.1545 96.7309 84.0474 97.5302C84.0117 97.7966 83.5859 97.9628 83.1318 97.9092C81.9399 97.7684 82.1963 96.7161 83.8365 95.2319C84.5608 94.5597 85.0438 93.9672 84.8168 93.9404C84.6465 93.9203 84.8243 93.4541 85.2505 92.855C85.7264 92.3158 86.1737 91.9897 86.3225 92.1697C86.4714 92.3497 86.2225 92.9157 85.7042 93.3416C85.1788 93.8208 86.421 93.1556 88.3875 91.8182C90.4037 90.5408 92.9945 89.2772 94.1158 89.0848C95.237 88.8925 96.2165 88.4669 96.2522 88.2005C96.395 87.1348 91.5546 88.8364 88.2605 91.0454C85.7332 92.6955 86.188 91.8832 89.5681 88.6018C92.8062 85.5201 96.3484 83.6111 97.6959 84.3115C98.1285 84.525 98.4194 84.5052 98.2281 84.212C98.0935 83.9255 98.3705 83.5793 98.7325 83.4597C99.1512 83.3468 98.8674 83.3132 98.0514 83.3792C97.0013 83.4717 97.3846 83.1922 99.3579 82.2345C100.891 81.5496 102.225 81.0577 102.325 81.1776C102.424 81.2976 101.749 82.0298 100.84 82.7885ZM43.4478 81.6926C43.8094 82.0059 44.4476 82.4061 44.8945 82.513C45.2847 82.6132 46.2916 83.2734 47.1141 84.0201C47.9436 84.7135 48.8017 85.1937 48.9934 85.054C49.888 84.4019 57.8989 92.1681 57.1532 93.0002C56.9472 93.2465 57.0465 93.3665 57.4084 93.2469C58.3312 92.8146 63.283 101.897 63.0544 103.603C62.9688 104.242 57.9569 99.0491 58.0497 98.3564C58.1211 97.8236 58.4331 98.077 59.0567 99.0167C59.8291 100.136 59.7656 99.7499 58.9304 97.3779C57.7411 94.2063 57.0683 92.7737 57.6058 94.7857C58.4402 98.0237 57.9227 97.5837 56.6202 93.9657C54.695 88.5421 54.1628 88.6416 55.9602 94.1583C56.7954 96.5303 57.3329 98.5424 57.2051 98.6356C57.0773 98.7287 55.8152 97.8219 54.4113 96.6817C52.2346 94.8549 51.7174 93.9819 50.6634 90.2309C49.5599 86.4199 48.2995 83.3482 49.0137 86.193C49.24 87.0858 49.0769 87.0124 48.1981 85.8261C47.376 84.6464 47.4396 85.0328 48.48 88.0244C49.2445 90.0633 50.1722 92.1756 50.562 92.7088C51.0014 93.302 51.001 93.7349 50.6605 93.6947C49.6956 93.5807 47.1874 89.4956 45.8354 85.8176C45.1629 83.952 44.575 82.7459 44.5179 83.1721C44.404 83.5917 44.9773 85.3374 45.7207 87.1031C47.5832 91.2744 46.059 89.7412 43.3884 84.7167C40.8099 79.8654 40.8389 79.2193 43.4478 81.6926ZM86.9062 89.9653C85.5073 91.3697 83.8595 93.3402 83.2697 94.2989C82.6232 95.251 81.7494 96.6092 81.3088 97.3149L80.506 98.5733L80.6845 97.2412C80.892 95.263 83.9252 91.1287 86.616 89.1191C87.9507 88.1942 89.0938 87.4091 89.2073 87.4225C89.3775 87.4426 88.2981 88.6141 86.9062 89.9653ZM111.604 98.8366C111.135 99.7555 109.516 101.946 108.01 103.717C105.346 106.812 105.283 106.859 105.511 105.153C105.775 103.182 107.722 100.273 110.264 98.0829C112.351 96.2727 112.777 96.5394 111.604 98.8366ZM90.2139 96.6889C90.0008 96.9885 88.3399 97.7666 86.459 98.4646C84.6278 99.2225 82.2286 100.346 81.1638 100.978L79.2187 102.156L80.547 100.418C81.2431 99.5264 81.7761 98.5609 81.7975 98.4011C81.7693 98.1812 82.1809 98.1216 82.6917 98.1819C84.6781 98.4166 85.1536 98.3104 84.842 97.624C84.6578 97.2775 84.736 97.1244 84.9912 97.371C85.2536 97.5644 86.4316 97.3788 87.5885 96.92C89.9448 96.1158 90.8247 96.0032 90.2139 96.6889ZM105.713 101.93C105.116 102.509 104.512 104.007 104.347 105.232C104.083 107.204 103.6 107.796 99.9863 110.671C95.3357 114.398 93.1767 116.741 91.6699 119.811C90.2198 122.887 90.5836 120.603 92.1904 116.787C94.0532 112.352 97.7397 107.645 102.369 103.646C106.14 100.464 108.12 99.4535 105.713 101.93ZM104.484 111.527C104.164 112.193 101.884 114.576 99.3425 116.766C93.9958 121.385 91.3534 124.753 91.0178 127.257C90.6393 130.081 89.7237 130.46 89.9248 127.67C90.2397 124.459 92.2021 119.711 94.4039 117.048C95.2988 115.963 97.9333 113.514 100.149 111.611C103.713 108.676 104.274 108.363 104.614 109.269C104.826 109.836 104.747 110.855 104.484 111.527ZM105.772 115.685C105.557 117.716 101.636 123.315 97.9999 126.783C93.6328 130.976 91.4163 134.179 90.5477 137.648C90.0279 139.806 89.9846 140.559 90.4534 140.073C91.1991 139.241 91.2626 139.627 90.5733 140.899C89.5287 142.67 89.2897 140.152 89.9752 135.037C90.5251 130.934 91.0445 129.209 92.4303 126.612C94.1927 123.356 98.5607 118.297 101.578 116.001C102.423 115.289 103.616 114.131 104.248 113.286C105.3 111.894 105.413 111.908 105.682 112.914C105.83 113.527 105.893 114.779 105.772 115.685ZM108.086 122.508C108.921 124.88 109.664 127.511 109.727 128.331C109.895 130.949 107.508 134.564 102.58 139.07C94.5774 146.298 92.1407 149.853 93.4228 152.332C93.7344 153.018 93.9333 152.825 94.0975 151.599C94.4403 149.042 98.07 144.329 103.445 139.497C106.328 136.914 108.835 134.125 109.404 132.893L110.434 130.796L110.511 132.808C110.531 133.947 110.182 136.125 109.733 137.75C108.929 140.74 107.445 142.351 102.098 146.536C99.5919 148.46 96.1392 153.573 95.8536 155.704C95.5323 158.102 96.405 158.043 96.9038 155.612C97.5236 152.708 99.4984 150.018 103.823 146.145C105.925 144.228 107.735 142.764 107.778 142.877C108.182 143.304 106 146.673 104.644 147.757C102.841 149.168 102.741 149.481 103.933 149.622C104.387 149.676 105.282 149.023 105.85 148.225C106.475 147.432 107.065 146.907 107.157 147.08C107.504 147.5 105.664 150.043 102.632 153.311C101.346 154.729 99.8047 156.766 99.2079 157.778C98.2911 159.456 98.2272 159.503 98.6471 158.091C98.882 157.198 99.3796 156.066 99.6781 155.56C100.062 154.848 100.026 154.681 99.48 154.887C98.9831 155.154 99.097 154.734 99.8145 153.682C100.447 152.837 101.114 152.158 101.284 152.178C101.398 152.191 101.22 152.657 100.808 153.15C99.3236 155.194 100.062 154.848 102.029 152.645C104.415 149.895 104.401 150.002 103.209 149.861C101.166 149.62 97.2157 155.865 97.2695 159.335C97.2827 160.528 97.2181 161.44 97.1045 161.427C96.8775 161.4 94.0731 155.223 92.6925 151.758C91.5596 149.026 91.5318 148.374 92.2658 144.617C92.9213 141.447 93.5471 139.789 95.3941 137.192C96.6232 135.335 97.5542 133.55 97.37 133.204C97.193 132.804 97.2569 132.758 97.6256 133.018C98.4127 133.598 105.657 124.711 106.469 122.1C106.81 120.841 106.889 119.822 106.577 119.569C105.946 119.115 104.958 121.326 105.255 122.552C105.495 123.338 98.4277 132.625 98.0379 132.092C97.9387 131.972 99.4162 129.981 101.348 127.612C103.337 125.248 104.836 123.098 104.758 122.818C104.589 121.932 94.736 135.22 93.3569 138.197C92.6319 139.735 91.9561 141.766 91.8276 142.725C91.5562 144.75 90.5977 145.449 90.3508 143.85C90.2591 143.244 90.3658 142.877 90.5714 143.064C90.7841 143.197 91.1111 142.478 91.3107 141.419C92.1165 136.697 95.2573 131.331 100.676 125.313C102.842 122.917 104.867 120.287 105.144 119.508C105.421 118.729 105.855 118.076 106.082 118.103C106.366 118.137 107.258 120.082 108.086 122.508ZM90.3081 119.217C89.2485 121.96 88.0763 131.998 88.3488 136.847C88.6906 143.762 92.1648 154.835 96.0897 161.686C96.6494 162.672 97.1027 163.592 97.0813 163.752C97.0598 163.911 95.1166 162.924 92.7621 161.563C89.2801 159.582 88.0393 158.516 86.3103 155.93C84.9143 153.871 84.2133 152.218 84.3418 151.259C84.4489 150.46 83.9328 148.288 83.2108 146.362C82.4887 144.437 81.973 141.832 82.0237 140.593C82.0816 139.301 81.9906 137.828 81.8918 137.275C81.4178 135.65 82.0842 136.27 83.3735 138.695C84.7477 141.348 84.8319 142.44 83.4926 140.387C82.9612 139.621 82.4932 139.241 82.4503 139.561C82.4146 139.827 83.3427 141.506 84.4977 143.212C86.0851 145.565 86.4745 146.531 85.9561 146.957C85.3029 147.53 85.4446 147.763 86.4523 147.557C86.6865 147.531 86.8285 147.331 86.7507 147.051C86.6094 146.385 87.716 146.732 88.1339 147.485C88.311 147.885 88.956 148.665 89.5303 149.111C90.0975 149.611 89.4739 148.672 88.0918 146.939C86.7665 145.213 85.9659 143.873 86.3064 143.913C86.647 143.954 86.9943 144.373 87.1642 144.827C87.2773 145.273 87.6246 145.693 87.9651 145.733C88.3057 145.773 87.6257 144.394 86.4707 142.688C82.7292 137.05 82.2338 135.584 83.0028 132.427C83.9 128.744 86.345 123.837 86.9689 124.343C87.288 124.543 87.3591 124.444 87.2316 124.104C86.7712 123.238 87.709 121.833 88.3897 122.346C88.7017 122.6 88.7798 122.446 88.546 122.04C88.2841 121.414 90.6155 116.493 91.0124 116.973C91.0549 117.086 90.8057 118.085 90.3081 119.217ZM57.795 114.023C58.2987 114.137 58.6745 114.344 58.4757 114.537C58.3336 114.736 58.8159 115.01 59.6105 115.104C60.3411 115.244 61.3624 115.798 61.8657 116.344C62.369 116.891 63.0001 117.344 63.3406 117.385C63.6811 117.425 64.2059 117.812 64.546 118.285C64.9711 118.985 64.7084 119.224 62.8351 119.436C61.6003 119.615 60.0461 120.027 59.3647 120.379C57.8101 121.224 57.2354 121.21 57.3639 120.251C57.4211 119.825 58.0886 119.146 58.8268 118.8C59.5721 118.401 59.9059 118.061 59.5654 118.021C58.487 117.894 56.9106 119.331 56.7392 120.61C56.4536 122.742 50.145 123.783 47.9469 122.116C46.9046 121.289 49.2271 118.586 52.0664 117.19L54.1675 116.139L52.4148 116.311C49.9029 116.555 47.9792 117.573 46.6581 119.257C45.6849 120.495 45.2591 120.662 44.1029 120.254C43.3369 119.947 41.8826 119.613 40.861 119.492C39.1087 119.231 39.1159 119.178 40.1525 118.326C40.7347 117.854 41.2884 117.594 41.4444 117.721C41.5364 117.894 42.2108 117.595 42.9065 117.136C44.873 115.799 52.3731 115.331 54.7136 116.366C55.7492 116.813 57.0899 117.133 57.6789 117.041C58.275 116.895 59.8285 117.349 61.1335 117.936C62.4385 118.523 63.5947 118.93 63.7864 118.79C63.9709 118.704 63.7796 118.411 63.3399 118.251C62.9072 118.037 61.886 117.483 60.964 117.05C57.73 115.369 52.381 114.412 48.6911 114.842C46.7539 115.101 46.0728 115.02 46.584 114.648C47.9258 113.669 51.992 113.013 54.3543 113.454C55.7022 113.722 57.2274 113.956 57.795 114.023ZM49.1354 117.98C48.8016 118.319 48.0202 119.418 47.4305 120.377C46.8407 121.335 46.2514 121.861 46.0672 121.515C45.7981 120.942 48.767 117.287 49.5049 117.374C49.6751 117.394 49.5188 117.701 49.1354 117.98ZM63.6095 134.737C66.7443 136.298 68.7789 138.325 68.5932 139.71C68.5218 140.243 68.6774 140.803 68.9397 140.996C69.195 141.243 69.3656 140.83 69.281 140.17C69.1968 139.078 69.2607 139.031 69.714 139.951C69.9903 140.47 69.9753 141.443 69.7122 142.116C69.307 142.988 69.3495 143.101 69.8892 142.515C70.2869 142.129 70.5849 142.056 70.5421 142.376C70.5064 142.642 70.8037 143.435 71.1792 144.075C71.8524 145.075 71.8738 144.915 71.3292 142.956C70.9755 141.723 70.2816 140.018 69.7715 139.091C68.5458 137.052 69.4539 137.159 71.1265 139.306C72.1613 140.619 74.5113 147.175 74.3613 148.294C74.3399 148.454 73.2623 147.46 71.9437 146.114C65.4287 139.661 50.1008 134.007 40.9544 134.713C39.3224 134.845 37.8181 134.884 37.7189 134.764C37.5204 134.524 46.9517 132.553 49.1088 132.375C49.7546 132.289 52.6634 132.524 55.5651 132.813C59.602 133.235 61.5527 133.736 63.6095 134.737ZM57.7595 138.809L61.902 140.165L58.9999 140.309C53.0397 140.471 50.1726 141.215 47.4818 143.224C43.6479 146.019 44.0592 146.393 47.9426 143.658C49.7246 142.407 51.4141 141.416 51.7546 141.456C52.0384 141.489 50.8669 142.488 49.0992 143.632C47.0759 144.963 45.89 146.068 45.996 146.567C46.3144 147.633 44.6192 146.946 40.8751 144.338C32.2666 138.45 32.4297 138.524 28.4139 138.374C24.8026 138.218 24.7458 138.211 26.4421 137.6C27.4145 137.228 28.8691 137.129 29.7629 137.343C30.5928 137.603 31.2314 137.57 31.1393 137.397C30.9127 136.937 34.518 135.847 36.8454 135.689L38.3071 135.537L36.7386 136.056C35.9012 136.281 34.7371 136.793 34.1763 137.106C33.6084 137.472 32.8563 137.491 32.4876 137.231C31.9557 136.898 31.9486 136.951 32.388 137.544C32.8841 138.144 33.1608 138.231 33.9132 137.779C34.4173 137.459 36.6883 136.862 38.8882 136.364C42.4436 135.647 43.5362 135.668 48.268 136.497C51.198 137.006 55.4968 138.055 57.7595 138.809ZM151.6 148.865C151.11 149.078 150.57 149.664 150.449 150.137C150.122 151.289 148.127 152.839 145.749 153.803C143.251 154.807 143.436 153.855 146.07 152.272C147.142 151.586 148.107 150.834 148.143 150.568C148.221 149.982 151.097 148.319 151.891 148.413C152.232 148.453 152.09 148.653 151.6 148.865ZM85.9663 143.44C85.9234 143.76 85.5333 143.66 85.1292 143.233C84.7251 142.806 84.3993 142.227 84.435 141.96C84.4778 141.64 84.868 141.741 85.272 142.167C85.6761 142.594 86.002 143.174 85.9663 143.44ZM145.857 151.705C144.97 152.304 143.465 153.642 142.52 154.667C141.291 156.092 140.106 156.763 137.97 157.215C134.294 157.971 130.936 159.361 131.255 159.994C131.397 160.227 130.523 161.152 129.317 161.984C124.922 165.092 127.607 161.836 133.088 157.504C134.7 156.233 138.497 154.138 141.493 152.868C147.597 150.341 148.314 150.155 145.857 151.705ZM65.8449 142.579C66.32 142.906 65.8941 143.072 64.6665 143.197C60.3098 143.441 56.3196 146.542 56.5158 149.379C56.5858 150.579 56.4012 150.665 54.5283 150.444C53.3931 150.31 51.2792 149.735 49.7472 149.121C47.3285 148.24 47.0236 147.933 47.3439 146.835C48.0343 144.264 53.3085 141.477 58.1903 141.188C60.6951 140.996 64.5188 141.719 65.8449 142.579ZM118.116 150.918C117.093 151.664 116.163 152.149 116.014 151.969C115.717 151.609 118.954 149.393 119.578 149.467C119.805 149.494 119.145 150.12 118.116 150.918ZM69.0928 144.586C69.6671 145.033 69.4754 145.173 68.1132 145.012C65.3322 144.683 63.4153 146.081 63.0725 148.638C62.844 150.343 62.5456 150.849 61.6656 150.962C59.3807 151.233 59.0984 149.468 61.0022 146.878C63.1191 143.989 66.9514 142.926 69.0928 144.586ZM61.2589 145.393C59.3202 147.383 58.6733 148.768 59.1973 150.021C59.8134 151.447 59.3022 151.82 57.9336 150.846C56.0757 149.652 57.1492 147.235 60.2302 145.326C62.367 144.008 62.6507 144.042 61.2589 145.393ZM106.5 151.549C105.739 153.786 102.678 157.701 101.542 158C100.534 158.206 99.3684 160.882 99.2387 163.14C99.1234 165.292 98.5415 165.331 97.8905 163.306C97.4304 162.007 97.6225 161.434 99.498 158.624C101.587 155.515 105.074 151.435 104.967 152.234C104.938 152.447 104.128 153.759 103.141 155.103C102.146 156.501 101.478 157.613 101.649 157.633C102.103 157.687 105.264 153.027 105.968 151.215C106.8 148.878 107.332 149.211 106.5 151.549ZM71.4326 146.487C71.56 146.826 71.1909 146.999 70.5666 146.926C69.9422 146.852 69.2326 146.984 69.0195 147.284C68.4016 148.023 67.4014 147.742 67.9625 146.997C68.2324 146.704 68.1899 146.591 67.9344 146.777C67.1819 147.229 66.8188 148.648 67.3863 148.715C67.6134 148.742 68.1742 148.429 68.6286 148.05C69.7434 147.045 72.1625 147.493 73.6938 148.973L74.9699 150.206L73.601 149.666C71.4093 148.811 69.4724 148.637 68.1877 149.188C66.3422 150.053 66.0302 149.8 66.5996 147.702C67.0127 145.91 67.027 145.804 66.1039 146.669C65.5713 147.201 65.2086 148.187 65.2364 148.84C65.2642 149.493 64.9515 150.105 64.5328 150.218C63.4044 150.464 63.8825 147.327 65.118 146.282C66.1546 145.43 70.9721 145.62 71.4326 146.487ZM131.591 157.49C130.554 158.341 129.191 159.48 128.545 159.999C124.221 163.439 116.91 174.971 116.339 179.233C115.989 181.844 115.712 181.324 114.787 176.181C114.3 173.796 113.868 172.284 113.783 172.923C113.647 173.503 113.958 175.488 114.347 177.32C115.039 180.325 114.719 189.597 113.897 188.417C113.755 188.184 113.36 186.405 112.992 184.413C112.286 180.216 113.467 169.259 114.901 167.589C115.597 166.697 115.647 166.757 115.489 168.362C115.354 169.374 115.522 171.559 115.812 173.271L116.369 176.422L117.073 174.611C117.436 173.625 118.183 171.062 118.646 168.897C119.102 166.786 119.757 164.482 120.198 163.776C121.256 161.898 121.058 161.658 119.801 163.296C119.105 164.188 118.265 166.579 117.731 169.276C116.776 174.251 116.188 173.045 116.831 167.384C117.182 164.34 117.253 164.24 120.305 162.111C122.087 160.86 124.636 159.483 126.084 159.004C127.531 158.526 129.554 157.628 130.555 157.043C133.253 155.413 133.849 155.7 131.591 157.49ZM139.679 157.796C139.019 157.988 137.16 158.526 135.485 158.978C133.86 159.49 132.242 159.948 131.887 160.014C131.581 160.141 131.61 159.928 131.993 159.648C132.767 159.036 139.41 157.222 140.311 157.383C140.652 157.423 140.339 157.603 139.679 157.796ZM139.926 159.827C138.944 162.418 138.809 162.564 136.88 162.336C134.439 162.048 128.158 164.175 125.765 166.111C124.793 166.917 124.395 167.303 124.899 166.983C126.915 165.706 126.723 166.712 124.607 168.302C123.322 169.287 121.93 170.638 121.447 171.231C121.014 171.883 120.502 172.256 120.346 172.129C120.056 171.716 121.533 169.725 123.152 168.401C123.862 167.835 124.274 167.343 124.104 167.322C123.877 167.296 124.339 166.43 125.113 165.385C125.88 164.393 126.74 163.574 126.967 163.601C127.194 163.628 128.677 162.883 130.239 161.985C132.681 160.541 138.685 158.328 140.055 158.435C140.289 158.409 140.26 159.055 139.926 159.827ZM138.581 163.836C138.517 164.316 137.445 164.568 135.43 164.547C133.756 164.565 131.215 165.023 129.76 165.555C126.836 166.725 126.425 166.785 127.043 166.046C127.312 165.753 128.902 165.075 130.599 164.463C135.73 162.742 138.76 162.504 138.581 163.836ZM136.511 169.816L135.459 172.074L132.543 171.892C127.804 171.548 122.048 174.062 119.199 177.677C118.162 178.962 118.531 178.789 120.988 176.806C122.87 175.242 124.36 174.443 124.85 174.664C125.282 174.877 125.46 174.844 125.332 174.504C124.929 173.644 128.633 172.675 132.081 172.757L135.246 172.806L133.364 175.236C130.92 178.412 129.947 179.217 125.894 181.499C123.708 182.756 122.196 183.281 121.543 182.987C121.054 182.767 119.606 182.813 118.471 183.112C117.279 183.404 116.349 183.456 116.385 183.19C116.485 182.444 120.133 181.468 122.793 181.403C124.177 181.404 125.135 181.138 124.993 180.905C124.724 180.332 122.695 180.417 119.423 181.167C118.004 181.433 117.139 181.439 116.954 181.092C116.593 180.346 118.663 174.799 119.287 174.873C119.514 174.899 119.642 174.373 119.621 173.667C119.594 173.014 119.622 172.801 119.799 173.201C119.92 173.594 121.07 172.756 122.632 170.992C125.679 167.617 129.434 165.841 134.323 165.498C137.345 165.314 137.516 165.334 137.543 166.42C137.514 167.066 137.08 168.585 136.511 169.816ZM81.7785 161.782C82.5516 162.035 83.2038 162.762 83.182 163.355C83.3436 165.16 84.4694 167.945 85.2779 168.365C85.8736 168.652 85.8526 168.379 85.208 167.166C84.1311 165.307 83.6221 163.082 84.3032 163.162C84.9843 163.243 86.1754 164.25 86.0615 164.669C85.7199 165.928 85.9037 166.707 86.9099 168.234C87.5902 169.18 88.519 169.993 88.9731 170.047C89.6541 170.127 89.5978 169.688 88.8471 167.975C88.316 166.776 87.7988 165.903 87.6143 165.989C87.4793 166.136 87.727 166.869 88.145 167.622C88.9595 169.288 89.0512 169.894 88.2642 169.314C87.4275 168.674 85.9623 164.549 86.516 164.29C87.4955 163.864 90.0973 166.391 93.2651 170.716C95.3557 173.615 96.0075 174.775 95.0998 174.235C94.3623 173.715 93.3911 172.788 92.9092 172.082C92.4202 171.428 92.1153 171.122 92.2356 171.515C92.4127 171.915 91.682 171.774 89.8804 171.02C88.4619 170.42 86.71 169.725 85.9864 169.532C84.2131 168.997 80.9167 165.631 79.7338 163.272C79.238 162.239 78.6497 161.466 78.4581 161.606C77.8758 162.078 80.5682 166.51 81.9014 167.317C82.6532 167.731 83.2204 168.231 83.1918 168.444C83.099 169.137 75.0482 166.399 72.3818 164.785C69.453 162.978 66.4257 160.185 66.54 159.332C66.6114 158.799 79.147 160.767 81.7785 161.782ZM66.39 160.451C66.9422 161.924 69.5868 164.13 71.977 165.225C73.7146 166.025 73.1895 166.072 66.9392 165.387C60.8591 164.723 59.7951 164.489 58.5543 163.423C57.5759 162.549 56.9163 162.309 56.469 162.635C56.0217 162.961 55.6812 162.921 55.497 162.574C55.2279 162.001 56.5411 161.236 60.0472 160.027C61.8003 159.422 62.1976 159.469 62.6227 160.168C63.388 161.341 66.5926 164.102 67.8481 164.629C68.8836 165.076 68.8836 165.076 67.9477 164.316C64.8208 161.835 62.9846 160.049 63.0489 159.569C63.1775 158.61 65.9085 159.312 66.39 160.451ZM55.5816 163.234C55.9217 163.707 56.631 164.007 57.22 163.915C57.809 163.822 58.4686 164.062 58.596 164.402C58.7802 164.748 58.5742 164.995 58.1698 165.001C55.7718 164.826 53.3805 165.031 50.5844 165.675L47.4335 166.385L49.2933 165.414C50.2942 164.829 51.856 163.931 52.7362 163.385C54.6317 162.147 54.8588 162.174 55.5816 163.234ZM63.5323 166.717C61.3752 166.895 56.3082 168.137 52.9227 169.307C51.5316 169.792 48.7994 170.389 46.8551 170.701C44.563 171.026 43.832 171.318 44.7968 171.432C46.6626 171.707 49.5651 171.129 55.9951 169.183C64.4194 166.551 67.1512 166.387 74.7633 167.665C81.7511 168.869 86.1702 170.311 81.282 169.788C77.9263 169.446 74.3356 169.996 65.6989 172.061C61.8241 173.011 56.8566 173.939 54.7491 174.178C51.5275 174.555 51.1656 174.674 52.3146 175.135C54.3432 175.916 55.599 176.01 54.3154 175.263C53.514 174.789 53.7482 174.763 55.252 175.157C57.2028 175.658 61.4678 174.809 69.1257 172.303C72.3194 171.273 76.3999 170.51 79.1742 170.459C80.8558 170.387 80.5435 170.567 77.9533 170.964C76.009 171.276 70.9133 172.731 66.6762 174.233C59.962 176.579 58.4789 176.891 55.9816 176.596C51.8951 176.114 46.5116 174.125 43.6185 172.051C41.9876 170.884 41.1152 170.51 40.8878 170.916C40.7243 171.276 40.1778 171.482 39.667 171.422C39.0994 171.355 35.7211 172.471 32.1368 173.834C28.5454 175.25 25.4723 176.24 25.3731 176.12C25.2242 175.94 27.1908 174.603 29.6471 173.053C33.9278 170.365 37.959 169.109 39.1644 170.009C39.7387 170.456 39.8594 170.416 51.1497 168.34C55.2869 167.583 58.5017 166.826 58.2818 166.746C58.0123 166.606 53.9462 167.263 49.22 168.112C43.6636 169.133 40.1511 169.53 39.2715 169.21C38.1154 168.803 38.307 168.663 40.8261 168.365C42.4653 168.18 45.4741 167.669 47.6102 167.218C52.89 166.109 56.0548 165.726 60.4822 165.815C64.4555 165.852 66.4487 166.466 63.5323 166.717ZM92.2623 173.467C93.8579 174.467 95.5316 175.314 95.9289 175.361C96.3262 175.408 96.6382 175.661 96.5954 175.981C96.5597 176.247 95.9564 176.447 95.2753 176.366C93.5159 176.159 89.2795 176.795 82.4526 178.262C79.3656 178.926 75.5407 179.502 73.9301 179.474L71.0423 179.512L74.3853 178.229C81.0073 175.709 86.3443 174.175 88.5296 174.216L90.7788 174.211L88.4939 174.483C85.62 174.847 79.2964 176.861 77.2874 178.085C76.4142 178.577 77.5993 178.338 79.8493 177.467C82.1488 176.656 85.4418 175.746 87.2159 175.414C90.984 174.831 91.2757 173.945 87.9128 173.656C85.458 173.475 80.8378 174.823 73.9884 177.749C70.3755 179.325 69.5524 179.444 66.7785 179.063C65.0829 178.808 62.8484 178.274 61.7986 177.933L59.8692 177.272L62.8856 176.275C64.518 175.71 67.8466 174.534 70.2668 173.683C80.4799 170.18 86.7735 170.112 92.2623 173.467ZM101.523 180.081C106.38 184.282 107.74 186.607 110.917 196.455C114.194 206.422 114.887 209.427 113.123 205.809C108.838 196.913 106.28 192.768 100.993 185.756C97.655 181.411 94.8769 177.618 94.7991 177.339C94.7213 177.059 95.4877 176.933 96.4525 177.047C97.7012 177.194 99.3039 178.141 101.523 180.081ZM59.0272 174.52C58.062 174.839 56.8273 175.018 56.3732 174.965C55.9192 174.911 56.48 174.598 57.6083 174.353C60.3477 173.702 61.3621 173.876 59.0272 174.52ZM120.606 183.959C119.186 184.658 119.051 184.804 116.829 186.761L115.196 188.192L115.36 186.533C115.61 184.668 116.519 183.91 119.052 183.505C121.522 183.147 121.969 183.254 120.606 183.959ZM86.0843 187.73L87.7298 188.357L85.7434 188.123C84.665 187.995 83.1612 187.601 82.3951 187.294C81.0901 186.707 81.0901 186.707 82.736 186.901C83.7009 187.015 85.2048 187.41 86.0843 187.73ZM140.117 200.987L141.819 202.054L140.116 202.286C139.173 202.445 137.292 203.143 135.865 203.894C133.437 205.231 133.437 205.231 136.298 203.242C138.208 201.898 138.932 201.225 138.173 201.298C136.768 201.457 132.508 204.851 132.372 205.863C132.315 206.29 130.597 207.927 128.488 209.464L124.775 212.219L125.892 209.049C127.122 205.46 128.572 203.249 130.474 201.958C131.475 201.373 131.17 201.932 129.415 204.269C128.087 206.007 126.95 208.037 126.85 208.783C126.728 209.689 127.133 209.25 128.128 207.419C130.587 202.838 132.93 200.408 135.052 200.064C137.756 199.679 138.21 199.733 140.117 200.987ZM93.7318 197.348C97.3777 198.536 99.7108 200.057 100.199 201.576C100.447 202.309 101.85 203.882 103.297 205.135C105.892 207.282 107.897 210.388 107.066 210.993C106.875 211.133 106.967 211.306 107.364 211.353C107.875 211.413 107.824 212.652 107.14 216.036C106.548 219.159 106.534 219.699 107.032 217.701C107.95 214.291 108.902 213.213 108.602 215.884C107.965 222.358 107.636 224.809 107.537 224.689C106.488 223.482 103.386 216.512 103.72 216.173C103.933 215.873 103.827 215.807 103.458 215.98C102.357 216.445 102.131 215.119 102.455 210.557C102.663 208.146 102.615 205.921 102.31 205.614C101.963 205.194 101.849 205.614 101.961 206.926C102.193 209.497 101.605 208.724 101.281 205.98C101.091 204.388 100.999 204.214 100.813 205.167C100.585 206.439 101.099 211.209 101.693 213.66C101.947 214.773 101.947 214.773 100.884 213.673C99.8278 212.52 98.5483 207.01 98.4171 202.827C98.3543 201.574 98.1919 200.635 98.0073 200.722C97.8724 200.868 97.3052 200.368 96.8233 199.662C95.9517 198.422 95.9446 198.475 96.6801 201.16C97.0549 202.666 97.6627 205.444 97.9875 207.323L98.5806 210.64L94.1356 206.381C91.477 203.847 89.6909 201.688 89.7623 201.155C89.9479 199.77 88.2825 197.57 86.8778 197.296C85.757 197.055 85.8419 197.282 87.4225 199.255C88.358 200.448 89.1304 201.567 89.109 201.727C89.0876 201.887 87.7969 201.193 86.3148 200.206C84.7831 199.159 82.5704 198.032 81.4567 197.738C79.2436 197.044 79.2018 196.065 81.3371 196.479C82.9759 196.727 89.3616 196.832 89.745 196.552C90.1355 196.219 90.9229 196.366 93.7318 197.348ZM146.918 205.308C150.605 208.342 151.668 210.308 148.399 208.027C146.924 206.987 145.434 206.486 142.71 206.164C139.021 205.728 139.106 205.522 143.456 204.899C145.223 204.621 145.287 204.574 144.045 204.373C143.258 204.226 141.306 204.591 139.624 205.096C134.074 206.93 132.243 207.255 132.698 206.443C132.926 206.037 133.238 205.857 133.444 206.044C133.656 206.177 134.87 205.725 136.127 204.954C138.32 203.643 141.706 202.473 143.018 202.574C143.359 202.614 145.096 203.848 146.918 205.308ZM78.8669 197.703C82.4208 198.718 86.3283 200.966 86.2069 201.872C86.1641 202.191 86.3768 202.325 86.6253 202.192C87.4841 201.806 92.2276 205.56 95.3395 209.013C96.9911 210.886 98.9618 212.959 99.7274 213.699C100.5 214.385 101.535 215.698 102.052 216.571C102.938 218.137 102.931 218.191 101.845 218.117C101.27 218.103 100.845 217.836 101.001 217.53C101.279 216.751 99.087 215.896 95.4049 215.407C92.4608 215.005 87.7556 216.128 87.6057 217.247C87.4486 218.419 85.5482 217.112 83.0249 213.999C81.1396 211.72 79.4109 208.701 78.0799 205.296L76.0055 200.125L78.4678 199.821C81.5191 199.423 81.2924 198.964 78.1987 199.248C75.63 199.486 74.1904 198.612 75.7946 197.827C76.5328 197.481 76.4832 197.421 75.4898 197.52C74.8369 197.66 73.851 197.273 73.2909 196.719C72.2204 195.673 71.9366 195.639 78.8669 197.703ZM126.96 204.52C126.391 205.319 125.361 207.85 124.663 210.041L123.439 214.01L123.094 210.992C122.77 208.247 122.842 207.715 123.986 206.063C124.987 204.612 127.181 202.869 127.919 202.956C128.033 202.969 127.592 203.675 126.96 204.52ZM96.9366 216.454C94.3894 216.532 90.5642 217.542 90.1875 218.201C89.7327 219.013 90.7047 219.074 94.2387 218.517C98.5318 217.888 103.611 219.57 105.389 222.216C105.97 223.042 105.942 223.255 105.147 223.595C104.657 223.807 104.458 224 104.742 224.034C104.969 224.061 105.31 224.101 105.586 224.188C106.374 224.335 107.295 225.635 107.989 227.34L108.619 229.093L107.222 227.466C106.421 226.56 104.698 225.22 103.365 224.413C101.606 223.339 101.351 223.092 102.465 223.386C103.302 223.593 103.877 223.607 103.799 223.327C103.657 223.094 103.92 222.854 104.282 222.735C105.701 222.469 100.835 220.92 98.969 221.079C97.2731 221.257 97.3298 221.264 99.9545 221.899C101.515 222.3 100.494 222.179 97.7835 221.751C92.7111 220.881 87.3629 219.058 87.47 218.259C87.5486 217.673 90.4375 216.336 92.3179 216.071C93.1482 215.899 94.8723 215.94 96.121 216.087C97.4192 216.295 97.7526 216.388 96.9366 216.454ZM99.9725 217.462C99.2839 217.868 92.9336 217.93 93.5087 217.511C93.7004 217.371 95.2828 217.179 96.9573 217.16C98.6318 217.142 100.136 217.103 100.313 217.07C100.427 217.083 100.292 217.23 99.9725 217.462ZM92.6995 217.957C92.6852 218.063 92.2522 218.283 91.72 218.382C91.2445 218.488 91.0246 218.408 91.2377 218.109C91.6497 217.616 92.7566 217.53 92.6995 217.957ZM109.396 224.584C109.754 228.794 109.533 230.013 108.847 227.388C108.444 225.662 108.322 219.694 108.768 220.233C108.917 220.413 109.178 222.339 109.396 224.584Z" fill="#B3C4A9"/>
<path d="M91.065 64.5301C90.3689 65.4221 87.5856 67.6915 84.8452 69.6411C80.5073 72.7552 76.1898 77.0084 78.3333 76.0708C78.8798 75.8647 78.9719 76.038 78.6096 76.5906C77.8421 78.0155 78.41 77.6496 80.3134 75.4928C81.3218 74.4211 82.2874 73.6691 82.493 73.8558C82.6347 74.0891 82.1232 74.8947 81.3279 75.6668C80.5325 76.4388 79.8436 77.2776 79.8079 77.544C79.7722 77.8105 79.3035 78.2964 78.7994 78.6157C78.2954 78.9351 77.8195 79.4743 77.7767 79.794C77.6981 80.3801 78.7915 79.5349 82.4559 75.8541C83.5992 74.636 84.2811 73.8505 83.9191 73.9701C82.6911 74.5287 82.5434 73.0499 83.7646 72.1116C84.3468 71.6391 84.6949 71.193 84.4678 71.1662C84.2408 71.1394 85.1425 70.434 86.4062 69.609C87.7195 68.8439 89.2383 68.2656 89.8059 68.3326C90.3096 68.4462 90.6787 68.2733 90.537 68.0401C90.4024 67.7536 90.0194 67.6001 89.7142 67.7264C89.4018 67.906 89.1891 67.7726 89.2319 67.4529C89.2676 67.1865 89.6086 66.7938 89.9138 66.6674C90.652 66.3216 92.8185 63.4923 92.5775 63.139C92.4783 63.0191 91.8179 63.6447 91.065 64.5301ZM81.7484 73.389C80.3638 74.6868 79.1211 75.785 79.0501 75.8848C78.9223 75.978 78.8798 75.8647 78.9227 75.545C78.9941 75.0122 83.4462 71.0455 83.9003 71.0992C84.0705 71.1193 83.0692 72.1377 81.7484 73.389Z" fill="#B3C4A9"/>
<path d="M77.0114 54.101C76.2285 56.9314 76.2082 63.9655 76.9991 68.3891C77.2532 69.9347 77.2532 69.9347 77.4742 68.7158C77.5742 67.9699 77.5542 66.3978 77.3708 65.1854C77.1874 63.9729 77.2757 60.3027 77.4771 57.0789C77.8296 51.4372 77.7943 51.2706 77.0114 54.101Z" fill="#B3C4A9"/>
<path d="M72.6243 72.2027C73.0397 75.9865 74.2049 82.3488 74.4534 82.2157C74.8368 81.9363 73.6309 73.2959 73.043 72.0898C72.5826 71.2235 72.5258 71.2168 72.6243 72.2027Z" fill="#B3C4A9"/>
<path d="M42.6048 88.4137C44.1075 90.1068 45.8373 91.8266 46.4187 92.2201C47.0073 92.5602 46.2774 91.5539 44.7604 89.9674C40.9325 85.8346 39.252 84.6077 42.6048 88.4137Z" fill="#B3C4A9"/>
<path d="M42.2343 90.751C42.9075 91.7507 45.4815 93.6244 46.3328 93.725C46.9571 93.7987 46.0355 92.9321 43.6671 91.245C42.0434 90.0248 41.71 89.9313 42.2343 90.751Z" fill="#B3C4A9"/>
<path d="M44.154 94.0632C44.0755 94.6493 49.8207 96.9518 51.2681 96.9062C51.9067 96.8734 50.5592 96.173 48.3179 95.2587C46.0695 94.3977 44.1826 93.8501 44.154 94.0632Z" fill="#B3C4A9"/>
<path d="M47.5665 94.412C47.9849 94.732 48.6303 95.0789 48.914 95.1124C49.2546 95.1526 49.12 94.8661 48.7017 94.546C48.2833 94.226 47.6947 93.8858 47.3542 93.8456C47.0704 93.8121 47.1482 94.0919 47.5665 94.412Z" fill="#B3C4A9"/>
<path d="M48.3221 98.6693C48.7682 99.6421 56.9543 101.8 57.0614 101.001C57.09 100.788 55.5508 100.227 53.6425 99.839C51.6774 99.4445 49.6132 98.93 49.0813 98.5966C48.3792 98.243 48.145 98.2695 48.3221 98.6693Z" fill="#B3C4A9"/>
<path d="M94.5729 85.6755L92.6846 86.8598L94.8353 85.8689C97.5964 84.6254 97.5964 84.6254 96.9721 84.5516C96.6883 84.5181 95.6378 85.0435 94.5729 85.6755Z" fill="#B3C4A9"/>
<path d="M87.1657 94.055C85.6822 94.7999 84.17 95.7579 83.893 96.1041C83.616 96.4503 84.4038 96.1644 85.6461 95.4993C86.8883 94.8341 89.0815 93.9565 90.4655 93.5246C92.6229 92.9134 92.8075 92.8269 91.495 92.726C90.6365 92.6787 88.7132 93.2634 87.1657 94.055Z" fill="#B3C4A9"/>
<path d="M86.5415 126.674C87.1929 128.267 86.8445 129.146 86.0367 127.86C85.321 126.747 85.321 126.747 85.5755 127.859C85.724 128.472 86.1912 129.718 86.6941 130.698C87.5158 132.31 87.5586 131.991 86.8512 129.526C86.6885 129.019 86.8377 128.766 87.0929 129.013C87.3553 129.206 87.6819 128.92 87.7605 128.334C87.8319 127.801 87.6691 127.295 87.3853 127.261C87.1015 127.228 87.0309 126.895 87.2511 126.542C87.4785 126.136 87.2944 125.789 86.8971 125.742C86.3295 125.675 86.237 125.935 86.5415 126.674Z" fill="#B3C4A9"/>
<path d="M85.0025 150.634C84.9526 151.007 85.1296 151.406 85.4416 151.66C85.7039 151.853 85.7532 152.346 85.5329 152.699C85.1563 153.358 88.5944 156.958 89.2262 156.545C89.3612 156.399 89.021 155.926 88.3828 155.525C87.7445 155.125 87.4044 154.652 87.5961 154.512C87.7878 154.373 88.5324 154.839 89.298 155.579C90.0708 156.266 90.3399 156.839 89.9994 156.799C89.6021 156.752 89.46 156.952 89.5875 157.292C89.722 157.578 90.1404 157.898 90.4241 157.932C90.7647 157.972 90.8571 157.712 90.6801 157.312C90.5031 156.913 90.567 156.866 90.9924 157.133C91.3044 157.386 91.3608 157.826 91.1477 158.125C90.8139 158.465 90.9699 158.591 91.5589 158.499C92.0983 158.346 92.4102 158.599 92.3531 159.025C92.2246 159.985 91.884 159.944 89.8419 158.404C88.8492 157.637 88.1967 157.344 88.3809 157.69C88.9192 158.836 91.7773 160.311 92.7497 159.938C94.1479 159.4 94.0205 159.06 91.298 156.573C89.958 155.387 87.9802 153.367 86.9808 152.22C85.9317 151.014 85.0454 150.314 85.0025 150.634ZM86.9725 153.573C87.5961 154.512 87.5322 154.559 86.7737 153.766C85.9016 152.959 85.675 152.499 86.129 152.553C86.2426 152.566 86.6395 153.046 86.9725 153.573Z" fill="#B3C4A9"/>
<path d="M54.715 114.201C55.1333 114.521 55.7787 114.868 56.0625 114.901C56.403 114.942 56.2685 114.655 55.8501 114.335C55.4318 114.015 54.8432 113.675 54.5026 113.635C54.2188 113.601 54.2966 113.881 54.715 114.201Z" fill="#B3C4A9"/>
<path d="M52.2792 117.756C50.2206 118.92 48.899 121.037 49.6432 121.937C49.9905 122.357 50.1965 122.111 50.3179 121.205C50.5179 119.713 51.4624 118.688 53.677 117.65C54.4791 117.258 54.9264 116.932 54.5859 116.892C54.2453 116.851 53.2091 117.27 52.2792 117.756Z" fill="#B3C4A9"/>
<path d="M59.4366 119.413C58.315 120.039 58.3079 120.092 59.6351 119.653C60.359 119.414 60.9765 119.108 60.9908 119.001C61.048 118.575 60.7499 118.648 59.4366 119.413Z" fill="#B3C4A9"/>
<path d="M43.1824 118.088C42.3303 118.854 42.3799 118.914 43.3808 118.328C43.9416 118.016 44.4528 117.643 44.4671 117.536C44.5242 117.11 44.0345 117.323 43.1824 118.088Z" fill="#B3C4A9"/>
<path d="M55.0188 133.452C54.9973 133.612 60.6557 137.852 62.3577 138.919C63.4214 139.586 63.3364 139.36 61.8551 137.507C60.714 136.127 59.7709 135.42 59.2811 135.633C58.8553 135.799 58.6922 135.726 59.0259 135.386C59.5799 134.694 58.5305 133.921 56.6151 133.586C55.7141 133.426 55.033 133.345 55.0188 133.452ZM58.6008 134.687C58.7354 134.973 58.5862 135.226 58.3024 135.193C57.9618 135.153 57.7138 134.853 57.7495 134.586C57.7923 134.266 57.9344 134.067 58.0479 134.08C58.2182 134.1 58.4734 134.347 58.6008 134.687Z" fill="#B3C4A9"/>
<path d="M59.6367 133.834C59.7927 133.961 61.2954 135.654 62.9895 137.64C64.6835 139.627 66.1085 141.04 66.1442 140.773C66.237 140.081 60.8428 133.868 60.105 133.781C59.7077 133.734 59.5303 133.768 59.6367 133.834Z" fill="#B3C4A9"/>
<path d="M65.3319 137.376C66.1965 138.669 67.2948 140.369 67.8191 141.189L68.7757 142.655L67.8905 140.656C67.4658 139.523 66.3107 137.817 65.4601 136.85L63.8014 135.031L65.3319 137.376Z" fill="#B3C4A9"/>
<path d="M41.5275 136.892C38.2064 137.582 34.9841 138.825 35.4306 139.365C35.5794 139.545 36.7149 139.246 37.9429 138.688C39.2205 138.189 41.8534 137.472 43.7907 137.213C45.7918 136.908 46.757 136.589 45.9624 136.496C45.1678 136.402 43.181 136.6 41.5275 136.892Z" fill="#B3C4A9"/>
<path d="M48.1885 138.815C44.7185 139.325 41.7446 140.435 40.0404 141.966C39.586 142.345 39.4793 142.712 39.8198 142.752C40.1036 142.785 40.7211 142.48 41.2394 142.054C42.8797 140.569 48.0036 139.334 52.9774 139.218C57.7243 139.075 57.8449 139.035 54.8936 138.687C53.1909 138.486 50.1896 138.51 48.1885 138.815Z" fill="#B3C4A9"/>
<path d="M148.768 150.21C148.555 150.509 148.774 150.589 149.25 150.483C150.322 150.231 150.542 149.878 149.747 149.784C149.407 149.744 148.981 149.91 148.768 150.21Z" fill="#B3C4A9"/>
<path d="M138.497 155.004C137.227 155.449 136.184 155.921 136.169 156.028C136.134 156.294 140.882 154.853 141.513 154.44C142.273 153.934 140.499 154.266 138.497 155.004Z" fill="#B3C4A9"/>
<path d="M56.8275 142.325C55.8055 142.638 53.9814 143.342 52.8598 143.968C50.6805 145.172 47.989 148.047 48.9538 148.161C49.2943 148.202 49.6067 148.022 49.6495 147.702C49.7567 146.903 54.0092 143.995 56.1242 143.271C57.1533 142.905 59.2184 142.554 60.6658 142.508L63.3338 142.39L61.0635 142.122C59.822 141.921 57.9062 142.02 56.8275 142.325Z" fill="#B3C4A9"/>
<path d="M124.287 161.228C123.776 162.033 123.065 163.465 122.702 164.451L122.112 166.275L123.085 164.604C123.611 163.692 124.208 163.113 124.399 163.406C124.654 163.653 124.683 163.44 124.577 162.94C124.414 162.434 124.649 161.541 125.125 161.002C125.551 160.403 125.729 159.937 125.615 159.923C125.445 159.903 124.848 160.482 124.287 161.228Z" fill="#B3C4A9"/>
<path d="M125.351 161.895C124.91 162.601 124.96 162.661 125.592 162.248C126.039 161.922 126.266 161.516 126.118 161.336C125.969 161.156 125.593 161.382 125.351 161.895Z" fill="#B3C4A9"/>
<path d="M113.253 179.031C113.38 179.804 113.719 181.143 113.995 182.096C114.448 183.448 114.555 183.515 114.414 182.416C114.287 181.643 113.954 180.251 113.671 179.351C113.218 177.999 113.112 177.932 113.253 179.031Z" fill="#B3C4A9"/>
<path d="M121.966 178.112C119.936 178.63 118.197 179.994 118.693 180.594C118.842 180.774 119.026 180.687 119.076 180.315C119.126 179.942 119.424 179.868 119.793 180.129C120.105 180.382 120.226 180.342 120.098 180.002C119.914 179.656 120.347 179.436 121.085 179.523C125.859 180.033 127.768 179.988 127.272 179.388C126.925 178.968 125.846 178.841 123.867 178.986C121.887 179.131 121.149 179.044 121.596 178.718C121.916 178.485 123.768 178.433 125.641 178.654C127.521 178.822 129.075 178.843 129.11 178.577C129.196 177.937 123.882 177.58 121.966 178.112Z" fill="#B3C4A9"/>
<path d="M90.2512 169.115C90.6334 170.135 91.0371 170.994 91.1506 171.008C91.6614 171.068 90.9894 168.769 90.2733 168.089C89.6141 167.416 89.6494 167.583 90.2512 169.115Z" fill="#B3C4A9"/>
<path d="M83.185 177.104C82.028 177.562 81.3466 177.915 81.6304 177.948C81.9709 177.989 83.1632 177.696 84.3201 177.238C85.477 176.779 86.2152 176.433 85.8747 176.393C85.5909 176.359 84.3419 176.645 83.185 177.104Z" fill="#B3C4A9"/>
<path d="M116.56 185.755C115.708 186.52 115.758 186.58 116.759 185.995C117.76 185.409 118.101 185.017 117.647 184.963C117.533 184.95 117.022 185.322 116.56 185.755Z" fill="#B3C4A9"/>
<path d="M90.6142 200.39C91.081 202.069 91.6618 203.328 91.967 203.202C92.8826 202.823 91.5674 197.58 90.5458 197.459C89.9782 197.392 90.0485 198.158 90.6142 200.39Z" fill="#B3C4A9"/>
<path d="M103.413 211.157C103.12 213.342 103.047 215.173 103.331 215.207C103.558 215.234 103.971 213.442 104.321 211.264C104.613 209.08 104.686 207.248 104.402 207.214C104.175 207.188 103.705 208.972 103.413 211.157Z" fill="#B3C4A9"/>
<path d="M105.7 215.595C105.422 217.673 105.321 219.285 105.449 219.192C105.967 218.766 107.179 211.873 106.725 211.819C106.441 211.786 105.986 213.464 105.7 215.595Z" fill="#B3C4A9"/>
<path d="M79.1346 200.441C77.6442 200.806 76.5933 201.765 77.5582 201.879C77.8987 201.919 77.9837 202.146 77.7705 202.445C77.2165 203.137 78.1318 203.191 79.0263 202.539C79.4097 202.26 81.1342 201.868 82.8869 201.696C84.9944 201.458 85.4841 201.245 84.4058 201.118C83.5615 200.964 81.8656 201.143 80.6734 201.435C79.4811 201.727 78.4238 201.873 78.2678 201.746C78.1757 201.573 78.9778 201.18 80.0566 200.875C82.2069 200.317 81.2849 199.883 79.1346 200.441Z" fill="#B3C4A9"/>
<path d="M80.0881 204.938C77.881 205.489 78.8102 205.87 81.4499 205.532C83.9193 205.174 90.2328 206.678 91.7359 207.938C92.3031 208.438 92.1825 208.478 91.1398 208.084C88.558 207.129 81.2225 205.938 80.1295 206.35C79.3984 206.643 80.4057 206.87 83.5416 207.132L88.0539 207.449L85.336 207.939C83.86 208.198 82.0998 208.856 81.4537 209.375C79.8987 210.653 80.5941 210.627 82.9508 209.39C84.4982 208.598 85.5484 208.506 88.6061 208.921C90.7061 209.169 93.43 209.924 94.735 210.511C96.4655 211.365 96.9124 211.472 96.5298 210.885C96.2464 210.419 95.289 209.819 94.4024 209.552C93.5228 209.231 92.8917 208.778 92.9913 208.465C93.5533 206.853 83.4875 204.095 80.0881 204.938Z" fill="#B3C4A9"/>
</svg>
