<svg width="78" height="214" viewBox="0 0 78 214" fill="none" xmlns="http://www.w3.org/2000/svg">
<path d="M7.27423 5.85158C7.69805 6.28566 7.57515 6.96454 7.13205 7.29427C6.69831 7.71832 6.01987 7.59525 5.69029 7.1518C5.26647 6.71772 5.38937 6.03884 5.83248 5.70911C6.26621 5.28506 6.94466 5.40813 7.27423 5.85158Z" fill="#677EA4" fill-opacity="0.8"/>
<path d="M7.08539 7.24641C6.70987 7.61354 6.13127 7.5397 5.80558 7.18612L5.74422 7.11174L5.73771 7.10552C5.3464 6.70473 5.45683 6.07286 5.87228 5.76337L5.87948 5.75677C6.25503 5.38985 6.83367 5.46349 7.15928 5.81706L7.22065 5.89144L7.22618 5.89776L7.29377 5.97544C7.60305 6.3763 7.48238 6.95055 7.09268 7.24078L7.09161 7.2399L7.08539 7.24641Z" stroke="#677EA4" stroke-opacity="0.8" stroke-width="0.133333"/>
<path d="M3.13677 6.35689C3.18362 6.82843 2.75925 7.34678 2.28804 7.3936C1.72258 7.44977 1.29876 7.01569 1.25191 6.54416C1.19569 5.97831 1.53519 5.56363 2.10065 5.50745C2.57186 5.46064 3.08056 5.79105 3.13677 6.35689Z" fill="#677EA4" fill-opacity="0.8"/>
<path d="M2.28128 7.32753C1.75701 7.37951 1.36249 6.97708 1.31862 6.53798C1.29201 6.27017 1.35857 6.04264 1.49434 5.87674C1.63013 5.71088 1.83946 5.6001 2.10701 5.57347C2.54593 5.52987 3.01858 5.8389 3.07074 6.3639C3.09184 6.57781 3.00582 6.80784 2.85539 6.99179C2.70463 7.17593 2.49529 7.30627 2.28128 7.32753Z" stroke="#677EA4" stroke-opacity="0.8" stroke-width="0.133333"/>
<path d="M0.120539 9.51221C-0.115343 10.0118 -0.728197 10.5489 -1.29366 10.6051C-1.76487 10.6519 -2.18869 10.2178 -2.23554 9.7463C-2.29176 9.18045 -1.66953 8.73768 -0.821345 8.65341C-0.0673997 8.57851 0.347051 8.91828 0.120539 9.51221Z" fill="#677EA4" fill-opacity="0.8"/>
<path d="M-1.29995 10.539C-1.51249 10.5601 -1.71826 10.4728 -1.87798 10.3216C-2.03774 10.1704 -2.14749 9.9587 -2.16932 9.74017C-2.19449 9.48677 -2.06918 9.25453 -1.82743 9.07223C-1.58501 8.88948 -1.22955 8.76062 -0.814382 8.71937C-0.445607 8.6828 -0.176167 8.74983 -0.0269098 8.88157C0.115647 9.00755 0.164788 9.2086 0.0587954 9.4874C-0.0544826 9.72554 -0.259368 9.9759 -0.505046 10.1735C-0.752156 10.3721 -1.03462 10.5126 -1.29995 10.539Z" stroke="#677EA4" stroke-opacity="0.8" stroke-width="0.133333"/>
<path d="M11.5219 9.33057C11.286 9.8302 10.6732 10.3673 10.1077 10.4235C9.63649 10.4703 9.21267 10.0362 9.16583 9.56465C9.10961 8.99881 9.73183 8.55604 10.58 8.47177C11.334 8.39687 11.7484 8.73664 11.5219 9.33057Z" fill="#677EA4" fill-opacity="0.8"/>
<path d="M10.1014 10.3573C9.88888 10.3785 9.68311 10.2912 9.52339 10.14C9.36362 9.98872 9.25388 9.77706 9.23205 9.55853C9.20687 9.30513 9.33219 9.07289 9.57394 8.89059C9.81636 8.70784 10.1718 8.57898 10.587 8.53773C10.9558 8.50116 11.2252 8.56819 11.3745 8.69993C11.517 8.82591 11.5662 9.02696 11.4602 9.30575C11.3469 9.5439 11.142 9.79426 10.8963 9.99181C10.6492 10.1904 10.3668 10.3309 10.1014 10.3573Z" stroke="#677EA4" stroke-opacity="0.8" stroke-width="0.133333"/>
<path d="M13.3099 12.9599C13.3567 13.4315 12.9323 13.9498 12.4611 13.9966C11.8957 14.0528 11.4719 13.6187 11.425 13.1472C11.3688 12.5813 11.7083 12.1667 12.2737 12.1105C12.745 12.0637 13.2537 12.3941 13.3099 12.9599Z" fill="#677EA4" fill-opacity="0.8"/>
<path d="M12.4544 13.9306C11.9301 13.9825 11.5356 13.5801 11.4917 13.141C11.4651 12.8732 11.5317 12.6457 11.6674 12.4798C11.8032 12.3139 12.0126 12.2031 12.2801 12.1765C12.719 12.1329 13.1917 12.4419 13.2438 12.9669C13.2649 13.1808 13.1789 13.4109 13.0285 13.5948C12.8777 13.779 12.6684 13.9093 12.4544 13.9306Z" stroke="#677EA4" stroke-opacity="0.8" stroke-width="0.133333"/>
<path d="M13.7311 17.2009C13.806 17.955 13.4004 18.6617 12.9292 18.7085C12.3637 18.7647 11.9212 18.1423 11.8462 17.3881C11.7713 16.634 12.0827 15.9367 12.6482 15.8805C13.1194 15.8337 13.6562 16.4467 13.7311 17.2009Z" fill="#677EA4" fill-opacity="0.8"/>
<path d="M12.9224 18.6425C12.6689 18.6676 12.4375 18.5417 12.2565 18.3112C12.0751 18.0801 11.9494 17.7485 11.9129 17.3816C11.8764 17.0146 11.9345 16.6649 12.0669 16.4026C12.199 16.1409 12.4011 15.972 12.6546 15.9468C12.859 15.9264 13.0921 16.0499 13.2876 16.2833C13.4813 16.5146 13.6289 16.8438 13.665 17.2075C13.7011 17.5713 13.6212 17.9231 13.4769 18.188C13.3311 18.4553 13.1269 18.6222 12.9224 18.6425Z" stroke="#677EA4" stroke-opacity="0.8" stroke-width="0.133333"/>
<path d="M1.7149 20.7734C1.76175 21.2449 1.33738 21.7633 0.866162 21.8101C0.300703 21.8663 -0.123118 21.4322 -0.169966 20.9607C-0.226183 20.3948 0.113311 19.9801 0.67877 19.924C1.14999 19.8771 1.65868 20.2076 1.7149 20.7734Z" fill="#677EA4" fill-opacity="0.8"/>
<path d="M0.859404 21.744C0.335134 21.796 -0.0593895 21.3936 -0.103255 20.9545C-0.129862 20.6867 -0.0633066 20.4591 0.0724674 20.2932C0.208254 20.1274 0.417587 20.0166 0.685135 19.99C1.12405 19.9464 1.5967 20.2554 1.64886 20.7804C1.66996 20.9943 1.58394 21.2243 1.43351 21.4083C1.28276 21.5924 1.07342 21.7228 0.859404 21.744Z" stroke="#677EA4" stroke-opacity="0.8" stroke-width="0.133333"/>
<path d="M11.5992 20.6475C12.023 21.0816 11.9001 21.7604 11.457 22.0902C11.0233 22.5142 10.3448 22.3911 10.0152 21.9477C9.59142 21.5136 9.71432 20.8347 10.1574 20.505C10.5912 20.081 11.2696 20.204 11.5992 20.6475Z" fill="#677EA4" fill-opacity="0.8"/>
<path d="M11.4103 22.0423C11.0348 22.4094 10.4562 22.3356 10.1305 21.982L10.0692 21.9076L10.0627 21.9014C9.67135 21.5006 9.78178 20.8688 10.1972 20.5593L10.2044 20.5527C10.58 20.1857 11.1586 20.2594 11.4842 20.613L11.5456 20.6873L11.5511 20.6937L11.6187 20.7713C11.928 21.1722 11.8073 21.7464 11.4176 22.0367L11.4166 22.0358L11.4103 22.0423Z" stroke="#677EA4" stroke-opacity="0.8" stroke-width="0.133333"/>
<path d="M5.09626 22.2446C5.52008 22.6787 5.39718 23.3576 4.95407 23.6873C4.52033 24.1114 3.84189 23.9883 3.51231 23.5449C3.08849 23.1108 3.21139 22.4319 3.6545 22.1022C4.08824 21.6781 4.76668 21.8012 5.09626 22.2446Z" fill="#677EA4" fill-opacity="0.8"/>
<path d="M4.90741 23.6395C4.53189 24.0066 3.95329 23.9328 3.6276 23.5792L3.56624 23.5048L3.55973 23.4986C3.16842 23.0978 3.27885 22.4659 3.6943 22.1564L3.7015 22.1498C4.07705 21.7829 4.65569 21.8566 4.98131 22.2101L5.04267 22.2845L5.04821 22.2908L5.11579 22.3685C5.42507 22.7694 5.3044 23.3436 4.9147 23.6338L4.91364 23.633L4.90741 23.6395Z" stroke="#677EA4" stroke-opacity="0.8" stroke-width="0.133333"/>
<mask id="path-19-inside-1_92_27447" fill="white">
<path d="M11.6705 27.1118C20.0375 42.3632 26.8134 70.3342 24.8465 81.1879C24.5532 83.0252 24.3354 84.6646 24.5332 84.7401C25.362 85.4191 37.939 59.7125 37.7424 57.7336C37.6113 56.4143 38.1224 52.9377 38.9723 49.9983C40.0588 45.608 41.7094 43.0649 46.9333 37.2168C50.5354 33.2427 53.8166 29.8714 54.2878 29.8246C55.3244 29.7216 55.1011 39.9263 53.9292 45.3719C52.6437 51.5901 49.5409 55.8001 43.8664 59.0284C39.5491 61.551 38.7004 62.5869 32.0587 75.2374C26.134 86.4844 24.4447 90.5539 22.1863 100.39C19.4369 111.987 12.857 131.008 9.00789 138.242C7.97946 140.343 7.29053 142.029 7.47899 142.01C8.70402 141.888 21.28 132.455 23.3263 130.063C27.4376 125.467 33.4085 115.643 38.6448 105.131C41.3338 99.6294 44.9471 92.8945 46.5696 90.0687C48.2015 87.3371 49.3529 84.5582 49.0989 83.9173C48.8449 83.2764 49.1656 82.6735 49.731 82.6173C50.2022 82.5705 50.7108 82.9006 50.7576 83.3718C50.8044 83.843 51.5764 84.9082 52.5088 85.6721C54.1569 86.9358 54.1663 87.03 52.5362 86.9065C51.1982 86.8491 49.5857 88.8174 46.6801 94.0546C40.4353 104.953 32.5573 120.486 33.1227 120.43C33.4054 120.401 35.9977 118.716 38.8447 116.721C42.2383 114.48 44.4824 112.164 44.9735 110.402C46.6353 105.098 54.5446 99.4589 63.7333 97.1185C68.191 96.0095 68.2846 96.9518 64.5397 103.319C61.2853 108.877 55.4878 112.783 50.5502 112.893C48.4583 112.911 45.6401 114.237 41.7185 116.911C38.5133 119.133 34.9219 121.298 33.6401 121.806C32.4525 122.304 29.077 125.685 26.2856 129.198C22.4757 133.954 19.3174 136.647 13.7558 140.054L6.29954 144.506L2.55218 154.68C0.532169 160.21 -1.08222 165.034 -1.05413 165.316C-1.02604 165.599 0.64268 164.196 2.63217 162.19C4.71588 160.175 7.79873 157.68 9.49554 156.56C11.1924 155.44 13.1157 153.726 13.6723 152.624C14.2384 151.616 15.9826 150.015 17.4154 149.112C19.6496 147.653 20.8652 147.437 25.7741 147.996C28.94 148.252 31.5686 148.848 31.606 149.225C31.6903 150.073 23.8278 156.183 21.2735 157.293C20.0766 157.698 17.702 157.743 15.9403 157.252C11.842 156.232 9.15544 157.926 2.46995 165.347C-3.10285 171.515 -3.94342 174.549 -6.6241 196.417C-8.31948 210.004 -8.96223 213.113 -10.2054 212.094C-10.6104 211.849 -10.382 208.401 -9.72932 204.434C-9.06725 200.562 -7.88413 192.355 -7.06045 186.278C-6.23678 180.201 -4.31791 170.78 -2.7597 165.391C-0.304127 156.582 -0.0769947 155.037 -1.11987 150.287C-3.12075 140.684 -10.1136 127.77 -16.6395 121.472C-18.6359 119.577 -19.9633 117.71 -19.6238 117.296C-18.7751 116.26 -12.5319 122.586 -8.62516 128.384C-4.15366 135.077 -0.333637 143.833 0.125114 148.45C0.331083 150.524 0.782308 152.192 1.14987 152.06C1.62104 152.013 2.81921 149.705 3.86697 146.842C4.91474 143.978 7.88767 136.545 10.3982 130.205C14.9943 118.995 15.0604 118.703 13.7536 114.17C9.54155 99.5525 6.85804 96.4884 -7.74265 89.3742C-13.7431 86.4493 -17.1817 85.3635 -20.9978 85.2668C-26.9058 85.1877 -31.5969 82.9892 -35.0618 78.7655C-38.7339 74.3722 -38.4599 73.2982 -33.8425 72.8394C-26.3887 72.194 -18.3538 76.4394 -16.3598 82.1415C-15.9648 83.2442 -14.3072 84.6021 -12.7433 85.0177C-11.1701 85.5276 -6.77101 87.6599 -2.84312 89.8391C0.98117 91.9334 4.18389 93.5185 4.1558 93.2358C4.07154 92.3877 -9.10018 75.7104 -15.0981 68.9787C-19.8342 63.4539 -21.9817 61.9543 -26.5317 60.2176C-32.4666 57.9524 -37.7506 54.5756 -37.9191 52.8794C-38.0596 51.4659 -33.1651 45.1747 -31.761 44.94C-24.9568 43.5027 -21.6306 43.4577 -20.3593 44.7589C-17.845 47.0785 -17.1965 49.7738 -17.5777 56.4731L-17.987 62.8897L-13.8251 67.4248C-0.793181 81.7369 11.5105 100.213 14.4631 109.817C16.4658 116.565 16.3715 116.574 19.8293 102.527C22.1344 93.1625 22.1825 91.7303 20.8931 89.289C20.0837 87.8468 18.7276 86.6492 17.8795 86.7335C15.3352 86.9863 11.9633 84.6567 9.69482 80.9803C7.55798 77.6716 4.46375 68.5578 5.13335 67.6348C5.72745 66.9096 13.6581 72.0219 16.6056 74.8694C18.3006 76.6043 19.364 78.6874 19.7298 81.4108C20.3208 85.4441 22.2124 89.1579 23.146 88.0184C23.3912 87.6133 23.3662 82.5721 23.0591 76.6073L22.5572 65.8086L17.8966 60.086C15.2979 56.9183 9.19578 51.0534 4.41165 46.9608C-0.381843 42.7741 -3.66821 39.3892 -2.91434 39.3143C-1.02967 39.1271 12.1925 50.5653 17.2862 56.8159C19.4517 59.4556 21.4669 61.5394 21.5424 61.3415C22.6551 60.089 14.7454 36.9888 10.5291 29.0333C7.34816 22.8782 7.36688 23.0667 8.49769 22.9543C8.96885 22.9075 10.3905 24.7647 11.6705 27.1118ZM46.6769 40.3826C42.7822 45.2423 41.0748 48.1716 40.4695 51.6577C39.1178 58.1679 39.3812 58.9031 41.6921 55.3427C42.7579 53.6191 44.0778 52.5363 44.5016 52.97C44.916 53.3095 44.3968 54.7885 43.2086 56.2389L41.1997 59.0079L43.9712 57.2099C48.4394 54.2917 51.7126 48.9229 52.3852 43.2414C53.4934 34.2811 53.5315 33.7063 52.6834 33.7906C52.3065 33.828 49.5531 36.7661 46.6769 40.3826ZM-29.8969 47.4194C-29.5785 50.6233 -20.5494 62.0024 -19.7663 60.3068C-19.5304 59.8075 -19.312 57.2164 -19.2066 54.4462C-19.0232 47.6713 -20.7743 45.3711 -26.155 45.8105C-28.8971 45.9878 -29.9905 46.477 -29.8969 47.4194ZM-35.997 53.0691C-35.9221 53.823 -26.4837 58.7854 -25.4471 58.6824C-25.1644 58.6543 -26.1717 57.1366 -27.5933 55.2794C-29.0998 53.5258 -30.6906 50.9241 -31.2174 49.4539L-32.0355 46.9657L-34.0631 49.5463C-35.157 50.9872 -36.0438 52.5979 -35.997 53.0691ZM9.71599 77.362C11.7299 81.3491 15.3364 85.0829 16.9384 84.9237C17.5038 84.8675 17.1462 84.1417 16.2045 83.2837C15.1685 82.435 14.3684 81.087 14.2935 80.3331C14.2093 79.485 15.01 79.8813 16.2812 81.1824C17.9855 83.0116 18.3718 83.0683 18.2314 81.6548C17.9599 78.9221 15.8886 76.2729 11.7916 73.3493C7.39312 70.2652 6.66673 71.5745 9.71599 77.362ZM-33.7794 77.3058C-30.5498 81.077 -27.9125 82.7183 -24.3322 83.3142C-21.3267 83.8721 -21.2418 83.7685 -22.9655 82.7026C-25.9043 80.901 -24.2923 79.8843 -21.1838 81.4788C-17.5574 83.4976 -17.2834 82.4236 -20.7489 79.1516C-24.1201 75.8704 -28.2746 74.2847 -32.7129 74.6305L-35.8226 74.9394L-33.7794 77.3058ZM53.7035 103.444C51.9879 104.376 49.6121 106.325 48.5275 107.86C46.085 111.053 47.2533 111.317 50.0727 108.087C51.1854 106.835 52.3543 106.148 52.7687 106.487C53.183 106.827 52.6358 108.023 51.4101 109.096L49.2415 111.215L51.4089 111C54.9898 110.644 59.609 107.33 62.25 103.261C63.6554 101.123 64.7025 99.211 64.6744 98.9283C64.6183 98.3629 58.0301 101.016 53.7035 103.444ZM16.754 152.032C15.7355 153.276 15.8391 153.36 17.677 152.702C19.1472 152.175 19.6278 152.223 19.2315 153.023C18.9201 153.72 18.0246 154.285 17.2707 154.36C16.5168 154.435 16.1867 154.944 16.5256 155.481C17.8343 157.159 28.1175 152.426 27.9116 150.353C27.7056 148.28 18.706 149.65 16.754 152.032Z"/>
</mask>
<path d="M11.6705 27.1118C20.0375 42.3632 26.8134 70.3342 24.8465 81.1879C24.5532 83.0252 24.3354 84.6646 24.5332 84.7401C25.362 85.4191 37.939 59.7125 37.7424 57.7336C37.6113 56.4143 38.1224 52.9377 38.9723 49.9983C40.0588 45.608 41.7094 43.0649 46.9333 37.2168C50.5354 33.2427 53.8166 29.8714 54.2878 29.8246C55.3244 29.7216 55.1011 39.9263 53.9292 45.3719C52.6437 51.5901 49.5409 55.8001 43.8664 59.0284C39.5491 61.551 38.7004 62.5869 32.0587 75.2374C26.134 86.4844 24.4447 90.5539 22.1863 100.39C19.4369 111.987 12.857 131.008 9.00789 138.242C7.97946 140.343 7.29053 142.029 7.47899 142.01C8.70402 141.888 21.28 132.455 23.3263 130.063C27.4376 125.467 33.4085 115.643 38.6448 105.131C41.3338 99.6294 44.9471 92.8945 46.5696 90.0687C48.2015 87.3371 49.3529 84.5582 49.0989 83.9173C48.8449 83.2764 49.1656 82.6735 49.731 82.6173C50.2022 82.5705 50.7108 82.9006 50.7576 83.3718C50.8044 83.843 51.5764 84.9082 52.5088 85.6721C54.1569 86.9358 54.1663 87.03 52.5362 86.9065C51.1982 86.8491 49.5857 88.8174 46.6801 94.0546C40.4353 104.953 32.5573 120.486 33.1227 120.43C33.4054 120.401 35.9977 118.716 38.8447 116.721C42.2383 114.48 44.4824 112.164 44.9735 110.402C46.6353 105.098 54.5446 99.4589 63.7333 97.1185C68.191 96.0095 68.2846 96.9518 64.5397 103.319C61.2853 108.877 55.4878 112.783 50.5502 112.893C48.4583 112.911 45.6401 114.237 41.7185 116.911C38.5133 119.133 34.9219 121.298 33.6401 121.806C32.4525 122.304 29.077 125.685 26.2856 129.198C22.4757 133.954 19.3174 136.647 13.7558 140.054L6.29954 144.506L2.55218 154.68C0.532169 160.21 -1.08222 165.034 -1.05413 165.316C-1.02604 165.599 0.64268 164.196 2.63217 162.19C4.71588 160.175 7.79873 157.68 9.49554 156.56C11.1924 155.44 13.1157 153.726 13.6723 152.624C14.2384 151.616 15.9826 150.015 17.4154 149.112C19.6496 147.653 20.8652 147.437 25.7741 147.996C28.94 148.252 31.5686 148.848 31.606 149.225C31.6903 150.073 23.8278 156.183 21.2735 157.293C20.0766 157.698 17.702 157.743 15.9403 157.252C11.842 156.232 9.15544 157.926 2.46995 165.347C-3.10285 171.515 -3.94342 174.549 -6.6241 196.417C-8.31948 210.004 -8.96223 213.113 -10.2054 212.094C-10.6104 211.849 -10.382 208.401 -9.72932 204.434C-9.06725 200.562 -7.88413 192.355 -7.06045 186.278C-6.23678 180.201 -4.31791 170.78 -2.7597 165.391C-0.304127 156.582 -0.0769947 155.037 -1.11987 150.287C-3.12075 140.684 -10.1136 127.77 -16.6395 121.472C-18.6359 119.577 -19.9633 117.71 -19.6238 117.296C-18.7751 116.26 -12.5319 122.586 -8.62516 128.384C-4.15366 135.077 -0.333637 143.833 0.125114 148.45C0.331083 150.524 0.782308 152.192 1.14987 152.06C1.62104 152.013 2.81921 149.705 3.86697 146.842C4.91474 143.978 7.88767 136.545 10.3982 130.205C14.9943 118.995 15.0604 118.703 13.7536 114.17C9.54155 99.5525 6.85804 96.4884 -7.74265 89.3742C-13.7431 86.4493 -17.1817 85.3635 -20.9978 85.2668C-26.9058 85.1877 -31.5969 82.9892 -35.0618 78.7655C-38.7339 74.3722 -38.4599 73.2982 -33.8425 72.8394C-26.3887 72.194 -18.3538 76.4394 -16.3598 82.1415C-15.9648 83.2442 -14.3072 84.6021 -12.7433 85.0177C-11.1701 85.5276 -6.77101 87.6599 -2.84312 89.8391C0.98117 91.9334 4.18389 93.5185 4.1558 93.2358C4.07154 92.3877 -9.10018 75.7104 -15.0981 68.9787C-19.8342 63.4539 -21.9817 61.9543 -26.5317 60.2176C-32.4666 57.9524 -37.7506 54.5756 -37.9191 52.8794C-38.0596 51.4659 -33.1651 45.1747 -31.761 44.94C-24.9568 43.5027 -21.6306 43.4577 -20.3593 44.7589C-17.845 47.0785 -17.1965 49.7738 -17.5777 56.4731L-17.987 62.8897L-13.8251 67.4248C-0.793181 81.7369 11.5105 100.213 14.4631 109.817C16.4658 116.565 16.3715 116.574 19.8293 102.527C22.1344 93.1625 22.1825 91.7303 20.8931 89.289C20.0837 87.8468 18.7276 86.6492 17.8795 86.7335C15.3352 86.9863 11.9633 84.6567 9.69482 80.9803C7.55798 77.6716 4.46375 68.5578 5.13335 67.6348C5.72745 66.9096 13.6581 72.0219 16.6056 74.8694C18.3006 76.6043 19.364 78.6874 19.7298 81.4108C20.3208 85.4441 22.2124 89.1579 23.146 88.0184C23.3912 87.6133 23.3662 82.5721 23.0591 76.6073L22.5572 65.8086L17.8966 60.086C15.2979 56.9183 9.19578 51.0534 4.41165 46.9608C-0.381843 42.7741 -3.66821 39.3892 -2.91434 39.3143C-1.02967 39.1271 12.1925 50.5653 17.2862 56.8159C19.4517 59.4556 21.4669 61.5394 21.5424 61.3415C22.6551 60.089 14.7454 36.9888 10.5291 29.0333C7.34816 22.8782 7.36688 23.0667 8.49769 22.9543C8.96885 22.9075 10.3905 24.7647 11.6705 27.1118ZM46.6769 40.3826C42.7822 45.2423 41.0748 48.1716 40.4695 51.6577C39.1178 58.1679 39.3812 58.9031 41.6921 55.3427C42.7579 53.6191 44.0778 52.5363 44.5016 52.97C44.916 53.3095 44.3968 54.7885 43.2086 56.2389L41.1997 59.0079L43.9712 57.2099C48.4394 54.2917 51.7126 48.9229 52.3852 43.2414C53.4934 34.2811 53.5315 33.7063 52.6834 33.7906C52.3065 33.828 49.5531 36.7661 46.6769 40.3826ZM-29.8969 47.4194C-29.5785 50.6233 -20.5494 62.0024 -19.7663 60.3068C-19.5304 59.8075 -19.312 57.2164 -19.2066 54.4462C-19.0232 47.6713 -20.7743 45.3711 -26.155 45.8105C-28.8971 45.9878 -29.9905 46.477 -29.8969 47.4194ZM-35.997 53.0691C-35.9221 53.823 -26.4837 58.7854 -25.4471 58.6824C-25.1644 58.6543 -26.1717 57.1366 -27.5933 55.2794C-29.0998 53.5258 -30.6906 50.9241 -31.2174 49.4539L-32.0355 46.9657L-34.0631 49.5463C-35.157 50.9872 -36.0438 52.5979 -35.997 53.0691ZM9.71599 77.362C11.7299 81.3491 15.3364 85.0829 16.9384 84.9237C17.5038 84.8675 17.1462 84.1417 16.2045 83.2837C15.1685 82.435 14.3684 81.087 14.2935 80.3331C14.2093 79.485 15.01 79.8813 16.2812 81.1824C17.9855 83.0116 18.3718 83.0683 18.2314 81.6548C17.9599 78.9221 15.8886 76.2729 11.7916 73.3493C7.39312 70.2652 6.66673 71.5745 9.71599 77.362ZM-33.7794 77.3058C-30.5498 81.077 -27.9125 82.7183 -24.3322 83.3142C-21.3267 83.8721 -21.2418 83.7685 -22.9655 82.7026C-25.9043 80.901 -24.2923 79.8843 -21.1838 81.4788C-17.5574 83.4976 -17.2834 82.4236 -20.7489 79.1516C-24.1201 75.8704 -28.2746 74.2847 -32.7129 74.6305L-35.8226 74.9394L-33.7794 77.3058ZM53.7035 103.444C51.9879 104.376 49.6121 106.325 48.5275 107.86C46.085 111.053 47.2533 111.317 50.0727 108.087C51.1854 106.835 52.3543 106.148 52.7687 106.487C53.183 106.827 52.6358 108.023 51.4101 109.096L49.2415 111.215L51.4089 111C54.9898 110.644 59.609 107.33 62.25 103.261C63.6554 101.123 64.7025 99.211 64.6744 98.9283C64.6183 98.3629 58.0301 101.016 53.7035 103.444ZM16.754 152.032C15.7355 153.276 15.8391 153.36 17.677 152.702C19.1472 152.175 19.6278 152.223 19.2315 153.023C18.9201 153.72 18.0246 154.285 17.2707 154.36C16.5168 154.435 16.1867 154.944 16.5256 155.481C17.8343 157.159 28.1175 152.426 27.9116 150.353C27.7056 148.28 18.706 149.65 16.754 152.032Z" fill="#677EA4" fill-opacity="0.8" stroke="#677EA4" stroke-opacity="0.8" stroke-width="0.266667" mask="url(#path-19-inside-1_92_27447)"/>
<path d="M58.2178 72.2568C58.2647 72.7283 57.8403 73.2467 57.3691 73.2935C56.8036 73.3497 56.3798 72.9156 56.333 72.4441C56.2767 71.8782 56.6162 71.4635 57.1817 71.4074C57.6529 71.3605 58.1616 71.691 58.2178 72.2568Z" fill="#677EA4" fill-opacity="0.8"/>
<path d="M57.3623 73.2274C56.8381 73.2794 56.4435 72.877 56.3997 72.4379C56.3731 72.1701 56.4396 71.9425 56.5754 71.7766C56.7112 71.6108 56.9205 71.5 57.1881 71.4734C57.627 71.4298 58.0996 71.7388 58.1518 72.2638C58.1729 72.4777 58.0869 72.7077 57.9364 72.8917C57.7857 73.0758 57.5763 73.2062 57.3623 73.2274Z" stroke="#677EA4" stroke-opacity="0.8" stroke-width="0.133333"/>
<path d="M54.5423 73.5737C54.5891 74.0452 54.1648 74.5636 53.6936 74.6104C53.1281 74.6666 52.7043 74.2325 52.6574 73.761C52.6012 73.1951 52.9407 72.7804 53.5062 72.7243C53.9774 72.6774 54.4861 73.0078 54.5423 73.5737Z" fill="#677EA4" fill-opacity="0.8"/>
<path d="M53.6868 74.5443C53.1625 74.5963 52.768 74.1939 52.7241 73.7548C52.6975 73.487 52.7641 73.2594 52.8999 73.0935C53.0356 72.9277 53.245 72.8169 53.5125 72.7903C53.9514 72.7467 54.4241 73.0557 54.4763 73.5807C54.4974 73.7946 54.4113 74.0246 54.2609 74.2086C54.1102 74.3927 53.9008 74.5231 53.6868 74.5443Z" stroke="#677EA4" stroke-opacity="0.8" stroke-width="0.133333"/>
<path d="M62.1749 73.768C62.2217 74.2396 61.7973 74.7579 61.3261 74.8047C60.7607 74.8609 60.3368 74.4268 60.29 73.9553C60.2338 73.3894 60.5733 72.9748 61.1387 72.9186C61.6099 72.8718 62.1186 73.2022 62.1749 73.768Z" fill="#677EA4" fill-opacity="0.8"/>
<path d="M61.3194 74.7387C60.7951 74.7906 60.4006 74.3882 60.3567 73.9491C60.3301 73.6813 60.3967 73.4538 60.5324 73.2879C60.6682 73.122 60.8775 73.0112 61.1451 72.9846C61.584 72.941 62.0567 73.25 62.1088 73.775C62.1299 73.9889 62.0439 74.219 61.8935 74.4029C61.7427 74.5871 61.5334 74.7174 61.3194 74.7387Z" stroke="#677EA4" stroke-opacity="0.8" stroke-width="0.133333"/>
<path d="M51.9397 76.1169C52.024 76.9653 51.6184 77.672 51.1472 77.7188C50.5817 77.775 50.1673 77.4353 50.1205 76.964C50.0643 76.3984 50.3757 75.7011 50.913 75.3621C51.3561 75.0325 51.8648 75.3627 51.9397 76.1169Z" fill="#677EA4" fill-opacity="0.8"/>
<path d="M51.1404 77.6527C50.607 77.7056 50.2299 77.3875 50.1871 76.9574C50.1367 76.4502 50.3971 75.8277 50.8543 75.4839L50.9489 75.4185L50.9525 75.4152C51.1527 75.2663 51.3592 75.27 51.5258 75.3877C51.6969 75.5086 51.8374 75.7585 51.8737 76.1235C51.9146 76.5359 51.8361 76.9115 51.6928 77.1876C51.5483 77.4661 51.3444 77.6325 51.1404 77.6527Z" stroke="#677EA4" stroke-opacity="0.8" stroke-width="0.133333"/>
<path d="M63.4908 77.4433C63.5376 77.9149 63.1133 78.4332 62.642 78.48C62.0766 78.5362 61.6528 78.1021 61.6059 77.6306C61.5497 77.0647 61.8892 76.6501 62.4546 76.5939C62.9259 76.5471 63.4346 76.8775 63.4908 77.4433Z" fill="#677EA4" fill-opacity="0.8"/>
<path d="M62.6353 78.414C62.111 78.4659 61.7165 78.0635 61.6726 77.6244C61.646 77.3566 61.7126 77.1291 61.8483 76.9632C61.9841 76.7973 62.1935 76.6865 62.461 76.6599C62.8999 76.6163 63.3726 76.9253 63.4247 77.4503C63.4458 77.6642 63.3598 77.8943 63.2094 78.0782C63.0586 78.2624 62.8493 78.3927 62.6353 78.414Z" stroke="#677EA4" stroke-opacity="0.8" stroke-width="0.133333"/>
<path d="M50.3921 79.6967C50.439 80.1683 50.0146 80.6866 49.5434 80.7334C48.9779 80.7896 48.5541 80.3555 48.5073 79.884C48.4511 79.3182 48.7906 78.9035 49.356 78.8473C49.8272 78.8005 50.3359 79.1309 50.3921 79.6967Z" fill="#677EA4" fill-opacity="0.8"/>
<path d="M49.5366 80.6674C49.0124 80.7194 48.6179 80.3169 48.574 79.8778C48.5474 79.61 48.6139 79.3825 48.7497 79.2166C48.8855 79.0507 49.0948 78.9399 49.3624 78.9133C49.8013 78.8697 50.2739 79.1787 50.3261 79.7037C50.3472 79.9177 50.2612 80.1477 50.1108 80.3316C49.96 80.5158 49.7507 80.6461 49.5366 80.6674Z" stroke="#677EA4" stroke-opacity="0.8" stroke-width="0.133333"/>
<path d="M62.9232 81.3056C62.97 81.7772 62.5456 82.2955 61.9802 82.3517C61.509 82.3985 61.2736 81.9457 61.5095 81.4461C61.736 80.8521 62.1698 80.4281 62.4525 80.4C62.641 80.3813 62.8669 80.7398 62.9232 81.3056Z" fill="#677EA4" fill-opacity="0.8"/>
<path d="M61.9734 82.2856C61.7629 82.3065 61.6138 82.2163 61.5391 82.0726C61.4723 81.9441 61.4607 81.7632 61.5335 81.5619L61.57 81.4749L61.5714 81.4698C61.6817 81.1807 61.8428 80.9334 62.0089 80.7561C62.1775 80.5761 62.3422 80.4776 62.459 80.466C62.4827 80.4637 62.5151 80.4728 62.5551 80.5055C62.5951 80.5383 62.6381 80.5917 62.679 80.6659C62.7607 80.8142 62.8297 81.0364 62.8571 81.3126C62.8996 81.7435 62.5061 82.2327 61.9734 82.2856Z" stroke="#677EA4" stroke-opacity="0.8" stroke-width="0.133333"/>
<path d="M61.4129 85.2631C61.4597 85.7347 61.0354 86.253 60.5642 86.2998C59.9987 86.356 59.5749 85.9219 59.528 85.4504C59.4718 84.8846 59.8113 84.4699 60.3768 84.4137C60.848 84.3669 61.3567 84.6973 61.4129 85.2631Z" fill="#677EA4" fill-opacity="0.8"/>
<path d="M60.5574 86.2338C60.0331 86.2858 59.6386 85.8833 59.5947 85.4442C59.5681 85.1764 59.6347 84.9489 59.7705 84.783C59.9063 84.6171 60.1156 84.5063 60.3831 84.4797C60.8221 84.4361 61.2947 84.7451 61.3469 85.2702C61.368 85.4841 61.2819 85.7141 61.1315 85.898C60.9808 86.0822 60.7714 86.2125 60.5574 86.2338Z" stroke="#677EA4" stroke-opacity="0.8" stroke-width="0.133333"/>
<path d="M57.2573 86.5325C57.5869 86.9757 57.4639 87.6543 56.9359 88.0876C56.4928 88.4172 55.9842 88.0869 55.9092 87.3328C55.7406 85.636 56.278 85.297 57.2573 86.5325Z" fill="#677EA4" fill-opacity="0.8"/>
<path d="M56.8959 88.0343C56.6957 88.183 56.4891 88.1794 56.3225 88.0618C56.1517 87.9407 56.0119 87.6905 55.9756 87.3259C55.9338 86.9046 55.9361 86.5715 55.9767 86.3287C56.0179 86.0824 56.0956 85.9451 56.1872 85.8897C56.2731 85.8379 56.3975 85.8442 56.5744 85.9543C56.7065 86.0365 56.8588 86.1716 57.0292 86.3635L57.2051 86.5737C57.5063 86.9808 57.402 87.6189 56.8969 88.0351L56.8959 88.0343Z" stroke="#677EA4" stroke-opacity="0.8" stroke-width="0.133333"/>
</svg>
