<svg width="85" height="246" viewBox="0 0 85 246" fill="none" xmlns="http://www.w3.org/2000/svg">
<mask id="path-1-outside-1_129_10610" maskUnits="userSpaceOnUse" x="-1.05097" y="1.27708" width="95.4231" height="245.198" fill="black">
<rect fill="white" x="-1.05097" y="1.27708" width="95.4231" height="245.198"/>
<path d="M37.616 6.50644C37.2386 6.84426 36.4526 8.89176 35.8982 11.044L34.8973 14.9953L34.7345 12.8305C34.4923 10.2034 33.3782 9.07648 32.4586 10.5388C32.1384 11.0419 32.0054 11.6542 32.161 11.9378C32.2721 12.2258 32.7647 14.0148 33.178 15.9402C33.8582 19.036 33.8617 19.6772 33.2632 22.4327L32.5537 25.4989L32.308 22.2306C31.9956 18.6696 31.3762 16.9791 30.2338 16.6677C28.5933 16.2787 28.5462 17.4383 30.0962 21.3865C31.8749 25.9958 31.9895 26.9251 31.0494 32.2816L30.3753 36.4135L29.8823 33.4269C29.2398 29.643 28.0903 27.4504 26.891 27.5725C25.6473 27.6991 25.8034 29.1802 27.3688 32.1431C29.7694 36.689 30.1 38.1096 29.6612 43.5862C29.4625 46.301 29.3653 49.1765 29.3815 49.9875C29.4421 50.794 28.9435 49.5189 28.3206 47.1871C26.56 40.4375 24.8773 37.7004 23.4564 39.0427C22.4954 39.9532 22.8738 42.0104 24.4739 44.2427C25.2295 45.3633 26.6234 47.8304 27.5285 49.7485C29.0274 53.0176 29.1705 53.7301 29.935 60.9233L30.7822 68.6214L29.6403 69.5075C29.0059 69.9998 28.105 70.5193 27.626 70.6963C26.2778 71.2186 25.609 73.0403 26.1048 74.8717C26.4162 76.0376 27.2543 77.0643 29.0634 78.5054L31.5835 80.4729L32.3413 86.9825C33.2202 94.5062 34.4148 98.4906 37.5806 104.284C40.2288 109.147 44.3911 115.695 47.4293 119.791C48.7245 121.541 50.223 123.613 50.8166 124.365C52.2643 126.356 51.3025 125.47 48.033 121.868C46.4712 120.145 42.5099 116.272 39.2406 113.268C36.0157 110.261 33.1145 107.391 32.8509 106.862C32.6318 106.328 32.0344 104.336 31.5736 102.373C30.4451 97.4833 30.1212 96.7464 29.0996 96.8505C27.7226 96.9907 27.9492 100.004 29.5686 103.09L30.8801 105.651L28.5853 103.703C26.4841 101.95 26.1857 101.553 25.7469 99.2876C24.8597 94.6304 24.5642 93.6767 23.8025 93.0699C23.1328 92.4966 22.9995 92.5101 22.5208 93.286C21.839 94.3391 22.3031 96.3449 23.8874 98.9637L25.0114 100.817L22.5137 99.1463C20.6729 97.8795 19.8476 97.0226 19.3933 95.743C18.1545 92.3619 17.4845 91.1897 16.7199 91.1393C15.6379 91.0356 15.8639 92.8517 17.1371 94.9034L18.1943 96.4638L15.9061 95.1998C13.9925 94.1543 13.5068 93.6477 13.1794 92.2696C12.5978 89.8909 11.6898 88.5292 10.8998 88.7379C10.4208 88.915 10.2338 89.4045 10.396 90.3717L10.5457 91.7679L9.36483 90.3484C7.99031 88.7347 5.91516 88.5183 6.02364 89.9615C6.08107 90.7255 6.84281 91.3323 10.7877 93.7963L11.9588 94.4897L10.5023 94.1675C9.31552 93.8606 8.91576 93.9013 8.50348 94.371C8.09121 94.8407 8.15477 95.0909 8.77049 95.5414C9.67506 96.262 13.4001 96.396 14.1549 95.7203C14.5323 95.3825 15.4462 95.6316 17.2235 96.6482L19.7433 98.017L18.1887 98.1752C16.0122 98.3969 15.1969 98.8648 15.2639 99.7562C15.3405 100.775 16.2036 100.944 19.8459 100.573C22.7331 100.279 23.006 100.337 24.7103 101.574C26.3734 102.859 26.421 102.897 25.1898 102.595C23.0955 102.124 20.1767 102.592 19.441 103.522C18.1757 105.148 19.28 105.549 24.4041 105.241L29.1284 104.974L31.566 107.035C32.9054 108.182 33.5943 109.01 33.1341 108.843C29.9799 107.967 26.0522 108.709 26.4272 110.125C26.6019 110.663 27.281 110.765 29.9525 110.579C31.7768 110.436 33.7408 110.364 34.2834 110.437C35.8191 110.623 46.3222 120.546 51.2427 126.46C52.4235 127.88 53.6425 129.21 54.017 129.428C54.9596 130.059 68.7443 149.699 74.3291 158.497C81.8854 170.303 82.908 172.594 84.2818 180.153C84.8544 183.602 85.2934 186.465 85.211 186.559C85.1285 186.653 82.2845 183.949 78.8532 180.577C73.0064 174.842 72.4128 174.09 70.209 169.781C68.8563 167.267 67.1576 164.317 66.3608 163.244C62.9735 158.67 55.8167 153.967 47.6231 150.952C40.1181 148.166 35.0782 144.83 33.538 141.607C32.9029 140.303 32.1571 139.909 32.2337 140.928C32.2752 141.479 34.3545 144.133 35.7447 145.36C36.224 145.782 37.3607 147.805 38.2722 149.808C43.1882 160.428 48.3871 164.689 64.162 170.91L70.5246 173.384L74.9177 177.642C77.3332 180.005 78.9934 181.846 78.5809 181.717C78.2159 181.626 77.0863 181.484 76.1408 181.409C75.1064 181.344 73.4435 180.657 71.9392 179.699C65.8298 175.83 59.9786 174.8 48.2711 175.65C43.7309 175.984 38.8638 176.137 37.42 175.985C35.9731 175.79 34.8563 175.818 34.9611 176.022C35.0659 176.225 36.275 176.829 37.6586 177.372C39.0422 177.916 42.7741 179.332 45.957 180.59C49.1367 181.806 53.6777 183.269 56.0448 183.798C60.0494 184.673 60.8109 184.681 66.1442 184.181C70.4528 183.742 72.2612 183.387 73.2033 182.82C74.1866 182.207 75.0718 182.074 77.0898 182.125C79.6059 182.254 79.7011 182.33 82.5579 185.204C84.1545 186.795 85.583 188.532 85.707 188.99C85.8785 189.485 87.0422 195.44 88.3586 202.235C90.4415 213.272 90.7374 215.423 90.9686 222.072C91.1547 226.929 91.0548 230.959 90.6752 233.65C90.0077 238.465 89.995 238.296 90.5309 237.685C91.809 236.229 92.3171 222.148 91.3401 215.105C90.9742 212.619 89.7975 205.895 88.6529 200.195C87.5495 194.448 86.5448 189.417 86.5097 188.951C86.4746 188.484 86.0866 186.299 85.6542 184.119C85.2218 181.939 84.0818 172.132 83.1227 162.35C81.2938 143.973 80.3423 137.27 78.7059 131.577C77.4858 127.253 76.927 126.369 73.1784 122.944C71.4485 121.366 69.1947 118.773 68.2263 117.203C66.7055 114.835 66.4196 114.008 66.4093 112.085C66.3546 110.166 66.5416 109.676 67.3536 109.166C67.9119 108.852 68.6192 108.139 68.9362 107.593C69.6148 106.497 70.3858 106.633 70.4752 107.821C70.5071 108.246 70.7674 108.733 70.9991 108.837C71.3228 108.975 71.421 108.495 71.2936 107.396C70.8513 104.49 72.6371 103.239 74.6939 104.997C76.8459 106.83 77.4854 111.171 76.67 118.782C76.0663 124.446 76.0855 124.701 76.5738 124.052C76.9417 123.587 77.6783 117.31 77.9078 112.026C78.1124 108.199 78.962 106.401 80.7672 106.004C82.2202 105.684 82.9726 106.763 83.2181 109.432C83.4924 113.083 81.8637 118.21 78.5378 123.98C77.742 125.302 77.2507 126.507 77.3967 126.663C77.7775 126.966 77.6158 127.197 79.8161 123.123C80.7957 121.27 82.1778 118.221 82.8021 116.404C83.8449 113.603 83.9904 112.561 83.8242 109.755C83.5977 106.742 83.4769 106.326 82.4455 105.704C81.833 105.296 81.0111 105.08 80.6145 105.164C80.2212 105.289 79.5262 104.975 79.0437 104.511C78.0756 103.54 76.9047 103.446 76.1626 104.291C75.8328 104.667 75.3346 104.589 74.2588 103.972C73.0433 103.283 72.6371 103.239 71.7807 103.753C71.2224 104.067 70.6452 104.724 70.5026 105.209C70.4077 105.732 70.0366 106.155 69.7701 106.182C69.5036 106.209 68.9105 106.655 68.4093 107.133C67.9558 107.65 67.0869 108.594 66.4653 109.256C65.6755 110.064 65.3332 110.868 65.4002 111.76C65.4864 112.906 65.3627 113.047 64.0301 113.182C61.9425 113.395 60.7184 114.974 60.8875 117.223C61.1364 120.534 64.9863 123.521 72.4849 126.222L76.7626 127.754L77.7601 130.903C79.2407 135.714 80.978 147.513 82.1575 160.823L83.2381 172.817L81.6407 169.429C79.7226 165.348 72.1599 153.458 65.0961 143.441C58.4863 134.106 55.7078 128.7 55.3951 124.54C55.1878 121.781 55.3652 121.165 57.511 115.771C60.4143 108.546 60.5409 107.849 60.5188 100.409C60.5286 93.3938 61.2694 89.5545 63.2005 86.6633C64.4086 84.8722 66.4987 82.9058 67.7962 82.3032C68.1007 82.1866 68.1704 81.9229 67.98 81.7712C67.3579 81.2358 63.5612 84.3169 60.263 88.0744C55.3569 93.6637 52.8467 100.164 52.1523 108.789C51.9157 112.192 52.6233 119.818 53.4429 122.387C54.4945 125.659 50.2389 116.084 48.8697 112.16C46.5666 105.337 45.6222 100.515 45.3945 94.507L45.1829 89.3105L47.0953 87.3621C48.1324 86.2728 50.581 84.3127 52.5381 82.9586C60.9628 77.1393 62.9862 74.8803 62.2298 71.9634C61.9883 71.1325 61.6894 69.5377 61.5621 68.4386C61.3839 67.2591 60.8408 65.9885 60.3011 65.3592C58.8854 63.7925 58.4599 62.8948 58.2147 60.824C57.9251 58.7577 56.7538 57.4655 55.1991 57.6238C54.5329 57.6917 53.9743 57.4064 53.7044 56.7923C53.0852 55.7005 49.1558 52.2512 48.4895 52.3191C47.7344 52.396 42.9485 57.2031 42.9964 57.8398C43.0793 58.9434 41.7085 58.5697 39.9818 57.0347C36.9633 54.3909 33.9777 54.5665 32.053 57.5426C31.3301 58.6427 31.2638 59.5477 31.4909 63.7589C31.9194 71.8417 31.3633 69.8026 30.6933 60.8889L30.0711 52.6119L31.5138 50.3692C32.3161 49.1327 33.9428 46.9568 35.1352 45.5523C38.0877 41.9583 39.0072 40.496 38.9243 39.3924C38.7711 37.355 36.2236 37.9993 34.3146 40.5889C33.0112 42.3041 30.2377 48.8739 30.3555 49.8456C30.3842 50.2276 30.9708 49.0986 31.6871 47.3148C33.8994 41.6149 36.135 38.6072 37.8231 39.0341C38.8259 39.2741 37.9255 40.9911 34.6972 45.0837C33.2258 46.9443 31.7227 48.9793 31.3676 49.6142C30.2198 51.613 29.8512 50.2819 30.2426 45.3661C30.5866 41.0112 30.7228 40.4413 32.3241 37.9259C33.2848 36.4166 34.5406 34.6635 35.1622 34.0014C37.2331 31.7803 37.8761 29.0203 36.2326 29.1876C35.4331 29.269 33.7555 31.3645 32.5128 33.8862C30.9594 37.0384 31.3974 37.507 33.0016 34.4352C35.0338 30.5073 36.3563 29.0467 36.4711 30.5748C36.5254 31.2963 32.0858 37.1375 31.54 37.022C31.3147 37.0022 31.1562 37.2749 31.1881 37.6994C31.2168 38.0814 31.1439 38.3027 31.0011 38.1889C30.8583 38.0752 31.1714 35.6909 31.6715 32.8171L32.5356 27.6393L35.5675 24.5077C38.4726 21.4746 38.9259 20.3592 37.1047 20.5446C36.3496 20.6215 34.1074 22.9456 34.1552 23.5823C34.168 23.7521 34.8468 23.2552 35.6365 22.4477C37.2191 20.8751 37.5204 20.7161 37.5651 21.3104C37.581 21.5226 36.5884 22.6074 35.4213 23.7528C34.2065 24.8602 33.4485 25.4934 33.737 25.1646C34.3459 24.3327 34.3393 23.6491 33.6605 24.1459C33.3211 24.3943 33.2671 24.2715 33.4445 23.6546C33.6347 23.2076 33.9864 21.9314 34.2683 20.919C34.7974 19.0259 35.2129 18.5987 40.7794 14.0542C41.7087 13.318 41.2832 12.4204 40.0395 12.547C39.5953 12.5922 38.6119 13.2056 37.9047 13.9192L36.5663 15.1675L37.9486 12.7171C39.8794 9.22718 40.3989 7.20682 39.6244 6.43026C38.8531 5.69614 38.5834 5.68083 37.616 6.50644ZM39.2124 7.49871C39.2507 8.00807 38.9371 9.19481 38.5155 10.1359C37.6342 12.1076 35.3991 16.3129 35.3736 15.9733C35.3257 15.3366 37.4992 7.92977 37.9051 7.37519C38.552 6.45391 39.139 6.52245 39.2124 7.49871ZM33.8582 11.2945C34.0202 11.6629 34.227 13.2244 34.3419 14.7524L34.5113 17.6009L33.682 14.9052C33.2562 13.4088 32.8717 11.8654 32.7953 11.4455C32.7283 10.5541 33.4358 10.4393 33.8582 11.2945ZM40.5379 13.2234C40.5094 13.4401 39.4628 14.4021 38.1084 15.4382L35.6946 17.2665L37.6831 15.1393C39.5923 13.1486 40.4836 12.5018 40.5379 13.2234ZM31.1296 19.0572C31.1583 19.4392 31.3397 20.6611 31.5591 21.7936L31.9819 23.8463L30.8577 21.3945C30.2638 20.0436 29.7428 18.4713 29.6981 17.8771C29.666 16.8538 29.666 16.8538 30.3453 17.5545C30.7357 17.9853 31.0977 18.6328 31.1296 19.0572ZM27.8086 29.0616C28.3325 30.0775 29.632 34.2651 29.6386 34.9487C29.6197 35.2928 26.4917 28.8107 26.4598 28.3863C26.4024 27.6222 27.2402 28.0502 27.8086 29.0616ZM25.3735 40.7294C26.4118 42.6339 28.4769 49.267 27.966 49.0196C27.7343 48.9149 27.5343 48.6359 27.5152 48.3812C27.4961 48.1265 26.553 46.2978 25.375 44.322C23.4191 40.9284 23.0441 39.5123 24.1546 39.3993C24.4211 39.3721 24.9575 39.9591 25.3735 40.7294ZM51.2479 55.075C54.5903 58.4557 54.8902 62.4456 52.046 66.884C51.1265 68.3463 50.1721 69.9405 49.9375 70.3921C49.5412 71.074 49.4808 70.8663 49.5372 69.2352C49.666 66.1854 47.7288 61.8489 45.3864 59.8633C44.3358 58.9866 43.4661 58.1342 43.4565 58.0068C43.415 57.455 47.8458 53.2828 48.5533 53.168C48.9531 53.1273 50.1813 53.986 51.2479 55.075ZM37.1798 56.0796C37.7319 56.2801 38.7634 56.9021 39.4743 57.4285L40.7534 58.3676L39.5514 59.6448C38.3494 60.922 37.9786 61.9435 38.7337 61.8666C38.9558 61.844 39.3205 61.3364 39.5423 60.715C40.4837 58.3523 43.6312 58.545 45.8406 61.143C49.0373 64.9663 49.5281 70.3054 47.2945 78.1033C45.8118 83.3868 45.337 86.0014 45.9144 85.9426C46.0921 85.9245 46.4948 85.3275 46.8435 84.6077C47.2335 83.8409 49.0794 82.1987 51.2458 80.6522C55.3629 77.6667 58.3696 74.7943 59.7996 72.3819C60.9093 70.4725 61.2138 70.356 61.6173 71.5552C62.4718 73.9917 60.217 76.7448 53.5813 81.3554C50.8186 83.3047 47.9385 85.4799 47.1932 86.2829C46.191 87.2404 45.6771 87.5493 45.5151 87.1809C45.3596 86.8973 45.2359 87.0382 45.271 87.5051C45.2617 87.9765 44.722 87.3472 44.0425 86.0477C42.7914 83.6943 39.9596 79.9622 36.0425 75.4852C33.6966 72.8583 32.258 69.797 32.057 67.1229C31.9645 65.892 32.2244 65.1812 33.1282 64.1054C34.4063 62.6494 35.3707 62.3801 37.3761 62.8602C39.2928 63.3494 39.2481 62.7552 37.3283 62.2235C35.5417 61.6783 34.222 61.9838 33.0136 63.1761C32.4332 63.7912 32.2968 63.7624 31.9696 62.983C31.7537 62.4918 31.788 61.1624 31.9652 59.9467C32.5286 56.7243 34.6474 55.1399 37.1798 56.0796ZM56.6782 58.8419C57.1162 59.3106 57.5069 60.3401 57.5644 61.1041C57.6537 62.2926 57.5364 62.5184 56.6036 62.6134C55.9818 62.6767 55.3727 62.9098 55.2586 63.178C55.1413 63.4038 54.8019 63.6522 54.5798 63.6748C54.3133 63.702 54.2561 63.5367 54.3702 63.2685C54.4875 63.0427 54.5282 61.7982 54.4293 60.4823C54.327 58.5253 54.4315 58.1297 55.0978 58.0619C55.5864 58.0121 56.2846 58.3687 56.6782 58.8419ZM58.4731 64.2622C58.8891 65.0325 59.5303 65.8226 59.9112 66.126C61.3203 67.009 60.9881 69.1386 59.0666 72.1571C57.3036 74.9029 55.2547 76.8223 49.5771 81.0787C46.7382 83.2069 46.6938 83.2115 46.8742 82.0383C47.3142 79.5555 49.393 73.2704 50.7878 70.391C52.4902 66.8388 55.5251 63.1509 56.8132 63.0197C57.435 62.9564 57.9587 63.3736 58.4731 64.2622ZM32.5285 71.6086C33.0684 72.8368 34.9668 75.4664 37.0206 77.7807C38.976 79.9768 41.3442 82.9007 42.2554 84.3049L43.9635 86.7828L42.0908 85.0916C41.037 84.1724 37.949 82.391 35.1215 81.0964C29.4219 78.5117 26.9335 76.3698 26.7548 73.9929C26.6464 72.5497 27.4802 71.1389 28.5019 71.0349C28.8572 70.9987 29.3235 70.6518 29.6089 70.2806C30.6236 68.8941 31.5979 69.351 32.5285 71.6086ZM36.7085 82.5601C40.2247 84.084 41.8402 85.3309 43.5927 87.8043C44.5959 89.2419 44.7738 89.8226 44.5745 91.3399C43.629 99.0066 47.1023 111.869 53.6184 124.721C55.5586 128.502 57.248 131.922 57.4068 132.248C58.0038 133.642 44.8255 114.924 42.0759 110.499C38.158 104.226 36.5798 101.093 35.1631 97.1313C34.0258 93.9109 32.7286 87.3707 32.3619 83.0882C32.1641 80.4565 31.9864 80.4746 36.7085 82.5601ZM7.89878 89.8989C8.27646 90.1598 9.14618 91.0122 9.78423 91.7599C10.7683 92.9428 10.7779 93.0702 10.0289 92.6332C8.34371 91.65 6.49016 90.2134 6.46463 89.8738C6.42635 89.3645 7.05458 89.386 7.89878 89.8989ZM11.827 90.3543C12.0905 90.8835 12.44 91.96 12.6783 92.7484L13.1009 94.2023L12.1009 92.8072C11.1548 91.5348 10.6019 89.5381 11.1349 89.4838C11.2682 89.4703 11.5666 89.8676 11.827 90.3543ZM61.8145 87.8737C60.3308 90.7621 59.9447 93.3677 59.8429 100.35C59.7225 108.275 59.3331 110.239 56.6133 116.333C55.6147 118.53 54.7433 121.228 54.6422 122.265L54.5193 124.202L54.0329 121.899C53.1236 117.543 52.7142 109.715 53.1729 106.29C53.8087 101.648 55.4659 96.3044 57.1717 93.3934C58.3955 91.2158 62.0201 86.4413 62.4199 86.4006C62.5087 86.3916 62.2456 87.0599 61.8145 87.8737ZM17.3486 92.3584C17.5677 92.8921 17.9521 93.8367 18.184 94.5402L18.5462 95.7864L17.8446 94.7886C17.0858 93.6255 16.3012 91.5241 16.6565 91.4879C16.7898 91.4743 17.0882 91.8716 17.3486 92.3584ZM12.1303 94.9855C13.5456 95.3546 13.441 95.7502 11.9497 95.5599C9.55726 95.2902 9.1035 95.2081 9.0716 94.7837C9.03969 94.3592 9.80437 94.4097 12.1303 94.9855ZM24.6291 96.9207C24.9056 98.2184 25.0394 99.4024 24.9125 99.5009C24.6239 99.8296 23.0263 95.8435 22.9274 94.5277C22.8825 93.3347 22.9237 93.2877 23.5078 93.9126C23.8474 94.2629 24.3525 95.623 24.6291 96.9207ZM30.3671 100.614C30.8121 102.365 31.3522 104.192 31.5237 104.687C31.8001 105.386 31.7589 105.433 31.3652 104.96C30.3431 103.867 28.5357 98.8753 28.7796 97.9523C29.1217 96.5488 29.4297 97.0735 30.3671 100.614ZM20.3561 99.0238C21.6857 99.4445 21.6413 99.449 18.7573 99.7854C17.0726 99.9997 15.7273 99.9656 15.7113 99.7534C15.6443 98.862 18.4743 98.4028 20.3561 99.0238ZM26.6498 103.558C27.4272 103.779 28.119 104.05 28.1254 104.135C28.1477 104.432 20.333 104.672 19.9078 104.373C19.1968 103.847 21.4143 102.979 23.3466 103.082C24.3334 103.11 25.8247 103.3 26.6498 103.558ZM32.2269 109.278C33.4168 109.627 33.2868 109.683 30.5392 110.048C27.3475 110.459 26.3067 110.308 27.2393 109.615C28.0893 109.015 30.7164 108.833 32.2269 109.278ZM78.495 104.952C78.8442 105.429 78.8 106.033 78.2611 107.2L77.532 108.814L76.8206 107.09C75.8772 104.662 77.0601 103.13 78.495 104.952ZM65.4329 113.98C65.6773 114.255 66.2457 115.266 66.7188 116.202C67.7795 118.404 70.4333 121.555 73.5026 124.279C74.8484 125.511 75.8641 126.52 75.7309 126.533C74.8869 126.619 67.9562 123.732 65.8457 122.45C63.4019 120.902 61.4338 118.536 61.3093 116.881C61.1658 114.971 64.2679 112.773 65.4329 113.98ZM46.9801 153.712C54.3686 158.52 61.0242 163.702 65.7093 168.271C69.4802 171.994 70.8609 173.093 69.1752 170.913C65.8673 166.801 56.282 158.966 47.9605 153.655C41.0006 149.188 39.3883 147.983 41.5716 149.044C42.3618 149.434 45.3671 150.711 48.2771 151.912C55.3443 154.827 58.7591 156.789 61.9712 159.627C64.6057 161.925 67.647 166.064 69.7015 170.175C70.6954 172.084 70.7082 172.253 70.0387 172.279C69.6358 172.277 68.3538 171.894 67.1987 171.413C66.0435 170.932 63.4572 169.869 61.4262 169.05C49.4784 164.321 44.1875 160.027 39.9228 151.522C38.9257 149.57 38.1222 147.813 38.1126 147.686C38.1031 147.558 38.8552 148.038 39.763 148.801C40.712 149.517 43.9683 151.751 46.9801 153.712ZM51.6695 176.202C54.8772 176.004 58.6814 176.002 60.1759 176.234C63.7044 176.73 69.7782 178.935 72.0474 180.543L73.8438 181.814L72.1974 182.538C69.9483 183.58 62.7842 184.138 59.1637 183.608C55.1371 183.035 47.4007 180.743 42.7262 178.695L38.7943 177L42.3605 176.808C44.2769 176.698 48.5094 176.438 51.6695 176.202Z"/>
</mask>
<path d="M37.616 6.50644C37.2386 6.84426 36.4526 8.89176 35.8982 11.044L34.8973 14.9953L34.7345 12.8305C34.4923 10.2034 33.3782 9.07648 32.4586 10.5388C32.1384 11.0419 32.0054 11.6542 32.161 11.9378C32.2721 12.2258 32.7647 14.0148 33.178 15.9402C33.8582 19.036 33.8617 19.6772 33.2632 22.4327L32.5537 25.4989L32.308 22.2306C31.9956 18.6696 31.3762 16.9791 30.2338 16.6677C28.5933 16.2787 28.5462 17.4383 30.0962 21.3865C31.8749 25.9958 31.9895 26.9251 31.0494 32.2816L30.3753 36.4135L29.8823 33.4269C29.2398 29.643 28.0903 27.4504 26.891 27.5725C25.6473 27.6991 25.8034 29.1802 27.3688 32.1431C29.7694 36.689 30.1 38.1096 29.6612 43.5862C29.4625 46.301 29.3653 49.1765 29.3815 49.9875C29.4421 50.794 28.9435 49.5189 28.3206 47.1871C26.56 40.4375 24.8773 37.7004 23.4564 39.0427C22.4954 39.9532 22.8738 42.0104 24.4739 44.2427C25.2295 45.3633 26.6234 47.8304 27.5285 49.7485C29.0274 53.0176 29.1705 53.7301 29.935 60.9233L30.7822 68.6214L29.6403 69.5075C29.0059 69.9998 28.105 70.5193 27.626 70.6963C26.2778 71.2186 25.609 73.0403 26.1048 74.8717C26.4162 76.0376 27.2543 77.0643 29.0634 78.5054L31.5835 80.4729L32.3413 86.9825C33.2202 94.5062 34.4148 98.4906 37.5806 104.284C40.2288 109.147 44.3911 115.695 47.4293 119.791C48.7245 121.541 50.223 123.613 50.8166 124.365C52.2643 126.356 51.3025 125.47 48.033 121.868C46.4712 120.145 42.5099 116.272 39.2406 113.268C36.0157 110.261 33.1145 107.391 32.8509 106.862C32.6318 106.328 32.0344 104.336 31.5736 102.373C30.4451 97.4833 30.1212 96.7464 29.0996 96.8505C27.7226 96.9907 27.9492 100.004 29.5686 103.09L30.8801 105.651L28.5853 103.703C26.4841 101.95 26.1857 101.553 25.7469 99.2876C24.8597 94.6304 24.5642 93.6767 23.8025 93.0699C23.1328 92.4966 22.9995 92.5101 22.5208 93.286C21.839 94.3391 22.3031 96.3449 23.8874 98.9637L25.0114 100.817L22.5137 99.1463C20.6729 97.8795 19.8476 97.0226 19.3933 95.743C18.1545 92.3619 17.4845 91.1897 16.7199 91.1393C15.6379 91.0356 15.8639 92.8517 17.1371 94.9034L18.1943 96.4638L15.9061 95.1998C13.9925 94.1543 13.5068 93.6477 13.1794 92.2696C12.5978 89.8909 11.6898 88.5292 10.8998 88.7379C10.4208 88.915 10.2338 89.4045 10.396 90.3717L10.5457 91.7679L9.36483 90.3484C7.99031 88.7347 5.91516 88.5183 6.02364 89.9615C6.08107 90.7255 6.84281 91.3323 10.7877 93.7963L11.9588 94.4897L10.5023 94.1675C9.31552 93.8606 8.91576 93.9013 8.50348 94.371C8.09121 94.8407 8.15477 95.0909 8.77049 95.5414C9.67506 96.262 13.4001 96.396 14.1549 95.7203C14.5323 95.3825 15.4462 95.6316 17.2235 96.6482L19.7433 98.017L18.1887 98.1752C16.0122 98.3969 15.1969 98.8648 15.2639 99.7562C15.3405 100.775 16.2036 100.944 19.8459 100.573C22.7331 100.279 23.006 100.337 24.7103 101.574C26.3734 102.859 26.421 102.897 25.1898 102.595C23.0955 102.124 20.1767 102.592 19.441 103.522C18.1757 105.148 19.28 105.549 24.4041 105.241L29.1284 104.974L31.566 107.035C32.9054 108.182 33.5943 109.01 33.1341 108.843C29.9799 107.967 26.0522 108.709 26.4272 110.125C26.6019 110.663 27.281 110.765 29.9525 110.579C31.7768 110.436 33.7408 110.364 34.2834 110.437C35.8191 110.623 46.3222 120.546 51.2427 126.46C52.4235 127.88 53.6425 129.21 54.017 129.428C54.9596 130.059 68.7443 149.699 74.3291 158.497C81.8854 170.303 82.908 172.594 84.2818 180.153C84.8544 183.602 85.2934 186.465 85.211 186.559C85.1285 186.653 82.2845 183.949 78.8532 180.577C73.0064 174.842 72.4128 174.09 70.209 169.781C68.8563 167.267 67.1576 164.317 66.3608 163.244C62.9735 158.67 55.8167 153.967 47.6231 150.952C40.1181 148.166 35.0782 144.83 33.538 141.607C32.9029 140.303 32.1571 139.909 32.2337 140.928C32.2752 141.479 34.3545 144.133 35.7447 145.36C36.224 145.782 37.3607 147.805 38.2722 149.808C43.1882 160.428 48.3871 164.689 64.162 170.91L70.5246 173.384L74.9177 177.642C77.3332 180.005 78.9934 181.846 78.5809 181.717C78.2159 181.626 77.0863 181.484 76.1408 181.409C75.1064 181.344 73.4435 180.657 71.9392 179.699C65.8298 175.83 59.9786 174.8 48.2711 175.65C43.7309 175.984 38.8638 176.137 37.42 175.985C35.9731 175.79 34.8563 175.818 34.9611 176.022C35.0659 176.225 36.275 176.829 37.6586 177.372C39.0422 177.916 42.7741 179.332 45.957 180.59C49.1367 181.806 53.6777 183.269 56.0448 183.798C60.0494 184.673 60.8109 184.681 66.1442 184.181C70.4528 183.742 72.2612 183.387 73.2033 182.82C74.1866 182.207 75.0718 182.074 77.0898 182.125C79.6059 182.254 79.7011 182.33 82.5579 185.204C84.1545 186.795 85.583 188.532 85.707 188.99C85.8785 189.485 87.0422 195.44 88.3586 202.235C90.4415 213.272 90.7374 215.423 90.9686 222.072C91.1547 226.929 91.0548 230.959 90.6752 233.65C90.0077 238.465 89.995 238.296 90.5309 237.685C91.809 236.229 92.3171 222.148 91.3401 215.105C90.9742 212.619 89.7975 205.895 88.6529 200.195C87.5495 194.448 86.5448 189.417 86.5097 188.951C86.4746 188.484 86.0866 186.299 85.6542 184.119C85.2218 181.939 84.0818 172.132 83.1227 162.35C81.2938 143.973 80.3423 137.27 78.7059 131.577C77.4858 127.253 76.927 126.369 73.1784 122.944C71.4485 121.366 69.1947 118.773 68.2263 117.203C66.7055 114.835 66.4196 114.008 66.4093 112.085C66.3546 110.166 66.5416 109.676 67.3536 109.166C67.9119 108.852 68.6192 108.139 68.9362 107.593C69.6148 106.497 70.3858 106.633 70.4752 107.821C70.5071 108.246 70.7674 108.733 70.9991 108.837C71.3228 108.975 71.421 108.495 71.2936 107.396C70.8513 104.49 72.6371 103.239 74.6939 104.997C76.8459 106.83 77.4854 111.171 76.67 118.782C76.0663 124.446 76.0855 124.701 76.5738 124.052C76.9417 123.587 77.6783 117.31 77.9078 112.026C78.1124 108.199 78.962 106.401 80.7672 106.004C82.2202 105.684 82.9726 106.763 83.2181 109.432C83.4924 113.083 81.8637 118.21 78.5378 123.98C77.742 125.302 77.2507 126.507 77.3967 126.663C77.7775 126.966 77.6158 127.197 79.8161 123.123C80.7957 121.27 82.1778 118.221 82.8021 116.404C83.8449 113.603 83.9904 112.561 83.8242 109.755C83.5977 106.742 83.4769 106.326 82.4455 105.704C81.833 105.296 81.0111 105.08 80.6145 105.164C80.2212 105.289 79.5262 104.975 79.0437 104.511C78.0756 103.54 76.9047 103.446 76.1626 104.291C75.8328 104.667 75.3346 104.589 74.2588 103.972C73.0433 103.283 72.6371 103.239 71.7807 103.753C71.2224 104.067 70.6452 104.724 70.5026 105.209C70.4077 105.732 70.0366 106.155 69.7701 106.182C69.5036 106.209 68.9105 106.655 68.4093 107.133C67.9558 107.65 67.0869 108.594 66.4653 109.256C65.6755 110.064 65.3332 110.868 65.4002 111.76C65.4864 112.906 65.3627 113.047 64.0301 113.182C61.9425 113.395 60.7184 114.974 60.8875 117.223C61.1364 120.534 64.9863 123.521 72.4849 126.222L76.7626 127.754L77.7601 130.903C79.2407 135.714 80.978 147.513 82.1575 160.823L83.2381 172.817L81.6407 169.429C79.7226 165.348 72.1599 153.458 65.0961 143.441C58.4863 134.106 55.7078 128.7 55.3951 124.54C55.1878 121.781 55.3652 121.165 57.511 115.771C60.4143 108.546 60.5409 107.849 60.5188 100.409C60.5286 93.3938 61.2694 89.5545 63.2005 86.6633C64.4086 84.8722 66.4987 82.9058 67.7962 82.3032C68.1007 82.1866 68.1704 81.9229 67.98 81.7712C67.3579 81.2358 63.5612 84.3169 60.263 88.0744C55.3569 93.6637 52.8467 100.164 52.1523 108.789C51.9157 112.192 52.6233 119.818 53.4429 122.387C54.4945 125.659 50.2389 116.084 48.8697 112.16C46.5666 105.337 45.6222 100.515 45.3945 94.507L45.1829 89.3105L47.0953 87.3621C48.1324 86.2728 50.581 84.3127 52.5381 82.9586C60.9628 77.1393 62.9862 74.8803 62.2298 71.9634C61.9883 71.1325 61.6894 69.5377 61.5621 68.4386C61.3839 67.2591 60.8408 65.9885 60.3011 65.3592C58.8854 63.7925 58.4599 62.8948 58.2147 60.824C57.9251 58.7577 56.7538 57.4655 55.1991 57.6238C54.5329 57.6917 53.9743 57.4064 53.7044 56.7923C53.0852 55.7005 49.1558 52.2512 48.4895 52.3191C47.7344 52.396 42.9485 57.2031 42.9964 57.8398C43.0793 58.9434 41.7085 58.5697 39.9818 57.0347C36.9633 54.3909 33.9777 54.5665 32.053 57.5426C31.3301 58.6427 31.2638 59.5477 31.4909 63.7589C31.9194 71.8417 31.3633 69.8026 30.6933 60.8889L30.0711 52.6119L31.5138 50.3692C32.3161 49.1327 33.9428 46.9568 35.1352 45.5523C38.0877 41.9583 39.0072 40.496 38.9243 39.3924C38.7711 37.355 36.2236 37.9993 34.3146 40.5889C33.0112 42.3041 30.2377 48.8739 30.3555 49.8456C30.3842 50.2276 30.9708 49.0986 31.6871 47.3148C33.8994 41.6149 36.135 38.6072 37.8231 39.0341C38.8259 39.2741 37.9255 40.9911 34.6972 45.0837C33.2258 46.9443 31.7227 48.9793 31.3676 49.6142C30.2198 51.613 29.8512 50.2819 30.2426 45.3661C30.5866 41.0112 30.7228 40.4413 32.3241 37.9259C33.2848 36.4166 34.5406 34.6635 35.1622 34.0014C37.2331 31.7803 37.8761 29.0203 36.2326 29.1876C35.4331 29.269 33.7555 31.3645 32.5128 33.8862C30.9594 37.0384 31.3974 37.507 33.0016 34.4352C35.0338 30.5073 36.3563 29.0467 36.4711 30.5748C36.5254 31.2963 32.0858 37.1375 31.54 37.022C31.3147 37.0022 31.1562 37.2749 31.1881 37.6994C31.2168 38.0814 31.1439 38.3027 31.0011 38.1889C30.8583 38.0752 31.1714 35.6909 31.6715 32.8171L32.5356 27.6393L35.5675 24.5077C38.4726 21.4746 38.9259 20.3592 37.1047 20.5446C36.3496 20.6215 34.1074 22.9456 34.1552 23.5823C34.168 23.7521 34.8468 23.2552 35.6365 22.4477C37.2191 20.8751 37.5204 20.7161 37.5651 21.3104C37.581 21.5226 36.5884 22.6074 35.4213 23.7528C34.2065 24.8602 33.4485 25.4934 33.737 25.1646C34.3459 24.3327 34.3393 23.6491 33.6605 24.1459C33.3211 24.3943 33.2671 24.2715 33.4445 23.6546C33.6347 23.2076 33.9864 21.9314 34.2683 20.919C34.7974 19.0259 35.2129 18.5987 40.7794 14.0542C41.7087 13.318 41.2832 12.4204 40.0395 12.547C39.5953 12.5922 38.6119 13.2056 37.9047 13.9192L36.5663 15.1675L37.9486 12.7171C39.8794 9.22718 40.3989 7.20682 39.6244 6.43026C38.8531 5.69614 38.5834 5.68083 37.616 6.50644ZM39.2124 7.49871C39.2507 8.00807 38.9371 9.19481 38.5155 10.1359C37.6342 12.1076 35.3991 16.3129 35.3736 15.9733C35.3257 15.3366 37.4992 7.92977 37.9051 7.37519C38.552 6.45391 39.139 6.52245 39.2124 7.49871ZM33.8582 11.2945C34.0202 11.6629 34.227 13.2244 34.3419 14.7524L34.5113 17.6009L33.682 14.9052C33.2562 13.4088 32.8717 11.8654 32.7953 11.4455C32.7283 10.5541 33.4358 10.4393 33.8582 11.2945ZM40.5379 13.2234C40.5094 13.4401 39.4628 14.4021 38.1084 15.4382L35.6946 17.2665L37.6831 15.1393C39.5923 13.1486 40.4836 12.5018 40.5379 13.2234ZM31.1296 19.0572C31.1583 19.4392 31.3397 20.6611 31.5591 21.7936L31.9819 23.8463L30.8577 21.3945C30.2638 20.0436 29.7428 18.4713 29.6981 17.8771C29.666 16.8538 29.666 16.8538 30.3453 17.5545C30.7357 17.9853 31.0977 18.6328 31.1296 19.0572ZM27.8086 29.0616C28.3325 30.0775 29.632 34.2651 29.6386 34.9487C29.6197 35.2928 26.4917 28.8107 26.4598 28.3863C26.4024 27.6222 27.2402 28.0502 27.8086 29.0616ZM25.3735 40.7294C26.4118 42.6339 28.4769 49.267 27.966 49.0196C27.7343 48.9149 27.5343 48.6359 27.5152 48.3812C27.4961 48.1265 26.553 46.2978 25.375 44.322C23.4191 40.9284 23.0441 39.5123 24.1546 39.3993C24.4211 39.3721 24.9575 39.9591 25.3735 40.7294ZM51.2479 55.075C54.5903 58.4557 54.8902 62.4456 52.046 66.884C51.1265 68.3463 50.1721 69.9405 49.9375 70.3921C49.5412 71.074 49.4808 70.8663 49.5372 69.2352C49.666 66.1854 47.7288 61.8489 45.3864 59.8633C44.3358 58.9866 43.4661 58.1342 43.4565 58.0068C43.415 57.455 47.8458 53.2828 48.5533 53.168C48.9531 53.1273 50.1813 53.986 51.2479 55.075ZM37.1798 56.0796C37.7319 56.2801 38.7634 56.9021 39.4743 57.4285L40.7534 58.3676L39.5514 59.6448C38.3494 60.922 37.9786 61.9435 38.7337 61.8666C38.9558 61.844 39.3205 61.3364 39.5423 60.715C40.4837 58.3523 43.6312 58.545 45.8406 61.143C49.0373 64.9663 49.5281 70.3054 47.2945 78.1033C45.8118 83.3868 45.337 86.0014 45.9144 85.9426C46.0921 85.9245 46.4948 85.3275 46.8435 84.6077C47.2335 83.8409 49.0794 82.1987 51.2458 80.6522C55.3629 77.6667 58.3696 74.7943 59.7996 72.3819C60.9093 70.4725 61.2138 70.356 61.6173 71.5552C62.4718 73.9917 60.217 76.7448 53.5813 81.3554C50.8186 83.3047 47.9385 85.4799 47.1932 86.2829C46.191 87.2404 45.6771 87.5493 45.5151 87.1809C45.3596 86.8973 45.2359 87.0382 45.271 87.5051C45.2617 87.9765 44.722 87.3472 44.0425 86.0477C42.7914 83.6943 39.9596 79.9622 36.0425 75.4852C33.6966 72.8583 32.258 69.797 32.057 67.1229C31.9645 65.892 32.2244 65.1812 33.1282 64.1054C34.4063 62.6494 35.3707 62.3801 37.3761 62.8602C39.2928 63.3494 39.2481 62.7552 37.3283 62.2235C35.5417 61.6783 34.222 61.9838 33.0136 63.1761C32.4332 63.7912 32.2968 63.7624 31.9696 62.983C31.7537 62.4918 31.788 61.1624 31.9652 59.9467C32.5286 56.7243 34.6474 55.1399 37.1798 56.0796ZM56.6782 58.8419C57.1162 59.3106 57.5069 60.3401 57.5644 61.1041C57.6537 62.2926 57.5364 62.5184 56.6036 62.6134C55.9818 62.6767 55.3727 62.9098 55.2586 63.178C55.1413 63.4038 54.8019 63.6522 54.5798 63.6748C54.3133 63.702 54.2561 63.5367 54.3702 63.2685C54.4875 63.0427 54.5282 61.7982 54.4293 60.4823C54.327 58.5253 54.4315 58.1297 55.0978 58.0619C55.5864 58.0121 56.2846 58.3687 56.6782 58.8419ZM58.4731 64.2622C58.8891 65.0325 59.5303 65.8226 59.9112 66.126C61.3203 67.009 60.9881 69.1386 59.0666 72.1571C57.3036 74.9029 55.2547 76.8223 49.5771 81.0787C46.7382 83.2069 46.6938 83.2115 46.8742 82.0383C47.3142 79.5555 49.393 73.2704 50.7878 70.391C52.4902 66.8388 55.5251 63.1509 56.8132 63.0197C57.435 62.9564 57.9587 63.3736 58.4731 64.2622ZM32.5285 71.6086C33.0684 72.8368 34.9668 75.4664 37.0206 77.7807C38.976 79.9768 41.3442 82.9007 42.2554 84.3049L43.9635 86.7828L42.0908 85.0916C41.037 84.1724 37.949 82.391 35.1215 81.0964C29.4219 78.5117 26.9335 76.3698 26.7548 73.9929C26.6464 72.5497 27.4802 71.1389 28.5019 71.0349C28.8572 70.9987 29.3235 70.6518 29.6089 70.2806C30.6236 68.8941 31.5979 69.351 32.5285 71.6086ZM36.7085 82.5601C40.2247 84.084 41.8402 85.3309 43.5927 87.8043C44.5959 89.2419 44.7738 89.8226 44.5745 91.3399C43.629 99.0066 47.1023 111.869 53.6184 124.721C55.5586 128.502 57.248 131.922 57.4068 132.248C58.0038 133.642 44.8255 114.924 42.0759 110.499C38.158 104.226 36.5798 101.093 35.1631 97.1313C34.0258 93.9109 32.7286 87.3707 32.3619 83.0882C32.1641 80.4565 31.9864 80.4746 36.7085 82.5601ZM7.89878 89.8989C8.27646 90.1598 9.14618 91.0122 9.78423 91.7599C10.7683 92.9428 10.7779 93.0702 10.0289 92.6332C8.34371 91.65 6.49016 90.2134 6.46463 89.8738C6.42635 89.3645 7.05458 89.386 7.89878 89.8989ZM11.827 90.3543C12.0905 90.8835 12.44 91.96 12.6783 92.7484L13.1009 94.2023L12.1009 92.8072C11.1548 91.5348 10.6019 89.5381 11.1349 89.4838C11.2682 89.4703 11.5666 89.8676 11.827 90.3543ZM61.8145 87.8737C60.3308 90.7621 59.9447 93.3677 59.8429 100.35C59.7225 108.275 59.3331 110.239 56.6133 116.333C55.6147 118.53 54.7433 121.228 54.6422 122.265L54.5193 124.202L54.0329 121.899C53.1236 117.543 52.7142 109.715 53.1729 106.29C53.8087 101.648 55.4659 96.3044 57.1717 93.3934C58.3955 91.2158 62.0201 86.4413 62.4199 86.4006C62.5087 86.3916 62.2456 87.0599 61.8145 87.8737ZM17.3486 92.3584C17.5677 92.8921 17.9521 93.8367 18.184 94.5402L18.5462 95.7864L17.8446 94.7886C17.0858 93.6255 16.3012 91.5241 16.6565 91.4879C16.7898 91.4743 17.0882 91.8716 17.3486 92.3584ZM12.1303 94.9855C13.5456 95.3546 13.441 95.7502 11.9497 95.5599C9.55726 95.2902 9.1035 95.2081 9.0716 94.7837C9.03969 94.3592 9.80437 94.4097 12.1303 94.9855ZM24.6291 96.9207C24.9056 98.2184 25.0394 99.4024 24.9125 99.5009C24.6239 99.8296 23.0263 95.8435 22.9274 94.5277C22.8825 93.3347 22.9237 93.2877 23.5078 93.9126C23.8474 94.2629 24.3525 95.623 24.6291 96.9207ZM30.3671 100.614C30.8121 102.365 31.3522 104.192 31.5237 104.687C31.8001 105.386 31.7589 105.433 31.3652 104.96C30.3431 103.867 28.5357 98.8753 28.7796 97.9523C29.1217 96.5488 29.4297 97.0735 30.3671 100.614ZM20.3561 99.0238C21.6857 99.4445 21.6413 99.449 18.7573 99.7854C17.0726 99.9997 15.7273 99.9656 15.7113 99.7534C15.6443 98.862 18.4743 98.4028 20.3561 99.0238ZM26.6498 103.558C27.4272 103.779 28.119 104.05 28.1254 104.135C28.1477 104.432 20.333 104.672 19.9078 104.373C19.1968 103.847 21.4143 102.979 23.3466 103.082C24.3334 103.11 25.8247 103.3 26.6498 103.558ZM32.2269 109.278C33.4168 109.627 33.2868 109.683 30.5392 110.048C27.3475 110.459 26.3067 110.308 27.2393 109.615C28.0893 109.015 30.7164 108.833 32.2269 109.278ZM78.495 104.952C78.8442 105.429 78.8 106.033 78.2611 107.2L77.532 108.814L76.8206 107.09C75.8772 104.662 77.0601 103.13 78.495 104.952ZM65.4329 113.98C65.6773 114.255 66.2457 115.266 66.7188 116.202C67.7795 118.404 70.4333 121.555 73.5026 124.279C74.8484 125.511 75.8641 126.52 75.7309 126.533C74.8869 126.619 67.9562 123.732 65.8457 122.45C63.4019 120.902 61.4338 118.536 61.3093 116.881C61.1658 114.971 64.2679 112.773 65.4329 113.98ZM46.9801 153.712C54.3686 158.52 61.0242 163.702 65.7093 168.271C69.4802 171.994 70.8609 173.093 69.1752 170.913C65.8673 166.801 56.282 158.966 47.9605 153.655C41.0006 149.188 39.3883 147.983 41.5716 149.044C42.3618 149.434 45.3671 150.711 48.2771 151.912C55.3443 154.827 58.7591 156.789 61.9712 159.627C64.6057 161.925 67.647 166.064 69.7015 170.175C70.6954 172.084 70.7082 172.253 70.0387 172.279C69.6358 172.277 68.3538 171.894 67.1987 171.413C66.0435 170.932 63.4572 169.869 61.4262 169.05C49.4784 164.321 44.1875 160.027 39.9228 151.522C38.9257 149.57 38.1222 147.813 38.1126 147.686C38.1031 147.558 38.8552 148.038 39.763 148.801C40.712 149.517 43.9683 151.751 46.9801 153.712ZM51.6695 176.202C54.8772 176.004 58.6814 176.002 60.1759 176.234C63.7044 176.73 69.7782 178.935 72.0474 180.543L73.8438 181.814L72.1974 182.538C69.9483 183.58 62.7842 184.138 59.1637 183.608C55.1371 183.035 47.4007 180.743 42.7262 178.695L38.7943 177L42.3605 176.808C44.2769 176.698 48.5094 176.438 51.6695 176.202Z" fill="#B3C4A9"/>
<path d="M37.616 6.50644C37.2386 6.84426 36.4526 8.89176 35.8982 11.044L34.8973 14.9953L34.7345 12.8305C34.4923 10.2034 33.3782 9.07648 32.4586 10.5388C32.1384 11.0419 32.0054 11.6542 32.161 11.9378C32.2721 12.2258 32.7647 14.0148 33.178 15.9402C33.8582 19.036 33.8617 19.6772 33.2632 22.4327L32.5537 25.4989L32.308 22.2306C31.9956 18.6696 31.3762 16.9791 30.2338 16.6677C28.5933 16.2787 28.5462 17.4383 30.0962 21.3865C31.8749 25.9958 31.9895 26.9251 31.0494 32.2816L30.3753 36.4135L29.8823 33.4269C29.2398 29.643 28.0903 27.4504 26.891 27.5725C25.6473 27.6991 25.8034 29.1802 27.3688 32.1431C29.7694 36.689 30.1 38.1096 29.6612 43.5862C29.4625 46.301 29.3653 49.1765 29.3815 49.9875C29.4421 50.794 28.9435 49.5189 28.3206 47.1871C26.56 40.4375 24.8773 37.7004 23.4564 39.0427C22.4954 39.9532 22.8738 42.0104 24.4739 44.2427C25.2295 45.3633 26.6234 47.8304 27.5285 49.7485C29.0274 53.0176 29.1705 53.7301 29.935 60.9233L30.7822 68.6214L29.6403 69.5075C29.0059 69.9998 28.105 70.5193 27.626 70.6963C26.2778 71.2186 25.609 73.0403 26.1048 74.8717C26.4162 76.0376 27.2543 77.0643 29.0634 78.5054L31.5835 80.4729L32.3413 86.9825C33.2202 94.5062 34.4148 98.4906 37.5806 104.284C40.2288 109.147 44.3911 115.695 47.4293 119.791C48.7245 121.541 50.223 123.613 50.8166 124.365C52.2643 126.356 51.3025 125.47 48.033 121.868C46.4712 120.145 42.5099 116.272 39.2406 113.268C36.0157 110.261 33.1145 107.391 32.8509 106.862C32.6318 106.328 32.0344 104.336 31.5736 102.373C30.4451 97.4833 30.1212 96.7464 29.0996 96.8505C27.7226 96.9907 27.9492 100.004 29.5686 103.09L30.8801 105.651L28.5853 103.703C26.4841 101.95 26.1857 101.553 25.7469 99.2876C24.8597 94.6304 24.5642 93.6767 23.8025 93.0699C23.1328 92.4966 22.9995 92.5101 22.5208 93.286C21.839 94.3391 22.3031 96.3449 23.8874 98.9637L25.0114 100.817L22.5137 99.1463C20.6729 97.8795 19.8476 97.0226 19.3933 95.743C18.1545 92.3619 17.4845 91.1897 16.7199 91.1393C15.6379 91.0356 15.8639 92.8517 17.1371 94.9034L18.1943 96.4638L15.9061 95.1998C13.9925 94.1543 13.5068 93.6477 13.1794 92.2696C12.5978 89.8909 11.6898 88.5292 10.8998 88.7379C10.4208 88.915 10.2338 89.4045 10.396 90.3717L10.5457 91.7679L9.36483 90.3484C7.99031 88.7347 5.91516 88.5183 6.02364 89.9615C6.08107 90.7255 6.84281 91.3323 10.7877 93.7963L11.9588 94.4897L10.5023 94.1675C9.31552 93.8606 8.91576 93.9013 8.50348 94.371C8.09121 94.8407 8.15477 95.0909 8.77049 95.5414C9.67506 96.262 13.4001 96.396 14.1549 95.7203C14.5323 95.3825 15.4462 95.6316 17.2235 96.6482L19.7433 98.017L18.1887 98.1752C16.0122 98.3969 15.1969 98.8648 15.2639 99.7562C15.3405 100.775 16.2036 100.944 19.8459 100.573C22.7331 100.279 23.006 100.337 24.7103 101.574C26.3734 102.859 26.421 102.897 25.1898 102.595C23.0955 102.124 20.1767 102.592 19.441 103.522C18.1757 105.148 19.28 105.549 24.4041 105.241L29.1284 104.974L31.566 107.035C32.9054 108.182 33.5943 109.01 33.1341 108.843C29.9799 107.967 26.0522 108.709 26.4272 110.125C26.6019 110.663 27.281 110.765 29.9525 110.579C31.7768 110.436 33.7408 110.364 34.2834 110.437C35.8191 110.623 46.3222 120.546 51.2427 126.46C52.4235 127.88 53.6425 129.21 54.017 129.428C54.9596 130.059 68.7443 149.699 74.3291 158.497C81.8854 170.303 82.908 172.594 84.2818 180.153C84.8544 183.602 85.2934 186.465 85.211 186.559C85.1285 186.653 82.2845 183.949 78.8532 180.577C73.0064 174.842 72.4128 174.09 70.209 169.781C68.8563 167.267 67.1576 164.317 66.3608 163.244C62.9735 158.67 55.8167 153.967 47.6231 150.952C40.1181 148.166 35.0782 144.83 33.538 141.607C32.9029 140.303 32.1571 139.909 32.2337 140.928C32.2752 141.479 34.3545 144.133 35.7447 145.36C36.224 145.782 37.3607 147.805 38.2722 149.808C43.1882 160.428 48.3871 164.689 64.162 170.91L70.5246 173.384L74.9177 177.642C77.3332 180.005 78.9934 181.846 78.5809 181.717C78.2159 181.626 77.0863 181.484 76.1408 181.409C75.1064 181.344 73.4435 180.657 71.9392 179.699C65.8298 175.83 59.9786 174.8 48.2711 175.65C43.7309 175.984 38.8638 176.137 37.42 175.985C35.9731 175.79 34.8563 175.818 34.9611 176.022C35.0659 176.225 36.275 176.829 37.6586 177.372C39.0422 177.916 42.7741 179.332 45.957 180.59C49.1367 181.806 53.6777 183.269 56.0448 183.798C60.0494 184.673 60.8109 184.681 66.1442 184.181C70.4528 183.742 72.2612 183.387 73.2033 182.82C74.1866 182.207 75.0718 182.074 77.0898 182.125C79.6059 182.254 79.7011 182.33 82.5579 185.204C84.1545 186.795 85.583 188.532 85.707 188.99C85.8785 189.485 87.0422 195.44 88.3586 202.235C90.4415 213.272 90.7374 215.423 90.9686 222.072C91.1547 226.929 91.0548 230.959 90.6752 233.65C90.0077 238.465 89.995 238.296 90.5309 237.685C91.809 236.229 92.3171 222.148 91.3401 215.105C90.9742 212.619 89.7975 205.895 88.6529 200.195C87.5495 194.448 86.5448 189.417 86.5097 188.951C86.4746 188.484 86.0866 186.299 85.6542 184.119C85.2218 181.939 84.0818 172.132 83.1227 162.35C81.2938 143.973 80.3423 137.27 78.7059 131.577C77.4858 127.253 76.927 126.369 73.1784 122.944C71.4485 121.366 69.1947 118.773 68.2263 117.203C66.7055 114.835 66.4196 114.008 66.4093 112.085C66.3546 110.166 66.5416 109.676 67.3536 109.166C67.9119 108.852 68.6192 108.139 68.9362 107.593C69.6148 106.497 70.3858 106.633 70.4752 107.821C70.5071 108.246 70.7674 108.733 70.9991 108.837C71.3228 108.975 71.421 108.495 71.2936 107.396C70.8513 104.49 72.6371 103.239 74.6939 104.997C76.8459 106.83 77.4854 111.171 76.67 118.782C76.0663 124.446 76.0855 124.701 76.5738 124.052C76.9417 123.587 77.6783 117.31 77.9078 112.026C78.1124 108.199 78.962 106.401 80.7672 106.004C82.2202 105.684 82.9726 106.763 83.2181 109.432C83.4924 113.083 81.8637 118.21 78.5378 123.98C77.742 125.302 77.2507 126.507 77.3967 126.663C77.7775 126.966 77.6158 127.197 79.8161 123.123C80.7957 121.27 82.1778 118.221 82.8021 116.404C83.8449 113.603 83.9904 112.561 83.8242 109.755C83.5977 106.742 83.4769 106.326 82.4455 105.704C81.833 105.296 81.0111 105.08 80.6145 105.164C80.2212 105.289 79.5262 104.975 79.0437 104.511C78.0756 103.54 76.9047 103.446 76.1626 104.291C75.8328 104.667 75.3346 104.589 74.2588 103.972C73.0433 103.283 72.6371 103.239 71.7807 103.753C71.2224 104.067 70.6452 104.724 70.5026 105.209C70.4077 105.732 70.0366 106.155 69.7701 106.182C69.5036 106.209 68.9105 106.655 68.4093 107.133C67.9558 107.65 67.0869 108.594 66.4653 109.256C65.6755 110.064 65.3332 110.868 65.4002 111.76C65.4864 112.906 65.3627 113.047 64.0301 113.182C61.9425 113.395 60.7184 114.974 60.8875 117.223C61.1364 120.534 64.9863 123.521 72.4849 126.222L76.7626 127.754L77.7601 130.903C79.2407 135.714 80.978 147.513 82.1575 160.823L83.2381 172.817L81.6407 169.429C79.7226 165.348 72.1599 153.458 65.0961 143.441C58.4863 134.106 55.7078 128.7 55.3951 124.54C55.1878 121.781 55.3652 121.165 57.511 115.771C60.4143 108.546 60.5409 107.849 60.5188 100.409C60.5286 93.3938 61.2694 89.5545 63.2005 86.6633C64.4086 84.8722 66.4987 82.9058 67.7962 82.3032C68.1007 82.1866 68.1704 81.9229 67.98 81.7712C67.3579 81.2358 63.5612 84.3169 60.263 88.0744C55.3569 93.6637 52.8467 100.164 52.1523 108.789C51.9157 112.192 52.6233 119.818 53.4429 122.387C54.4945 125.659 50.2389 116.084 48.8697 112.16C46.5666 105.337 45.6222 100.515 45.3945 94.507L45.1829 89.3105L47.0953 87.3621C48.1324 86.2728 50.581 84.3127 52.5381 82.9586C60.9628 77.1393 62.9862 74.8803 62.2298 71.9634C61.9883 71.1325 61.6894 69.5377 61.5621 68.4386C61.3839 67.2591 60.8408 65.9885 60.3011 65.3592C58.8854 63.7925 58.4599 62.8948 58.2147 60.824C57.9251 58.7577 56.7538 57.4655 55.1991 57.6238C54.5329 57.6917 53.9743 57.4064 53.7044 56.7923C53.0852 55.7005 49.1558 52.2512 48.4895 52.3191C47.7344 52.396 42.9485 57.2031 42.9964 57.8398C43.0793 58.9434 41.7085 58.5697 39.9818 57.0347C36.9633 54.3909 33.9777 54.5665 32.053 57.5426C31.3301 58.6427 31.2638 59.5477 31.4909 63.7589C31.9194 71.8417 31.3633 69.8026 30.6933 60.8889L30.0711 52.6119L31.5138 50.3692C32.3161 49.1327 33.9428 46.9568 35.1352 45.5523C38.0877 41.9583 39.0072 40.496 38.9243 39.3924C38.7711 37.355 36.2236 37.9993 34.3146 40.5889C33.0112 42.3041 30.2377 48.8739 30.3555 49.8456C30.3842 50.2276 30.9708 49.0986 31.6871 47.3148C33.8994 41.6149 36.135 38.6072 37.8231 39.0341C38.8259 39.2741 37.9255 40.9911 34.6972 45.0837C33.2258 46.9443 31.7227 48.9793 31.3676 49.6142C30.2198 51.613 29.8512 50.2819 30.2426 45.3661C30.5866 41.0112 30.7228 40.4413 32.3241 37.9259C33.2848 36.4166 34.5406 34.6635 35.1622 34.0014C37.2331 31.7803 37.8761 29.0203 36.2326 29.1876C35.4331 29.269 33.7555 31.3645 32.5128 33.8862C30.9594 37.0384 31.3974 37.507 33.0016 34.4352C35.0338 30.5073 36.3563 29.0467 36.4711 30.5748C36.5254 31.2963 32.0858 37.1375 31.54 37.022C31.3147 37.0022 31.1562 37.2749 31.1881 37.6994C31.2168 38.0814 31.1439 38.3027 31.0011 38.1889C30.8583 38.0752 31.1714 35.6909 31.6715 32.8171L32.5356 27.6393L35.5675 24.5077C38.4726 21.4746 38.9259 20.3592 37.1047 20.5446C36.3496 20.6215 34.1074 22.9456 34.1552 23.5823C34.168 23.7521 34.8468 23.2552 35.6365 22.4477C37.2191 20.8751 37.5204 20.7161 37.5651 21.3104C37.581 21.5226 36.5884 22.6074 35.4213 23.7528C34.2065 24.8602 33.4485 25.4934 33.737 25.1646C34.3459 24.3327 34.3393 23.6491 33.6605 24.1459C33.3211 24.3943 33.2671 24.2715 33.4445 23.6546C33.6347 23.2076 33.9864 21.9314 34.2683 20.919C34.7974 19.0259 35.2129 18.5987 40.7794 14.0542C41.7087 13.318 41.2832 12.4204 40.0395 12.547C39.5953 12.5922 38.6119 13.2056 37.9047 13.9192L36.5663 15.1675L37.9486 12.7171C39.8794 9.22718 40.3989 7.20682 39.6244 6.43026C38.8531 5.69614 38.5834 5.68083 37.616 6.50644ZM39.2124 7.49871C39.2507 8.00807 38.9371 9.19481 38.5155 10.1359C37.6342 12.1076 35.3991 16.3129 35.3736 15.9733C35.3257 15.3366 37.4992 7.92977 37.9051 7.37519C38.552 6.45391 39.139 6.52245 39.2124 7.49871ZM33.8582 11.2945C34.0202 11.6629 34.227 13.2244 34.3419 14.7524L34.5113 17.6009L33.682 14.9052C33.2562 13.4088 32.8717 11.8654 32.7953 11.4455C32.7283 10.5541 33.4358 10.4393 33.8582 11.2945ZM40.5379 13.2234C40.5094 13.4401 39.4628 14.4021 38.1084 15.4382L35.6946 17.2665L37.6831 15.1393C39.5923 13.1486 40.4836 12.5018 40.5379 13.2234ZM31.1296 19.0572C31.1583 19.4392 31.3397 20.6611 31.5591 21.7936L31.9819 23.8463L30.8577 21.3945C30.2638 20.0436 29.7428 18.4713 29.6981 17.8771C29.666 16.8538 29.666 16.8538 30.3453 17.5545C30.7357 17.9853 31.0977 18.6328 31.1296 19.0572ZM27.8086 29.0616C28.3325 30.0775 29.632 34.2651 29.6386 34.9487C29.6197 35.2928 26.4917 28.8107 26.4598 28.3863C26.4024 27.6222 27.2402 28.0502 27.8086 29.0616ZM25.3735 40.7294C26.4118 42.6339 28.4769 49.267 27.966 49.0196C27.7343 48.9149 27.5343 48.6359 27.5152 48.3812C27.4961 48.1265 26.553 46.2978 25.375 44.322C23.4191 40.9284 23.0441 39.5123 24.1546 39.3993C24.4211 39.3721 24.9575 39.9591 25.3735 40.7294ZM51.2479 55.075C54.5903 58.4557 54.8902 62.4456 52.046 66.884C51.1265 68.3463 50.1721 69.9405 49.9375 70.3921C49.5412 71.074 49.4808 70.8663 49.5372 69.2352C49.666 66.1854 47.7288 61.8489 45.3864 59.8633C44.3358 58.9866 43.4661 58.1342 43.4565 58.0068C43.415 57.455 47.8458 53.2828 48.5533 53.168C48.9531 53.1273 50.1813 53.986 51.2479 55.075ZM37.1798 56.0796C37.7319 56.2801 38.7634 56.9021 39.4743 57.4285L40.7534 58.3676L39.5514 59.6448C38.3494 60.922 37.9786 61.9435 38.7337 61.8666C38.9558 61.844 39.3205 61.3364 39.5423 60.715C40.4837 58.3523 43.6312 58.545 45.8406 61.143C49.0373 64.9663 49.5281 70.3054 47.2945 78.1033C45.8118 83.3868 45.337 86.0014 45.9144 85.9426C46.0921 85.9245 46.4948 85.3275 46.8435 84.6077C47.2335 83.8409 49.0794 82.1987 51.2458 80.6522C55.3629 77.6667 58.3696 74.7943 59.7996 72.3819C60.9093 70.4725 61.2138 70.356 61.6173 71.5552C62.4718 73.9917 60.217 76.7448 53.5813 81.3554C50.8186 83.3047 47.9385 85.4799 47.1932 86.2829C46.191 87.2404 45.6771 87.5493 45.5151 87.1809C45.3596 86.8973 45.2359 87.0382 45.271 87.5051C45.2617 87.9765 44.722 87.3472 44.0425 86.0477C42.7914 83.6943 39.9596 79.9622 36.0425 75.4852C33.6966 72.8583 32.258 69.797 32.057 67.1229C31.9645 65.892 32.2244 65.1812 33.1282 64.1054C34.4063 62.6494 35.3707 62.3801 37.3761 62.8602C39.2928 63.3494 39.2481 62.7552 37.3283 62.2235C35.5417 61.6783 34.222 61.9838 33.0136 63.1761C32.4332 63.7912 32.2968 63.7624 31.9696 62.983C31.7537 62.4918 31.788 61.1624 31.9652 59.9467C32.5286 56.7243 34.6474 55.1399 37.1798 56.0796ZM56.6782 58.8419C57.1162 59.3106 57.5069 60.3401 57.5644 61.1041C57.6537 62.2926 57.5364 62.5184 56.6036 62.6134C55.9818 62.6767 55.3727 62.9098 55.2586 63.178C55.1413 63.4038 54.8019 63.6522 54.5798 63.6748C54.3133 63.702 54.2561 63.5367 54.3702 63.2685C54.4875 63.0427 54.5282 61.7982 54.4293 60.4823C54.327 58.5253 54.4315 58.1297 55.0978 58.0619C55.5864 58.0121 56.2846 58.3687 56.6782 58.8419ZM58.4731 64.2622C58.8891 65.0325 59.5303 65.8226 59.9112 66.126C61.3203 67.009 60.9881 69.1386 59.0666 72.1571C57.3036 74.9029 55.2547 76.8223 49.5771 81.0787C46.7382 83.2069 46.6938 83.2115 46.8742 82.0383C47.3142 79.5555 49.393 73.2704 50.7878 70.391C52.4902 66.8388 55.5251 63.1509 56.8132 63.0197C57.435 62.9564 57.9587 63.3736 58.4731 64.2622ZM32.5285 71.6086C33.0684 72.8368 34.9668 75.4664 37.0206 77.7807C38.976 79.9768 41.3442 82.9007 42.2554 84.3049L43.9635 86.7828L42.0908 85.0916C41.037 84.1724 37.949 82.391 35.1215 81.0964C29.4219 78.5117 26.9335 76.3698 26.7548 73.9929C26.6464 72.5497 27.4802 71.1389 28.5019 71.0349C28.8572 70.9987 29.3235 70.6518 29.6089 70.2806C30.6236 68.8941 31.5979 69.351 32.5285 71.6086ZM36.7085 82.5601C40.2247 84.084 41.8402 85.3309 43.5927 87.8043C44.5959 89.2419 44.7738 89.8226 44.5745 91.3399C43.629 99.0066 47.1023 111.869 53.6184 124.721C55.5586 128.502 57.248 131.922 57.4068 132.248C58.0038 133.642 44.8255 114.924 42.0759 110.499C38.158 104.226 36.5798 101.093 35.1631 97.1313C34.0258 93.9109 32.7286 87.3707 32.3619 83.0882C32.1641 80.4565 31.9864 80.4746 36.7085 82.5601ZM7.89878 89.8989C8.27646 90.1598 9.14618 91.0122 9.78423 91.7599C10.7683 92.9428 10.7779 93.0702 10.0289 92.6332C8.34371 91.65 6.49016 90.2134 6.46463 89.8738C6.42635 89.3645 7.05458 89.386 7.89878 89.8989ZM11.827 90.3543C12.0905 90.8835 12.44 91.96 12.6783 92.7484L13.1009 94.2023L12.1009 92.8072C11.1548 91.5348 10.6019 89.5381 11.1349 89.4838C11.2682 89.4703 11.5666 89.8676 11.827 90.3543ZM61.8145 87.8737C60.3308 90.7621 59.9447 93.3677 59.8429 100.35C59.7225 108.275 59.3331 110.239 56.6133 116.333C55.6147 118.53 54.7433 121.228 54.6422 122.265L54.5193 124.202L54.0329 121.899C53.1236 117.543 52.7142 109.715 53.1729 106.29C53.8087 101.648 55.4659 96.3044 57.1717 93.3934C58.3955 91.2158 62.0201 86.4413 62.4199 86.4006C62.5087 86.3916 62.2456 87.0599 61.8145 87.8737ZM17.3486 92.3584C17.5677 92.8921 17.9521 93.8367 18.184 94.5402L18.5462 95.7864L17.8446 94.7886C17.0858 93.6255 16.3012 91.5241 16.6565 91.4879C16.7898 91.4743 17.0882 91.8716 17.3486 92.3584ZM12.1303 94.9855C13.5456 95.3546 13.441 95.7502 11.9497 95.5599C9.55726 95.2902 9.1035 95.2081 9.0716 94.7837C9.03969 94.3592 9.80437 94.4097 12.1303 94.9855ZM24.6291 96.9207C24.9056 98.2184 25.0394 99.4024 24.9125 99.5009C24.6239 99.8296 23.0263 95.8435 22.9274 94.5277C22.8825 93.3347 22.9237 93.2877 23.5078 93.9126C23.8474 94.2629 24.3525 95.623 24.6291 96.9207ZM30.3671 100.614C30.8121 102.365 31.3522 104.192 31.5237 104.687C31.8001 105.386 31.7589 105.433 31.3652 104.96C30.3431 103.867 28.5357 98.8753 28.7796 97.9523C29.1217 96.5488 29.4297 97.0735 30.3671 100.614ZM20.3561 99.0238C21.6857 99.4445 21.6413 99.449 18.7573 99.7854C17.0726 99.9997 15.7273 99.9656 15.7113 99.7534C15.6443 98.862 18.4743 98.4028 20.3561 99.0238ZM26.6498 103.558C27.4272 103.779 28.119 104.05 28.1254 104.135C28.1477 104.432 20.333 104.672 19.9078 104.373C19.1968 103.847 21.4143 102.979 23.3466 103.082C24.3334 103.11 25.8247 103.3 26.6498 103.558ZM32.2269 109.278C33.4168 109.627 33.2868 109.683 30.5392 110.048C27.3475 110.459 26.3067 110.308 27.2393 109.615C28.0893 109.015 30.7164 108.833 32.2269 109.278ZM78.495 104.952C78.8442 105.429 78.8 106.033 78.2611 107.2L77.532 108.814L76.8206 107.09C75.8772 104.662 77.0601 103.13 78.495 104.952ZM65.4329 113.98C65.6773 114.255 66.2457 115.266 66.7188 116.202C67.7795 118.404 70.4333 121.555 73.5026 124.279C74.8484 125.511 75.8641 126.52 75.7309 126.533C74.8869 126.619 67.9562 123.732 65.8457 122.45C63.4019 120.902 61.4338 118.536 61.3093 116.881C61.1658 114.971 64.2679 112.773 65.4329 113.98ZM46.9801 153.712C54.3686 158.52 61.0242 163.702 65.7093 168.271C69.4802 171.994 70.8609 173.093 69.1752 170.913C65.8673 166.801 56.282 158.966 47.9605 153.655C41.0006 149.188 39.3883 147.983 41.5716 149.044C42.3618 149.434 45.3671 150.711 48.2771 151.912C55.3443 154.827 58.7591 156.789 61.9712 159.627C64.6057 161.925 67.647 166.064 69.7015 170.175C70.6954 172.084 70.7082 172.253 70.0387 172.279C69.6358 172.277 68.3538 171.894 67.1987 171.413C66.0435 170.932 63.4572 169.869 61.4262 169.05C49.4784 164.321 44.1875 160.027 39.9228 151.522C38.9257 149.57 38.1222 147.813 38.1126 147.686C38.1031 147.558 38.8552 148.038 39.763 148.801C40.712 149.517 43.9683 151.751 46.9801 153.712ZM51.6695 176.202C54.8772 176.004 58.6814 176.002 60.1759 176.234C63.7044 176.73 69.7782 178.935 72.0474 180.543L73.8438 181.814L72.1974 182.538C69.9483 183.58 62.7842 184.138 59.1637 183.608C55.1371 183.035 47.4007 180.743 42.7262 178.695L38.7943 177L42.3605 176.808C44.2769 176.698 48.5094 176.438 51.6695 176.202Z" stroke="#B3C4A9" stroke-opacity="0.8" mask="url(#path-1-outside-1_129_10610)"/>
<path d="M94.4748 118.397C93.9001 119.608 92.4145 122.278 91.1989 124.409C85.5861 134.16 84.0822 138.369 83.1996 147.337C82.9273 150.224 82.6079 153.073 82.4761 153.684C82.197 155.292 82.8381 154.97 84.9556 152.449C91.5939 144.555 93.6066 139.441 93.854 129.685C93.974 123.57 94.3909 120.838 95.4429 118.298C95.9767 117.133 96.1744 116.217 95.9543 116.239C95.7343 116.262 95.0526 117.228 94.4748 118.397ZM93.5461 122.589C93.4552 123.153 93.2836 126.201 93.1655 129.371C92.8138 137.73 91.8095 141.503 88.662 146.264C86.0736 150.2 83.1048 153.791 83.293 152.747C83.3902 152.268 83.7254 149.63 83.9663 146.917C84.5361 141.481 85.4334 137.462 86.9061 134.025C87.9299 131.701 93.3006 121.675 93.6054 121.602C93.6935 121.593 93.6811 122.021 93.5461 122.589Z" fill="#B3C4A9"/>
<path d="M82.5135 154.908C82.6601 154.945 82.8062 154.897 82.9234 154.838C83.1607 154.72 83.4567 154.464 83.8102 154.105C84.1707 153.738 84.6131 153.239 85.144 152.607L85.7548 151.873C88.7419 148.24 90.7412 145.153 92.0335 141.851C93.326 138.549 93.9048 135.046 94.0744 130.589L94.1028 129.684L94.1037 129.683C94.2235 123.58 94.6396 120.889 95.6693 118.398L95.8572 117.964C96.0293 117.545 96.154 117.17 96.2242 116.876C96.2701 116.683 96.2967 116.507 96.2912 116.37C96.2886 116.306 96.2785 116.219 96.2341 116.143C96.2099 116.101 96.1716 116.057 96.1147 116.026C96.0562 115.993 95.9934 115.984 95.9359 115.99C95.8366 116 95.7545 116.055 95.7047 116.092C95.6473 116.136 95.589 116.191 95.5317 116.253C95.4162 116.378 95.2836 116.549 95.145 116.749C94.8666 117.151 94.5456 117.697 94.2519 118.291L94.2502 118.294C93.6805 119.495 92.2 122.156 90.9831 124.289L90.9832 124.29C88.1753 129.168 86.3866 132.675 85.1906 136.09C83.9935 139.508 83.3937 142.824 82.9514 147.319L82.9514 147.32C82.6784 150.215 82.3605 153.045 82.2328 153.638L82.2306 153.648C82.1946 153.855 82.1722 154.038 82.1666 154.194C82.1612 154.346 82.1709 154.491 82.2125 154.612C82.2564 154.739 82.348 154.866 82.5135 154.908ZM83.5884 152.484C83.7247 151.59 84.005 149.287 84.2138 146.936L84.2148 146.936C84.783 141.515 85.6754 137.525 87.1334 134.121C87.6404 132.97 89.2345 129.892 90.7444 127.084C91.4983 125.682 92.2288 124.351 92.7897 123.367C92.9898 123.016 93.1691 122.711 93.3182 122.462C93.3128 122.487 93.3092 122.512 93.3033 122.538L93.302 122.547L93.2997 122.556C93.2516 122.854 93.1854 123.774 93.1168 124.996C93.0477 126.226 92.9755 127.781 92.9164 129.367L92.8424 130.88C92.6507 134.287 92.3172 136.872 91.7211 139.108C91.0413 141.659 90.0168 143.767 88.4553 146.129L88.4553 146.13C87.1655 148.091 85.7816 149.965 84.7465 151.215C84.2631 151.799 83.8625 152.236 83.5884 152.484Z" stroke="#B3C4A9" stroke-opacity="0.8" stroke-width="0.5"/>
<path d="M100.69 141.459C100.239 141.844 98.2903 143.229 96.3325 144.488C91.8819 147.441 89.2936 150.203 87.3648 154.206C86.5302 155.899 85.0371 158.716 84.0695 160.38C83.1452 162.04 82.425 163.509 82.5611 163.58C82.654 163.655 83.6652 162.578 84.7783 161.11C86.2501 159.183 87.8088 157.838 90.5985 156.028C96.0946 152.46 97.3005 151.067 99.297 146.211C100.221 143.96 101.25 141.951 101.588 141.789C102.219 141.471 102.416 140.605 101.853 140.663C101.637 140.685 101.139 141.032 100.69 141.459ZM98.2547 146.868C96.6198 150.715 95.4509 152.019 91.2106 154.866C89.8374 155.769 88.093 156.963 87.3043 157.51L85.894 158.501L86.9542 156.32C88.8522 152.489 90.1816 150.407 91.8113 148.844C93.3174 147.378 99.3637 142.991 99.6423 143.216C99.6887 143.254 99.0707 144.924 98.2547 146.868Z" fill="#B3C4A9"/>
<path d="M82.6592 163.819C82.7035 163.805 82.7421 163.782 82.7687 163.764C82.8249 163.728 82.8887 163.675 82.9544 163.616C83.0887 163.494 83.2654 163.314 83.4693 163.09C83.8787 162.64 84.4138 161.998 84.9739 161.259C86.4216 159.364 87.9547 158.038 90.7293 156.238C93.4778 154.453 95.1805 153.196 96.4442 151.766C97.7118 150.332 98.5261 148.736 99.5271 146.301L99.527 146.3C99.9868 145.18 100.472 144.122 100.883 143.327C101.089 142.929 101.273 142.6 101.425 142.364C101.502 142.245 101.567 142.154 101.62 142.091L101.689 142.015L101.695 142.012C102.078 141.818 102.336 141.459 102.411 141.135C102.448 140.975 102.449 140.784 102.348 140.628C102.235 140.455 102.041 140.392 101.835 140.413C101.734 140.424 101.629 140.467 101.537 140.514C101.439 140.563 101.332 140.628 101.222 140.704C101.005 140.854 100.762 141.053 100.532 141.271C100.094 141.644 98.1591 143.019 96.202 144.278L96.1992 144.28C91.7202 147.253 89.0957 150.046 87.1423 154.1L86.4123 155.541C85.5969 157.122 84.5784 159.015 83.8554 160.258L83.8527 160.262C83.3892 161.095 82.9753 161.883 82.6935 162.473C82.5533 162.767 82.4429 163.018 82.3757 163.203C82.3428 163.294 82.3158 163.382 82.3034 163.455C82.2975 163.49 82.292 163.539 82.2987 163.59C82.304 163.63 82.326 163.713 82.4043 163.774L82.4016 163.777C82.5086 163.863 82.6289 163.829 82.6592 163.819ZM87.1768 156.427C88.9538 152.84 90.219 150.816 91.685 149.316L91.9803 149.022L91.9822 149.021C92.7196 148.303 94.5925 146.851 96.3283 145.598C97.1937 144.974 98.0185 144.403 98.6422 144.004C98.8826 143.851 99.0918 143.727 99.2587 143.634C99.2003 143.8 99.1282 144.007 99.0388 144.244C98.7894 144.906 98.4325 145.807 98.0257 146.776L98.0256 146.775C97.2126 148.688 96.5245 149.946 95.525 151.078C94.5221 152.214 93.1938 153.237 91.0761 154.659L91.0762 154.66C89.7008 155.564 87.9556 156.759 87.1666 157.305L87.1657 157.305L86.5331 157.75L87.1768 156.427Z" stroke="#B3C4A9" stroke-opacity="0.8" stroke-width="0.5"/>
</svg>
