<svg width="52" height="268" viewBox="0 0 52 268" fill="none" xmlns="http://www.w3.org/2000/svg">
<path d="M16.8933 267.137C16.6456 266.642 16.2741 266.394 15.9645 266.58C15.0358 267.137 12.9307 265.589 12.9307 264.351C12.9307 262.865 13.426 262.803 15.0977 264.165C16.336 265.094 16.336 265.094 14.8501 264.784C14.0452 264.599 13.6118 264.661 13.9214 264.908C15.1597 266.023 17.6981 266.147 19.0603 265.156C20.2985 264.351 20.4224 263.856 20.1128 261.689C19.8032 260.017 20.0509 258.345 20.7319 256.488C21.7845 253.887 21.7226 253.702 20.4843 251.473C19.8032 250.235 18.9364 247.634 18.6269 245.777C18.2554 243.919 17.2647 240.762 16.3979 238.78C15.5311 236.799 14.7882 234.818 14.7882 234.323C14.7882 233.889 14.5405 233.332 14.169 233.084C13.3022 232.527 12.1258 237.48 12.8688 238.842C13.1784 239.461 14.0452 242.124 14.7263 244.724C15.8407 249.12 15.9026 249.739 15.0358 252.587C14.5405 254.321 13.6737 255.931 13.2403 256.116C12.745 256.302 12.4354 256.674 12.6212 256.921C12.8069 257.231 12.6212 257.664 12.2497 257.912C11.7544 258.222 11.6924 258.098 12.002 257.54C12.3735 256.921 12.2497 256.797 11.5067 257.107C10.8876 257.293 10.4542 257.231 10.4542 256.921C10.4542 256.55 10.8256 256.302 11.321 256.302C13.9214 256.302 15.0358 250.235 13.1784 246.705C12.6212 245.715 12.1258 243.61 12.0639 242.124C11.9401 240.514 11.5686 239.214 11.1352 239.09C10.0208 238.718 10.578 243.981 12.002 247.634C13.1165 250.42 12.9307 255.064 11.6924 255.064C11.4448 255.064 11.5067 254.073 11.8163 252.897C12.4354 251.101 12.2497 250.235 10.8256 246.953C9.52544 244.167 9.21587 242.681 9.52544 241.257C10.2065 237.975 10.0208 235.685 8.84439 232.899L7.66801 230.298L7.6061 233.641C7.6061 237.233 6.18207 240.204 4.51038 240.204C3.76741 240.204 3.58166 239.833 3.82932 238.842C4.44846 236.118 5.93441 232.775 6.24398 233.146C6.49164 233.332 6.24398 234.446 5.74867 235.685C4.63421 238.285 4.94378 239.895 6.12015 237.728C6.67738 236.737 6.86313 234.818 6.7393 232.465C6.12015 222.868 6.42972 218.906 7.91567 215.934L9.3397 212.962L8.10141 209.743C7.35844 207.947 6.67738 205.966 6.49164 205.347C5.99632 203.675 5.00569 204.604 4.51038 207.204C4.26272 208.442 3.51975 210.424 2.83869 211.6C1.90997 213.148 1.6004 214.881 1.53849 218.411C1.47657 222.435 1.29083 223.178 0.424029 223.364C-0.442772 223.549 -0.69043 223.178 -0.628515 221.816C-0.628515 220.33 -0.504687 220.268 -0.1332 221.321C0.238286 222.125 0.485944 220.887 0.609772 217.606C0.795516 214.138 1.29083 211.786 2.28146 209.804C3.02443 208.257 3.64358 206.647 3.64358 206.275C3.64358 205.842 4.26272 204.913 4.94378 204.232C6.12015 203.056 6.24398 202.622 5.56292 200.889C5.19144 199.836 4.88186 198.412 4.81995 197.731C4.81995 197.112 4.13889 198.536 3.33401 200.889C1.41466 206.647 -0.876173 211.971 -0.380858 209.557C-0.195115 208.566 0.671687 206.028 1.47657 203.984C3.02443 199.96 4.57229 193.273 4.07698 192.716C3.89123 192.53 3.39592 193.645 3.02443 195.131C1.97189 198.784 -0.628515 205.409 -0.69043 204.356C-0.69043 203.365 2.71486 192.964 4.01506 190.116C4.75804 188.568 4.88186 187.763 4.32464 186.71C3.95315 186.029 3.39592 184.605 3.02443 183.677C2.15763 181.262 0.981259 181.881 0.424029 185.101C-0.195115 188.692 -1 189.249 -0.442772 185.72C0.3002 180.767 0.485944 176.618 -0.0712858 177.98C-1 180.147 -0.752344 177.98 0.3002 174.947C1.10509 172.532 1.167 171.541 0.609772 169.746C0.238286 168.446 -0.195115 164.421 -0.380858 160.706C-0.628515 154.824 -0.566601 153.772 0.424029 152.719C2.28146 150.676 2.9006 146.838 1.90997 143.308C1.41466 141.637 0.671687 139.655 0.176372 138.974C-0.318943 138.293 -0.69043 136.931 -0.628515 135.879L-0.566601 134.021L0.176372 136.188C0.609772 137.365 1.53849 139.717 2.28146 141.327C4.26272 145.723 3.76741 151.233 1.22892 153.586C0.485944 154.267 -0.0712858 155.01 -0.0712858 155.258C-0.0712858 156.249 2.4672 159.778 2.96252 159.468C3.76741 158.973 11.3829 164.235 11.5686 165.474C12.1878 168.631 5.8725 166.464 3.58166 162.688C2.77678 161.449 2.09572 160.459 2.0338 160.521C1.72423 160.83 3.70549 169.127 4.57229 171.232C5.06761 172.47 5.50101 173.956 5.50101 174.575C5.50101 175.194 5.93441 175.999 6.42972 176.433C7.48227 177.299 7.72993 178.6 6.67738 177.98C6.36781 177.733 6.42972 178.476 6.92504 179.652C7.42035 180.767 7.66801 182.005 7.54418 182.438C7.42035 182.81 7.6061 183.367 8.0395 183.615C8.59673 183.924 8.65864 183.738 8.34907 182.872C7.97758 181.819 8.0395 181.819 9.3397 183.057C11.259 184.791 14.7882 186.525 14.7882 185.72C14.7882 185.348 13.3022 184.11 11.4448 182.934C8.65864 181.138 7.35844 179.776 7.35844 178.6C7.35844 178.104 12.6831 181.943 14.0452 183.429C15.2835 184.729 17.8839 189.187 17.8839 189.992C17.8839 190.178 17.0171 189.373 15.9645 188.32C14.912 187.206 13.6737 186.339 13.2403 186.339C12.8069 186.339 11.7544 185.72 10.8256 185.039C8.84439 183.491 7.91567 183.986 9.52544 185.72C11.5067 187.949 16.9552 190.673 19.3698 190.673C20.6081 190.673 21.5987 190.982 21.5987 191.292C21.5987 192.283 16.6456 191.292 13.3641 189.558C11.7544 188.754 9.58736 187.02 8.53481 185.782L6.67738 183.553L7.11078 185.41C7.79184 188.506 11.0733 193.521 11.8782 192.778C12.6212 191.973 16.0884 194.574 16.8933 196.555C17.3886 197.731 18.2554 198.722 18.8126 198.722C19.3698 198.722 20.7319 199.712 21.9083 200.889C23.3324 202.251 24.4468 202.87 25.1898 202.684C25.9947 202.375 26.0566 202.437 25.3755 202.932C24.1992 203.799 22.4036 203.18 21.2892 201.446C20.7939 200.641 19.8032 199.96 19.1222 199.96C17.9458 199.96 15.4073 197.236 15.4073 195.936C15.4073 195.069 12.3735 192.84 11.8782 193.335C11.6924 193.521 12.4973 195.007 13.6118 196.679C14.7263 198.288 15.5931 199.774 15.4692 199.836C15.0358 200.332 18.8126 203.675 20.4843 204.232C21.4749 204.604 22.0941 204.604 21.9083 204.294C21.7226 203.984 22.5275 203.923 23.7038 204.108C25.4374 204.356 25.9328 204.17 26.5519 203.118C26.9234 202.375 27.4806 201.941 27.8521 202.127C28.8427 202.808 28.4712 203.613 26.5519 204.604C24.2611 205.78 21.413 205.78 19.1841 204.666C17.3886 203.675 13.5499 199.712 13.5499 198.722C13.5499 198.226 8.10141 190.054 7.72993 190.054C7.54418 190.054 9.15396 199.217 9.89693 202.437C10.2684 203.984 10.6399 206.213 10.7637 207.39C11.0733 211.29 11.8163 214.324 12.6212 214.572C13.0546 214.758 13.6118 215.81 13.7975 216.987C14.0452 218.163 14.8501 219.463 15.655 220.02C17.6362 221.259 22.2179 226.212 23.0847 227.945C23.4562 228.75 25.3755 230.484 27.3568 231.784C30.081 233.703 30.7002 234.384 30.2048 235.066C29.338 236.056 28.2236 236.056 25.1279 235.189C23.3943 234.694 22.3417 233.827 20.67 231.351C19.1222 229.06 18.7507 228.069 19.3079 227.698C19.6794 227.45 19.7413 227.202 19.4317 227.202C19.0603 227.202 18.3173 226.398 17.6981 225.407C16.1503 222.806 16.3979 222.311 18.0696 224.726C18.8126 225.84 20.1128 227.202 20.9796 227.76C22.3417 228.626 22.3417 228.503 20.4843 226.15C18.503 223.611 13.9833 219.835 15.0977 221.63C15.5931 222.435 15.9026 223.549 18.1935 232.713C19.9271 239.833 18.7507 237.294 16.3979 228.936C15.1597 224.416 13.7975 219.649 13.426 218.411C13.0546 217.172 12.0639 215.501 11.1971 214.758C10.0208 213.767 9.71119 213.705 10.0208 214.448C10.2684 215.005 10.578 216.801 10.8256 218.411C11.0114 220.02 11.5686 222.002 12.002 222.868C12.4354 223.735 13.3641 226.583 14.1071 229.246C14.8501 231.908 16.0884 235.685 16.9552 237.666C17.7601 239.647 18.8745 243.238 19.3698 245.653C19.8651 248.068 20.7319 250.792 21.3511 251.659C22.2798 253.083 22.3417 253.702 21.6607 256.24C21.2892 257.85 20.9796 260.141 21.0415 261.317C21.1034 262.494 20.9177 263.98 20.67 264.661C20.2366 265.837 20.2985 265.837 21.5987 264.537C23.58 262.679 23.9515 257.355 22.5275 251.906C21.9702 249.739 21.2273 246.829 20.9796 245.467C20.67 244.105 20.2985 242.433 20.0509 241.752C19.6794 240.514 19.6794 240.514 20.4224 241.752C20.8558 242.433 21.413 243.919 21.6607 245.158C21.9083 246.334 22.7132 249.492 23.3943 252.216C24.1372 254.878 24.6945 257.912 24.6945 258.903C24.6945 261.813 23.0847 264.723 20.6081 266.456C17.822 268.314 17.3267 268.437 16.8933 267.137ZM19.4937 266.518C20.1128 266.023 20.4224 265.651 20.0509 265.651C19.7413 265.651 18.8745 266.023 18.2554 266.518C17.5743 267.013 17.3267 267.447 17.6362 267.447C18.0077 267.447 18.8126 267.013 19.4937 266.518ZM13.8595 244.538C13.3022 242.805 12.6831 241.505 12.4973 241.69C12.3116 241.876 12.6831 243.424 13.3022 245.096C14.7263 249.182 15.2216 248.687 13.8595 244.538ZM12.6212 231.041C12.6212 228.069 12.1878 225.964 11.259 223.673C10.4542 221.94 9.83502 219.277 9.83502 217.791C9.83502 215.872 9.64927 215.377 9.21587 216.058C8.9063 216.553 8.59673 217.606 8.59673 218.411C8.59673 219.215 8.34907 219.711 8.0395 219.463C5.68675 218.039 7.29653 228.936 10.2684 234.88C11.6305 237.542 12.6212 235.932 12.6212 231.041ZM29.6476 234.323C29.6476 234.261 27.9759 233.146 25.9328 231.908C23.58 230.484 22.3417 229.307 22.5894 228.874C22.837 228.441 22.837 228.317 22.5275 228.565C22.2798 228.812 21.5368 228.75 20.9177 228.379C19.1222 227.45 19.4937 228.688 21.7226 231.289C23.9515 233.827 26.7376 235.251 28.4712 234.818C29.1523 234.632 29.6476 234.446 29.6476 234.323ZM9.52544 208.814C8.84439 206.275 8.53481 204.356 8.28716 201.198C8.16333 199.65 7.79184 197.05 7.42035 195.316C7.11078 193.645 6.67738 190.549 6.42972 188.506C5.43909 179.652 4.26272 171.975 3.58166 170.798C3.21018 170.117 2.52912 167.826 2.09572 165.721L1.29083 161.883L1.22892 164.669C1.22892 166.217 1.72423 168.693 2.40529 170.179C3.33401 172.099 3.64358 174.204 3.64358 177.733C3.64358 180.395 4.01506 183.8 4.51038 185.224C5.00569 186.71 5.43909 189.806 5.43909 192.159C5.56292 198.041 8.34907 210.486 9.58736 210.486C9.7731 210.486 9.7731 209.743 9.52544 208.814ZM2.71486 177.361C2.9006 176.371 2.83869 174.699 2.52912 173.646C2.0338 171.975 1.97189 172.161 1.53849 175.69C1.29083 177.857 0.919344 180.086 0.733601 180.643C0.485944 181.448 0.609772 181.386 1.35274 180.457C1.90997 179.776 2.52912 178.414 2.71486 177.361ZM9.46353 164.359C8.9063 163.492 8.22524 162.811 7.97758 162.811C7.72993 162.811 6.49164 162.13 5.25335 161.264C4.01506 160.459 3.02443 159.963 3.02443 160.211C3.08635 161.511 8.22524 165.845 9.71119 165.907C10.2684 165.907 10.2065 165.474 9.46353 164.359ZM0.609772 158.663C0.0525429 157.673 -0.00937146 157.734 -0.0712858 159.158C-0.0712858 160.025 0.114457 160.954 0.424029 161.202C1.167 161.945 1.29083 159.84 0.609772 158.663Z" fill="#B3C4A9"/>
<path d="M26.2423 245.715C24.8802 245.034 22.6513 242.99 21.3511 241.319L18.8745 238.161L22.2179 240.452C24.0134 241.69 26.1185 242.681 26.7996 242.619C28.3474 242.495 33.3625 244.476 33.3625 245.219C33.3625 245.9 31.1955 247.015 29.8334 247.015C29.2142 247.015 27.6044 246.396 26.2423 245.715ZM32.0004 245.715C32.8672 245.715 32.8672 245.591 32.1242 245.343C31.6289 245.157 30.3906 244.662 29.338 244.229C28.3474 243.857 26.5519 243.176 25.3755 242.805C23.3943 242.124 23.3323 242.186 24.3849 243.3C25.747 244.786 29.1523 246.458 30.1429 246.086C30.6382 245.9 31.4431 245.777 32.0004 245.715Z" fill="#B3C4A9"/>
<path d="M20.6698 221.506C18.9981 220.577 15.4071 217.172 15.4071 216.491C15.4071 216.182 14.4165 214.015 13.2401 211.6C12.0018 209.185 11.135 207.142 11.2588 207.018C11.3207 206.894 12.9305 208.628 14.6641 210.919C18.9981 216.305 20.4841 217.42 24.137 217.791C26.5517 218.039 27.1708 218.287 27.1708 219.215C27.1708 219.834 26.3659 220.763 25.3134 221.32C23.2083 222.435 22.3415 222.435 20.6698 221.506ZM24.7562 220.701C26.8613 219.587 26.6755 218.534 24.3847 219.03C22.0939 219.463 19.6792 218.163 17.4503 215.315C14.9737 212.343 14.8499 212.776 17.0169 216.491C17.8837 217.977 19.4934 219.773 20.546 220.454C22.8987 221.878 22.5273 221.816 24.7562 220.701Z" fill="#B3C4A9"/>
<path d="M18.3171 202.127C15.7167 200.331 15.1594 199.279 17.7598 200.889C21.1032 203.118 21.8462 203.676 21.2889 203.676C20.9175 203.676 19.6173 202.994 18.3171 202.127Z" fill="#B3C4A9"/>
<path d="M-0.442639 145.289C-0.504553 140.894 -0.504553 140.894 0.0526761 143.865C0.362248 145.475 0.362248 147.518 0.11459 148.323C-0.256896 149.376 -0.380725 148.447 -0.442639 145.289Z" fill="#B3C4A9"/>
<path d="M10.7018 142.627C10.1446 140.212 9.3397 139.284 7.72993 139.284C6.98695 139.284 5.43909 138.417 4.32464 137.302C2.77678 135.755 2.40529 135.012 2.71486 133.711C2.96252 132.597 2.59103 131.111 1.66232 129.316C0.238286 126.529 -0.1332 123.31 0.795516 120.771C1.22892 119.533 1.167 119.347 0.3002 119.657C-0.257029 119.905 -0.69043 119.781 -0.69043 119.409C-0.69043 119.1 -0.00937146 118.542 0.85743 118.233C3.02443 117.428 3.27209 115.385 1.78615 111.113C0.114457 106.345 -0.814258 101.392 -0.1332 100.711C0.176372 100.402 0.981259 101.021 1.78615 102.073C3.39592 104.426 6.7393 113.589 6.7393 115.88C6.7393 117.738 7.85376 117.738 10.3303 115.818C11.5686 114.889 11.6924 114.456 11.259 112.661C10.8256 111.113 10.1446 110.37 8.65864 109.689C6.7393 108.946 6.61547 108.946 7.04887 109.998C7.29653 110.617 7.6061 112.351 7.72993 113.899C7.91567 116.066 7.79184 115.756 6.98695 112.413C5.8725 107.46 3.08635 101.516 1.04317 99.9062C0.238286 99.2251 -0.442772 98.1726 -0.566601 97.4915C-0.814258 95.9437 1.84806 99.1013 4.57229 103.621C5.62484 105.355 7.79184 107.769 9.40161 108.946C11.8163 110.741 12.3116 111.422 12.3116 113.094C12.3116 115.323 13.488 115.818 14.7882 114.208C16.1503 112.599 14.4786 106.593 12.002 104.302C9.58736 102.073 5.50101 99.4728 5.00569 99.9681C4.38655 100.525 8.22524 104.054 9.09204 103.683C9.52544 103.497 9.71119 103.683 9.52544 104.054C9.03013 104.797 10.3922 106.593 11.1352 106.098C11.4448 105.912 11.5067 106.283 11.259 106.841C11.0114 107.46 11.1352 107.769 11.4448 107.522C11.7544 107.336 12.0639 107.707 12.0639 108.388C12.0639 109.998 11.3829 109.874 10.578 108.017C10.1446 107.15 8.53481 105.045 6.98695 103.373C5.43909 101.702 4.32464 100.03 4.57229 99.7205C4.75804 99.349 3.64358 97.863 2.09572 96.3771C0.547858 94.8911 -0.69043 93.4052 -0.69043 93.0337C-0.69043 92.6622 3.14826 92.4765 9.71119 92.5384C18.3792 92.6003 20.2366 92.4765 21.3511 91.6097C22.0941 91.0524 23.8896 90.2476 25.3755 89.7522C28.2855 88.8235 29.0285 88.0806 30.5763 85.0468C31.4431 83.1274 31.567 83.1274 34.2912 83.6227C35.7771 83.9323 37.8203 84.6133 38.6871 85.2325C39.6158 85.8516 41.659 86.4708 43.2069 86.7184L46.0549 87.0899L43.4545 87.2138C41.8448 87.2757 39.8016 86.7184 37.8203 85.7278C33.7959 83.7465 32.6814 83.8085 31.3812 86.0374L30.3287 87.8948H33.8578C35.7771 87.8948 37.7584 88.1425 38.2537 88.452C38.9967 88.9474 37.3869 88.8854 31.3812 88.2663C30.3287 88.2044 29.5857 88.452 29.338 89.0093C29.0904 89.7522 29.4619 89.8761 31.1955 89.5665C32.4957 89.3808 33.2387 89.4427 33.0529 89.7522C32.8672 90.0618 31.3193 90.3095 29.7095 90.3095C27.6664 90.2476 25.5613 90.7429 23.1466 91.8573C19.8651 93.3433 19.1841 93.4052 13.0546 93.1575C7.91567 92.9718 7.04887 93.0337 9.21587 93.4671C14.0452 94.4577 17.2647 95.4484 17.2647 95.9437C17.2647 96.8105 22.5275 94.7054 23.58 93.3433C24.5087 92.3526 24.6945 92.2907 24.6945 93.0956C24.6945 93.6528 24.7564 94.272 24.7564 94.5816C24.8183 94.8292 24.2611 95.3245 23.5181 95.696C22.7751 96.0675 22.2179 96.6247 22.2798 96.9343C22.4656 97.863 27.9759 99.6585 30.5763 99.6585C34.2912 99.5966 40.235 98.0488 42.0305 96.6247C42.8973 95.8818 45.25 94.5197 47.2313 93.5909C52.8036 90.8667 50.5128 90.8048 43.5784 93.529C40.1731 94.8292 36.582 95.8818 35.5295 95.8199C33.6721 95.7579 33.6721 95.7579 35.8391 95.2626C37.325 94.9531 36.0248 94.8292 31.8146 94.9531C28.3474 95.0769 26.4281 94.9531 27.4806 94.7054C28.5332 94.4577 31.7527 94.2101 34.7246 94.1482C39.0586 94.0863 40.978 93.7767 44.3213 92.4146C48.3458 90.8048 48.4696 90.681 46.6741 90.3095C45.6834 90.1237 42.6496 90.0618 40.0492 90.2476C37.3869 90.4333 35.2199 90.3095 35.2199 89.9999C35.2199 89.6903 37.7584 89.3808 40.8541 89.2569C45.1881 89.1331 46.8598 89.3188 47.9743 90.0618C50.0175 91.362 49.8317 90.1856 47.8504 88.5759C46.0549 87.1518 46.3026 86.8423 48.3458 87.9567C49.4602 88.5759 49.5841 88.514 49.2745 87.6472C49.0268 86.9661 49.0887 86.7184 49.5221 86.9661C49.8936 87.2138 50.0175 87.771 49.8317 88.2663C49.3364 89.5046 50.0794 90.9905 51.07 90.9905C52.6179 90.9905 51.9987 92.4765 49.0887 95.3245C47.5409 96.8724 45.5596 98.8537 44.6928 99.7824C43.7022 100.773 42.0924 101.578 40.5446 101.887C39.1205 102.073 37.325 102.754 36.4582 103.373C35.5914 103.931 34.415 104.612 33.7959 104.797C33.1148 105.045 32.8672 105.54 33.1148 105.974C33.4863 106.593 33.3006 106.531 32.5576 105.974C32.0004 105.478 29.9572 104.797 27.9759 104.364C25.9947 103.931 23.8277 103.373 23.1466 103.126L21.9083 102.63L23.1466 103.683C23.8277 104.24 25.6232 105.293 27.1091 105.974C28.5951 106.717 30.5763 108.388 31.567 109.751C33.4863 112.351 33.8578 113.589 32.6195 112.97C32.1861 112.722 32.3099 112.97 32.9291 113.465C33.4863 113.961 33.9816 114.828 33.9816 115.385C33.9816 116.004 34.6627 117.676 35.5295 119.1C37.0154 121.638 37.0773 121.886 36.1486 124.424C35.6533 125.848 35.2199 127.52 35.2199 128.077C35.2199 128.882 34.4769 129.068 30.7621 129.006C27.0472 128.944 25.6851 128.634 22.899 127.149C19.989 125.601 19.4317 124.982 18.3792 122.133C17.6981 120.338 16.8933 118.852 16.5837 118.852C15.3454 118.852 16.0884 123.929 17.822 127.396C19.7413 131.235 20.67 135.445 20.0509 137.364C19.8032 138.169 18.6888 138.912 17.2028 139.408C15.7169 139.841 13.9833 141.017 12.9307 142.256L11.1352 144.423L10.7018 142.627ZM16.0884 138.85C18.4411 138.479 19.0603 137.488 18.9983 134.207C18.9983 130.306 15.4692 123.186 14.2929 124.61C13.8595 125.105 13.8595 125.724 14.169 126.282C14.6643 127.025 14.7882 126.963 14.8501 125.972C14.8501 125.291 15.2216 125.91 15.7169 127.396C16.1503 128.82 16.9552 130.74 17.5124 131.544C18.1935 132.597 18.3173 133.402 17.9458 134.145C17.6362 134.764 17.079 136.002 16.6456 136.931C15.9026 138.479 15.7788 138.541 15.0358 137.55C14.3548 136.683 14.1071 136.683 13.6737 137.302C13.1784 137.984 13.0546 137.984 12.745 137.302C12.3735 136.25 14.1071 136.064 15.2835 136.993C15.8407 137.426 16.1503 137.055 16.3979 135.631C16.6456 134.578 17.079 133.711 17.3267 133.711C17.6362 133.711 17.5124 133.092 17.0171 132.349C16.5218 131.544 15.9645 130.244 15.7169 129.501C15.1597 127.582 13.488 125.972 12.002 125.848C11.321 125.786 10.2065 125.601 9.52544 125.353C8.4729 125.043 8.16333 125.415 7.54418 127.953C7.11078 129.563 6.61547 131.606 6.36781 132.473L5.99632 134.021L7.11078 132.473C7.72993 131.606 8.41098 129.687 8.59673 128.139C8.9063 125.724 8.96821 125.601 9.27779 127.025C9.64927 128.634 8.96821 130.492 6.24398 135.259C5.37718 136.869 5.19144 136.931 5.00569 135.878C4.94378 135.197 5.37718 132.845 6.12015 130.678C7.54418 126.158 7.72993 124.177 6.61547 124.61C6.18207 124.734 5.8725 125.415 5.99632 126.158C6.12015 126.901 5.62484 128.758 4.94378 130.368C2.71486 135.321 3.21018 136.683 7.72993 138.293L10.1446 139.098L10.2065 136.312L10.2684 133.526L9.15396 135.631C8.53481 136.807 8.0395 137.302 7.97758 136.745C7.97758 136.25 8.9063 134.702 10.0827 133.278C11.259 131.916 12.4354 130.059 12.6831 129.13C12.9307 128.015 13.3022 127.644 13.6737 128.015C14.1071 128.449 13.9214 129.254 13.1165 130.43C11.321 132.968 10.4542 136.188 10.7637 138.912C11.259 142.441 11.6924 142.813 13.3022 140.832C14.0452 139.841 15.3454 138.974 16.0884 138.85ZM5.43909 126.406C5.50101 125.972 5.19144 125.786 4.81995 126.034C2.77678 127.272 3.27209 122.691 5.50101 119.533C6.49164 118.171 6.49164 117.676 5.62484 113.961C4.81995 110.184 1.04317 100.897 0.362115 100.897C-0.195115 100.897 0.671687 106.16 1.6004 108.327C4.20081 114.518 4.26272 115.571 2.59103 119.347C0.795516 123.372 0.85743 126.777 2.77678 129.625L3.89123 131.421L4.63421 129.316C5.06761 128.139 5.43909 126.839 5.43909 126.406ZM27.4187 127.21C26.8615 126.344 26.1185 125.848 25.747 126.096C25.4374 126.282 25.3136 126.158 25.4994 125.848C25.747 125.477 25.4374 124.796 24.8802 124.362C24.0134 123.619 23.9515 123.681 24.323 125.043C24.8183 126.591 26.8615 128.758 27.8521 128.758C28.1617 128.758 27.9759 128.077 27.4187 127.21ZM33.5482 128.015C34.2912 128.015 34.6008 127.582 34.6008 126.591C34.6008 125.786 34.9103 124.424 35.3437 123.557C35.9629 122.195 35.7771 121.39 33.9816 117.861C32.8053 115.571 31.3193 113.589 30.5763 113.28C28.7189 112.599 24.6945 112.103 24.6945 112.599C24.6945 112.846 25.9947 114.27 27.5425 115.756C29.0904 117.304 31.1955 119.966 32.248 121.638C33.7959 124.177 34.0435 124.424 33.6721 122.876C33.1767 120.462 30.5763 116.747 27.8521 114.394C26.6138 113.342 26.1804 112.846 26.9234 113.156C28.7189 114.085 32.6195 118.481 33.734 120.895C34.4769 122.443 34.5389 123.434 34.1055 125.043C33.734 126.406 33.4244 126.715 33.4244 125.972C33.3006 124.672 31.567 121.205 31.5051 122.257C31.5051 122.629 31.7527 123.867 32.1242 124.982C32.4338 126.158 32.6195 127.272 32.4338 127.396C32.248 127.644 31.6289 125.539 30.6382 121.143C30.3906 120.09 29.9572 119.595 29.5238 119.843C29.0904 120.152 29.0285 120.028 29.2761 119.533C29.5857 119.038 28.8427 117.861 27.3568 116.437C24.1992 113.342 20.9796 108.574 20.7319 106.593C20.6081 105.664 20.67 105.417 20.7939 106.036C20.9177 106.593 21.3511 106.964 21.6607 106.779C21.9702 106.593 22.0321 106.903 21.7845 107.46C21.5368 108.141 21.6607 108.388 22.0321 108.141C22.4036 107.893 23.0847 108.203 23.5181 108.822C24.323 109.751 24.2611 109.813 23.3324 109.008C22.5894 108.512 22.2179 108.45 22.2179 108.884C22.2179 109.874 24.6326 111.175 28.0378 111.98C34.5389 113.589 32.1242 109.503 24.323 105.788C21.5368 104.426 18.9364 103.002 18.6269 102.569C17.6981 101.516 18.0077 98.4822 18.9983 98.8537C19.8651 99.2251 19.989 100.03 19.1222 100.587C18.8126 100.773 18.7507 101.392 18.9364 101.887C19.246 102.692 19.4317 102.692 20.1128 102.011C21.1653 100.959 20.6081 98.9156 19.0603 97.863C17.9458 97.2439 17.6362 97.3058 16.6456 98.4203C15.5311 99.7205 15.5311 99.8443 16.8933 103.869C18.6888 109.193 18.3792 114.766 16.336 114.889C14.6024 114.951 7.54418 118.171 6.67738 119.223C5.62484 120.524 6.42972 120.276 11.1352 117.985C13.488 116.809 15.2835 116.128 15.0977 116.375C14.912 116.685 12.6831 117.861 10.1446 119.1C5.81058 121.143 4.20081 122.691 4.32464 124.548C4.32464 125.167 4.44846 125.167 4.69612 124.61C5.12952 123.496 8.34907 123.619 10.2065 124.796C11.6305 125.724 11.8163 125.724 12.8688 124.796C14.0452 123.681 15.655 119.038 15.655 116.499C15.655 114.642 16.2122 115.323 18.7507 120.524C20.6081 124.3 23.0228 126.963 23.7658 126.158C23.8896 126.034 23.4562 124.362 22.837 122.319C22.2179 120.338 21.8464 118.295 22.0321 117.738C22.2798 117.118 22.156 116.933 21.7226 117.242C21.3511 117.428 20.9177 117.118 20.7939 116.561C20.4843 115.261 20.7939 118.852 21.2892 121.948C21.5987 123.929 21.5987 123.991 20.9796 122.567C20.6081 121.7 20.1128 119.347 19.989 117.304C19.8032 115.261 19.3698 112.661 18.9983 111.546C18.0077 108.203 18.8126 108.636 20.1747 112.227C22.0321 116.933 25.2517 121.514 24.7564 118.666C24.6945 118.357 24.9421 118.295 25.2517 118.481C25.5613 118.666 25.747 119.347 25.6232 119.966C25.5613 120.524 25.9947 122.072 26.6757 123.372C28.4093 126.777 27.6664 126.158 25.004 121.886C23.7658 119.843 22.5894 118.295 22.4036 118.481C21.9083 118.976 25.004 123.929 26.9234 125.663C27.8521 126.529 28.4093 126.839 28.1617 126.467C27.4806 125.229 28.0998 125.539 29.4 127.025C30.0191 127.768 30.2048 128.139 29.8334 127.892C29.4 127.644 29.0285 127.768 29.0285 128.139C29.0285 128.511 29.6476 128.634 30.7621 128.325C31.6908 128.139 32.9291 127.953 33.5482 128.015ZM17.2028 109.131C17.2647 108.017 16.5837 105.602 15.7788 103.683C14.3548 100.525 14.1071 100.278 12.1258 100.278C10.9495 100.278 8.96821 99.8443 7.66801 99.2871C4.51038 97.9869 4.32464 98.4822 7.35844 100.216C8.72056 100.959 9.83502 101.454 9.83502 101.268C9.83502 101.083 10.6399 101.702 11.6305 102.692C13.9833 104.983 15.2835 107.522 15.7788 110.865C16.1503 112.97 16.336 113.28 16.7075 112.351C16.9552 111.67 17.2028 110.246 17.2028 109.131ZM35.9629 102.754C36.8297 102.073 38.8729 101.268 40.4207 100.835C41.9686 100.463 43.7641 99.5347 44.4452 98.7917C45.1262 98.1107 46.736 96.439 47.9743 95.0769L50.327 92.7241L47.6028 94.0863C46.0549 94.8911 43.8879 96.1913 42.7735 97.0581C40.6684 98.6679 34.7246 100.216 30.5763 100.278C27.914 100.278 22.0321 98.4822 20.7939 97.2439C19.6175 96.0675 18.8745 96.5009 19.9271 97.6773C20.5462 98.2964 20.9796 99.1632 20.9796 99.6585C20.9796 100.278 21.1653 100.278 21.9083 99.6585C22.4036 99.2251 22.837 99.0394 22.837 99.2251C22.837 99.4109 23.0228 100.03 23.2085 100.525C23.5181 101.268 23.3324 101.454 22.5894 101.144C22.0321 100.959 21.5987 101.083 21.5987 101.454C21.5987 101.826 21.7845 102.073 22.0941 102.011C22.3417 102.011 22.9609 102.135 23.4562 102.321C25.5613 103.25 31.8765 104.488 33.0529 104.178C33.734 104.054 35.0342 103.373 35.9629 102.754ZM20.9796 102.754C20.9796 102.445 20.8558 102.135 20.7319 102.135C20.5462 102.135 20.2366 102.445 20.0509 102.754C19.8651 103.126 19.989 103.373 20.2985 103.373C20.67 103.373 20.9796 103.126 20.9796 102.754ZM15.4692 98.1107C16.4599 96.9962 16.4599 96.8724 15.3454 96.0675C13.8595 95.015 6.42972 93.4671 3.45783 93.5909L1.167 93.6528L2.52912 95.2007C4.38655 97.1201 7.1727 98.606 8.10141 98.0488C8.4729 97.8011 8.59673 97.863 8.34907 98.2964C7.35844 99.9062 14.1071 99.7824 15.4692 98.1107Z" fill="#B3C4A9"/>
<path d="M8.16327 90.805C10.4541 90.5572 14.169 90.5572 16.5217 90.805C20.2366 91.3007 19.8032 91.3626 12.3115 91.3626C4.81989 91.3626 4.38649 91.3007 8.16327 90.805Z" fill="#B3C4A9"/>
<path d="M1.84806 86.9042C5.06761 83.499 7.35844 79.5983 8.9063 74.8929C9.52545 73.0973 10.7637 70.7446 11.8163 69.6301C12.8069 68.4538 13.8595 66.6582 14.169 65.6057C14.8501 63.3149 14.3548 60.0334 13.3641 60.0334C12.9927 60.0334 13.1165 59.6 13.6118 59.1047C14.8501 57.8664 17.5743 58.7951 18.1935 60.5906C18.3792 61.3336 18.8745 61.8908 19.1841 61.8908C20.9796 61.8908 23.7658 74.1499 22.5894 76.8741C22.3417 77.4313 22.2179 78.422 22.4036 79.0411C22.7132 80.4032 24.5706 76.5026 25.004 73.4688L25.3136 71.4876L24.3849 73.345C23.5181 75.0167 23.4562 75.0786 23.7038 73.6546C24.6945 68.5776 25.066 67.7727 26.9853 66.844C29.1523 65.7914 33.6101 61.024 34.2293 59.0428C34.6008 57.8045 36.9535 56.6281 37.6346 57.2473C37.7584 57.433 37.5727 57.5568 37.2012 57.5568C35.901 57.5568 36.3963 60.2191 38.0061 61.8908C40.8541 64.8627 40.7303 67.7727 37.5727 74.7071C37.2012 75.3882 37.1393 76.3788 37.3869 76.8741C37.6965 77.3075 37.6965 77.4933 37.3869 77.2456C37.1393 76.9979 36.3344 77.9267 35.6533 79.2888C34.415 81.7654 32.1242 83.6847 32.1242 82.2607C32.1242 81.8273 31.567 82.013 30.7621 82.756C29.9572 83.437 28.1617 84.6753 26.6757 85.5421C25.2517 86.347 24.1992 87.1519 24.323 87.3376C24.4468 87.4615 23.5181 87.6472 22.2179 87.6472C20.9177 87.7091 18.9364 88.2044 17.8839 88.6998C16.8933 89.257 16.1503 89.4427 16.336 89.1332C16.5218 88.8855 15.4692 88.7617 14.0452 88.8855C12.3116 89.0093 12.8069 88.8236 15.4073 88.2664C22.2798 86.9042 26.1185 85.4802 29.2142 83.1894C32.5576 80.7747 32.6814 79.846 29.5238 81.27C28.4093 81.8273 25.2517 83.0036 22.5275 83.9324C19.8032 84.8611 17.1409 85.9755 16.6456 86.347C15.3454 87.4615 13.9214 87.771 8.28716 88.514C5.56293 88.8855 2.34338 89.3189 1.167 89.5047L-1 89.8761L1.84806 86.9042ZM7.85376 86.0374C10.8256 83.8704 16.0265 78.6696 16.0265 77.8647C16.0265 77.5552 15.7169 77.4933 15.2835 77.7409C14.8501 77.9886 14.7882 77.9267 15.0358 77.4313C15.2835 77.0599 15.7169 76.8741 16.0265 77.0599C16.8313 77.5552 18.3792 71.5495 18.6269 67.1536C18.7507 64.0578 18.5649 63.0672 17.3886 61.3955C15.5931 58.9189 13.9214 58.6713 14.7882 61.024C15.7788 63.5006 14.7882 67.525 12.8069 69.5682C11.0114 71.3637 9.7731 73.7165 8.96822 77.0599C8.53482 78.8554 8.59673 78.7935 10.3922 76.3169C11.3829 74.9548 12.4973 73.5927 12.8688 73.4069C14.0452 72.6639 15.9026 67.6489 15.655 65.8534L15.4073 64.0578L16.0884 65.7914C16.6456 67.2155 16.5837 68.0204 15.7788 69.8159C15.2835 71.1161 14.6643 73.5307 14.4167 75.2024C13.8595 79.5364 13.488 80.0937 8.28716 83.5609C5.74867 85.2945 3.64358 86.9662 3.64358 87.2757C3.64358 88.3902 5.31527 87.8949 7.85376 86.0374ZM15.9026 85.9136C16.9552 85.2326 17.7601 84.4277 17.5743 84.1181C17.3267 83.8085 17.6362 83.7466 18.1315 83.9324C18.6269 84.1181 20.4843 83.8085 22.2179 83.2513L25.3136 82.1988L22.4036 80.7128C19.6175 79.1649 19.4937 79.1649 18.1315 80.2794C11.8163 85.3564 9.09205 87.3376 8.84439 87.09C8.65865 86.9042 9.71119 85.9136 11.1971 84.923C12.6831 83.8704 14.912 82.013 16.2122 80.8366C17.5124 79.5983 18.9364 78.6077 19.3698 78.6077C20.7939 78.6077 22.5275 73.1593 21.9083 70.6827C21.5368 69.1348 21.3511 69.3206 19.4318 73.1593C16.8933 78.3601 14.2309 81.7654 10.3303 84.7992C8.59673 86.2232 7.66802 87.2757 8.16333 87.4615C9.52545 88.0187 13.7975 87.1519 15.9026 85.9136ZM12.2497 79.5983C12.6831 79.103 13.0546 78.2362 13.1784 77.6171C13.3022 76.936 13.6118 75.6358 13.8595 74.5833L14.2309 72.7259L12.4973 74.8929C11.5686 76.0692 10.2065 77.6171 9.46353 78.3601C8.28716 79.5983 5.50101 83.9324 5.50101 84.5515C5.50101 84.923 11.4448 80.589 12.2497 79.5983ZM29.7095 77.679C30.3906 77.4313 30.7002 76.9979 30.5144 76.6265C30.2668 76.1931 30.3906 76.1311 30.7621 76.3788C31.5051 76.8122 35.2199 75.0167 35.2199 74.2118C35.2199 73.9641 35.7152 73.5927 36.2725 73.4069C37.2012 73.0354 37.2012 73.1593 36.1486 74.2737C35.5295 74.9548 35.2199 75.512 35.4676 75.512C35.7152 75.512 35.2818 76.3788 34.5389 77.4313C33.4244 79.0411 33.1148 79.2269 32.6195 78.422C32.3099 77.8647 31.6908 77.5552 31.1955 77.7409C30.7002 77.9886 30.4525 78.3601 30.6383 78.6696C30.824 78.9792 30.5763 79.0411 30.081 78.9173C29.6476 78.7315 28.7189 79.103 28.0998 79.846C26.6757 81.4558 27.5425 81.4558 30.1429 79.846C32.1861 78.6077 32.1861 78.6077 32.8672 81.0843C33.0529 81.6415 33.7959 80.8366 34.8484 79.0411C35.8391 77.4313 36.4582 75.8835 36.2106 75.6977C36.0248 75.4501 36.2106 74.8929 36.7059 74.3356C37.1393 73.7784 38.0061 72.0448 38.6252 70.435C39.7397 67.3393 39.5539 65.1723 37.9442 62.8815C37.0774 61.6432 37.0774 61.6432 37.0774 63.0053C37.0774 64.8627 35.5295 67.8346 32.991 70.8065C31.8146 72.1686 30.8859 73.5927 30.8859 73.9641C30.8859 74.3356 29.4 76.0073 27.6664 77.679L24.3849 80.7747L26.9234 77.9886C30.6383 73.9022 33.9197 67.0297 33.9816 63.3149C33.9816 62.51 34.2293 61.8908 34.5389 61.8908C34.8484 61.8908 34.8484 62.8815 34.4769 64.2436C34.1674 65.4819 33.734 67.2155 33.5482 68.0823C33.3006 69.5063 33.3625 69.5063 34.4769 67.7108C36.2106 64.9866 36.644 63.3149 36.1486 60.7764C35.8391 59.2285 35.5914 58.7951 35.2199 59.4143C34.9103 59.9096 34.8484 60.5287 35.0342 60.9002C35.2199 61.2098 35.0961 61.2717 34.7246 61.024C34.3531 60.7764 33.734 61.2717 33.3006 62.0147C32.3099 63.8721 28.7189 67.2774 27.2949 67.7108C26.49 68.0204 26.1185 68.8252 26.0566 70.7446C25.9328 72.1686 25.5613 74.4595 25.1898 75.8216C24.8183 77.1837 24.4468 78.4839 24.4468 78.7315C24.3849 78.9173 24.1992 79.3507 23.9515 79.5983C23.0847 80.4032 23.4562 81.0224 24.8802 81.2081C25.8089 81.332 26.6138 80.8985 27.3568 79.7222C27.9759 78.7935 29.0285 77.8647 29.7095 77.679ZM34.8484 75.5739C34.6627 75.3882 34.2293 75.6977 33.9197 76.3169C33.5482 76.8741 32.991 77.1837 32.6195 76.9979C32.1861 76.6884 32.1242 76.8741 32.3719 77.3075C32.7433 77.8647 33.1767 77.8028 34.0435 76.9979C34.7246 76.4407 35.0961 75.7597 34.8484 75.5739ZM20.67 65.7295C20.0509 63.3149 19.3698 65.0485 18.9364 69.9397L18.6269 73.9641L19.8652 70.6827C20.67 68.5776 20.9177 66.7821 20.67 65.7295Z" fill="#B3C4A9"/>
<path d="M2.59124 56.1329C0.795722 55.3899 -0.690223 54.585 -0.690223 54.3374C-0.690223 54.0897 -0.00916479 54.1516 0.795722 54.585C2.03401 55.1422 2.71507 55.0184 4.38676 54.0278C5.50122 53.3467 6.36802 52.418 6.24419 52.0465C6.18227 51.6131 6.36802 51.4893 6.80142 51.7369C7.1729 51.9227 7.73013 51.7369 8.03971 51.3035C8.84459 50.0033 8.72076 49.2604 7.85396 50.0033C7.11099 50.5606 0.919551 52.6037 -0.0710792 52.6037C-0.318737 52.6037 -0.50448 52.1703 -0.50448 51.675C-0.50448 50.994 0.176578 50.7463 1.91018 50.7463C3.21038 50.7463 5.25356 50.3748 6.36802 49.8795C8.96842 48.7651 13.3643 44.9264 14.5407 42.6355C15.8409 40.0351 15.5933 38.9826 14.1692 41.2734C12.7452 43.6262 11.0116 44.8645 6.61567 46.4742C2.71507 47.9602 3.33421 47.1553 7.35865 45.4836C10.5782 44.1215 13.1167 42.0164 14.9122 39.1064C15.5933 37.992 16.2743 37.1871 16.4601 37.3728C17.1411 38.0539 15.779 41.6449 13.8597 44.493C12.6833 46.1647 11.9403 47.7125 12.188 47.9602C12.4356 48.2078 12.3737 48.3317 12.0022 48.2697C10.4544 47.9602 9.77331 48.3936 8.96842 50.3748C8.10162 52.418 5.06781 55.0803 3.51996 55.0803C2.09592 55.0803 4.44867 56.3186 5.93462 56.3186C8.47311 56.3186 10.2067 55.0184 12.3737 51.4893C15.9647 45.7313 16.7077 43.5023 16.8935 38.9207L17.0792 34.5867L14.5407 37.0013C11.3212 40.0351 7.42056 42.9451 7.04908 42.5736C6.86333 42.3879 8.22545 41.2734 10.021 40.0351C11.8165 38.7968 13.9216 37.0632 14.6645 36.1964C17.203 33.2865 20.4226 28.3952 20.113 27.8999C19.9273 27.6522 20.1749 27.4046 20.6702 27.4046C21.8466 27.4046 21.8466 27.6522 20.3607 29.5097C19.6796 30.3765 19.1224 31.3671 19.1224 31.6767C19.1224 31.9863 20.2368 33.4103 21.6609 34.8343L24.1994 37.4347L24.0136 34.0294C23.8898 32.172 24.0136 28.9525 24.2613 26.9093C24.6328 24.185 24.5089 22.5753 23.8279 20.7178C22.9611 18.3032 22.8992 18.3651 23.0849 24.4327C23.1468 27.838 23.0849 30.0669 22.9611 29.3859C22.8372 28.7048 22.4038 27.838 22.0943 27.4046C21.7847 26.9712 21.6609 26.0425 21.9085 25.2376C22.28 23.8755 22.2181 23.8755 21.3513 25.3614C20.7941 26.2282 20.4226 26.5997 20.3607 26.2901C20.3607 25.9186 20.7941 24.9899 21.3513 24.247C21.9704 23.3182 22.28 21.9561 22.0943 20.4083C21.9704 19.1081 22.1562 18.1793 22.4658 18.3651C22.7753 18.5508 22.8992 18.3651 22.7753 17.9936C22.3419 16.6934 21.2894 17.1887 21.1036 18.6747C21.0417 19.4796 20.6083 21.7704 20.2368 23.8136C19.8034 25.8567 19.432 27.7142 19.432 27.8999C19.432 28.581 15.7171 31.3052 13.6739 32.172C11.2593 33.1007 8.28736 36.6918 8.96842 37.8062C9.21608 38.2396 9.15416 38.3634 8.78268 38.1777C8.16353 37.8062 6.80142 40.2209 6.49185 42.326C6.24419 43.9976 3.7057 46.2266 2.21975 46.0408C1.47678 45.9789 0.48615 45.8551 0.114664 45.8551C-1.49511 45.7313 -0.628309 44.5549 1.04338 44.5549C3.51996 44.493 4.88207 43.1928 7.29673 38.2396C9.21608 34.4009 10.0829 33.4103 13.3024 31.2433C17.0792 28.7667 19.1224 26.2282 19.1224 24.1231C19.1224 22.018 20.9798 15.8266 21.7228 15.3932C22.7753 14.7121 23.4564 15.2694 23.4564 16.7553C23.4564 17.4364 23.9517 18.8604 24.5089 19.9749C26.5521 23.8755 25.0042 41.0258 22.0943 46.9076C21.7228 47.6506 19.9273 48.9508 18.1317 49.8176C14.4788 51.5512 14.1692 51.6131 14.1692 50.7463C14.1692 50.4367 14.5407 50.1272 14.9741 50.1272C15.8409 50.1272 17.2649 46.7838 17.2649 44.8025C17.2649 44.1834 16.4601 45.2978 15.4075 47.2791C14.4169 49.3223 13.7358 51.1797 13.8597 51.4274C14.2931 52.0465 9.40182 56.9378 8.34928 56.9378C7.85396 56.9378 7.11099 57.0616 6.61567 57.1854C6.18227 57.3712 4.32484 56.8758 2.59124 56.1329ZM19.9273 47.6506C21.6609 46.1647 22.0943 45.2359 22.4038 42.8832C22.5277 41.2115 22.8992 39.4779 23.0849 38.9207C23.3945 38.2396 22.7134 36.9394 21.0417 35.0201L18.5652 32.172L18.2556 34.1533C17.6364 38.0539 17.5126 40.7781 17.946 40.4685C18.1937 40.3447 18.6271 40.4685 18.8128 40.84C19.0605 41.2115 18.8747 41.3972 18.3794 41.3353C17.7603 41.2115 17.6364 41.8926 17.7603 44.0596C17.8841 45.6693 17.6364 47.5887 17.2649 48.2697C16.2743 50.0653 17.4507 49.8176 19.9273 47.6506Z" fill="#B3C4A9"/>
<path d="M20.1745 37.6823C19.1839 36.3202 18.5647 34.8961 18.6886 34.4627C18.9362 33.9055 19.06 33.9055 19.06 34.5246C19.122 34.958 19.8649 36.3202 20.7317 37.4965C21.6604 38.6729 22.2796 39.7255 22.1558 39.8493C22.0319 40.035 21.1032 39.0444 20.1745 37.6823Z" fill="#B3C4A9"/>
<path d="M-0.504395 47.9611C-0.504395 47.4654 -0.256737 47.2176 -0.00907946 47.4035C0.300492 47.5894 1.10538 47.4035 1.78644 47.0317C2.4675 46.66 3.02473 46.598 3.02473 46.9078C3.02473 47.2176 2.34367 47.7752 1.47687 48.147C-0.504395 49.0763 -0.504395 49.0763 -0.504395 47.9611Z" fill="#B3C4A9"/>
<path d="M-0.69043 24.2468C-0.69043 23.9373 0.0525429 23.5039 1.04317 23.3181C1.97189 23.1324 3.27209 22.5132 3.95315 21.956L5.19144 20.9035L3.95315 21.3369C3.27209 21.5226 1.90997 21.8322 0.85743 22.0179C-0.195115 22.1418 0.733601 21.7084 2.83869 21.0273C6.12015 19.9128 6.80121 19.4175 7.66801 17.4363C8.28716 16.198 9.46353 14.4025 10.2684 13.4737C11.321 12.4212 11.8163 11.1829 11.7544 10.0684C11.6924 9.13973 11.6305 7.7157 11.5686 6.97273C11.5686 5.73444 11.3829 5.79636 8.53481 7.83953C5.68675 9.82079 2.34338 13.5976 3.39592 13.5976C4.38655 13.5976 9.21587 10.4399 10.0208 9.20165C10.8876 8.02527 10.9495 8.02527 10.8256 9.82079C10.7018 12.8546 6.67738 16.3218 0.85743 18.5507C-1.92872 19.6033 -0.752344 18.6126 2.96252 16.7552C6.86313 14.7739 10.4542 11.9878 10.4542 10.9972C10.4542 10.6257 9.71119 10.8733 8.78247 11.4925C6.7393 12.7927 -0.0712858 16.6933 -0.380858 16.6933C-0.814258 16.6933 0.424029 13.2261 2.34338 9.07782C3.39592 6.72507 4.26272 4.74381 4.26272 4.61998C4.26272 4.06275 0.485944 6.4155 -0.0712858 7.2823C-0.628515 8.1491 -0.69043 8.08719 -0.566601 6.78699C-0.442772 5.61061 0.176372 5.05338 1.90997 4.49615C3.14826 4.06275 5.37718 2.88638 6.80121 1.83383C9.89693 -0.395083 12.9926 -0.580827 15.7169 1.21469L17.5743 2.45298H15.9026C13.9833 2.45298 12.9307 4.74381 12.9307 9.0159C12.9307 11.121 12.4973 12.1735 10.7637 14.2167C9.58736 15.6407 8.59673 17.1267 8.59673 17.4982C8.59673 18.6126 5.50101 22.2037 3.76741 23.1324C1.22892 24.4326 -0.69043 24.866 -0.69043 24.2468ZM2.65295 14.0929C2.9006 14.3405 3.02443 14.2786 2.96252 13.9071C2.83869 13.5976 3.70549 11.3067 4.88186 8.89208C6.7393 5.17721 7.48227 4.2485 9.71119 3.13404C11.1352 2.45298 13.1165 1.83383 14.0452 1.77192H15.7169L14.169 1.15278C10.2065 -0.456998 5.68675 2.45298 3.64358 7.77762C2.96252 9.69696 1.90997 12.1116 1.35274 13.1642C0.547858 14.7739 0.547858 15.0216 1.29083 14.4025C1.78615 13.9691 2.40529 13.8452 2.65295 14.0929ZM12.3735 3.56744C12.745 2.88638 12.8069 2.45298 12.4973 2.57681C12.2497 2.70064 11.0733 3.19595 9.95884 3.62935C8.28716 4.31041 6.12015 6.91082 6.12015 8.33485C6.12015 9.07782 11.6924 4.86764 12.3735 3.56744Z" fill="#B3C4A9"/>
</svg>
