<svg width="77" height="188" viewBox="0 0 77 188" fill="none" xmlns="http://www.w3.org/2000/svg">
<mask id="path-1-inside-1_91_22574" fill="white">
<path d="M26.4381 4.63425C25.4701 5.30773 24.0601 5.69012 23.3884 5.49901C22.7974 5.25178 20.5597 5.13267 18.5026 5.18716C15.4635 5.20664 13.7993 5.8258 10.0448 8.25842C5.75013 10.9471 5.22932 11.489 4.85594 13.9635C4.3546 17.5446 6.4104 24.9731 9.50602 30.5409C11.9089 34.8548 18.7014 42.639 20.3429 42.9336C20.8216 43.0195 20.8252 44.5732 20.3957 46.967C20.0031 49.1557 19.8143 58.8642 19.9675 68.634C20.1329 78.3354 20.0757 88.491 19.8707 91.2075L19.4904 96.0811L17.8627 90.9884C15.7596 84.6104 14.0652 80.2824 12.1114 76.6138C10.7381 74.0377 10.6924 73.1117 11.4567 67.6717C12.4523 60.1553 12.4787 60.7954 11.2651 60.0835C8.78176 58.579 6.46715 62.8231 8.62257 64.9747C9.22062 65.5762 9.77662 66.8055 9.90294 67.6753C9.94859 68.6013 10.1135 70.0428 10.1715 70.9004C10.2925 72.1928 9.86287 71.8333 7.6127 69.0293C6.11668 67.1372 4.63997 65.5309 4.29799 65.4695C4.02441 65.4204 3.80516 64.6751 3.80335 63.8983C3.91019 61.7289 2.12309 60.2787 0.446597 60.9663C-1.00016 61.5539 -1.39285 63.7425 -0.24061 64.7964C0.189068 65.1559 1.2343 65.6258 2.19183 65.7976C3.35454 66.0062 4.95577 67.7055 7.62514 71.7142C9.68943 74.7673 11.5801 78.001 11.8432 78.8953C12.3501 80.3982 12.3501 80.3982 10.4824 79.0042C9.4985 78.1923 8.07971 77.4435 7.39576 77.3208C6.71181 77.1981 5.86473 76.4107 5.52095 75.5725C4.78955 73.7469 3.44619 73.3647 2.02578 74.5924C1.19457 75.2904 1.16479 75.8499 1.8085 77.3773C2.7644 79.5255 3.41153 79.8534 4.95646 78.7187C5.91219 78.1136 6.54001 78.1556 8.45687 79.2761C12.3713 81.461 13.6305 83.0988 15.595 88.6755C19.1416 98.4188 19.3381 100.078 17.9637 107.738C16.5647 115.535 11.2855 133.155 10.5506 132.529C10.3139 132.274 10.2489 131.063 10.4575 129.9C10.9852 126.959 10.485 120.304 9.33418 114.52C8.37288 110.041 8.42196 109.768 10.0492 106.6C12.3568 102.002 13.1351 97.2705 11.8495 94.9925L10.9006 93.1985L9.32593 94.8927C8.36497 95.9204 7.51806 97.8864 7.03243 100.2C6.67656 102.183 6.12073 103.707 5.95236 103.465C5.70333 103.279 4.95261 101.168 4.23871 98.8511C2.7723 93.6462 -0.0654456 89.3955 -2.25408 89.0028C-7.3153 88.0947 -4.08975 96.0861 3.42176 103.011C4.86689 104.4 7.17678 108.838 6.98044 109.933C6.94362 110.138 5.71775 109.494 4.26738 108.528C1.00537 106.248 -1.37618 105.75 -2.18104 107.089C-3.10338 108.688 -0.972501 110.976 3.85032 113.607C7.96989 115.828 8.26278 116.163 8.69786 118.853C9.46102 123.65 9.51586 131.213 8.84093 134.975C8.14145 138.874 8.24666 138.681 0.776436 146.871C-7.98968 156.382 -16.3207 168.583 -15.1983 170.196C-14.8615 170.68 -14.1671 169.958 -13.3447 168.128C-11.3037 163.835 -5.20137 155.4 0.79935 148.711C3.78744 145.435 6.29857 142.849 6.42309 142.942C7.14042 144.059 -5.83031 165.594 -10.8385 171.473C-12.9147 173.994 -14.5753 176.167 -14.4631 176.329C-13.958 177.055 -12.5253 175.759 -9.0918 171.574C-4.54308 165.895 0.83145 157.188 5.49568 147.718C9.57251 139.554 10.0372 138.931 16.1731 134.243C18.5615 132.342 22.2651 129.406 24.4238 127.605C27.333 125.162 29.0463 124.269 31.4138 124.059C36.5275 123.494 43.7193 121.184 45.878 119.382C48.3716 117.288 48.5382 116.754 46.9317 115.477C45.3252 114.2 41.1743 114.515 37.3373 116.226C33.9598 117.738 33.9773 117.247 37.63 113.808C39.9307 111.609 41.9983 110.709 49.1532 108.604C57.8794 106.005 60.8027 104.27 60.3747 101.934C59.8396 99.0142 51.671 100.867 45.2861 105.369C42.7048 107.165 42.1383 106.781 44.197 104.75C46.3609 102.526 52.9032 90.8512 55.3194 84.8604C58.2301 77.6876 59.5625 70.6552 58.5382 68.4948C57.8577 67.1725 57.5841 67.1234 56.5477 67.7846C54.8414 69.0316 50.493 80.6764 47.3318 92.3931C43.9673 104.85 41.9122 108.434 43.5373 98.9837C45.1939 89.7504 44.0184 81.3502 41.1845 81.4065C39.3448 81.4295 38.6208 85.4648 38.9001 93.3511C39.5572 111.33 39.7324 109.173 37.3335 111.919L35.1205 114.417L35.9182 109.971C37.1576 103.063 34.3161 94.5053 31.7681 97.2956C30.5283 98.6969 30.2917 101.196 30.899 108.435C31.6607 117.961 31.3153 119.099 26.6893 123.635C22.6648 127.572 21.5162 128.072 23.3241 125.078C25.6457 121.188 25.9327 110.933 23.7702 108.427C21.1465 105.344 18.5323 114.405 19.294 123.931C19.7222 129.021 19.6609 129.363 18.2405 130.59C17.4899 131.232 15.468 133.058 13.8617 134.535C10.6614 137.42 9.44438 137.907 10.7753 135.605C11.2645 134.845 12.7602 131.231 14.1191 127.592C16.6826 120.78 19.0914 108.929 21.9557 89.8167C23.1179 81.7654 23.5983 79.8749 25.7323 75.4572C28.7325 69.3594 30.0459 67.5478 33.0428 65.4028C36.7412 62.8896 39.3875 62.3054 41.1184 63.6749C42.2952 64.5921 42.7863 64.6096 43.7981 64.0851C45.536 63.0556 45.7971 60.4198 44.1906 59.1432C43.0139 58.2261 42.5789 58.2893 40.6623 59.9221C39.4277 60.9007 38.23 61.6742 37.888 61.6128C37.6144 61.5637 36.0993 62.139 34.5473 62.9195L31.7538 64.3244L34.3385 61.3289C39.4396 55.3257 40.6058 54.3348 42.0421 54.5925C45.5302 55.2184 47.5151 50.8445 44.7196 48.7192C42.5028 46.9095 39.0342 49.3229 39.6253 52.3234C39.7201 52.9758 39.4238 53.8403 38.9152 54.3139C38.419 54.719 36.739 56.6061 35.2888 58.3932C32.7479 61.5377 32.5989 61.5816 32.9547 59.5981C33.1511 58.5038 33.7262 57.2657 34.2102 56.9289C34.6942 56.5922 35.108 55.4663 35.1676 54.3474C35.313 52.7498 34.9202 52.1851 33.5768 51.8029C31.1637 51.0876 29.5574 52.5643 30.1222 54.9247C30.4292 55.9681 30.9098 56.8309 31.3201 56.9045C32.6196 57.1377 30.8996 63.1828 28.2255 67.8566C26.7894 70.3522 24.5748 74.826 23.3509 77.7126C22.127 80.5993 21.2047 82.1987 21.3765 81.2412C21.4799 80.2714 21.4759 73.211 21.3088 65.486C21.1417 57.761 21.3096 49.7431 21.6777 47.6912L22.3404 43.9979L26.6632 42.7262C39.1159 39.0304 50.5598 26.3996 49.7367 17.2155C49.4102 13.133 47.2934 11.553 41.6869 11.3236C37.6902 11.1713 37.3605 11.0416 36.6729 9.36507C36.273 8.44616 35.0769 7.2432 34.0878 6.85395C33.111 6.39629 32.0903 5.78958 31.729 5.44237C30.0717 3.66247 28.2127 3.39953 26.4381 4.63425ZM32.529 10.0335C32.7307 11.2698 33.1429 12.1203 33.4533 11.9642C33.7076 11.7275 33.6496 10.8699 33.3865 9.97556C32.5727 7.42924 33.7845 7.36429 35.2946 9.96493C36.6608 12.1868 36.6679 12.541 35.1285 18.7597C33.3367 25.9921 29.3791 34.6713 25.7914 39.3224C24.5025 40.9972 23.3925 42.0688 23.4539 41.7268C23.4591 41.3042 23.8622 38.2703 24.3145 34.9628C24.8404 31.2449 24.9086 28.5039 24.5157 27.9392C23.9422 27.2009 23.8493 27.3255 23.8774 28.7424C24.0074 31.166 22.3105 41.8041 21.7458 42.1969C21.0198 42.702 18.692 33.248 18.5708 29.2022C18.4021 23.4536 20.8408 13.7959 23.5413 9.76223C26.4521 5.34274 28.3022 4.47454 30.4945 6.421C31.3538 7.13997 32.3272 8.79714 32.529 10.0335ZM23.3623 7.61222C21.5263 9.1889 18.9557 15.6462 18.0108 20.9126C17.1396 25.7686 17.1083 31.0578 17.9749 34.8842C18.3082 36.5678 16.1932 35.7647 15.2566 33.9024C14.1201 31.5805 14.69 30.765 15.851 32.9501C16.6438 34.4336 16.642 33.6568 15.6948 29.8864C15.0545 27.1594 14.3563 23.5749 14.2404 21.8598C14.0562 20.1324 13.7124 19.2942 13.4529 19.9536C13.2057 20.5446 13.4356 23.1979 13.9391 25.9003C15.1583 31.6962 14.5954 32.866 12.9799 27.7049C12.3414 25.7549 11.7732 24.594 11.5821 25.2656C11.3489 26.5651 15.4233 36.1208 16.1125 35.8208C16.7333 35.5086 19.108 38.4056 18.9607 39.2263C18.7767 40.2523 14.9393 36.4575 12.6067 32.9327C7.26795 24.9152 4.69821 15.6295 6.83398 11.9887C8.31395 9.64218 9.21012 10.156 9.02441 13.1583C8.78782 15.6573 8.85622 15.6696 9.46456 12.6725C10.0186 10.3716 10.6376 9.28253 12.158 8.28458C15.1058 6.4132 25.5332 5.74264 23.3623 7.61222ZM47.3252 14.5238C50.6926 19.3637 46.109 28.7779 36.7658 35.9967C33.4094 38.5713 27.4435 41.5249 26.9261 40.8673C26.7577 40.6253 27.624 38.9452 28.869 37.1213C31.9412 32.5895 36.1616 22.0513 37.1434 16.5797L37.9656 11.9973L40.982 12.8915C42.5866 13.3912 43.83 13.5437 43.6862 13.1649C43.1547 11.7988 46.2588 12.9911 47.3252 14.5238ZM44.9074 52.0004C44.6252 53.5734 42.3525 54.4364 41.1318 53.3702C40.1602 52.4899 41.0299 49.6103 42.396 49.0789C44.1163 48.5404 45.2879 49.8801 44.9074 52.0004ZM34.2048 54.5983C34.0085 55.6926 33.4754 56.3029 32.6301 56.2924C31.2815 56.3329 30.6869 54.5318 31.597 53.0008C32.5193 51.4014 34.5607 52.6148 34.2048 54.5983ZM44.2276 61.6913C43.9454 63.2644 41.4972 63.5311 40.9781 62.0966C40.3344 60.5692 41.5373 59.3731 43.0736 59.8605C43.9382 60.1569 44.3872 60.8022 44.2276 61.6913ZM11.5809 62.2581C11.744 62.9227 11.367 63.8434 10.8585 64.3169C9.95889 65.0027 9.7537 64.9659 9.0241 63.9172C8.07001 62.5459 8.90465 60.6483 10.4093 60.9183C10.8881 61.0042 11.4861 61.6057 11.5809 62.2581ZM57.1286 74.3837C56.245 79.3082 52.0246 89.8464 48.9103 95.006L47.3252 97.5454L48.6489 92.1352C49.955 87.216 54.7575 73.0406 56.1621 70.3275C57.4614 67.8074 57.9508 69.8013 57.1286 74.3837ZM3.13168 63.7071C3.09143 65.1119 2.84943 65.2802 1.51835 64.8296C0.516968 64.5087 0.0118579 63.7828 0.0591418 62.7323C0.0993881 61.3276 0.341387 61.1592 1.67247 61.6098C2.67385 61.9307 3.17896 62.6567 3.13168 63.7071ZM4.81427 76.3635C5.40184 77.8102 4.62676 78.5889 3.22024 77.7718C2.14343 77.0844 2.4098 74.0259 3.56728 74.6572C3.95311 74.8676 4.51434 75.6743 4.81427 76.3635ZM42.9228 88.6369C43.2177 92.502 41.5998 105.06 40.6441 105.665C40.3898 105.902 40.2583 105.455 40.3932 104.703C40.5282 103.95 40.4876 99.8484 40.2664 95.5729C40.0574 91.2291 40.1273 86.5116 40.3973 85.0069C40.8268 82.6131 41.0004 82.4325 41.7177 83.5495C42.2228 84.2755 42.7315 86.5553 42.9228 88.6369ZM0.471417 93.0922C1.20806 94.4951 2.25166 96.9415 2.80242 98.5934L3.67946 101.575L1.26796 98.8829C-1.07515 96.2034 -3.85153 91.6106 -3.67973 90.6531C-3.44657 89.3536 -0.770333 90.9633 0.471417 93.0922ZM59.0963 102.764C58.8999 103.858 54.3054 105.857 47.6906 107.706L41.4423 109.48L44.1972 107.503C50.0297 103.325 59.538 100.301 59.0963 102.764ZM34.8726 103.995C35.1534 107.151 33.2215 118.312 32.7689 116.113C32.1654 113.181 31.679 101.727 32.1032 99.756L32.5398 97.7164L33.557 99.5227C34.1498 100.547 34.7076 102.553 34.8726 103.995ZM10.9344 99.6995C10.6153 101.478 9.79475 104.084 9.04601 105.503L7.8028 108.103L7.67811 105.257C7.57273 102.697 8.93324 97.0813 9.98714 95.9291C10.9604 94.833 11.462 96.7585 10.9344 99.6995ZM23.8408 114.723C23.9234 118.197 21.66 128.451 20.9743 127.551C20.3131 126.515 20.3687 118.335 21.0243 114.288C22.2637 107.38 23.5755 107.545 23.8408 114.723ZM4.63227 110.429C8.68525 113.415 8.69409 114.546 4.63064 112.405C0.635592 110.277 -1.30058 108.87 -1.16559 108.118C-0.981515 107.092 1.3948 108.013 4.63227 110.429ZM46.3004 116.634C46.988 118.311 37.1833 122.199 30.7894 122.817C29.062 123.001 29.155 122.877 31.8415 120.888C35.5083 118.157 38.507 116.789 41.7811 116.247C44.9185 115.681 45.9567 115.796 46.3004 116.634Z"/>
</mask>
<path d="M26.4381 4.63425C25.4701 5.30773 24.0601 5.69012 23.3884 5.49901C22.7974 5.25178 20.5597 5.13267 18.5026 5.18716C15.4635 5.20664 13.7993 5.8258 10.0448 8.25842C5.75013 10.9471 5.22932 11.489 4.85594 13.9635C4.3546 17.5446 6.4104 24.9731 9.50602 30.5409C11.9089 34.8548 18.7014 42.639 20.3429 42.9336C20.8216 43.0195 20.8252 44.5732 20.3957 46.967C20.0031 49.1557 19.8143 58.8642 19.9675 68.634C20.1329 78.3354 20.0757 88.491 19.8707 91.2075L19.4904 96.0811L17.8627 90.9884C15.7596 84.6104 14.0652 80.2824 12.1114 76.6138C10.7381 74.0377 10.6924 73.1117 11.4567 67.6717C12.4523 60.1553 12.4787 60.7954 11.2651 60.0835C8.78176 58.579 6.46715 62.8231 8.62257 64.9747C9.22062 65.5762 9.77662 66.8055 9.90294 67.6753C9.94859 68.6013 10.1135 70.0428 10.1715 70.9004C10.2925 72.1928 9.86287 71.8333 7.6127 69.0293C6.11668 67.1372 4.63997 65.5309 4.29799 65.4695C4.02441 65.4204 3.80516 64.6751 3.80335 63.8983C3.91019 61.7289 2.12309 60.2787 0.446597 60.9663C-1.00016 61.5539 -1.39285 63.7425 -0.24061 64.7964C0.189068 65.1559 1.2343 65.6258 2.19183 65.7976C3.35454 66.0062 4.95577 67.7055 7.62514 71.7142C9.68943 74.7673 11.5801 78.001 11.8432 78.8953C12.3501 80.3982 12.3501 80.3982 10.4824 79.0042C9.4985 78.1923 8.07971 77.4435 7.39576 77.3208C6.71181 77.1981 5.86473 76.4107 5.52095 75.5725C4.78955 73.7469 3.44619 73.3647 2.02578 74.5924C1.19457 75.2904 1.16479 75.8499 1.8085 77.3773C2.7644 79.5255 3.41153 79.8534 4.95646 78.7187C5.91219 78.1136 6.54001 78.1556 8.45687 79.2761C12.3713 81.461 13.6305 83.0988 15.595 88.6755C19.1416 98.4188 19.3381 100.078 17.9637 107.738C16.5647 115.535 11.2855 133.155 10.5506 132.529C10.3139 132.274 10.2489 131.063 10.4575 129.9C10.9852 126.959 10.485 120.304 9.33418 114.52C8.37288 110.041 8.42196 109.768 10.0492 106.6C12.3568 102.002 13.1351 97.2705 11.8495 94.9925L10.9006 93.1985L9.32593 94.8927C8.36497 95.9204 7.51806 97.8864 7.03243 100.2C6.67656 102.183 6.12073 103.707 5.95236 103.465C5.70333 103.279 4.95261 101.168 4.23871 98.8511C2.7723 93.6462 -0.0654456 89.3955 -2.25408 89.0028C-7.3153 88.0947 -4.08975 96.0861 3.42176 103.011C4.86689 104.4 7.17678 108.838 6.98044 109.933C6.94362 110.138 5.71775 109.494 4.26738 108.528C1.00537 106.248 -1.37618 105.75 -2.18104 107.089C-3.10338 108.688 -0.972501 110.976 3.85032 113.607C7.96989 115.828 8.26278 116.163 8.69786 118.853C9.46102 123.65 9.51586 131.213 8.84093 134.975C8.14145 138.874 8.24666 138.681 0.776436 146.871C-7.98968 156.382 -16.3207 168.583 -15.1983 170.196C-14.8615 170.68 -14.1671 169.958 -13.3447 168.128C-11.3037 163.835 -5.20137 155.4 0.79935 148.711C3.78744 145.435 6.29857 142.849 6.42309 142.942C7.14042 144.059 -5.83031 165.594 -10.8385 171.473C-12.9147 173.994 -14.5753 176.167 -14.4631 176.329C-13.958 177.055 -12.5253 175.759 -9.0918 171.574C-4.54308 165.895 0.83145 157.188 5.49568 147.718C9.57251 139.554 10.0372 138.931 16.1731 134.243C18.5615 132.342 22.2651 129.406 24.4238 127.605C27.333 125.162 29.0463 124.269 31.4138 124.059C36.5275 123.494 43.7193 121.184 45.878 119.382C48.3716 117.288 48.5382 116.754 46.9317 115.477C45.3252 114.2 41.1743 114.515 37.3373 116.226C33.9598 117.738 33.9773 117.247 37.63 113.808C39.9307 111.609 41.9983 110.709 49.1532 108.604C57.8794 106.005 60.8027 104.27 60.3747 101.934C59.8396 99.0142 51.671 100.867 45.2861 105.369C42.7048 107.165 42.1383 106.781 44.197 104.75C46.3609 102.526 52.9032 90.8512 55.3194 84.8604C58.2301 77.6876 59.5625 70.6552 58.5382 68.4948C57.8577 67.1725 57.5841 67.1234 56.5477 67.7846C54.8414 69.0316 50.493 80.6764 47.3318 92.3931C43.9673 104.85 41.9122 108.434 43.5373 98.9837C45.1939 89.7504 44.0184 81.3502 41.1845 81.4065C39.3448 81.4295 38.6208 85.4648 38.9001 93.3511C39.5572 111.33 39.7324 109.173 37.3335 111.919L35.1205 114.417L35.9182 109.971C37.1576 103.063 34.3161 94.5053 31.7681 97.2956C30.5283 98.6969 30.2917 101.196 30.899 108.435C31.6607 117.961 31.3153 119.099 26.6893 123.635C22.6648 127.572 21.5162 128.072 23.3241 125.078C25.6457 121.188 25.9327 110.933 23.7702 108.427C21.1465 105.344 18.5323 114.405 19.294 123.931C19.7222 129.021 19.6609 129.363 18.2405 130.59C17.4899 131.232 15.468 133.058 13.8617 134.535C10.6614 137.42 9.44438 137.907 10.7753 135.605C11.2645 134.845 12.7602 131.231 14.1191 127.592C16.6826 120.78 19.0914 108.929 21.9557 89.8167C23.1179 81.7654 23.5983 79.8749 25.7323 75.4572C28.7325 69.3594 30.0459 67.5478 33.0428 65.4028C36.7412 62.8896 39.3875 62.3054 41.1184 63.6749C42.2952 64.5921 42.7863 64.6096 43.7981 64.0851C45.536 63.0556 45.7971 60.4198 44.1906 59.1432C43.0139 58.2261 42.5789 58.2893 40.6623 59.9221C39.4277 60.9007 38.23 61.6742 37.888 61.6128C37.6144 61.5637 36.0993 62.139 34.5473 62.9195L31.7538 64.3244L34.3385 61.3289C39.4396 55.3257 40.6058 54.3348 42.0421 54.5925C45.5302 55.2184 47.5151 50.8445 44.7196 48.7192C42.5028 46.9095 39.0342 49.3229 39.6253 52.3234C39.7201 52.9758 39.4238 53.8403 38.9152 54.3139C38.419 54.719 36.739 56.6061 35.2888 58.3932C32.7479 61.5377 32.5989 61.5816 32.9547 59.5981C33.1511 58.5038 33.7262 57.2657 34.2102 56.9289C34.6942 56.5922 35.108 55.4663 35.1676 54.3474C35.313 52.7498 34.9202 52.1851 33.5768 51.8029C31.1637 51.0876 29.5574 52.5643 30.1222 54.9247C30.4292 55.9681 30.9098 56.8309 31.3201 56.9045C32.6196 57.1377 30.8996 63.1828 28.2255 67.8566C26.7894 70.3522 24.5748 74.826 23.3509 77.7126C22.127 80.5993 21.2047 82.1987 21.3765 81.2412C21.4799 80.2714 21.4759 73.211 21.3088 65.486C21.1417 57.761 21.3096 49.7431 21.6777 47.6912L22.3404 43.9979L26.6632 42.7262C39.1159 39.0304 50.5598 26.3996 49.7367 17.2155C49.4102 13.133 47.2934 11.553 41.6869 11.3236C37.6902 11.1713 37.3605 11.0416 36.6729 9.36507C36.273 8.44616 35.0769 7.2432 34.0878 6.85395C33.111 6.39629 32.0903 5.78958 31.729 5.44237C30.0717 3.66247 28.2127 3.39953 26.4381 4.63425ZM32.529 10.0335C32.7307 11.2698 33.1429 12.1203 33.4533 11.9642C33.7076 11.7275 33.6496 10.8699 33.3865 9.97556C32.5727 7.42924 33.7845 7.36429 35.2946 9.96493C36.6608 12.1868 36.6679 12.541 35.1285 18.7597C33.3367 25.9921 29.3791 34.6713 25.7914 39.3224C24.5025 40.9972 23.3925 42.0688 23.4539 41.7268C23.4591 41.3042 23.8622 38.2703 24.3145 34.9628C24.8404 31.2449 24.9086 28.5039 24.5157 27.9392C23.9422 27.2009 23.8493 27.3255 23.8774 28.7424C24.0074 31.166 22.3105 41.8041 21.7458 42.1969C21.0198 42.702 18.692 33.248 18.5708 29.2022C18.4021 23.4536 20.8408 13.7959 23.5413 9.76223C26.4521 5.34274 28.3022 4.47454 30.4945 6.421C31.3538 7.13997 32.3272 8.79714 32.529 10.0335ZM23.3623 7.61222C21.5263 9.1889 18.9557 15.6462 18.0108 20.9126C17.1396 25.7686 17.1083 31.0578 17.9749 34.8842C18.3082 36.5678 16.1932 35.7647 15.2566 33.9024C14.1201 31.5805 14.69 30.765 15.851 32.9501C16.6438 34.4336 16.642 33.6568 15.6948 29.8864C15.0545 27.1594 14.3563 23.5749 14.2404 21.8598C14.0562 20.1324 13.7124 19.2942 13.4529 19.9536C13.2057 20.5446 13.4356 23.1979 13.9391 25.9003C15.1583 31.6962 14.5954 32.866 12.9799 27.7049C12.3414 25.7549 11.7732 24.594 11.5821 25.2656C11.3489 26.5651 15.4233 36.1208 16.1125 35.8208C16.7333 35.5086 19.108 38.4056 18.9607 39.2263C18.7767 40.2523 14.9393 36.4575 12.6067 32.9327C7.26795 24.9152 4.69821 15.6295 6.83398 11.9887C8.31395 9.64218 9.21012 10.156 9.02441 13.1583C8.78782 15.6573 8.85622 15.6696 9.46456 12.6725C10.0186 10.3716 10.6376 9.28253 12.158 8.28458C15.1058 6.4132 25.5332 5.74264 23.3623 7.61222ZM47.3252 14.5238C50.6926 19.3637 46.109 28.7779 36.7658 35.9967C33.4094 38.5713 27.4435 41.5249 26.9261 40.8673C26.7577 40.6253 27.624 38.9452 28.869 37.1213C31.9412 32.5895 36.1616 22.0513 37.1434 16.5797L37.9656 11.9973L40.982 12.8915C42.5866 13.3912 43.83 13.5437 43.6862 13.1649C43.1547 11.7988 46.2588 12.9911 47.3252 14.5238ZM44.9074 52.0004C44.6252 53.5734 42.3525 54.4364 41.1318 53.3702C40.1602 52.4899 41.0299 49.6103 42.396 49.0789C44.1163 48.5404 45.2879 49.8801 44.9074 52.0004ZM34.2048 54.5983C34.0085 55.6926 33.4754 56.3029 32.6301 56.2924C31.2815 56.3329 30.6869 54.5318 31.597 53.0008C32.5193 51.4014 34.5607 52.6148 34.2048 54.5983ZM44.2276 61.6913C43.9454 63.2644 41.4972 63.5311 40.9781 62.0966C40.3344 60.5692 41.5373 59.3731 43.0736 59.8605C43.9382 60.1569 44.3872 60.8022 44.2276 61.6913ZM11.5809 62.2581C11.744 62.9227 11.367 63.8434 10.8585 64.3169C9.95889 65.0027 9.7537 64.9659 9.0241 63.9172C8.07001 62.5459 8.90465 60.6483 10.4093 60.9183C10.8881 61.0042 11.4861 61.6057 11.5809 62.2581ZM57.1286 74.3837C56.245 79.3082 52.0246 89.8464 48.9103 95.006L47.3252 97.5454L48.6489 92.1352C49.955 87.216 54.7575 73.0406 56.1621 70.3275C57.4614 67.8074 57.9508 69.8013 57.1286 74.3837ZM3.13168 63.7071C3.09143 65.1119 2.84943 65.2802 1.51835 64.8296C0.516968 64.5087 0.0118579 63.7828 0.0591418 62.7323C0.0993881 61.3276 0.341387 61.1592 1.67247 61.6098C2.67385 61.9307 3.17896 62.6567 3.13168 63.7071ZM4.81427 76.3635C5.40184 77.8102 4.62676 78.5889 3.22024 77.7718C2.14343 77.0844 2.4098 74.0259 3.56728 74.6572C3.95311 74.8676 4.51434 75.6743 4.81427 76.3635ZM42.9228 88.6369C43.2177 92.502 41.5998 105.06 40.6441 105.665C40.3898 105.902 40.2583 105.455 40.3932 104.703C40.5282 103.95 40.4876 99.8484 40.2664 95.5729C40.0574 91.2291 40.1273 86.5116 40.3973 85.0069C40.8268 82.6131 41.0004 82.4325 41.7177 83.5495C42.2228 84.2755 42.7315 86.5553 42.9228 88.6369ZM0.471417 93.0922C1.20806 94.4951 2.25166 96.9415 2.80242 98.5934L3.67946 101.575L1.26796 98.8829C-1.07515 96.2034 -3.85153 91.6106 -3.67973 90.6531C-3.44657 89.3536 -0.770333 90.9633 0.471417 93.0922ZM59.0963 102.764C58.8999 103.858 54.3054 105.857 47.6906 107.706L41.4423 109.48L44.1972 107.503C50.0297 103.325 59.538 100.301 59.0963 102.764ZM34.8726 103.995C35.1534 107.151 33.2215 118.312 32.7689 116.113C32.1654 113.181 31.679 101.727 32.1032 99.756L32.5398 97.7164L33.557 99.5227C34.1498 100.547 34.7076 102.553 34.8726 103.995ZM10.9344 99.6995C10.6153 101.478 9.79475 104.084 9.04601 105.503L7.8028 108.103L7.67811 105.257C7.57273 102.697 8.93324 97.0813 9.98714 95.9291C10.9604 94.833 11.462 96.7585 10.9344 99.6995ZM23.8408 114.723C23.9234 118.197 21.66 128.451 20.9743 127.551C20.3131 126.515 20.3687 118.335 21.0243 114.288C22.2637 107.38 23.5755 107.545 23.8408 114.723ZM4.63227 110.429C8.68525 113.415 8.69409 114.546 4.63064 112.405C0.635592 110.277 -1.30058 108.87 -1.16559 108.118C-0.981515 107.092 1.3948 108.013 4.63227 110.429ZM46.3004 116.634C46.988 118.311 37.1833 122.199 30.7894 122.817C29.062 123.001 29.155 122.877 31.8415 120.888C35.5083 118.157 38.507 116.789 41.7811 116.247C44.9185 115.681 45.9567 115.796 46.3004 116.634Z" fill="#677EA4" fill-opacity="0.8" stroke="#677EA4" stroke-opacity="0.8" stroke-width="0.266667" mask="url(#path-1-inside-1_91_22574)"/>
<path d="M20.4944 27.9236C19.9967 33.0585 20.611 40.6519 21.4299 40.0223C21.6719 39.8539 21.5806 38.002 21.2525 35.8959C20.9929 33.802 21.04 29.9982 21.494 27.4676C21.8797 24.9247 21.9865 22.7554 21.6445 22.694C21.3026 22.6327 20.8169 24.9458 20.4944 27.9236Z" fill="#677EA4" fill-opacity="0.8"/>
<path d="M21.3066 39.9856C21.3299 39.9961 21.3541 39.9963 21.3889 39.9696L21.3923 39.9673C21.402 39.9601 21.4221 39.9333 21.4414 39.865C21.4598 39.7998 21.4736 39.7099 21.4836 39.5967C21.5035 39.3708 21.5055 39.0612 21.4887 38.6888C21.4553 37.9446 21.3501 36.9575 21.1863 35.9061L21.1867 35.9042C20.9425 33.9354 20.9682 30.4633 21.3475 27.9462L21.4286 27.4557C21.621 26.1865 21.7431 25.0116 21.7751 24.1476C21.7911 23.7151 21.785 23.3631 21.7537 23.1168C21.7379 22.9932 21.7164 22.8997 21.6907 22.8376C21.6638 22.773 21.6406 22.7615 21.6332 22.7599C21.6318 22.7596 21.6091 22.7579 21.564 22.8189C21.5227 22.8749 21.4766 22.9649 21.4281 23.0902C21.3313 23.34 21.2298 23.7129 21.1278 24.1832C20.924 25.1228 20.7218 26.4428 20.5607 27.93C20.3123 30.4928 20.3416 33.6711 20.5351 36.1296C20.6318 37.3589 20.7692 38.4054 20.933 39.104C21.0153 39.4549 21.1028 39.7118 21.1913 39.8598C21.2361 39.9346 21.276 39.9718 21.3066 39.9856Z" stroke="#677EA4" stroke-opacity="0.8" stroke-width="0.133333"/>
<path d="M28.4946 28.5828C28.1035 28.7951 27.6284 30.2629 27.3461 31.836C27.0516 33.4775 26.1065 35.9906 25.2771 37.4655C23.4079 40.8012 23.2045 41.5412 24.8406 39.5051C27.3815 36.3605 30.3622 27.2236 28.4946 28.5828Z" fill="#677EA4" fill-opacity="0.8"/>
<path d="M23.8051 40.5499C23.8319 40.5329 23.8666 40.5046 23.9106 40.4646C24.0437 40.344 24.2411 40.1278 24.504 39.8121L24.7888 39.4633C26.0515 37.9006 27.429 34.8393 28.2576 32.334C28.6719 31.0816 28.9461 29.9751 29.002 29.2689C29.016 29.0927 29.0164 28.9434 29.0024 28.8244C28.9882 28.7042 28.9607 28.6217 28.9246 28.5724C28.8919 28.5277 28.8514 28.5086 28.7953 28.5134C28.7484 28.5175 28.688 28.5387 28.613 28.5839L28.534 28.6372L28.5262 28.6418C28.4471 28.6848 28.3516 28.8 28.2483 28.9907C28.1468 29.1783 28.0435 29.4275 27.9427 29.7207C27.7411 30.3068 27.5519 31.0637 27.4112 31.8478C27.1153 33.4973 26.1675 36.017 25.3349 37.4976C24.8679 38.331 24.5058 39.0022 24.25 39.5076C23.9928 40.0159 23.8472 40.3506 23.8093 40.5149C23.8061 40.5288 23.8054 40.5408 23.8039 40.5506L23.8051 40.5499Z" stroke="#677EA4" stroke-opacity="0.8" stroke-width="0.133333"/>
<path d="M36.9596 28.6191C36.6808 28.9926 36.1547 29.9572 35.7777 30.8779C35.4007 31.7986 33.2439 34.3767 31.0554 36.7373C27.3168 40.6553 27.2922 40.7921 29.991 38.7348C33.1054 36.3286 37.7962 30.2517 37.5506 28.8663C37.4874 28.4314 37.2261 28.3139 36.9596 28.6191Z" fill="#677EA4" fill-opacity="0.8"/>
<path d="M28.216 39.9353C28.2749 39.9026 28.3555 39.8539 28.4561 39.7859C28.7729 39.572 29.2756 39.1967 29.9498 38.6828L29.95 38.6818C31.5008 37.4837 33.448 35.3679 34.9776 33.377C35.742 32.3819 36.4012 31.4203 36.853 30.6219C37.079 30.2225 37.2528 29.865 37.3619 29.5663C37.4718 29.2652 37.5127 29.0328 37.4854 28.878L37.4847 28.8759C37.4541 28.6649 37.3786 28.5577 37.3054 28.5263C37.2558 28.5051 37.1854 28.5111 37.0999 28.5767L37.01 28.6628C36.7351 29.0329 36.2137 29.9885 35.8391 30.9033C35.7417 31.1411 35.5322 31.4804 35.2426 31.8887C34.9521 32.2983 34.5777 32.7815 34.1474 33.3094C33.2864 34.3654 32.1992 35.6016 31.1043 36.7826L31.1032 36.7834C30.1686 37.7628 29.4667 38.5059 28.9814 39.0369C28.7388 39.3023 28.5509 39.5144 28.4153 39.6764C28.3227 39.7871 28.2585 39.8736 28.216 39.9353Z" stroke="#677EA4" stroke-opacity="0.8" stroke-width="0.133333"/>
</svg>
