<svg width="98" height="174" viewBox="0 0 98 174" fill="none" xmlns="http://www.w3.org/2000/svg">
<mask id="path-1-outside-1_129_5831" maskUnits="userSpaceOnUse" x="-1.03213" y="-0.71222" width="123.523" height="175.573" fill="black">
<rect fill="white" x="-1.03213" y="-0.71222" width="123.523" height="175.573"/>
<path d="M89.1194 4.78519C85.7373 5.52019 82.6726 6.67849 80.8482 7.93724C79.6609 8.737 79.4099 8.80653 79.2206 8.26699C79.1086 7.89438 78.7457 7.5913 78.456 7.57736C77.3385 7.52362 76.5291 23.1123 77.3629 29.1912C78.1926 35.3924 79.9491 38.6595 85.9522 45.1095L88.9516 48.3956L88.1911 52.5617C86.2065 63.6055 85.4832 72.8738 85.8224 82.6013L85.9974 87.302L85.1745 85.8751C82.6255 81.509 75.5274 73.0886 70.6194 68.6091C68.3269 66.4994 62.7873 62.3159 62.2492 62.29C61.5871 62.2582 61.9229 63.376 62.8849 64.3608C64.689 66.2021 66.1667 69.1294 67.6993 74.1402C68.563 76.834 69.7028 79.949 70.2455 81.0768C71.5699 83.6295 75.8544 88.1607 81.0202 92.367C86.4262 96.8298 86.8665 97.2998 86.8217 98.6441C86.8 99.2959 87.3401 102.994 87.9975 106.902C88.6149 110.767 89.6339 117.508 90.1522 121.858C90.7133 126.169 91.2411 130.234 91.3849 130.894C91.5647 131.719 91.003 131.161 89.5436 128.928C86.937 125.049 76.1799 113.229 70.546 108.144C67.5289 105.387 66.4094 104.15 66.6313 103.712C67.5187 101.959 67.3776 98.729 66.1177 92.9968C65.4386 89.7407 64.7052 85.6251 64.5166 83.8207C64.2866 82.0143 63.8327 79.4627 63.4195 78.1779C62.6373 75.5289 56.5956 64.0175 52.7419 57.7525C50.2649 53.7162 46.19 49.1135 45.8718 49.9551C45.7382 50.2343 46.3515 51.7327 47.2118 53.2838C51.1557 60.5732 52.6259 64.969 53.8844 73.231C55.0113 80.4665 54.974 80.3423 56.2386 84.6875C56.8343 86.7155 58.1369 89.9199 59.1119 91.7622C61.8834 96.9142 64.2729 102.334 63.8923 102.56C63.6813 102.672 63.4357 102.579 63.317 102.41C63.1996 102.2 61.342 100.724 59.156 99.1496C56.9699 97.5756 53.5776 94.8826 51.5626 93.1536C49.5876 91.4673 46.7611 89.2096 45.3038 88.1602C43.8478 87.0701 41.9474 85.6322 41.0586 84.9366C39.6868 83.8098 39.2356 83.6657 38.1487 83.9398C37.0632 84.1732 36.2022 83.887 32.126 81.814C29.518 80.4645 26.412 79.1318 25.2599 78.8724C20.4476 77.7432 12.3542 78.0476 9.11315 79.5239L7.80846 80.114L8.14566 78.7021C8.34378 77.7323 8.2549 76.6672 7.83494 75.5861C7.1151 73.5521 7.38513 72.9123 9.76248 71.2313C10.6974 70.5418 11.7327 69.3267 12.1792 68.3689C13.0761 66.3311 13.4581 66.0638 15.3619 66.1554C17.1829 66.243 23.4967 68.342 26.2261 69.779C29.2426 71.3113 36.1188 77.6809 38.7322 81.3565C40.0009 83.0904 41.1964 84.5352 41.3619 84.5432C42.9346 84.6188 44.164 77.5782 44.2774 67.9542L44.3276 61.4689L41.9286 56.3347C39.3721 50.9482 38.7364 48.8774 38.8206 46.3517C38.883 44.4778 38.3463 44.4111 36.2214 45.9819L34.648 47.1711L33.2694 46.2479C31.4049 44.975 30.74 45.0246 28.822 46.6053C27.4169 47.721 26.8294 47.9375 25.2567 47.8619C22.608 47.7345 20.9131 48.8363 20.8494 50.7509L20.8032 52.136L18.4028 52.0206C14.2228 51.8195 11.0469 53.8293 10.3976 57.144C10.1486 58.3969 9.54203 59.1838 7.41028 60.9582C4.2527 63.6625 3.10337 65.8106 3.46905 68.5212C3.76417 70.8612 3.68953 73.1018 3.23291 75.6096C2.87807 77.5511 2.91402 77.716 4.16307 78.7962C4.84628 79.4411 5.61634 79.9677 5.82327 79.9777C6.73377 80.0215 6.04852 80.6822 4.70787 81.1073C3.91203 81.3547 3.23628 81.7302 3.22949 81.9339C3.20099 82.7894 9.10022 88.6223 10.9341 89.5674C13.9919 91.1018 17.3212 91.9556 20.9218 92.1287C24.9363 92.3218 26.8658 91.6394 31.6178 88.3588C34.886 86.0679 37.5808 84.8102 38.9479 84.8351C39.3618 84.855 40.5389 85.6053 41.5851 86.5533C42.5913 87.4585 44.2474 88.7623 45.2617 89.4231C46.276 90.0839 49.1025 92.3416 51.5205 94.4165C53.98 96.4933 57.778 99.4506 60.0054 101.027C64.0572 103.833 71.3167 109.894 73.0325 111.895L73.9505 112.959L72.5766 113.138C70.2868 113.436 67.3809 112.317 56.1612 106.921C44.0859 101.077 43.0926 101.029 29.8089 105.328C28.3 105.826 26.0462 106.289 24.7991 106.392C22.3051 106.599 21.9699 106.705 22.5317 107.262C23.1335 107.863 29.1535 110.07 33.7535 111.352C36.1349 112.038 39.5428 113.018 41.3503 113.513C51.781 116.463 62.9207 116.794 71.5827 114.355L74.5123 113.516L80.2378 119.586C85.9647 125.615 90.3767 131.294 91.8035 134.505C92.2289 135.423 92.9447 137.579 93.3857 139.273C93.8267 140.967 94.7664 143.869 95.493 145.699C96.9021 149.439 96.9422 149.482 96.2576 148.878C95.9747 148.66 94.5492 147.898 93.1611 147.26C91.7329 146.579 89.2491 145.236 87.6235 144.26C85.065 142.668 84.5446 142.112 82.9747 139.466C76.4696 128.177 69.7589 121.816 63.9648 121.537C62.5991 121.471 62.3881 121.584 62.6174 122.166C62.7694 122.581 63.2958 124.198 63.7823 125.772C65.4696 131.116 68.4006 135.215 73.333 138.962C76.1208 141.136 81.1299 143.825 83.514 144.429L85.0758 144.831L84.0222 145.351C82.3783 146.17 76.3318 146.002 72.9225 145.062C69.2662 144.07 65.4587 143.887 62.2876 144.51C59.7827 145.042 45.7452 150.814 45.6862 151.342C45.6807 151.505 46.7459 151.882 48.0622 152.19C49.337 152.497 51.5888 153.339 53.057 154.063C56.4832 155.737 58.7018 156.334 62.3425 156.55C66.4397 156.747 68.7553 155.675 74.0942 150.954C78.0239 147.47 78.5314 147.168 80.4433 147.015C81.6075 146.908 83.362 146.503 84.3689 146.143C85.3757 145.784 86.5054 145.471 86.8778 145.489C87.249 145.547 89.6996 146.645 92.3503 147.955L97.1633 150.309L99.5332 155.074C103.494 163.099 109.779 173.52 110.731 173.566C111.435 173.6 111.396 173.516 108.715 169.389C102.803 160.209 97.0283 148.14 94.571 139.779C93.2304 135.226 93.1252 134.65 93.6904 133.861C94.0377 133.388 95.067 131.112 95.9293 128.868C97.3785 125.184 97.8609 124.391 100.174 122.136C103.518 118.829 104.743 116.888 106.076 112.954C106.631 111.226 108.102 108.155 109.29 106.09C111.924 101.688 112.309 100.074 111.649 96.2475C111.088 93.1604 109.13 87.2314 108.222 85.882C107.548 84.9519 107.416 85.1903 106.872 87.8164C106.674 88.7862 105.358 90.967 103.406 93.5661C97.6799 101.207 97.1785 102.57 97.9668 108.769C98.4919 112.915 98.4906 112.956 97.5014 115.275C95.5711 119.711 95.0439 121.848 95.1891 124.957C95.2773 127.287 95.1165 128.38 94.4401 130.021C93.9455 131.18 93.4495 132.381 93.3145 132.701C93.2209 133.022 93.0085 133.175 92.9298 133.049C92.6482 132.791 91.5322 125.229 91.058 120.8C90.8734 118.873 90.1631 114.065 89.5484 110.119C87.9968 100.7 87.703 98.3193 87.2756 91.2398C86.37 77.364 86.908 64.9449 88.9659 54.1903C89.3261 52.0859 89.7719 49.904 89.8309 49.3764C89.9822 48.5676 90.4483 48.2636 92.1228 47.7729C93.2938 47.4619 96.026 46.3285 98.1733 45.3301C100.363 44.2929 103.391 43.0104 104.982 42.5157C108.715 41.2263 111.401 38.9889 113.767 35.1448C114.82 33.4002 116.995 30.3221 118.597 28.2774C121.8 24.2287 121.935 23.9088 121.495 22.1739C121.205 20.9359 118.468 18.4785 117.309 18.4227C116.895 18.4028 115.781 17.0027 114.681 15.1953C111.22 9.56124 106.61 6.11604 103.03 6.55592C100.325 6.87465 99.4185 6.70864 96.9733 5.44855C94.3653 4.09903 92.8354 3.98464 89.1194 4.78519ZM97.2223 6.68462C99.179 7.6764 99.7557 7.78574 102.247 7.66075C104.737 7.57649 105.272 7.68384 107.063 8.66766C109.26 9.9158 112.065 12.8253 114.034 15.9394C115.174 17.7896 115.248 18.0788 114.72 18.9918L114.149 19.9437L113.36 18.7632C112.925 18.1302 111.729 16.6854 110.687 15.6152C107.561 12.4047 104.142 11.7506 100.802 13.7117C99.2366 14.6565 98.6674 15.5676 97.7766 18.6666L97.2189 20.4759L96.5845 18.3644C95.7636 15.6319 93.4181 12.6221 91.2627 11.376C89.0644 10.1685 85.879 9.97454 83.5275 10.8815L81.7635 11.5719L81.011 10.5157C80.1385 9.33122 80.3109 9.13549 83.847 7.51023C89.0658 5.14984 93.7601 4.84518 97.2223 6.68462ZM80.7098 12.0925C82.3422 15.3536 82.5667 17.323 81.7376 22.3019C80.6555 28.6559 81.3638 32.2807 84.7147 37.4606C86.094 39.6079 87.5954 43.0668 87.9882 44.9626L88.2372 46.1987L86.9536 44.9128C84.868 42.8132 80.6656 37.0618 79.8976 35.2296C78.1282 31.105 77.5508 24.7935 78.2164 16.0121C78.7959 8.57299 78.8827 8.45475 80.7098 12.0925ZM90.8176 12.293C95.3796 14.7158 97.4319 21.547 96.1536 30.0542C95.3483 35.5647 94.471 38.2563 92.1778 42.3895C89.9273 46.484 88.9374 47.5788 88.9917 45.9493C89.0514 44.1569 87.6823 40.4595 85.6014 36.9728C82.7777 32.1446 81.9249 29.125 82.3808 25.3931C83.3666 16.9534 83.3789 16.5868 82.8259 14.52C82.5315 13.4042 82.313 12.496 82.3558 12.4573C82.3971 12.4593 83.1116 12.1672 83.9101 11.8384C85.9693 10.999 88.6994 11.1711 90.8176 12.293ZM109.034 15.4542C110.689 16.7986 111.527 17.7774 112.666 19.6683L113.45 21.0118L112.131 24.539C110.489 29.0299 109.44 30.6524 107.017 32.4536C105.955 33.2186 102.736 36.532 99.8919 39.7819C95.6678 44.6383 94.3841 45.8415 92.787 46.4991C91.6947 46.9362 90.6878 47.2958 90.5223 47.2878C90.3554 47.3206 90.7964 46.5258 91.5325 45.5819C95.0477 40.8546 96.7622 35.4286 97.3593 27.46C97.9971 18.2691 99.7441 14.3545 103.453 13.7576C105.619 13.4537 107.097 13.892 109.034 15.4542ZM118.579 20.1159C119.796 20.9089 120.863 22.47 120.831 23.4477C120.824 23.6514 119.434 25.5431 117.747 27.6653C116.1 29.8302 113.97 32.788 113.089 34.337C110.934 38.0688 108.673 40.0002 105.106 41.2976C103.469 41.9125 100.948 42.9337 99.476 43.5566L96.8239 44.7755L98.2894 43.0915C99.1069 42.1923 101.175 39.8436 102.855 37.9251C104.537 35.9658 106.895 33.631 108.128 32.711C110.469 30.8651 112.047 28.2888 113.566 23.7511C115.135 18.971 115.9 18.3958 118.579 20.1159ZM37.9508 47.5748C37.8883 49.4487 39.0119 53.0526 40.4203 55.5685C43.3947 60.8528 43.7699 63.2782 43.0988 72.2226L42.5893 78.8082L40.7697 76.1909C38.0361 72.3871 37.34 70.8847 36.7023 67.6306C36.3841 65.9832 35.4553 62.7559 34.6622 60.4328C32.8521 55.0413 32.6804 53.9722 33.3026 51.4723C33.6852 49.9402 34.2545 49.0291 35.494 47.9054C37.4602 46.1231 38.0023 46.0267 37.9508 47.5748ZM33.114 47.1789C33.7585 47.7404 33.7558 47.8218 32.9125 49.495C31.5372 52.2035 31.6763 54.2503 33.7273 61.1223C34.7748 64.5185 35.8474 68.4056 36.1778 69.6864C36.6867 71.8326 38.3313 74.7271 41.1876 78.5776C42.1802 79.8902 42.2908 80.3035 41.9949 81.7174C41.7995 82.6057 41.5268 83.327 41.4026 83.3211C41.2371 83.3131 40.602 82.4665 40.0152 81.4182C39.3856 80.4086 37.9554 78.5445 36.8359 77.3074C35.1147 75.4701 34.6092 74.4665 33.8643 71.9417C32.5304 67.1852 31.5514 65.4651 27.1726 60.0317C21.5583 53.1108 20.4972 50.122 23.1853 49.068C23.7742 48.8107 25.1054 48.6707 26.1814 48.7224C27.7541 48.7981 28.2575 48.6183 29.202 47.6436C30.4042 46.3957 31.9436 46.225 33.114 47.1789ZM50.9121 56.6852C56.3785 65.5575 57.4063 68.3 59.2788 79.2845C60.7002 87.6358 62.2118 92.0337 65.8904 98.5759C66.4372 99.5815 66.4969 100.278 66.2398 101.775C66.039 102.827 65.7622 103.67 65.5966 103.662C65.4311 103.654 65.0111 102.573 64.682 101.252C64.3516 99.9708 62.8075 96.5507 61.2457 93.6601C57.4605 86.5824 56.453 83.2289 54.8912 72.8714C53.8458 65.6806 52.1143 60.4153 48.6053 53.7588C47.0049 50.7848 48.1989 52.2704 50.9121 56.6852ZM21.8087 54.3061C22.5835 55.9347 24.5273 58.558 27.56 62.0905C28.7982 63.4966 30.2243 65.4829 30.8112 66.5312C31.7088 68.2065 33.5203 73.5572 33.2224 73.7877C33.1797 73.8265 32.1294 73.0007 30.9218 71.9225C28.0234 69.335 25.9052 68.213 20.5352 66.4042C14.2227 64.2645 12.3882 64.5843 11.1941 68.0767L10.6004 69.7211L9.62408 67.9196L8.60639 66.1161L9.74758 64.2124C10.5787 62.9059 10.9492 61.7404 10.9939 60.3961C11.0754 57.9518 11.7708 55.7411 12.762 54.6055C13.7519 53.5106 16.3878 52.7805 18.9965 52.8652C21.0244 52.9627 21.1872 53.0522 21.8087 54.3061ZM10.0068 61.4095C9.81951 62.0533 9.19803 63.2883 8.54738 64.1547C7.50389 65.6142 7.45708 65.7752 8.04123 66.905C9.67496 70.1254 9.68582 69.7995 7.98015 71.2272C6.27312 72.6956 6.03091 73.7448 6.90951 75.9904C7.40411 77.3199 7.24398 79.638 6.66457 79.6101C6.12655 79.5842 3.80621 77.0653 3.82521 76.4949C3.83471 76.2098 4.16241 75.0831 4.61292 74.003C5.29478 72.1997 5.30292 71.9553 4.66721 69.8845C4.03285 67.7731 4.03828 67.6101 4.80428 65.77C5.48207 64.0889 9.17837 60.1456 10.0061 60.1854C10.1716 60.1933 10.154 60.7229 10.0068 61.4095ZM70.8616 72.5378C72.0245 74.9603 73.988 78.2374 75.218 79.8879C78.7162 84.3812 82.5244 90.7665 82.4836 91.9886C82.4633 92.5997 77.9515 88.6696 75.0294 85.5504C71.4281 81.6641 70.097 79.3151 68.9979 74.978C68.1586 71.5509 66.4801 67.1859 65.6741 66.4943C65.3512 66.2339 65.1164 65.8146 65.1232 65.6109C65.13 65.4072 65.9428 65.8951 66.953 66.6782C68.4477 67.8518 69.1987 68.9488 70.8616 72.5378ZM59.0448 70.1333C58.9152 70.2903 59.4471 71.744 60.3047 73.3766C62.3665 77.4336 62.9249 79.3374 63.5043 84.3433C63.7981 86.724 64.5009 90.5116 65.0885 92.7841C65.6346 95.0545 66.0688 96.9523 65.9834 97.0298C65.8124 97.1848 62.7871 89.6948 61.8834 86.9583C61.5076 85.7977 60.762 82.0488 60.1724 78.593C59.6228 75.1799 58.941 72.0053 58.7076 71.5452C58.2049 70.4602 58.2252 69.8491 58.846 69.8789C59.0943 69.8909 59.2144 70.0191 59.0448 70.1333ZM82.1919 83.3243C85.9499 88.7279 86.1433 89.1452 86.3536 92.7868L86.5029 95.7726L85.1337 94.5642C84.3691 93.8746 83.7341 93.028 83.7449 92.7021C83.6859 90.7407 80.3954 84.9924 75.9474 79.1477C73.8448 76.3128 72.0055 73.0417 71.2551 70.6798C70.9193 69.562 79.5799 79.608 82.1919 83.3243ZM26.7437 80.3718C27.8503 80.7515 30.0967 81.7572 31.725 82.6516C33.3547 83.5052 34.8643 84.2307 35.0712 84.2406C35.3195 84.2526 35.4796 84.4235 35.4715 84.6679C35.4647 84.8716 35.2924 85.0673 35.0854 85.0574C34.9199 85.0494 32.9327 86.2187 30.769 87.706C26.3604 90.6358 24.1357 91.4672 20.9489 91.314C18.383 91.1906 13.2517 89.6789 10.9321 88.384C9.30376 87.4896 4.8483 83.1134 4.87002 82.4616C4.8863 81.9728 7.533 80.9168 10.9633 79.9801C13.3895 79.3215 14.8021 79.2263 19.3145 79.4025C22.9152 79.5757 25.3916 79.8988 26.7437 80.3718ZM109.989 93.8012C110.979 97.6842 111.087 100.668 110.241 102.423C109.931 103.02 108.963 104.687 108.087 106.114C107.169 107.539 105.875 110.292 105.228 112.301C104.582 114.269 103.464 116.704 102.768 117.691C101.12 119.897 97.8589 123.208 98.2226 122.246C98.3603 121.845 98.8176 120.561 99.188 119.396C99.5999 118.232 100.89 115.601 102.119 113.539C106.514 106.038 106.467 106.199 107.265 99.6682C107.665 96.3824 108.009 92.2778 108.023 90.6056C107.997 87.6665 107.999 87.585 108.535 88.9165C108.842 89.6657 109.474 91.8586 109.989 93.8012ZM106.467 97.508C106.049 101.323 105.509 105.092 105.192 105.893C104.917 106.696 103.507 109.199 102.063 111.496C99.7403 115.26 96.8154 122.179 96.7543 124.012C96.7421 124.378 96.5203 124.817 96.2679 124.927C95.4639 125.419 96.5508 120.166 97.8983 117.049C99.1066 114.373 99.2111 113.725 99.0883 111.189C98.5965 102.311 98.4384 103.324 100.42 99.8286C102.139 96.7694 106.532 90.5746 106.988 90.5558C107.113 90.5618 106.884 93.6926 106.467 97.508ZM47.9185 104.24C49.0665 104.622 52.8638 106.355 56.4115 108.117C59.9606 109.838 63.2654 111.425 63.8407 111.575C65.811 112.159 64.7186 112.597 61.656 112.449C58.1382 112.28 49.8216 110.574 47.0385 109.502C44.421 108.438 36.9226 104.568 36.8921 104.24C36.886 103.179 44.8458 103.154 47.9185 104.24ZM39.4981 106.895C44.0105 109.56 48.0616 111.143 53.0009 112.196C59.2163 113.515 62.0665 113.816 64.3604 113.395C65.6115 113.17 67.1041 113.16 68.0092 113.367L69.5296 113.766L67.7738 114.212C63.3861 115.266 54.4718 115.327 48.7876 114.238C45.9028 113.732 31.8158 109.79 27.0998 108.257C25.0922 107.549 24.9443 107.011 26.8067 107.101C27.3875 107.088 29.4772 106.576 31.4481 105.896C33.419 105.216 35.1776 104.688 35.3859 104.657C35.5928 104.667 37.4668 105.655 39.4981 106.895ZM68.5641 124.084C71.6593 125.743 76.9791 131.548 80.2818 136.929C81.7772 139.327 82.9122 141.34 82.8267 141.418C82.3152 141.842 76.4092 136.213 72.8615 131.962C70.5093 129.156 67.4698 125.827 66.0619 124.535C63.5265 122.25 63.5279 122.21 64.8855 122.52C65.6664 122.721 67.3429 123.413 68.5641 124.084ZM72.0548 132.535C75.7531 137.242 78.3686 139.612 82.7555 142.312C86.4938 144.573 86.1987 144.722 81.7873 142.755C77.1317 140.654 71.7427 136.927 69.4732 134.124C67.7588 132.083 65.4445 128.137 65.0782 126.691C64.9689 126.237 64.745 125.492 64.553 125.034C63.9838 123.456 68.3565 127.828 72.0548 132.535ZM71.4964 145.565C72.0344 145.591 72.3187 145.768 72.1864 146.006C72.0554 146.204 71.4692 146.38 70.8898 146.352C69.193 146.27 65.3352 147.594 62.5881 149.176C57.5159 152.115 54.6799 152.631 49.6993 151.576L48.1348 151.256L51.2102 149.771C55.509 147.652 61.8825 145.47 64.3379 145.18C65.4607 145.071 67.3672 145.081 68.4806 145.257C69.6367 145.394 70.9583 145.539 71.4964 145.565ZM74.6519 149.144C68.6196 154.771 65.3786 156.247 60.6354 155.529C58.2018 155.167 53.4858 153.635 53.4994 153.227C53.5048 153.064 54.5049 152.908 55.7492 152.887C57.5756 152.811 58.7907 152.421 61.9999 150.657C67.3591 147.814 70.9163 146.802 76.5998 146.667C77.0564 146.648 76.2788 147.59 74.6519 149.144Z"/>
</mask>
<path d="M89.1194 4.78519C85.7373 5.52019 82.6726 6.67849 80.8482 7.93724C79.6609 8.737 79.4099 8.80653 79.2206 8.26699C79.1086 7.89438 78.7457 7.5913 78.456 7.57736C77.3385 7.52362 76.5291 23.1123 77.3629 29.1912C78.1926 35.3924 79.9491 38.6595 85.9522 45.1095L88.9516 48.3956L88.1911 52.5617C86.2065 63.6055 85.4832 72.8738 85.8224 82.6013L85.9974 87.302L85.1745 85.8751C82.6255 81.509 75.5274 73.0886 70.6194 68.6091C68.3269 66.4994 62.7873 62.3159 62.2492 62.29C61.5871 62.2582 61.9229 63.376 62.8849 64.3608C64.689 66.2021 66.1667 69.1294 67.6993 74.1402C68.563 76.834 69.7028 79.949 70.2455 81.0768C71.5699 83.6295 75.8544 88.1607 81.0202 92.367C86.4262 96.8298 86.8665 97.2998 86.8217 98.6441C86.8 99.2959 87.3401 102.994 87.9975 106.902C88.6149 110.767 89.6339 117.508 90.1522 121.858C90.7133 126.169 91.2411 130.234 91.3849 130.894C91.5647 131.719 91.003 131.161 89.5436 128.928C86.937 125.049 76.1799 113.229 70.546 108.144C67.5289 105.387 66.4094 104.15 66.6313 103.712C67.5187 101.959 67.3776 98.729 66.1177 92.9968C65.4386 89.7407 64.7052 85.6251 64.5166 83.8207C64.2866 82.0143 63.8327 79.4627 63.4195 78.1779C62.6373 75.5289 56.5956 64.0175 52.7419 57.7525C50.2649 53.7162 46.19 49.1135 45.8718 49.9551C45.7382 50.2343 46.3515 51.7327 47.2118 53.2838C51.1557 60.5732 52.6259 64.969 53.8844 73.231C55.0113 80.4665 54.974 80.3423 56.2386 84.6875C56.8343 86.7155 58.1369 89.9199 59.1119 91.7622C61.8834 96.9142 64.2729 102.334 63.8923 102.56C63.6813 102.672 63.4357 102.579 63.317 102.41C63.1996 102.2 61.342 100.724 59.156 99.1496C56.9699 97.5756 53.5776 94.8826 51.5626 93.1536C49.5876 91.4673 46.7611 89.2096 45.3038 88.1602C43.8478 87.0701 41.9474 85.6322 41.0586 84.9366C39.6868 83.8098 39.2356 83.6657 38.1487 83.9398C37.0632 84.1732 36.2022 83.887 32.126 81.814C29.518 80.4645 26.412 79.1318 25.2599 78.8724C20.4476 77.7432 12.3542 78.0476 9.11315 79.5239L7.80846 80.114L8.14566 78.7021C8.34378 77.7323 8.2549 76.6672 7.83494 75.5861C7.1151 73.5521 7.38513 72.9123 9.76248 71.2313C10.6974 70.5418 11.7327 69.3267 12.1792 68.3689C13.0761 66.3311 13.4581 66.0638 15.3619 66.1554C17.1829 66.243 23.4967 68.342 26.2261 69.779C29.2426 71.3113 36.1188 77.6809 38.7322 81.3565C40.0009 83.0904 41.1964 84.5352 41.3619 84.5432C42.9346 84.6188 44.164 77.5782 44.2774 67.9542L44.3276 61.4689L41.9286 56.3347C39.3721 50.9482 38.7364 48.8774 38.8206 46.3517C38.883 44.4778 38.3463 44.4111 36.2214 45.9819L34.648 47.1711L33.2694 46.2479C31.4049 44.975 30.74 45.0246 28.822 46.6053C27.4169 47.721 26.8294 47.9375 25.2567 47.8619C22.608 47.7345 20.9131 48.8363 20.8494 50.7509L20.8032 52.136L18.4028 52.0206C14.2228 51.8195 11.0469 53.8293 10.3976 57.144C10.1486 58.3969 9.54203 59.1838 7.41028 60.9582C4.2527 63.6625 3.10337 65.8106 3.46905 68.5212C3.76417 70.8612 3.68953 73.1018 3.23291 75.6096C2.87807 77.5511 2.91402 77.716 4.16307 78.7962C4.84628 79.4411 5.61634 79.9677 5.82327 79.9777C6.73377 80.0215 6.04852 80.6822 4.70787 81.1073C3.91203 81.3547 3.23628 81.7302 3.22949 81.9339C3.20099 82.7894 9.10022 88.6223 10.9341 89.5674C13.9919 91.1018 17.3212 91.9556 20.9218 92.1287C24.9363 92.3218 26.8658 91.6394 31.6178 88.3588C34.886 86.0679 37.5808 84.8102 38.9479 84.8351C39.3618 84.855 40.5389 85.6053 41.5851 86.5533C42.5913 87.4585 44.2474 88.7623 45.2617 89.4231C46.276 90.0839 49.1025 92.3416 51.5205 94.4165C53.98 96.4933 57.778 99.4506 60.0054 101.027C64.0572 103.833 71.3167 109.894 73.0325 111.895L73.9505 112.959L72.5766 113.138C70.2868 113.436 67.3809 112.317 56.1612 106.921C44.0859 101.077 43.0926 101.029 29.8089 105.328C28.3 105.826 26.0462 106.289 24.7991 106.392C22.3051 106.599 21.9699 106.705 22.5317 107.262C23.1335 107.863 29.1535 110.07 33.7535 111.352C36.1349 112.038 39.5428 113.018 41.3503 113.513C51.781 116.463 62.9207 116.794 71.5827 114.355L74.5123 113.516L80.2378 119.586C85.9647 125.615 90.3767 131.294 91.8035 134.505C92.2289 135.423 92.9447 137.579 93.3857 139.273C93.8267 140.967 94.7664 143.869 95.493 145.699C96.9021 149.439 96.9422 149.482 96.2576 148.878C95.9747 148.66 94.5492 147.898 93.1611 147.26C91.7329 146.579 89.2491 145.236 87.6235 144.26C85.065 142.668 84.5446 142.112 82.9747 139.466C76.4696 128.177 69.7589 121.816 63.9648 121.537C62.5991 121.471 62.3881 121.584 62.6174 122.166C62.7694 122.581 63.2958 124.198 63.7823 125.772C65.4696 131.116 68.4006 135.215 73.333 138.962C76.1208 141.136 81.1299 143.825 83.514 144.429L85.0758 144.831L84.0222 145.351C82.3783 146.17 76.3318 146.002 72.9225 145.062C69.2662 144.07 65.4587 143.887 62.2876 144.51C59.7827 145.042 45.7452 150.814 45.6862 151.342C45.6807 151.505 46.7459 151.882 48.0622 152.19C49.337 152.497 51.5888 153.339 53.057 154.063C56.4832 155.737 58.7018 156.334 62.3425 156.55C66.4397 156.747 68.7553 155.675 74.0942 150.954C78.0239 147.47 78.5314 147.168 80.4433 147.015C81.6075 146.908 83.362 146.503 84.3689 146.143C85.3757 145.784 86.5054 145.471 86.8778 145.489C87.249 145.547 89.6996 146.645 92.3503 147.955L97.1633 150.309L99.5332 155.074C103.494 163.099 109.779 173.52 110.731 173.566C111.435 173.6 111.396 173.516 108.715 169.389C102.803 160.209 97.0283 148.14 94.571 139.779C93.2304 135.226 93.1252 134.65 93.6904 133.861C94.0377 133.388 95.067 131.112 95.9293 128.868C97.3785 125.184 97.8609 124.391 100.174 122.136C103.518 118.829 104.743 116.888 106.076 112.954C106.631 111.226 108.102 108.155 109.29 106.09C111.924 101.688 112.309 100.074 111.649 96.2475C111.088 93.1604 109.13 87.2314 108.222 85.882C107.548 84.9519 107.416 85.1903 106.872 87.8164C106.674 88.7862 105.358 90.967 103.406 93.5661C97.6799 101.207 97.1785 102.57 97.9668 108.769C98.4919 112.915 98.4906 112.956 97.5014 115.275C95.5711 119.711 95.0439 121.848 95.1891 124.957C95.2773 127.287 95.1165 128.38 94.4401 130.021C93.9455 131.18 93.4495 132.381 93.3145 132.701C93.2209 133.022 93.0085 133.175 92.9298 133.049C92.6482 132.791 91.5322 125.229 91.058 120.8C90.8734 118.873 90.1631 114.065 89.5484 110.119C87.9968 100.7 87.703 98.3193 87.2756 91.2398C86.37 77.364 86.908 64.9449 88.9659 54.1903C89.3261 52.0859 89.7719 49.904 89.8309 49.3764C89.9822 48.5676 90.4483 48.2636 92.1228 47.7729C93.2938 47.4619 96.026 46.3285 98.1733 45.3301C100.363 44.2929 103.391 43.0104 104.982 42.5157C108.715 41.2263 111.401 38.9889 113.767 35.1448C114.82 33.4002 116.995 30.3221 118.597 28.2774C121.8 24.2287 121.935 23.9088 121.495 22.1739C121.205 20.9359 118.468 18.4785 117.309 18.4227C116.895 18.4028 115.781 17.0027 114.681 15.1953C111.22 9.56124 106.61 6.11604 103.03 6.55592C100.325 6.87465 99.4185 6.70864 96.9733 5.44855C94.3653 4.09903 92.8354 3.98464 89.1194 4.78519ZM97.2223 6.68462C99.179 7.6764 99.7557 7.78574 102.247 7.66075C104.737 7.57649 105.272 7.68384 107.063 8.66766C109.26 9.9158 112.065 12.8253 114.034 15.9394C115.174 17.7896 115.248 18.0788 114.72 18.9918L114.149 19.9437L113.36 18.7632C112.925 18.1302 111.729 16.6854 110.687 15.6152C107.561 12.4047 104.142 11.7506 100.802 13.7117C99.2366 14.6565 98.6674 15.5676 97.7766 18.6666L97.2189 20.4759L96.5845 18.3644C95.7636 15.6319 93.4181 12.6221 91.2627 11.376C89.0644 10.1685 85.879 9.97454 83.5275 10.8815L81.7635 11.5719L81.011 10.5157C80.1385 9.33122 80.3109 9.13549 83.847 7.51023C89.0658 5.14984 93.7601 4.84518 97.2223 6.68462ZM80.7098 12.0925C82.3422 15.3536 82.5667 17.323 81.7376 22.3019C80.6555 28.6559 81.3638 32.2807 84.7147 37.4606C86.094 39.6079 87.5954 43.0668 87.9882 44.9626L88.2372 46.1987L86.9536 44.9128C84.868 42.8132 80.6656 37.0618 79.8976 35.2296C78.1282 31.105 77.5508 24.7935 78.2164 16.0121C78.7959 8.57299 78.8827 8.45475 80.7098 12.0925ZM90.8176 12.293C95.3796 14.7158 97.4319 21.547 96.1536 30.0542C95.3483 35.5647 94.471 38.2563 92.1778 42.3895C89.9273 46.484 88.9374 47.5788 88.9917 45.9493C89.0514 44.1569 87.6823 40.4595 85.6014 36.9728C82.7777 32.1446 81.9249 29.125 82.3808 25.3931C83.3666 16.9534 83.3789 16.5868 82.8259 14.52C82.5315 13.4042 82.313 12.496 82.3558 12.4573C82.3971 12.4593 83.1116 12.1672 83.9101 11.8384C85.9693 10.999 88.6994 11.1711 90.8176 12.293ZM109.034 15.4542C110.689 16.7986 111.527 17.7774 112.666 19.6683L113.45 21.0118L112.131 24.539C110.489 29.0299 109.44 30.6524 107.017 32.4536C105.955 33.2186 102.736 36.532 99.8919 39.7819C95.6678 44.6383 94.3841 45.8415 92.787 46.4991C91.6947 46.9362 90.6878 47.2958 90.5223 47.2878C90.3554 47.3206 90.7964 46.5258 91.5325 45.5819C95.0477 40.8546 96.7622 35.4286 97.3593 27.46C97.9971 18.2691 99.7441 14.3545 103.453 13.7576C105.619 13.4537 107.097 13.892 109.034 15.4542ZM118.579 20.1159C119.796 20.9089 120.863 22.47 120.831 23.4477C120.824 23.6514 119.434 25.5431 117.747 27.6653C116.1 29.8302 113.97 32.788 113.089 34.337C110.934 38.0688 108.673 40.0002 105.106 41.2976C103.469 41.9125 100.948 42.9337 99.476 43.5566L96.8239 44.7755L98.2894 43.0915C99.1069 42.1923 101.175 39.8436 102.855 37.9251C104.537 35.9658 106.895 33.631 108.128 32.711C110.469 30.8651 112.047 28.2888 113.566 23.7511C115.135 18.971 115.9 18.3958 118.579 20.1159ZM37.9508 47.5748C37.8883 49.4487 39.0119 53.0526 40.4203 55.5685C43.3947 60.8528 43.7699 63.2782 43.0988 72.2226L42.5893 78.8082L40.7697 76.1909C38.0361 72.3871 37.34 70.8847 36.7023 67.6306C36.3841 65.9832 35.4553 62.7559 34.6622 60.4328C32.8521 55.0413 32.6804 53.9722 33.3026 51.4723C33.6852 49.9402 34.2545 49.0291 35.494 47.9054C37.4602 46.1231 38.0023 46.0267 37.9508 47.5748ZM33.114 47.1789C33.7585 47.7404 33.7558 47.8218 32.9125 49.495C31.5372 52.2035 31.6763 54.2503 33.7273 61.1223C34.7748 64.5185 35.8474 68.4056 36.1778 69.6864C36.6867 71.8326 38.3313 74.7271 41.1876 78.5776C42.1802 79.8902 42.2908 80.3035 41.9949 81.7174C41.7995 82.6057 41.5268 83.327 41.4026 83.3211C41.2371 83.3131 40.602 82.4665 40.0152 81.4182C39.3856 80.4086 37.9554 78.5445 36.8359 77.3074C35.1147 75.4701 34.6092 74.4665 33.8643 71.9417C32.5304 67.1852 31.5514 65.4651 27.1726 60.0317C21.5583 53.1108 20.4972 50.122 23.1853 49.068C23.7742 48.8107 25.1054 48.6707 26.1814 48.7224C27.7541 48.7981 28.2575 48.6183 29.202 47.6436C30.4042 46.3957 31.9436 46.225 33.114 47.1789ZM50.9121 56.6852C56.3785 65.5575 57.4063 68.3 59.2788 79.2845C60.7002 87.6358 62.2118 92.0337 65.8904 98.5759C66.4372 99.5815 66.4969 100.278 66.2398 101.775C66.039 102.827 65.7622 103.67 65.5966 103.662C65.4311 103.654 65.0111 102.573 64.682 101.252C64.3516 99.9708 62.8075 96.5507 61.2457 93.6601C57.4605 86.5824 56.453 83.2289 54.8912 72.8714C53.8458 65.6806 52.1143 60.4153 48.6053 53.7588C47.0049 50.7848 48.1989 52.2704 50.9121 56.6852ZM21.8087 54.3061C22.5835 55.9347 24.5273 58.558 27.56 62.0905C28.7982 63.4966 30.2243 65.4829 30.8112 66.5312C31.7088 68.2065 33.5203 73.5572 33.2224 73.7877C33.1797 73.8265 32.1294 73.0007 30.9218 71.9225C28.0234 69.335 25.9052 68.213 20.5352 66.4042C14.2227 64.2645 12.3882 64.5843 11.1941 68.0767L10.6004 69.7211L9.62408 67.9196L8.60639 66.1161L9.74758 64.2124C10.5787 62.9059 10.9492 61.7404 10.9939 60.3961C11.0754 57.9518 11.7708 55.7411 12.762 54.6055C13.7519 53.5106 16.3878 52.7805 18.9965 52.8652C21.0244 52.9627 21.1872 53.0522 21.8087 54.3061ZM10.0068 61.4095C9.81951 62.0533 9.19803 63.2883 8.54738 64.1547C7.50389 65.6142 7.45708 65.7752 8.04123 66.905C9.67496 70.1254 9.68582 69.7995 7.98015 71.2272C6.27312 72.6956 6.03091 73.7448 6.90951 75.9904C7.40411 77.3199 7.24398 79.638 6.66457 79.6101C6.12655 79.5842 3.80621 77.0653 3.82521 76.4949C3.83471 76.2098 4.16241 75.0831 4.61292 74.003C5.29478 72.1997 5.30292 71.9553 4.66721 69.8845C4.03285 67.7731 4.03828 67.6101 4.80428 65.77C5.48207 64.0889 9.17837 60.1456 10.0061 60.1854C10.1716 60.1933 10.154 60.7229 10.0068 61.4095ZM70.8616 72.5378C72.0245 74.9603 73.988 78.2374 75.218 79.8879C78.7162 84.3812 82.5244 90.7665 82.4836 91.9886C82.4633 92.5997 77.9515 88.6696 75.0294 85.5504C71.4281 81.6641 70.097 79.3151 68.9979 74.978C68.1586 71.5509 66.4801 67.1859 65.6741 66.4943C65.3512 66.2339 65.1164 65.8146 65.1232 65.6109C65.13 65.4072 65.9428 65.8951 66.953 66.6782C68.4477 67.8518 69.1987 68.9488 70.8616 72.5378ZM59.0448 70.1333C58.9152 70.2903 59.4471 71.744 60.3047 73.3766C62.3665 77.4336 62.9249 79.3374 63.5043 84.3433C63.7981 86.724 64.5009 90.5116 65.0885 92.7841C65.6346 95.0545 66.0688 96.9523 65.9834 97.0298C65.8124 97.1848 62.7871 89.6948 61.8834 86.9583C61.5076 85.7977 60.762 82.0488 60.1724 78.593C59.6228 75.1799 58.941 72.0053 58.7076 71.5452C58.2049 70.4602 58.2252 69.8491 58.846 69.8789C59.0943 69.8909 59.2144 70.0191 59.0448 70.1333ZM82.1919 83.3243C85.9499 88.7279 86.1433 89.1452 86.3536 92.7868L86.5029 95.7726L85.1337 94.5642C84.3691 93.8746 83.7341 93.028 83.7449 92.7021C83.6859 90.7407 80.3954 84.9924 75.9474 79.1477C73.8448 76.3128 72.0055 73.0417 71.2551 70.6798C70.9193 69.562 79.5799 79.608 82.1919 83.3243ZM26.7437 80.3718C27.8503 80.7515 30.0967 81.7572 31.725 82.6516C33.3547 83.5052 34.8643 84.2307 35.0712 84.2406C35.3195 84.2526 35.4796 84.4235 35.4715 84.6679C35.4647 84.8716 35.2924 85.0673 35.0854 85.0574C34.9199 85.0494 32.9327 86.2187 30.769 87.706C26.3604 90.6358 24.1357 91.4672 20.9489 91.314C18.383 91.1906 13.2517 89.6789 10.9321 88.384C9.30376 87.4896 4.8483 83.1134 4.87002 82.4616C4.8863 81.9728 7.533 80.9168 10.9633 79.9801C13.3895 79.3215 14.8021 79.2263 19.3145 79.4025C22.9152 79.5757 25.3916 79.8988 26.7437 80.3718ZM109.989 93.8012C110.979 97.6842 111.087 100.668 110.241 102.423C109.931 103.02 108.963 104.687 108.087 106.114C107.169 107.539 105.875 110.292 105.228 112.301C104.582 114.269 103.464 116.704 102.768 117.691C101.12 119.897 97.8589 123.208 98.2226 122.246C98.3603 121.845 98.8176 120.561 99.188 119.396C99.5999 118.232 100.89 115.601 102.119 113.539C106.514 106.038 106.467 106.199 107.265 99.6682C107.665 96.3824 108.009 92.2778 108.023 90.6056C107.997 87.6665 107.999 87.585 108.535 88.9165C108.842 89.6657 109.474 91.8586 109.989 93.8012ZM106.467 97.508C106.049 101.323 105.509 105.092 105.192 105.893C104.917 106.696 103.507 109.199 102.063 111.496C99.7403 115.26 96.8154 122.179 96.7543 124.012C96.7421 124.378 96.5203 124.817 96.2679 124.927C95.4639 125.419 96.5508 120.166 97.8983 117.049C99.1066 114.373 99.2111 113.725 99.0883 111.189C98.5965 102.311 98.4384 103.324 100.42 99.8286C102.139 96.7694 106.532 90.5746 106.988 90.5558C107.113 90.5618 106.884 93.6926 106.467 97.508ZM47.9185 104.24C49.0665 104.622 52.8638 106.355 56.4115 108.117C59.9606 109.838 63.2654 111.425 63.8407 111.575C65.811 112.159 64.7186 112.597 61.656 112.449C58.1382 112.28 49.8216 110.574 47.0385 109.502C44.421 108.438 36.9226 104.568 36.8921 104.24C36.886 103.179 44.8458 103.154 47.9185 104.24ZM39.4981 106.895C44.0105 109.56 48.0616 111.143 53.0009 112.196C59.2163 113.515 62.0665 113.816 64.3604 113.395C65.6115 113.17 67.1041 113.16 68.0092 113.367L69.5296 113.766L67.7738 114.212C63.3861 115.266 54.4718 115.327 48.7876 114.238C45.9028 113.732 31.8158 109.79 27.0998 108.257C25.0922 107.549 24.9443 107.011 26.8067 107.101C27.3875 107.088 29.4772 106.576 31.4481 105.896C33.419 105.216 35.1776 104.688 35.3859 104.657C35.5928 104.667 37.4668 105.655 39.4981 106.895ZM68.5641 124.084C71.6593 125.743 76.9791 131.548 80.2818 136.929C81.7772 139.327 82.9122 141.34 82.8267 141.418C82.3152 141.842 76.4092 136.213 72.8615 131.962C70.5093 129.156 67.4698 125.827 66.0619 124.535C63.5265 122.25 63.5279 122.21 64.8855 122.52C65.6664 122.721 67.3429 123.413 68.5641 124.084ZM72.0548 132.535C75.7531 137.242 78.3686 139.612 82.7555 142.312C86.4938 144.573 86.1987 144.722 81.7873 142.755C77.1317 140.654 71.7427 136.927 69.4732 134.124C67.7588 132.083 65.4445 128.137 65.0782 126.691C64.9689 126.237 64.745 125.492 64.553 125.034C63.9838 123.456 68.3565 127.828 72.0548 132.535ZM71.4964 145.565C72.0344 145.591 72.3187 145.768 72.1864 146.006C72.0554 146.204 71.4692 146.38 70.8898 146.352C69.193 146.27 65.3352 147.594 62.5881 149.176C57.5159 152.115 54.6799 152.631 49.6993 151.576L48.1348 151.256L51.2102 149.771C55.509 147.652 61.8825 145.47 64.3379 145.18C65.4607 145.071 67.3672 145.081 68.4806 145.257C69.6367 145.394 70.9583 145.539 71.4964 145.565ZM74.6519 149.144C68.6196 154.771 65.3786 156.247 60.6354 155.529C58.2018 155.167 53.4858 153.635 53.4994 153.227C53.5048 153.064 54.5049 152.908 55.7492 152.887C57.5756 152.811 58.7907 152.421 61.9999 150.657C67.3591 147.814 70.9163 146.802 76.5998 146.667C77.0564 146.648 76.2788 147.59 74.6519 149.144Z" fill="#B3C4A9" fill-opacity="0.8"/>
<path d="M89.1194 4.78519C85.7373 5.52019 82.6726 6.67849 80.8482 7.93724C79.6609 8.737 79.4099 8.80653 79.2206 8.26699C79.1086 7.89438 78.7457 7.5913 78.456 7.57736C77.3385 7.52362 76.5291 23.1123 77.3629 29.1912C78.1926 35.3924 79.9491 38.6595 85.9522 45.1095L88.9516 48.3956L88.1911 52.5617C86.2065 63.6055 85.4832 72.8738 85.8224 82.6013L85.9974 87.302L85.1745 85.8751C82.6255 81.509 75.5274 73.0886 70.6194 68.6091C68.3269 66.4994 62.7873 62.3159 62.2492 62.29C61.5871 62.2582 61.9229 63.376 62.8849 64.3608C64.689 66.2021 66.1667 69.1294 67.6993 74.1402C68.563 76.834 69.7028 79.949 70.2455 81.0768C71.5699 83.6295 75.8544 88.1607 81.0202 92.367C86.4262 96.8298 86.8665 97.2998 86.8217 98.6441C86.8 99.2959 87.3401 102.994 87.9975 106.902C88.6149 110.767 89.6339 117.508 90.1522 121.858C90.7133 126.169 91.2411 130.234 91.3849 130.894C91.5647 131.719 91.003 131.161 89.5436 128.928C86.937 125.049 76.1799 113.229 70.546 108.144C67.5289 105.387 66.4094 104.15 66.6313 103.712C67.5187 101.959 67.3776 98.729 66.1177 92.9968C65.4386 89.7407 64.7052 85.6251 64.5166 83.8207C64.2866 82.0143 63.8327 79.4627 63.4195 78.1779C62.6373 75.5289 56.5956 64.0175 52.7419 57.7525C50.2649 53.7162 46.19 49.1135 45.8718 49.9551C45.7382 50.2343 46.3515 51.7327 47.2118 53.2838C51.1557 60.5732 52.6259 64.969 53.8844 73.231C55.0113 80.4665 54.974 80.3423 56.2386 84.6875C56.8343 86.7155 58.1369 89.9199 59.1119 91.7622C61.8834 96.9142 64.2729 102.334 63.8923 102.56C63.6813 102.672 63.4357 102.579 63.317 102.41C63.1996 102.2 61.342 100.724 59.156 99.1496C56.9699 97.5756 53.5776 94.8826 51.5626 93.1536C49.5876 91.4673 46.7611 89.2096 45.3038 88.1602C43.8478 87.0701 41.9474 85.6322 41.0586 84.9366C39.6868 83.8098 39.2356 83.6657 38.1487 83.9398C37.0632 84.1732 36.2022 83.887 32.126 81.814C29.518 80.4645 26.412 79.1318 25.2599 78.8724C20.4476 77.7432 12.3542 78.0476 9.11315 79.5239L7.80846 80.114L8.14566 78.7021C8.34378 77.7323 8.2549 76.6672 7.83494 75.5861C7.1151 73.5521 7.38513 72.9123 9.76248 71.2313C10.6974 70.5418 11.7327 69.3267 12.1792 68.3689C13.0761 66.3311 13.4581 66.0638 15.3619 66.1554C17.1829 66.243 23.4967 68.342 26.2261 69.779C29.2426 71.3113 36.1188 77.6809 38.7322 81.3565C40.0009 83.0904 41.1964 84.5352 41.3619 84.5432C42.9346 84.6188 44.164 77.5782 44.2774 67.9542L44.3276 61.4689L41.9286 56.3347C39.3721 50.9482 38.7364 48.8774 38.8206 46.3517C38.883 44.4778 38.3463 44.4111 36.2214 45.9819L34.648 47.1711L33.2694 46.2479C31.4049 44.975 30.74 45.0246 28.822 46.6053C27.4169 47.721 26.8294 47.9375 25.2567 47.8619C22.608 47.7345 20.9131 48.8363 20.8494 50.7509L20.8032 52.136L18.4028 52.0206C14.2228 51.8195 11.0469 53.8293 10.3976 57.144C10.1486 58.3969 9.54203 59.1838 7.41028 60.9582C4.2527 63.6625 3.10337 65.8106 3.46905 68.5212C3.76417 70.8612 3.68953 73.1018 3.23291 75.6096C2.87807 77.5511 2.91402 77.716 4.16307 78.7962C4.84628 79.4411 5.61634 79.9677 5.82327 79.9777C6.73377 80.0215 6.04852 80.6822 4.70787 81.1073C3.91203 81.3547 3.23628 81.7302 3.22949 81.9339C3.20099 82.7894 9.10022 88.6223 10.9341 89.5674C13.9919 91.1018 17.3212 91.9556 20.9218 92.1287C24.9363 92.3218 26.8658 91.6394 31.6178 88.3588C34.886 86.0679 37.5808 84.8102 38.9479 84.8351C39.3618 84.855 40.5389 85.6053 41.5851 86.5533C42.5913 87.4585 44.2474 88.7623 45.2617 89.4231C46.276 90.0839 49.1025 92.3416 51.5205 94.4165C53.98 96.4933 57.778 99.4506 60.0054 101.027C64.0572 103.833 71.3167 109.894 73.0325 111.895L73.9505 112.959L72.5766 113.138C70.2868 113.436 67.3809 112.317 56.1612 106.921C44.0859 101.077 43.0926 101.029 29.8089 105.328C28.3 105.826 26.0462 106.289 24.7991 106.392C22.3051 106.599 21.9699 106.705 22.5317 107.262C23.1335 107.863 29.1535 110.07 33.7535 111.352C36.1349 112.038 39.5428 113.018 41.3503 113.513C51.781 116.463 62.9207 116.794 71.5827 114.355L74.5123 113.516L80.2378 119.586C85.9647 125.615 90.3767 131.294 91.8035 134.505C92.2289 135.423 92.9447 137.579 93.3857 139.273C93.8267 140.967 94.7664 143.869 95.493 145.699C96.9021 149.439 96.9422 149.482 96.2576 148.878C95.9747 148.66 94.5492 147.898 93.1611 147.26C91.7329 146.579 89.2491 145.236 87.6235 144.26C85.065 142.668 84.5446 142.112 82.9747 139.466C76.4696 128.177 69.7589 121.816 63.9648 121.537C62.5991 121.471 62.3881 121.584 62.6174 122.166C62.7694 122.581 63.2958 124.198 63.7823 125.772C65.4696 131.116 68.4006 135.215 73.333 138.962C76.1208 141.136 81.1299 143.825 83.514 144.429L85.0758 144.831L84.0222 145.351C82.3783 146.17 76.3318 146.002 72.9225 145.062C69.2662 144.07 65.4587 143.887 62.2876 144.51C59.7827 145.042 45.7452 150.814 45.6862 151.342C45.6807 151.505 46.7459 151.882 48.0622 152.19C49.337 152.497 51.5888 153.339 53.057 154.063C56.4832 155.737 58.7018 156.334 62.3425 156.55C66.4397 156.747 68.7553 155.675 74.0942 150.954C78.0239 147.47 78.5314 147.168 80.4433 147.015C81.6075 146.908 83.362 146.503 84.3689 146.143C85.3757 145.784 86.5054 145.471 86.8778 145.489C87.249 145.547 89.6996 146.645 92.3503 147.955L97.1633 150.309L99.5332 155.074C103.494 163.099 109.779 173.52 110.731 173.566C111.435 173.6 111.396 173.516 108.715 169.389C102.803 160.209 97.0283 148.14 94.571 139.779C93.2304 135.226 93.1252 134.65 93.6904 133.861C94.0377 133.388 95.067 131.112 95.9293 128.868C97.3785 125.184 97.8609 124.391 100.174 122.136C103.518 118.829 104.743 116.888 106.076 112.954C106.631 111.226 108.102 108.155 109.29 106.09C111.924 101.688 112.309 100.074 111.649 96.2475C111.088 93.1604 109.13 87.2314 108.222 85.882C107.548 84.9519 107.416 85.1903 106.872 87.8164C106.674 88.7862 105.358 90.967 103.406 93.5661C97.6799 101.207 97.1785 102.57 97.9668 108.769C98.4919 112.915 98.4906 112.956 97.5014 115.275C95.5711 119.711 95.0439 121.848 95.1891 124.957C95.2773 127.287 95.1165 128.38 94.4401 130.021C93.9455 131.18 93.4495 132.381 93.3145 132.701C93.2209 133.022 93.0085 133.175 92.9298 133.049C92.6482 132.791 91.5322 125.229 91.058 120.8C90.8734 118.873 90.1631 114.065 89.5484 110.119C87.9968 100.7 87.703 98.3193 87.2756 91.2398C86.37 77.364 86.908 64.9449 88.9659 54.1903C89.3261 52.0859 89.7719 49.904 89.8309 49.3764C89.9822 48.5676 90.4483 48.2636 92.1228 47.7729C93.2938 47.4619 96.026 46.3285 98.1733 45.3301C100.363 44.2929 103.391 43.0104 104.982 42.5157C108.715 41.2263 111.401 38.9889 113.767 35.1448C114.82 33.4002 116.995 30.3221 118.597 28.2774C121.8 24.2287 121.935 23.9088 121.495 22.1739C121.205 20.9359 118.468 18.4785 117.309 18.4227C116.895 18.4028 115.781 17.0027 114.681 15.1953C111.22 9.56124 106.61 6.11604 103.03 6.55592C100.325 6.87465 99.4185 6.70864 96.9733 5.44855C94.3653 4.09903 92.8354 3.98464 89.1194 4.78519ZM97.2223 6.68462C99.179 7.6764 99.7557 7.78574 102.247 7.66075C104.737 7.57649 105.272 7.68384 107.063 8.66766C109.26 9.9158 112.065 12.8253 114.034 15.9394C115.174 17.7896 115.248 18.0788 114.72 18.9918L114.149 19.9437L113.36 18.7632C112.925 18.1302 111.729 16.6854 110.687 15.6152C107.561 12.4047 104.142 11.7506 100.802 13.7117C99.2366 14.6565 98.6674 15.5676 97.7766 18.6666L97.2189 20.4759L96.5845 18.3644C95.7636 15.6319 93.4181 12.6221 91.2627 11.376C89.0644 10.1685 85.879 9.97454 83.5275 10.8815L81.7635 11.5719L81.011 10.5157C80.1385 9.33122 80.3109 9.13549 83.847 7.51023C89.0658 5.14984 93.7601 4.84518 97.2223 6.68462ZM80.7098 12.0925C82.3422 15.3536 82.5667 17.323 81.7376 22.3019C80.6555 28.6559 81.3638 32.2807 84.7147 37.4606C86.094 39.6079 87.5954 43.0668 87.9882 44.9626L88.2372 46.1987L86.9536 44.9128C84.868 42.8132 80.6656 37.0618 79.8976 35.2296C78.1282 31.105 77.5508 24.7935 78.2164 16.0121C78.7959 8.57299 78.8827 8.45475 80.7098 12.0925ZM90.8176 12.293C95.3796 14.7158 97.4319 21.547 96.1536 30.0542C95.3483 35.5647 94.471 38.2563 92.1778 42.3895C89.9273 46.484 88.9374 47.5788 88.9917 45.9493C89.0514 44.1569 87.6823 40.4595 85.6014 36.9728C82.7777 32.1446 81.9249 29.125 82.3808 25.3931C83.3666 16.9534 83.3789 16.5868 82.8259 14.52C82.5315 13.4042 82.313 12.496 82.3558 12.4573C82.3971 12.4593 83.1116 12.1672 83.9101 11.8384C85.9693 10.999 88.6994 11.1711 90.8176 12.293ZM109.034 15.4542C110.689 16.7986 111.527 17.7774 112.666 19.6683L113.45 21.0118L112.131 24.539C110.489 29.0299 109.44 30.6524 107.017 32.4536C105.955 33.2186 102.736 36.532 99.8919 39.7819C95.6678 44.6383 94.3841 45.8415 92.787 46.4991C91.6947 46.9362 90.6878 47.2958 90.5223 47.2878C90.3554 47.3206 90.7964 46.5258 91.5325 45.5819C95.0477 40.8546 96.7622 35.4286 97.3593 27.46C97.9971 18.2691 99.7441 14.3545 103.453 13.7576C105.619 13.4537 107.097 13.892 109.034 15.4542ZM118.579 20.1159C119.796 20.9089 120.863 22.47 120.831 23.4477C120.824 23.6514 119.434 25.5431 117.747 27.6653C116.1 29.8302 113.97 32.788 113.089 34.337C110.934 38.0688 108.673 40.0002 105.106 41.2976C103.469 41.9125 100.948 42.9337 99.476 43.5566L96.8239 44.7755L98.2894 43.0915C99.1069 42.1923 101.175 39.8436 102.855 37.9251C104.537 35.9658 106.895 33.631 108.128 32.711C110.469 30.8651 112.047 28.2888 113.566 23.7511C115.135 18.971 115.9 18.3958 118.579 20.1159ZM37.9508 47.5748C37.8883 49.4487 39.0119 53.0526 40.4203 55.5685C43.3947 60.8528 43.7699 63.2782 43.0988 72.2226L42.5893 78.8082L40.7697 76.1909C38.0361 72.3871 37.34 70.8847 36.7023 67.6306C36.3841 65.9832 35.4553 62.7559 34.6622 60.4328C32.8521 55.0413 32.6804 53.9722 33.3026 51.4723C33.6852 49.9402 34.2545 49.0291 35.494 47.9054C37.4602 46.1231 38.0023 46.0267 37.9508 47.5748ZM33.114 47.1789C33.7585 47.7404 33.7558 47.8218 32.9125 49.495C31.5372 52.2035 31.6763 54.2503 33.7273 61.1223C34.7748 64.5185 35.8474 68.4056 36.1778 69.6864C36.6867 71.8326 38.3313 74.7271 41.1876 78.5776C42.1802 79.8902 42.2908 80.3035 41.9949 81.7174C41.7995 82.6057 41.5268 83.327 41.4026 83.3211C41.2371 83.3131 40.602 82.4665 40.0152 81.4182C39.3856 80.4086 37.9554 78.5445 36.8359 77.3074C35.1147 75.4701 34.6092 74.4665 33.8643 71.9417C32.5304 67.1852 31.5514 65.4651 27.1726 60.0317C21.5583 53.1108 20.4972 50.122 23.1853 49.068C23.7742 48.8107 25.1054 48.6707 26.1814 48.7224C27.7541 48.7981 28.2575 48.6183 29.202 47.6436C30.4042 46.3957 31.9436 46.225 33.114 47.1789ZM50.9121 56.6852C56.3785 65.5575 57.4063 68.3 59.2788 79.2845C60.7002 87.6358 62.2118 92.0337 65.8904 98.5759C66.4372 99.5815 66.4969 100.278 66.2398 101.775C66.039 102.827 65.7622 103.67 65.5966 103.662C65.4311 103.654 65.0111 102.573 64.682 101.252C64.3516 99.9708 62.8075 96.5507 61.2457 93.6601C57.4605 86.5824 56.453 83.2289 54.8912 72.8714C53.8458 65.6806 52.1143 60.4153 48.6053 53.7588C47.0049 50.7848 48.1989 52.2704 50.9121 56.6852ZM21.8087 54.3061C22.5835 55.9347 24.5273 58.558 27.56 62.0905C28.7982 63.4966 30.2243 65.4829 30.8112 66.5312C31.7088 68.2065 33.5203 73.5572 33.2224 73.7877C33.1797 73.8265 32.1294 73.0007 30.9218 71.9225C28.0234 69.335 25.9052 68.213 20.5352 66.4042C14.2227 64.2645 12.3882 64.5843 11.1941 68.0767L10.6004 69.7211L9.62408 67.9196L8.60639 66.1161L9.74758 64.2124C10.5787 62.9059 10.9492 61.7404 10.9939 60.3961C11.0754 57.9518 11.7708 55.7411 12.762 54.6055C13.7519 53.5106 16.3878 52.7805 18.9965 52.8652C21.0244 52.9627 21.1872 53.0522 21.8087 54.3061ZM10.0068 61.4095C9.81951 62.0533 9.19803 63.2883 8.54738 64.1547C7.50389 65.6142 7.45708 65.7752 8.04123 66.905C9.67496 70.1254 9.68582 69.7995 7.98015 71.2272C6.27312 72.6956 6.03091 73.7448 6.90951 75.9904C7.40411 77.3199 7.24398 79.638 6.66457 79.6101C6.12655 79.5842 3.80621 77.0653 3.82521 76.4949C3.83471 76.2098 4.16241 75.0831 4.61292 74.003C5.29478 72.1997 5.30292 71.9553 4.66721 69.8845C4.03285 67.7731 4.03828 67.6101 4.80428 65.77C5.48207 64.0889 9.17837 60.1456 10.0061 60.1854C10.1716 60.1933 10.154 60.7229 10.0068 61.4095ZM70.8616 72.5378C72.0245 74.9603 73.988 78.2374 75.218 79.8879C78.7162 84.3812 82.5244 90.7665 82.4836 91.9886C82.4633 92.5997 77.9515 88.6696 75.0294 85.5504C71.4281 81.6641 70.097 79.3151 68.9979 74.978C68.1586 71.5509 66.4801 67.1859 65.6741 66.4943C65.3512 66.2339 65.1164 65.8146 65.1232 65.6109C65.13 65.4072 65.9428 65.8951 66.953 66.6782C68.4477 67.8518 69.1987 68.9488 70.8616 72.5378ZM59.0448 70.1333C58.9152 70.2903 59.4471 71.744 60.3047 73.3766C62.3665 77.4336 62.9249 79.3374 63.5043 84.3433C63.7981 86.724 64.5009 90.5116 65.0885 92.7841C65.6346 95.0545 66.0688 96.9523 65.9834 97.0298C65.8124 97.1848 62.7871 89.6948 61.8834 86.9583C61.5076 85.7977 60.762 82.0488 60.1724 78.593C59.6228 75.1799 58.941 72.0053 58.7076 71.5452C58.2049 70.4602 58.2252 69.8491 58.846 69.8789C59.0943 69.8909 59.2144 70.0191 59.0448 70.1333ZM82.1919 83.3243C85.9499 88.7279 86.1433 89.1452 86.3536 92.7868L86.5029 95.7726L85.1337 94.5642C84.3691 93.8746 83.7341 93.028 83.7449 92.7021C83.6859 90.7407 80.3954 84.9924 75.9474 79.1477C73.8448 76.3128 72.0055 73.0417 71.2551 70.6798C70.9193 69.562 79.5799 79.608 82.1919 83.3243ZM26.7437 80.3718C27.8503 80.7515 30.0967 81.7572 31.725 82.6516C33.3547 83.5052 34.8643 84.2307 35.0712 84.2406C35.3195 84.2526 35.4796 84.4235 35.4715 84.6679C35.4647 84.8716 35.2924 85.0673 35.0854 85.0574C34.9199 85.0494 32.9327 86.2187 30.769 87.706C26.3604 90.6358 24.1357 91.4672 20.9489 91.314C18.383 91.1906 13.2517 89.6789 10.9321 88.384C9.30376 87.4896 4.8483 83.1134 4.87002 82.4616C4.8863 81.9728 7.533 80.9168 10.9633 79.9801C13.3895 79.3215 14.8021 79.2263 19.3145 79.4025C22.9152 79.5757 25.3916 79.8988 26.7437 80.3718ZM109.989 93.8012C110.979 97.6842 111.087 100.668 110.241 102.423C109.931 103.02 108.963 104.687 108.087 106.114C107.169 107.539 105.875 110.292 105.228 112.301C104.582 114.269 103.464 116.704 102.768 117.691C101.12 119.897 97.8589 123.208 98.2226 122.246C98.3603 121.845 98.8176 120.561 99.188 119.396C99.5999 118.232 100.89 115.601 102.119 113.539C106.514 106.038 106.467 106.199 107.265 99.6682C107.665 96.3824 108.009 92.2778 108.023 90.6056C107.997 87.6665 107.999 87.585 108.535 88.9165C108.842 89.6657 109.474 91.8586 109.989 93.8012ZM106.467 97.508C106.049 101.323 105.509 105.092 105.192 105.893C104.917 106.696 103.507 109.199 102.063 111.496C99.7403 115.26 96.8154 122.179 96.7543 124.012C96.7421 124.378 96.5203 124.817 96.2679 124.927C95.4639 125.419 96.5508 120.166 97.8983 117.049C99.1066 114.373 99.2111 113.725 99.0883 111.189C98.5965 102.311 98.4384 103.324 100.42 99.8286C102.139 96.7694 106.532 90.5746 106.988 90.5558C107.113 90.5618 106.884 93.6926 106.467 97.508ZM47.9185 104.24C49.0665 104.622 52.8638 106.355 56.4115 108.117C59.9606 109.838 63.2654 111.425 63.8407 111.575C65.811 112.159 64.7186 112.597 61.656 112.449C58.1382 112.28 49.8216 110.574 47.0385 109.502C44.421 108.438 36.9226 104.568 36.8921 104.24C36.886 103.179 44.8458 103.154 47.9185 104.24ZM39.4981 106.895C44.0105 109.56 48.0616 111.143 53.0009 112.196C59.2163 113.515 62.0665 113.816 64.3604 113.395C65.6115 113.17 67.1041 113.16 68.0092 113.367L69.5296 113.766L67.7738 114.212C63.3861 115.266 54.4718 115.327 48.7876 114.238C45.9028 113.732 31.8158 109.79 27.0998 108.257C25.0922 107.549 24.9443 107.011 26.8067 107.101C27.3875 107.088 29.4772 106.576 31.4481 105.896C33.419 105.216 35.1776 104.688 35.3859 104.657C35.5928 104.667 37.4668 105.655 39.4981 106.895ZM68.5641 124.084C71.6593 125.743 76.9791 131.548 80.2818 136.929C81.7772 139.327 82.9122 141.34 82.8267 141.418C82.3152 141.842 76.4092 136.213 72.8615 131.962C70.5093 129.156 67.4698 125.827 66.0619 124.535C63.5265 122.25 63.5279 122.21 64.8855 122.52C65.6664 122.721 67.3429 123.413 68.5641 124.084ZM72.0548 132.535C75.7531 137.242 78.3686 139.612 82.7555 142.312C86.4938 144.573 86.1987 144.722 81.7873 142.755C77.1317 140.654 71.7427 136.927 69.4732 134.124C67.7588 132.083 65.4445 128.137 65.0782 126.691C64.9689 126.237 64.745 125.492 64.553 125.034C63.9838 123.456 68.3565 127.828 72.0548 132.535ZM71.4964 145.565C72.0344 145.591 72.3187 145.768 72.1864 146.006C72.0554 146.204 71.4692 146.38 70.8898 146.352C69.193 146.27 65.3352 147.594 62.5881 149.176C57.5159 152.115 54.6799 152.631 49.6993 151.576L48.1348 151.256L51.2102 149.771C55.509 147.652 61.8825 145.47 64.3379 145.18C65.4607 145.071 67.3672 145.081 68.4806 145.257C69.6367 145.394 70.9583 145.539 71.4964 145.565ZM74.6519 149.144C68.6196 154.771 65.3786 156.247 60.6354 155.529C58.2018 155.167 53.4858 153.635 53.4994 153.227C53.5048 153.064 54.5049 152.908 55.7492 152.887C57.5756 152.811 58.7907 152.421 61.9999 150.657C67.3591 147.814 70.9163 146.802 76.5998 146.667C77.0564 146.648 76.2788 147.59 74.6519 149.144Z" stroke="#B3C4A9" stroke-opacity="0.8" stroke-width="0.4" mask="url(#path-1-outside-1_129_5831)"/>
</svg>
