<svg width="53" height="268" viewBox="0 0 53 268" fill="none" xmlns="http://www.w3.org/2000/svg">
<path d="M35.0004 267.137C35.2481 266.642 35.6195 266.394 35.9291 266.58C36.8578 267.137 38.9629 265.589 38.9629 264.351C38.9629 262.865 38.4676 262.803 36.7959 264.165C35.5576 265.094 35.5576 265.094 37.0436 264.784C37.8485 264.599 38.2819 264.661 37.9723 264.908C36.734 266.023 34.1955 266.147 32.8334 265.156C31.5951 264.351 31.4713 263.856 31.7808 261.689C32.0904 260.017 31.8428 258.345 31.1617 256.488C30.1092 253.887 30.1711 253.702 31.4094 251.473C32.0904 250.235 32.9572 247.634 33.2668 245.777C33.6383 243.919 34.6289 240.762 35.4957 238.78C36.3625 236.799 37.1055 234.818 37.1055 234.323C37.1055 233.889 37.3531 233.332 37.7246 233.084C38.5914 232.527 39.7678 237.48 39.0248 238.842C38.7153 239.461 37.8485 242.124 37.1674 244.724C36.0529 249.12 35.991 249.739 36.8578 252.587C37.3531 254.321 38.2199 255.931 38.6533 256.116C39.1487 256.302 39.4582 256.674 39.2725 256.921C39.0867 257.231 39.2725 257.664 39.644 257.912C40.1393 258.222 40.2012 258.098 39.8916 257.54C39.5201 256.921 39.644 256.797 40.3869 257.107C41.0061 257.293 41.4395 257.231 41.4395 256.921C41.4395 256.55 41.068 256.302 40.5727 256.302C37.9723 256.302 36.8578 250.235 38.7153 246.705C39.2725 245.715 39.7678 243.61 39.8297 242.124C39.9535 240.514 40.325 239.214 40.7584 239.09C41.8729 238.718 41.3157 243.981 39.8916 247.634C38.7772 250.42 38.9629 255.064 40.2012 255.064C40.4489 255.064 40.3869 254.073 40.0774 252.897C39.4582 251.101 39.644 250.235 41.068 246.953C42.3682 244.167 42.6778 242.681 42.3682 241.257C41.6871 237.975 41.8729 235.685 43.0493 232.899L44.2256 230.298L44.2876 233.641C44.2876 237.233 45.7116 240.204 47.3833 240.204C48.1262 240.204 48.312 239.833 48.0643 238.842C47.4452 236.118 45.9592 232.775 45.6497 233.146C45.402 233.332 45.6497 234.446 46.145 235.685C47.2594 238.285 46.9499 239.895 45.7735 237.728C45.2163 236.737 45.0305 234.818 45.1544 232.465C45.7735 222.868 45.4639 218.906 43.978 215.934L42.5539 212.962L43.7922 209.743C44.5352 207.947 45.2163 205.966 45.402 205.347C45.8973 203.675 46.888 204.604 47.3833 207.204C47.6309 208.442 48.3739 210.424 49.055 211.6C49.9837 213.148 50.2932 214.881 50.3552 218.411C50.4171 222.435 50.6028 223.178 51.4696 223.364C52.3364 223.549 52.5841 223.178 52.5222 221.816C52.5222 220.33 52.3983 220.268 52.0269 221.321C51.6554 222.125 51.4077 220.887 51.2839 217.606C51.0981 214.138 50.6028 211.786 49.6122 209.804C48.8692 208.257 48.2501 206.647 48.2501 206.275C48.2501 205.842 47.6309 204.913 46.9499 204.232C45.7735 203.056 45.6497 202.622 46.3307 200.889C46.7022 199.836 47.0118 198.412 47.0737 197.731C47.0737 197.112 47.7548 198.536 48.5596 200.889C50.479 206.647 52.7698 211.971 52.2745 209.557C52.0888 208.566 51.222 206.028 50.4171 203.984C48.8692 199.96 47.3214 193.273 47.8167 192.716C48.0024 192.53 48.4977 193.645 48.8692 195.131C49.9218 198.784 52.5222 205.409 52.5841 204.356C52.5841 203.365 49.1788 192.964 47.8786 190.116C47.1356 188.568 47.0118 187.763 47.569 186.71C47.9405 186.029 48.4977 184.605 48.8692 183.677C49.736 181.262 50.9124 181.881 51.4696 185.101C52.0888 188.692 52.8937 189.249 52.3364 185.72C51.5934 180.767 51.4077 176.618 51.9649 177.98C52.8937 180.147 52.646 177.98 51.5934 174.947C50.7886 172.532 50.7266 171.541 51.2839 169.746C51.6554 168.446 52.0888 164.421 52.2745 160.706C52.5222 154.824 52.4603 153.772 51.4696 152.719C49.6122 150.676 48.993 146.838 49.9837 143.308C50.479 141.637 51.222 139.655 51.7173 138.974C52.2126 138.293 52.5841 136.931 52.5222 135.879L52.4603 134.021L51.7173 136.188C51.2839 137.365 50.3552 139.717 49.6122 141.327C47.6309 145.723 48.1262 151.233 50.6647 153.586C51.4077 154.267 51.9649 155.01 51.9649 155.258C51.9649 156.249 49.4264 159.778 48.9311 159.468C48.1262 158.973 40.5108 164.235 40.325 165.474C39.7059 168.631 46.0212 166.464 48.312 162.688C49.1169 161.449 49.7979 160.459 49.8598 160.521C50.1694 160.83 48.1882 169.127 47.3214 171.232C46.826 172.47 46.3926 173.956 46.3926 174.575C46.3926 175.194 45.9592 175.999 45.4639 176.433C44.4114 177.299 44.1637 178.6 45.2163 177.98C45.5258 177.733 45.4639 178.476 44.9686 179.652C44.4733 180.767 44.2256 182.005 44.3495 182.438C44.4733 182.81 44.2876 183.367 43.8542 183.615C43.2969 183.924 43.235 183.738 43.5446 182.872C43.9161 181.819 43.8542 181.819 42.5539 183.057C40.6346 184.791 37.1055 186.525 37.1055 185.72C37.1055 185.348 38.5914 184.11 40.4489 182.934C43.235 181.138 44.5352 179.776 44.5352 178.6C44.5352 178.104 39.2106 181.943 37.8485 183.429C36.6102 184.729 34.0098 189.187 34.0098 189.992C34.0098 190.178 34.8766 189.373 35.9291 188.32C36.9817 187.206 38.2199 186.339 38.6533 186.339C39.0867 186.339 40.1393 185.72 41.068 185.039C43.0493 183.491 43.978 183.986 42.3682 185.72C40.3869 187.949 34.9385 190.673 32.5238 190.673C31.2855 190.673 30.2949 190.982 30.2949 191.292C30.2949 192.283 35.2481 191.292 38.5295 189.558C40.1393 188.754 42.3063 187.02 43.3588 185.782L45.2163 183.553L44.7829 185.41C44.1018 188.506 40.8203 193.521 40.0155 192.778C39.2725 191.973 35.8053 194.574 35.0004 196.555C34.5051 197.731 33.6383 198.722 33.081 198.722C32.5238 198.722 31.1617 199.712 29.9853 200.889C28.5613 202.251 27.4468 202.87 26.7039 202.684C25.899 202.375 25.8371 202.437 26.5181 202.932C27.6945 203.799 29.49 203.18 30.6045 201.446C31.0998 200.641 32.0904 199.96 32.7715 199.96C33.9479 199.96 36.4863 197.236 36.4863 195.936C36.4863 195.069 39.5201 192.84 40.0155 193.335C40.2012 193.521 39.3963 195.007 38.2819 196.679C37.1674 198.288 36.3006 199.774 36.4244 199.836C36.8578 200.332 33.081 203.675 31.4094 204.232C30.4187 204.604 29.7996 204.604 29.9853 204.294C30.1711 203.984 29.3662 203.923 28.1898 204.108C26.4562 204.356 25.9609 204.17 25.3418 203.118C24.9703 202.375 24.413 201.941 24.0415 202.127C23.0509 202.808 23.4224 203.613 25.3418 204.604C27.6326 205.78 30.4806 205.78 32.7096 204.666C34.5051 203.675 38.3438 199.712 38.3438 198.722C38.3438 198.226 43.7922 190.054 44.1637 190.054C44.3495 190.054 42.7397 199.217 41.9967 202.437C41.6252 203.984 41.2537 206.213 41.1299 207.39C40.8203 211.29 40.0774 214.324 39.2725 214.572C38.8391 214.758 38.2819 215.81 38.0961 216.987C37.8485 218.163 37.0436 219.463 36.2387 220.02C34.2574 221.259 29.6758 226.212 28.809 227.945C28.4375 228.75 26.5181 230.484 24.5369 231.784C21.8126 233.703 21.1935 234.384 21.6888 235.066C22.5556 236.056 23.6701 236.056 26.7658 235.189C28.4994 234.694 29.5519 233.827 31.2236 231.351C32.7715 229.06 33.143 228.069 32.5857 227.698C32.2142 227.45 32.1523 227.202 32.4619 227.202C32.8334 227.202 33.5764 226.398 34.1955 225.407C35.7434 222.806 35.4957 222.311 33.824 224.726C33.081 225.84 31.7808 227.202 30.914 227.76C29.5519 228.626 29.5519 228.503 31.4094 226.15C33.3906 223.611 37.9104 219.835 36.7959 221.63C36.3006 222.435 35.991 223.549 33.7002 232.713C31.9666 239.833 33.143 237.294 35.4957 228.936C36.734 224.416 38.0961 219.649 38.4676 218.411C38.8391 217.172 39.8297 215.501 40.6965 214.758C41.8729 213.767 42.1825 213.705 41.8729 214.448C41.6252 215.005 41.3157 216.801 41.068 218.411C40.8823 220.02 40.325 222.002 39.8916 222.868C39.4582 223.735 38.5295 226.583 37.7865 229.246C37.0436 231.908 35.8053 235.685 34.9385 237.666C34.1336 239.647 33.0191 243.238 32.5238 245.653C32.0285 248.068 31.1617 250.792 30.5426 251.659C29.6138 253.083 29.5519 253.702 30.233 256.24C30.6045 257.85 30.914 260.141 30.8521 261.317C30.7902 262.494 30.976 263.98 31.2236 264.661C31.657 265.837 31.5951 265.837 30.2949 264.537C28.3136 262.679 27.9422 257.355 29.3662 251.906C29.9234 249.739 30.6664 246.829 30.914 245.467C31.2236 244.105 31.5951 242.433 31.8428 241.752C32.2142 240.514 32.2142 240.514 31.4713 241.752C31.0379 242.433 30.4806 243.919 30.233 245.158C29.9853 246.334 29.1804 249.492 28.4994 252.216C27.7564 254.878 27.1992 257.912 27.1992 258.903C27.1992 261.813 28.809 264.723 31.2855 266.456C34.0717 268.314 34.567 268.437 35.0004 267.137ZM32.4 266.518C31.7808 266.023 31.4713 265.651 31.8428 265.651C32.1523 265.651 33.0191 266.023 33.6383 266.518C34.3193 267.013 34.567 267.447 34.2574 267.447C33.8859 267.447 33.081 267.013 32.4 266.518ZM38.0342 244.538C38.5914 242.805 39.2106 241.505 39.3963 241.69C39.5821 241.876 39.2106 243.424 38.5914 245.096C37.1674 249.182 36.6721 248.687 38.0342 244.538ZM39.2725 231.041C39.2725 228.069 39.7059 225.964 40.6346 223.673C41.4395 221.94 42.0586 219.277 42.0586 217.791C42.0586 215.872 42.2444 215.377 42.6778 216.058C42.9874 216.553 43.2969 217.606 43.2969 218.411C43.2969 219.215 43.5446 219.711 43.8542 219.463C46.2069 218.039 44.5971 228.936 41.6252 234.88C40.2631 237.542 39.2725 235.932 39.2725 231.041ZM22.246 234.323C22.246 234.261 23.9177 233.146 25.9609 231.908C28.3136 230.484 29.5519 229.307 29.3043 228.874C29.0566 228.441 29.0566 228.317 29.3662 228.565C29.6138 228.812 30.3568 228.75 30.976 228.379C32.7715 227.45 32.4 228.688 30.1711 231.289C27.9422 233.827 25.156 235.251 23.4224 234.818C22.7413 234.632 22.246 234.446 22.246 234.323ZM42.3682 208.814C43.0493 206.275 43.3588 204.356 43.6065 201.198C43.7303 199.65 44.1018 197.05 44.4733 195.316C44.7829 193.645 45.2163 190.549 45.4639 188.506C46.4546 179.652 47.6309 171.975 48.312 170.798C48.6835 170.117 49.3645 167.826 49.7979 165.721L50.6028 161.883L50.6647 164.669C50.6647 166.217 50.1694 168.693 49.4884 170.179C48.5596 172.099 48.2501 174.204 48.2501 177.733C48.2501 180.395 47.8786 183.8 47.3833 185.224C46.888 186.71 46.4546 189.806 46.4546 192.159C46.3307 198.041 43.5446 210.486 42.3063 210.486C42.1205 210.486 42.1205 209.743 42.3682 208.814ZM49.1788 177.361C48.993 176.371 49.055 174.699 49.3645 173.646C49.8598 171.975 49.9218 172.161 50.3552 175.69C50.6028 177.857 50.9743 180.086 51.16 180.643C51.4077 181.448 51.2839 181.386 50.5409 180.457C49.9837 179.776 49.3645 178.414 49.1788 177.361ZM42.4301 164.359C42.9874 163.492 43.6684 162.811 43.9161 162.811C44.1637 162.811 45.402 162.13 46.6403 161.264C47.8786 160.459 48.8692 159.963 48.8692 160.211C48.8073 161.511 43.6684 165.845 42.1825 165.907C41.6252 165.907 41.6871 165.474 42.4301 164.359ZM51.2839 158.663C51.8411 157.673 51.903 157.734 51.9649 159.158C51.9649 160.025 51.7792 160.954 51.4696 161.202C50.7266 161.945 50.6028 159.84 51.2839 158.663Z" fill="#B3C4A9"/>
<path d="M25.6513 245.715C27.0134 245.034 29.2424 242.99 30.5426 241.319L33.0191 238.161L29.6758 240.452C27.8802 241.69 25.7752 242.681 25.0941 242.619C23.5462 242.495 18.5312 244.476 18.5312 245.219C18.5312 245.9 20.6982 247.015 22.0603 247.015C22.6794 247.015 24.2892 246.396 25.6513 245.715ZM19.8933 245.715C19.0265 245.715 19.0265 245.591 19.7695 245.343C20.2648 245.157 21.5031 244.662 22.5556 244.229C23.5462 243.857 25.3418 243.176 26.5181 242.805C28.4994 242.124 28.5613 242.186 27.5088 243.3C26.1466 244.786 22.7413 246.458 21.7507 246.086C21.2554 245.9 20.4505 245.777 19.8933 245.715Z" fill="#B3C4A9"/>
<path d="M31.2238 221.506C32.8955 220.577 36.4866 217.172 36.4866 216.491C36.4866 216.182 37.4772 214.015 38.6536 211.6C39.8918 209.185 40.7586 207.142 40.6348 207.018C40.5729 206.894 38.9631 208.628 37.2295 210.919C32.8955 216.305 31.4096 217.42 27.7566 217.791C25.342 218.039 24.7228 218.287 24.7228 219.215C24.7228 219.834 25.5277 220.763 26.5802 221.32C28.6853 222.435 29.5521 222.435 31.2238 221.506ZM27.1375 220.701C25.0324 219.587 25.2181 218.534 27.509 219.03C29.7998 219.463 32.2145 218.163 34.4434 215.315C36.92 212.343 37.0438 212.776 34.8768 216.491C34.01 217.977 32.4002 219.773 31.3477 220.454C28.9949 221.878 29.3664 221.816 27.1375 220.701Z" fill="#B3C4A9"/>
<path d="M33.5766 202.127C36.177 200.331 36.7342 199.279 34.1338 200.889C30.7904 203.118 30.0475 203.676 30.6047 203.676C30.9762 203.676 32.2764 202.994 33.5766 202.127Z" fill="#B3C4A9"/>
<path d="M52.3363 145.289C52.3982 140.894 52.3982 140.894 51.841 143.865C51.5314 145.475 51.5314 147.518 51.7791 148.323C52.1505 149.376 52.2744 148.447 52.3363 145.289Z" fill="#B3C4A9"/>
<path d="M41.1918 142.627C41.7491 140.212 42.5539 139.284 44.1637 139.284C44.9067 139.284 46.4546 138.417 47.569 137.302C49.1169 135.755 49.4884 135.012 49.1788 133.711C48.9311 132.597 49.3026 131.111 50.2313 129.316C51.6554 126.529 52.0269 123.31 51.0981 120.771C50.6647 119.533 50.7266 119.347 51.5934 119.657C52.1507 119.905 52.5841 119.781 52.5841 119.409C52.5841 119.1 51.903 118.542 51.0362 118.233C48.8692 117.428 48.6216 115.385 50.1075 111.113C51.7792 106.345 52.7079 101.392 52.0269 100.711C51.7173 100.402 50.9124 101.021 50.1075 102.073C48.4977 104.426 45.1544 113.589 45.1544 115.88C45.1544 117.738 44.0399 117.738 41.5633 115.818C40.325 114.889 40.2012 114.456 40.6346 112.661C41.068 111.113 41.7491 110.37 43.235 109.689C45.1544 108.946 45.2782 108.946 44.8448 109.998C44.5971 110.617 44.2876 112.351 44.1637 113.899C43.978 116.066 44.1018 115.756 44.9067 112.413C46.0212 107.46 48.8073 101.516 50.8505 99.9062C51.6554 99.2251 52.3364 98.1726 52.4603 97.4915C52.7079 95.9437 50.0456 99.1013 47.3214 103.621C46.2688 105.355 44.1018 107.769 42.492 108.946C40.0774 110.741 39.5821 111.422 39.5821 113.094C39.5821 115.323 38.4057 115.818 37.1055 114.208C35.7434 112.599 37.4151 106.593 39.8916 104.302C42.3063 102.073 46.3926 99.4728 46.888 99.9681C47.5071 100.525 43.6684 104.054 42.8016 103.683C42.3682 103.497 42.1825 103.683 42.3682 104.054C42.8635 104.797 41.5014 106.593 40.7584 106.098C40.4489 105.912 40.3869 106.283 40.6346 106.841C40.8823 107.46 40.7584 107.769 40.4489 107.522C40.1393 107.336 39.8297 107.707 39.8297 108.388C39.8297 109.998 40.5108 109.874 41.3157 108.017C41.7491 107.15 43.3588 105.045 44.9067 103.373C46.4546 101.702 47.569 100.03 47.3214 99.7205C47.1356 99.349 48.2501 97.863 49.7979 96.3771C51.3458 94.8911 52.5841 93.4052 52.5841 93.0337C52.5841 92.6622 48.7454 92.4765 42.1825 92.5384C33.5144 92.6003 31.657 92.4765 30.5426 91.6097C29.7996 91.0524 28.0041 90.2476 26.5181 89.7522C23.6081 88.8235 22.8652 88.0806 21.3173 85.0468C20.4505 83.1274 20.3267 83.1274 17.6025 83.6227C16.1165 83.9323 14.0733 84.6133 13.2065 85.2325C12.2778 85.8516 10.2346 86.4708 8.68678 86.7184L5.83872 87.0899L8.43912 87.2138C10.0489 87.2757 12.0921 86.7184 14.0733 85.7278C18.0978 83.7465 19.2122 83.8085 20.5124 86.0374L21.565 87.8948H18.0359C16.1165 87.8948 14.1352 88.1425 13.6399 88.452C12.897 88.9474 14.5067 88.8854 20.5124 88.2663C21.565 88.2044 22.3079 88.452 22.5556 89.0093C22.8033 89.7522 22.4318 89.8761 20.6982 89.5665C19.398 89.3808 18.655 89.4427 18.8407 89.7522C19.0265 90.0618 20.5743 90.3095 22.1841 90.3095C24.2273 90.2476 26.3324 90.7429 28.747 91.8573C32.0285 93.3433 32.7096 93.4052 38.8391 93.1575C43.978 92.9718 44.8448 93.0337 42.6778 93.4671C37.8485 94.4577 34.6289 95.4484 34.6289 95.9437C34.6289 96.8105 29.3662 94.7054 28.3136 93.3433C27.3849 92.3526 27.1992 92.2907 27.1992 93.0956C27.1992 93.6528 27.1373 94.272 27.1373 94.5816C27.0754 94.8292 27.6326 95.3245 28.3756 95.696C29.1185 96.0675 29.6758 96.6247 29.6138 96.9343C29.4281 97.863 23.9177 99.6585 21.3173 99.6585C17.6025 99.5966 11.6587 98.0488 9.86315 96.6247C8.99635 95.8818 6.64361 94.5197 4.66235 93.5909C-0.909948 90.8667 1.38088 90.8048 8.31529 93.529C11.7206 94.8292 15.3116 95.8818 16.3642 95.8199C18.2216 95.7579 18.2216 95.7579 16.0546 95.2626C14.5686 94.9531 15.8688 94.8292 20.079 94.9531C23.5462 95.0769 25.4656 94.9531 24.413 94.7054C23.3605 94.4577 20.1409 94.2101 17.1691 94.1482C12.835 94.0863 10.9157 93.7767 7.57232 92.4146C3.54789 90.8048 3.42406 90.681 5.21958 90.3095C6.21021 90.1237 9.24401 90.0618 11.8444 90.2476C14.5067 90.4333 16.6737 90.3095 16.6737 89.9999C16.6737 89.6903 14.1352 89.3808 11.0395 89.2569C6.70552 89.1331 5.03383 89.3188 3.91937 90.0618C1.8762 91.362 2.06194 90.1856 4.0432 88.5759C5.83872 87.1518 5.59106 86.8423 3.54789 87.9567C2.43343 88.5759 2.3096 88.514 2.61917 87.6472C2.86683 86.9661 2.80491 86.7184 2.37151 86.9661C2.00003 87.2138 1.8762 87.771 2.06194 88.2663C2.55726 89.5046 1.81428 90.9905 0.823654 90.9905C-0.724205 90.9905 -0.105061 92.4765 2.80491 95.3245C4.35277 96.8724 6.33403 98.8537 7.20084 99.7824C8.19147 100.773 9.80124 101.578 11.3491 101.887C12.7731 102.073 14.5686 102.754 15.4354 103.373C16.3023 103.931 17.4786 104.612 18.0978 104.797C18.7788 105.045 19.0265 105.54 18.7788 105.974C18.4073 106.593 18.5931 106.531 19.3361 105.974C19.8933 105.478 21.9365 104.797 23.9177 104.364C25.899 103.931 28.066 103.373 28.747 103.126L29.9853 102.63L28.747 103.683C28.066 104.24 26.2705 105.293 24.7845 105.974C23.2986 106.717 21.3173 108.388 20.3267 109.751C18.4073 112.351 18.0359 113.589 19.2741 112.97C19.7075 112.722 19.5837 112.97 18.9646 113.465C18.4073 113.961 17.912 114.828 17.912 115.385C17.912 116.004 17.231 117.676 16.3642 119.1C14.8782 121.638 14.8163 121.886 15.745 124.424C16.2403 125.848 16.6737 127.52 16.6737 128.077C16.6737 128.882 17.4167 129.068 21.1316 129.006C24.8464 128.944 26.2086 128.634 28.9947 127.149C31.9047 125.601 32.4619 124.982 33.5144 122.133C34.1955 120.338 35.0004 118.852 35.31 118.852C36.5483 118.852 35.8053 123.929 34.0717 127.396C32.1523 131.235 31.2236 135.445 31.8428 137.364C32.0904 138.169 33.2049 138.912 34.6908 139.408C36.1768 139.841 37.9104 141.017 38.9629 142.256L40.7584 144.423L41.1918 142.627ZM35.8053 138.85C33.4525 138.479 32.8334 137.488 32.8953 134.207C32.8953 130.306 36.4244 123.186 37.6008 124.61C38.0342 125.105 38.0342 125.724 37.7246 126.282C37.2293 127.025 37.1055 126.963 37.0436 125.972C37.0436 125.291 36.6721 125.91 36.1768 127.396C35.7434 128.82 34.9385 130.74 34.3813 131.544C33.7002 132.597 33.5764 133.402 33.9479 134.145C34.2574 134.764 34.8147 136.002 35.2481 136.931C35.991 138.479 36.1149 138.541 36.8578 137.55C37.5389 136.683 37.7865 136.683 38.2199 137.302C38.7153 137.984 38.8391 137.984 39.1487 137.302C39.5201 136.25 37.7865 136.064 36.6102 136.993C36.0529 137.426 35.7434 137.055 35.4957 135.631C35.2481 134.578 34.8147 133.711 34.567 133.711C34.2574 133.711 34.3813 133.092 34.8766 132.349C35.3719 131.544 35.9291 130.244 36.1768 129.501C36.734 127.582 38.4057 125.972 39.8916 125.848C40.5727 125.786 41.6871 125.601 42.3682 125.353C43.4208 125.043 43.7303 125.415 44.3495 127.953C44.7829 129.563 45.2782 131.606 45.5258 132.473L45.8973 134.021L44.7829 132.473C44.1637 131.606 43.4827 129.687 43.2969 128.139C42.9874 125.724 42.9254 125.601 42.6159 127.025C42.2444 128.634 42.9254 130.492 45.6497 135.259C46.5165 136.869 46.7022 136.931 46.888 135.878C46.9499 135.197 46.5165 132.845 45.7735 130.678C44.3495 126.158 44.1637 124.177 45.2782 124.61C45.7116 124.734 46.0212 125.415 45.8973 126.158C45.7735 126.901 46.2688 128.758 46.9499 130.368C49.1788 135.321 48.6835 136.683 44.1637 138.293L41.7491 139.098L41.6871 136.312L41.6252 133.526L42.7397 135.631C43.3588 136.807 43.8542 137.302 43.9161 136.745C43.9161 136.25 42.9874 134.702 41.811 133.278C40.6346 131.916 39.4582 130.059 39.2106 129.13C38.9629 128.015 38.5914 127.644 38.2199 128.015C37.7865 128.449 37.9723 129.254 38.7772 130.43C40.5727 132.968 41.4395 136.188 41.1299 138.912C40.6346 142.441 40.2012 142.813 38.5914 140.832C37.8485 139.841 36.5483 138.974 35.8053 138.85ZM46.4546 126.406C46.3926 125.972 46.7022 125.786 47.0737 126.034C49.1169 127.272 48.6216 122.691 46.3926 119.533C45.402 118.171 45.402 117.676 46.2688 113.961C47.0737 110.184 50.8505 100.897 51.5315 100.897C52.0888 100.897 51.222 106.16 50.2932 108.327C47.6928 114.518 47.6309 115.571 49.3026 119.347C51.0981 123.372 51.0362 126.777 49.1169 129.625L48.0024 131.421L47.2594 129.316C46.826 128.139 46.4546 126.839 46.4546 126.406ZM24.4749 127.21C25.0322 126.344 25.7752 125.848 26.1466 126.096C26.4562 126.282 26.58 126.158 26.3943 125.848C26.1466 125.477 26.4562 124.796 27.0134 124.362C27.8802 123.619 27.9422 123.681 27.5707 125.043C27.0754 126.591 25.0322 128.758 24.0415 128.758C23.732 128.758 23.9177 128.077 24.4749 127.21ZM18.3454 128.015C17.6025 128.015 17.2929 127.582 17.2929 126.591C17.2929 125.786 16.9833 124.424 16.5499 123.557C15.9308 122.195 16.1165 121.39 17.912 117.861C19.0884 115.571 20.5743 113.589 21.3173 113.28C23.1747 112.599 27.1992 112.103 27.1992 112.599C27.1992 112.846 25.899 114.27 24.3511 115.756C22.8033 117.304 20.6982 119.966 19.6456 121.638C18.0978 124.177 17.8501 124.424 18.2216 122.876C18.7169 120.462 21.3173 116.747 24.0415 114.394C25.2798 113.342 25.7132 112.846 24.9703 113.156C23.1747 114.085 19.2741 118.481 18.1597 120.895C17.4167 122.443 17.3548 123.434 17.7882 125.043C18.1597 126.406 18.4693 126.715 18.4693 125.972C18.5931 124.672 20.3267 121.205 20.3886 122.257C20.3886 122.629 20.1409 123.867 19.7695 124.982C19.4599 126.158 19.2741 127.272 19.4599 127.396C19.6456 127.644 20.2648 125.539 21.2554 121.143C21.5031 120.09 21.9365 119.595 22.3699 119.843C22.8033 120.152 22.8652 120.028 22.6175 119.533C22.3079 119.038 23.0509 117.861 24.5369 116.437C27.6945 113.342 30.914 108.574 31.1617 106.593C31.2855 105.664 31.2236 105.417 31.0998 106.036C30.976 106.593 30.5426 106.964 30.233 106.779C29.9234 106.593 29.8615 106.903 30.1092 107.46C30.3568 108.141 30.233 108.388 29.8615 108.141C29.49 107.893 28.809 108.203 28.3756 108.822C27.5707 109.751 27.6326 109.813 28.5613 109.008C29.3043 108.512 29.6758 108.45 29.6758 108.884C29.6758 109.874 27.2611 111.175 23.8558 111.98C17.3548 113.589 19.7695 109.503 27.5707 105.788C30.3568 104.426 32.9572 103.002 33.2668 102.569C34.1955 101.516 33.8859 98.4822 32.8953 98.8537C32.0285 99.2251 31.9047 100.03 32.7715 100.587C33.081 100.773 33.143 101.392 32.9572 101.887C32.6476 102.692 32.4619 102.692 31.7808 102.011C30.7283 100.959 31.2855 98.9156 32.8334 97.863C33.9479 97.2439 34.2574 97.3058 35.2481 98.4203C36.3625 99.7205 36.3625 99.8443 35.0004 103.869C33.2049 109.193 33.5144 114.766 35.5576 114.889C37.2912 114.951 44.3495 118.171 45.2163 119.223C46.2688 120.524 45.4639 120.276 40.7584 117.985C38.4057 116.809 36.6102 116.128 36.7959 116.375C36.9817 116.685 39.2106 117.861 41.7491 119.1C46.0831 121.143 47.6928 122.691 47.569 124.548C47.569 125.167 47.4452 125.167 47.1975 124.61C46.7641 123.496 43.5446 123.619 41.6871 124.796C40.2631 125.724 40.0774 125.724 39.0248 124.796C37.8485 123.681 36.2387 119.038 36.2387 116.499C36.2387 114.642 35.6815 115.323 33.143 120.524C31.2855 124.3 28.8709 126.963 28.1279 126.158C28.0041 126.034 28.4375 124.362 29.0566 122.319C29.6758 120.338 30.0472 118.295 29.8615 117.738C29.6138 117.118 29.7377 116.933 30.1711 117.242C30.5426 117.428 30.976 117.118 31.0998 116.561C31.4094 115.261 31.0998 118.852 30.6045 121.948C30.2949 123.929 30.2949 123.991 30.914 122.567C31.2855 121.7 31.7808 119.347 31.9047 117.304C32.0904 115.261 32.5238 112.661 32.8953 111.546C33.8859 108.203 33.081 108.636 31.7189 112.227C29.8615 116.933 26.642 121.514 27.1373 118.666C27.1992 118.357 26.9515 118.295 26.642 118.481C26.3324 118.666 26.1466 119.347 26.2705 119.966C26.3324 120.524 25.899 122.072 25.2179 123.372C23.4843 126.777 24.2273 126.158 26.8896 121.886C28.1279 119.843 29.3043 118.295 29.49 118.481C29.9853 118.976 26.8896 123.929 24.9703 125.663C24.0415 126.529 23.4843 126.839 23.732 126.467C24.413 125.229 23.7939 125.539 22.4937 127.025C21.8745 127.768 21.6888 128.139 22.0603 127.892C22.4937 127.644 22.8652 127.768 22.8652 128.139C22.8652 128.511 22.246 128.634 21.1316 128.325C20.2029 128.139 18.9646 127.953 18.3454 128.015ZM34.6908 109.131C34.6289 108.017 35.31 105.602 36.1149 103.683C37.5389 100.525 37.7865 100.278 39.7678 100.278C40.9442 100.278 42.9254 99.8443 44.2256 99.2871C47.3833 97.9869 47.569 98.4822 44.5352 100.216C43.1731 100.959 42.0586 101.454 42.0586 101.268C42.0586 101.083 41.2537 101.702 40.2631 102.692C37.9104 104.983 36.6102 107.522 36.1149 110.865C35.7434 112.97 35.5576 113.28 35.1861 112.351C34.9385 111.67 34.6908 110.246 34.6908 109.131ZM15.9308 102.754C15.064 102.073 13.0208 101.268 11.4729 100.835C9.92507 100.463 8.12955 99.5347 7.44849 98.7917C6.76744 98.1107 5.15766 96.439 3.91937 95.0769L1.56663 92.7241L4.29086 94.0863C5.83872 94.8911 8.00572 96.1913 9.12018 97.0581C11.2253 98.6679 17.1691 100.216 21.3173 100.278C23.9796 100.278 29.8615 98.4822 31.0998 97.2439C32.2762 96.0675 33.0191 96.5009 31.9666 97.6773C31.3474 98.2964 30.914 99.1632 30.914 99.6585C30.914 100.278 30.7283 100.278 29.9853 99.6585C29.49 99.2251 29.0566 99.0394 29.0566 99.2251C29.0566 99.4109 28.8709 100.03 28.6851 100.525C28.3756 101.268 28.5613 101.454 29.3043 101.144C29.8615 100.959 30.2949 101.083 30.2949 101.454C30.2949 101.826 30.1092 102.073 29.7996 102.011C29.5519 102.011 28.9328 102.135 28.4375 102.321C26.3324 103.25 20.0171 104.488 18.8407 104.178C18.1597 104.054 16.8595 103.373 15.9308 102.754ZM30.914 102.754C30.914 102.445 31.0379 102.135 31.1617 102.135C31.3474 102.135 31.657 102.445 31.8428 102.754C32.0285 103.126 31.9047 103.373 31.5951 103.373C31.2236 103.373 30.914 103.126 30.914 102.754ZM36.4244 98.1107C35.4338 96.9962 35.4338 96.8724 36.5483 96.0675C38.0342 95.015 45.4639 93.4671 48.4358 93.5909L50.7266 93.6528L49.3645 95.2007C47.5071 97.1201 44.721 98.606 43.7922 98.0488C43.4208 97.8011 43.2969 97.863 43.5446 98.2964C44.5352 99.9062 37.7865 99.7824 36.4244 98.1107Z" fill="#B3C4A9"/>
<path d="M43.7304 90.805C41.4396 90.5572 37.7247 90.5572 35.3719 90.805C31.6571 91.3007 32.0905 91.3626 39.5821 91.3626C47.0738 91.3626 47.5072 91.3007 43.7304 90.805Z" fill="#B3C4A9"/>
<path d="M50.0456 86.9042C46.826 83.499 44.5352 79.5983 42.9873 74.8929C42.3682 73.0973 41.1299 70.7446 40.0774 69.6301C39.0867 68.4538 38.0342 66.6582 37.7246 65.6057C37.0436 63.3149 37.5389 60.0334 38.5295 60.0334C38.901 60.0334 38.7772 59.6 38.2819 59.1047C37.0436 57.8664 34.3193 58.7951 33.7002 60.5906C33.5144 61.3336 33.0191 61.8908 32.7096 61.8908C30.914 61.8908 28.1279 74.1499 29.3043 76.8741C29.5519 77.4313 29.6758 78.422 29.49 79.0411C29.1804 80.4032 27.323 76.5026 26.8896 73.4688L26.58 71.4876L27.5087 73.345C28.3755 75.0167 28.4375 75.0786 28.1898 73.6546C27.1992 68.5776 26.8277 67.7727 24.9083 66.844C22.7413 65.7914 18.2835 61.024 17.6644 59.0428C17.2929 57.8045 14.9401 56.6281 14.2591 57.2473C14.1352 57.433 14.321 57.5568 14.6925 57.5568C15.9927 57.5568 15.4974 60.2191 13.8876 61.8908C11.0395 64.8627 11.1633 67.7727 14.321 74.7071C14.6925 75.3882 14.7544 76.3788 14.5067 76.8741C14.1972 77.3075 14.1972 77.4933 14.5067 77.2456C14.7544 76.9979 15.5593 77.9267 16.2403 79.2888C17.4786 81.7654 19.7694 83.6847 19.7694 82.2607C19.7694 81.8273 20.3267 82.013 21.1316 82.756C21.9365 83.437 23.732 84.6753 25.2179 85.5421C26.6419 86.347 27.6945 87.1519 27.5707 87.3376C27.4468 87.4615 28.3755 87.6472 29.6758 87.6472C30.976 87.7091 32.9572 88.2044 34.0098 88.6998C35.0004 89.257 35.7434 89.4427 35.5576 89.1332C35.3719 88.8855 36.4244 88.7617 37.8485 88.8855C39.5821 89.0093 39.0867 88.8236 36.4863 88.2664C29.6138 86.9042 25.7751 85.4802 22.6794 83.1894C19.336 80.7747 19.2122 79.846 22.3699 81.27C23.4843 81.8273 26.6419 83.0036 29.3662 83.9324C32.0904 84.8611 34.7527 85.9755 35.248 86.347C36.5482 87.4615 37.9723 87.771 43.6065 88.514C46.3307 88.8855 49.5503 89.3189 50.7266 89.5047L52.8937 89.8761L50.0456 86.9042ZM44.0399 86.0374C41.068 83.8704 35.8672 78.6696 35.8672 77.8647C35.8672 77.5552 36.1768 77.4933 36.6102 77.7409C37.0436 77.9886 37.1055 77.9267 36.8578 77.4313C36.6102 77.0599 36.1768 76.8741 35.8672 77.0599C35.0623 77.5552 33.5144 71.5495 33.2668 67.1536C33.143 64.0578 33.3287 63.0672 34.5051 61.3955C36.3006 58.9189 37.9723 58.6713 37.1055 61.024C36.1148 63.5006 37.1055 67.525 39.0867 69.5682C40.8823 71.3637 42.1205 73.7165 42.9254 77.0599C43.3588 78.8554 43.2969 78.7935 41.5014 76.3169C40.5108 74.9548 39.3963 73.5927 39.0248 73.4069C37.8485 72.6639 35.991 67.6489 36.2387 65.8534L36.4863 64.0578L35.8053 65.7914C35.248 67.2155 35.31 68.0204 36.1148 69.8159C36.6102 71.1161 37.2293 73.5307 37.477 75.2024C38.0342 79.5364 38.4057 80.0937 43.6065 83.5609C46.145 85.2945 48.2501 86.9662 48.2501 87.2757C48.2501 88.3902 46.5784 87.8949 44.0399 86.0374ZM35.991 85.9136C34.9385 85.2326 34.1336 84.4277 34.3193 84.1181C34.567 83.8085 34.2574 83.7466 33.7621 83.9324C33.2668 84.1181 31.4094 83.8085 29.6758 83.2513L26.58 82.1988L29.49 80.7128C32.2762 79.1649 32.4 79.1649 33.7621 80.2794C40.0774 85.3564 42.8016 87.3376 43.0493 87.09C43.235 86.9042 42.1825 85.9136 40.6965 84.923C39.2106 83.8704 36.9817 82.013 35.6814 80.8366C34.3812 79.5983 32.9572 78.6077 32.5238 78.6077C31.0998 78.6077 29.3662 73.1593 29.9853 70.6827C30.3568 69.1348 30.5426 69.3206 32.4619 73.1593C35.0004 78.3601 37.6627 81.7654 41.5633 84.7992C43.2969 86.2232 44.2256 87.2757 43.7303 87.4615C42.3682 88.0187 38.0961 87.1519 35.991 85.9136ZM39.644 79.5983C39.2106 79.103 38.8391 78.2362 38.7153 77.6171C38.5914 76.936 38.2819 75.6358 38.0342 74.5833L37.6627 72.7259L39.3963 74.8929C40.325 76.0692 41.6871 77.6171 42.4301 78.3601C43.6065 79.5983 46.3926 83.9324 46.3926 84.5515C46.3926 84.923 40.4489 80.589 39.644 79.5983ZM22.1841 77.679C21.5031 77.4313 21.1935 76.9979 21.3792 76.6265C21.6269 76.1931 21.5031 76.1311 21.1316 76.3788C20.3886 76.8122 16.6737 75.0167 16.6737 74.2118C16.6737 73.9641 16.1784 73.5927 15.6212 73.4069C14.6925 73.0354 14.6925 73.1593 15.745 74.2737C16.3642 74.9548 16.6737 75.512 16.4261 75.512C16.1784 75.512 16.6118 76.3788 17.3548 77.4313C18.4692 79.0411 18.7788 79.2269 19.2741 78.422C19.5837 77.8647 20.2028 77.5552 20.6982 77.7409C21.1935 77.9886 21.4411 78.3601 21.2554 78.6696C21.0697 78.9792 21.3173 79.0411 21.8126 78.9173C22.246 78.7315 23.1747 79.103 23.7939 79.846C25.2179 81.4558 24.3511 81.4558 21.7507 79.846C19.7075 78.6077 19.7075 78.6077 19.0265 81.0843C18.8407 81.6415 18.0978 80.8366 17.0452 79.0411C16.0546 77.4313 15.4354 75.8835 15.6831 75.6977C15.8688 75.4501 15.6831 74.8929 15.1878 74.3356C14.7544 73.7784 13.8876 72.0448 13.2684 70.435C12.154 67.3393 12.3397 65.1723 13.9495 62.8815C14.8163 61.6432 14.8163 61.6432 14.8163 63.0053C14.8163 64.8627 16.3642 67.8346 18.9026 70.8065C20.079 72.1686 21.0077 73.5927 21.0077 73.9641C21.0077 74.3356 22.4937 76.0073 24.2273 77.679L27.5087 80.7747L24.9703 77.9886C21.2554 73.9022 17.9739 67.0297 17.912 63.3149C17.912 62.51 17.6644 61.8908 17.3548 61.8908C17.0452 61.8908 17.0452 62.8815 17.4167 64.2436C17.7263 65.4819 18.1597 67.2155 18.3454 68.0823C18.5931 69.5063 18.5312 69.5063 17.4167 67.7108C15.6831 64.9866 15.2497 63.3149 15.745 60.7764C16.0546 59.2285 16.3022 58.7951 16.6737 59.4143C16.9833 59.9096 17.0452 60.5287 16.8595 60.9002C16.6737 61.2098 16.7976 61.2717 17.169 61.024C17.5405 60.7764 18.1597 61.2717 18.5931 62.0147C19.5837 63.8721 23.1747 67.2774 24.5988 67.7108C25.4037 68.0204 25.7751 68.8252 25.8371 70.7446C25.9609 72.1686 26.3324 74.4595 26.7039 75.8216C27.0753 77.1837 27.4468 78.4839 27.4468 78.7315C27.5087 78.9173 27.6945 79.3507 27.9421 79.5983C28.809 80.4032 28.4375 81.0224 27.0134 81.2081C26.0847 81.332 25.2798 80.8985 24.5369 79.7222C23.9177 78.7935 22.8652 77.8647 22.1841 77.679ZM17.0452 75.5739C17.231 75.3882 17.6644 75.6977 17.9739 76.3169C18.3454 76.8741 18.9026 77.1837 19.2741 76.9979C19.7075 76.6884 19.7694 76.8741 19.5218 77.3075C19.1503 77.8647 18.7169 77.8028 17.8501 76.9979C17.169 76.4407 16.7976 75.7597 17.0452 75.5739ZM31.2236 65.7295C31.8428 63.3149 32.5238 65.0485 32.9572 69.9397L33.2668 73.9641L32.0285 70.6827C31.2236 68.5776 30.976 66.7821 31.2236 65.7295Z" fill="#B3C4A9"/>
<path d="M49.3024 56.1329C51.0979 55.3899 52.5839 54.585 52.5839 54.3374C52.5839 54.0897 51.9028 54.1516 51.0979 54.585C49.8596 55.1422 49.1786 55.0184 47.5069 54.0278C46.3924 53.3467 45.5256 52.418 45.6495 52.0465C45.7114 51.6131 45.5256 51.4893 45.0922 51.7369C44.7207 51.9227 44.1635 51.7369 43.8539 51.3035C43.0491 50.0033 43.1729 49.2604 44.0397 50.0033C44.7827 50.5606 50.9741 52.6037 51.9647 52.6037C52.2124 52.6037 52.3981 52.1703 52.3981 51.675C52.3981 50.994 51.7171 50.7463 49.9835 50.7463C48.6833 50.7463 46.6401 50.3748 45.5256 49.8795C42.9252 48.7651 38.5293 44.9264 37.3529 42.6355C36.0527 40.0351 36.3004 38.9826 37.7244 41.2734C39.1485 43.6262 40.8821 44.8645 45.278 46.4742C49.1786 47.9602 48.5594 47.1553 44.535 45.4836C41.3155 44.1215 38.777 42.0164 36.9814 39.1064C36.3004 37.992 35.6193 37.1871 35.4336 37.3728C34.7525 38.0539 36.1146 41.6449 38.034 44.493C39.2104 46.1647 39.9533 47.7125 39.7057 47.9602C39.458 48.2078 39.5199 48.3317 39.8914 48.2697C41.4393 47.9602 42.1203 48.3936 42.9252 50.3748C43.792 52.418 46.8258 55.0803 48.3737 55.0803C49.7977 55.0803 47.445 56.3186 45.959 56.3186C43.4205 56.3186 41.6869 55.0184 39.5199 51.4893C35.9289 45.7313 35.1859 43.5023 35.0002 38.9207L34.8144 34.5867L37.3529 37.0013C40.5725 40.0351 44.4731 42.9451 44.8446 42.5736C45.0303 42.3879 43.6682 41.2734 41.8727 40.0351C40.0772 38.7968 37.9721 37.0632 37.2291 36.1964C34.6906 33.2865 31.4711 28.3952 31.7806 27.8999C31.9664 27.6522 31.7187 27.4046 31.2234 27.4046C30.047 27.4046 30.047 27.6522 31.533 29.5097C32.214 30.3765 32.7713 31.3671 32.7713 31.6767C32.7713 31.9863 31.6568 33.4103 30.2328 34.8343L27.6943 37.4347L27.88 34.0294C28.0039 32.172 27.88 28.9525 27.6324 26.9093C27.2609 24.185 27.3847 22.5753 28.0658 20.7178C28.9326 18.3032 28.9945 18.3651 28.8087 24.4327C28.7468 27.838 28.8087 30.0669 28.9326 29.3859C29.0564 28.7048 29.4898 27.838 29.7994 27.4046C30.109 26.9712 30.2328 26.0425 29.9851 25.2376C29.6136 23.8755 29.6756 23.8755 30.5424 25.3614C31.0996 26.2282 31.4711 26.5997 31.533 26.2901C31.533 25.9186 31.0996 24.9899 30.5424 24.247C29.9232 23.3182 29.6136 21.9561 29.7994 20.4083C29.9232 19.1081 29.7375 18.1793 29.4279 18.3651C29.1183 18.5508 28.9945 18.3651 29.1183 17.9936C29.5517 16.6934 30.6043 17.1887 30.79 18.6747C30.8519 19.4796 31.2853 21.7704 31.6568 23.8136C32.0902 25.8567 32.4617 27.7142 32.4617 27.8999C32.4617 28.581 36.1766 31.3052 38.2197 32.172C40.6344 33.1007 43.6063 36.6918 42.9252 37.8062C42.6776 38.2396 42.7395 38.3634 43.111 38.1777C43.7301 37.8062 45.0922 40.2209 45.4018 42.326C45.6495 43.9976 48.188 46.2266 49.6739 46.0408C50.4169 45.9789 51.4075 45.8551 51.779 45.8551C53.3888 45.7313 52.522 44.5549 50.8503 44.5549C48.3737 44.493 47.0116 43.1928 44.5969 38.2396C42.6776 34.4009 41.8108 33.4103 38.5912 31.2433C34.8144 28.7667 32.7713 26.2282 32.7713 24.1231C32.7713 22.018 30.9138 15.8266 30.1709 15.3932C29.1183 14.7121 28.4373 15.2694 28.4373 16.7553C28.4373 17.4364 27.9419 18.8604 27.3847 19.9749C25.3415 23.8755 26.8894 41.0258 29.7994 46.9076C30.1709 47.6506 31.9664 48.9508 33.7619 49.8176C37.4148 51.5512 37.7244 51.6131 37.7244 50.7463C37.7244 50.4367 37.3529 50.1272 36.9195 50.1272C36.0527 50.1272 34.6287 46.7838 34.6287 44.8025C34.6287 44.1834 35.4336 45.2978 36.4861 47.2791C37.4768 49.3223 38.1578 51.1797 38.034 51.4274C37.6006 52.0465 42.4918 56.9378 43.5444 56.9378C44.0397 56.9378 44.7827 57.0616 45.278 57.1854C45.7114 57.3712 47.5688 56.8758 49.3024 56.1329ZM31.9664 47.6506C30.2328 46.1647 29.7994 45.2359 29.4898 42.8832C29.366 41.2115 28.9945 39.4779 28.8087 38.9207C28.4992 38.2396 29.1802 36.9394 30.8519 35.0201L33.3285 32.172L33.6381 34.1533C34.2572 38.0539 34.381 40.7781 33.9476 40.4685C33.7 40.3447 33.2666 40.4685 33.0808 40.84C32.8332 41.2115 33.0189 41.3972 33.5142 41.3353C34.1334 41.2115 34.2572 41.8926 34.1334 44.0596C34.0096 45.6693 34.2572 47.5887 34.6287 48.2697C35.6193 50.0653 34.443 49.8176 31.9664 47.6506Z" fill="#B3C4A9"/>
<path d="M31.7192 37.6823C32.7098 36.3202 33.3289 34.8961 33.2051 34.4627C32.9574 33.9055 32.8336 33.9055 32.8336 34.5246C32.7717 34.958 32.0287 36.3202 31.1619 37.4965C30.2332 38.6729 29.6141 39.7255 29.7379 39.8493C29.8617 40.035 30.7904 39.0444 31.7192 37.6823Z" fill="#B3C4A9"/>
<path d="M52.398 47.9611C52.398 47.4654 52.1504 47.2176 51.9027 47.4035C51.5932 47.5894 50.7883 47.4035 50.1072 47.0317C49.4262 46.66 48.8689 46.598 48.8689 46.9078C48.8689 47.2176 49.55 47.7752 50.4168 48.147C52.398 49.0763 52.398 49.0763 52.398 47.9611Z" fill="#B3C4A9"/>
<path d="M52.5841 24.2468C52.5841 23.9373 51.8411 23.5039 50.8505 23.3181C49.9218 23.1324 48.6216 22.5132 47.9405 21.956L46.7022 20.9035L47.9405 21.3369C48.6216 21.5226 49.9837 21.8322 51.0362 22.0179C52.0888 22.1418 51.16 21.7084 49.055 21.0273C45.7735 19.9128 45.0924 19.4175 44.2256 17.4363C43.6065 16.198 42.4301 14.4025 41.6252 13.4737C40.5727 12.4212 40.0774 11.1829 40.1393 10.0684C40.2012 9.13973 40.2631 7.7157 40.325 6.97273C40.325 5.73444 40.5108 5.79636 43.3588 7.83953C46.2069 9.82079 49.5503 13.5976 48.4977 13.5976C47.5071 13.5976 42.6778 10.4399 41.8729 9.20165C41.0061 8.02527 40.9442 8.02527 41.068 9.82079C41.1918 12.8546 45.2163 16.3218 51.0362 18.5507C53.8224 19.6033 52.646 18.6126 48.9311 16.7552C45.0305 14.7739 41.4395 11.9878 41.4395 10.9972C41.4395 10.6257 42.1825 10.8733 43.1112 11.4925C45.1544 12.7927 51.9649 16.6933 52.2745 16.6933C52.7079 16.6933 51.4696 13.2261 49.5503 9.07782C48.4977 6.72507 47.6309 4.74381 47.6309 4.61998C47.6309 4.06275 51.4077 6.4155 51.9649 7.2823C52.5222 8.1491 52.5841 8.08719 52.4603 6.78699C52.3364 5.61061 51.7173 5.05338 49.9837 4.49615C48.7454 4.06275 46.5165 2.88638 45.0924 1.83383C41.9967 -0.395083 38.901 -0.580827 36.1768 1.21469L34.3193 2.45298H35.991C37.9104 2.45298 38.9629 4.74381 38.9629 9.0159C38.9629 11.121 39.3963 12.1735 41.1299 14.2167C42.3063 15.6407 43.2969 17.1267 43.2969 17.4982C43.2969 18.6126 46.3926 22.2037 48.1262 23.1324C50.6647 24.4326 52.5841 24.866 52.5841 24.2468ZM49.2407 14.0929C48.993 14.3405 48.8692 14.2786 48.9311 13.9071C49.055 13.5976 48.1882 11.3067 47.0118 8.89208C45.1544 5.17721 44.4114 4.2485 42.1825 3.13404C40.7584 2.45298 38.7772 1.83383 37.8485 1.77192H36.1768L37.7246 1.15278C41.6871 -0.456998 46.2069 2.45298 48.2501 7.77762C48.9311 9.69696 49.9837 12.1116 50.5409 13.1642C51.3458 14.7739 51.3458 15.0216 50.6028 14.4025C50.1075 13.9691 49.4884 13.8452 49.2407 14.0929ZM39.5201 3.56744C39.1487 2.88638 39.0867 2.45298 39.3963 2.57681C39.644 2.70064 40.8203 3.19595 41.9348 3.62935C43.6065 4.31041 45.7735 6.91082 45.7735 8.33485C45.7735 9.07782 40.2012 4.86764 39.5201 3.56744Z" fill="#B3C4A9"/>
</svg>
