<svg width="78" height="214" viewBox="0 0 78 214" fill="none" xmlns="http://www.w3.org/2000/svg">
<path d="M7.27423 5.85158C7.69805 6.28566 7.57515 6.96454 7.13205 7.29427C6.69831 7.71832 6.01987 7.59525 5.69029 7.1518C5.26647 6.71772 5.38937 6.03884 5.83248 5.70911C6.26621 5.28506 6.94466 5.40813 7.27423 5.85158Z" fill="#B3C4A9"/>
<path d="M7.08539 7.24641C6.70987 7.61354 6.13127 7.5397 5.80558 7.18612L5.74422 7.11174L5.73771 7.10552C5.3464 6.70473 5.45683 6.07286 5.87228 5.76337L5.87948 5.75677C6.25503 5.38985 6.83367 5.46349 7.15928 5.81706L7.22065 5.89144L7.22618 5.89776L7.29377 5.97544C7.60305 6.3763 7.48238 6.95055 7.09268 7.24078L7.09161 7.2399L7.08539 7.24641Z" stroke="#B3C4A9" stroke-opacity="0.8" stroke-width="0.133333"/>
<path d="M3.13677 6.35689C3.18362 6.82843 2.75925 7.34678 2.28804 7.3936C1.72258 7.44977 1.29876 7.01569 1.25191 6.54416C1.19569 5.97831 1.53519 5.56363 2.10065 5.50745C2.57186 5.46064 3.08056 5.79105 3.13677 6.35689Z" fill="#B3C4A9"/>
<path d="M2.28128 7.32753C1.75701 7.37951 1.36249 6.97708 1.31862 6.53798C1.29201 6.27017 1.35857 6.04264 1.49434 5.87674C1.63013 5.71088 1.83946 5.6001 2.10701 5.57347C2.54593 5.52987 3.01858 5.8389 3.07074 6.3639C3.09184 6.57781 3.00582 6.80784 2.85539 6.99179C2.70463 7.17593 2.49529 7.30627 2.28128 7.32753Z" stroke="#B3C4A9" stroke-opacity="0.8" stroke-width="0.133333"/>
<path d="M0.120539 9.51221C-0.115343 10.0118 -0.728197 10.5489 -1.29366 10.6051C-1.76487 10.6519 -2.18869 10.2178 -2.23554 9.7463C-2.29176 9.18045 -1.66953 8.73768 -0.821345 8.65341C-0.0673997 8.57851 0.347051 8.91828 0.120539 9.51221Z" fill="#B3C4A9"/>
<path d="M-1.29995 10.539C-1.51249 10.5601 -1.71826 10.4728 -1.87798 10.3216C-2.03774 10.1704 -2.14749 9.9587 -2.16932 9.74017C-2.19449 9.48677 -2.06918 9.25453 -1.82743 9.07223C-1.58501 8.88948 -1.22955 8.76062 -0.814382 8.71937C-0.445607 8.6828 -0.176167 8.74983 -0.0269098 8.88157C0.115647 9.00755 0.164788 9.2086 0.0587954 9.4874C-0.0544826 9.72554 -0.259368 9.9759 -0.505046 10.1735C-0.752156 10.3721 -1.03462 10.5126 -1.29995 10.539Z" stroke="#B3C4A9" stroke-opacity="0.8" stroke-width="0.133333"/>
<path d="M11.5224 9.33057C11.2865 9.8302 10.6737 10.3673 10.1082 10.4235C9.63698 10.4703 9.21316 10.0362 9.16631 9.56465C9.1101 8.99881 9.73232 8.55604 10.5805 8.47177C11.3345 8.39687 11.7489 8.73664 11.5224 9.33057Z" fill="#B3C4A9"/>
<path d="M10.1019 10.3573C9.88937 10.3785 9.68359 10.2912 9.52387 10.14C9.36411 9.98872 9.25437 9.77706 9.23254 9.55853C9.20736 9.30513 9.33268 9.07289 9.57443 8.89059C9.81684 8.70784 10.1723 8.57898 10.5875 8.53773C10.9562 8.50116 11.2257 8.56819 11.3749 8.69993C11.5175 8.82591 11.5666 9.02696 11.4607 9.30575C11.3474 9.5439 11.1425 9.79426 10.8968 9.99181C10.6497 10.1904 10.3672 10.3309 10.1019 10.3573Z" stroke="#B3C4A9" stroke-opacity="0.8" stroke-width="0.133333"/>
<path d="M13.3101 12.9599C13.357 13.4315 12.9326 13.9498 12.4614 13.9966C11.8959 14.0528 11.4721 13.6187 11.4252 13.1472C11.369 12.5813 11.7085 12.1667 12.274 12.1105C12.7452 12.0637 13.2539 12.3941 13.3101 12.9599Z" fill="#B3C4A9"/>
<path d="M12.4546 13.9306C11.9303 13.9825 11.5358 13.5801 11.492 13.141C11.4654 12.8732 11.5319 12.6457 11.6677 12.4798C11.8035 12.3139 12.0128 12.2031 12.2803 12.1765C12.7193 12.1329 13.1919 12.4419 13.2441 12.9669C13.2652 13.1808 13.1792 13.4109 13.0287 13.5948C12.878 13.779 12.6686 13.9093 12.4546 13.9306Z" stroke="#B3C4A9" stroke-opacity="0.8" stroke-width="0.133333"/>
<path d="M13.7316 17.2009C13.8065 17.955 13.4009 18.6617 12.9296 18.7085C12.3642 18.7647 11.9217 18.1423 11.8467 17.3881C11.7718 16.634 12.0832 15.9367 12.6487 15.8805C13.1199 15.8337 13.6567 16.4467 13.7316 17.2009Z" fill="#B3C4A9"/>
<path d="M12.9229 18.6425C12.6694 18.6676 12.438 18.5417 12.257 18.3112C12.0756 18.0801 11.9499 17.7485 11.9134 17.3816C11.8769 17.0146 11.9349 16.6649 12.0674 16.4026C12.1995 16.1409 12.4016 15.972 12.6551 15.9468C12.8595 15.9264 13.0926 16.0499 13.2881 16.2833C13.4818 16.5146 13.6294 16.8438 13.6655 17.2075C13.7016 17.5713 13.6217 17.9231 13.4773 18.188C13.3316 18.4553 13.1274 18.6222 12.9229 18.6425Z" stroke="#B3C4A9" stroke-opacity="0.8" stroke-width="0.133333"/>
<path d="M1.7149 20.7734C1.76175 21.2449 1.33738 21.7633 0.866162 21.8101C0.300703 21.8663 -0.123118 21.4322 -0.169966 20.9607C-0.226183 20.3948 0.113311 19.9801 0.67877 19.924C1.14999 19.8771 1.65868 20.2076 1.7149 20.7734Z" fill="#B3C4A9"/>
<path d="M0.859404 21.744C0.335134 21.796 -0.0593895 21.3936 -0.103255 20.9545C-0.129862 20.6867 -0.0633066 20.4591 0.0724674 20.2932C0.208254 20.1274 0.417587 20.0166 0.685135 19.99C1.12405 19.9464 1.5967 20.2554 1.64886 20.7804C1.66996 20.9943 1.58394 21.2243 1.43351 21.4083C1.28276 21.5924 1.07342 21.7228 0.859404 21.744Z" stroke="#B3C4A9" stroke-opacity="0.8" stroke-width="0.133333"/>
<path d="M11.5994 20.6475C12.0232 21.0816 11.9004 21.7604 11.4572 22.0902C11.0235 22.5142 10.3451 22.3911 10.0155 21.9477C9.59167 21.5136 9.71457 20.8347 10.1577 20.505C10.5914 20.081 11.2699 20.204 11.5994 20.6475Z" fill="#B3C4A9"/>
<path d="M11.4106 22.0423C11.0351 22.4094 10.4565 22.3356 10.1308 21.982L10.0694 21.9076L10.0629 21.9014C9.6716 21.5006 9.78202 20.8688 10.1975 20.5593L10.2047 20.5527C10.5802 20.1857 11.1589 20.2594 11.4845 20.613L11.5458 20.6873L11.5514 20.6937L11.619 20.7713C11.9282 21.1722 11.8076 21.7464 11.4179 22.0367L11.4168 22.0358L11.4106 22.0423Z" stroke="#B3C4A9" stroke-opacity="0.8" stroke-width="0.133333"/>
<path d="M5.0965 22.2446C5.52032 22.6787 5.39742 23.3576 4.95431 23.6873C4.52058 24.1114 3.84213 23.9883 3.51256 23.5449C3.08874 23.1108 3.21164 22.4319 3.65474 22.1022C4.08848 21.6781 4.76692 21.8012 5.0965 22.2446Z" fill="#B3C4A9"/>
<path d="M4.90766 23.6395C4.53214 24.0066 3.95354 23.9328 3.62785 23.5792L3.56648 23.5048L3.55998 23.4986C3.16867 23.0978 3.27909 22.4659 3.69455 22.1564L3.70174 22.1498C4.07729 21.7829 4.65593 21.8566 4.98155 22.2101L5.04291 22.2845L5.04845 22.2908L5.11603 22.3685C5.42531 22.7694 5.30464 23.3436 4.91495 23.6338L4.91388 23.633L4.90766 23.6395Z" stroke="#B3C4A9" stroke-opacity="0.8" stroke-width="0.133333"/>
<mask id="path-19-inside-1_129_10615" fill="white">
<path d="M11.6707 27.1118C20.0378 42.3632 26.8136 70.3342 24.8467 81.1879C24.5534 83.0252 24.3356 84.6646 24.5335 84.7401C25.3622 85.4191 37.9393 59.7125 37.7426 57.7336C37.6116 56.4143 38.1226 52.9377 38.9726 49.9983C40.059 45.608 41.7096 43.0649 46.9336 37.2168C50.5356 33.2427 53.8169 29.8714 54.2881 29.8246C55.3246 29.7216 55.1014 39.9263 53.9294 45.3719C52.644 51.5901 49.5412 55.8001 43.8666 59.0284C39.5494 61.551 38.7007 62.5869 32.0589 75.2374C26.1342 86.4844 24.4449 90.5539 22.1866 100.39C19.4371 111.987 12.8573 131.008 9.00814 138.242C7.97971 140.343 7.29077 142.029 7.47923 142.01C8.70427 141.888 21.2803 132.455 23.3265 130.063C27.4378 125.467 33.4087 115.643 38.6451 105.131C41.3341 99.6294 44.9473 92.8945 46.5699 90.0687C48.2017 87.3371 49.3531 84.5582 49.0991 83.9173C48.8451 83.2764 49.1659 82.6735 49.7313 82.6173C50.2024 82.5705 50.711 82.9006 50.7579 83.3718C50.8047 83.843 51.5766 84.9082 52.509 85.6721C54.1572 86.9358 54.1665 87.03 52.5365 86.9065C51.1985 86.8491 49.5859 88.8174 46.6804 94.0546C40.4355 104.953 32.5575 120.486 33.123 120.43C33.4057 120.401 35.998 118.716 38.8449 116.721C42.2386 114.48 44.4827 112.164 44.9738 110.402C46.6356 105.098 54.5449 99.4589 63.7336 97.1185C68.1912 96.0095 68.2849 96.9518 64.5399 103.319C61.2855 108.877 55.488 112.783 50.5504 112.893C48.4586 112.911 45.6403 114.237 41.7188 116.911C38.5136 119.133 34.9221 121.298 33.6403 121.806C32.4527 122.304 29.0772 125.685 26.2858 129.198C22.476 133.954 19.3176 136.647 13.756 140.054L6.29979 144.506L2.55243 154.68C0.53241 160.21 -1.08198 165.034 -1.05389 165.316C-1.0258 165.599 0.642924 164.196 2.63241 162.19C4.71613 160.175 7.79897 157.68 9.49578 156.56C11.1926 155.44 13.1159 153.726 13.6726 152.624C14.2386 151.616 15.9828 150.015 17.4157 149.112C19.6498 147.653 20.8655 147.437 25.7744 147.996C28.9402 148.252 31.5688 148.848 31.6063 149.225C31.6905 150.073 23.828 156.183 21.2737 157.293C20.0768 157.698 17.7022 157.743 15.9405 157.252C11.8423 156.232 9.15569 157.926 2.4702 165.347C-3.1026 171.515 -3.94318 174.549 -6.62385 196.417C-8.31924 210.004 -8.96198 213.113 -10.2051 212.094C-10.6102 211.849 -10.3818 208.401 -9.72908 204.434C-9.067 200.562 -7.88389 192.355 -7.06021 186.278C-6.23653 180.201 -4.31767 170.78 -2.75945 165.391C-0.303885 156.582 -0.0767477 155.037 -1.11962 150.287C-3.1205 140.684 -10.1133 127.77 -16.6392 121.472C-18.6356 119.577 -19.963 117.71 -19.6236 117.296C-18.7749 116.26 -12.5316 122.586 -8.62492 128.384C-4.15341 135.077 -0.333393 143.833 0.125358 148.45C0.331327 150.524 0.782548 152.192 1.15012 152.06C1.62129 152.013 2.81946 149.705 3.86722 146.842C4.91498 143.978 7.88792 136.545 10.3984 130.205C14.9945 118.995 15.0607 118.703 13.7538 114.17C9.5418 99.5525 6.85828 96.4884 -7.74241 89.3742C-13.7428 86.4493 -17.1814 85.3635 -20.9976 85.2668C-26.9056 85.1877 -31.5967 82.9892 -35.0616 78.7655C-38.7336 74.3722 -38.4597 73.2982 -33.8422 72.8394C-26.3884 72.194 -18.3535 76.4394 -16.3596 82.1415C-15.9645 83.2442 -14.307 84.6021 -12.7431 85.0177C-11.1698 85.5276 -6.77076 87.6599 -2.84288 89.8391C0.981414 91.9334 4.18413 93.5185 4.15604 93.2358C4.07178 92.3877 -9.09993 75.7104 -15.0979 68.9787C-19.834 63.4539 -21.9814 61.9543 -26.5315 60.2176C-32.4664 57.9524 -37.7504 54.5756 -37.9189 52.8794C-38.0593 51.4659 -33.1649 45.1747 -31.7607 44.94C-24.9566 43.5027 -21.6303 43.4577 -20.3591 44.7589C-17.8447 47.0785 -17.1963 49.7738 -17.5775 56.4731L-17.9868 62.8898L-13.8248 67.4248C-0.79294 81.7369 11.5107 100.213 14.4633 109.817C16.466 116.565 16.3718 116.574 19.8295 102.527C22.1347 93.1625 22.1827 91.7303 20.8934 89.289C20.0839 87.8468 18.7278 86.6492 17.8797 86.7335C15.3354 86.9863 11.9636 84.6567 9.69506 80.9803C7.55822 77.6716 4.46399 68.5578 5.1336 67.6348C5.7277 66.9096 13.6584 72.0219 16.6059 74.8694C18.3008 76.6043 19.3643 78.6874 19.73 81.4108C20.3211 85.4441 22.2126 89.1579 23.1462 88.0183C23.3915 87.6133 23.3664 82.5721 23.0593 76.6073L22.5574 65.8086L17.8968 60.086C15.2982 56.9183 9.19602 51.0534 4.41189 46.9608C-0.381597 42.7741 -3.66796 39.3892 -2.91409 39.3143C-1.02943 39.127 12.1928 50.5653 17.2865 56.8159C19.452 59.4556 21.4671 61.5394 21.5426 61.3415C22.6553 60.089 14.7456 36.9888 10.5293 29.0333C7.3484 22.8782 7.36713 23.0667 8.49793 22.9543C8.9691 22.9075 10.3907 24.7647 11.6707 27.1118ZM46.6771 40.3826C42.7824 45.2423 41.075 48.1716 40.4697 51.6577C39.1181 58.1679 39.3815 58.9031 41.6923 55.3427C42.7582 53.6191 44.0781 52.5363 44.5018 52.97C44.9162 53.3095 44.397 54.7885 43.2088 56.2389L41.2 59.0079L43.9714 57.2099C48.4397 54.2917 51.7128 48.9229 52.3855 43.2414C53.4937 34.2811 53.5317 33.7063 52.6836 33.7906C52.3067 33.828 49.5534 36.7661 46.6771 40.3826ZM-29.8966 47.4194C-29.5783 50.6233 -20.5492 62.0024 -19.766 60.3068C-19.5301 59.8075 -19.3117 57.2164 -19.2063 54.4462C-19.0229 47.6714 -20.7741 45.3711 -26.1548 45.8105C-28.8969 45.9878 -29.9902 46.477 -29.8966 47.4194ZM-35.9968 53.0691C-35.9219 53.823 -26.4835 58.7854 -25.4469 58.6824C-25.1642 58.6543 -26.1714 57.1366 -27.5931 55.2794C-29.0996 53.5258 -30.6904 50.9241 -31.2171 49.4538L-32.0353 46.9657L-34.0628 49.5462C-35.1568 50.9872 -36.0436 52.5979 -35.9968 53.0691ZM9.71623 77.362C11.7301 81.3491 15.3367 85.0829 16.9386 84.9237C17.504 84.8675 17.1464 84.1417 16.2047 83.2837C15.1687 82.435 14.3687 81.087 14.2938 80.3331C14.2095 79.485 15.0102 79.8813 16.2814 81.1825C17.9858 83.0116 18.3721 83.0683 18.2316 81.6548C17.9601 78.9221 15.8888 76.2729 11.7918 73.3493C7.39337 70.2652 6.66698 71.5745 9.71623 77.362ZM-33.7791 77.3058C-30.5496 81.077 -27.9122 82.7183 -24.332 83.3142C-21.3265 83.8721 -21.2416 83.7685 -22.9653 82.7026C-25.904 80.901 -24.2921 79.8843 -21.1836 81.4788C-17.5571 83.4976 -17.2832 82.4236 -20.7487 79.1516C-24.1199 75.8704 -28.2743 74.2847 -32.7126 74.6305L-35.8223 74.9394L-33.7791 77.3058ZM53.7037 103.444C51.9882 104.376 49.6124 106.325 48.5278 107.86C46.0852 111.053 47.2535 111.317 50.073 108.087C51.1857 106.835 52.3545 106.148 52.7689 106.487C53.1833 106.827 52.636 108.023 51.4104 109.096L49.2418 111.215L51.4091 111C54.99 110.644 59.6093 107.33 62.2503 103.261C63.6556 101.123 64.7028 99.211 64.6747 98.9283C64.6185 98.3629 58.0303 101.016 53.7037 103.444ZM16.7542 152.032C15.7357 153.276 15.8393 153.36 17.6772 152.702C19.1475 152.175 19.628 152.223 19.2318 153.023C18.9204 153.72 18.0248 154.285 17.271 154.36C16.5171 154.435 16.187 154.944 16.5258 155.481C17.8345 157.159 28.1178 152.426 27.9118 150.353C27.7058 148.28 18.7062 149.65 16.7542 152.032Z"/>
</mask>
<path d="M11.6707 27.1118C20.0378 42.3632 26.8136 70.3342 24.8467 81.1879C24.5534 83.0252 24.3356 84.6646 24.5335 84.7401C25.3622 85.4191 37.9393 59.7125 37.7426 57.7336C37.6116 56.4143 38.1226 52.9377 38.9726 49.9983C40.059 45.608 41.7096 43.0649 46.9336 37.2168C50.5356 33.2427 53.8169 29.8714 54.2881 29.8246C55.3246 29.7216 55.1014 39.9263 53.9294 45.3719C52.644 51.5901 49.5412 55.8001 43.8666 59.0284C39.5494 61.551 38.7007 62.5869 32.0589 75.2374C26.1342 86.4844 24.4449 90.5539 22.1866 100.39C19.4371 111.987 12.8573 131.008 9.00814 138.242C7.97971 140.343 7.29077 142.029 7.47923 142.01C8.70427 141.888 21.2803 132.455 23.3265 130.063C27.4378 125.467 33.4087 115.643 38.6451 105.131C41.3341 99.6294 44.9473 92.8945 46.5699 90.0687C48.2017 87.3371 49.3531 84.5582 49.0991 83.9173C48.8451 83.2764 49.1659 82.6735 49.7313 82.6173C50.2024 82.5705 50.711 82.9006 50.7579 83.3718C50.8047 83.843 51.5766 84.9082 52.509 85.6721C54.1572 86.9358 54.1665 87.03 52.5365 86.9065C51.1985 86.8491 49.5859 88.8174 46.6804 94.0546C40.4355 104.953 32.5575 120.486 33.123 120.43C33.4057 120.401 35.998 118.716 38.8449 116.721C42.2386 114.48 44.4827 112.164 44.9738 110.402C46.6356 105.098 54.5449 99.4589 63.7336 97.1185C68.1912 96.0095 68.2849 96.9518 64.5399 103.319C61.2855 108.877 55.488 112.783 50.5504 112.893C48.4586 112.911 45.6403 114.237 41.7188 116.911C38.5136 119.133 34.9221 121.298 33.6403 121.806C32.4527 122.304 29.0772 125.685 26.2858 129.198C22.476 133.954 19.3176 136.647 13.756 140.054L6.29979 144.506L2.55243 154.68C0.53241 160.21 -1.08198 165.034 -1.05389 165.316C-1.0258 165.599 0.642924 164.196 2.63241 162.19C4.71613 160.175 7.79897 157.68 9.49578 156.56C11.1926 155.44 13.1159 153.726 13.6726 152.624C14.2386 151.616 15.9828 150.015 17.4157 149.112C19.6498 147.653 20.8655 147.437 25.7744 147.996C28.9402 148.252 31.5688 148.848 31.6063 149.225C31.6905 150.073 23.828 156.183 21.2737 157.293C20.0768 157.698 17.7022 157.743 15.9405 157.252C11.8423 156.232 9.15569 157.926 2.4702 165.347C-3.1026 171.515 -3.94318 174.549 -6.62385 196.417C-8.31924 210.004 -8.96198 213.113 -10.2051 212.094C-10.6102 211.849 -10.3818 208.401 -9.72908 204.434C-9.067 200.562 -7.88389 192.355 -7.06021 186.278C-6.23653 180.201 -4.31767 170.78 -2.75945 165.391C-0.303885 156.582 -0.0767477 155.037 -1.11962 150.287C-3.1205 140.684 -10.1133 127.77 -16.6392 121.472C-18.6356 119.577 -19.963 117.71 -19.6236 117.296C-18.7749 116.26 -12.5316 122.586 -8.62492 128.384C-4.15341 135.077 -0.333393 143.833 0.125358 148.45C0.331327 150.524 0.782548 152.192 1.15012 152.06C1.62129 152.013 2.81946 149.705 3.86722 146.842C4.91498 143.978 7.88792 136.545 10.3984 130.205C14.9945 118.995 15.0607 118.703 13.7538 114.17C9.5418 99.5525 6.85828 96.4884 -7.74241 89.3742C-13.7428 86.4493 -17.1814 85.3635 -20.9976 85.2668C-26.9056 85.1877 -31.5967 82.9892 -35.0616 78.7655C-38.7336 74.3722 -38.4597 73.2982 -33.8422 72.8394C-26.3884 72.194 -18.3535 76.4394 -16.3596 82.1415C-15.9645 83.2442 -14.307 84.6021 -12.7431 85.0177C-11.1698 85.5276 -6.77076 87.6599 -2.84288 89.8391C0.981414 91.9334 4.18413 93.5185 4.15604 93.2358C4.07178 92.3877 -9.09993 75.7104 -15.0979 68.9787C-19.834 63.4539 -21.9814 61.9543 -26.5315 60.2176C-32.4664 57.9524 -37.7504 54.5756 -37.9189 52.8794C-38.0593 51.4659 -33.1649 45.1747 -31.7607 44.94C-24.9566 43.5027 -21.6303 43.4577 -20.3591 44.7589C-17.8447 47.0785 -17.1963 49.7738 -17.5775 56.4731L-17.9868 62.8898L-13.8248 67.4248C-0.79294 81.7369 11.5107 100.213 14.4633 109.817C16.466 116.565 16.3718 116.574 19.8295 102.527C22.1347 93.1625 22.1827 91.7303 20.8934 89.289C20.0839 87.8468 18.7278 86.6492 17.8797 86.7335C15.3354 86.9863 11.9636 84.6567 9.69506 80.9803C7.55822 77.6716 4.46399 68.5578 5.1336 67.6348C5.7277 66.9096 13.6584 72.0219 16.6059 74.8694C18.3008 76.6043 19.3643 78.6874 19.73 81.4108C20.3211 85.4441 22.2126 89.1579 23.1462 88.0183C23.3915 87.6133 23.3664 82.5721 23.0593 76.6073L22.5574 65.8086L17.8968 60.086C15.2982 56.9183 9.19602 51.0534 4.41189 46.9608C-0.381597 42.7741 -3.66796 39.3892 -2.91409 39.3143C-1.02943 39.127 12.1928 50.5653 17.2865 56.8159C19.452 59.4556 21.4671 61.5394 21.5426 61.3415C22.6553 60.089 14.7456 36.9888 10.5293 29.0333C7.3484 22.8782 7.36713 23.0667 8.49793 22.9543C8.9691 22.9075 10.3907 24.7647 11.6707 27.1118ZM46.6771 40.3826C42.7824 45.2423 41.075 48.1716 40.4697 51.6577C39.1181 58.1679 39.3815 58.9031 41.6923 55.3427C42.7582 53.6191 44.0781 52.5363 44.5018 52.97C44.9162 53.3095 44.397 54.7885 43.2088 56.2389L41.2 59.0079L43.9714 57.2099C48.4397 54.2917 51.7128 48.9229 52.3855 43.2414C53.4937 34.2811 53.5317 33.7063 52.6836 33.7906C52.3067 33.828 49.5534 36.7661 46.6771 40.3826ZM-29.8966 47.4194C-29.5783 50.6233 -20.5492 62.0024 -19.766 60.3068C-19.5301 59.8075 -19.3117 57.2164 -19.2063 54.4462C-19.0229 47.6714 -20.7741 45.3711 -26.1548 45.8105C-28.8969 45.9878 -29.9902 46.477 -29.8966 47.4194ZM-35.9968 53.0691C-35.9219 53.823 -26.4835 58.7854 -25.4469 58.6824C-25.1642 58.6543 -26.1714 57.1366 -27.5931 55.2794C-29.0996 53.5258 -30.6904 50.9241 -31.2171 49.4538L-32.0353 46.9657L-34.0628 49.5462C-35.1568 50.9872 -36.0436 52.5979 -35.9968 53.0691ZM9.71623 77.362C11.7301 81.3491 15.3367 85.0829 16.9386 84.9237C17.504 84.8675 17.1464 84.1417 16.2047 83.2837C15.1687 82.435 14.3687 81.087 14.2938 80.3331C14.2095 79.485 15.0102 79.8813 16.2814 81.1825C17.9858 83.0116 18.3721 83.0683 18.2316 81.6548C17.9601 78.9221 15.8888 76.2729 11.7918 73.3493C7.39337 70.2652 6.66698 71.5745 9.71623 77.362ZM-33.7791 77.3058C-30.5496 81.077 -27.9122 82.7183 -24.332 83.3142C-21.3265 83.8721 -21.2416 83.7685 -22.9653 82.7026C-25.904 80.901 -24.2921 79.8843 -21.1836 81.4788C-17.5571 83.4976 -17.2832 82.4236 -20.7487 79.1516C-24.1199 75.8704 -28.2743 74.2847 -32.7126 74.6305L-35.8223 74.9394L-33.7791 77.3058ZM53.7037 103.444C51.9882 104.376 49.6124 106.325 48.5278 107.86C46.0852 111.053 47.2535 111.317 50.073 108.087C51.1857 106.835 52.3545 106.148 52.7689 106.487C53.1833 106.827 52.636 108.023 51.4104 109.096L49.2418 111.215L51.4091 111C54.99 110.644 59.6093 107.33 62.2503 103.261C63.6556 101.123 64.7028 99.211 64.6747 98.9283C64.6185 98.3629 58.0303 101.016 53.7037 103.444ZM16.7542 152.032C15.7357 153.276 15.8393 153.36 17.6772 152.702C19.1475 152.175 19.628 152.223 19.2318 153.023C18.9204 153.72 18.0248 154.285 17.271 154.36C16.5171 154.435 16.187 154.944 16.5258 155.481C17.8345 157.159 28.1178 152.426 27.9118 150.353C27.7058 148.28 18.7062 149.65 16.7542 152.032Z" fill="#B3C4A9" stroke="#B3C4A9" stroke-opacity="0.8" stroke-width="0.266667" mask="url(#path-19-inside-1_129_10615)"/>
<path d="M58.2178 72.2568C58.2647 72.7283 57.8403 73.2467 57.3691 73.2935C56.8036 73.3497 56.3798 72.9156 56.333 72.4441C56.2767 71.8782 56.6162 71.4635 57.1817 71.4074C57.6529 71.3605 58.1616 71.691 58.2178 72.2568Z" fill="#B3C4A9"/>
<path d="M57.3623 73.2274C56.8381 73.2794 56.4435 72.877 56.3997 72.4379C56.3731 72.1701 56.4396 71.9425 56.5754 71.7766C56.7112 71.6108 56.9205 71.5 57.1881 71.4734C57.627 71.4298 58.0996 71.7388 58.1518 72.2638C58.1729 72.4777 58.0869 72.7077 57.9364 72.8917C57.7857 73.0758 57.5763 73.2062 57.3623 73.2274Z" stroke="#B3C4A9" stroke-opacity="0.8" stroke-width="0.133333"/>
<path d="M54.5425 73.5737C54.5894 74.0452 54.165 74.5636 53.6938 74.6104C53.1283 74.6666 52.7045 74.2325 52.6577 73.761C52.6015 73.1951 52.9409 72.7804 53.5064 72.7243C53.9776 72.6774 54.4863 73.0078 54.5425 73.5737Z" fill="#B3C4A9"/>
<path d="M53.687 74.5443C53.1628 74.5963 52.7682 74.1939 52.7244 73.7548C52.6978 73.487 52.7643 73.2594 52.9001 73.0935C53.0359 72.9277 53.2452 72.8169 53.5128 72.7903C53.9517 72.7467 54.4243 73.0557 54.4765 73.5807C54.4976 73.7946 54.4116 74.0246 54.2612 74.2086C54.1104 74.3927 53.9011 74.5231 53.687 74.5443Z" stroke="#B3C4A9" stroke-opacity="0.8" stroke-width="0.133333"/>
<path d="M62.1749 73.768C62.2217 74.2396 61.7973 74.7579 61.3261 74.8047C60.7607 74.8609 60.3368 74.4268 60.29 73.9553C60.2338 73.3894 60.5733 72.9748 61.1387 72.9186C61.6099 72.8718 62.1186 73.2022 62.1749 73.768Z" fill="#B3C4A9"/>
<path d="M61.3194 74.7387C60.7951 74.7906 60.4006 74.3882 60.3567 73.9491C60.3301 73.6813 60.3967 73.4538 60.5324 73.2879C60.6682 73.122 60.8775 73.0112 61.1451 72.9846C61.584 72.941 62.0567 73.25 62.1088 73.775C62.1299 73.9889 62.0439 74.219 61.8935 74.4029C61.7427 74.5871 61.5334 74.7174 61.3194 74.7387Z" stroke="#B3C4A9" stroke-opacity="0.8" stroke-width="0.133333"/>
<path d="M51.94 76.1169C52.0243 76.9653 51.6186 77.672 51.1474 77.7188C50.582 77.775 50.1675 77.4353 50.1207 76.964C50.0645 76.3984 50.3759 75.7011 50.9133 75.3621C51.3564 75.0325 51.8651 75.3627 51.94 76.1169Z" fill="#B3C4A9"/>
<path d="M51.1407 77.6527C50.6073 77.7056 50.2301 77.3875 50.1874 76.9574C50.137 76.4502 50.3973 75.8277 50.8545 75.4839L50.9491 75.4185L50.9527 75.4152C51.1529 75.2663 51.3595 75.27 51.526 75.3877C51.6971 75.5086 51.8377 75.7585 51.8739 76.1235C51.9149 76.5359 51.8363 76.9115 51.6931 77.1876C51.5486 77.4661 51.3447 77.6325 51.1407 77.6527Z" stroke="#B3C4A9" stroke-opacity="0.8" stroke-width="0.133333"/>
<path d="M63.4908 77.4433C63.5376 77.9149 63.1133 78.4332 62.642 78.48C62.0766 78.5362 61.6528 78.1021 61.6059 77.6306C61.5497 77.0647 61.8892 76.6501 62.4546 76.5939C62.9259 76.5471 63.4346 76.8775 63.4908 77.4433Z" fill="#B3C4A9"/>
<path d="M62.6353 78.414C62.111 78.4659 61.7165 78.0635 61.6726 77.6244C61.646 77.3566 61.7126 77.1291 61.8483 76.9632C61.9841 76.7973 62.1935 76.6865 62.461 76.6599C62.8999 76.6163 63.3726 76.9253 63.4247 77.4503C63.4458 77.6642 63.3598 77.8943 63.2094 78.0782C63.0586 78.2624 62.8493 78.3927 62.6353 78.414Z" stroke="#B3C4A9" stroke-opacity="0.8" stroke-width="0.133333"/>
<path d="M50.3926 79.6967C50.4395 80.1683 50.0151 80.6866 49.5439 80.7334C48.9784 80.7896 48.5546 80.3555 48.5078 79.884C48.4516 79.3182 48.791 78.9035 49.3565 78.8473C49.8277 78.8005 50.3364 79.1309 50.3926 79.6967Z" fill="#B3C4A9"/>
<path d="M49.5371 80.6674C49.0129 80.7194 48.6183 80.3169 48.5745 79.8778C48.5479 79.61 48.6144 79.3825 48.7502 79.2166C48.886 79.0507 49.0953 78.9399 49.3629 78.9133C49.8018 78.8697 50.2744 79.1787 50.3266 79.7037C50.3477 79.9177 50.2617 80.1477 50.1112 80.3316C49.9605 80.5158 49.7512 80.6461 49.5371 80.6674Z" stroke="#B3C4A9" stroke-opacity="0.8" stroke-width="0.133333"/>
<path d="M62.9234 81.3056C62.9702 81.7772 62.5459 82.2955 61.9804 82.3517C61.5092 82.3985 61.2739 81.9457 61.5097 81.4461C61.7363 80.8521 62.17 80.4281 62.4527 80.4C62.6412 80.3813 62.8672 80.7398 62.9234 81.3056Z" fill="#B3C4A9"/>
<path d="M61.9736 82.2856C61.7631 82.3065 61.614 82.2163 61.5393 82.0726C61.4726 81.9441 61.4609 81.7632 61.5337 81.5619L61.5702 81.4749L61.5717 81.4698C61.6819 81.1807 61.8431 80.9334 62.0091 80.7561C62.1777 80.5761 62.3425 80.4776 62.4592 80.466C62.483 80.4637 62.5154 80.4728 62.5554 80.5055C62.5954 80.5383 62.6383 80.5917 62.6793 80.6659C62.7609 80.8142 62.8299 81.0364 62.8574 81.3126C62.8999 81.7435 62.5063 82.2327 61.9736 82.2856Z" stroke="#B3C4A9" stroke-opacity="0.8" stroke-width="0.133333"/>
<path d="M61.4131 85.2631C61.46 85.7347 61.0356 86.253 60.5644 86.2998C59.9989 86.356 59.5751 85.9219 59.5283 85.4504C59.4721 84.8846 59.8116 84.4699 60.377 84.4137C60.8482 84.3669 61.3569 84.6973 61.4131 85.2631Z" fill="#B3C4A9"/>
<path d="M60.5576 86.2338C60.0334 86.2858 59.6389 85.8833 59.595 85.4442C59.5684 85.1764 59.6349 84.9489 59.7707 84.783C59.9065 84.6171 60.1158 84.5063 60.3834 84.4797C60.8223 84.4361 61.2949 84.7451 61.3471 85.2702C61.3682 85.4841 61.2822 85.7141 61.1318 85.898C60.981 86.0822 60.7717 86.2125 60.5576 86.2338Z" stroke="#B3C4A9" stroke-opacity="0.8" stroke-width="0.133333"/>
<path d="M57.2578 86.5325C57.5874 86.9757 57.4644 87.6543 56.9364 88.0876C56.4933 88.4172 55.9846 88.0869 55.9097 87.3328C55.7411 85.636 56.2785 85.297 57.2578 86.5325Z" fill="#B3C4A9"/>
<path d="M56.8964 88.0343C56.6962 88.183 56.4895 88.1794 56.323 88.0618C56.1522 87.9407 56.0123 87.6905 55.9761 87.3259C55.9343 86.9046 55.9366 86.5715 55.9771 86.3287C56.0184 86.0824 56.0961 85.9451 56.1877 85.8897C56.2736 85.8379 56.398 85.8442 56.5749 85.9543C56.7069 86.0365 56.8593 86.1716 57.0297 86.3635L57.2056 86.5737C57.5068 86.9808 57.4025 87.6189 56.8974 88.0351L56.8964 88.0343Z" stroke="#B3C4A9" stroke-opacity="0.8" stroke-width="0.133333"/>
</svg>
