<svg width="156" height="260" viewBox="0 0 156 260" fill="none" xmlns="http://www.w3.org/2000/svg">
<path d="M124.189 0.246104C119.86 0.765538 116.917 2.26613 113.512 5.72902C109.703 9.53821 107.798 13.636 105.432 23.0435C104.393 27.3144 103.296 31.1813 103.008 31.643C102.373 32.7396 91.2916 43.186 91.2916 42.6666C91.2916 42.4357 90.4258 43.4169 89.4447 44.8598C88.4058 46.3026 85.9818 49.6501 84.0772 52.2473C82.2303 54.9022 79.5177 58.9999 78.1325 61.424C76.7474 63.7903 75.7662 65.1177 75.9394 64.3097C76.1702 63.5017 76.5742 60.6737 76.9205 57.9611C77.7863 51.093 78.8251 47.7455 81.5377 43.4746C85.3469 37.3568 86.2704 34.9328 86.5589 30.2002C86.7898 26.2178 86.6166 25.4098 84.7698 20.6772C82.1149 14.1554 81.4223 11.0965 82.1149 8.7302C82.7497 6.4216 82.8075 6.59475 81.7686 6.59475C80.3834 6.59475 77.3822 13.2897 76.2279 19.0035C74.9582 25.179 74.9005 27.7184 75.8239 41.9163C76.8051 57.153 76.0548 64.0788 72.5342 72.1012C71.149 75.2755 69.3599 79.8927 68.5519 82.2013L67.109 86.53L67.0513 81.7396C67.0513 77.5841 67.3398 76.3144 69.1867 71.6395C71.6108 65.4063 71.8416 62.232 70.0524 58.7691C68.6673 56.0565 66.7627 54.4404 59.4906 49.7078C56.7203 47.9187 53.546 45.6678 52.334 44.6289C49.9676 42.4934 47.4282 37.934 47.4282 35.7408C47.4282 34.8751 47.1973 34.3556 46.851 34.5865C46.5048 34.7596 46.3893 35.5099 46.6202 36.2602C46.7933 36.9528 46.3893 39.0883 45.6967 40.9929C45.0042 42.8397 43.7921 46.0718 43.0419 48.1495C40.5601 55.0176 41.4258 60.3851 46.043 66.2143C49.2751 70.3698 54.4694 73.8327 59.8946 75.391C65.3775 77.007 65.7815 77.3533 65.897 80.7585C66.1278 87.0494 66.4741 86.4722 60.01 89.8197C56.4894 91.6089 52.8534 93.9752 51.0642 95.6489C49.3905 97.2649 48.0053 98.3038 48.0053 97.9575C48.0053 97.2649 50.0254 95.0718 50.9488 94.7832C51.4682 94.61 51.2951 93.802 50.1985 91.9552C47.659 87.6265 44.6579 85.2025 37.5012 81.6242C29.1325 77.4687 27.2857 76.199 26.2468 73.6595C25.7851 72.5629 25.3811 71.7549 25.2656 71.8704C25.2079 71.9858 25.2656 78.3344 25.4965 85.9528C25.9005 101.19 26.3622 103.614 29.9983 108.923C33.1726 113.483 36.3469 115.791 43.3881 118.619C47.0819 120.062 47.1973 120.178 49.3328 124.449C51.2374 128.142 51.4682 129.008 50.8911 130.047C49.9099 131.894 48.5825 139.512 48.5248 143.552L48.4671 147.131L47.4282 142.513C43.5613 125.603 31.4989 111.232 17.301 106.73C11.9335 105.056 11.2409 104.999 5.4117 106.211C1.02537 107.076 -1.74495 108.404 1.25623 108.173C5.0077 107.884 5.70028 108.173 9.45175 111.867C13.8381 116.253 16.089 117.003 20.3022 115.503C27.0548 113.137 29.1325 113.598 33.7497 118.446C39.9252 125.084 44.3116 133.683 46.5625 143.668C47.9476 149.786 50.5448 159.482 51.6991 162.714L52.1031 163.868L51.1797 162.714C50.6602 162.079 48.3516 158.847 46.043 155.499C42.0607 149.786 41.7721 149.093 40.5024 143.379C39.7521 140.032 38.8864 136.684 38.5978 135.876C37.0395 132.298 33.9806 128.316 31.7297 126.815C29.4211 125.372 28.7285 125.257 20.8793 124.91C14.5307 124.68 12.1644 124.391 11.0678 123.641C10.2598 123.121 9.04774 122.544 8.35517 122.371C7.14315 121.967 7.14315 122.025 7.89345 123.641C8.35517 124.506 8.99003 127.104 9.33632 129.354C10.7215 139.455 15.6272 147.592 22.2645 150.998C26.9971 153.422 29.0748 153.883 35.5966 153.826C41.3104 153.768 45.1196 154.403 45.1196 155.442C45.1196 155.615 46.5625 157.75 48.2939 160.117C51.4105 164.33 56.8357 174.718 58.9712 180.605C59.606 182.164 60.3563 185.165 60.7026 187.243C61.0489 189.32 61.5106 191.513 61.6838 192.148C61.9146 193.014 61.5106 192.841 59.8369 191.283C58.5672 190.071 56.778 187.3 55.4506 184.472C52.334 177.777 49.0442 175.065 43.0996 174.257C37.8475 173.564 34.7309 172.698 34.2115 171.775C33.9229 171.256 33.4612 170.967 33.288 171.198C32.5954 171.89 35.7121 176.623 38.3092 178.816C39.6367 179.97 43.3304 182.221 46.5048 183.895C57.3552 189.378 61.2798 192.725 62.4341 197.227C63.2998 200.517 67.2244 212.233 68.7827 216.1C69.4753 217.831 69.937 219.159 69.7639 218.986C69.6484 218.813 68.3787 217.254 66.9358 215.523C63.4152 211.137 62.4341 210.155 55.6237 204.095C52.2762 201.094 49.3905 198.959 49.0442 199.132C48.6402 199.42 48.8711 199.94 49.7945 200.632C64.0501 211.714 68.3787 216.85 75.7085 231.51C78.5365 237.166 82.1149 243.63 83.6155 245.939C87.9441 252.403 93.6579 259.386 94.5813 259.386C95.1585 259.386 94.8122 258.636 93.4847 257.193C86.7321 249.748 75.9394 230.76 70.5719 217.023C68.4364 211.598 68.1479 210.386 68.4941 208.078C69.129 203.634 70.1679 202.075 75.9394 196.246C84.0195 188.166 86.7321 183.433 87.5978 176.046C88.0018 172.468 87.3669 163.002 86.6744 163.002C86.4435 163.002 85.6355 164.618 84.9429 166.581C83.8463 169.524 82.8075 170.967 78.8828 174.892C76.2279 177.489 73.3999 180.778 72.6496 182.164C70.6296 185.569 68.9559 192.264 68.5519 198.497C68.321 201.325 68.0324 204.846 67.8016 206.288L67.4553 208.886L65.7815 203.98C61.7992 192.148 61.2221 183.895 63.7038 175.7C65.3775 170.274 66.8204 167.793 70.3987 164.041C72.1302 162.194 73.2268 160.694 72.8228 160.694C71.6108 160.694 67.3976 165.542 65.4353 169.178C63.3575 173.16 61.8569 178.008 61.8569 180.836C61.7992 185.28 60.7603 181.009 60.2409 174.257C59.6638 166.407 60.1255 163.464 62.9535 157.923C65.089 153.71 67.2821 151.459 69.4176 151.459C70.2833 151.459 72.7651 151.863 74.8428 152.325C79.7486 153.479 82.8652 153.018 86.9052 150.594C90.5413 148.4 93.023 145.976 95.1007 142.629C95.9665 141.301 97.1785 139.628 97.8133 138.935C99.6602 136.915 98.5636 136.742 95.9087 138.704C92.0418 141.532 90.3681 141.821 84.712 140.84C74.6119 139.051 69.129 141.763 66.7627 149.728C66.5318 150.536 65.7238 151.806 65.0312 152.614C63.4152 154.345 60.1255 160.751 60.1255 162.079C60.1255 162.598 59.9523 163.002 59.7215 163.002C59.4329 163.002 59.202 160.751 59.0866 157.923C58.9135 153.652 59.1443 152.267 60.4141 148.574C65.0312 135.645 72.2456 126.122 79.9794 122.602C82.1149 121.621 83.6732 120.582 83.5 120.293C82.6343 118.908 75.7662 123.121 71.6108 127.565C66.6473 132.875 62.3186 140.32 60.0678 147.362L59.0289 150.594V147.131C59.0289 145.226 59.3752 139.743 59.8369 135.011C60.2986 130.22 60.7026 126.18 60.7026 125.949C60.7026 125.776 62.2032 124.737 63.9924 123.756C65.7815 122.717 68.7827 120.409 70.5719 118.562C73.3999 115.791 74.0925 114.637 75.1314 111.117C75.8239 108.866 76.2857 106.211 76.1702 105.287C75.9394 103.729 76.0548 103.556 77.3822 103.556C78.1903 103.614 80.5566 103.96 82.6343 104.422C88.0018 105.576 90.0795 105.46 93.4847 103.787C97.5825 101.767 101.276 97.3804 104.393 90.8586C105.778 87.8574 107.567 84.0482 108.317 82.4899C109.472 80.0659 110.164 79.431 112.358 78.5076C115.07 77.411 118.764 73.6595 117.898 72.7938C117.667 72.5629 115.012 72.9092 112.011 73.5441C109.01 74.2367 104.508 74.9292 101.969 75.0447C84.2503 76.0835 81.884 77.6996 75.3622 92.8786L74.3811 95.1872L73.5731 92.59C72.361 88.7231 72.361 84.7985 73.6885 83.3556C75.1891 81.6819 74.3234 81.9128 71.553 83.9328C70.2833 84.8562 68.9559 85.6642 68.6673 85.6642C67.513 85.6642 72.6496 77.2378 76.2279 73.4287C80.4411 68.8692 84.5966 65.9257 88.4635 64.8291C90.4258 64.252 90.7144 64.0211 89.6755 63.848C87.2515 63.444 82.2303 66.3874 77.844 70.7738C75.5354 73.0824 73.0536 75.7373 72.361 76.7184C70.8605 78.7384 70.8027 78.9116 73.9771 72.1012C78.7674 61.9434 82.5766 57.3839 88.9252 54.2096C93.1961 52.0741 94.0042 52.2473 97.9288 56.4605C101.219 59.9811 101.565 60.2119 104.624 60.5582C110.107 61.2508 112.473 60.3851 118.187 55.8256C120.091 54.2673 122.515 52.6513 123.497 52.2473C126.44 51.0353 125.17 50.689 119.86 51.2661L114.839 51.7856L110.107 49.3615C102.257 45.3215 98.1596 45.4946 92.9653 50.1695C91.811 51.2084 89.2715 52.8821 87.3092 53.921C85.3469 54.9599 83.096 56.5759 82.288 57.4993C79.5177 60.8468 81.0183 58.3073 85.3469 52.3627C90.4258 45.4369 99.2562 36.3179 102.2 35.0482C104.566 34.0671 105.663 34.2979 111.376 37.0105C115.532 39.0306 116.224 39.146 121.303 39.2037C126.209 39.2037 127.133 39.0306 130.191 37.53C135.559 34.9328 139.08 30.8927 143.235 22.6972C145.255 18.7726 147.621 14.444 148.545 13.0588C149.468 11.7314 150.045 10.6348 149.815 10.6348C149.007 10.6348 147.102 13.3474 145.197 17.0989C144.158 19.1766 143.062 21.0812 142.831 21.1966C142.542 21.3698 140.926 21.2543 139.195 21.0235L136.021 20.5041L139.368 20.6772C144.158 20.9081 143.408 20.1 138.387 19.6383C133.193 19.1766 125.574 20.0423 121.592 21.5429C115.936 23.6784 116.282 23.5629 117.667 22.5241C118.36 22.0046 120.726 20.9081 122.862 20.1C124.997 19.292 127.363 18.2532 128.114 17.7914C128.864 17.272 129.787 16.9834 130.134 17.1566C130.538 17.272 133.943 17.2143 137.752 16.9257L144.678 16.5217L137.464 16.6371C130.769 16.7526 130.422 16.7526 132.789 16.06C134.174 15.5983 135.617 14.9634 136.078 14.6171C136.54 14.2131 136.886 14.2131 136.886 14.5017C136.886 14.9057 137.868 14.9057 139.657 14.6171C141.157 14.3286 143.062 14.2131 143.928 14.3863C144.793 14.6171 145.601 14.444 145.832 14.0977C146.525 12.9434 145.659 12.828 141.734 13.4628C139.657 13.8668 137.81 14.04 137.694 13.9245C137.406 13.636 147.794 10.5194 149.584 10.3462C151.892 10.1154 154.778 9.36507 155.067 8.90335C155.24 8.67249 154.085 8.3262 152.527 8.09534C150.911 7.86448 147.333 6.53703 144.043 4.80558C135.617 0.534678 130.884 -0.561906 124.189 0.246104ZM124.997 4.97873C123.208 9.94222 121.938 12.5394 119.283 16.5794C115.763 22.0046 114.608 23.3321 109.991 26.6218C107.452 28.411 105.085 30.2579 104.681 30.7773C103.989 31.5853 103.931 31.5853 104.335 30.5465C104.566 29.9116 105.489 26.5641 106.355 23.1589C108.029 16.6371 109.645 11.9045 110.337 11.5005C110.857 11.2119 109.529 19.8692 108.433 24.1401L107.509 27.4876L109.01 26.1601C110.684 24.6018 113.858 18.0223 115.243 13.4051C116.455 9.07649 117.206 4.8633 116.686 4.8633C116.455 4.8633 116.051 6.07531 115.82 7.5759C115.359 10.7502 112.415 19.292 110.799 22.1778C110.222 23.2744 109.876 23.6784 110.049 23.0435C110.28 22.4086 110.568 20.3309 110.684 18.4263C111.203 10.3462 111.376 9.4805 113.223 7.1719C115.359 4.4593 118.302 2.5547 121.88 1.63126C126.671 0.303819 126.671 0.303819 124.997 4.97873ZM127.306 2.95871C126.44 5.03644 125.343 6.65246 125.343 5.84445C125.343 5.67131 125.574 4.92101 125.863 4.17072C126.151 3.42043 126.555 2.38156 126.729 1.80441C126.902 1.28497 127.306 0.823253 127.594 0.823253C127.941 0.823253 127.767 1.80441 127.306 2.95871ZM133.77 1.68898C135.674 2.1507 139.714 3.76672 142.716 5.2673C145.717 6.82561 149.064 8.38391 150.161 8.7302C152.123 9.36507 152.123 9.42278 150.449 9.24964C149.526 9.13421 148.372 9.36507 147.91 9.71136C147.217 10.2308 147.16 10.1154 147.448 9.19192C147.852 8.09534 147.794 8.09534 147.044 9.07649C146.352 9.99993 140.638 12.2508 138.041 12.6548C137.579 12.7125 136.252 13.1743 135.155 13.636C126.786 17.3297 120.034 20.1 119.514 19.9846C119.283 19.9269 118.648 20.4463 118.129 21.0235C116.224 23.1589 116.051 22.1778 117.898 19.9269C119.918 17.3874 124.305 10.0576 127.19 4.40158C128.229 2.43927 129.326 0.823253 129.672 0.823253C129.961 0.823253 131.807 1.22726 133.77 1.68898ZM81.076 9.30735C80.3257 10.8079 81.076 15.252 82.5189 17.9646C83.096 19.0612 82.9806 19.4652 81.7686 20.7926C80.9606 21.6584 79.6908 23.6784 78.9406 25.2944C78.1325 26.9104 77.4977 27.8338 77.44 27.3721C77.44 26.9104 78.0748 25.1212 78.8828 23.4475C79.6331 21.7738 80.1526 20.0423 79.9794 19.6383C79.8063 19.1766 79.9217 18.6572 80.268 18.4263C80.672 18.2532 80.7297 18.4263 80.5566 18.9457C80.0371 20.3309 80.7874 20.0423 81.5377 18.6572C82.0572 17.676 81.9994 17.5029 81.4223 17.8492C80.9029 18.1955 80.7874 18.0223 81.076 17.3297C81.3069 16.6949 81.2491 16.464 80.8451 16.7526C79.5754 17.5029 77.2668 23.6207 77.2091 26.3333C77.1514 27.9493 76.8628 29.1036 76.5165 29.1036C75.8817 29.1036 75.8817 27.3721 76.5742 22.5241C76.7474 21.2543 77.6708 18.5995 78.5943 16.5794C79.5754 14.5017 80.3257 12.7125 80.268 12.4817C80.268 12.2508 79.6331 13.3474 78.8251 14.9634C78.0748 16.5217 77.44 17.4452 77.44 16.9834C77.44 16.5217 78.0171 14.9634 78.7097 13.5205C79.4023 12.0777 79.864 10.6925 79.8063 10.4616C79.6908 9.76907 80.9606 7.5759 81.3069 7.92219C81.4223 8.09534 81.3646 8.7302 81.076 9.30735ZM84.5966 23.1012L85.5201 25.8138L83.2115 28.007C80.672 30.4887 78.3634 34.7019 77.7863 37.7608L77.44 39.7808L78.248 37.7031C79.5754 34.1825 80.9606 31.8162 83.096 29.219C85.4623 26.2755 86.3858 26.6218 85.8086 30.3156C85.4623 32.451 85.1161 33.0282 83.4423 33.8362C80.9606 35.1059 80.9029 34.2402 83.3269 32.3356C84.3658 31.5276 85.0583 30.7196 84.8275 30.5465C84.3658 30.0847 81.076 33.4322 80.0371 35.4522C79.5754 36.3179 79.4023 37.1837 79.5754 37.4145C79.8063 37.5877 79.6908 37.7608 79.3446 37.7608C78.7674 37.7608 77.0937 43.994 77.5554 44.4558C77.7285 44.5712 78.248 43.2437 78.8251 41.5123C79.46 39.4346 80.672 37.4722 82.1726 35.8562C84.712 33.2591 85.5201 33.6053 84.1926 36.7797C83.2115 39.0883 79.4023 44.7443 79.056 44.398C78.9406 44.2826 78.8251 44.6289 78.7674 45.1483C78.7097 45.6678 78.4211 47.0529 78.0748 48.1495L77.4977 50.1695L77.6131 48.1495C77.6131 47.0529 77.4977 45.7832 77.2091 45.3792C76.9782 44.9752 76.8051 43.7055 76.9205 42.4934C76.9782 41.3391 76.8051 39.8963 76.5742 39.3191C75.7662 37.4145 76.632 31.7585 78.248 28.2379C79.9794 24.4287 82.5189 20.4463 83.2115 20.4463C83.5 20.4463 84.0772 21.6584 84.5966 23.1012ZM131.288 20.8503C130.884 20.9658 130.076 20.9658 129.557 20.8503C128.979 20.6772 129.326 20.5618 130.249 20.5618C131.23 20.5618 131.634 20.6772 131.288 20.8503ZM134.001 21.0235C134.001 21.3121 135.501 21.6006 137.348 21.6584C139.137 21.6584 141.1 21.8315 141.619 22.0624C142.542 22.4086 142.485 22.6972 141.215 24.8904C139.772 27.3144 139.772 27.3144 137.868 26.5064C134.809 25.2367 126.613 24.3132 122.458 24.8327C120.38 25.0635 119.168 25.3521 119.745 25.4675C120.264 25.6407 120.726 25.9293 120.726 26.2178C120.726 26.5064 120.38 26.6218 119.976 26.4487C119.283 26.2178 116.34 27.1413 110.626 29.3922C109.703 29.7384 109.587 29.6807 110.164 29.1036C110.568 28.6996 112.646 27.7184 114.782 27.0258C116.917 26.2755 118.187 25.6407 117.552 25.6407C115.59 25.6407 111.896 27.199 108.029 29.623C106.644 30.4887 106.644 30.4887 107.394 29.5076C107.856 28.9304 109.991 27.4876 112.184 26.2755C114.32 25.0635 115.994 23.9669 115.878 23.8515C115.763 23.7361 116.34 23.5629 117.148 23.5629C118.014 23.5052 120.38 23.0435 122.458 22.5241C124.535 22.0624 127.71 21.6584 129.557 21.6006C131.346 21.6006 132.846 21.3121 132.846 21.0235C132.846 20.6772 133.135 20.4463 133.423 20.4463C133.77 20.4463 134.001 20.6772 134.001 21.0235ZM135.443 26.795C137.06 27.199 138.502 27.7184 138.791 27.8916C139.888 28.9304 134.405 34.2979 129.787 36.722C127.883 37.7031 127.421 37.7031 126.613 37.0682C123.901 34.8174 117.84 33.0282 111.492 32.6242L106.009 32.2779L107.336 31.1236C108.029 30.4887 109.241 29.9116 109.933 29.8539C110.626 29.7962 113.05 29.219 115.243 28.5841C120.034 27.199 127.594 27.0836 133.885 28.1801C136.194 28.5841 137.925 28.7573 137.637 28.5264C136.713 27.6607 130.999 26.795 126.209 26.795C123.497 26.795 121.303 26.5641 121.303 26.3333C121.303 25.583 132.096 25.9293 135.443 26.795ZM112.3 33.6631C112.184 33.7785 114.089 34.5865 116.571 35.4522C118.995 36.2602 121.534 37.1837 122.111 37.4722C122.862 37.8185 123.092 37.7608 122.862 37.3568C122.631 37.0105 120.899 36.1448 118.995 35.4522C117.09 34.7596 115.59 34.0671 115.705 33.8939C115.994 33.6053 122.515 35.9717 123.381 36.722C123.785 37.0105 124.305 37.1837 124.535 37.126C125.69 36.9528 126.498 37.2414 126.498 37.8185C126.498 38.2225 125.921 38.338 125.055 38.2225C124.247 38.0494 123.612 38.1648 123.612 38.3957C123.612 39.7808 113.858 37.7608 111.665 35.9139C111.261 35.6254 109.472 34.8751 107.625 34.2402L104.277 33.2013L108.375 33.3168C110.684 33.3745 112.415 33.5476 112.3 33.6631ZM80.672 36.4911C79.6331 37.4145 79.6331 37.4145 80.3257 36.1448C80.672 35.3945 81.1337 34.9328 81.3646 35.1059C81.5377 35.3368 81.2491 35.9139 80.672 36.4911ZM49.1596 43.0706C50.8911 46.5912 50.8911 46.6489 49.4482 45.0906C48.2939 43.8209 47.7745 43.59 47.0242 44.0518C46.447 44.398 46.3316 44.6866 46.6779 44.6866C48.0053 44.6866 52.1608 48.8998 54.8734 53.0553C58.1055 57.8456 58.9135 59.2885 57.3552 57.557C56.7203 56.8645 56.0854 56.4028 55.9123 56.5759C55.7969 56.749 53.7191 55.4793 51.3528 53.7479C48.9865 52.0741 46.2162 50.3427 45.235 49.9387C43.5036 49.1884 43.5036 49.1884 44.2539 47.1106C44.6579 45.8986 45.4082 44.1672 45.9276 43.2437C46.447 42.2626 46.851 41.0506 46.851 40.4734C46.851 38.7997 47.3128 39.3191 49.1596 43.0706ZM60.4141 51.5547C65.1467 54.4404 69.1867 58.2496 69.937 60.6159C70.5719 62.4628 70.5142 62.7514 68.8404 64.5983C67.8593 65.7526 66.8781 67.3686 66.705 68.2343C66.4741 69.1 66.0701 70.0812 65.7815 70.4275C65.5507 70.7738 65.4353 71.5241 65.6661 72.0435C65.8393 72.5629 65.7815 72.9669 65.4353 72.9669C64.8581 72.9669 64.1078 69.2732 64.0501 66.0411C64.0501 64.5406 63.9924 64.3674 63.7615 65.4063C63.5307 66.6183 63.1267 66.0989 61.1066 62.1742C59.7792 59.6348 57.586 55.6525 56.2009 53.3439C54.8734 51.093 53.95 48.9575 54.1231 48.6689C54.2963 48.3804 54.1231 48.2072 53.7191 48.2649C53.3728 48.3804 52.5071 47.5724 51.8722 46.4758L50.6602 44.5135L53.8923 47.0529C55.6814 48.4381 58.5672 50.5158 60.4141 51.5547ZM108.26 49.5347C112.127 51.3238 112.242 51.901 108.548 51.093C105.374 50.3427 98.6791 50.3427 95.6202 51.0353C92.8499 51.6701 92.6767 51.5547 94.2927 50.1118C95.1007 49.3615 95.3893 49.3038 95.1007 49.881C94.8699 50.3427 95.1585 50.1695 95.7356 49.5347C96.3128 48.8421 97.1785 48.1495 97.6402 47.9187C99.4871 47.2261 104.97 48.0341 108.26 49.5347ZM47.8899 52.305C55.3351 56.9799 58.5672 59.8079 60.5295 63.5017C61.5684 65.3486 62.3186 67.1954 62.1455 67.5995C62.0301 68.0035 62.1455 68.4652 62.4341 68.6383C62.7804 68.8115 63.2998 69.5618 63.6461 70.2543C64.2232 71.2932 63.9924 71.2355 62.4918 69.8503C60.7026 68.1189 60.0678 66.7914 61.4529 67.5417C61.7992 67.7726 60.9912 66.7337 59.5483 65.2331C56.8934 62.4051 49.5059 58.3651 45.8122 57.6725C44.1384 57.3262 43.9076 57.4416 44.0807 58.3073C44.1962 59.0576 45.0042 59.5194 46.7356 59.8079C50.9488 60.5005 51.6414 61.3662 47.7168 61.1354L44.2539 60.9045L47.3128 61.3662C51.4105 62.0588 51.8145 62.636 47.9476 62.2897L44.831 62.0011L48.0053 62.7514C52.4494 63.848 55.2774 65.1754 58.798 67.7726C61.7992 70.0812 65.7238 75.0447 65.089 75.7373C64.5695 76.199 57.4706 73.6595 54.0077 71.7549C50.3717 69.7349 45.4659 64.5983 43.9653 61.3085C42.4647 58.0188 42.3493 49.881 43.7921 49.881C43.9076 49.881 45.7545 50.9775 47.8899 52.305ZM110.799 52.709C111.492 53.0553 112.069 53.1707 112.069 52.9399C112.069 52.709 114.147 52.4781 116.686 52.4204L121.303 52.3627L119.052 54.0364L116.802 55.6525L114.551 54.4404C112.358 53.2284 112.358 53.2284 113.8 54.4404C114.608 55.0753 115.416 55.6525 115.705 55.6525C116.859 55.6525 115.82 56.749 113.166 58.1919L110.222 59.7502L107.509 57.2108C106.009 55.8256 104.277 54.3827 103.643 54.0364C102.604 53.4593 96.4859 52.1896 96.4859 52.4781C96.4859 52.5936 97.5825 53.2284 98.9676 53.8633C100.353 54.5559 102.546 55.9987 103.816 57.0953C106.24 59.1731 108.26 59.9234 106.875 58.2496C106.471 57.7879 105.893 57.557 105.547 57.7879C105.259 57.9611 105.143 57.8456 105.374 57.4993C105.547 57.2108 105.028 56.345 104.162 55.6525C103.239 55.0176 103.065 54.6713 103.7 55.0176C104.335 55.3062 105.893 56.4605 107.163 57.6148L109.472 59.6348L106.701 59.6925C104.104 59.6925 103.7 59.4616 101.507 57.2108C100.18 55.8256 99.7756 55.537 100.699 56.5182C101.565 57.4993 102.257 58.4805 102.257 58.7113C102.257 59.7502 100.411 58.1342 97.9865 55.0176L95.2739 51.5547L102.373 51.7856C106.355 51.901 110.049 52.305 110.799 52.709ZM47.255 58.8845C47.0819 59.0576 46.5625 59.1154 46.1585 58.9422C45.6967 58.7691 45.8699 58.5959 46.5048 58.5959C47.1396 58.5382 47.4859 58.7113 47.255 58.8845ZM51.93 60.5005C55.566 62.3474 60.8181 66.5029 60.4141 67.1954C60.2409 67.5417 58.6826 66.676 56.9512 65.4063C55.2197 64.1366 53.546 63.2131 53.2574 63.444C52.9111 63.6171 52.1608 63.5017 51.6414 63.2131C50.8334 62.7514 50.7757 62.636 51.4682 62.5782C52.2185 62.5782 52.2185 62.5205 51.4682 62.0011C50.7179 61.4817 50.7179 61.424 51.4682 61.3662C51.93 61.3662 51.2951 60.8468 50.0254 60.2119C48.7556 59.6348 48.0631 59.1154 48.4671 59.1154C48.8711 59.1154 50.4294 59.7502 51.93 60.5005ZM70.2256 65.2909C69.937 65.868 69.7639 66.5029 69.8216 66.7337C69.937 67.1954 66.4741 76.0258 66.0124 76.4298C65.089 77.3533 66.7627 70.6006 67.9747 68.6383C69.0136 67.0223 69.0713 66.7337 68.2633 67.7149C66.5896 69.6195 66.7627 68.4652 68.5519 65.868C70.0524 63.6748 71.0913 63.3285 70.2256 65.2909ZM115.936 75.1601C115.416 75.7373 113.916 76.8338 112.588 77.5841L110.164 78.9116L111.088 77.5264C112.127 76.0835 116.167 73.3709 116.628 73.8327C116.744 74.0058 116.455 74.583 115.936 75.1601ZM111.607 75.8527C110.626 76.7761 109.414 78.3344 108.895 79.2579C108.144 80.8162 107.856 80.9316 106.528 80.4699C104.393 79.6042 99.6025 79.7773 97.3516 80.7007C96.255 81.1625 95.3316 81.7396 95.3316 81.9705C95.3316 82.1436 95.7933 82.1436 96.3705 81.9128C96.8899 81.6819 98.7945 81.5088 100.526 81.5088C103.7 81.5088 103.7 81.5088 101.392 80.9893C99.5448 80.643 99.8911 80.5853 103.065 80.7585C105.259 80.9316 107.163 81.1047 107.279 81.2779C107.394 81.3933 107.105 82.4899 106.586 83.7019L105.72 85.9528L101.219 85.7797C95.9665 85.4911 88.6944 86.7608 84.4235 88.6077C80.672 90.166 80.9606 90.6854 84.712 89.2426C86.2704 88.6077 89.387 87.7997 91.5801 87.3957C95.851 86.5877 104.22 86.2991 104.855 86.8762C105.374 87.4534 100.93 95.9375 98.9676 98.2461L97.3516 100.093L94.4082 98.6501C92.7344 97.8421 88.983 96.8609 85.7509 96.3415C82.5766 95.8221 79.8063 95.3026 79.46 95.1872C78.4211 94.7832 88.5789 95.5335 92.1573 96.1684C98.5059 97.2072 99.3139 97.2649 96.4859 96.2838C95.043 95.8221 91.407 95.1872 88.4058 94.8986L82.9229 94.3792L88.983 94.61C92.3881 94.7255 96.1396 95.2449 97.5248 95.7066C98.9099 96.2261 99.8334 96.3415 99.6602 96.0529C99.4871 95.7643 97.8711 95.0718 96.0242 94.5523C90.599 92.9363 75.7085 94.206 75.7085 96.2261C75.7085 96.7455 76.8628 96.8609 79.9217 96.7455C84.4812 96.5146 92.4459 98.1307 95.043 99.8621L96.5436 100.843L94.639 102.113C93.6001 102.806 91.8687 103.614 90.8298 103.844C89.2138 104.191 88.6367 103.96 86.8475 102.402C84.0772 99.9198 81.4223 98.881 78.0171 98.8232C75.4199 98.8232 75.2468 98.7078 75.0159 97.1495C74.7851 95.7643 75.1314 95.0718 76.8628 93.5712C83.2692 87.9151 89.6178 83.9328 92.3304 83.9328C93.1384 83.9328 93.1961 83.8174 92.4459 83.3556C91.7533 82.9516 91.811 82.7785 92.7344 82.4322C93.3693 82.1436 94.6967 81.3933 95.7356 80.7585C96.7168 80.0659 99.1985 78.9116 101.219 78.219C103.181 77.4687 105.259 76.7184 105.72 76.5453C106.182 76.3721 106.932 76.3144 107.336 76.3721C107.683 76.4298 108.029 76.199 108.029 75.8527C108.029 75.4487 108.375 75.2755 108.721 75.391C109.125 75.5641 110.107 75.3333 110.915 74.8715C113.281 73.6595 113.512 74.0058 111.607 75.8527ZM103.412 75.9681C98.9676 77.9304 96.5436 79.0847 94.639 80.2967C93.427 81.047 92.4459 81.5088 92.4459 81.3356C92.4459 81.1625 91.5801 81.6242 90.599 82.3745C89.5601 83.1248 87.4246 84.5099 85.8086 85.3757C84.2503 86.2991 81.4223 88.3191 79.5754 89.8774L76.1702 92.7632L78.3057 88.4923C82.1149 80.9893 84.4235 78.623 89.5024 77.2956C92.619 76.4876 92.9653 76.7184 91.5224 78.5076C90.7721 79.431 90.6567 79.431 90.9453 78.5653C91.1184 78.0459 91.1184 77.5841 91.003 77.5841C90.7144 77.5841 87.8287 82.4322 87.8287 83.0093C87.8287 83.8751 91.811 79.7196 92.4459 78.1613C93.0807 76.6607 93.3693 76.5453 96.3705 76.4876C98.1596 76.4298 100.584 76.199 101.68 75.9104C104.451 75.2178 105.143 75.2178 103.412 75.9681ZM35.4235 81.7396C38.5401 83.0671 39.0595 83.4711 38.8287 84.6254C38.3669 87.5688 38.5978 94.0906 39.175 95.1295C39.6367 95.9375 39.6944 95.2449 39.4635 92.1283C39.3481 89.9351 39.3481 87.1648 39.579 86.0105C39.9252 84.1059 40.0984 83.9905 41.2527 84.5676C41.9453 84.9717 42.5801 85.3179 42.6956 85.3757C42.7533 85.4334 42.407 86.3568 41.8298 87.3957C40.6178 89.8774 40.2715 93.9175 40.9641 96.9186C41.4835 99.0541 41.5413 98.8232 41.599 94.5523C41.6567 89.5311 42.4647 86.2414 43.6767 86.2414C44.427 86.2414 47.8322 89.7043 49.4482 92.2437C50.3717 93.6866 50.3717 93.802 48.9288 95.5335C47.8899 96.7455 47.4859 97.7267 47.7168 98.5924C48.0053 99.5735 47.9476 99.6312 47.4859 98.9387C47.1396 98.4769 46.851 98.3038 46.7933 98.6501C46.7356 99.7467 46.3893 100.959 45.8122 102.402L45.1773 103.844V102.228C45.1196 100.151 46.2739 97.3804 48.2362 95.0141C49.1019 94.0329 49.5636 93.1672 49.2751 93.1672C48.4671 93.1672 45.9853 96.6301 45.235 98.881C44.831 99.9775 44.5424 102.055 44.4847 103.498C44.427 106.095 44.427 106.095 43.8499 104.422C43.5036 103.44 42.9264 102.286 42.5224 101.824C42.1184 101.363 41.9453 100.612 42.1184 100.151C42.2916 99.689 42.1184 99.5158 41.7144 99.7467C41.3681 99.9775 40.9064 99.689 40.6755 99.1118C40.4447 98.5347 39.6367 97.2072 38.8864 96.1684C38.1361 95.1872 37.6166 94.3215 37.8475 94.3215C38.0207 94.3215 37.9052 93.6289 37.5589 92.7055C37.2126 91.8397 36.5778 89.0694 36.1738 86.53L35.4235 81.9128L35.3658 85.2025C35.308 87.2802 35.7698 89.7043 36.4623 91.5512L37.6166 94.61L36.1738 92.8786C35.4235 91.8974 34.5 90.4546 34.096 89.5311C33.7497 88.6654 33.1726 87.9728 32.884 87.9728C32.5954 87.9728 32.5377 87.3957 32.7109 86.7608C32.9995 85.8374 32.9417 85.6642 32.3646 85.9528C31.8452 86.2991 31.7297 86.1259 32.0183 85.4911C32.48 84.3368 31.9029 81.047 31.268 81.047C30.9794 81.047 30.9217 81.6242 31.0949 82.3168C31.3257 83.5865 31.3257 83.6442 30.46 82.5476C29.3057 81.1625 29.3057 81.5665 30.3446 83.6442C30.8063 84.4522 31.268 84.8562 31.4411 84.5099C31.672 84.1059 31.7297 84.1059 31.672 84.5099C31.3834 86.1259 30.2291 84.9717 28.2668 80.9893C27.0548 78.623 26.0737 76.5453 26.0737 76.3144C26.0737 76.0835 27.3434 76.8338 28.9594 78.0459C30.5177 79.2002 33.4612 80.8739 35.4235 81.7396ZM27.5165 81.6819C27.5742 82.2013 29.7097 85.4911 32.3069 88.954C37.0972 95.4181 38.3669 97.5535 35.4235 94.2638C34.5 93.2249 33.5766 92.6477 33.4035 92.994C33.2303 93.2826 34.0383 94.2638 35.1926 95.1872C37.9052 97.2072 44.427 105.172 42.3493 103.902C41.2527 103.21 41.5413 104.826 42.7533 106.095C44.023 107.48 45.0619 112.79 44.023 112.79C43.6767 112.79 43.4459 112.444 43.5036 112.04C43.619 111.694 42.2338 110.655 40.5024 109.789C36.9818 108.058 31.8452 107.076 31.8452 108.115C31.8452 108.462 32.6532 108.75 33.6343 108.75C35.8275 108.75 40.4447 109.905 40.8487 110.539C41.0218 110.828 40.4447 110.77 39.6367 110.482C37.8475 109.789 33.5766 109.731 33.5766 110.309C33.5766 110.597 34.7886 110.77 36.3469 110.828C39.579 110.886 42.811 111.405 43.3304 111.982C43.5036 112.213 43.2727 112.271 42.7533 112.098C42.2338 111.867 41.4835 111.982 41.0218 112.329C40.3293 112.79 40.387 112.848 41.1373 112.617C42.7533 112.098 44.6579 113.714 45.7545 116.484C46.2739 117.985 46.5625 119.139 46.3893 119.023C46.1585 118.908 44.7156 118.215 43.0996 117.465C37.3858 114.868 36.2315 114.175 33.5766 111.636C30.9217 109.039 28.2668 104.364 27.5165 100.786C27.1702 99.1695 27.2857 98.9387 28.3245 98.9387C30.1714 98.9387 35.9429 101.247 38.7709 103.152C40.6755 104.422 41.0795 104.537 40.2715 103.614C39.2327 102.459 39.6367 101.94 40.8487 102.806C41.195 103.094 40.0984 101.94 38.4247 100.382C36.7509 98.7655 33.3457 96.3992 30.864 95.1295C27.9205 93.6289 26.3045 92.4746 26.2468 91.782C26.1891 90.974 26.4777 90.8586 27.6897 91.1472C28.5554 91.3203 29.9983 91.8974 30.9217 92.3592C31.9606 92.8786 32.8263 92.994 33.1726 92.6477C33.8075 92.0129 29.248 88.55 27.8628 88.55C27.3434 88.6077 27.9205 89.1271 29.1325 89.762C31.9029 91.2049 31.7297 91.5512 28.6131 90.7431C26.2468 90.1083 26.1891 90.0506 26.5354 87.742C26.6508 86.4145 26.8817 85.3179 26.9971 85.2025C27.0548 85.0871 27.8051 85.4334 28.6131 85.9528C29.4211 86.53 30.1137 86.8185 30.1137 86.6454C30.1137 86.4722 29.248 85.7797 28.2091 85.1448C26.4199 84.0482 25.5542 82.2013 26.7662 82.2013C27.0548 82.2013 26.9971 81.6819 26.6508 81.1047C26.3622 80.4699 26.0737 79.6042 26.0737 79.2002C26.1314 78.219 27.4011 80.4699 27.5165 81.6819ZM90.2527 80.5853C89.8487 80.9893 89.5601 81.047 89.5601 80.7007C89.5601 79.8927 90.2527 79.2002 90.6567 79.6042C90.7721 79.7773 90.599 80.239 90.2527 80.5853ZM68.8981 91.7243C65.9547 97.7844 65.1467 98.9387 65.6661 96.4569C65.7815 95.7643 66.0124 93.6289 66.1855 91.7243C66.3587 89.3003 66.1278 90.1083 65.3775 94.3215C64.685 98.3615 63.7038 101.594 62.5495 103.844C60.5295 107.769 60.3563 107.538 61.5684 102.979C62.0878 101.074 62.4341 97.7267 62.3764 94.6678L62.2609 89.5888L66.8204 87.3957C69.3022 86.2414 71.4953 85.3179 71.6108 85.4334C71.7262 85.5488 70.5142 88.3768 68.8981 91.7243ZM71.3222 94.6678C66.3587 98.8232 66.301 98.8232 68.9559 93.5712L71.3799 88.7808L72.1879 91.0317C72.9382 93.2249 72.9382 93.3403 71.3222 94.6678ZM61.8569 93.2826C61.8569 94.8986 61.7415 96.1106 61.6261 95.9952C61.1643 95.4758 60.8758 90.2814 61.3375 90.2814C61.6261 90.2814 61.8569 91.6089 61.8569 93.2826ZM60.8181 98.3615C60.8181 103.498 59.4906 109.674 57.2974 114.522L56.1431 117.119L56.4894 111.232C56.778 106.326 56.6049 104.768 55.6237 101.42C54.9311 99.285 54.0077 96.9764 53.4883 96.3415L52.5071 95.1872L52.9688 96.3415C54.8157 101.478 55.4506 103.787 55.7391 107.307L56.0854 111.347L54.9311 107.769C53.7768 104.306 51.0642 100.612 49.1596 99.9775C47.8322 99.5158 52.6803 94.7832 56.6049 92.6477L59.8369 90.9163L60.2986 92.186C60.5872 92.8786 60.8181 95.6489 60.8181 98.3615ZM32.4223 96.9764C32.4223 97.0918 31.9029 96.9764 31.3257 96.6301C29.3057 95.5912 27.228 94.8986 27.228 95.3603C27.228 96.0529 32.48 97.8421 33.1726 97.3804C33.5189 97.1495 33.5766 97.3227 33.288 97.7844C32.9417 98.3615 33.0572 98.4769 33.7497 98.1884C34.3269 97.9575 34.6732 98.0729 34.5578 98.4769C34.5 98.8232 34.7886 99.2272 35.2503 99.4004C35.7698 99.5735 35.8852 99.4004 35.5966 98.881C35.308 98.4192 35.308 98.2461 35.5389 98.4769C35.7698 98.6501 35.9429 98.9964 35.8852 99.2272C35.8275 99.4581 36.6355 100.151 37.6166 100.786C40.6755 102.632 39.2327 102.517 35.7121 100.67C33.9806 99.689 31.2103 98.7655 29.5943 98.5347L26.6508 98.1884V95.9375V93.7443L29.5366 95.1872C31.1526 95.9952 32.4223 96.8032 32.4223 96.9764ZM73.5731 95.1295C73.8039 95.7066 73.0536 96.3992 71.3222 97.2649C69.8793 97.8998 67.8016 99.3427 66.6473 100.439C64.281 102.69 63.8769 102.863 64.7427 101.247C65.089 100.612 66.8781 98.9964 68.7827 97.6689C70.6873 96.3415 72.2456 95.0141 72.2456 94.7832C72.2456 93.9752 73.2845 94.2638 73.5731 95.1295ZM74.7851 100.786C75.1314 102.286 75.0159 102.402 73.3999 102.402C72.4188 102.402 70.3987 102.979 68.8981 103.671C66.0124 104.999 61.0489 108.692 61.5106 109.154C61.6838 109.327 62.8381 108.635 64.0501 107.654C66.8204 105.518 72.0148 102.979 73.8616 102.979C75.8817 102.979 75.5354 105.056 73.4576 105.46C70.341 106.095 63.9924 109.558 61.3375 112.098C59.8369 113.483 59.4329 114.06 60.4141 113.367C66.9936 108.692 70.341 107.019 73.3422 107.019C74.4965 107.019 74.6696 106.903 73.9771 106.442C73.2268 105.98 73.2845 105.864 74.1502 105.864C74.7851 105.864 75.1314 106.326 75.1314 107.25C75.1314 108.462 74.7851 108.635 72.3033 108.981C68.725 109.443 63.1844 112.213 60.2986 114.983C59.0289 116.138 58.5095 116.773 59.0866 116.311C59.7792 115.734 60.3563 115.676 60.7603 116.08C61.1066 116.426 60.6449 117.003 59.2598 117.754C58.1632 118.331 57.2397 119.023 57.2397 119.254C57.2397 120.005 58.2209 119.774 58.9712 118.85C59.3752 118.389 59.9523 117.985 60.2409 117.985C60.5872 117.985 59.5483 119.197 57.99 120.639C56.4894 122.14 55.7969 122.89 56.5472 122.313C57.2397 121.736 57.8169 121.563 57.8169 121.909C57.8169 122.256 57.0666 123.064 56.0854 123.756C54.1231 125.141 53.95 124.622 55.3351 121.563C55.8546 120.409 56.3163 119.312 56.374 119.139C57.0089 117.35 57.8746 115.734 58.394 115.387C58.6826 115.214 58.8558 114.81 58.6826 114.579C58.5672 114.291 59.4906 111.982 60.7603 109.327C63.2998 104.191 66.1278 101.074 70.8027 98.3615L73.6885 96.6301L74.0348 97.9575C74.2079 98.6501 74.5542 99.9198 74.7851 100.786ZM83.5577 100.901C84.4812 101.363 85.8663 102.344 86.6744 103.036L88.1172 104.248L86.0972 103.844C85.0006 103.614 83.3269 103.325 82.3457 103.21C81.4223 103.094 79.9794 102.806 79.1714 102.632C78.3634 102.402 77.2668 102.286 76.7474 102.344C75.9971 102.459 75.7085 102.055 75.7085 101.016C75.7085 99.5735 75.8239 99.5158 78.7674 99.7467C80.4989 99.8621 82.6343 100.382 83.5577 100.901ZM50.7757 102.113C52.8534 103.844 54.8157 108.923 55.162 113.541C55.4506 117.638 54.9888 120.986 54.1808 120.466C53.8345 120.293 53.7768 120.409 54.0077 120.813C54.5271 121.621 53.3151 125.603 52.6803 125.199C52.3917 125.084 52.334 125.545 52.4494 126.238C52.6803 127.45 52.9111 127.334 55.8546 124.68C57.6437 123.006 58.7403 121.678 58.394 121.447C58.0477 121.217 58.7403 120.409 60.01 119.485C62.2609 117.927 67.6284 116.657 69.3599 117.292C70.0524 117.523 70.1102 117.407 69.4753 116.773C68.7827 116.022 65.8393 116.369 61.5684 117.638C60.9335 117.869 61.4529 117.465 62.7226 116.83C64.1655 116.138 66.2433 115.676 68.1479 115.676C71.957 115.676 71.6108 114.926 67.8016 114.868C65.8393 114.81 65.089 114.579 65.2044 114.06C65.3198 113.483 65.089 113.483 64.1655 113.945C62.8381 114.637 62.6072 115.214 63.8769 114.753C64.3387 114.522 64.7427 114.695 64.7427 115.099C64.7427 115.561 64.2232 115.734 63.2998 115.561C62.4918 115.387 62.0301 115.503 62.2609 115.849C62.4341 116.138 62.2609 116.311 61.9146 116.195C61.5106 116.022 61.1643 115.676 61.1643 115.387C61.1066 114.522 66.8204 111.751 70.4565 110.886C72.2456 110.424 73.2845 109.905 72.7651 109.731C72.2456 109.558 72.4188 109.385 73.2845 109.385C75.8817 109.27 74.5542 110.886 71.553 111.521L68.4941 112.155L71.2645 111.867C72.7651 111.694 73.9771 111.751 73.9771 111.925C73.9771 112.906 72.4188 115.099 69.7639 117.811C67.4553 120.235 66.5318 120.755 65.5507 120.524C64.281 120.178 58.6826 121.909 59.202 122.429C59.3175 122.602 60.6449 122.256 62.0878 121.794C67.9747 119.774 66.8781 121.332 60.1832 124.449C53.6614 127.508 52.9688 128.085 54.0654 129.758C54.5271 130.509 55.566 132.99 56.374 135.299C57.6437 139.108 57.8169 140.493 57.8169 148.516C57.8169 157.635 58.6826 173.391 59.3175 176.565C59.8946 179.336 58.9135 177.835 56.5472 172.064C53.546 165.022 51.6414 159.366 50.6025 154.345C49.0442 146.842 49.7945 135.415 52.1031 131.374C53.142 129.528 53.142 129.47 52.0454 127.334C51.4105 126.18 50.8911 125.026 50.8911 124.737C50.8911 124.506 50.3139 123.352 49.5636 122.14C48.0631 119.716 46.1007 115.099 46.6202 115.099C48.2939 115.099 52.0454 120.005 52.0454 122.198C52.0454 122.717 52.2762 123.237 52.5071 123.41C53.4883 123.987 52.738 118.619 51.526 116.022C50.2562 113.425 47.1973 110.482 45.8122 110.482C45.4082 110.482 45.1196 109.962 45.1196 109.327C45.1196 107.654 45.639 107.884 48.9288 110.77C51.2374 112.733 52.0454 113.945 52.6225 116.08C53.546 119.427 54.5271 120.813 54.0077 117.985C53.4305 115.157 51.6991 110.77 51.1219 110.77C50.8334 110.77 49.4482 109.962 48.0053 109.039C46.5625 108.115 45.3505 107.307 45.235 107.25C44.7156 106.961 47.659 100.67 48.2939 100.67C48.6979 100.67 49.8522 101.305 50.7757 102.113ZM7.54716 107.423C6.85458 108.231 6.97001 108.231 8.70145 107.307C11.1255 106.095 14.2998 106.326 17.9936 108.058L20.5907 109.27L18.2244 109.616C16.897 109.847 15.1078 110.655 14.1844 111.405C13.0878 112.329 12.9146 112.675 13.6072 112.386C14.473 112.098 14.5884 112.213 14.2421 112.848C13.9535 113.367 14.1844 113.31 14.877 112.675C17.5896 110.309 22.2068 109.27 23.8228 110.597C24.2845 111.001 24.5154 111.29 24.3999 111.232C23.9959 111.001 20.7639 112.906 21.1102 113.194C21.2833 113.367 21.8027 113.194 22.2645 112.848C23.4765 111.809 26.4777 111.578 27.1702 112.444C27.6897 113.021 27.5165 113.137 26.4777 112.963C25.7274 112.79 23.5342 113.252 21.5719 113.887C17.2433 115.387 15.5118 115.387 13.4918 114.06C11.1832 112.559 8.75917 109.674 9.33632 109.096C9.62489 108.808 11.3563 108.404 13.2032 108.173L16.5507 107.769L13.8381 107.654C12.3375 107.654 10.4329 107.884 9.62489 108.288C8.4706 108.808 7.83573 108.75 6.68143 108.173C5.35399 107.423 5.29627 107.307 6.27743 106.961C8.00888 106.268 8.35517 106.384 7.54716 107.423ZM48.0053 112.559C49.7945 114.118 51.5837 117.003 52.2762 119.716C52.5071 120.524 52.0454 120.005 51.2951 118.562C50.4871 116.946 49.2174 115.618 48.0053 114.983C46.7933 114.349 45.8122 113.367 45.5813 112.502C45.1196 110.655 45.7545 110.655 48.0053 112.559ZM13.7804 126.93C17.8781 129.932 19.6673 130.855 18.8593 129.528C18.6861 129.239 17.3587 128.316 15.9158 127.45C14.5307 126.642 13.3764 125.892 13.3764 125.776C13.3764 125.199 18.9747 126.411 19.5519 127.161C20.8216 128.835 20.3599 129.181 18.7439 127.738L17.1278 126.353L18.513 127.912C19.321 128.835 19.725 129.701 19.5519 129.932C19.321 130.105 19.4942 130.682 19.8404 131.086C20.2444 131.548 18.4553 130.913 15.9735 129.643C13.4341 128.373 11.2986 127.392 11.1832 127.508C10.7215 127.969 11.7603 128.95 12.6261 128.95C13.1455 128.95 15.3387 129.874 17.5318 130.97C19.6673 132.125 21.4565 132.875 21.4565 132.702C21.4565 132.298 24.5154 134.491 28.5554 137.781C30.056 138.993 31.1526 140.205 30.9794 140.436C30.864 140.724 31.3834 141.186 32.1914 141.59C33.1149 141.994 33.4612 142.513 33.2303 142.975C32.9995 143.321 32.9995 143.495 33.288 143.264C33.5189 143.033 34.096 143.206 34.5578 143.668C35.0195 144.129 35.8275 144.822 36.3469 145.226C36.8664 145.688 37.9629 146.727 38.7709 147.65L40.2138 149.324L37.5589 147.535C34.096 145.226 28.5554 143.379 24.9194 143.379C22.0913 143.379 17.4741 144.764 18.1667 145.457C18.3399 145.63 19.0901 145.457 19.8404 145.053C21.3987 144.187 28.6131 144.129 30.6331 144.937C31.6143 145.341 30.6909 145.399 27.1702 145.226C23.4765 145.053 21.8605 145.226 20.3022 145.919C19.2056 146.438 18.8016 146.669 19.4364 146.438C21.0525 145.919 32.9417 145.861 32.6532 146.38C32.48 146.669 32.7109 146.842 33.1726 146.842C33.6343 146.842 35.4812 147.592 37.3281 148.574C42.0607 151.055 42.003 150.998 40.7333 151.517C39.8098 151.863 39.8675 151.979 41.195 151.979C42.0607 152.036 42.9264 152.267 43.0996 152.614C43.4459 153.133 40.9641 152.96 38.8287 152.267C38.4247 152.152 37.2126 152.325 36.2315 152.671C34.9618 153.133 33.4612 153.133 31.268 152.787L28.0937 152.21L29.8251 151.459C30.8063 151.055 33.4035 150.767 35.5966 150.767C39.2327 150.767 39.4058 150.709 37.6166 150.19C35.0772 149.439 30.5754 149.959 28.4977 151.228C26.9394 152.152 26.7662 152.094 23.4188 150.42C19.6096 148.458 16.5507 145.515 14.2998 141.59C12.2798 138.012 10.4906 132.702 10.4906 130.105C10.4906 128.893 10.0866 126.988 9.62489 125.834C9.16317 124.68 8.8746 123.756 9.10546 123.756C9.2786 123.756 11.4141 125.199 13.7804 126.93ZM59.8946 126.353C59.7215 126.873 59.2598 129.643 58.9135 132.529L58.2209 137.839L56.9512 133.972C56.2586 131.836 55.3929 129.758 55.0466 129.412C54.5271 128.893 55.0466 128.373 57.1243 127.161C60.3563 125.257 60.3563 125.257 59.8946 126.353ZM24.6308 127.912C25.0925 129.989 27.4011 134.376 28.844 135.992C30.4023 137.781 28.9017 137.088 26.3045 134.837C24.9771 133.683 23.0148 132.067 22.0336 131.317C20.8216 130.393 20.3599 129.643 20.5907 128.95C20.7639 128.373 20.6484 127.738 20.3022 127.508C19.0324 126.757 19.8404 126.065 21.9759 126.065C24.0536 126.065 24.2845 126.238 24.6308 127.912ZM31.672 128.142C32.7109 128.893 34.2115 130.451 35.0772 131.548C36.4046 133.337 36.5201 133.741 35.9429 135.357C35.1349 137.665 35.1349 139.339 35.8852 139.339C36.2315 139.339 36.4623 138.243 36.4623 136.915C36.4623 133.279 37.6166 134.953 38.7709 140.32C39.3481 142.802 39.983 145.572 40.2138 146.554L40.6178 148.285L38.8864 146.265C37.9052 145.168 36.9818 143.321 36.7509 142.225C36.5201 141.186 36.0006 139.974 35.5389 139.628C34.6155 138.935 34.3269 135.645 34.9618 133.568C35.3658 132.356 35.308 132.24 34.6732 132.875C33.4612 134.029 33.692 138.185 35.1926 140.955L36.4623 143.495L34.1538 141.532C31.7874 139.57 29.248 135.934 27.8628 132.586C27.4588 131.548 26.8239 130.855 26.4777 131.086C26.1314 131.259 26.0737 131.144 26.3045 130.74C26.5354 130.393 26.5354 129.297 26.3622 128.258C26.0737 126.988 25.8428 126.7 25.4388 127.277C25.0348 127.912 24.9194 127.854 24.9194 126.988C24.9194 126.065 25.2079 125.949 27.3434 126.296C28.6708 126.526 30.6331 127.334 31.672 128.142ZM95.3893 140.897C94.4659 142.687 91.407 146.265 89.8487 147.535L88.3481 148.689L87.1938 147.188C86.5589 146.38 85.6355 145.688 85.1738 145.688C84.712 145.688 84.3658 145.457 84.3658 145.111C84.3658 144.533 88.0018 143.379 89.9641 143.379C90.6567 143.379 91.2916 143.206 91.407 142.917C91.5801 142.513 95.3316 139.974 95.7933 139.916C95.851 139.916 95.6779 140.378 95.3893 140.897ZM85.1161 141.705L89.6178 142.456L86.8475 143.148C83.096 144.187 82.5766 144.129 83.0383 142.917C83.3846 142.052 83.3269 142.052 82.4612 142.744C81.9417 143.148 81.5954 143.725 81.7686 143.956C82.0572 144.418 75.2468 146.438 74.6119 145.976C74.3234 145.861 72.6496 146.727 70.8605 147.996C69.0713 149.266 67.6284 150.132 67.6284 149.959C67.6284 148.92 70.6296 144.072 71.7839 143.379C75.5354 140.955 78.248 140.667 85.1161 141.705ZM85.9241 146.784C87.7709 147.708 87.9441 148.978 86.3858 149.959C85.0583 150.824 85.0006 150.824 84.8275 149.324C84.712 148.516 84.0195 147.419 83.2115 146.9C81.7686 146.034 81.7686 146.034 82.8075 147.246C83.6155 148.17 83.6732 148.574 83.1537 148.92C82.692 149.151 82.5766 149.093 82.8652 148.631C83.1537 148.17 82.692 147.708 81.5377 147.246C80.5566 146.9 79.7486 146.38 79.7486 146.092C79.7486 145.861 79.9794 145.745 80.268 145.976C80.5566 146.149 80.9606 146.034 81.1337 145.745C81.5377 145.168 83.904 145.688 85.9241 146.784ZM82.1149 149.035C83.096 150.132 83.8463 150.536 84.0195 150.132C84.1926 149.612 84.308 149.612 84.308 150.19C84.3658 151.113 81.9417 152.036 79.4023 152.036C77.844 152.036 77.44 151.806 77.44 150.94C77.44 149.555 75.9394 147.996 74.6696 148.054C73.9194 148.054 73.9771 148.227 74.9582 148.689C76.1702 149.266 77.2668 151.228 76.7474 151.748C76.632 151.921 75.2468 151.632 73.6885 151.171C72.1302 150.651 70.3987 150.42 69.8216 150.651C67.917 151.228 68.7827 150.363 71.8416 148.574C74.3811 147.073 75.3045 146.842 77.6708 147.015C79.9794 147.246 80.8451 147.65 82.1149 149.035ZM85.9818 170.39C85.5778 170.909 85.5201 171.14 85.8663 170.909C86.7321 170.39 86.7898 174.257 85.9818 178.412C85.5201 181.009 85.2315 181.471 84.1926 181.471C82.4612 181.529 78.4788 183.376 77.44 184.645C76.632 185.684 76.632 185.684 78.0171 184.761C79.7486 183.664 84.4235 181.933 84.8275 182.279C84.9429 182.452 84.4812 183.549 83.7886 184.761C82.7497 186.608 82.1149 187.069 79.7486 187.647C77.1514 188.281 73.6885 190.013 74.1502 190.475C74.2656 190.59 75.3622 190.186 76.632 189.609C79.6908 188.108 81.48 187.647 81.48 188.281C81.48 189.205 72.1879 198.786 71.6108 198.439C71.3222 198.266 71.149 198.324 71.2067 198.612C71.3222 198.843 70.9182 199.709 70.341 200.517C69.129 202.248 69.0136 200.921 70.2256 198.555C70.6873 197.689 70.9759 196.708 70.8027 196.477C70.1679 195.438 73.5153 192.437 76.1702 191.629C77.9017 191.109 78.4211 190.821 77.5554 190.763C76.8051 190.705 75.6508 190.994 75.0159 191.34C73.2268 192.321 72.4188 191.109 73.9194 189.609C74.6119 188.916 75.0159 188.397 74.8428 188.397C74.4388 188.397 77.0937 183.607 79.2291 180.49C80.1526 179.162 82.1149 177.373 83.5577 176.508C85.0006 175.642 85.9818 174.834 85.8086 174.661C85.6355 174.488 84.712 174.892 83.7886 175.584C81.6532 177.142 80.9606 177.2 82.3457 175.7C82.9229 175.065 83.2115 174.545 82.9806 174.545C82.8075 174.545 82.9806 173.968 83.3846 173.218C83.8463 172.525 84.712 170.505 85.2892 168.831C86.3281 165.773 86.3858 165.715 86.5589 167.562C86.6744 168.601 86.3858 169.87 85.9818 170.39ZM40.2138 174.776C45.9853 175.411 46.2162 175.526 45.9276 177.604C45.639 179.566 46.851 182.394 47.8322 182.221C48.1785 182.164 48.6402 182.452 48.8133 182.914C49.2174 184.068 48.1785 184.011 46.3893 182.683C45.5236 182.106 44.2539 181.471 43.5613 181.24C42.8687 181.009 41.0795 179.451 39.579 177.835C38.1361 176.161 37.2126 175.469 37.6166 176.219C38.5401 178.008 37.4435 177.316 35.8275 175.065C34.6732 173.449 34.6732 173.333 35.6543 173.795C36.2315 174.141 38.3092 174.545 40.2138 174.776ZM80.4411 176.681C79.46 178.181 77.5554 181.24 76.1702 183.433C73.9194 187.185 73.6885 187.358 73.2845 186.031C72.8805 184.819 72.8805 184.876 73.0536 186.319C73.1691 187.3 72.7073 189.263 71.957 190.936C71.2067 192.552 70.4565 194.399 70.2256 194.976C70.0524 195.553 69.7639 195.958 69.5907 195.784C69.3599 195.496 70.1102 192.552 72.1302 185.8C72.3033 185.165 72.9382 183.837 73.4576 182.914C74.6119 181.009 81.6532 173.391 81.9994 173.737C82.1149 173.795 81.4223 175.18 80.4411 176.681ZM48.0631 177.489C47.8899 177.95 47.8322 179.22 47.8322 180.317C47.8899 181.76 47.7745 182.048 47.4282 181.471C46.5625 180.144 46.6779 176.104 47.6013 176.45C47.9476 176.565 48.1785 177.085 48.0631 177.489ZM50.2562 178.239C50.7179 178.816 50.7757 179.162 50.3139 179.451C49.3328 180.086 49.6791 181.933 51.1219 183.607L52.5648 185.223L51.6991 182.683C51.2374 181.298 51.0065 180.028 51.1797 179.797C51.8722 179.162 53.0843 181.471 52.7957 182.798C52.6225 183.664 52.6803 183.837 53.0265 183.376C53.4305 182.856 53.8923 183.376 54.758 185.223C55.3929 186.665 55.8546 187.82 55.7391 187.82C55.6237 187.82 54.2963 187.069 52.7957 186.088C49.9676 184.299 48.5825 181.99 48.5825 179.105C48.5825 177.258 49.2174 176.969 50.2562 178.239Z" fill="#677EA4" fill-opacity="0.8"/>
<path d="M112.415 10.3466C111.088 17.7918 110.915 18.9461 111.146 19.1192C111.607 19.581 113.339 10.7506 113.108 9.36542C112.935 8.32655 112.762 8.55741 112.415 10.3466Z" fill="#677EA4" fill-opacity="0.8"/>
<path d="M108.721 17.5604C108.721 18.657 108.837 19.1187 109.01 18.5416C109.125 18.0221 109.125 17.0987 109.01 16.5216C108.837 16.0021 108.721 16.4638 108.721 17.5604Z" fill="#677EA4" fill-opacity="0.8"/>
<path d="M108.145 21.0236C108.145 21.8316 108.26 22.1202 108.433 21.7162C108.549 21.3699 108.549 20.6773 108.433 20.2733C108.26 19.927 108.145 20.2156 108.145 21.0236Z" fill="#677EA4" fill-opacity="0.8"/>
<path d="M129.441 4.05549C128.633 5.49837 126.094 9.59613 123.785 13.1167C121.476 16.6374 119.687 19.5808 119.745 19.6962C120.38 20.2734 131.403 3.07434 131.057 2.03547C130.942 1.68918 130.191 2.61262 129.441 4.05549Z" fill="#677EA4" fill-opacity="0.8"/>
<path d="M131.346 5.55582C130.134 7.57584 127.479 11.385 125.401 14.0976C123.381 16.8102 122.4 18.3685 123.323 17.5605C124.881 16.1177 132.096 6.30611 133.423 3.82437C133.77 3.07408 133.943 2.32378 133.827 2.20835C133.654 2.03521 132.558 3.5358 131.346 5.55582Z" fill="#677EA4" fill-opacity="0.8"/>
<path d="M139.195 6.42196C138.04 7.92254 134.289 11.3277 130.768 14.0403L129.094 15.3101L130.941 14.3866C131.98 13.9249 133.019 13.5209 133.25 13.5209C133.539 13.5209 133.712 13.2323 133.712 12.8283C133.712 12.482 134.058 12.078 134.52 11.9049C135.039 11.7317 135.155 11.9049 134.866 12.4243C134.289 13.4055 136.251 11.8472 139.656 8.67284C142.484 5.96024 143.004 4.40193 140.233 6.94139C138.387 8.55741 138.387 8.55741 139.714 7.05682C140.522 6.13338 140.984 5.32537 140.811 5.15223C140.637 4.92137 139.887 5.49852 139.195 6.42196ZM138.617 8.49969C138.617 8.61512 137.752 9.42313 136.771 10.4043L134.866 12.078L136.54 10.1734C138.156 8.44198 138.617 8.03797 138.617 8.49969Z" fill="#677EA4" fill-opacity="0.8"/>
<path d="M140.292 9.2496C138.618 10.9811 137.521 12.3662 137.868 12.3662C138.214 12.3662 138.791 11.9622 139.195 11.5005C139.599 10.9811 140.292 10.6925 140.753 10.8656C141.215 11.0388 142.427 10.3462 143.581 9.30732C145.486 7.57587 145.544 7.40273 144.505 6.76786C143.524 6.19071 143.004 6.537 140.292 9.2496ZM143.812 8.32616C143.466 8.96103 142.658 9.76904 141.908 10.1153C140.811 10.6925 140.811 10.577 142.254 9.07646C143.12 8.15302 143.639 7.17187 143.408 6.88329C143.12 6.65243 143.293 6.59472 143.697 6.82558C144.216 7.11415 144.216 7.51816 143.812 8.32616Z" fill="#677EA4" fill-opacity="0.8"/>
<path d="M111.607 30.8357C109.933 31.0666 108.433 31.4129 108.317 31.4706C108.202 31.586 110.626 31.7015 113.685 31.7592C117.667 31.7592 121.015 32.2209 125.286 33.3175C132.385 35.1066 135.155 34.6449 129.614 32.6249C123.496 30.3163 118.591 29.8546 111.607 30.8357ZM126.209 32.2786C129.268 33.2598 128.171 33.3175 124.189 32.2786C122.458 31.8746 121.65 31.5283 122.458 31.5283C123.266 31.5283 124.939 31.8169 126.209 32.2786Z" fill="#677EA4" fill-opacity="0.8"/>
<path d="M47.1397 49.8236C48.7558 50.7471 51.2952 52.5939 52.7958 53.9214C54.2964 55.2488 55.6816 56.23 55.8547 56.0568C56.2587 55.6528 49.6215 50.1699 47.4283 49.0156C44.4271 47.4573 44.1963 48.0922 47.1397 49.8236Z" fill="#677EA4" fill-opacity="0.8"/>
<path d="M57.9898 53.2866C58.1629 54.6718 58.567 56.0569 58.8555 56.3455C59.2018 56.6918 59.2595 55.9415 58.9132 54.1523C58.2207 50.6317 57.5858 49.9968 57.9898 53.2866Z" fill="#677EA4" fill-opacity="0.8"/>
<path d="M59.9524 55.0757C60.1256 57.1534 60.5296 59.2312 60.7604 59.6929C61.1067 60.2123 61.1067 59.2889 60.8759 57.3843C60.2987 52.5939 59.5484 50.7471 59.9524 55.0757Z" fill="#677EA4" fill-opacity="0.8"/>
<path d="M62.8381 55.364C61.9724 59.5772 61.7992 61.8858 62.3764 62.2321C62.7227 62.4629 62.8381 62.9824 62.6072 63.4441C62.3764 64.079 62.5495 64.1944 63.2421 63.9635C64.281 63.5595 64.4541 62.8092 63.5884 62.2898C63.2998 62.1167 63.0112 61.4818 63.0112 60.9624C63.0112 60.1543 63.1267 60.1543 63.5307 60.7892C63.877 61.3086 64.1078 60.5006 64.2232 58.3652C64.3387 56.6337 64.281 55.3063 64.0501 55.4217C63.877 55.5372 63.5884 55.1909 63.473 54.6714C63.2998 53.9788 63.1267 54.2097 62.8381 55.364ZM63.4152 58.6538C63.2998 59.4041 63.1844 58.9423 63.1844 57.6726C63.1267 56.4029 63.2421 55.8257 63.4152 56.3452C63.5307 56.9223 63.5307 57.9612 63.4152 58.6538Z" fill="#677EA4" fill-opacity="0.8"/>
<path d="M65.5503 57.4995C65.0308 59.2886 64.8577 68.119 65.3771 68.9848C65.5503 69.331 65.8965 66.6762 66.012 63.0978C66.1274 59.4618 66.1851 56.4606 66.1274 56.3452C66.0697 56.2298 65.8388 56.7492 65.5503 57.4995Z" fill="#677EA4" fill-opacity="0.8"/>
<path d="M45.5815 52.5932C45.9278 52.7086 46.2741 53.1126 46.2741 53.4012C46.2741 53.7475 46.0433 53.8629 45.8124 53.6897C45.5238 53.5166 45.293 53.8052 45.293 54.2669C45.293 54.7863 45.5238 54.9018 45.8701 54.5555C46.1587 54.2669 46.7358 54.1515 47.1398 54.2669C47.5439 54.44 48.0633 54.3246 48.2941 53.9783C48.4673 53.632 48.2941 53.4589 47.8324 53.6897C47.3707 53.8629 46.8513 53.5743 46.6781 53.1126C46.4473 52.5932 45.9855 52.1892 45.5815 52.2469C45.0044 52.2469 45.0044 52.3623 45.5815 52.5932Z" fill="#677EA4" fill-opacity="0.8"/>
<path d="M51.18 68.8694C51.8148 69.158 52.9691 69.4466 53.7771 69.4466C55.2777 69.5043 61.6264 72.2169 61.2224 72.6786C61.0492 72.7941 59.9526 72.6786 58.6829 72.39C55.1623 71.582 55.624 72.1592 59.3755 73.2558C61.2224 73.7752 63.0692 74.5255 63.531 74.8718C64.2235 75.4489 64.2813 75.3912 63.7618 74.4101C62.2612 71.6398 57.4132 68.9849 53.0268 68.5809C50.8914 68.4077 50.372 68.4654 51.18 68.8694Z" fill="#677EA4" fill-opacity="0.8"/>
<path d="M106.009 53.8059C107.913 54.7294 109.991 56.0568 110.568 56.7494C111.203 57.3843 111.953 57.9614 112.242 57.9614C113.223 57.9614 110.799 55.5951 108.317 54.21C107.048 53.4597 105.258 52.6516 104.277 52.4785C103.238 52.2476 103.873 52.7671 106.009 53.8059Z" fill="#677EA4" fill-opacity="0.8"/>
<path d="M52.5649 61.9441C52.9689 62.2327 53.0843 62.579 52.8535 62.6944C52.5649 62.8676 52.6803 62.8676 53.142 62.7521C53.546 62.6367 54.2386 62.7521 54.5849 62.983C54.9889 63.2716 54.758 62.983 54.1809 62.4058C53.546 61.8864 52.7957 61.4247 52.3917 61.4247C52.0454 61.4247 52.0454 61.6555 52.5649 61.9441Z" fill="#677EA4" fill-opacity="0.8"/>
<path d="M56.0854 63.9634C56.0854 64.0788 56.5472 64.5405 57.1243 64.9445C57.99 65.6948 58.0478 65.6371 57.2975 64.7137C56.5472 63.7902 56.0854 63.5017 56.0854 63.9634Z" fill="#677EA4" fill-opacity="0.8"/>
<path d="M104.451 82.0287C104.797 82.1441 105.49 82.1441 105.894 82.0287C106.24 81.8555 105.951 81.7401 105.143 81.7401C104.335 81.7401 104.047 81.8555 104.451 82.0287Z" fill="#677EA4" fill-opacity="0.8"/>
<path d="M95.9086 82.7781L94.4657 83.2398L95.9086 83.3553C97.2361 83.4707 91.6377 84.9713 89.6177 85.029C89.156 85.0867 88.9251 85.2021 89.0983 85.3753C89.2714 85.5484 91.6954 85.3176 94.4657 84.7981C97.2361 84.3364 100.93 83.9324 102.604 83.9324C104.277 83.9324 105.778 83.7016 105.951 83.413C106.297 82.8358 102.892 82.201 100.237 82.3164C98.7367 82.3741 98.7944 82.4318 100.814 82.7781L103.123 83.1821L100.353 83.2975C98.6212 83.2975 97.6978 83.1244 97.9286 82.7781C98.3327 82.1432 97.9286 82.1432 95.9086 82.7781Z" fill="#677EA4" fill-opacity="0.8"/>
<path d="M96.1973 77.642C96.0241 77.8729 96.3127 77.9883 96.7744 77.9306C97.9864 77.7575 98.3904 77.1803 97.3516 77.1803C96.8321 77.1803 96.3127 77.4112 96.1973 77.642Z" fill="#677EA4" fill-opacity="0.8"/>
<path d="M94.0621 78.5651C92.9655 79.8926 92.2729 81.0469 92.6769 81.0469C92.7924 81.0469 93.4849 80.2389 94.1775 79.3154C95.505 77.4108 95.4473 77.0068 94.0621 78.5651Z" fill="#677EA4" fill-opacity="0.8"/>
<path d="M84.1345 81.3357C83.9036 82.1437 83.4419 82.7208 83.0379 82.6054C82.6339 82.5477 82.403 83.0094 82.4607 83.7597C82.5762 84.7408 82.403 84.9717 81.6527 84.6831C80.9024 84.3945 80.787 84.5677 81.0756 85.318C81.3064 85.8951 81.2487 86.1837 80.9024 85.9528C80.5561 85.7797 80.3253 85.8374 80.3253 86.1837C80.3253 86.4723 80.1521 87.2226 79.979 87.7997C79.6327 88.7232 79.6904 88.7232 80.6716 87.6843C83.0956 85.2026 86.0391 79.8928 85.0002 79.8928C84.7116 79.8928 84.3076 80.5276 84.1345 81.3357Z" fill="#677EA4" fill-opacity="0.8"/>
<path d="M86.0973 83.356C85.751 83.9908 85.6356 84.5103 85.751 84.5103C85.9242 84.5103 86.3282 83.9908 86.6745 83.356C87.0208 82.7211 87.1362 82.2017 87.0208 82.2017C86.8476 82.2017 86.4436 82.7211 86.0973 83.356Z" fill="#677EA4" fill-opacity="0.8"/>
<path d="M28.6713 79.835C28.4982 80.1236 28.6136 80.5276 28.9599 80.7584C29.2485 80.9316 29.5371 80.7007 29.5371 80.239C29.5371 79.2001 29.1908 79.027 28.6713 79.835Z" fill="#677EA4" fill-opacity="0.8"/>
<path d="M36.5779 112.155C36.0585 112.444 36.5779 112.79 38.3094 113.252C42.4648 114.29 44.3694 114.579 43.3883 114.002C42.9266 113.771 41.5414 113.367 40.3294 113.136C39.1174 112.905 38.3094 112.501 38.4825 112.155C38.9442 111.52 37.6168 111.462 36.5779 112.155Z" fill="#677EA4" fill-opacity="0.8"/>
<path d="M40.272 115.099C40.9068 115.676 45.0046 116.542 44.4274 115.964C44.2543 115.734 43.1 115.33 41.9457 115.099C40.7337 114.81 39.9834 114.81 40.272 115.099Z" fill="#677EA4" fill-opacity="0.8"/>
<path d="M67.0514 90.2241C67.0514 91.4938 66.8782 92.9944 66.6473 93.5716C66.4742 94.1487 66.4742 94.4373 66.7051 94.2064C66.9359 94.0333 67.4554 92.7058 67.9171 91.263C68.6097 89.0121 68.6097 88.6081 67.8594 88.3195C67.2245 88.0887 67.0514 88.5504 67.0514 90.2241Z" fill="#677EA4" fill-opacity="0.8"/>
<path d="M77.3822 101.075C76.9205 101.652 76.8627 101.883 77.2668 101.652C77.613 101.421 79.0559 101.594 80.4411 102.056L82.9228 102.921L81.1914 101.479C79.1136 99.8625 78.4211 99.7471 77.3822 101.075Z" fill="#677EA4" fill-opacity="0.8"/>
<path d="M46.2744 106.154C46.2744 106.616 50.603 110.425 50.8339 110.136C51.1802 109.848 48.583 107.077 47.3133 106.385C46.7361 106.096 46.2744 105.981 46.2744 106.154Z" fill="#677EA4" fill-opacity="0.8"/>
<path d="M66.3589 112.906C65.8971 113.194 66.2434 113.252 67.34 113.079L69.0715 112.732L67.34 113.598C66.4166 114.06 65.8971 114.464 66.1857 114.464C66.9937 114.464 72.1304 113.079 72.4767 112.79C72.9384 112.271 67.1092 112.386 66.3589 112.906Z" fill="#677EA4" fill-opacity="0.8"/>
<path d="M64.743 118.389C61.7995 119.428 58.856 120.928 59.1446 121.217C59.3178 121.39 60.0681 121.217 60.8184 120.813C61.5109 120.409 63.7041 119.601 65.6087 119.081C68.0904 118.331 68.6099 118.043 67.3401 118.1C66.4167 118.1 65.2047 118.216 64.743 118.389Z" fill="#677EA4" fill-opacity="0.8"/>
<path d="M49.5057 120.293C49.852 120.755 50.4292 121.678 50.7755 122.313C51.1218 122.948 51.468 123.179 51.468 122.775C51.468 122.371 50.8909 121.505 50.1983 120.755C49.448 120.004 49.1595 119.773 49.5057 120.293Z" fill="#677EA4" fill-opacity="0.8"/>
<path d="M58.7401 123.121C58.8555 123.237 58.5092 123.699 57.9321 124.103C57.124 124.795 57.2972 124.737 58.9709 124.103C60.0675 123.699 61.3949 123.179 61.8567 123.006C62.3184 122.833 61.799 122.775 60.5869 122.833C59.4326 122.833 58.6246 123.006 58.7401 123.121Z" fill="#677EA4" fill-opacity="0.8"/>
<path d="M14.2423 108.865C12.684 109.154 11.1257 109.673 10.7794 110.02C10.3754 110.481 10.6062 110.539 11.6451 110.25C12.4531 110.077 14.0691 109.731 15.2811 109.558C16.4354 109.327 17.4166 108.981 17.4166 108.692C17.4166 108.403 17.3589 108.23 17.3012 108.23C17.1857 108.288 15.8583 108.577 14.2423 108.865Z" fill="#677EA4" fill-opacity="0.8"/>
<path d="M20.4756 111.347C19.4944 111.751 18.3401 112.732 17.9361 113.425C17.2435 114.752 17.2435 114.752 18.975 113.367C19.9561 112.559 21.2259 111.635 21.803 111.231C23.2459 110.308 22.7265 110.366 20.4756 111.347Z" fill="#677EA4" fill-opacity="0.8"/>
<path d="M11.6448 131.894C11.6448 132.183 12.1642 132.414 12.7414 132.414C13.3762 132.414 14.0111 132.644 14.2419 132.991C14.4151 133.279 14.9922 133.395 15.5694 133.222C16.4351 132.933 16.4351 132.991 15.6848 133.568C14.9922 134.145 15.05 134.203 16.262 133.914C17.07 133.799 18.3397 134.03 19.1477 134.491C20.1289 135.068 20.1866 135.242 19.4363 135.011C17.4163 134.318 12.2219 134.087 12.2219 134.722C12.2219 135.011 12.9722 135.299 13.8379 135.299C16.1465 135.299 24.1112 137.492 26.5929 138.762C29.0747 140.09 28.613 140.263 25.6695 139.051C20.706 137.088 12.2796 135.761 13.0876 137.031C13.2608 137.319 14.5882 137.608 15.9157 137.608C17.3008 137.608 20.5906 138.243 23.2455 138.993C25.8427 139.743 28.3821 140.205 28.8438 140.032C29.421 139.859 29.5941 139.974 29.3056 140.378C29.0747 140.782 29.7096 141.417 30.8061 141.936C32.4799 142.744 32.5376 142.744 31.6141 141.936C30.9793 141.475 30.1713 141.071 29.8827 141.071C29.5364 141.071 29.5941 140.84 29.9981 140.551C31.441 139.686 20.4752 133.683 14.4728 132.125C12.9145 131.721 11.6448 131.605 11.6448 131.894Z" fill="#677EA4" fill-opacity="0.8"/>
<path d="M12.1068 133.394C12.5108 133.568 13.0302 133.51 13.2034 133.337C13.4343 133.164 13.088 132.99 12.4531 133.048C11.8182 133.048 11.6451 133.221 12.1068 133.394Z" fill="#677EA4" fill-opacity="0.8"/>
<path d="M27.1699 147.362C25.0344 148.054 23.0144 149.209 23.3607 149.555C23.5339 149.67 24.515 149.382 25.5539 148.862C26.939 148.112 28.4973 147.939 31.614 148.112C33.9803 148.227 35.4809 148.112 35.0191 147.823C33.6917 147.131 28.8436 146.842 27.1699 147.362Z" fill="#677EA4" fill-opacity="0.8"/>
<path d="M21.3989 127.623C22.207 129.239 22.207 129.701 21.3412 129.181C20.9372 128.893 20.8795 129.008 21.1104 129.47C21.3989 129.874 21.6875 130.047 21.8607 129.874C22.0338 129.701 22.6687 130.162 23.3035 130.855C24.227 131.952 24.227 131.836 23.1304 129.816C22.4955 128.546 21.6298 127.219 21.3412 126.93C20.9949 126.584 20.9949 126.873 21.3989 127.623Z" fill="#677EA4" fill-opacity="0.8"/>
<path d="M87.8286 145.63C88.9252 146.15 89.964 146.554 90.1372 146.381C90.6566 145.977 88.1749 144.534 87.0206 144.534C86.0971 144.592 86.2703 144.822 87.8286 145.63Z" fill="#677EA4" fill-opacity="0.8"/>
<path d="M75.5932 142.283C75.0738 142.572 74.7275 143.149 74.9006 143.61C75.0738 144.014 74.7852 144.361 74.2658 144.361C73.6886 144.361 73.4578 144.014 73.6886 143.437C73.8618 142.86 73.6309 142.918 73.0538 143.668C72.592 144.303 71.9572 144.765 71.6686 144.707C71.38 144.592 70.6874 145.4 70.2257 146.438C69.5909 147.766 69.5331 147.997 70.1103 147.304C70.572 146.727 71.0914 146.438 71.2646 146.612C71.4377 146.785 71.8417 146.438 72.188 145.804C72.592 144.996 73.2846 144.707 74.5543 144.822C76.3435 144.996 78.5944 143.38 78.5944 141.994C78.5367 141.648 77.9018 142.11 77.1515 143.091C75.6509 144.88 75.2469 144.707 76.2858 142.745C76.9784 141.475 76.9207 141.475 75.5932 142.283Z" fill="#677EA4" fill-opacity="0.8"/>
<path d="M73.0537 149.035C73.2269 149.382 73.0537 149.786 72.7075 149.959C72.3034 150.132 72.5343 150.132 73.2846 149.959C73.9772 149.786 74.5543 149.901 74.5543 150.247C74.5543 150.594 74.8429 150.882 75.1892 150.882C76.0549 150.882 75.3046 149.843 73.8618 149.093C73.1692 148.689 72.8229 148.689 73.0537 149.035Z" fill="#677EA4" fill-opacity="0.8"/>
<path d="M84.2503 173.449C83.6732 174.026 83.4423 174.545 83.6732 174.545C83.9618 174.545 84.6543 174.026 85.2315 173.391C85.8086 172.756 86.0395 172.237 85.7509 172.295C85.4623 172.295 84.7698 172.814 84.2503 173.449Z" fill="#677EA4" fill-opacity="0.8"/>
<path d="M78.8829 185.453C77.6131 186.03 76.1703 186.954 75.7085 187.531C74.9582 188.454 75.1314 188.454 76.9205 187.358C78.0748 186.665 80.0372 185.684 81.2492 185.28C82.6343 184.76 83.0383 184.414 82.3458 184.414C81.7109 184.414 80.1526 184.876 78.8829 185.453Z" fill="#677EA4" fill-opacity="0.8"/>
<path d="M72.419 195.034C71.3802 195.957 71.0916 196.419 71.6687 196.477C72.7653 196.477 74.0928 195.611 73.9773 194.976C73.9196 194.745 74.3813 194.341 74.9585 194.11C75.8819 193.706 75.8819 193.649 75.0162 193.649C74.4968 193.591 73.2848 194.226 72.419 195.034Z" fill="#677EA4" fill-opacity="0.8"/>
<path d="M41.0796 176.335C41.0796 177.143 43.4459 181.067 43.7345 180.721C43.9653 180.49 41.6567 175.7 41.3104 175.7C41.195 175.7 41.0796 175.988 41.0796 176.335Z" fill="#677EA4" fill-opacity="0.8"/>
<path d="M97.9865 18.5421C97.8134 19.1192 97.4094 21.0815 97.1208 22.9284C96.7745 24.7753 95.5048 29.3348 94.235 33.0285C93.023 36.78 91.811 40.3006 91.5802 40.9355C91.2339 42.0321 91.2339 42.0321 92.0419 41.0509C92.5036 40.4738 94.235 35.9143 95.7934 30.9508C99.7757 18.4266 99.6603 19.0615 98.7368 19.5809C98.102 19.9272 98.0442 19.8695 98.6791 19.2347C99.4871 18.3689 99.6025 17.5609 98.8522 17.5609C98.5637 17.5609 98.1597 18.0226 97.9865 18.5421Z" fill="#677EA4" fill-opacity="0.8"/>
</svg>
