<svg width="114" height="128" viewBox="0 0 114 128" fill="none" xmlns="http://www.w3.org/2000/svg">
<path d="M40.148 0.426023C38.5791 0.67374 36.3568 1.30154 35.9026 1.46668C32.063 2.99427 30.3906 4.43922 28.6181 5.80274C25.9797 7.83221 23.4669 10.6444 21.898 13.7822L21.16 15.686H11.3716C6.08692 15.6447 0.346885 15.686 0 15.689C0.867214 16.0359 2.07081 16.6561 2.60164 17.25C4.54256 19.4212 4.80589 19.5529 5.30249 60.0026C5.5502 102.115 5.14601 100.76 7.45804 107.614C12.7014 123.261 29.1091 131.01 44.9217 123.744C53.4326 119.833 58.9614 114.377 61.9191 104.145C64.9742 93.5755 62.491 81.9541 55.8026 72.0454C52.541 67.2562 47.9505 61.6269 43.4916 56.8377C32.0141 44.3693 27.3906 38.121 25.1611 31.1023C24.1764 28.0024 23.9463 22.9619 24.0047 21.1556C24.0631 19.3494 24.3339 18.1272 24.4137 17.7703H41.6263C59.2555 17.8942 60.633 18.231 65.5461 19.1806C76.9823 21.3688 83.6939 25.7271 87.8638 34.1908C89.9694 38.4845 90.8922 41.1379 90.8922 47.9501C90.8922 54.4733 89.6503 57.4871 87.008 62.5653C83.0858 69.9968 75.2517 75.2188 66.9944 76.1271C65.632 76.2922 63.2419 76.3246 63.2419 76.3246C63.2419 76.3246 65.3925 77.7071 66.7969 78.7605C71.0907 81.9808 73.8375 85.5175 80.98 96.128C83.7049 100.174 87.0491 105.128 88.4115 107.069C89.7327 109.009 92.7957 113.303 95.0251 116.647C99.195 122.881 100.667 124.866 103.598 125.898C108.733 127.706 114 126.885 114 126.885C114 126.885 112.881 126.49 111.762 126.095C110.998 125.826 109.852 125.349 109.194 124.91C108.207 124.252 105.982 122.097 103.339 118.629C102.39 117.39 99.3836 112.932 96.5762 108.72C84.0252 90.1415 82.2858 87.512 79.4371 83.9614C77.6618 81.7732 75.3353 79.5125 73.9728 78.563C72.6517 77.696 70.747 76.8513 70.747 76.8513C70.747 76.8513 72.693 76.367 73.9728 75.9954C80.9089 74.0137 87.5703 69.7122 91.6164 63.6844C95.167 58.3998 96.8831 53.3307 96.8831 46.4359C96.8831 32.7702 89.8334 22.874 76.8695 18.4564C69.6857 16.0205 61.65 15.6064 41.6263 15.689C41.6263 15.689 25.1822 15.689 24.9758 15.689C24.9758 15.689 25.7391 13.019 27.308 10.6244C29.4879 7.14571 31.3119 5.27875 33.6165 4.03874C35.0807 3.2509 36.6456 2.45452 38.8512 2.16045C41.4528 1.81356 44.4013 1.81357 46.6561 2.50734C49.332 3.20012 51.5125 4.41521 53.7673 5.97619C54.6804 6.60834 56.1955 7.88406 56.5423 8.23095C56.5423 7.36373 56.5423 3.72143 56.5423 2.85422C56.3689 2.68078 53.5104 1.26004 50.1249 0.599464C45.7073 -0.350117 42.7497 0.0152375 40.148 0.426023ZM20.4497 17.7703C20.3671 18.2244 19.7913 20.7606 19.6701 22.0194C19.0013 26.3565 20.2481 33.0841 22.973 38.4926C24.2116 40.9285 27.019 45.5525 27.5144 45.9654C27.6383 46.0892 28.8356 47.5755 30.1155 49.2683C31.3953 50.961 32.8816 52.8189 33.4184 53.3969C33.9138 53.9749 35.5652 55.8328 37.0515 57.5255C38.5378 59.2182 40.0654 60.9935 40.5196 61.4477C44.4831 65.7414 50.017 73.0831 52.5767 77.7071C56.2099 84.3129 57.3683 88.066 57.4095 95.9929C57.4508 101.443 57.1533 102.858 56.3689 105.624C54.8413 110.95 53.3123 115.353 50.2984 118.367C46.2523 122.413 41.9886 124.007 36.2499 124.007C25.4329 124.007 16.6562 116.647 12.8991 105.624C11.2601 100.815 10.9696 99.9591 10.7523 58.2687V17.7703H15.6098H20.4497Z" fill="#64725C"/>
</svg>
